<?xml version="1.0" encoding="UTF-8" standalone="no"?>
<!-- Created with Inkscape (http://www.inkscape.org/) -->

<svg
   xmlns:dc="http://purl.org/dc/elements/1.1/"
   xmlns:cc="http://creativecommons.org/ns#"
   xmlns:rdf="http://www.w3.org/1999/02/22-rdf-syntax-ns#"
   xmlns:svg="http://www.w3.org/2000/svg"
   xmlns="http://www.w3.org/2000/svg"
   xmlns:sodipodi="http://sodipodi.sourceforge.net/DTD/sodipodi-0.dtd"
   xmlns:inkscape="http://www.inkscape.org/namespaces/inkscape"
   width="351.51785mm"
   height="146.65475mm"
   viewBox="0 0 351.51786 146.65476"
   version="1.1"
   id="svg8"
   sodipodi:docname="lego_meetlat.svg"
   inkscape:version="0.92.4 (unknown)">
  <defs
     id="defs2">
    <style
       id="style843"
       type="text/css">
   
    .fil0 {fill:#000000}
   
  </style>
  </defs>
  <sodipodi:namedview
     id="base"
     pagecolor="#ffffff"
     bordercolor="#666666"
     borderopacity="1.0"
     inkscape:pageopacity="0.0"
     inkscape:pageshadow="2"
     inkscape:zoom="0.9899495"
     inkscape:cx="722.20186"
     inkscape:cy="-8.5128085"
     inkscape:document-units="mm"
     inkscape:current-layer="layer1"
     showgrid="false"
     inkscape:snap-global="false"
     inkscape:window-width="1920"
     inkscape:window-height="1055"
     inkscape:window-x="1600"
     inkscape:window-y="25"
     inkscape:window-maximized="1"
     showguides="true"
     inkscape:guide-bbox="true"
     inkscape:snap-midpoints="true"
     inkscape:snap-smooth-nodes="true"
     inkscape:snap-intersection-paths="true"
     inkscape:object-paths="true" />
  <metadata
     id="metadata5">
    <rdf:RDF>
      <cc:Work
         rdf:about="">
        <dc:format>image/svg+xml</dc:format>
        <dc:type
           rdf:resource="http://purl.org/dc/dcmitype/StillImage" />
        <dc:title />
      </cc:Work>
    </rdf:RDF>
  </metadata>
  <g
     inkscape:label="Layer 1"
     inkscape:groupmode="layer"
     id="layer1"
     transform="translate(101.41575,-39.862442)">
    <rect
       style="fill:none;fill-opacity:1;stroke:none;stroke-width:1.05833328;stroke-linecap:round;stroke-linejoin:round;stroke-miterlimit:4;stroke-dasharray:4.23333308, 4.23333308;stroke-dashoffset:0;stroke-opacity:1;paint-order:markers stroke fill"
       id="rect941"
       width="351.51785"
       height="146.65475"
       x="-101.41575"
       y="39.862442"
       rx="1.6568843"
       ry="1.6568843" />
    <g
       id="text1049"
       style="font-style:normal;font-variant:normal;font-weight:normal;font-stretch:normal;font-size:10.58333302px;line-height:1.25;font-family:Quicksand;-inkscape-font-specification:Quicksand;text-align:center;letter-spacing:0px;word-spacing:0px;text-anchor:middle;fill:#f4f4f4;fill-opacity:1;stroke:none;stroke-width:0.26458332"
       aria-label="0" />
    <g
       id="text1304"
       style="font-style:normal;font-variant:normal;font-weight:normal;font-stretch:normal;font-size:10.58333302px;line-height:1.25;font-family:Quicksand;-inkscape-font-specification:Quicksand;text-align:center;letter-spacing:0px;word-spacing:0px;text-anchor:middle;fill:#f4f4f4;fill-opacity:1;stroke:none;stroke-width:0.26458332"
       aria-label="1"
       transform="translate(31.753173)" />
    <g
       id="text1336"
       style="font-style:normal;font-variant:normal;font-weight:normal;font-stretch:normal;font-size:10.58333302px;line-height:1.25;font-family:Quicksand;-inkscape-font-specification:Quicksand;text-align:center;letter-spacing:0px;word-spacing:0px;text-anchor:middle;fill:#f4f4f4;fill-opacity:1;stroke:none;stroke-width:0.26458332"
       aria-label="2"
       transform="translate(63.506346)" />
    <g
       id="text1368"
       style="font-style:normal;font-variant:normal;font-weight:normal;font-stretch:normal;font-size:10.58333302px;line-height:1.25;font-family:Quicksand;-inkscape-font-specification:Quicksand;text-align:center;letter-spacing:0px;word-spacing:0px;text-anchor:middle;fill:#000000;fill-opacity:1;stroke:none;stroke-width:0.26458332"
       aria-label="3"
       transform="translate(95.259519)" />
    <g
       aria-label="cm"
       style="font-style:normal;font-variant:normal;font-weight:normal;font-stretch:normal;font-size:14.06518841px;line-height:1.25;font-family:Quicksand;-inkscape-font-specification:Quicksand;letter-spacing:0px;word-spacing:0px;fill:#f4f4f4;fill-opacity:1;stroke:none;stroke-width:0.26458332"
       id="text1862" />
    <g
       id="g1575"
       transform="translate(2.1909905e-6,-6.680664e-6)">
      <path
         style="clip-rule:evenodd;fill:#ff4136;fill-rule:evenodd;stroke-width:0.38338122"
         inkscape:connector-curvature="0"
         d="M 121.35936,94.102445 H 71.275343 V 63.217297 h 7.512621 v -5.843135 h 13.355734 v 5.843135 h 10.016792 v -5.843135 h 13.35573 v 5.843135 h 5.84314 z"
         id="path817-3" />
      <g
         style="stroke-width:0.58527869"
         transform="matrix(1.7085878,0,0,1.7085878,-27.04505,-33.178699)"
         id="g1896">
        <path
           inkscape:connector-curvature="0"
           style="clip-rule:evenodd;fill:#357edd;fill-rule:evenodd;stroke-width:0.46893302;image-rendering:optimizeQuality;shape-rendering:geometricPrecision;text-rendering:geometricPrecision"
           d="m 39.705684,97.488465 v 19.869045 h -9.20186 v -11.69122 h -1.17471 v 11.69122 h -9.20185 V 97.488465 h 19.57844 z"
           id="path1472" />
        <path
           inkscape:connector-curvature="0"
           style="clip-rule:evenodd;fill:#ff4136;fill-rule:evenodd;stroke-width:0.46893302;image-rendering:optimizeQuality;shape-rendering:geometricPrecision;text-rendering:geometricPrecision"
           d="m 20.159924,96.817341 0.65826,-5.83893 h 10e-6 l 1.29636,-11.499171 c 0.17809,-0.771179 0.78962,-1.234758 1.58292,-1.222956 h 1.81547 0.60891 7.28919 0.51891 2.20545 c 0.79329,-0.0118 1.40483,0.45178 1.58291,1.222956 l 0.007,0.06011 1.2896,11.439083 h 1e-5 l 0.65826,5.838928 h -19.51298 z"
           id="path1470" />
        <path
           inkscape:connector-curvature="0"
           style="clip-rule:evenodd;fill:#ffde37;fill-rule:evenodd;stroke-width:0.46893302;image-rendering:optimizeQuality;shape-rendering:geometricPrecision;text-rendering:geometricPrecision"
           d="m 26.121854,77.760245 v -1.073842 h -0.8903 c -1.28526,0 -2.33682,-1.051561 -2.33682,-2.336827 v -6.276415 c 0,-1.285267 1.05156,-2.336827 2.33682,-2.336827 h 0.8903 v -2.204362 c 0,-0.217505 0.15454,-0.395438 0.34343,-0.395438 h 6.60234 c 0.18889,0 0.34342,0.177933 0.34342,0.395438 v 2.204362 h 0.89032 c 1.28527,0 2.33683,1.05156 2.33683,2.336827 v 6.276415 c 0,1.285266 -1.05156,2.336827 -2.33683,2.336827 h -0.89032 v 1.073842 h -7.28918 z"
           id="path1468" />
        <path
           inkscape:connector-curvature="0"
           style="clip-rule:evenodd;fill:#ffde37;fill-rule:evenodd;stroke-width:0.46893302;image-rendering:optimizeQuality;shape-rendering:geometricPrecision;text-rendering:geometricPrecision"
           d="m 18.316164,94.3113 -0.2222,0.819706 c 0.73773,0.638476 1.18668,1.572101 1.29714,2.6104 0.11185,1.051441 -0.9179,3.670074 -2.76495,3.034444 -1.49984,-0.51614 1.08417,-4.237737 -0.78039,-4.432616 -0.73744,-0.118626 -1.08565,0.695116 -1.15086,1.239525 -0.57721,4.819011 -3.12153,2.077376 -2.93977,0.15865 0.15288,-1.613691 1.22135,-2.972173 2.86553,-3.366106 l 0.26465,-0.971854"
           id="path1476" />
        <path
           inkscape:connector-curvature="0"
           style="clip-rule:evenodd;fill:#ff4136;fill-rule:evenodd;stroke-width:0.46893302;image-rendering:optimizeQuality;shape-rendering:geometricPrecision;text-rendering:geometricPrecision"
           d="m 14.885314,93.403449 -0.26826,-0.07099 c -0.46135,-0.160041 -0.5525,-0.655355 -0.31537,-1.150657 l 3.64302,-9.395107 c 0.72851,-1.456261 1.63914,-2.978053 3.4843,-3.216855 l -1.21459,10.773753 -1e-5,2.7e-5 -0.95295,3.393096 c -0.138,0.431313 -0.42268,0.708956 -0.84007,0.602424 l -0.10522,-0.02784"
           id="path1466" />
        <path
           inkscape:connector-curvature="0"
           style="clip-rule:evenodd;fill:#ffde37;fill-rule:evenodd;stroke-width:0.46893302;image-rendering:optimizeQuality;shape-rendering:geometricPrecision;text-rendering:geometricPrecision"
           d="m 44.834924,93.403438 0.26466,0.97187 c 1.64418,0.393922 2.71265,1.752407 2.86552,3.36609 0.18177,1.918721 -2.36256,4.660362 -2.93977,-0.158649 -0.0652,-0.54441 -0.41341,-1.358154 -1.15085,-1.239526 -1.86457,0.194879 0.71945,3.916487 -0.7804,4.432617 -1.84705,0.63563 -2.8768,-1.983004 -2.76494,-3.034445 0.11045,-1.038299 0.5594,-1.971921 1.29714,-2.6104 l -0.2222,-0.819703"
           id="path1480" />
        <path
           inkscape:connector-curvature="0"
           style="clip-rule:evenodd;fill:#ff4136;fill-rule:evenodd;stroke-width:0.46893302;image-rendering:optimizeQuality;shape-rendering:geometricPrecision;text-rendering:geometricPrecision"
           d="m 41.404084,94.311292 -0.10523,0.02784 c -0.41739,0.106529 -0.70206,-0.171114 -0.84006,-0.602427 l -0.79536,-2.831983 0.0181,-0.0021 -1.27725,-11.329556 -10e-6,4e-6 c 1.81153,0.249489 2.64612,1.764087 3.37126,3.213618 l 3.64302,9.395106 c 0.23713,0.495302 0.14599,0.990621 -0.31536,1.150654 l -0.26827,0.07099"
           id="path847-6" />
      </g>
      <path
         inkscape:connector-curvature="0"
         id="rect973"
         d="m 65.860005,129.04215 c -1.932247,0 -3.487981,1.55573 -3.487981,3.48797 v 32.98789 c 0,1.93224 1.555734,3.48748 3.487981,3.48748 h 85.468505 l 4.33405,-7.8256 -4.67125,-11.95835 4.48477,-8.03406 -5.11727,-7.03624 v 3.81138 a 0.34881575,0.45959997 0 1 1 -0.69688,0 v -4.76985 l -0.16503,-0.22684 0.16503,-0.36019 v -3.54009 a 0.34881575,0.45959997 0 0 1 5.1e-4,-0.0235 h -2.48711 a 0.34881575,0.34881575 0 0 1 0.0445,0.17371 v 6.75268 a 0.34881575,0.34881575 0 1 1 -0.6974,0 v -6.75268 a 0.34881575,0.34881575 0 0 1 0.045,-0.17371 h -2.53054 a 0.34881575,0.34881575 0 0 1 0.0434,0.17371 v 6.75268 a 0.34881575,0.34881575 0 1 1 -0.69688,0 v -6.75268 a 0.34881575,0.34881575 0 0 1 0.0439,-0.17371 h -2.53053 a 0.34881575,0.34881575 0 0 1 0.0439,0.17371 v 6.75268 a 0.34881575,0.34881575 0 1 1 -0.69688,0 v -6.75268 a 0.34881575,0.34881575 0 0 1 0.0439,-0.17371 h -2.53002 a 0.34881575,0.34881575 0 0 1 0.0439,0.17371 v 6.75268 a 0.34881575,0.34881575 0 1 1 -0.69739,0 v -6.75268 a 0.34881575,0.34881575 0 0 1 0.0445,-0.17371 h -2.48251 a 0.52322358,0.52322358 0 0 1 0.17115,0.39391 v 11.54349 a 0.5234267,0.5234267 0 0 1 -1.04684,0 v -11.54349 a 0.52322358,0.52322358 0 0 1 0.17063,-0.39391 h -2.4825 a 0.34881575,0.34881575 0 0 1 0.0439,0.17371 v 6.75268 a 0.34881575,0.34881575 0 1 1 -0.69689,0 v -6.75268 a 0.34881575,0.34881575 0 0 1 0.0439,-0.17371 H 128.339 a 0.34881575,0.34881575 0 0 1 0.0439,0.17371 v 6.75268 a 0.34881575,0.34881575 0 1 1 -0.69689,0 v -6.75268 a 0.34881575,0.34881575 0 0 1 0.0445,-0.17371 h -2.53053 a 0.34881575,0.34881575 0 0 1 0.0439,0.17371 v 6.75268 a 0.34881575,0.34881575 0 1 1 -0.69739,0 v -6.75268 a 0.34881575,0.34881575 0 0 1 0.0439,-0.17371 h -2.53003 a 0.34881575,0.34881575 0 0 1 0.0439,0.17371 v 6.75268 a 0.34881575,0.34881575 0 1 1 -0.69687,0 v -6.75268 a 0.34881575,0.34881575 0 0 1 0.0439,-0.17371 h -2.48711 a 0.34881575,0.45959997 0 0 1 5.2e-4,0.0235 v 8.89697 a 0.34881575,0.45959997 0 1 1 -0.69689,0 v -8.89697 a 0.34881575,0.45959997 0 0 1 5.2e-4,-0.0235 h -2.4866 a 0.34881575,0.34881575 0 0 1 0.0439,0.17371 v 6.75268 a 0.34881575,0.34881575 0 1 1 -0.6974,0 v -6.75268 a 0.34881575,0.34881575 0 0 1 0.0439,-0.17371 h -2.53003 a 0.34881575,0.34881575 0 0 1 0.0439,0.17371 v 6.75268 a 0.34881575,0.34881575 0 1 1 -0.69688,0 v -6.75268 a 0.34881575,0.34881575 0 0 1 0.0434,-0.17371 h -2.53053 a 0.34881575,0.34881575 0 0 1 0.045,0.17371 v 6.75268 a 0.34881575,0.34881575 0 1 1 -0.69739,0 v -6.75268 a 0.34881575,0.34881575 0 0 1 0.0445,-0.17371 h -2.53054 a 0.34881575,0.34881575 0 0 1 0.0439,0.17371 v 6.75268 a 0.34881575,0.34881575 0 1 1 -0.69687,0 v -6.75268 a 0.34881575,0.34881575 0 0 1 0.0429,-0.17371 h -2.48251 a 0.52322358,0.52322358 0 0 1 0.17115,0.39391 v 11.54349 a 0.52342769,0.52342769 0 0 1 -1.04685,0 v -11.54349 a 0.52322358,0.52322358 0 0 1 0.17064,-0.39391 h -2.48148 a 0.34881575,0.34881575 0 0 1 0.0439,0.17371 v 6.75268 a 0.34881575,0.34881575 0 1 1 -0.697388,0 v -6.75268 a 0.34881575,0.34881575 0 0 1 0.04449,-0.17371 h -2.530539 a 0.34881575,0.34881575 0 0 1 0.04394,0.17371 v 6.75268 a 0.34881575,0.34881575 0 1 1 -0.69688,0 v -6.75268 a 0.34881575,0.34881575 0 0 1 0.04445,-0.17371 h -2.531046 a 0.34881575,0.34881575 0 0 1 0.04445,0.17371 v 6.75268 a 0.34881575,0.34881575 0 1 1 -0.69739,0 v -6.75268 a 0.34881575,0.34881575 0 0 1 0.04394,-0.17371 H 90.66623 a 0.34881575,0.34881575 0 0 1 0.04394,0.17371 v 6.75268 a 0.34881575,0.34881575 0 1 1 -0.69688,0 v -6.75268 a 0.34881575,0.34881575 0 0 1 0.04394,-0.17371 h -2.487107 a 0.34881575,0.45959997 0 0 1 5.09e-4,0.0235 v 8.89697 a 0.34881575,0.45959997 0 1 1 -0.696879,0 v -8.89697 a 0.34881575,0.45959997 0 0 1 5.12e-4,-0.0235 h -2.486121 a 0.34881575,0.34881575 0 0 1 0.04394,0.17371 v 6.75268 a 0.34881575,0.34881575 0 1 1 -0.69739,0 v -6.75268 a 0.34881575,0.34881575 0 0 1 0.04394,-0.17371 H 81.24861 a 0.34881575,0.34881575 0 0 1 0.04394,0.17371 v 6.75268 a 0.34881575,0.34881575 0 1 1 -0.69688,0 v -6.75268 a 0.34881575,0.34881575 0 0 1 0.04394,-0.17371 h -2.530535 a 0.34881575,0.34881575 0 0 1 0.04394,0.17371 v 6.75268 a 0.34881575,0.34881575 0 1 1 -0.69688,0 v -6.75268 a 0.34881575,0.34881575 0 0 1 0.04445,-0.17371 H 74.97005 a 0.34881575,0.34881575 0 0 1 0.04394,0.17371 v 6.75268 a 0.34881575,0.34881575 0 1 1 -0.697393,0 v -6.75268 a 0.34881575,0.34881575 0 0 1 0.04394,-0.17371 H 71.87953 a 0.52322358,0.52322358 0 0 1 0.170642,0.39391 v 11.54349 a 0.52330015,0.52330015 0 1 1 -1.046342,0 v -11.54349 a 0.52322358,0.52322358 0 0 1 0.170643,-0.39391 z m 84.498295,0 a 0.34881575,0.45959997 0 0 1 5.1e-4,0.0235 v 2.01962 l 0.93649,-2.04312 z m -78.835888,14.61916 c 0.551075,0 1.014524,0.16364 1.391208,0.49149 0.383659,0.32089 0.669986,0.76762 0.858327,1.33961 0.195318,0.56503 0.292752,1.21036 0.292752,1.93584 0,0.71847 -0.09743,1.36331 -0.292752,1.93532 -0.188341,0.56502 -0.474668,1.01175 -0.858327,1.33961 -0.376684,0.32786 -0.840133,0.49149 -1.391208,0.49149 -0.551073,0 -1.015033,-0.16363 -1.391716,-0.49149 -0.376683,-0.32786 -0.66301,-0.77459 -0.858328,-1.33961 -0.188342,-0.57201 -0.282533,-1.21685 -0.282533,-1.93532 0,-0.72548 0.09419,-1.37081 0.282533,-1.93584 0.188342,-0.56502 0.470915,-1.01175 0.847598,-1.33961 0.383659,-0.32785 0.851373,-0.49149 1.402446,-0.49149 z m 62.804058,0 c 0.70453,0 1.25517,0.19162 1.65279,0.57528 0.39761,0.38366 0.59674,0.88637 0.59674,1.50719 0,0.38366 -0.10494,0.77766 -0.31421,1.18224 -0.20927,0.39762 -0.5543,0.86157 -1.03561,1.39171 l -1.92511,2.16576 h 3.21209 c 0.0837,0 0.15368,0.0312 0.20947,0.094 0.0628,0.0559 0.094,0.12579 0.094,0.20948 0,0.0907 -0.0312,0.16387 -0.094,0.21969 -0.0558,0.0559 -0.12577,0.0837 -0.20947,0.0837 h -3.92379 c -0.0977,0 -0.17785,-0.0279 -0.24063,-0.0837 -0.0628,-0.0559 -0.094,-0.13278 -0.094,-0.23043 0,-0.0767 0.0275,-0.14992 0.0832,-0.21968 l 2.41712,-2.66798 c 0.39064,-0.41853 0.6802,-0.79156 0.86854,-1.1194 0.18834,-0.33483 0.28254,-0.66262 0.28254,-0.9835 0,-0.47434 -0.14317,-0.84786 -0.42917,-1.11992 -0.28599,-0.27205 -0.68324,-0.40821 -1.19245,-0.40821 -0.34183,0 -0.64912,0.0839 -0.92118,0.25137 -0.26507,0.16044 -0.4637,0.40803 -0.59622,0.74286 -0.0767,0.12556 -0.16718,0.18853 -0.27181,0.18853 -0.0767,0 -0.14993,-0.0279 -0.21969,-0.0837 -0.0698,-0.0559 -0.10474,-0.1188 -0.10474,-0.18853 0,-0.0418 0.014,-0.0909 0.0419,-0.14663 0.0279,-0.0559 0.0624,-0.1113 0.10422,-0.16707 0.18137,-0.37668 0.4537,-0.67 0.81644,-0.87927 0.36273,-0.20926 0.76048,-0.31371 1.19297,-0.31371 z m -31.04593,0.10474 c 0.0418,-0.007 0.0871,-0.007 0.1359,0 0.0767,0.007 0.1397,0.042 0.18853,0.10473 0.0558,0.0559 0.0833,0.12527 0.0833,0.20896 v 6.69649 c 0,0.0907 -0.0345,0.16765 -0.10423,0.23043 -0.0628,0.0559 -0.14299,0.0837 -0.24064,0.0837 -0.0907,0 -0.16764,-0.0279 -0.23042,-0.0837 -0.0628,-0.0628 -0.094,-0.13978 -0.094,-0.23043 v -6.12069 l -1.30793,0.77403 c -0.0488,0.0279 -0.0978,0.0419 -0.14663,0.0419 -0.0907,0 -0.17088,-0.035 -0.24064,-0.10474 -0.0628,-0.0697 -0.094,-0.1462 -0.094,-0.2299 0,-0.0488 0.014,-0.0978 0.0419,-0.14663 0.0349,-0.0488 0.0763,-0.087 0.12518,-0.11496 l 1.76826,-1.06729 c 0.0349,-0.021 0.0737,-0.0349 0.11546,-0.0419 z m -31.758128,0.53338 c -0.592928,0 -1.053642,0.28258 -1.381498,0.84761 -0.32088,0.55804 -0.481276,1.31857 -0.481276,2.28121 0,0.95565 0.160396,1.71567 0.481276,2.28069 0.327856,0.55807 0.78857,0.83739 1.381498,0.83739 0.599903,0 1.060111,-0.27932 1.38099,-0.83739 0.327853,-0.56502 0.492006,-1.32504 0.492006,-2.28069 0,-0.96264 -0.164153,-1.72317 -0.492006,-2.28121 -0.320879,-0.56503 -0.781087,-0.84761 -1.38099,-0.84761 z m 0.867526,14.03316 c 0.435716,0 0.83901,0.0513 1.209834,0.15327 0.380092,0.0927 0.681305,0.22244 0.903799,0.38931 0.231762,0.16688 0.347927,0.3474 0.347927,0.54208 0,0.10197 -0.03721,0.195 -0.111377,0.27845 -0.0649,0.0834 -0.148372,0.12516 -0.250346,0.12516 -0.09271,0 -0.171655,-0.0186 -0.236549,-0.0557 -0.05562,-0.0371 -0.120494,-0.0929 -0.194657,-0.16708 -0.120517,-0.1205 -0.236173,-0.20851 -0.34742,-0.26413 -0.139058,-0.065 -0.324617,-0.11571 -0.556379,-0.15277 -0.222494,-0.0464 -0.463362,-0.0695 -0.722939,-0.0695 -0.50988,0 -0.978042,0.12974 -1.40449,0.38932 -0.417175,0.25957 -0.746552,0.61157 -0.987588,1.05656 -0.241033,0.44498 -0.361212,0.93628 -0.361212,1.47397 0,0.55623 0.115654,1.05708 0.347419,1.50207 0.231764,0.445 0.551584,0.79699 0.959488,1.05657 0.417174,0.2503 0.889862,0.37551 1.418284,0.37551 0.333741,0 0.598251,-0.0277 0.792931,-0.0832 0.203953,-0.0557 0.403083,-0.13459 0.597765,-0.23656 0.0649,-0.0371 0.176027,-0.12058 0.333624,-0.25034 0.07416,-0.065 0.139032,-0.11119 0.194656,-0.13897 0.05562,-0.0371 0.115966,-0.0557 0.180863,-0.0557 0.111244,0 0.199245,0.0372 0.264138,0.11138 0.0649,0.065 0.09758,0.15292 0.09758,0.26414 0,0.1576 -0.111129,0.32907 -0.333624,0.51449 -0.222494,0.17614 -0.528739,0.32901 -0.918104,0.45879 -0.389364,0.12979 -0.820313,0.19466 -1.293113,0.19466 -0.676751,0 -1.279175,-0.15739 -1.807596,-0.47259 -0.528421,-0.32448 -0.941277,-0.76951 -1.237933,-1.33501 -0.287389,-0.56549 -0.430698,-1.20062 -0.430698,-1.90518 0,-0.67675 0.148345,-1.29326 0.445001,-1.84949 0.296659,-0.56551 0.713527,-1.01507 1.251219,-1.3488 0.537693,-0.33375 1.1542,-0.50069 1.849492,-0.50069 z m 7.268197,0.11137 c 0.537691,0 1.001334,0.12973 1.390696,0.38932 0.389363,0.25957 0.667446,0.63974 0.834315,1.14035 0.194682,-0.4079 0.551715,-0.76494 1.070866,-1.07087 0.519153,-0.30593 1.042625,-0.4588 1.571046,-0.4588 0.834351,0 1.446336,0.25948 1.835699,0.77863 0.398633,0.50989 0.597765,1.18674 0.597765,2.03035 v 3.93554 c 0,0.12052 -0.04123,0.2226 -0.124662,0.30603 -0.07416,0.0742 -0.171726,0.11087 -0.292241,0.11087 -0.120518,0 -0.222601,-0.0367 -0.306034,-0.11087 -0.07416,-0.0834 -0.111377,-0.18551 -0.111377,-0.30603 v -3.89364 c 0,-0.61186 -0.148346,-1.10768 -0.445005,-1.48777 -0.287385,-0.38937 -0.736945,-0.58448 -1.348801,-0.58448 -0.389362,0 -0.759969,0.093 -1.112249,0.27845 -0.343009,0.1854 -0.621093,0.44036 -0.834314,0.76482 -0.213224,0.31521 -0.319831,0.65816 -0.319831,1.02898 v 3.89364 c 0,0.12052 -0.04174,0.2226 -0.125171,0.30603 -0.07416,0.0742 -0.171723,0.11087 -0.292241,0.11087 -0.120517,0 -0.222601,-0.0367 -0.306034,-0.11087 -0.07416,-0.0834 -0.110868,-0.18551 -0.110868,-0.30603 v -3.93554 c 0,-0.60258 -0.139297,-1.08936 -0.417414,-1.46018 -0.278116,-0.38009 -0.713591,-0.57017 -1.306907,-0.57017 -0.380091,0 -0.74165,0.093 -1.084659,0.27845 -0.333741,0.1854 -0.607299,0.43583 -0.820521,0.75103 -0.203953,0.30593 -0.306034,0.63932 -0.306034,1.00087 v 3.93554 c 0,0.12052 -0.04174,0.2226 -0.125174,0.30603 -0.07416,0.0742 -0.171213,0.11087 -0.291728,0.11087 -0.120518,0 -0.222601,-0.0367 -0.306037,-0.11087 -0.07416,-0.0834 -0.111378,-0.18551 -0.111378,-0.30603 v -6.23002 c 0,-0.12052 0.03721,-0.21757 0.111378,-0.29174 0.08343,-0.0834 0.185519,-0.12517 0.306037,-0.12517 0.120515,0 0.217563,0.0417 0.291728,0.12517 0.08343,0.0742 0.125174,0.17122 0.125174,0.29174 v 0.80672 c 0.250304,-0.3801 0.588729,-0.69539 1.015178,-0.94569 0.426444,-0.25031 0.876,-0.37553 1.348798,-0.37553 z"
         style="fill:#357edd;fill-opacity:1;stroke:none;stroke-width:1.0583334;stroke-linecap:round;stroke-linejoin:round;stroke-miterlimit:4;stroke-dasharray:none;stroke-dashoffset:0;stroke-opacity:1;paint-order:markers stroke fill" />
      <path
         inkscape:connector-curvature="0"
         id="path1871"
         d="M 71.659474,127.78233 V 94.102445"
         style="fill:none;stroke:#555555;stroke-width:1.05833316;stroke-linecap:round;stroke-linejoin:miter;stroke-miterlimit:4;stroke-dasharray:4.23333272, 4.23333272;stroke-dashoffset:0;stroke-opacity:1" />
      <path
         inkscape:connector-curvature="0"
         id="path1871-8"
         d="M 121.35936,127.78233 V 94.102445"
         style="fill:none;stroke:#555555;stroke-width:1.05833316;stroke-linecap:round;stroke-linejoin:miter;stroke-miterlimit:4;stroke-dasharray:4.23333275, 4.23333275;stroke-dashoffset:0;stroke-opacity:1" />
    </g>
    <text
       id="text2522"
       y="178.34097"
       x="242.15103"
       style="font-style:normal;font-variant:normal;font-weight:normal;font-stretch:normal;font-size:6.61107063px;line-height:1.25;font-family:Quicksand;-inkscape-font-specification:Quicksand;text-align:end;letter-spacing:0px;word-spacing:0px;text-anchor:end;fill:#000000;fill-opacity:1;stroke:none;stroke-width:0.26458329"
       xml:space="preserve"><tspan
         style="font-size:6.61107063px;text-align:end;text-anchor:end;fill:#d3d3d3;fill-opacity:1;stroke-width:0.26458329"
         y="178.34097"
         x="242.15103"
         id="tspan2520"
         sodipodi:role="line">Meer op https://hoezithet.nu</tspan></text>
  </g>
</svg>
