<?xml version="1.0" encoding="UTF-8" standalone="no"?>
<!-- Created with Inkscape (http://www.inkscape.org/) -->

<svg
   xmlns:dc="http://purl.org/dc/elements/1.1/"
   xmlns:cc="http://creativecommons.org/ns#"
   xmlns:rdf="http://www.w3.org/1999/02/22-rdf-syntax-ns#"
   xmlns:svg="http://www.w3.org/2000/svg"
   xmlns="http://www.w3.org/2000/svg"
   xmlns:xlink="http://www.w3.org/1999/xlink"
   xmlns:sodipodi="http://sodipodi.sourceforge.net/DTD/sodipodi-0.dtd"
   xmlns:inkscape="http://www.inkscape.org/namespaces/inkscape"
   width="351.51785mm"
   height="146.65475mm"
   viewBox="0 0 351.51785 146.65476"
   version="1.1"
   id="svg8"
   sodipodi:docname="lego_schuifmaat.svg"
   inkscape:version="0.92.4 (unknown)">
  <defs
     id="defs2">
    <style
       id="style843"
       type="text/css">
   
    .fil0 {fill:#000000}
   
  </style>
  </defs>
  <sodipodi:namedview
     id="base"
     pagecolor="#ffffff"
     bordercolor="#666666"
     borderopacity="1.0"
     inkscape:pageopacity="0.0"
     inkscape:pageshadow="2"
     inkscape:zoom="0.7"
     inkscape:cx="657.85258"
     inkscape:cy="137.74337"
     inkscape:document-units="mm"
     inkscape:current-layer="a6232"
     showgrid="false"
     inkscape:snap-global="true"
     inkscape:window-width="1920"
     inkscape:window-height="1055"
     inkscape:window-x="1600"
     inkscape:window-y="25"
     inkscape:window-maximized="1"
     showguides="true"
     inkscape:guide-bbox="true"
     inkscape:snap-midpoints="true"
     inkscape:snap-smooth-nodes="true"
     inkscape:snap-intersection-paths="true"
     inkscape:object-paths="true" />
  <metadata
     id="metadata5">
    <rdf:RDF>
      <cc:Work
         rdf:about="">
        <dc:format>image/svg+xml</dc:format>
        <dc:type
           rdf:resource="http://purl.org/dc/dcmitype/StillImage" />
        <dc:title />
      </cc:Work>
    </rdf:RDF>
  </metadata>
  <g
     inkscape:label="Layer 1"
     inkscape:groupmode="layer"
     id="layer1"
     transform="translate(35.690182,-39.457703)">
    <g
       id="g1602"
       transform="translate(4.6057496e-6,-2.6771895e-6)">
      <path
         style="clip-rule:evenodd;fill:#ff4136;fill-rule:evenodd;stroke-width:0.38338122"
         inkscape:connector-curvature="0"
         d="M 121.35936,94.102445 H 71.275343 V 63.217297 h 7.512621 v -5.843135 h 13.355734 v 5.843135 h 10.016792 v -5.843135 h 13.35573 v 5.843135 h 5.84314 z"
         id="path817-3" />
      <g
         style="stroke-width:0.58527869"
         transform="matrix(1.7085878,0,0,1.7085878,-41.030169,-33.178699)"
         id="g1896">
        <path
           inkscape:connector-curvature="0"
           style="clip-rule:evenodd;fill:#357edd;fill-rule:evenodd;stroke-width:0.46893302;image-rendering:optimizeQuality;shape-rendering:geometricPrecision;text-rendering:geometricPrecision"
           d="m 39.705684,97.488465 v 19.869045 h -9.20186 v -11.69122 h -1.17471 v 11.69122 h -9.20185 V 97.488465 h 19.57844 z"
           id="path1472" />
        <path
           inkscape:connector-curvature="0"
           style="clip-rule:evenodd;fill:#ff4136;fill-rule:evenodd;stroke-width:0.46893302;image-rendering:optimizeQuality;shape-rendering:geometricPrecision;text-rendering:geometricPrecision"
           d="m 20.159924,96.817341 0.65826,-5.83893 h 10e-6 l 1.29636,-11.499171 c 0.17809,-0.771179 0.78962,-1.234758 1.58292,-1.222956 h 1.81547 0.60891 7.28919 0.51891 2.20545 c 0.79329,-0.0118 1.40483,0.45178 1.58291,1.222956 l 0.007,0.06011 1.2896,11.439083 h 1e-5 l 0.65826,5.838928 h -19.51298 z"
           id="path1470" />
        <path
           inkscape:connector-curvature="0"
           style="clip-rule:evenodd;fill:#ffde37;fill-rule:evenodd;stroke-width:0.46893302;image-rendering:optimizeQuality;shape-rendering:geometricPrecision;text-rendering:geometricPrecision"
           d="m 26.121854,77.760245 v -1.073842 h -0.8903 c -1.28526,0 -2.33682,-1.051561 -2.33682,-2.336827 v -6.276415 c 0,-1.285267 1.05156,-2.336827 2.33682,-2.336827 h 0.8903 v -2.204362 c 0,-0.217505 0.15454,-0.395438 0.34343,-0.395438 h 6.60234 c 0.18889,0 0.34342,0.177933 0.34342,0.395438 v 2.204362 h 0.89032 c 1.28527,0 2.33683,1.05156 2.33683,2.336827 v 6.276415 c 0,1.285266 -1.05156,2.336827 -2.33683,2.336827 h -0.89032 v 1.073842 h -7.28918 z"
           id="path1468" />
        <path
           inkscape:connector-curvature="0"
           style="clip-rule:evenodd;fill:#ffde37;fill-rule:evenodd;stroke-width:0.46893302;image-rendering:optimizeQuality;shape-rendering:geometricPrecision;text-rendering:geometricPrecision"
           d="m 18.316164,94.3113 -0.2222,0.819706 c 0.73773,0.638476 1.18668,1.572101 1.29714,2.6104 0.11185,1.051441 -0.9179,3.670074 -2.76495,3.034444 -1.49984,-0.51614 1.08417,-4.237737 -0.78039,-4.432616 -0.73744,-0.118626 -1.08565,0.695116 -1.15086,1.239525 -0.57721,4.819011 -3.12153,2.077376 -2.93977,0.15865 0.15288,-1.613691 1.22135,-2.972173 2.86553,-3.366106 l 0.26465,-0.971854"
           id="path1476" />
        <path
           inkscape:connector-curvature="0"
           style="clip-rule:evenodd;fill:#ff4136;fill-rule:evenodd;stroke-width:0.46893302;image-rendering:optimizeQuality;shape-rendering:geometricPrecision;text-rendering:geometricPrecision"
           d="m 14.885314,93.403449 -0.26826,-0.07099 c -0.46135,-0.160041 -0.5525,-0.655355 -0.31537,-1.150657 l 3.64302,-9.395107 c 0.72851,-1.456261 1.63914,-2.978053 3.4843,-3.216855 l -1.21459,10.773753 -1e-5,2.7e-5 -0.95295,3.393096 c -0.138,0.431313 -0.42268,0.708956 -0.84007,0.602424 l -0.10522,-0.02784"
           id="path1466" />
        <path
           inkscape:connector-curvature="0"
           style="clip-rule:evenodd;fill:#ffde37;fill-rule:evenodd;stroke-width:0.46893302;image-rendering:optimizeQuality;shape-rendering:geometricPrecision;text-rendering:geometricPrecision"
           d="m 44.834924,93.403438 0.26466,0.97187 c 1.64418,0.393922 2.71265,1.752407 2.86552,3.36609 0.18177,1.918721 -2.36256,4.660362 -2.93977,-0.158649 -0.0652,-0.54441 -0.41341,-1.358154 -1.15085,-1.239526 -1.86457,0.194879 0.71945,3.916487 -0.7804,4.432617 -1.84705,0.63563 -2.8768,-1.983004 -2.76494,-3.034445 0.11045,-1.038299 0.5594,-1.971921 1.29714,-2.6104 l -0.2222,-0.819703"
           id="path1480" />
        <path
           inkscape:connector-curvature="0"
           style="clip-rule:evenodd;fill:#ff4136;fill-rule:evenodd;stroke-width:0.46893302;image-rendering:optimizeQuality;shape-rendering:geometricPrecision;text-rendering:geometricPrecision"
           d="m 41.404084,94.311292 -0.10523,0.02784 c -0.41739,0.106529 -0.70206,-0.171114 -0.84006,-0.602427 l -0.79536,-2.831983 0.0181,-0.0021 -1.27725,-11.329556 -10e-6,4e-6 c 1.81153,0.249489 2.64612,1.764087 3.37126,3.213618 l 3.64302,9.395106 c 0.23713,0.495302 0.14599,0.990621 -0.31536,1.150654 l -0.26827,0.07099"
           id="path847-6" />
      </g>
      <g
         aria-label="0"
         style="font-style:normal;font-variant:normal;font-weight:normal;font-stretch:normal;font-size:10.58333302px;line-height:1.25;font-family:Quicksand;-inkscape-font-specification:Quicksand;text-align:center;letter-spacing:0px;word-spacing:0px;text-anchor:middle;fill:#f4f4f4;fill-opacity:1;stroke:none;stroke-width:0.26458332"
         id="text1049" />
      <g
         transform="translate(31.753173)"
         aria-label="1"
         style="font-style:normal;font-variant:normal;font-weight:normal;font-stretch:normal;font-size:10.58333302px;line-height:1.25;font-family:Quicksand;-inkscape-font-specification:Quicksand;text-align:center;letter-spacing:0px;word-spacing:0px;text-anchor:middle;fill:#f4f4f4;fill-opacity:1;stroke:none;stroke-width:0.26458332"
         id="text1304" />
      <g
         transform="translate(63.506346)"
         aria-label="2"
         style="font-style:normal;font-variant:normal;font-weight:normal;font-stretch:normal;font-size:10.58333302px;line-height:1.25;font-family:Quicksand;-inkscape-font-specification:Quicksand;text-align:center;letter-spacing:0px;word-spacing:0px;text-anchor:middle;fill:#f4f4f4;fill-opacity:1;stroke:none;stroke-width:0.26458332"
         id="text1336" />
      <g
         transform="translate(95.259519)"
         aria-label="3"
         style="font-style:normal;font-variant:normal;font-weight:normal;font-stretch:normal;font-size:10.58333302px;line-height:1.25;font-family:Quicksand;-inkscape-font-specification:Quicksand;text-align:center;letter-spacing:0px;word-spacing:0px;text-anchor:middle;fill:#000000;fill-opacity:1;stroke:none;stroke-width:0.26458332"
         id="text1368" />
      <g
         id="text1862"
         style="font-style:normal;font-variant:normal;font-weight:normal;font-stretch:normal;font-size:14.06518841px;line-height:1.25;font-family:Quicksand;-inkscape-font-specification:Quicksand;letter-spacing:0px;word-spacing:0px;fill:#f4f4f4;fill-opacity:1;stroke:none;stroke-width:0.26458332"
         aria-label="cm" />
      <g
         style="stroke-width:1.09681427"
         transform="matrix(0.91173138,0,0,0.91173138,32.782091,118.61175)"
         id="g3155">
        <path
           id="path1972"
           style="clip-rule:evenodd;fill:#357edd;fill-rule:evenodd;stroke-width:0.24836369"
           d="m 144.89941,16.232691 h 149.3942 v 4.891212 H 144.89923 M 97.152814,8.4872629 V 5.9266449 0.44219785 -35.954321 l 6.882616,4.17387 12.97866,34.1506809 h 8.79882 c 0,-3.598787 2.92072,-6.519595 6.51952,-6.519595 3.60191,0 6.52571,2.920808 6.52571,6.519595 h 6.04127 l 0.006,32.6191541 H 81.710133 v 0.27241 c 0,1.549693 0.62289,2.95107 1.62832,3.977127 v 15.145797 c -3.64413,-2.460743 -6.04129,-6.628558 -6.04129,-11.356323 v -8.039011 h -0.009 v -5.275609 l -10e-7,-21.2265121 z"
           inkscape:connector-curvature="0"
           sodipodi:nodetypes="cccccccccccsccccsccsccccc" />
        <path
           style="clip-rule:evenodd;fill:#357edd;fill-rule:evenodd;stroke-width:0.24836369"
           d="m 42.219949,-35.957608 -6.885885,4.173906 -12.978537,34.1508865 v 6.12004 7.7452645 4.891172 7.748881 6.11694 l 7.6118,-0.06976 v 0.272852 c 0,1.546658 -0.623154,2.947927 -1.628325,3.977018 v 15.145845 c 3.64413,-2.463764 5.87615,-6.631522 6.040975,-11.356412 V 34.919719 28.872542 H 239.36088 V 8.4872245 H 42.219949 V 2.3702854 0.44223759 Z"
           id="path1960"
           inkscape:connector-curvature="0"
           sodipodi:nodetypes="cccccccccsccscccccccc" />
      </g>
      <rect
         ry="1.6568843"
         rx="1.6568843"
         y="129.01073"
         x="124.57216"
         height="13.264123"
         width="37.678467"
         id="rect3157"
         style="fill:#d3d3d3;fill-opacity:1;stroke:none;stroke-width:1.05833328;stroke-linecap:round;stroke-linejoin:round;stroke-miterlimit:4;stroke-dasharray:4.23333302, 4.23333302;stroke-dashoffset:0;stroke-opacity:1;paint-order:markers stroke fill" />
      <g
         id="text3161"
         style="font-style:normal;font-variant:normal;font-weight:normal;font-stretch:normal;font-size:11.21825695px;line-height:1.25;font-family:'Digital-7 Mono';-inkscape-font-specification:'Digital-7 Mono';letter-spacing:0px;word-spacing:0px;fill:#555555;fill-opacity:1;stroke:none;stroke-width:0.26458332"
         aria-label="1,58 cm">
        <path
           inkscape:connector-curvature="0"
           id="path928"
           style="font-style:normal;font-variant:normal;font-weight:normal;font-stretch:normal;font-family:'Digital-7 Mono';-inkscape-font-specification:'Digital-7 Mono';fill:#555555;stroke-width:0.26458332"
           d="m 128.29981,135.33333 0.20397,0.20396 v 2.85556 q -0.10199,0.40794 -0.50992,0.50992 l -0.30595,-0.81587 v -2.14167 z m -0.6119,-0.81588 v -2.14166 l 0.30595,-0.81588 q 0.40793,0.10199 0.50992,0.50992 v 2.85556 l -0.20397,0.20397 z" />
        <path
           inkscape:connector-curvature="0"
           id="path930"
           style="font-style:normal;font-variant:normal;font-weight:normal;font-stretch:normal;font-family:'Digital-7 Mono';-inkscape-font-specification:'Digital-7 Mono';fill:#555555;stroke-width:0.26458332"
           d="m 131.87523,139.71864 -0.40794,0.40794 -0.40793,-0.40794 v -1.63174 h 0.81587 z" />
        <path
           inkscape:connector-curvature="0"
           id="path932"
           style="font-style:normal;font-variant:normal;font-weight:normal;font-stretch:normal;font-family:'Digital-7 Mono';-inkscape-font-specification:'Digital-7 Mono';fill:#555555;stroke-width:0.26458332"
           d="m 137.89827,134.8234 0.40794,0.40794 -0.40794,0.40794 h -2.65159 l -0.40793,-0.40794 0.40793,-0.40794 z m 0.61191,0.50993 0.20396,0.20396 v 2.85556 q -0.10198,0.40794 -0.50992,0.50992 l -0.30595,-0.81587 v -2.14167 z m -0.50992,3.56944 h -3.05953 q -0.40794,-0.10198 -0.50992,-0.50992 l 0.81587,-0.30595 h 2.44762 z m 0,-6.52698 h -2.74338 l -0.81587,-0.30596 q 0.10198,-0.40793 0.50992,-0.50992 h 3.35528 z m -2.75358,0.20396 v 1.9377 l -0.6119,0.61191 -0.20397,-0.20397 v -2.65159 z" />
        <path
           inkscape:connector-curvature="0"
           id="path934"
           style="font-style:normal;font-variant:normal;font-weight:normal;font-stretch:normal;font-family:'Digital-7 Mono';-inkscape-font-specification:'Digital-7 Mono';fill:#555555;stroke-width:0.26458332"
           d="m 143.00346,134.8234 0.40793,0.40794 -0.40793,0.40794 h -2.65159 l -0.40794,-0.40794 0.40794,-0.40794 z m 0.6119,0.50993 0.20397,0.20396 v 2.85556 q -0.10199,0.40794 -0.50992,0.50992 l -0.30595,-0.81587 v -2.14167 z m -0.50992,3.56944 h -3.05953 q -0.40793,-0.10198 -0.50992,-0.50992 l 0.81588,-0.30595 h 2.44762 z m -3.56945,-0.71389 v -2.65159 l 0.20397,-0.20396 0.61191,0.6119 v 1.9377 z m 3.2635,-5.81309 h -2.43742 l -0.81588,-0.30596 q 0.10199,-0.40793 0.50992,-0.50992 h 3.04933 z m -2.44762,0.20396 v 1.9377 l -0.61191,0.61191 -0.20397,-0.20397 v -2.65159 z m 2.65159,1.9377 v -2.14166 l 0.30595,-0.81588 q 0.40793,0.10199 0.50992,0.50992 v 2.85556 l -0.20397,0.20397 z" />
        <path
           inkscape:connector-curvature="0"
           id="path936"
           style="font-style:normal;font-variant:normal;font-weight:normal;font-stretch:normal;font-family:'Digital-7 Mono';-inkscape-font-specification:'Digital-7 Mono';fill:#555555;stroke-width:0.26458332"
           d="m 153.62176,138.90277 h -3.36548 q -0.40794,-0.10198 -0.50992,-0.50992 l 0.81587,-0.30595 h 2.75357 z m -3.8754,-0.71389 v -2.65159 l 0.20397,-0.20396 0.6119,0.6119 v 1.9377 z m 3.56944,-5.81309 h -2.74337 l -0.81587,-0.30596 q 0.10198,-0.40793 0.50992,-0.50992 h 3.35528 z m -2.75357,0.20396 v 1.9377 l -0.6119,0.61191 -0.20397,-0.20397 v -2.65159 z" />
        <path
           inkscape:connector-curvature="0"
           id="path938"
           style="font-style:normal;font-variant:normal;font-weight:normal;font-stretch:normal;font-family:'Digital-7 Mono';-inkscape-font-specification:'Digital-7 Mono';fill:#555555;stroke-width:0.26458332"
           d="m 157.40115,134.92539 -0.40794,0.40794 -0.40794,-0.40794 v -2.34564 h 0.81588 z m 1.52976,0.40794 0.20397,0.20396 v 2.85556 q -0.10199,0.40794 -0.50992,0.50992 l -0.30595,-0.81587 v -2.14167 z m -0.81587,-2.95754 h -2.43742 l -0.81588,-0.30596 q 0.10199,-0.40793 0.50992,-0.50992 h 3.04933 z m -2.44762,0.20396 v 1.9377 l -0.61191,0.61191 -0.20397,-0.20397 v -2.65159 z m 2.65159,1.9377 v -2.14166 l 0.30595,-0.81588 q 0.40793,0.10199 0.50992,0.50992 v 2.85556 l -0.20397,0.20397 z m -2.65159,1.42778 v 2.14167 l -0.30596,0.81587 q -0.40793,-0.10198 -0.50992,-0.50992 v -2.85556 l 0.20397,-0.20396 z" />
      </g>
    </g>
    <a
       xlink:href="https://hoezithet.net"
       id="a6232"
       transform="matrix(1.5616703,0,0,1.5616703,41.977434,-6.7324022)"
       style="stroke-width:0.64034003">
      <text
         id="text2522"
         y="119.25115"
         x="171.8459"
         style="font-style:normal;font-variant:normal;font-weight:normal;font-stretch:normal;font-size:4.23333311px;line-height:1.25;font-family:Quicksand;-inkscape-font-specification:Quicksand;text-align:end;letter-spacing:0px;word-spacing:0px;text-anchor:end;fill:#000000;fill-opacity:1;stroke:none;stroke-width:0.16942328"
         xml:space="preserve"><tspan
           style="font-size:4.23333311px;text-align:end;text-anchor:end;fill:#d3d3d3;fill-opacity:1;stroke-width:0.16942328"
           y="119.25115"
           x="171.8459"
           id="tspan2520"
           sodipodi:role="line">Meer op https://hoezithet.nu</tspan></text>
    </a>
  </g>
</svg>
