<?xml version="1.0" encoding="UTF-8" standalone="no"?>
<!-- Created with Inkscape (http://www.inkscape.org/) -->

<svg
   xmlns:dc="http://purl.org/dc/elements/1.1/"
   xmlns:cc="http://creativecommons.org/ns#"
   xmlns:rdf="http://www.w3.org/1999/02/22-rdf-syntax-ns#"
   xmlns:svg="http://www.w3.org/2000/svg"
   xmlns="http://www.w3.org/2000/svg"
   xmlns:xlink="http://www.w3.org/1999/xlink"
   xmlns:sodipodi="http://sodipodi.sourceforge.net/DTD/sodipodi-0.dtd"
   xmlns:inkscape="http://www.inkscape.org/namespaces/inkscape"
   width="418.24216mm"
   height="146.65475mm"
   viewBox="0 0 418.24215 146.65475"
   version="1.1"
   id="svg1610"
   inkscape:version="0.92.4 (unknown)"
   sodipodi:docname="lego_100_measured.svg">
  <defs
     id="defs1604">
    <marker
       inkscape:stockid="Arrow2Mstart"
       orient="auto"
       refY="0"
       refX="0"
       id="Arrow2Mstart"
       style="overflow:visible"
       inkscape:isstock="true">
      <path
         id="path2943"
         style="fill:#555555;fill-opacity:1;fill-rule:evenodd;stroke:#555555;stroke-width:0.625;stroke-linejoin:round;stroke-opacity:1"
         d="M 8.7185878,4.0337352 -2.2072895,0.01601326 8.7185884,-4.0017078 c -1.7454984,2.3720609 -1.7354408,5.6174519 -6e-7,8.035443 z"
         transform="scale(0.6)"
         inkscape:connector-curvature="0" />
    </marker>
    <marker
       inkscape:stockid="Arrow2Mend"
       orient="auto"
       refY="0"
       refX="0"
       id="Arrow2Mend"
       style="overflow:visible"
       inkscape:isstock="true">
      <path
         id="path2946"
         style="fill:#555555;fill-opacity:1;fill-rule:evenodd;stroke:#555555;stroke-width:0.625;stroke-linejoin:round;stroke-opacity:1"
         d="M 8.7185878,4.0337352 -2.2072895,0.01601326 8.7185884,-4.0017078 c -1.7454984,2.3720609 -1.7354408,5.6174519 -6e-7,8.035443 z"
         transform="scale(-0.6)"
         inkscape:connector-curvature="0" />
    </marker>
    <marker
       inkscape:stockid="Arrow1Mend"
       orient="auto"
       refY="0"
       refX="0"
       id="Arrow1Mend"
       style="overflow:visible"
       inkscape:isstock="true">
      <path
         id="path2928"
         d="M 0,0 5,-5 -12.5,0 5,5 Z"
         style="fill:#555555;fill-opacity:1;fill-rule:evenodd;stroke:#555555;stroke-width:1.00000003pt;stroke-opacity:1"
         transform="matrix(-0.4,0,0,-0.4,-4,0)"
         inkscape:connector-curvature="0" />
    </marker>
  </defs>
  <sodipodi:namedview
     id="base"
     pagecolor="#ffffff"
     bordercolor="#666666"
     borderopacity="1.0"
     inkscape:pageopacity="0.0"
     inkscape:pageshadow="2"
     inkscape:zoom="1.28"
     inkscape:cx="1101.2558"
     inkscape:cy="80.125482"
     inkscape:document-units="mm"
     inkscape:current-layer="layer1"
     showgrid="false"
     inkscape:window-width="1920"
     inkscape:window-height="1055"
     inkscape:window-x="1600"
     inkscape:window-y="25"
     inkscape:window-maximized="1"
     inkscape:snap-bbox="true"
     inkscape:bbox-paths="true"
     inkscape:snap-bbox-edge-midpoints="true"
     inkscape:bbox-nodes="true"
     inkscape:snap-bbox-midpoints="true"
     inkscape:snap-global="true" />
  <metadata
     id="metadata1607">
    <rdf:RDF>
      <cc:Work
         rdf:about="">
        <dc:format>image/svg+xml</dc:format>
        <dc:type
           rdf:resource="http://purl.org/dc/dcmitype/StillImage" />
        <dc:title />
      </cc:Work>
    </rdf:RDF>
  </metadata>
  <g
     inkscape:label="Layer 1"
     inkscape:groupmode="layer"
     id="layer1"
     transform="translate(0.34623211,-150.34525)">
    <path
       style="fill:#000000;stroke:none;stroke-width:0.99999994px;stroke-linecap:butt;stroke-linejoin:miter;stroke-opacity:1"
       d="m 929.61914,339.94336 v 30.27539 a 1.3334667,1.3334667 0 1 0 2.66406,0 v -30.27539 z m 11.64648,0 v 30.27539 a 1.3334667,1.3334667 0 1 0 2.66602,0 v -30.27539 z m 11.08399,0 v 44.36328 a 1.8979443,1.8979443 0 1 0 3.79297,0 v -44.36328 z m 12.21094,0 v 30.27539 a 1.3334667,1.3334667 0 1 0 2.66406,0 v -30.27539 z m 11.64648,0 v 30.27539 a 1.3334667,1.3334667 0 1 0 2.66602,0 v -30.27539 z m 11.64844,0 v 30.27539 a 1.3334667,1.3334667 0 1 0 2.66406,0 v -30.27539 z m 11.64648,0 v 30.27539 a 1.3334667,1.3334667 0 1 0 2.66405,0 v -30.27539 z m 10.97465,0 v 58.25976 a 2.000485,2.000485 0 1 0 4,0 v -58.25976 z m 12.3183,0 v 29.35937 a 1.3334667,1.3334667 0 1 0 2.666,0 v -29.35937 z m 11.6485,0 v 29.35937 a 1.3334667,1.3334667 0 1 0 2.664,0 v -29.35937 z m 11.6464,0 v 29.35937 a 1.3334667,1.3334667 0 1 0 2.6661,0 v -29.35937 z m 11.6465,0 v 29.35937 a 1.3334667,1.3334667 0 1 0 2.666,0 v -29.35937 z m 11.084,0 v 43.44726 a 1.8979443,1.8979443 0 1 0 3.793,0 v -43.44726 z m 12.2109,0 v 29.35937 a 1.3334667,1.3334667 0 1 0 2.6661,0 v -29.35937 z m 11.6465,0 v 29.35937 a 1.3334667,1.3334667 0 1 0 2.6661,0 v -29.35937 z m 11.6485,0 v 29.35937 a 1.3334667,1.3334667 0 1 0 2.664,0 v -29.35937 z m 11.6465,0 v 29.35937 a 1.3334667,1.3334667 0 1 0 2.664,0 v -29.35937 z m 10.9746,0 v 58.25976 a 2.0009575,2.0009575 0 0 0 4.0019,0 v -58.25976 z m 12.3203,0 v 29.35937 a 1.3334667,1.3334667 0 1 0 2.664,0 v -29.35937 z m 11.6465,0 v 29.35937 a 1.3334667,1.3334667 0 1 0 2.664,0 v -29.35937 z m 11.6464,0 v 29.35937 a 1.3334667,1.3334667 0 1 0 2.6661,0 v -29.35937 z m 11.6485,0 v 29.35937 a 1.3334667,1.3334667 0 1 0 2.664,0 v -29.35937 z m 11.084,0 v 43.44726 a 1.8979443,1.8979443 0 1 0 3.7929,0 v -43.44726 z m 12.209,0 v 29.35937 a 1.3334667,1.3334667 0 1 0 2.666,0 v -29.35937 z m 11.6484,0 v 29.35937 a 1.3334667,1.3334667 0 1 0 2.6641,0 v -29.35937 z m 11.6465,0 v 29.35937 a 1.3334667,1.3334667 0 1 0 2.664,0 v -29.35937 z m 11.6465,0 v 29.35937 a 1.3334667,1.3334667 0 1 0 2.666,0 v -29.35937 z m 10.9765,0 v 58.25976 a 2.0005039,2.0005039 0 1 0 4,0 v -58.25976 z m 12.3184,0 v 29.35937 a 1.3334667,1.3334667 0 1 0 2.664,0 v -29.35937 z m 11.6465,0 v 29.35937 a 1.3334667,1.3334667 0 1 0 2.666,0 v -29.35937 z m 11.6484,0 v 29.35937 a 1.3334667,1.3334667 0 1 0 2.6641,0 v -29.35937 z m 11.6465,0 v 29.35937 a 1.3334667,1.3334667 0 1 0 2.6641,0 v -29.35937 z m 11.084,0 v 43.44726 a 1.8979443,1.8979443 0 1 0 3.7929,0 v -43.44726 z m 12.209,0 v 29.35937 a 1.3334667,1.3334667 0 1 0 2.666,0 v -29.35937 z m 11.6484,0 v 29.35937 a 1.3334667,1.3334667 0 1 0 2.6641,0 v -29.35937 z m 11.6465,0 v 29.35937 a 1.3334667,1.3334667 0 1 0 2.666,0 v -29.35937 z m 11.6465,0 v 29.35937 a 1.3334667,1.3334667 0 1 0 2.666,0 v -29.35937 z m 10.9765,0 v 58.25976 a 2.001,2.001 0 0 0 4.002,0 v -58.25976 z m 12.3184,0 v 29.35937 a 1.3334667,1.3334667 0 1 0 2.664,0 v -29.35937 z m 11.6465,0 v 29.35937 a 1.3334667,1.3334667 0 1 0 2.666,0 v -29.35937 z m 11.6484,0 v 29.35937 a 1.3334667,1.3334667 0 1 0 2.6641,0 v -29.35937 z m 11.6465,0 v 29.35937 a 1.3334667,1.3334667 0 1 0 2.6641,0 v -29.35937 z m 11.084,0 v 43.44726 a 1.8979443,1.8979443 0 1 0 3.7929,0 v -43.44726 z m 12.2109,0 v 29.35937 a 1.3334667,1.3334667 0 1 0 2.6641,0 v -29.35937 z m 11.6465,0 v 29.35937 a 1.3334667,1.3334667 0 1 0 2.6641,0 v -29.35937 z m 11.6465,0 v 29.35937 a 1.3334667,1.3334667 0 1 0 2.666,0 v -29.35937 z m 11.6484,0 v 29.35937 a 1.3334667,1.3334667 0 1 0 2.6641,0 v -29.35937 z m 10.9766,0 v 58.25976 a 2.0005039,2.0005039 0 1 0 4,0 v -58.25976 z m 12.3164,0 v 29.35937 a 1.3334667,1.3334667 0 1 0 2.666,0 v -29.35937 z m 11.6484,0 v 29.35937 a 1.3334667,1.3334667 0 1 0 2.6641,0 v -29.35937 z m 11.6465,0 v 29.35937 a 1.3334667,1.3334667 0 1 0 2.6641,0 v -29.35937 z m 11.6465,0 v 29.35937 a 1.3334667,1.3334667 0 1 0 2.666,0 v -29.35937 z m 11.084,0 v 43.44726 a 1.8979443,1.8979443 0 1 0 3.7929,0 v -43.44726 z m 12.2109,0 v 29.35937 a 1.3334667,1.3334667 0 1 0 2.6641,0 v -29.35937 z m 11.6465,0 v 29.35937 a 1.3334667,1.3334667 0 1 0 2.666,0 v -29.35937 z m 11.6484,0 v 21.20117 l 2.6641,-6.5918 v -14.60937 z m -649.57418,1.83594 -2.66406,5.73242 v 22.70703 a 1.3334667,1.3334667 0 0 0 0.0742,0.49219 l 0.6289,0.73437 a 1.3334667,1.3334667 0 0 0 1.96094,-1.22656 z m 123.64848,68.73632 c -0.1942,10e-6 -0.4472,0.0397 -0.7579,0.11719 -3.6878,1.40036 -6.8702,3.695 -9.5488,6.88477 -2.6785,3.15084 -4.7177,6.63317 -6.1152,10.44531 -1.3975,3.77322 -2.0957,7.3127 -2.0957,10.61914 0,2.56736 0.4845,4.95856 1.4551,7.17578 1.0093,2.21726 2.5243,4.00768 4.5429,5.36914 2.0187,1.36146 4.483,2.04102 7.3946,2.04102 2.4068,0 4.5804,-0.6027 6.5214,-1.80859 1.9411,-1.20586 3.4561,-2.7993 4.543,-4.78321 1.1258,-2.02273 1.6875,-4.18347 1.6875,-6.47851 0,-2.29508 -0.5222,-4.47155 -1.5703,-6.53321 -1.0093,-2.06169 -2.4472,-3.71618 -4.3106,-4.96093 -1.8244,-1.24479 -3.8815,-1.86719 -6.1718,-1.86719 -1.9022,0 -3.6883,0.40965 -5.3574,1.22656 -1.6306,0.77798 -3.0268,1.84749 -4.1915,3.20899 1.0094,-3.65655 2.8725,-7.09947 5.5899,-10.32813 2.7562,-3.26751 5.6874,-5.54249 8.793,-6.82617 0.9316,-0.31121 1.3964,-0.87649 1.3964,-1.69336 0,-0.58352 -0.1742,-1.03074 -0.5234,-1.3418 -0.3494,-0.31109 -0.7766,-0.4668 -1.2812,-0.4668 z m 432.5605,0 c -0.1941,10e-6 -0.4452,0.0397 -0.7559,0.11719 -3.6878,1.40036 -6.8722,3.695 -9.5507,6.88477 -2.6786,3.15084 -4.7158,6.63317 -6.1133,10.44531 -1.3975,3.77322 -2.0957,7.3127 -2.0957,10.61914 0,2.56736 0.4845,4.95856 1.4551,7.17578 1.0092,2.21726 2.5224,4.00768 4.541,5.36914 2.0186,1.36146 4.4849,2.04102 7.3965,2.04102 2.4068,0 4.5805,-0.6027 6.5214,-1.80859 1.9411,-1.20586 3.4541,-2.7993 4.5411,-4.78321 1.1257,-2.02273 1.6894,-4.18347 1.6894,-6.47851 0,-2.29508 -0.524,-4.47155 -1.5723,-6.53321 -1.0092,-2.06169 -2.4452,-3.71618 -4.3085,-4.96093 -1.8247,-1.24479 -3.8835,-1.86719 -6.1739,-1.86719 -1.9021,0 -3.6863,0.40965 -5.3554,1.22656 -1.6306,0.77798 -3.0288,1.84749 -4.1934,3.20899 1.0093,-3.65655 2.8725,-7.09947 5.5898,-10.32813 2.7563,-3.26751 5.6874,-5.54249 8.793,-6.82617 0.9317,-0.31121 1.3984,-0.87649 1.3984,-1.69336 0,-0.58352 -0.1761,-1.03074 -0.5253,-1.3418 -0.3495,-0.31109 -0.7767,-0.4668 -1.2813,-0.4668 z m -89.3086,0.58399 c -2.4068,0 -4.6003,0.60273 -6.5801,1.80859 -1.941,1.20586 -3.4738,2.81903 -4.5996,4.8418 -1.0869,1.98384 -1.6308,4.12488 -1.6308,6.41992 0,2.29508 0.5241,4.4735 1.5722,6.53516 1.0482,2.02273 2.4841,3.6556 4.3086,4.90039 1.8246,1.20586 3.8815,1.80859 6.1719,1.80859 1.9022,0 3.6684,-0.36837 5.2988,-1.10742 1.6693,-0.77798 3.0676,-1.81003 4.1934,-3.09375 -0.9705,3.53987 -2.8139,6.8272 -5.5313,9.86133 -2.6785,2.99524 -5.6097,5.17366 -8.7929,6.53516 -0.9317,0.31116 -1.3985,0.87449 -1.3985,1.6914 0,0.5057 0.1742,0.93517 0.5235,1.28516 0.3882,0.34994 0.8352,0.52344 1.3398,0.52344 0.1553,0 0.3889,-0.0378 0.6992,-0.11524 3.6879,-1.40039 6.8703,-3.63792 9.5489,-6.71094 2.7172,-3.07302 4.7565,-6.45691 6.1152,-10.15234 1.3975,-3.6954 2.0957,-7.17776 2.0957,-10.44531 0,-2.56736 -0.5044,-4.95852 -1.5137,-7.17578 -0.9705,-2.21726 -2.4657,-4.00768 -4.4844,-5.36915 -2.0186,-1.36146 -4.4632,-2.04101 -7.3359,-2.04101 z m 116.1602,0.0586 c -3.0669,0 -5.6676,0.91392 -7.8028,2.74219 -2.0962,1.82827 -3.6687,4.31791 -4.7168,7.46875 -1.0481,3.15084 -1.5722,6.74939 -1.5722,10.79492 0,4.00664 0.5241,7.60324 1.5722,10.79297 1.087,3.15084 2.6772,5.64048 4.7735,7.46875 2.0962,1.82827 4.6792,2.74219 7.7461,2.74219 3.0666,0 5.6478,-0.91392 7.7441,-2.74219 2.1351,-1.82827 3.7273,-4.31791 4.7754,-7.46875 1.087,-3.18973 1.6289,-6.78633 1.6289,-10.79297 0,-4.04553 -0.5419,-7.64408 -1.6289,-10.79492 -1.0481,-3.18973 -2.6403,-5.67941 -4.7754,-7.46875 -2.0963,-1.82827 -4.6775,-2.74219 -7.7441,-2.74219 z m -520.47074,0.55274 c -0.37848,3.8e-4 -0.71288,0.0887 -1.0039,0.26367 l -9.83985,5.95117 c -0.27182,0.15564 -0.50533,0.37045 -0.69922,0.64258 -0.15533,0.27228 -0.23242,0.5439 -0.23242,0.81641 0,0.46677 0.17421,0.89421 0.52344,1.2832 0.38819,0.38895 0.8352,0.58398 1.33984,0.58398 0.27175,0 0.54271,-0.0787 0.81446,-0.23437 l 7.27929,-4.31641 v 34.13281 c 0,0.50571 0.17421,0.93518 0.52344,1.28516 0.34938,0.31109 0.77661,0.4668 1.28125,0.4668 0.5435,0 0.99062,-0.15574 1.33984,-0.4668 0.38816,-0.35006 0.58204,-0.77945 0.58204,-1.28516 V 413.4922 c 0,-0.46677 -0.15612,-0.85692 -0.4668,-1.16797 -0.27171,-0.3504 -0.61983,-0.54506 -1.04688,-0.58399 -0.13598,-0.0189 -0.26829,-0.0273 -0.39453,-0.0273 z m 117.04104,0 c -0.3785,3.8e-4 -0.7149,0.0887 -1.0059,0.26367 l -9.8398,5.95117 c -0.2718,0.15564 -0.5054,0.37045 -0.6992,0.64258 -0.1554,0.27228 -0.2325,0.5439 -0.2325,0.81641 0,0.46677 0.1742,0.89421 0.5235,1.2832 0.3882,0.38895 0.8352,0.58398 1.3398,0.58398 0.2717,0 0.5427,-0.0787 0.8145,-0.23437 l 7.2793,-4.31641 v 34.13281 c 0,0.50571 0.1742,0.93518 0.5234,1.28516 0.3494,0.31109 0.7765,0.4668 1.2813,0.4668 0.5433,0 0.9906,-0.15574 1.3398,-0.4668 0.3881,-0.35006 0.582,-0.77945 0.582,-1.28516 V 413.4922 c 0,-0.46677 -0.1541,-0.85692 -0.4648,-1.16797 -0.2718,-0.3504 -0.6218,-0.54506 -1.0488,-0.58399 -0.136,-0.0189 -0.2664,-0.0273 -0.3926,-0.0273 z m 115.1035,0 c -0.3784,3.8e-4 -0.7129,0.0887 -1.0039,0.26367 l -9.8418,5.95117 c -0.2718,0.15564 -0.5034,0.37045 -0.6973,0.64258 -0.1553,0.27228 -0.2343,0.5439 -0.2343,0.81641 -1e-4,0.46677 0.1761,0.89421 0.5253,1.2832 0.3882,0.38895 0.8353,0.58398 1.3399,0.58398 0.2718,0 0.5427,-0.0787 0.8144,-0.23437 l 7.2793,-4.31641 v 34.13281 c 0,0.50571 0.1739,0.93518 0.5235,1.28516 0.3494,0.31109 0.7765,0.4668 1.2812,0.4668 0.5434,0 0.9906,-0.15574 1.3399,-0.4668 0.3881,-0.35006 0.582,-0.77945 0.582,-1.28516 V 413.4922 c 0,-0.46677 -0.1561,-0.85692 -0.4668,-1.16797 -0.2718,-0.3504 -0.6199,-0.54506 -1.0469,-0.58399 -0.1359,-0.0189 -0.2663,-0.0273 -0.3926,-0.0273 z m 116.8144,0 c -0.3784,3.8e-4 -0.7128,0.0887 -1.0039,0.26367 l -9.8418,5.95117 c -0.2717,0.15564 -0.5033,0.37045 -0.6972,0.64258 -0.1554,0.27228 -0.2344,0.5439 -0.2344,0.81641 0,0.46677 0.1762,0.89421 0.5254,1.2832 0.3882,0.38895 0.8332,0.58398 1.3379,0.58398 0.2717,0 0.5446,-0.0787 0.8164,-0.23437 l 7.2773,-4.31641 v 34.13281 c 0,0.50571 0.1762,0.93518 0.5254,1.28516 0.3494,0.31109 0.7766,0.4668 1.2813,0.4668 0.5435,0 0.9886,-0.15574 1.3379,-0.4668 0.3882,-0.35006 0.584,-0.77945 0.584,-1.28516 V 413.4922 c -2e-4,-0.46677 -0.1565,-0.85692 -0.4668,-1.16797 -0.2719,-0.3504 -0.6219,-0.54506 -1.0489,-0.58399 -0.136,-0.0189 -0.2663,-0.0273 -0.3926,-0.0273 z m 115.5606,0 c -0.3785,3.8e-4 -0.7129,0.0887 -1.0039,0.26367 l -9.8399,5.95117 c -0.2717,0.15564 -0.5053,0.37045 -0.6992,0.64258 -0.1553,0.27228 -0.2324,0.5439 -0.2324,0.81641 0,0.46677 0.1742,0.89421 0.5234,1.2832 0.3882,0.38895 0.8352,0.58398 1.3399,0.58398 0.2717,0 0.5427,-0.0787 0.8144,-0.23437 l 7.2793,-4.31641 v 34.13281 c 0,0.50571 0.1742,0.93518 0.5235,1.28516 0.3494,0.31109 0.7766,0.4668 1.2812,0.4668 0.5435,0 0.9906,-0.15574 1.3399,-0.4668 0.3881,-0.35006 0.582,-0.77945 0.582,-1.28516 V 413.4922 c 0,-0.46677 -0.1565,-0.85692 -0.4668,-1.16797 -0.2717,-0.3504 -0.6198,-0.54506 -1.0469,-0.58399 -0.136,-0.0189 -0.2683,-0.0273 -0.3945,-0.0273 z m 123.8848,0.0176 c -0.2932,0.027 -0.5612,0.1043 -0.7969,0.24609 l -9.8418,5.95117 c -0.2718,0.1556 -0.5053,0.37045 -0.6992,0.64258 -0.1554,0.27231 -0.2325,0.54428 -0.2325,0.81641 0,0.46681 0.1739,0.89421 0.5235,1.2832 0.3882,0.38895 0.8352,0.58398 1.3398,0.58398 0.2718,0 0.5447,-0.0787 0.8164,-0.23437 l 7.2774,-4.31641 v 34.13281 c 0,0.50567 0.1761,0.93518 0.5254,1.28516 0.3494,0.31109 0.7766,0.4668 1.2812,0.4668 0.5435,0 0.9887,-0.15574 1.3379,-0.4668 0.3881,-0.35006 0.582,-0.77949 0.582,-1.28516 v -33.8789 l -2.1113,-5.22656 z m -573.33793,0.0117 c -0.46583,0 -0.87343,0.15575 -1.22266,0.4668 -0.31064,0.27232 -0.50455,0.6032 -0.58203,0.99219 l -2.5039,15.87109 c -0.0397,0.11645 -0.0586,0.27215 -0.0586,0.4668 0,0.50566 0.17616,0.95281 0.52539,1.3418 0.3882,0.35002 0.87277,0.52539 1.45508,0.52539 0.27171,0 0.873,-0.23241 1.80469,-0.69922 1.28103,-0.58349 2.42626,-1.05041 3.43556,-1.40039 1.0481,-0.35002 2.1735,-0.52539 3.3769,-0.52539 3.1833,0 5.7269,0.91391 7.6289,2.74218 1.9022,1.78935 2.8536,4.1628 2.8536,7.11914 0,2.0617 -0.4866,3.9092 -1.4571,5.54297 -0.9316,1.63378 -2.2705,2.89828 -4.0176,3.79297 -1.708,0.89469 -3.668,1.3418 -5.8808,1.3418 -1.2034,0 -2.406,-0.21466 -3.6094,-0.64258 -1.16457,-0.42788 -2.25238,-1.03061 -3.2617,-1.80859 -0.42698,-0.35002 -0.8542,-0.52539 -1.28125,-0.52539 -0.46583,0 -0.87343,0.19499 -1.22266,0.58398 -0.31064,0.3501 -0.46484,0.71843 -0.46484,1.10742 0,0.27232 0.0574,0.5659 0.17383,0.87696 0.15533,0.27212 0.34921,0.4849 0.58203,0.64062 1.20344,1.01137 2.60172,1.78943 4.19336,2.33399 1.63043,0.54466 3.26023,0.8164 4.89063,0.8164 2.8727,0 5.434,-0.60273 7.6855,-1.80859 2.2517,-1.2059 4,-2.87814 5.2422,-5.01758 1.2811,-2.17841 1.9219,-4.62864 1.9219,-7.35156 0,-2.48958 -0.5835,-4.7271 -1.748,-6.71094 -1.1259,-2.0228 -2.6982,-3.57882 -4.7168,-4.66797 -1.9799,-1.12811 -4.2108,-1.69141 -6.6954,-1.69141 -1.4363,10e-6 -2.8544,0.17541 -4.2519,0.5254 -1.35871,0.35009 -2.54147,0.77754 -3.55079,1.2832 l 1.97851,-12.07813 h 16.30468 c 0.4658,0 0.8534,-0.15574 1.1641,-0.46679 0.3492,-0.35014 0.5254,-0.75784 0.5254,-1.22461 0,-0.5057 -0.1758,-0.91551 -0.5254,-1.22657 -0.3106,-0.35002 -0.6983,-0.52539 -1.1641,-0.52539 z m 117.03903,0 c -0.4658,0 -0.8734,0.15575 -1.2226,0.4668 -0.3108,0.27232 -0.5042,0.6032 -0.5821,0.99219 l -2.5039,15.87109 c -0.04,0.11645 -0.059,0.27215 -0.059,0.4668 0,0.50566 0.1762,0.95281 0.5254,1.3418 0.3883,0.35002 0.8728,0.52539 1.4551,0.52539 0.2718,0 0.873,-0.23241 1.8047,-0.69922 1.2811,-0.58349 2.4263,-1.05041 3.4355,-1.40039 1.0483,-0.35002 2.1736,-0.52539 3.377,-0.52539 3.1832,0 5.7267,0.91391 7.6289,2.74218 1.9022,1.78935 2.8535,4.1628 2.8535,7.11914 0,2.0617 -0.4845,3.9092 -1.4551,5.54297 -0.9316,1.63378 -2.2726,2.89828 -4.0195,3.79297 -1.7081,0.89469 -3.6682,1.3418 -5.8808,1.3418 -1.2036,0 -2.406,-0.21466 -3.6094,-0.64258 -1.1646,-0.42788 -2.2525,-1.03061 -3.2617,-1.80859 -0.4272,-0.35002 -0.8543,-0.52539 -1.2813,-0.52539 -0.4658,0 -0.8734,0.19499 -1.2226,0.58398 -0.3108,0.3501 -0.4649,0.71843 -0.4649,1.10742 0,0.27232 0.057,0.5659 0.1738,0.87696 0.1555,0.27212 0.3512,0.4849 0.584,0.64062 1.2034,1.01137 2.5998,1.78943 4.1914,2.33399 1.6306,0.54466 3.2602,0.8164 4.8907,0.8164 2.8725,0 5.4358,-0.60273 7.6875,-1.80859 2.2515,-1.2059 3.998,-2.87814 5.2402,-5.01758 1.281,-2.17841 1.9219,-4.62864 1.9219,-7.35156 0,-2.48958 -0.5835,-4.7271 -1.7481,-6.71094 -1.1258,-2.0228 -2.6962,-3.57882 -4.7148,-4.66797 -1.9798,-1.12811 -4.2128,-1.69141 -6.6973,-1.69141 -1.4363,10e-6 -2.8545,0.17541 -4.2519,0.5254 -1.3589,0.35009 -2.5415,0.77754 -3.5508,1.2832 l 1.9785,-12.07813 h 16.3047 c 0.4658,0 0.8553,-0.15574 1.166,-0.46679 0.3495,-0.35014 0.5234,-0.75784 0.5234,-1.22461 0,-0.5057 -0.1742,-0.91551 -0.5234,-1.22657 -0.3106,-0.35002 -0.7002,-0.52539 -1.166,-0.52539 z m 29.4551,0 c -0.4658,0 -0.8734,0.15575 -1.2226,0.4668 -0.3107,0.31121 -0.4649,0.70116 -0.4649,1.16797 0,0.5057 0.1542,0.91355 0.4649,1.22461 0.3493,0.31109 0.7568,0.4668 1.2226,0.4668 h 18.6914 l -15.0801,35.18554 c -0.1167,0.27232 -0.1757,0.56395 -0.1757,0.875 0,0.46677 0.1761,0.85496 0.5253,1.16602 0.3882,0.31105 0.8136,0.4668 1.2793,0.4668 0.3494,0 0.6796,-0.0964 0.9903,-0.29102 0.3106,-0.23339 0.5439,-0.52502 0.6992,-0.875 l 16.0137,-37.40234 c 0.1168,-0.35006 0.1738,-0.62176 0.1738,-0.81641 0,-0.46681 -0.1542,-0.85691 -0.4648,-1.16797 -0.2718,-0.31105 -0.6792,-0.4668 -1.2227,-0.4668 z m 85.6524,0 c -0.4659,0 -0.8735,0.15575 -1.2227,0.4668 -0.3106,0.27232 -0.5042,0.6032 -0.582,0.99219 l -2.5039,15.87109 c -0.04,0.11645 -0.059,0.27215 -0.059,0.4668 0,0.50566 0.1742,0.95281 0.5234,1.3418 0.3882,0.35002 0.8748,0.52539 1.457,0.52539 0.2718,0 0.873,-0.23241 1.8047,-0.69922 1.2811,-0.58349 2.4262,-1.05041 3.4356,-1.40039 1.0481,-0.35002 2.1735,-0.52539 3.3769,-0.52539 3.1833,0 5.7268,0.91391 7.6289,2.74218 1.9022,1.78935 2.8535,4.1628 2.8535,7.11914 0,2.0617 -0.4865,3.9092 -1.457,5.54297 -0.9317,1.63378 -2.2707,2.89828 -4.0176,3.79297 -1.7081,0.89469 -3.6681,1.3418 -5.8808,1.3418 -1.2035,0 -2.406,-0.21466 -3.6094,-0.64258 -1.1646,-0.42788 -2.2524,-1.03061 -3.2617,-1.80859 -0.4271,-0.35002 -0.8543,-0.52539 -1.2813,-0.52539 -0.4658,0 -0.8734,0.19499 -1.2226,0.58398 -0.3107,0.3501 -0.4668,0.71843 -0.4668,1.10742 0,0.27232 0.059,0.5659 0.1758,0.87696 0.1553,0.27212 0.3492,0.4849 0.582,0.64062 1.2034,1.01137 2.6018,1.78943 4.1933,2.33399 1.6306,0.54466 3.2602,0.8164 4.8907,0.8164 2.8726,0 5.434,-0.60273 7.6855,-1.80859 2.2516,-1.2059 4,-2.87814 5.2422,-5.01758 1.2811,-2.17841 1.9199,-4.62864 1.9199,-7.35156 0,-2.48958 -0.5815,-4.7271 -1.7461,-6.71094 -1.1258,-2.0228 -2.698,-3.57882 -4.7168,-4.66797 -1.9798,-1.12811 -4.2108,-1.69141 -6.6953,-1.69141 -1.4363,10e-6 -2.8544,0.17541 -4.2519,0.5254 -1.3587,0.35009 -2.5415,0.77754 -3.5508,1.2832 l 1.9785,-12.07813 h 16.3047 c 0.4658,0 0.8534,-0.15574 1.1641,-0.46679 0.3491,-0.35014 0.5253,-0.75784 0.5253,-1.22461 10e-5,-0.5057 -0.1761,-0.91551 -0.5253,-1.22657 -0.3106,-0.35002 -0.6983,-0.52539 -1.1641,-0.52539 z m 40.6933,0 c -2.0963,0 -4.0385,0.48648 -5.8242,1.45899 -1.7469,0.97247 -3.1433,2.31578 -4.1914,4.02734 -1.0093,1.67267 -1.5137,3.53991 -1.5137,5.60156 0,1.98384 0.5241,3.79201 1.5723,5.42579 1.0481,1.59488 2.3476,2.80028 3.9004,3.61718 -1.8634,0.93358 -3.3962,2.23749 -4.5996,3.91016 -1.2034,1.67267 -1.8047,3.63643 -1.8047,5.89258 0,2.06165 0.5419,3.9683 1.6289,5.71875 1.1258,1.75045 2.6408,3.13117 4.543,4.14258 1.902,1.01136 3.9986,1.51757 6.289,1.51757 2.2904,0 4.3869,-0.50621 6.2891,-1.51757 1.941,-1.01141 3.454,-2.39213 4.541,-4.14258 1.1258,-1.75045 1.6894,-3.6571 1.6894,-5.71875 0,-2.17837 -0.621,-4.12239 -1.8632,-5.83399 -1.2036,-1.75045 -2.7758,-3.09383 -4.7168,-4.02734 1.5528,-0.85584 2.8522,-2.06123 3.9004,-3.61719 1.0869,-1.55595 1.6308,-3.34442 1.6308,-5.36719 0,-2.06165 -0.5043,-3.92889 -1.5137,-5.60156 -1.0093,-1.71156 -2.4076,-3.05487 -4.1933,-4.02734 -1.7469,-0.97251 -3.6674,-1.45899 -5.7637,-1.45899 z m 76.1192,0 c -0.4659,0 -0.8735,0.15575 -1.2227,0.4668 -0.3106,0.27232 -0.5042,0.6032 -0.582,0.99219 l -2.5039,15.87109 c -0.04,0.11645 -0.059,0.27215 -0.059,0.4668 0,0.50566 0.1742,0.95281 0.5234,1.3418 0.3882,0.35002 0.8728,0.52539 1.4551,0.52539 0.2717,0 0.8749,-0.23241 1.8066,-0.69922 1.2811,-0.58349 2.4263,-1.05041 3.4356,-1.40039 1.0481,-0.35002 2.1735,-0.52539 3.3769,-0.52539 3.1832,0 5.7248,0.91391 7.627,2.74218 1.9021,1.78935 2.8535,4.1628 2.8535,7.11914 0,2.0617 -0.4846,3.9092 -1.4551,5.54297 -0.9316,1.63378 -2.2707,2.89828 -4.0176,3.79297 -1.708,0.89469 -3.6681,1.3418 -5.8808,1.3418 -1.2034,0 -2.4079,-0.21466 -3.6114,-0.64258 -1.1645,-0.42788 -2.2504,-1.03061 -3.2597,-1.80859 -0.427,-0.35002 -0.8543,-0.52539 -1.2813,-0.52539 -0.4658,0 -0.8734,0.19499 -1.2226,0.58398 -0.3107,0.3501 -0.4668,0.71843 -0.4668,1.10742 0,0.27232 0.059,0.5659 0.1758,0.87696 0.1553,0.27212 0.3492,0.4849 0.582,0.64062 1.2034,1.01137 2.5998,1.78943 4.1914,2.33399 1.6304,0.54466 3.262,0.8164 4.8926,0.8164 2.8726,0 5.434,-0.60273 7.6855,-1.80859 2.2516,-1.2059 3.9979,-2.87814 5.2403,-5.01758 1.281,-2.17841 1.9218,-4.62864 1.9218,-7.35156 0,-2.48958 -0.5814,-4.7271 -1.7461,-6.71094 -1.1257,-2.0228 -2.6981,-3.57882 -4.7168,-4.66797 -1.9798,-1.12811 -4.2128,-1.69141 -6.6972,-1.69141 -1.4364,10e-6 -2.8525,0.17541 -4.25,0.5254 -1.3587,0.35009 -2.5434,0.77754 -3.5528,1.2832 l 1.9805,-12.07813 h 16.3047 c 0.4658,0 0.8534,-0.15574 1.1641,-0.46679 0.3491,-0.35014 0.5234,-0.75784 0.5234,-1.22461 0,-0.5057 -0.1742,-0.91551 -0.5234,-1.22657 -0.3106,-0.35002 -0.6983,-0.52539 -1.1641,-0.52539 z m -414.80669,1.84571 -2.24023,2.51367 h 0.76172 c 0.46582,0 0.85338,-0.15574 1.16406,-0.4668 0.34919,-0.3501 0.52344,-0.75784 0.52344,-1.22461 0,-0.31241 -0.0756,-0.58415 -0.20899,-0.82226 z m 455.15039,0.89844 c 1.9798,-10e-6 3.7066,0.44706 5.1816,1.34179 1.4753,0.85576 2.6006,2.00209 3.377,3.44141 0.7764,1.43928 1.1641,3.015 1.1641,4.72656 0,1.82823 -0.4075,3.52018 -1.2227,5.07617 -0.7764,1.51703 -1.9217,2.7225 -3.4355,3.61719 -1.514,0.89469 -3.2802,1.34375 -5.2989,1.34375 -1.9021,0 -3.5319,-0.44906 -4.8906,-1.34375 -1.3587,-0.93358 -2.3873,-2.13905 -3.0859,-3.61719 -0.6989,-1.5171 -1.0489,-3.14994 -1.0489,-4.90039 0,-1.8672 0.3897,-3.54136 1.1661,-5.01953 0.8152,-1.47813 1.9208,-2.6245 3.3183,-3.44141 1.3975,-0.81686 2.9897,-1.2246 4.7754,-1.2246 z m 116.1016,0.23242 c 3.3385,0 5.8998,1.57572 7.6855,4.72656 1.8245,3.11191 2.7363,7.35264 2.7363,12.7207 0,5.32921 -0.9118,9.56791 -2.7363,12.71875 -1.7857,3.11195 -4.347,4.66797 -7.6855,4.66797 -3.2998,0 -5.863,-1.55602 -7.6875,-4.66797 -1.7857,-3.15084 -2.6778,-7.38954 -2.6778,-12.71875 0,-5.36806 0.8921,-9.60879 2.6778,-12.7207 1.8245,-3.15084 4.3877,-4.72656 7.6875,-4.72656 z m -232.5645,0.34961 c 2.3292,0 4.2299,0.72087 5.7051,2.16015 1.4751,1.43928 2.2129,3.30652 2.2129,5.60156 0,1.51707 -0.3679,2.87809 -1.1055,4.08399 -0.6987,1.167 -1.6699,2.08092 -2.9121,2.74219 -1.2034,0.66111 -2.5029,0.99218 -3.9004,0.99218 -1.3975,0 -2.7187,-0.33088 -3.9609,-0.99218 -1.2034,-0.66127 -2.1726,-1.57519 -2.9102,-2.74219 -0.7374,-1.2059 -1.1074,-2.56692 -1.1074,-4.08399 0,-2.29504 0.7377,-4.16228 2.2129,-5.60156 1.4751,-1.43928 3.3976,-2.16015 5.7656,-2.16015 z m -350.08983,11.31836 -3.05859,3.43359 c 0.54376,-0.0813 1.10572,-0.12305 1.68554,-0.12305 3.18323,0 5.72476,0.91392 7.62696,2.74219 1.90216,1.78934 2.85351,4.16084 2.85351,7.11719 0,2.06162 -0.48457,3.91114 -1.45508,5.54492 -0.93169,1.63378 -2.27068,2.89633 -4.01758,3.79101 -1.70804,0.89469 -3.66817,1.34376 -5.88085,1.34376 -1.20344,-10e-6 -2.40789,-0.2147 -3.61133,-0.64258 -1.16459,-0.42788 -2.25045,-1.03062 -3.25977,-1.8086 -0.23958,-0.19643 -0.47928,-0.33177 -0.71875,-0.41797 l 2.94531,5.50782 c 1.54791,0.49092 3.09663,0.74414 4.64454,0.74414 2.87262,0 5.434,-0.6027 7.68554,-1.8086 2.25154,-1.20589 3.99798,-2.8781 5.24024,-5.01757 1.28107,-2.17837 1.92187,-4.62864 1.92187,-7.35157 0,-2.48957 -0.58147,-4.72706 -1.74609,-6.71093 -1.12577,-2.02277 -2.69819,-3.57879 -4.7168,-4.66797 -1.82956,-1.04243 -3.87817,-1.59679 -6.13867,-1.67578 z m 118.29293,3.73632 c 1.8635,0 3.4734,0.46681 4.8321,1.40039 1.3587,0.93359 2.3871,2.15872 3.0859,3.67579 0.7378,1.5171 1.1074,3.14994 1.1074,4.90039 0,2.83963 -0.8742,5.17368 -2.6211,7.00195 -1.7469,1.78934 -3.9779,2.68555 -6.6953,2.68555 -1.9798,0 -3.7084,-0.4294 -5.1836,-1.28516 -1.4751,-0.89469 -2.6005,-2.06076 -3.3769,-3.5 -0.7765,-1.43928 -1.1641,-3.015 -1.1641,-4.72656 0,-1.86716 0.4074,-3.55907 1.2227,-5.07617 0.8152,-1.55596 1.9801,-2.7811 3.4941,-3.67579 1.514,-0.93358 3.2803,-1.40039 5.2988,-1.40039 z m 432.5606,0 c 1.8633,0 3.4753,0.46681 4.834,1.40039 1.3587,0.93359 2.3872,2.15872 3.0859,3.67579 0.7377,1.5171 1.1055,3.14994 1.1055,4.90039 0,2.83963 -0.8723,5.17368 -2.6192,7.00195 -1.7469,1.78934 -3.9799,2.68555 -6.6972,2.68555 -1.9798,0 -3.7065,-0.4294 -5.1817,-1.28516 -1.4751,-0.89469 -2.6025,-2.06076 -3.3789,-3.5 -0.7764,-1.43928 -1.164,-3.015 -1.164,-4.72656 0,-1.86716 0.4074,-3.55907 1.2226,-5.07617 0.8152,-1.55596 1.9802,-2.7811 3.4942,-3.67579 1.5138,-0.93358 3.2801,-1.40039 5.2988,-1.40039 z m -200.7637,3.38477 c 1.5916,0 3.0653,0.36833 4.4238,1.10742 1.3977,0.7002 2.505,1.67322 3.3204,2.91797 0.8152,1.24479 1.2226,2.62548 1.2226,4.14258 0,2.33397 -0.8346,4.26028 -2.5039,5.77734 -1.6692,1.47818 -3.8231,2.2168 -6.4629,2.2168 -2.6397,0 -4.7956,-0.73862 -6.4648,-2.2168 -1.6305,-1.51706 -2.4453,-3.44337 -2.4453,-5.77734 0,-1.5171 0.4074,-2.89779 1.2226,-4.14258 0.8152,-1.24475 1.903,-2.21777 3.2617,-2.91797 1.3587,-0.73893 2.8342,-1.10742 4.4258,-1.10742 z"
       transform="matrix(0.26458333,0,0,0.26458333,0,150.34525)"
       id="path8529"
       inkscape:connector-curvature="0" />
    <path
       style="fill:#000000;stroke:none;stroke-width:0.99999994px;stroke-linecap:butt;stroke-linejoin:miter;stroke-opacity:1"
       d="m 258.26562,339.94336 -2.66406,0.002 v 29.35742 a 1.3334667,1.3334667 0 1 0 2.66406,0 z m 8.98243,0 v 29.35937 a 1.3334667,1.3334667 0 1 0 2.66601,0 v -29.35937 z m 11.64648,0 v 29.35937 a 1.3334667,1.3334667 0 1 0 2.66602,0 v -29.35937 z m 11.08399,0 v 43.44726 a 1.8979443,1.8979443 0 1 0 3.79296,0 v -43.44726 z m 12.21093,0 v 29.35937 a 1.3334667,1.3334667 0 1 0 2.66407,0 v -29.35937 z m 11.64649,0 v 29.35937 a 1.3334667,1.3334667 0 1 0 2.66601,0 v -29.35937 z m 11.64844,0 v 29.35937 a 1.3334667,1.3334667 0 1 0 2.66406,0 v -29.35937 z m 11.64648,0 v 29.35937 a 1.3334667,1.3334667 0 1 0 2.66406,0 v -29.35937 z m 10.97656,0 v 58.25976 a 2.0009802,2.0009802 0 0 0 4.00196,0 v -58.25976 z m 12.31836,0 v 29.35937 a 1.3334667,1.3334667 0 1 0 2.66406,0 v -29.35937 z m 11.64649,0 v 29.35937 a 1.3334667,1.3334667 0 1 0 2.66601,0 v -29.35937 z m 11.64843,0 v 29.35937 a 1.3334667,1.3334667 0 1 0 2.66407,0 v -29.35937 z m 11.64649,0 v 29.35937 a 1.3334667,1.3334667 0 1 0 2.66406,0 v -29.35937 z m 11.08398,0 v 43.44726 a 1.8979443,1.8979443 0 1 0 3.79297,0 v -43.44726 z m 12.20899,0 v 29.35937 a 1.3334667,1.3334667 0 1 0 2.66601,0 v -29.35937 z m 11.64843,0 v 29.35937 a 1.3334667,1.3334667 0 1 0 2.66407,0 v -29.35937 z m 11.64649,0 v 29.35937 a 1.3334667,1.3334667 0 1 0 2.66601,0 v -29.35937 z m 11.64648,0 v 29.35937 a 1.3334667,1.3334667 0 1 0 2.66602,0 v -29.35937 z m 10.97656,0 v 58.25976 a 2.0005039,2.0005039 0 1 0 4,0 v -58.25976 z m 12.31836,0 v 29.35937 a 1.3334667,1.3334667 0 1 0 2.66407,0 v -29.35937 z m 11.64649,0 v 29.35937 a 1.3334667,1.3334667 0 1 0 2.66601,0 v -29.35937 z m 11.64844,0 v 29.35937 a 1.3334667,1.3334667 0 1 0 2.66406,0 v -29.35937 z m 11.64648,0 v 14.25 l 2.66406,-11.04297 v -3.20703 z m -513.1464838,0.002 v 59.17383 c 0,2.66733 4.0019532,2.66733 4.0019532,0 v -59.17383 z m 12.3203128,0 v 30.27344 c -0.07288,1.848 2.736943,1.848 2.664062,0 v -30.27344 z m 11.646484,0 v 30.27344 c -0.07288,1.848 2.738896,1.848 2.666016,0 v -30.27344 z m 11.648438,0 v 30.27344 c -0.07288,1.848 2.736931,1.848 2.664062,0 v -30.27344 z m 11.646484,0 v 30.27344 c -0.07287,1.84804 2.736932,1.84804 2.664063,0 v -30.27344 z m 11.083984,0 v 44.36133 a 1.8979443,1.8979443 0 1 0 3.792969,0 v -44.36133 z m 12.208985,0 v 30.27344 a 1.3334667,1.3334667 0 1 0 2.666015,0 v -30.27344 z m 11.648437,0 v 30.27344 a 1.3334667,1.3334667 0 1 0 2.664063,0 v -30.27344 z m 11.646485,0 v 30.27344 a 1.3334667,1.3334667 0 1 0 2.664062,0 v -30.27344 z m 11.646484,0 v 30.27344 a 1.3334667,1.3334667 0 1 0 2.66602,0 v -30.27344 z m 10.97656,0 v 58.25781 a 2.0004926,2.0004926 0 1 0 4,0 v -58.25781 z m 12.31836,0 v 29.35742 a 1.3334667,1.3334667 0 1 0 2.66602,0 v -29.35742 z m 11.64649,0 v 29.35742 a 1.3334667,1.3334667 0 1 0 2.66601,0 v -29.35742 z m 11.64843,0 v 29.35742 a 1.3334667,1.3334667 0 1 0 2.66407,0 v -29.35742 z m 11.64649,0 v 29.35742 a 1.3334667,1.3334667 0 1 0 2.66406,0 v -29.35742 z m 11.08398,0 v 43.44531 a 1.8979443,1.8979443 0 1 0 3.79297,0 v -43.44531 z m 12.21094,0 v 29.35742 a 1.3334667,1.3334667 0 1 0 2.66406,0 v -29.35742 z m 11.64648,0 v 29.35742 a 1.3334667,1.3334667 0 1 0 2.66407,0 v -29.35742 z m 11.64649,0 v 29.35742 a 1.3334667,1.3334667 0 1 0 2.66601,0 v -29.35742 z m 11.64844,0 v 29.35742 a 1.3334667,1.3334667 0 1 0 2.66406,0 v -29.35742 z m 10.97461,0 v 58.25781 a 2.000975,2.000975 0 1 0 4.00195,0 v -58.25781 z m 12.31835,0 v 29.35742 a 1.3334667,1.3334667 0 1 0 2.66602,0 v -29.35742 z m -10.24804,71.21289 c -2.40683,0 -4.62005,0.583 -6.63867,1.75 -2.01863,1.16697 -3.5317,2.79985 -4.54102,4.90039 -0.23292,0.31121 -0.42673,0.62254 -0.58203,0.9336 -0.15526,0.31128 -0.23438,0.58516 -0.23438,0.81836 0,0.38895 0.19384,0.73777 0.58204,1.04883 0.38819,0.31109 0.79764,0.46679 1.2246,0.46679 0.58231,0 1.08666,-0.34863 1.51368,-1.04883 0.73757,-1.86716 1.8432,-3.24788 3.31836,-4.14257 1.51397,-0.93359 3.22282,-1.40039 5.125,-1.40039 2.83384,0 5.0451,0.75828 6.63672,2.27539 1.59155,1.51706 2.38867,3.59701 2.38867,6.24218 0,1.78934 -0.52414,3.61917 -1.57227,5.48633 -1.04813,1.82827 -2.66007,3.90825 -4.83398,6.24219 l -13.45118,14.87891 c -0.31048,0.38891 -0.46484,0.79864 -0.46484,1.22656 0,0.54459 0.17406,0.97215 0.52344,1.2832 0.34938,0.31109 0.79637,0.4668 1.33984,0.4668 H 245.875 c 0.46584,0 0.8535,-0.15574 1.16406,-0.4668 0.34938,-0.31117 0.52539,-0.72086 0.52539,-1.22656 0,-0.46677 -0.17601,-0.85496 -0.52539,-1.16602 -0.31056,-0.35002 -0.69822,-0.52539 -1.16406,-0.52539 h -17.87695 l 10.71484,-12.07812 c 2.67857,-2.95635 4.59908,-5.54251 5.76367,-7.75977 1.1646,-2.25615 1.74805,-4.45427 1.74805,-6.59375 0,-3.46201 -1.10758,-6.2629 -3.32031,-8.40234 -2.21273,-2.13948 -5.27842,-3.20899 -9.19922,-3.20899 z m -114.17383,0.55469 c -0.37849,3.8e-4 -0.71277,0.0867 -1.00391,0.26172 l -9.84179,5.95117 c -0.27175,0.1556 -0.50319,0.37045 -0.69727,0.64258 -0.15526,0.27231 -0.23437,0.54428 -0.23437,0.81641 0,0.46681 0.17601,0.89421 0.52539,1.2832 0.38819,0.38895 0.83323,0.58398 1.33789,0.58398 0.27173,0 0.54469,-0.0767 0.8164,-0.23242 l 7.2793,-4.31836 v 34.13477 c 0,0.50566 0.17406,0.93322 0.52344,1.2832 0.34938,0.31109 0.77659,0.4668 1.28125,0.4668 0.54347,0 0.98851,-0.15574 1.33789,-0.4668 0.3882,-0.35006 0.58398,-0.77754 0.58398,-1.2832 v -37.34375 c 0,-0.46677 -0.15623,-0.85692 -0.46679,-1.16797 -0.27174,-0.35006 -0.62181,-0.54506 -1.04883,-0.58399 v 0.002 c -0.13588,-0.0189 -0.26642,-0.0293 -0.39258,-0.0293 z m 353.45703,0.0273 c -0.65994,0 -1.14635,0.23437 -1.45703,0.70118 l -18.75,24.56445 c -0.27167,0.31121 -0.40625,0.70123 -0.40625,1.16797 0,0.46677 0.17421,0.89417 0.52344,1.2832 0.34938,0.35002 0.75683,0.52539 1.22265,0.52539 h 17.11914 v 10.85352 c 0,0.50566 0.15612,0.93322 0.4668,1.2832 0.31057,0.31109 0.71801,0.4668 1.22266,0.4668 0.50464,0 0.93202,-0.15574 1.28125,-0.4668 0.34923,-0.35006 0.5234,-0.77754 0.52344,-1.2832 v -10.85352 h 3.90039 c 0.46582,0 0.85533,-0.15574 1.16601,-0.4668 0.34919,-0.31116 0.52344,-0.70119 0.52344,-1.16796 0,-0.46681 -0.17421,-0.85496 -0.52344,-1.16602 -0.31056,-0.31109 -0.70019,-0.4668 -1.16601,-0.4668 h -3.90039 V 413.4922 c -4e-5,-0.5057 -0.17421,-0.91551 -0.52344,-1.22657 -0.31053,-0.35002 -0.71802,-0.52539 -1.22266,-0.52539 z m -133.67578,0.002 c -0.46584,0 -0.87328,0.15574 -1.22266,0.46679 -0.31054,0.31117 -0.46679,0.69921 -0.46679,1.16602 0,0.5057 0.15623,0.91551 0.46679,1.22656 0.34938,0.31106 0.75682,0.4668 1.22266,0.4668 H 355.5 l -11.12109,12.36914 c -0.38822,0.38899 -0.58205,0.8361 -0.58203,1.3418 -2e-5,0.50566 0.13457,0.93322 0.40624,1.2832 0.31057,0.31109 0.70018,0.4668 1.16602,0.4668 0.1941,0 0.65896,-0.057 1.39648,-0.17383 0.73758,-0.15572 1.33886,-0.23438 1.80469,-0.23438 1.70807,0 3.32001,0.35063 4.83399,1.05079 1.55279,0.66126 2.79488,1.71114 3.72656,3.15039 0.97049,1.43932 1.45508,3.22771 1.45508,5.36718 0,1.94491 -0.46481,3.69596 -1.39649,5.25196 -0.93167,1.55595 -2.19354,2.76135 -3.78515,3.61718 -1.59162,0.85576 -3.31829,1.28516 -5.18164,1.28516 -2.87267,0 -5.12543,-0.87646 -6.75586,-2.62695 -0.50466,-0.42785 -0.98924,-0.64063 -1.45508,-0.64063 -0.46584,0 -0.87328,0.21275 -1.22266,0.64063 -0.34938,0.38899 -0.52539,0.81838 -0.52539,1.28515 0,0.54463 0.27293,1.00949 0.81641,1.39844 1.08695,1.08922 2.40619,1.90662 3.95898,2.45117 1.5528,0.54467 3.16473,0.81641 4.83399,0.81641 2.63974,0 5.04679,-0.56329 7.2207,-1.69141 2.17391,-1.16696 3.88081,-2.78018 5.12305,-4.84179 1.28105,-2.0617 1.92187,-4.41537 1.92187,-7.06055 0,-2.64514 -0.5815,-4.94174 -1.74609,-6.88672 -1.12578,-1.94498 -2.6408,-3.42223 -4.54297,-4.43359 -1.86335,-1.01141 -3.88273,-1.51758 -6.05664,-1.51758 l -0.34766,0.002 10.6543,-11.9043 c 0.3882,-0.38902 0.58398,-0.81643 0.58398,-1.2832 0,-0.46681 -0.15623,-0.87462 -0.46679,-1.22461 -0.27174,-0.38899 -0.71873,-0.58398 -1.33985,-0.58398 z m 131.92773,6.30078 v 18.67187 H 457.14844 Z M 50.75,454.58594 c -2.911487,0 -5.494546,0.69922 -7.746094,2.09961 -2.251547,1.40035 -3.997998,3.28729 -5.240234,5.66015 -1.242233,2.33394 -1.863281,4.92013 -1.863281,7.75977 0,2.95638 0.601274,5.62128 1.804687,7.99414 1.242237,2.37286 2.970866,4.2401 5.183594,5.60156 2.212732,1.32257 4.734511,1.98438 7.568359,1.98438 1.979807,0 3.785584,-0.27377 5.416016,-0.81836 1.630431,-0.54459 2.912074,-1.18474 3.84375,-1.92383 0.931676,-0.77798 1.396484,-1.49885 1.396484,-2.16016 0,-0.46677 -0.134502,-0.83529 -0.40625,-1.10742 -0.271736,-0.31109 -0.64158,-0.4668 -1.107422,-0.4668 -0.271736,0 -0.522927,0.0767 -0.755859,0.23243 -0.232917,0.11667 -0.505842,0.31148 -0.816406,0.58398 -0.659936,0.54444 -1.124737,0.89507 -1.396485,1.05078 -0.815217,0.42796 -1.649869,0.75899 -2.503906,0.99219 -0.815218,0.2332 -1.922802,0.34961 -3.320312,0.34961 -2.212732,0 -4.192567,-0.52592 -5.939453,-1.57617 -1.708071,-1.08923 -3.047083,-2.56643 -4.017579,-4.4336 -0.970495,-1.86716 -1.455078,-3.96872 -1.455078,-6.30273 0,-2.25611 0.504357,-4.31647 1.513672,-6.18359 1.009312,-1.86713 2.387872,-3.34637 4.134766,-4.43555 1.785709,-1.08919 3.74577,-1.63281 5.880859,-1.63281 1.086954,0 2.095668,0.0964 3.027344,0.29101 0.970496,0.1556 1.747781,0.37008 2.330078,0.64258 0.465838,0.23339 0.95042,0.60172 1.455078,1.10742 0.310556,0.31106 0.583474,0.54546 0.816406,0.70117 0.271737,0.15572 0.600083,0.23242 0.988282,0.23242 0.427014,4e-5 0.77708,-0.1754 1.048828,-0.52539 0.310552,-0.35013 0.466797,-0.73817 0.466797,-1.16601 0,-0.81691 -0.486536,-1.57523 -1.457032,-2.27539 -0.931676,-0.70023 -2.193544,-1.24578 -3.785156,-1.63477 -1.552789,-0.4278 -3.23992,-0.64062 -5.064453,-0.64062 z m 30.433594,0.46679 c -1.979811,0 -3.862728,0.52397 -5.648438,1.57422 -1.785713,1.0503 -3.201861,2.37387 -4.25,3.96875 v -3.38476 c 0,-0.5057 -0.174058,-0.91356 -0.523437,-1.22461 -0.31056,-0.35002 -0.717995,-0.52539 -1.222657,-0.52539 -0.504653,0 -0.93187,0.1754 -1.28125,0.52539 -0.310552,0.31117 -0.466796,0.71891 -0.466796,1.22461 v 26.14062 c 0,0.5057 0.156233,0.93322 0.466796,1.28321 0.349376,0.31105 0.776597,0.46679 1.28125,0.46679 0.504662,0 0.912093,-0.15574 1.222657,-0.46679 0.349387,-0.3501 0.523437,-0.77751 0.523437,-1.28321 v -16.51367 c 0,-1.51706 0.427217,-2.91749 1.28125,-4.20117 0.892857,-1.32257 2.038037,-2.37241 3.435547,-3.15039 1.43633,-0.77798 2.949404,-1.16602 4.541016,-1.16602 2.484472,0 4.310012,0.79773 5.474609,2.39258 1.16459,1.55599 1.746094,3.59657 1.746094,6.125 v 16.51367 c 0,0.5057 0.156233,0.93322 0.466797,1.28321 0.349379,0.31105 0.776592,0.46679 1.28125,0.46679 0.504657,0 0.912092,-0.15574 1.222656,-0.46679 0.349387,-0.3501 0.523437,-0.77751 0.523437,-1.28321 v -16.33789 c 4e-6,-1.55599 0.446984,-2.99575 1.339844,-4.31836 0.892853,-1.36146 2.057803,-2.431 3.494141,-3.20898 1.475153,-0.77798 3.027772,-1.16602 4.658203,-1.16602 2.56211,0 4.44502,0.81548 5.64844,2.44922 1.24223,1.59485 1.86328,3.67678 1.86328,6.24414 v 16.33789 c 0,0.5057 0.15428,0.93322 0.46484,1.28321 0.34938,0.31105 0.77659,0.46679 1.28125,0.46679 0.50466,0 0.91209,-0.15574 1.22266,-0.46679 0.34939,-0.3501 0.52344,-0.77751 0.52344,-1.28321 v -16.51367 c 0,-3.53979 -0.83466,-6.3781 -2.50391,-8.51758 -1.63043,-2.17837 -4.19176,-3.26758 -7.68555,-3.26758 -2.212706,0 -4.406166,0.64211 -6.580075,1.92579 -2.173912,1.28367 -3.669161,2.78062 -4.484375,4.49218 -0.698759,-2.10054 -1.861756,-3.69597 -3.492188,-4.78515 -1.630431,-1.08919 -3.572671,-1.63282 -5.824218,-1.63282 z"
       transform="matrix(0.26458333,0,0,0.26458333,0,150.34525)"
       id="path8511"
       inkscape:connector-curvature="0" />
    <rect
       style="fill:none;fill-opacity:1;stroke:none;stroke-width:1.05833328;stroke-linecap:round;stroke-linejoin:round;stroke-miterlimit:4;stroke-dasharray:4.23333313, 4.23333313;stroke-dashoffset:0;stroke-opacity:1;paint-order:markers stroke fill"
       id="rect941"
       width="351.51785"
       height="146.65475"
       x="0"
       y="150.34525"
       rx="1.6568843"
       ry="1.6568843" />
    <path
       style="clip-rule:evenodd;fill:#ff4136;fill-rule:evenodd;stroke-width:0.38338122"
       inkscape:connector-curvature="0"
       d="M 50.08402,208.48071 H 0 v -30.88514 h 7.51263 v -5.84314 h 13.35573 v 5.84314 h 10.01679 v -5.84314 h 13.35573 v 5.84314 h 5.84314 z"
       id="path817-3"
       inkscape:tile-cx="42.762862"
       inkscape:tile-cy="107.69132"
       inkscape:tile-w="50.08402"
       inkscape:tile-h="36.72828"
       inkscape:tile-x0="17.720852"
       inkscape:tile-y0="89.327179" />
    <use
       x="0"
       y="0"
       xlink:href="#path817-3"
       id="use2873"
       transform="translate(50.08402)"
       width="100%"
       height="100%" />
    <use
       x="0"
       y="0"
       xlink:href="#use2873"
       id="use2875"
       transform="translate(50.08402)"
       width="100%"
       height="100%" />
    <path
       inkscape:tile-y0="89.327179"
       inkscape:tile-x0="17.720852"
       id="use2879"
       d="m 330.12884,208.48071 h -50.08402 v -30.88514 h 7.51263 v -5.84314 h 13.35573 v 5.84314 h 10.01679 v -5.84314 h 13.35573 v 5.84314 h 5.84314 z"
       inkscape:connector-curvature="0"
       style="clip-rule:evenodd;fill:#ff4136;fill-rule:evenodd;stroke-width:0.38338122" />
    <g
       aria-label="... 100 x ..."
       style="font-style:normal;font-variant:normal;font-weight:normal;font-stretch:normal;font-size:29.34365845px;line-height:1.25;font-family:Quicksand;-inkscape-font-specification:Quicksand;letter-spacing:0px;word-spacing:0px;fill:#ff4136;fill-opacity:1;stroke:none;stroke-width:0.26458332"
       id="text2885">
      <path
         d="m 158.7133,200.38686 q -0.49885,0 -0.76294,-0.29344 -0.26409,-0.32278 -0.26409,-0.85097 v -0.61621 q 0,-0.52819 0.26409,-0.82163 0.26409,-0.29343 0.76294,-0.29343 h 0.2054 q 0.49884,0 0.76294,0.29343 0.26409,0.29344 0.26409,0.82163 v 0.61621 q 0,0.52819 -0.26409,0.85097 -0.2641,0.29344 -0.76294,0.29344 z"
         style="text-align:center;text-anchor:middle;fill:#ff4136;stroke-width:0.26458332"
         id="path13312" />
      <path
         d="m 164.0433,200.38686 q -0.49885,0 -0.76294,-0.29344 -0.26409,-0.32278 -0.26409,-0.85097 v -0.61621 q 0,-0.52819 0.26409,-0.82163 0.26409,-0.29343 0.76294,-0.29343 h 0.2054 q 0.49884,0 0.76294,0.29343 0.26409,0.29344 0.26409,0.82163 v 0.61621 q 0,0.52819 -0.26409,0.85097 -0.2641,0.29344 -0.76294,0.29344 z"
         style="text-align:center;text-anchor:middle;fill:#ff4136;stroke-width:0.26458332"
         id="path13314" />
      <path
         d="m 169.3733,200.38686 q -0.49885,0 -0.76294,-0.29344 -0.26409,-0.32278 -0.26409,-0.85097 v -0.61621 q 0,-0.52819 0.26409,-0.82163 0.26409,-0.29343 0.76294,-0.29343 h 0.2054 q 0.49884,0 0.76294,0.29343 0.26409,0.29344 0.26409,0.82163 v 0.61621 q 0,0.52819 -0.26409,0.85097 -0.2641,0.29344 -0.76294,0.29344 z"
         style="text-align:center;text-anchor:middle;fill:#ff4136;stroke-width:0.26458332"
         id="path13316" />
      <path
         d="m 186.4536,179.8463 q 0.32278,0.0293 0.52818,0.29343 0.23475,0.23475 0.23475,0.58687 v 18.77995 q 0,0.38146 -0.29343,0.64556 -0.2641,0.23475 -0.67491,0.23475 -0.38147,0 -0.64556,-0.23475 -0.26409,-0.2641 -0.26409,-0.64556 v -17.16604 l -3.66796,2.17143 q -0.2054,0.11737 -0.41081,0.11737 -0.38147,0 -0.6749,-0.29344 -0.2641,-0.29343 -0.2641,-0.64556 0,-0.2054 0.11738,-0.41081 0.14672,-0.2054 0.35212,-0.32278 l 4.95908,-2.99305 q 0.29344,-0.17606 0.70425,-0.11737 z"
         style="text-align:center;text-anchor:middle;fill:#ff4136;stroke-width:0.26458332"
         id="path13318" />
      <path
         d="m 198.68944,200.68029 q -2.31815,0 -3.9027,-1.37915 -1.58456,-1.37915 -2.40618,-3.75599 -0.79228,-2.40618 -0.79228,-5.42857 0,-3.05174 0.79228,-5.42858 0.79228,-2.37684 2.37683,-3.75599 1.6139,-1.37915 3.93205,-1.37915 2.31815,0 3.90271,1.37915 1.6139,1.34981 2.40618,3.75599 0.82162,2.37684 0.82162,5.42858 0,3.02239 -0.82162,5.42857 -0.79228,2.37684 -2.40618,3.75599 -1.58456,1.37915 -3.90271,1.37915 z m 0,-1.8193 q 2.52356,0 3.87337,-2.3475 1.37915,-2.37683 1.37915,-6.39691 0,-4.04943 -1.37915,-6.39692 -1.34981,-2.37684 -3.87337,-2.37684 -2.49421,0 -3.87336,2.37684 -1.34981,2.34749 -1.34981,6.39692 0,4.02008 1.34981,6.39691 1.37915,2.3475 3.87336,2.3475 z"
         style="text-align:center;text-anchor:middle;fill:#ff4136;stroke-width:0.26458332"
         id="path13320" />
      <path
         d="m 216.16955,200.68029 q -2.31815,0 -3.9027,-1.37915 -1.58456,-1.37915 -2.40618,-3.75599 -0.79228,-2.40618 -0.79228,-5.42857 0,-3.05174 0.79228,-5.42858 0.79228,-2.37684 2.37683,-3.75599 1.6139,-1.37915 3.93205,-1.37915 2.31815,0 3.90271,1.37915 1.6139,1.34981 2.40618,3.75599 0.82162,2.37684 0.82162,5.42858 0,3.02239 -0.82162,5.42857 -0.79228,2.37684 -2.40618,3.75599 -1.58456,1.37915 -3.90271,1.37915 z m 0,-1.8193 q 2.52356,0 3.87337,-2.3475 1.37915,-2.37683 1.37915,-6.39691 0,-4.04943 -1.37915,-6.39692 -1.34981,-2.37684 -3.87337,-2.37684 -2.49421,0 -3.87336,2.37684 -1.34981,2.34749 -1.34981,6.39692 0,4.02008 1.34981,6.39691 1.37915,2.3475 3.87336,2.3475 z"
         style="text-align:center;text-anchor:middle;fill:#ff4136;stroke-width:0.26458332"
         id="path13322" />
      <path
         d="m 245.95749,199.06639 q 0.2054,0.23475 0.2054,0.52819 0,0.35212 -0.26409,0.64556 -0.26409,0.26409 -0.61622,0.26409 -0.41081,0 -0.73359,-0.41081 l -4.48958,-5.81004 -4.48958,5.83938 q -0.26409,0.35213 -0.70424,0.35213 -0.32278,0 -0.58688,-0.20541 -0.26409,-0.23475 -0.26409,-0.58687 0,-0.32278 0.20541,-0.55753 l 4.81236,-6.16217 -4.9004,-6.30889 q -0.17606,-0.23475 -0.17606,-0.52818 0,-0.35213 0.2641,-0.61622 0.29343,-0.26409 0.64556,-0.26409 0.44015,0 0.70424,0.38147 l 4.57761,5.89807 4.40155,-5.89807 q 0.29344,-0.38147 0.73359,-0.38147 0.38147,0 0.58688,0.23475 0.23475,0.2054 0.23475,0.52818 0,0.32278 -0.20541,0.55753 l -4.75367,6.2502 z"
         style="text-align:center;text-anchor:middle;fill:#ff4136;stroke-width:0.26458332"
         id="path13324" />
      <path
         d="m 257.74814,200.38686 q -0.49884,0 -0.76294,-0.29344 -0.26409,-0.32278 -0.26409,-0.85097 v -0.61621 q 0,-0.52819 0.26409,-0.82163 0.2641,-0.29343 0.76294,-0.29343 h 0.2054 q 0.49885,0 0.76294,0.29343 0.26409,0.29344 0.26409,0.82163 v 0.61621 q 0,0.52819 -0.26409,0.85097 -0.26409,0.29344 -0.76294,0.29344 z"
         style="text-align:center;text-anchor:middle;fill:#ff4136;stroke-width:0.26458332"
         id="path13326" />
      <path
         d="m 263.07814,200.38686 q -0.49884,0 -0.76293,-0.29344 -0.2641,-0.32278 -0.2641,-0.85097 v -0.61621 q 0,-0.52819 0.2641,-0.82163 0.26409,-0.29343 0.76293,-0.29343 h 0.20541 q 0.49884,0 0.76293,0.29343 0.26409,0.29344 0.26409,0.82163 v 0.61621 q 0,0.52819 -0.26409,0.85097 -0.26409,0.29344 -0.76293,0.29344 z"
         style="text-align:center;text-anchor:middle;fill:#ff4136;stroke-width:0.26458332"
         id="path13328" />
      <path
         d="m 268.40814,200.38686 q -0.49884,0 -0.76293,-0.29344 -0.2641,-0.32278 -0.2641,-0.85097 v -0.61621 q 0,-0.52819 0.2641,-0.82163 0.26409,-0.29343 0.76293,-0.29343 h 0.20541 q 0.49884,0 0.76293,0.29343 0.2641,0.29344 0.2641,0.82163 v 0.61621 q 0,0.52819 -0.2641,0.85097 -0.26409,0.29344 -0.76293,0.29344 z"
         style="text-align:center;text-anchor:middle;fill:#ff4136;stroke-width:0.26458332"
         id="path13330" />
    </g>
    <path
       inkscape:connector-curvature="0"
       id="path1871"
       d="M 0.529219,240.62155 V 206.94166"
       style="fill:none;stroke:#555555;stroke-width:1.05833316;stroke-linecap:round;stroke-linejoin:miter;stroke-miterlimit:4;stroke-dasharray:4.23333277, 4.23333277;stroke-dashoffset:0;stroke-opacity:1" />
    <path
       inkscape:connector-curvature="0"
       id="path1871-0"
       d="M 329.59962,240.62155 V 206.94166"
       style="fill:none;stroke:#555555;stroke-width:1.05833316;stroke-linecap:round;stroke-linejoin:miter;stroke-miterlimit:4;stroke-dasharray:4.23333281, 4.23333281;stroke-dashoffset:0;stroke-opacity:1" />
    <path
       style="fill:#ffde37;fill-opacity:1;stroke:none;stroke-width:6.66666651;stroke-linecap:round;stroke-linejoin:round;stroke-miterlimit:4;stroke-dasharray:none;stroke-dashoffset:0;stroke-opacity:1;paint-order:markers stroke fill"
       d="m 2.6933594,339.94336 v 59.17578 c 0,2.66733 -4.0019532,2.66733 -4.0019532,0 v 97.71484 H 503.46875 l 27.78125,-57.69531 -24.82031,-62.52734 5.4082,-22.41797 v -14.25 h -8.98242 v 29.35937 a 1.3334667,1.3334667 0 1 1 -2.66406,0 v -29.35937 h -8.98243 v 29.35937 a 1.3334667,1.3334667 0 1 1 -2.66601,0 v -29.35937 h -8.98242 v 29.35937 a 1.3334667,1.3334667 0 1 1 -2.66407,0 v -29.35937 h -8.31836 v 58.25976 a 2.0005039,2.0005039 0 1 1 -4,0 v -58.25976 h -8.31054 v 29.35937 a 1.3334667,1.3334667 0 1 1 -2.66602,0 v -29.35937 h -8.98047 v 29.35937 a 1.3334667,1.3334667 0 1 1 -2.66601,0 v -29.35937 h -8.98242 v 29.35937 a 1.3334667,1.3334667 0 1 1 -2.66407,0 v -29.35937 h -8.98242 v 29.35937 a 1.3334667,1.3334667 0 1 1 -2.66601,0 v -29.35937 h -8.41602 v 43.44726 a 1.8979443,1.8979443 0 1 1 -3.79297,0 v -43.44726 h -8.41992 v 29.35937 a 1.3334667,1.3334667 0 1 1 -2.66406,0 v -29.35937 h -8.98242 v 29.35937 a 1.3334667,1.3334667 0 1 1 -2.66407,0 v -29.35937 h -8.98242 v 29.35937 a 1.3334667,1.3334667 0 1 1 -2.66601,0 v -29.35937 h -8.98243 v 29.35937 a 1.3334667,1.3334667 0 1 1 -2.66406,0 v -29.35937 h -8.3164 v 58.25976 a 2.00098,2.00098 0 1 1 -4.00196,0 v -58.25976 h -8.3125 v 29.35937 a 1.3334667,1.3334667 0 1 1 -2.66406,0 v -29.35937 h -8.98242 v 29.35937 a 1.3334667,1.3334667 0 1 1 -2.66406,0 v -29.35937 h -8.98243 v 29.35937 a 1.3334667,1.3334667 0 1 1 -2.66601,0 v -29.35937 h -8.98242 v 29.35937 a 1.3334667,1.3334667 0 1 1 -2.66407,0 v -29.35937 h -8.41797 v 43.44726 a 1.8979443,1.8979443 0 1 1 -3.79296,0 v -43.44726 h -8.41797 v 29.35937 a 1.3334667,1.3334667 0 1 1 -2.66602,0 v -29.35937 h -8.98047 v 29.35937 a 1.3334667,1.3334667 0 1 1 -2.66601,0 v -29.35937 h -8.98243 v 29.35937 a 1.3334667,1.3334667 0 1 1 -2.66406,0 v -29.35937 h -8.98242 v 29.35937 a 1.3334667,1.3334667 0 1 1 -2.66602,0 v -29.35937 h -8.3164 v 58.25976 a 2.000975,2.000975 0 1 1 -4.00195,0 v -58.25976 h -8.31055 v 29.35937 a 1.3334667,1.3334667 0 1 1 -2.66406,0 v -29.35937 h -8.98243 v 29.35937 a 1.3334667,1.3334667 0 1 1 -2.66601,0 v -29.35937 h -8.98242 v 29.35937 a 1.3334667,1.3334667 0 1 1 -2.66407,0 v -29.35937 h -8.98242 v 29.35937 a 1.3334667,1.3334667 0 1 1 -2.66406,0 v -29.35937 h -8.41797 v 43.44726 a 1.8979443,1.8979443 0 1 1 -3.79297,0 v -43.44726 h -8.41992 v 29.35937 a 1.3334667,1.3334667 0 1 1 -2.66406,0 v -29.35937 h -8.98242 v 29.35937 a 1.3334667,1.3334667 0 1 1 -2.66407,0 v -29.35937 h -8.98242 v 29.35937 a 1.3334667,1.3334667 0 1 1 -2.66601,0 v -29.35937 h -8.98047 v 29.35937 a 1.3334667,1.3334667 0 1 1 -2.66602,0 v -29.35937 h -8.31836 v 58.25976 a 2.0004926,2.0004926 0 1 1 -4,0 v -58.25976 h -8.31054 v 30.27539 a 1.3334667,1.3334667 0 1 1 -2.66602,0 v -30.27539 h -8.982422 v 30.27539 a 1.3334667,1.3334667 0 1 1 -2.664062,0 v -30.27539 h -8.982422 v 30.27539 a 1.3334667,1.3334667 0 1 1 -2.664063,0 v -30.27539 h -8.982422 v 30.27539 a 1.3334667,1.3334667 0 1 1 -2.666015,0 v -30.27539 h -8.416016 v 44.36328 a 1.8979443,1.8979443 0 1 1 -3.792969,0 v -44.36328 h -8.419921 v 30.27539 c 0.07288,1.84804 -2.736932,1.84804 -2.664063,0 v -30.27539 h -8.982422 v 30.27539 c 0.07288,1.848 -2.736939,1.848 -2.664062,0 v -30.27539 h -8.982422 v 30.27539 c 0.07288,1.848 -2.738893,1.848 -2.666016,0 v -30.27539 h -8.982422 v 30.27539 c 0.07288,1.848 -2.736939,1.848 -2.664062,0 v -30.27539 z m 511.8085906,0 v 3.20703 l 0.77344,-3.20703 z M 233.70508,411.1582 c 3.9208,0 6.98649,1.06952 9.19922,3.20899 2.21273,2.13946 3.32031,4.94032 3.32031,8.40234 0,2.13947 -0.58345,4.3376 -1.74805,6.59375 -1.16459,2.21725 -3.0851,4.80342 -5.76367,7.75977 l -10.71484,12.07812 H 245.875 c 0.46584,0 0.8535,0.17531 1.16406,0.52539 0.34938,0.31118 0.52539,0.69922 0.52539,1.16602 0,0.5057 -0.17601,0.91538 -0.52539,1.22656 -0.31056,0.31121 -0.69822,0.4668 -1.16406,0.4668 h -21.83594 c -0.54348,0 -0.99046,-0.15559 -1.33984,-0.4668 -0.34938,-0.31118 -0.52344,-0.73862 -0.52344,-1.2832 0,-0.42792 0.15434,-0.83765 0.46484,-1.22656 l 13.45118,-14.87891 c 2.17391,-2.33394 3.78585,-4.41393 4.83398,-6.24219 1.04813,-1.86716 1.57227,-3.69697 1.57227,-5.48633 0,-2.64516 -0.79711,-4.72513 -2.38867,-6.24218 -1.59162,-1.51711 -3.80287,-2.27539 -6.63672,-2.27539 -1.90217,0 -3.61103,0.46679 -5.125,1.40039 -1.47516,0.89469 -2.58079,2.27541 -3.31836,4.14257 -0.42702,0.7002 -0.93138,1.04883 -1.51368,1.04883 -0.42696,0 -0.83641,-0.15564 -1.2246,-0.46679 -0.3882,-0.31121 -0.58204,-0.65987 -0.58204,-1.04883 0,-0.23333 0.0791,-0.50708 0.23438,-0.81836 0.15529,-0.31118 0.34912,-0.62239 0.58203,-0.9336 1.00932,-2.10056 2.52239,-3.73342 4.54102,-4.90039 2.01862,-1.16699 4.23184,-1.75 6.63867,-1.75 z m -114.17383,0.55469 c 0.12616,-3e-5 0.25671,0.01 0.39258,0.0293 v -0.002 c 0.42702,0.0388 0.77709,0.23378 1.04883,0.58399 0.31055,0.31121 0.46679,0.7012 0.46679,1.16797 v 37.34375 c 0,0.50567 -0.19578,0.93312 -0.58398,1.2832 -0.34938,0.31121 -0.79442,0.4668 -1.33789,0.4668 -0.50466,0 -0.93187,-0.15559 -1.28125,-0.4668 -0.34938,-0.35008 -0.52344,-0.77753 -0.52344,-1.2832 v -34.13477 l -7.2793,4.31836 c -0.27173,0.15572 -0.54466,0.23242 -0.8164,0.23242 -0.50466,0 -0.9497,-0.19497 -1.33789,-0.58398 -0.34938,-0.38897 -0.52539,-0.81641 -0.52539,-1.2832 0,-0.27228 0.0791,-0.54411 0.23437,-0.81641 0.19409,-0.2723 0.42552,-0.48696 0.69727,-0.64258 l 9.84179,-5.95117 c 0.29115,-0.17499 0.62542,-0.26162 1.00391,-0.26172 z m 353.45703,0.0273 c 0.50467,0 0.91211,0.17536 1.22266,0.52539 0.34938,0.31121 0.52343,0.72087 0.52344,1.22657 v 23.22265 h 3.90039 c 0.46583,0 0.85546,0.15562 1.16601,0.4668 0.34938,0.31118 0.52344,0.69922 0.52344,1.16602 0,0.46679 -0.17406,0.85681 -0.52344,1.16796 -0.31055,0.31119 -0.70018,0.4668 -1.16601,0.4668 h -3.90039 v 10.85352 c -10e-6,0.50567 -0.17406,0.93312 -0.52344,1.2832 -0.34938,0.31121 -0.77661,0.4668 -1.28125,0.4668 -0.50467,0 -0.91211,-0.15559 -1.22266,-0.4668 -0.31058,-0.35008 -0.4668,-0.77753 -0.4668,-1.2832 v -10.85352 h -17.11914 c -0.46584,0 -0.87327,-0.1753 -1.22265,-0.52539 -0.34938,-0.38901 -0.52344,-0.81643 -0.52344,-1.2832 0,-0.46677 0.13453,-0.85676 0.40625,-1.16797 l 18.75,-24.56445 c 0.31055,-0.4668 0.7971,-0.70118 1.45703,-0.70118 z m -133.67578,0.002 h 19.56445 c 0.62112,0 1.06811,0.19497 1.33985,0.58398 0.31056,0.35009 0.46679,0.75781 0.46679,1.22461 0,0.46677 -0.19578,0.89419 -0.58398,1.2832 l -10.6543,11.9043 0.34766,-0.002 c 2.17391,0 4.19329,0.5062 6.05664,1.51758 1.90217,1.01137 3.41719,2.48862 4.54297,4.43359 1.16459,1.94497 1.74609,4.24158 1.74609,6.88672 0,2.64516 -0.64082,4.99889 -1.92187,7.06055 -1.24224,2.06165 -2.94914,3.67483 -5.12305,4.84179 -2.17391,1.12809 -4.58096,1.69141 -7.2207,1.69141 -1.66926,0 -3.28119,-0.27183 -4.83399,-0.81641 -1.55279,-0.54458 -2.87203,-1.36196 -3.95898,-2.45117 -0.54348,-0.38896 -0.81641,-0.85383 -0.81641,-1.39844 0,-0.46679 0.17601,-0.89616 0.52539,-1.28515 0.34938,-0.4279 0.75682,-0.64063 1.22266,-0.64063 0.46584,0 0.95042,0.21273 1.45508,0.64063 1.63043,1.75047 3.88319,2.62695 6.75586,2.62695 1.86335,0 3.59002,-0.42937 5.18164,-1.28516 1.59161,-0.85581 2.85348,-2.06123 3.78515,-3.61718 0.93168,-1.55598 1.39649,-3.30704 1.39649,-5.25196 0,-2.13946 -0.48459,-3.92789 -1.45508,-5.36718 -0.93168,-1.43927 -2.17377,-2.48915 -3.72656,-3.15039 -1.51398,-0.70018 -3.12592,-1.05079 -4.83399,-1.05079 -0.46583,0 -1.06711,0.0787 -1.80469,0.23438 -0.73752,0.11691 -1.20238,0.17383 -1.39648,0.17383 -0.46584,0 -0.85546,-0.15562 -1.16602,-0.4668 -0.27169,-0.35011 -0.40625,-0.77753 -0.40624,-1.2832 -10e-6,-0.5057 0.19383,-0.95281 0.58203,-1.3418 L 355.5,415.06836 h -16.1875 c -0.46584,0 -0.87328,-0.15562 -1.22266,-0.4668 -0.31055,-0.3112 -0.46679,-0.72086 -0.46679,-1.22656 0,-0.4668 0.15624,-0.85483 0.46679,-1.16602 0.34938,-0.3112 0.75682,-0.46679 1.22266,-0.46679 z m 131.92773,6.30078 -14.09179,18.67187 h 14.09179 z M 50.75,454.58594 c 1.824532,0 3.511662,0.21273 5.064453,0.64062 1.591612,0.38899 2.85348,0.93455 3.785156,1.63477 0.970495,0.70017 1.457032,1.45851 1.457032,2.27539 0,0.42787 -0.156239,0.81588 -0.466797,1.16601 -0.271738,0.35009 -0.62181,0.5254 -1.048828,0.52539 -0.388198,0 -0.716544,-0.0767 -0.988282,-0.23242 -0.232919,-0.15571 -0.50585,-0.39011 -0.816406,-0.70117 -0.504658,-0.5057 -0.989239,-0.87402 -1.455078,-1.10742 -0.582297,-0.27228 -1.359584,-0.48696 -2.330078,-0.64258 -0.931676,-0.19452 -1.94039,-0.29101 -3.027344,-0.29101 -2.13509,0 -4.095148,0.54365 -5.880859,1.63281 -1.746895,1.08921 -3.125453,2.56841 -4.134766,4.43555 -1.009313,1.86713 -1.513672,3.92746 -1.513672,6.18359 0,2.33398 0.484584,4.43557 1.455078,6.30273 0.970495,1.86714 2.309507,3.34439 4.017579,4.4336 1.746885,1.05025 3.726723,1.57617 5.939453,1.57617 1.397513,0 2.505096,-0.11629 3.320312,-0.34961 0.854037,-0.23332 1.68869,-0.56422 2.503906,-0.99219 0.271738,-0.15571 0.736549,-0.50633 1.396485,-1.05078 0.310558,-0.27233 0.583489,-0.4673 0.816406,-0.58398 0.23292,-0.15572 0.484119,-0.23243 0.755859,-0.23243 0.46584,0 0.835687,0.15559 1.107422,0.4668 0.271741,0.2723 0.40625,0.64063 0.40625,1.10742 0,0.66129 -0.464808,1.38221 -1.396484,2.16016 -0.931676,0.7391 -2.21332,1.37925 -3.84375,1.92383 -1.630433,0.5446 -3.436206,0.81836 -5.416016,0.81836 -2.833847,0 -5.355627,-0.6618 -7.568359,-1.98438 -2.212727,-1.36146 -3.941359,-3.2287 -5.183594,-5.60156 -1.203414,-2.37286 -1.804687,-5.03779 -1.804687,-7.99414 0,-2.83964 0.621047,-5.42583 1.863281,-7.75977 1.242236,-2.37286 2.988687,-4.25979 5.240234,-5.66015 2.251548,-1.40039 4.834605,-2.09961 7.746094,-2.09961 z m 30.433594,0.46679 c 2.251547,0 4.193788,0.54363 5.824218,1.63282 1.630431,1.08918 2.793429,2.68462 3.492188,4.78515 0.815214,-1.71154 2.310464,-3.20851 4.484375,-4.49218 2.173909,-1.28368 4.367364,-1.92579 6.580075,-1.92579 3.49379,0 6.05512,1.08921 7.68555,3.26758 1.66925,2.13947 2.50391,4.97778 2.50391,8.51758 v 16.51367 c 0,0.5057 -0.17406,0.93312 -0.52344,1.28321 -0.31056,0.3112 -0.718,0.46679 -1.22266,0.46679 -0.50466,0 -0.93187,-0.15559 -1.28125,-0.46679 -0.31055,-0.35009 -0.46484,-0.77751 -0.46484,-1.28321 v -16.33789 c 0,-2.56736 -0.62105,-4.64928 -1.86328,-6.24414 -1.20342,-1.63376 -3.08633,-2.44922 -5.64844,-2.44922 -1.63043,0 -3.183051,0.38807 -4.658203,1.16602 -1.436337,0.778 -2.601288,1.84752 -3.494141,3.20898 -0.892858,1.32259 -1.339843,2.76238 -1.339844,4.31836 v 16.33789 c 0,0.5057 -0.17406,0.93312 -0.523437,1.28321 -0.310559,0.3112 -0.717999,0.46679 -1.222656,0.46679 -0.504658,0 -0.931871,-0.15559 -1.28125,-0.46679 -0.310559,-0.35009 -0.466797,-0.77751 -0.466797,-1.28321 v -16.51367 c 0,-2.52843 -0.581503,-4.56902 -1.746094,-6.125 -1.164596,-1.59486 -2.990139,-2.39258 -5.474609,-2.39258 -1.591612,0 -3.104685,0.38807 -4.541016,1.16602 -1.397513,0.778 -2.542689,1.82781 -3.435547,3.15039 -0.854034,1.28368 -1.28125,2.68412 -1.28125,4.20117 v 16.51367 c 0,0.5057 -0.17406,0.93312 -0.523437,1.28321 -0.310559,0.3112 -0.717996,0.46679 -1.222657,0.46679 -0.504652,0 -0.931872,-0.15559 -1.28125,-0.46679 -0.310553,-0.35009 -0.466796,-0.77751 -0.466796,-1.28321 v -26.14062 c 0,-0.5057 0.156243,-0.91343 0.466796,-1.22461 0.349378,-0.35009 0.776598,-0.52539 1.28125,-0.52539 0.504661,0 0.912098,0.1753 1.222657,0.52539 0.349377,0.31118 0.523437,0.71891 0.523437,1.22461 v 3.38476 c 1.048136,-1.59486 2.464289,-2.91847 4.25,-3.96875 1.785711,-1.05028 3.668628,-1.57422 5.648438,-1.57422 z"
       id="path7894"
       transform="matrix(0.26458333,0,0,0.26458333,0,150.34525)"
       inkscape:connector-curvature="0" />
    <path
       style="fill:#ffde37;fill-opacity:1;stroke:none;stroke-width:6.66666651;stroke-linecap:round;stroke-linejoin:round;stroke-miterlimit:4;stroke-dasharray:none;stroke-dashoffset:0;stroke-opacity:1;paint-order:markers stroke fill"
       d="m 921.49023,339.94336 -0.85351,1.83594 v 28.43945 a 1.3334667,1.3334667 0 0 1 -1.96094,1.22656 l 25.14649,29.36914 -11.37696,12.77149 c 0.13334,0.23817 0.20899,0.50987 0.20899,0.82226 0,0.4668 -0.17406,0.87453 -0.52344,1.22461 -0.31055,0.31121 -0.69822,0.4668 -1.16406,0.4668 h -0.76172 l -9.16211,10.28516 c 2.26051,0.0791 4.30913,0.63334 6.13867,1.67578 2.01862,1.08918 3.59103,2.64521 4.7168,4.66797 1.1646,1.98387 1.74609,4.22138 1.74609,6.71093 0,2.72295 -0.64082,5.17322 -1.92187,7.35157 -1.24226,2.13946 -2.98872,3.8117 -5.24024,5.01757 -2.25156,1.2059 -4.8129,1.8086 -7.68554,1.8086 -1.54789,0 -3.09665,-0.25331 -4.64454,-0.74414 l 23.51368,43.96093 h 632.52148 l 9.2617,-65.76367 -5.7051,-14.11523 v 33.8789 c 0,0.50568 -0.1938,0.93508 -0.582,1.28516 -0.3494,0.31121 -0.7944,0.4668 -1.3379,0.4668 -0.5046,0 -0.9318,-0.15559 -1.2812,-0.4668 -0.3494,-0.35008 -0.5254,-0.77948 -0.5254,-1.28516 v -34.13281 l -7.2774,4.31641 c -0.2717,0.15571 -0.5446,0.23437 -0.8164,0.23437 -0.5046,0 -0.9516,-0.19497 -1.3398,-0.58398 -0.3494,-0.38897 -0.5235,-0.81641 -0.5235,-1.2832 0,-0.27228 0.077,-0.54411 0.2325,-0.81641 0.194,-0.2723 0.4274,-0.48696 0.6992,-0.64258 l 9.8418,-5.95117 c 0.2364,-0.14208 0.5049,-0.21931 0.7988,-0.24609 l -10.9336,-27.04883 9.5117,-23.53516 v -21.20117 h -8.9824 v 29.35937 a 1.3334667,1.3334667 0 1 1 -2.666,0 v -29.35937 h -8.9824 v 29.35937 a 1.3334667,1.3334667 0 1 1 -2.6641,0 v -29.35937 h -8.418 v 43.44726 a 1.8979443,1.8979443 0 1 1 -3.7929,0 v -43.44726 h -8.418 v 29.35937 a 1.3334667,1.3334667 0 1 1 -2.666,0 v -29.35937 h -8.9824 v 29.35937 a 1.3334667,1.3334667 0 1 1 -2.6641,0 v -29.35937 h -8.9824 v 29.35937 a 1.3334667,1.3334667 0 1 1 -2.6641,0 v -29.35937 h -8.9824 v 29.35937 a 1.3334667,1.3334667 0 1 1 -2.666,0 v -29.35937 h -8.3164 v 58.25976 a 2.0005039,2.0005039 0 1 1 -4,0 v -58.25976 h -8.3125 v 29.35937 a 1.3334667,1.3334667 0 1 1 -2.6641,0 v -29.35937 h -8.9824 v 29.35937 a 1.3334667,1.3334667 0 1 1 -2.666,0 v -29.35937 h -8.9824 v 29.35937 a 1.3334667,1.3334667 0 1 1 -2.6641,0 v -29.35937 h -8.9824 v 29.35937 a 1.3334667,1.3334667 0 1 1 -2.6641,0 v -29.35937 h -8.418 v 43.44726 a 1.8979443,1.8979443 0 1 1 -3.7929,0 v -43.44726 h -8.4199 v 29.35937 a 1.3334667,1.3334667 0 1 1 -2.6641,0 v -29.35937 h -8.9824 v 29.35937 a 1.3334667,1.3334667 0 1 1 -2.6641,0 v -29.35937 h -8.9824 v 29.35937 a 1.3334667,1.3334667 0 1 1 -2.666,0 v -29.35937 h -8.9825 v 29.35937 a 1.3334667,1.3334667 0 1 1 -2.664,0 v -29.35937 h -8.3164 v 58.25976 a 2.001,2.001 0 0 1 -4.002,0 v -58.25976 h -8.3105 v 29.35937 a 1.3334667,1.3334667 0 1 1 -2.666,0 v -29.35937 h -8.9805 v 29.35937 a 1.3334667,1.3334667 0 1 1 -2.666,0 v -29.35937 h -8.9824 v 29.35937 a 1.3334667,1.3334667 0 1 1 -2.6641,0 v -29.35937 h -8.9824 v 29.35937 a 1.3334667,1.3334667 0 1 1 -2.666,0 v -29.35937 h -8.4161 v 43.44726 a 1.8979443,1.8979443 0 1 1 -3.7929,0 v -43.44726 h -8.4199 v 29.35937 a 1.3334667,1.3334667 0 1 1 -2.6641,0 v -29.35937 h -8.9824 v 29.35937 a 1.3334667,1.3334667 0 1 1 -2.6641,0 v -29.35937 h -8.9824 v 29.35937 a 1.3334667,1.3334667 0 1 1 -2.666,0 v -29.35937 h -8.9825 v 29.35937 a 1.3334667,1.3334667 0 1 1 -2.664,0 v -29.35937 h -8.3184 v 58.25976 a 2.0005039,2.0005039 0 1 1 -4,0 v -58.25976 h -8.3105 v 29.35937 a 1.3334667,1.3334667 0 1 1 -2.666,0 v -29.35937 h -8.9825 v 29.35937 a 1.3334667,1.3334667 0 1 1 -2.664,0 v -29.35937 h -8.9824 v 29.35937 a 1.3334667,1.3334667 0 1 1 -2.6641,0 v -29.35937 h -8.9824 v 29.35937 a 1.3334667,1.3334667 0 1 1 -2.666,0 v -29.35937 h -8.4161 v 43.44726 a 1.8979443,1.8979443 0 1 1 -3.7929,0 v -43.44726 h -8.42 v 29.35937 a 1.3334667,1.3334667 0 1 1 -2.664,0 v -29.35937 h -8.9824 v 29.35937 a 1.3334667,1.3334667 0 1 1 -2.6661,0 v -29.35937 h -8.9824 v 29.35937 a 1.3334667,1.3334667 0 1 1 -2.664,0 v -29.35937 h -8.9825 v 29.35937 a 1.3334667,1.3334667 0 1 1 -2.664,0 v -29.35937 h -8.3184 v 58.25976 a 2.00095,2.00095 0 0 1 -4.0019,0 v -58.25976 h -8.3106 v 29.35937 a 1.3334667,1.3334667 0 1 1 -2.664,0 v -29.35937 h -8.9825 v 29.35937 a 1.3334667,1.3334667 0 1 1 -2.664,0 v -29.35937 h -8.9824 v 29.35937 a 1.3334667,1.3334667 0 1 1 -2.6661,0 v -29.35937 h -8.9804 v 29.35937 a 1.3334667,1.3334667 0 1 1 -2.6661,0 v -29.35937 h -8.4179 v 43.44726 a 1.8979443,1.8979443 0 1 1 -3.793,0 v -43.44726 h -8.418 v 29.35937 a 1.3334667,1.3334667 0 1 1 -2.666,0 v -29.35937 h -8.9804 v 29.35937 a 1.3334667,1.3334667 0 1 1 -2.6661,0 v -29.35937 h -8.9824 v 29.35937 a 1.3334667,1.3334667 0 1 1 -2.664,0 v -29.35937 h -8.9825 v 29.35937 a 1.3334667,1.3334667 0 1 1 -2.666,0 v -29.35937 h -8.3183 v 58.25976 a 2.000485,2.000485 0 1 1 -4,0 v -58.25976 h -8.3106 v 30.27539 a 1.3334667,1.3334667 0 1 1 -2.66405,0 v -30.27539 h -8.98242 v 30.27539 a 1.3334667,1.3334667 0 1 1 -2.66406,0 v -30.27539 h -8.98242 v 30.27539 a 1.3334667,1.3334667 0 1 1 -2.66602,0 v -30.27539 h -8.98242 v 30.27539 a 1.3334667,1.3334667 0 1 1 -2.66406,0 v -30.27539 h -8.41797 v 44.36328 a 1.8979443,1.8979443 0 1 1 -3.79297,0 v -44.36328 h -8.41797 v 30.27539 a 1.3334667,1.3334667 0 1 1 -2.66602,0 v -30.27539 h -8.98242 v 30.27539 a 1.3334667,1.3334667 0 1 1 -2.66406,0 v -30.27539 z m 651.38477,0 v 14.60937 l 5.9043,-14.60937 z m -654.90234,7.56836 -6.96289,14.98047 7.03711,8.21875 a 1.3334667,1.3334667 0 0 1 -0.0742,-0.49219 z m 126.31254,63.0039 c 0.5046,0 0.9318,0.1556 1.2812,0.4668 0.3494,0.31118 0.5234,0.75829 0.5234,1.3418 0,0.81688 -0.4648,1.38215 -1.3964,1.69336 -3.1056,1.28365 -6.0368,3.55864 -8.793,6.82617 -2.7174,3.22865 -4.5805,6.67161 -5.5899,10.32813 1.1647,-1.36147 2.561,-2.43101 4.1915,-3.20899 1.6692,-0.81691 3.4552,-1.22656 5.3574,-1.22656 2.2903,0 4.3473,0.62239 6.1718,1.86719 1.8634,1.24475 3.3013,2.89925 4.3106,4.96093 1.0481,2.06166 1.5703,4.23815 1.5703,6.53321 0,2.29505 -0.5617,4.45576 -1.6875,6.47851 -1.0869,1.98388 -2.602,3.57733 -4.543,4.78321 -1.941,1.20587 -4.1146,1.80859 -6.5214,1.80859 -2.9115,0 -5.3759,-0.67956 -7.3946,-2.04102 -2.0186,-1.36148 -3.5336,-3.15187 -4.5429,-5.36914 -0.9706,-2.21722 -1.4551,-4.60842 -1.4551,-7.17578 0,-3.30643 0.6982,-6.84591 2.0957,-10.61914 1.3975,-3.81213 3.4367,-7.29447 6.1152,-10.44531 2.6786,-3.18975 5.861,-5.4844 9.5488,-6.88477 0.3106,-0.0776 0.5638,-0.11719 0.7579,-0.11719 z m 432.5605,0 c 0.5046,0 0.9319,0.1556 1.2813,0.4668 0.3493,0.31118 0.5253,0.75829 0.5253,1.3418 0,0.81688 -0.4667,1.38215 -1.3984,1.69336 -3.1056,1.28365 -6.0367,3.55864 -8.793,6.82617 -2.7173,3.22865 -4.5805,6.67161 -5.5898,10.32813 1.1646,-1.36147 2.5629,-2.43101 4.1934,-3.20899 1.6692,-0.81691 3.4533,-1.22656 5.3554,-1.22656 2.2904,0 4.3493,0.62239 6.1739,1.86719 1.8633,1.24475 3.2992,2.89925 4.3085,4.96093 1.0482,2.06166 1.5723,4.23815 1.5723,6.53321 0,2.29505 -0.5637,4.45576 -1.6894,6.47851 -1.087,1.98388 -2.6001,3.57733 -4.5411,4.78321 -1.9409,1.20587 -4.1146,1.80859 -6.5214,1.80859 -2.9115,0 -5.3779,-0.67956 -7.3965,-2.04102 -2.0186,-1.36148 -3.5317,-3.15187 -4.541,-5.36914 -0.9705,-2.21722 -1.4551,-4.60842 -1.4551,-7.17578 0,-3.30643 0.6982,-6.84591 2.0957,-10.61914 1.3975,-3.81213 3.4347,-7.29447 6.1133,-10.44531 2.6785,-3.18975 5.8629,-5.4844 9.5507,-6.88477 0.3106,-0.0776 0.5618,-0.11719 0.7559,-0.11719 z m -89.3086,0.58399 c 2.8727,0 5.3173,0.67955 7.3359,2.04101 2.0187,1.36147 3.5139,3.15187 4.4844,5.36915 1.0093,2.21724 1.5137,4.60842 1.5137,7.17578 0,3.26755 -0.6982,6.74991 -2.0957,10.44531 -1.3587,3.69545 -3.3979,7.07931 -6.1152,10.15234 -2.6786,3.07304 -5.861,5.31055 -9.5489,6.71094 -0.3105,0.0776 -0.5439,0.11524 -0.6992,0.11524 -0.5046,0 -0.9516,-0.17336 -1.3398,-0.52344 -0.3494,-0.35009 -0.5235,-0.77946 -0.5235,-1.28516 0,-0.81688 0.4668,-1.38022 1.3985,-1.6914 3.1832,-1.36149 6.1144,-3.53991 8.7929,-6.53516 2.7174,-3.03413 4.5608,-6.32147 5.5313,-9.86133 -1.1258,1.2837 -2.5241,2.31577 -4.1934,3.09375 -1.6304,0.73907 -3.3966,1.10742 -5.2988,1.10742 -2.2904,0 -4.3473,-0.60272 -6.1719,-1.80859 -1.8245,-1.24478 -3.2604,-2.87764 -4.3086,-4.90039 -1.0481,-2.06166 -1.5722,-4.2401 -1.5722,-6.53516 0,-2.29505 0.5439,-4.43607 1.6308,-6.41992 1.1258,-2.02278 2.6586,-3.63593 4.5996,-4.8418 1.9798,-1.20587 4.1733,-1.80859 6.5801,-1.80859 z m 116.1602,0.0586 c 3.0667,0 5.6478,0.91391 7.7441,2.74219 2.1351,1.78935 3.7273,4.27903 4.7754,7.46875 1.087,3.15084 1.6289,6.74939 1.6289,10.79492 0,4.00663 -0.5419,7.60323 -1.6289,10.79297 -1.0481,3.15084 -2.6403,5.64049 -4.7754,7.46875 -2.0963,1.82826 -4.6774,2.74219 -7.7441,2.74219 -3.0668,0 -5.6499,-0.91393 -7.7461,-2.74219 -2.0963,-1.82826 -3.6865,-4.31791 -4.7735,-7.46875 -1.0481,-3.18974 -1.5722,-6.78634 -1.5722,-10.79297 0,-4.04553 0.5241,-7.64408 1.5722,-10.79492 1.0481,-3.15082 2.6206,-5.64049 4.7168,-7.46875 2.1351,-1.82828 4.736,-2.74219 7.8028,-2.74219 z m -520.47074,0.55469 c 0.12617,-3e-5 0.25867,0.008 0.39453,0.0273 0.42704,0.0388 0.77516,0.23378 1.04688,0.58399 0.31055,0.31121 0.4668,0.7012 0.4668,1.16797 v 37.34179 c 0,0.50568 -0.19385,0.93508 -0.58204,1.28516 -0.34938,0.31121 -0.79634,0.4668 -1.33984,0.4668 -0.50464,0 -0.93187,-0.15559 -1.28125,-0.4668 -0.34938,-0.35008 -0.52344,-0.77948 -0.52344,-1.28516 v -34.13281 l -7.27929,4.31641 c -0.27173,0.15571 -0.54271,0.23437 -0.81446,0.23437 -0.50464,0 -0.95163,-0.19497 -1.33984,-0.58398 -0.34941,-0.38897 -0.52344,-0.81641 -0.52344,-1.2832 0,-0.27228 0.0772,-0.54411 0.23242,-0.81641 0.19402,-0.2723 0.4274,-0.48696 0.69922,-0.64258 l 9.83985,-5.95117 c 0.29115,-0.17499 0.62541,-0.26162 1.0039,-0.26172 z m 117.04104,0 c 0.1261,-3e-5 0.2567,0.008 0.3926,0.0273 0.427,0.0388 0.777,0.23378 1.0488,0.58399 0.3105,0.31121 0.4648,0.7012 0.4648,1.16797 v 37.34179 c 0,0.50568 -0.1938,0.93508 -0.582,1.28516 -0.3494,0.31121 -0.7964,0.4668 -1.3398,0.4668 -0.5047,0 -0.9319,-0.15559 -1.2813,-0.4668 -0.3494,-0.35008 -0.5234,-0.77948 -0.5234,-1.28516 v -34.13281 l -7.2793,4.31641 c -0.2718,0.15571 -0.5428,0.23437 -0.8145,0.23437 -0.5046,0 -0.9516,-0.19497 -1.3398,-0.58398 -0.3494,-0.38897 -0.5235,-0.81641 -0.5235,-1.2832 0,-0.27228 0.077,-0.54411 0.2325,-0.81641 0.194,-0.2723 0.4274,-0.48696 0.6992,-0.64258 l 9.8398,-5.95117 c 0.2912,-0.17499 0.6274,-0.26162 1.0059,-0.26172 z m 115.1054,0 c 0.1262,-3e-5 0.2568,0.008 0.3926,0.0273 v 0 c 0.427,0.0388 0.7751,0.23378 1.0469,0.58399 0.3105,0.31121 0.4667,0.7012 0.4667,1.16797 v 37.34179 c 0,0.50568 -0.1938,0.93508 -0.582,1.28516 -0.3494,0.31121 -0.7964,0.4668 -1.3398,0.4668 -0.5047,0 -0.9319,-0.15559 -1.2813,-0.4668 -0.3494,-0.35008 -0.5234,-0.77948 -0.5234,-1.28516 v -34.13281 l -7.2793,4.31641 c -0.2718,0.15571 -0.5427,0.23437 -0.8145,0.23437 -0.5046,0 -0.9516,-0.19497 -1.3398,-0.58398 -0.3494,-0.38897 -0.5254,-0.81641 -0.5254,-1.2832 0,-0.27228 0.079,-0.54411 0.2344,-0.81641 0.194,-0.2723 0.4254,-0.48696 0.6972,-0.64258 l 9.8418,-5.95117 c 0.2912,-0.17499 0.6255,-0.26162 1.0039,-0.26172 z m 116.8125,0 c 0.1262,-3e-5 0.2568,0.008 0.3926,0.0273 0.427,0.0388 0.7771,0.23378 1.0489,0.58399 0.3105,0.31121 0.4667,0.7012 0.4668,1.16797 v 37.34179 c 0,0.50568 -0.1959,0.93508 -0.584,1.28516 -0.3494,0.31121 -0.7944,0.4668 -1.3379,0.4668 -0.5047,0 -0.9319,-0.15559 -1.2813,-0.4668 -0.3494,-0.35008 -0.5254,-0.77948 -0.5254,-1.28516 v -34.13281 l -7.2773,4.31641 c -0.2717,0.15571 -0.5447,0.23437 -0.8164,0.23437 -0.5047,0 -0.9497,-0.19497 -1.3379,-0.58398 -0.3494,-0.38897 -0.5254,-0.81641 -0.5254,-1.2832 0,-0.27228 0.079,-0.54411 0.2344,-0.81641 0.194,-0.2723 0.4254,-0.48696 0.6972,-0.64258 l 9.8418,-5.95117 c 0.2912,-0.17499 0.6255,-0.26162 1.0039,-0.26172 z m 115.5606,0 c 0.1262,-3e-5 0.2587,0.008 0.3945,0.0273 0.4271,0.0388 0.7752,0.23378 1.0469,0.58399 0.3105,0.31121 0.4668,0.7012 0.4668,1.16797 v 37.34179 c 0,0.50568 -0.1939,0.93508 -0.582,1.28516 -0.3494,0.31121 -0.7964,0.4668 -1.3399,0.4668 -0.5046,0 -0.9318,-0.15559 -1.2812,-0.4668 -0.3494,-0.35008 -0.5235,-0.77948 -0.5235,-1.28516 v -34.13281 l -7.2793,4.31641 c -0.2717,0.15571 -0.5427,0.23437 -0.8144,0.23437 -0.5047,0 -0.9517,-0.19497 -1.3399,-0.58398 -0.3493,-0.38897 -0.5234,-0.81641 -0.5234,-1.2832 0,-0.27228 0.077,-0.54411 0.2324,-0.81641 0.194,-0.2723 0.4274,-0.48696 0.6992,-0.64258 l 9.8399,-5.95117 c 0.2911,-0.17499 0.6254,-0.26162 1.0039,-0.26172 z m -449.45313,0.0273 h 17.52733 c 0.4658,0 0.8535,0.17531 1.1641,0.52539 0.3494,0.31121 0.5254,0.72087 0.5254,1.22657 0,0.46677 -0.176,0.8745 -0.5254,1.22461 -0.3106,0.31118 -0.6983,0.46679 -1.1641,0.46679 h -16.30468 l -1.97851,12.07813 c 1.00931,-0.5057 2.19207,-0.93312 3.55079,-1.2832 1.3975,-0.35009 2.8156,-0.5254 4.2519,-0.5254 2.4845,0 4.7155,0.56332 6.6954,1.69141 2.0186,1.08916 3.591,2.64519 4.7168,4.66797 1.1646,1.98385 1.748,4.22139 1.748,6.71094 0,2.72292 -0.6408,5.17317 -1.9219,7.35156 -1.2422,2.13944 -2.9906,3.81171 -5.2422,5.01758 -2.2515,1.20587 -4.8128,1.80859 -7.6855,1.80859 -1.6304,0 -3.2602,-0.27182 -4.89063,-0.8164 -1.59161,-0.54458 -2.98994,-1.32261 -4.19336,-2.33399 -0.23282,-0.15572 -0.42667,-0.36845 -0.58203,-0.64062 -0.11641,-0.31121 -0.17383,-0.60465 -0.17383,-0.87696 0,-0.38899 0.15429,-0.75733 0.46484,-1.10742 0.34938,-0.38899 0.75682,-0.58398 1.22266,-0.58398 0.42703,0 0.85426,0.1753 1.28125,0.52539 1.00931,0.77798 2.09712,1.3807 3.2617,1.80859 1.2034,0.42792 2.406,0.64258 3.6094,0.64258 2.2128,0 4.1728,-0.44708 5.8808,-1.3418 1.747,-0.89466 3.086,-2.1592 4.0176,-3.79297 0.9705,-1.63376 1.4571,-3.48128 1.4571,-5.54297 0,-2.95634 -0.9514,-5.32978 -2.8536,-7.11914 -1.9021,-1.82825 -4.4456,-2.74218 -7.6289,-2.74218 -1.2034,0 -2.3288,0.1753 -3.3769,0.52539 -1.0093,0.35011 -2.1545,0.8169 -3.43556,1.40039 -0.93168,0.46679 -1.53297,0.69922 -1.80469,0.69922 -0.5823,0 -1.06687,-0.17528 -1.45508,-0.52539 -0.34935,-0.38899 -0.52539,-0.8361 -0.52539,-1.3418 0,-0.19452 0.0198,-0.35016 0.0586,-0.4668 l 2.5039,-15.87109 c 0.0776,-0.38899 0.27146,-0.71989 0.58203,-0.99219 0.34941,-0.31121 0.75684,-0.4668 1.22266,-0.4668 z m 117.03903,0 h 17.5274 c 0.4658,0 0.8554,0.17531 1.166,0.52539 0.3494,0.31121 0.5234,0.72087 0.5234,1.22657 0,0.46677 -0.174,0.8745 -0.5234,1.22461 -0.3106,0.31118 -0.7002,0.46679 -1.166,0.46679 h -16.3047 l -1.9785,12.07813 c 1.0093,-0.5057 2.192,-0.93312 3.5508,-1.2832 1.3974,-0.35009 2.8156,-0.5254 4.2519,-0.5254 2.4845,0 4.7175,0.56332 6.6973,1.69141 2.0186,1.08916 3.589,2.64519 4.7148,4.66797 1.1646,1.98385 1.7481,4.22139 1.7481,6.71094 0,2.72292 -0.6409,5.17317 -1.9219,7.35156 -1.2422,2.13944 -2.9887,3.81171 -5.2402,5.01758 -2.2516,1.20587 -4.8149,1.80859 -7.6875,1.80859 -1.6305,0 -3.2602,-0.27182 -4.8907,-0.8164 -1.5916,-0.54458 -2.988,-1.32261 -4.1914,-2.33399 -0.2328,-0.15572 -0.4286,-0.36845 -0.584,-0.64062 -0.1166,-0.31121 -0.1738,-0.60465 -0.1738,-0.87696 0,-0.38899 0.1543,-0.75733 0.4649,-1.10742 0.3493,-0.38899 0.7568,-0.58398 1.2226,-0.58398 0.427,0 0.8542,0.1753 1.2813,0.52539 1.0093,0.77798 2.0971,1.3807 3.2617,1.80859 1.2034,0.42792 2.4059,0.64258 3.6094,0.64258 2.2127,0 4.1727,-0.44708 5.8808,-1.3418 1.7469,-0.89466 3.0879,-2.1592 4.0195,-3.79297 0.9705,-1.63376 1.4551,-3.48128 1.4551,-5.54297 0,-2.95634 -0.9513,-5.32978 -2.8535,-7.11914 -1.9022,-1.82825 -4.4457,-2.74218 -7.6289,-2.74218 -1.2034,0 -2.3288,0.1753 -3.377,0.52539 -1.0093,0.35011 -2.1544,0.8169 -3.4355,1.40039 -0.9317,0.46679 -1.5329,0.69922 -1.8047,0.69922 -0.5823,0 -1.0669,-0.17528 -1.4551,-0.52539 -0.3493,-0.38899 -0.5254,-0.8361 -0.5254,-1.3418 0,-0.19452 0.02,-0.35016 0.059,-0.4668 l 2.5039,-15.87109 c 0.078,-0.38899 0.2715,-0.71989 0.5821,-0.99219 0.3493,-0.31121 0.7568,-0.4668 1.2226,-0.4668 z m 29.4551,0 h 21.4297 c 0.5435,0 0.9509,0.15559 1.2227,0.4668 0.3105,0.31118 0.4648,0.70117 0.4648,1.16797 0,0.19452 -0.057,0.46635 -0.1738,0.81641 l -16.0137,37.40234 c -0.1552,0.35009 -0.3886,0.6416 -0.6992,0.875 -0.3106,0.19452 -0.6409,0.29102 -0.9903,0.29102 -0.4658,0 -0.8911,-0.15559 -1.2793,-0.4668 -0.3493,-0.31121 -0.5253,-0.69925 -0.5253,-1.16602 0,-0.3112 0.059,-0.60269 0.1757,-0.875 l 15.0801,-35.18554 h -18.6914 c -0.4658,0 -0.8733,-0.15559 -1.2226,-0.4668 -0.3106,-0.31118 -0.4649,-0.71891 -0.4649,-1.22461 0,-0.4668 0.1543,-0.85679 0.4649,-1.16797 0.3493,-0.31121 0.7568,-0.4668 1.2226,-0.4668 z m 85.6524,0 h 17.5273 c 0.4658,0 0.8535,0.17531 1.1641,0.52539 0.3493,0.31121 0.5253,0.72087 0.5253,1.22657 0,0.46677 -0.176,0.8745 -0.5253,1.22461 -0.3106,0.31118 -0.6983,0.46679 -1.1641,0.46679 h -16.3047 l -1.9785,12.07813 c 1.0093,-0.5057 2.1921,-0.93312 3.5508,-1.2832 1.3975,-0.35009 2.8156,-0.5254 4.2519,-0.5254 2.4845,0 4.7155,0.56332 6.6953,1.69141 2.0187,1.08916 3.591,2.64519 4.7168,4.66797 1.1646,1.98385 1.7461,4.22139 1.7461,6.71094 0,2.72292 -0.6388,5.17317 -1.9199,7.35156 -1.2422,2.13944 -2.9906,3.81171 -5.2422,5.01758 -2.2515,1.20587 -4.8129,1.80859 -7.6855,1.80859 -1.6305,0 -3.2602,-0.27182 -4.8907,-0.8164 -1.5916,-0.54458 -2.9899,-1.32261 -4.1933,-2.33399 -0.2328,-0.15572 -0.4266,-0.36845 -0.582,-0.64062 -0.1165,-0.31121 -0.1758,-0.60465 -0.1758,-0.87696 0,-0.38899 0.1562,-0.75733 0.4668,-1.10742 0.3493,-0.38899 0.7568,-0.58398 1.2226,-0.58398 0.427,0 0.8542,0.1753 1.2813,0.52539 1.0093,0.77798 2.0971,1.3807 3.2617,1.80859 1.2034,0.42792 2.4059,0.64258 3.6094,0.64258 2.2127,0 4.1727,-0.44708 5.8808,-1.3418 1.7469,-0.89466 3.0859,-2.1592 4.0176,-3.79297 0.9705,-1.63376 1.457,-3.48128 1.457,-5.54297 0,-2.95634 -0.9513,-5.32978 -2.8535,-7.11914 -1.9021,-1.82825 -4.4456,-2.74218 -7.6289,-2.74218 -1.2034,0 -2.3288,0.1753 -3.3769,0.52539 -1.0094,0.35011 -2.1545,0.8169 -3.4356,1.40039 -0.9317,0.46679 -1.5329,0.69922 -1.8047,0.69922 -0.5822,0 -1.0688,-0.17528 -1.457,-0.52539 -0.3494,-0.38899 -0.5234,-0.8361 -0.5234,-1.3418 0,-0.19452 0.02,-0.35016 0.059,-0.4668 l 2.5039,-15.87109 c 0.078,-0.38899 0.2714,-0.71989 0.582,-0.99219 0.3494,-0.31121 0.7568,-0.4668 1.2227,-0.4668 z m 40.6933,0 c 2.0963,0 4.0168,0.48649 5.7637,1.45899 1.7857,0.97247 3.184,2.31577 4.1933,4.02734 1.0094,1.67267 1.5137,3.53991 1.5137,5.60156 0,2.02278 -0.5439,3.81124 -1.6308,5.36719 -1.0482,1.55596 -2.3476,2.76138 -3.9004,3.61719 1.941,0.93354 3.5133,2.27687 4.7168,4.02734 1.2422,1.71158 1.8632,3.65562 1.8632,5.83399 0,2.06165 -0.5636,3.96827 -1.6894,5.71875 -1.087,1.75045 -2.6,3.13117 -4.541,4.14258 -1.9022,1.01137 -3.9987,1.51757 -6.2891,1.51757 -2.2904,0 -4.3869,-0.5062 -6.289,-1.51757 -1.9022,-1.01141 -3.4172,-2.39213 -4.543,-4.14258 -1.087,-1.75048 -1.6289,-3.6571 -1.6289,-5.71875 0,-2.25615 0.6013,-4.21991 1.8047,-5.89258 1.2034,-1.67267 2.7362,-2.97656 4.5996,-3.91016 -1.5528,-0.81688 -2.8523,-2.0223 -3.9004,-3.61718 -1.0482,-1.63377 -1.5723,-3.44194 -1.5723,-5.42579 0,-2.06165 0.5044,-3.92889 1.5137,-5.60156 1.0481,-1.71157 2.4445,-3.05487 4.1914,-4.02734 1.7857,-0.9725 3.7279,-1.45899 5.8242,-1.45899 z m 76.1192,0 h 17.5273 c 0.4658,0 0.8535,0.17531 1.1641,0.52539 0.3493,0.31121 0.5234,0.72087 0.5234,1.22657 0,0.46677 -0.1741,0.8745 -0.5234,1.22461 -0.3106,0.31118 -0.6983,0.46679 -1.1641,0.46679 h -16.3047 l -1.9805,12.07813 c 1.0094,-0.5057 2.1941,-0.93312 3.5528,-1.2832 1.3975,-0.35009 2.8136,-0.5254 4.25,-0.5254 2.4844,0 4.7174,0.56332 6.6972,1.69141 2.0187,1.08916 3.5911,2.64519 4.7168,4.66797 1.1646,1.98385 1.7461,4.22139 1.7461,6.71094 0,2.72292 -0.6408,5.17317 -1.9218,7.35156 -1.2423,2.13944 -2.9887,3.81171 -5.2403,5.01758 -2.2515,1.20587 -4.8128,1.80859 -7.6855,1.80859 -1.6305,0 -3.2622,-0.27182 -4.8926,-0.8164 -1.5916,-0.54458 -2.988,-1.32261 -4.1914,-2.33399 -0.2328,-0.15572 -0.4267,-0.36845 -0.582,-0.64062 -0.1167,-0.31121 -0.1758,-0.60465 -0.1758,-0.87696 0,-0.38899 0.1562,-0.75733 0.4668,-1.10742 0.3494,-0.38899 0.7568,-0.58398 1.2226,-0.58398 0.427,0 0.8543,0.1753 1.2813,0.52539 1.0093,0.77798 2.0951,1.3807 3.2597,1.80859 1.2035,0.42792 2.408,0.64258 3.6114,0.64258 2.2127,0 4.1728,-0.44708 5.8808,-1.3418 1.7469,-0.89466 3.086,-2.1592 4.0176,-3.79297 0.9705,-1.63376 1.4551,-3.48128 1.4551,-5.54297 0,-2.95634 -0.9514,-5.32978 -2.8535,-7.11914 -1.9022,-1.82825 -4.4438,-2.74218 -7.627,-2.74218 -1.2034,0 -2.3288,0.1753 -3.3769,0.52539 -1.0093,0.35011 -2.1545,0.8169 -3.4356,1.40039 -0.9317,0.46679 -1.5349,0.69922 -1.8066,0.69922 -0.5823,0 -1.0669,-0.17528 -1.4551,-0.52539 -0.3494,-0.38899 -0.5234,-0.8361 -0.5234,-1.3418 0,-0.19452 0.02,-0.35016 0.059,-0.4668 l 2.5039,-15.87109 c 0.078,-0.38899 0.2714,-0.71989 0.582,-0.99219 0.3494,-0.31121 0.7568,-0.4668 1.2227,-0.4668 z m 40.3437,2.74415 c -1.7857,-1e-5 -3.3779,0.40772 -4.7754,1.2246 -1.3975,0.81691 -2.5031,1.96326 -3.3183,3.44141 -0.7764,1.47817 -1.1661,3.15234 -1.1661,5.01953 0,1.75045 0.3501,3.38329 1.0489,4.90039 0.6987,1.47815 1.7272,2.68362 3.0859,3.61719 1.3587,0.89471 2.9885,1.34375 4.8906,1.34375 2.0187,0 3.7849,-0.44904 5.2989,-1.34375 1.5139,-0.89466 2.6591,-2.10014 3.4355,-3.61719 0.8152,-1.556 1.2227,-3.24791 1.2227,-5.07617 0,-1.71155 -0.3877,-3.28729 -1.1641,-4.72656 -0.7764,-1.4393 -1.9018,-2.58565 -3.377,-3.44141 -1.4751,-0.89471 -3.2018,-1.3418 -5.1816,-1.34179 z m 116.1016,0.23242 c -3.2997,0 -5.863,1.57572 -7.6875,4.72656 -1.7857,3.11194 -2.6778,7.35261 -2.6778,12.7207 0,5.32919 0.8921,9.56789 2.6778,12.71875 1.8245,3.11194 4.3878,4.66797 7.6875,4.66797 3.3385,0 5.8998,-1.55603 7.6855,-4.66797 1.8245,-3.15086 2.7363,-7.38956 2.7363,-12.71875 0,-5.36809 -0.9118,-9.60876 -2.7363,-12.7207 -1.7857,-3.15084 -4.347,-4.72656 -7.6855,-4.72656 z m -232.5645,0.34961 c -2.368,0 -4.2905,0.72088 -5.7656,2.16015 -1.4752,1.43927 -2.2129,3.30651 -2.2129,5.60156 0,1.51706 0.3699,2.87809 1.1074,4.08399 0.7376,1.16699 1.7068,2.08092 2.9102,2.74219 1.2422,0.66129 2.5634,0.99218 3.9609,0.99218 1.3975,0 2.697,-0.33089 3.9004,-0.99218 1.2422,-0.66127 2.2134,-1.5752 2.9121,-2.74219 0.7376,-1.2059 1.1055,-2.56693 1.1055,-4.08399 0,-2.29505 -0.7378,-4.16229 -2.2129,-5.60156 -1.4752,-1.43927 -3.3759,-2.16015 -5.7051,-2.16015 z m -351.46288,14.6289 c -0.5798,0 -1.14178,0.0418 -1.68554,0.12305 l -10.09961,11.33789 3.32031,6.20898 c 0.24012,0.0862 0.48058,0.22112 0.7207,0.41797 1.00931,0.77801 2.09519,1.38073 3.25977,1.8086 1.20342,0.42789 2.4079,0.64257 3.61133,0.64258 2.21271,0 4.17279,-0.44909 5.88085,-1.34376 1.7469,-0.89468 3.0859,-2.15725 4.01758,-3.79101 0.97051,-1.63379 1.45508,-3.48329 1.45508,-5.54492 0,-2.95635 -0.95133,-5.32784 -2.85351,-7.11719 -1.90219,-1.82828 -4.44374,-2.74219 -7.62696,-2.74219 z m 119.66598,0.42578 c -2.0186,0 -3.7848,0.46683 -5.2988,1.40039 -1.514,0.89469 -2.6789,2.11983 -3.4941,3.67579 -0.8153,1.5171 -1.2227,3.20903 -1.2227,5.07617 0,1.71157 0.3877,3.28729 1.1641,4.72656 0.7764,1.43927 1.9018,2.60531 3.3769,3.5 1.4752,0.85576 3.2038,1.28516 5.1836,1.28516 2.7174,0 4.9484,-0.89622 6.6953,-2.68555 1.7469,-1.82828 2.6211,-4.16232 2.6211,-7.00195 0,-1.75045 -0.3698,-3.38329 -1.1074,-4.90039 -0.6988,-1.51706 -1.7272,-2.74219 -3.0859,-3.67579 -1.3587,-0.93356 -2.9687,-1.40039 -4.8321,-1.40039 z m 432.5606,0 c -2.0187,0 -3.7849,0.46683 -5.2988,1.40039 -1.514,0.89469 -2.679,2.11983 -3.4942,3.67579 -0.8152,1.5171 -1.2226,3.20903 -1.2226,5.07617 0,1.71157 0.3876,3.28729 1.164,4.72656 0.7764,1.43927 1.9038,2.60531 3.3789,3.5 1.4752,0.85576 3.2019,1.28516 5.1817,1.28516 2.7173,0 4.9503,-0.89622 6.6972,-2.68555 1.7469,-1.82828 2.6192,-4.16232 2.6192,-7.00195 0,-1.75045 -0.3679,-3.38329 -1.1055,-4.90039 -0.6987,-1.51706 -1.7272,-2.74219 -3.0859,-3.67579 -1.3587,-0.93356 -2.9707,-1.40039 -4.834,-1.40039 z m -200.7637,3.38477 c -1.5916,0 -3.0671,0.36835 -4.4258,1.10742 -1.3587,0.7002 -2.4465,1.6732 -3.2617,2.91797 -0.8152,1.24477 -1.2226,2.6255 -1.2226,4.14258 0,2.33396 0.8148,4.26029 2.4453,5.77734 1.6692,1.47818 3.8251,2.2168 6.4648,2.2168 2.6398,0 4.7937,-0.73862 6.4629,-2.2168 1.6693,-1.51705 2.5039,-3.44338 2.5039,-5.77734 0,-1.51708 -0.4074,-2.89781 -1.2226,-4.14258 -0.8153,-1.24477 -1.9228,-2.21777 -3.3204,-2.91797 -1.3586,-0.73907 -2.8322,-1.10742 -4.4238,-1.10742 z"
       id="rect5424"
       transform="matrix(0.26458333,0,0,0.26458333,0,150.34525)"
       inkscape:connector-curvature="0" />
    <g
       aria-label="1"
       transform="scale(0.99897869,1.0010224)"
       style="font-style:normal;font-variant:normal;font-weight:normal;font-stretch:normal;font-size:15.42236519px;line-height:1.25;font-family:Quicksand;-inkscape-font-specification:Quicksand;text-align:center;letter-spacing:0px;word-spacing:0px;text-anchor:middle;fill:#000000;fill-opacity:1;stroke:none;stroke-width:0.26458332"
       id="text6795" />
    <g
       aria-label="2"
       transform="scale(0.99897869,1.0010224)"
       style="font-style:normal;font-variant:normal;font-weight:normal;font-stretch:normal;font-size:15.42236519px;line-height:1.25;font-family:Quicksand;-inkscape-font-specification:Quicksand;text-align:center;letter-spacing:0px;word-spacing:0px;text-anchor:middle;fill:#000000;fill-opacity:1;stroke:none;stroke-width:0.26458332"
       id="text6827" />
    <g
       aria-label="3"
       transform="scale(0.99897869,1.0010224)"
       style="font-style:normal;font-variant:normal;font-weight:normal;font-stretch:normal;font-size:15.42236519px;line-height:1.25;font-family:Quicksand;-inkscape-font-specification:Quicksand;text-align:center;letter-spacing:0px;word-spacing:0px;text-anchor:middle;fill:#000000;fill-opacity:1;stroke:none;stroke-width:0.26458332"
       id="text6859" />
    <g
       aria-label="4"
       transform="scale(0.99897869,1.0010224)"
       style="font-style:normal;font-variant:normal;font-weight:normal;font-stretch:normal;font-size:15.42236519px;line-height:1.25;font-family:Quicksand;-inkscape-font-specification:Quicksand;text-align:center;letter-spacing:0px;word-spacing:0px;text-anchor:middle;fill:#000000;fill-opacity:1;stroke:none;stroke-width:0.26458332"
       id="text6891" />
    <path
       style="fill:#d3d3d3;fill-opacity:1;stroke:none;stroke-width:1.76388884;stroke-linecap:round;stroke-linejoin:round;stroke-miterlimit:4;stroke-dasharray:none;stroke-dashoffset:0;stroke-opacity:1;paint-order:markers stroke fill"
       d="M -0.34623211,240.28905 H 7.3398649 v 41.51019 h -7.68609701 z"
       id="rect5426"
       inkscape:connector-curvature="0" />
    <g
       aria-label="155"
       transform="scale(0.99897869,1.0010224)"
       style="font-style:normal;font-variant:normal;font-weight:normal;font-stretch:normal;font-size:15.42236519px;line-height:1.25;font-family:Quicksand;-inkscape-font-specification:Quicksand;text-align:center;letter-spacing:0px;word-spacing:0px;text-anchor:middle;fill:#000000;fill-opacity:1;stroke:none;stroke-width:0.26458332"
       id="text5640-2" />
    <g
       aria-label="156"
       transform="scale(0.99897869,1.0010224)"
       style="font-style:normal;font-variant:normal;font-weight:normal;font-stretch:normal;font-size:15.42236519px;line-height:1.25;font-family:Quicksand;-inkscape-font-specification:Quicksand;text-align:center;letter-spacing:0px;word-spacing:0px;text-anchor:middle;fill:#000000;fill-opacity:1;stroke:none;stroke-width:0.26458332"
       id="text6743" />
    <g
       aria-label="157"
       transform="scale(0.99897869,1.0010224)"
       style="font-style:normal;font-variant:normal;font-weight:normal;font-stretch:normal;font-size:15.42236519px;line-height:1.25;font-family:Quicksand;-inkscape-font-specification:Quicksand;text-align:center;letter-spacing:0px;word-spacing:0px;text-anchor:middle;fill:#000000;fill-opacity:1;stroke:none;stroke-width:0.26458332"
       id="text6711" />
    <g
       aria-label="158"
       transform="scale(0.99897869,1.0010224)"
       style="font-style:normal;font-variant:normal;font-weight:normal;font-stretch:normal;font-size:15.42236519px;line-height:1.25;font-family:Quicksand;-inkscape-font-specification:Quicksand;text-align:center;letter-spacing:0px;word-spacing:0px;text-anchor:middle;fill:#000000;fill-opacity:1;stroke:none;stroke-width:0.26458332"
       id="text6679" />
    <g
       aria-label="159"
       transform="scale(0.99897869,1.0010224)"
       style="font-style:normal;font-variant:normal;font-weight:normal;font-stretch:normal;font-size:15.42236519px;line-height:1.25;font-family:Quicksand;-inkscape-font-specification:Quicksand;text-align:center;letter-spacing:0px;word-spacing:0px;text-anchor:middle;fill:#000000;fill-opacity:1;stroke:none;stroke-width:0.26458332"
       id="text6647" />
    <g
       aria-label="160"
       transform="scale(0.99897869,1.0010224)"
       style="font-style:normal;font-variant:normal;font-weight:normal;font-stretch:normal;font-size:15.42236519px;line-height:1.25;font-family:Quicksand;-inkscape-font-specification:Quicksand;text-align:center;letter-spacing:0px;word-spacing:0px;text-anchor:middle;fill:#000000;fill-opacity:1;stroke:none;stroke-width:0.26458332"
       id="text6647-7" />
    <g
       aria-label="161"
       transform="scale(0.99897869,1.0010224)"
       style="font-style:normal;font-variant:normal;font-weight:normal;font-stretch:normal;font-size:15.42236519px;line-height:1.25;font-family:Quicksand;-inkscape-font-specification:Quicksand;text-align:center;letter-spacing:0px;word-spacing:0px;text-anchor:middle;fill:#000000;fill-opacity:1;stroke:none;stroke-width:0.26458332"
       id="text6647-7-0" />
    <text
       id="text2522"
       y="288.66901"
       x="406.85049"
       style="font-style:normal;font-variant:normal;font-weight:normal;font-stretch:normal;font-size:6.61107063px;line-height:1.25;font-family:Quicksand;-inkscape-font-specification:Quicksand;text-align:end;letter-spacing:0px;word-spacing:0px;text-anchor:end;fill:#000000;fill-opacity:1;stroke:none;stroke-width:0.26458329"
       xml:space="preserve"><tspan
         style="font-size:6.61107063px;text-align:end;text-anchor:end;fill:#d3d3d3;fill-opacity:1;stroke-width:0.26458329"
         y="288.66901"
         x="406.85049"
         id="tspan2520"
         sodipodi:role="line">Meer op https://hoezithet.nu</tspan></text>
  </g>
</svg>
