<?xml version="1.0" encoding="UTF-8" standalone="no"?>
<!-- Created with Inkscape (http://www.inkscape.org/) -->

<svg
   xmlns:dc="http://purl.org/dc/elements/1.1/"
   xmlns:cc="http://creativecommons.org/ns#"
   xmlns:rdf="http://www.w3.org/1999/02/22-rdf-syntax-ns#"
   xmlns:svg="http://www.w3.org/2000/svg"
   xmlns="http://www.w3.org/2000/svg"
   xmlns:sodipodi="http://sodipodi.sourceforge.net/DTD/sodipodi-0.dtd"
   xmlns:inkscape="http://www.inkscape.org/namespaces/inkscape"
   inkscape:export-ydpi="299.95728"
   inkscape:export-xdpi="299.95728"
   inkscape:export-filename="/home/fdf/hugo/hoezithet/content/lessen/wiskunde/vector_1/vectoriele_grootheden/img/scal_examples.png"
   sodipodi:docname="scal_examples.svg"
   inkscape:version="0.92.4 (unknown)"
   id="svg4623"
   version="1.1"
   viewBox="0 0 153.91769 55.46456"
   height="209.62985"
   width="581.73621">
  <defs
     id="defs4617" />
  <sodipodi:namedview
     id="base"
     pagecolor="#f4f4f4"
     bordercolor="#666666"
     borderopacity="1.0"
     inkscape:pageopacity="1"
     inkscape:pageshadow="2"
     inkscape:zoom="1.28"
     inkscape:cx="225.23225"
     inkscape:cy="79.3485"
     inkscape:document-units="px"
     inkscape:current-layer="svg4623"
     showgrid="false"
     units="px"
     inkscape:object-paths="true"
     inkscape:snap-smooth-nodes="true"
     inkscape:window-width="1920"
     inkscape:window-height="1055"
     inkscape:window-x="1600"
     inkscape:window-y="25"
     inkscape:window-maximized="1"
     showguides="true"
     inkscape:guide-bbox="true"
     inkscape:pagecheckerboard="false"
     inkscape:snap-global="false"
     inkscape:showpageshadow="true"
     showborder="true"
     borderlayer="false"
     inkscape:snap-page="true"
     inkscape:snap-bbox="true"
     inkscape:snap-bbox-edge-midpoints="true"
     inkscape:snap-bbox-midpoints="true"
     inkscape:snap-object-midpoints="true"
     inkscape:snap-center="true">
    <sodipodi:guide
       inkscape:color="rgb(0,0,255)"
       inkscape:label=""
       inkscape:locked="false"
       id="guide820"
       orientation="1,0"
       position="7.0556431,0" />
    <sodipodi:guide
       inkscape:color="rgb(0,0,255)"
       inkscape:label=""
       inkscape:locked="false"
       id="guide822"
       orientation="0,1"
       position="0,50.172933" />
    <sodipodi:guide
       inkscape:color="rgb(0,0,255)"
       inkscape:label=""
       inkscape:locked="false"
       id="guide922"
       orientation="0,1"
       position="0,7.0556431" />
  </sodipodi:namedview>
  <metadata
     id="metadata4620">
    <rdf:RDF>
      <cc:Work
         rdf:about="">
        <dc:format>image/svg+xml</dc:format>
        <dc:type
           rdf:resource="http://purl.org/dc/dcmitype/StillImage" />
        <dc:title />
      </cc:Work>
    </rdf:RDF>
  </metadata>
  <g
     inkscape:label="watermark"
     inkscape:groupmode="layer"
     id="layer1"
     transform="translate(5.1800203,-240.86796)"
     sodipodi:insensitive="true">
    <g
       id="g5353"
       transform="matrix(0.89623584,0,0,0.89623584,-1.2321384,28.09939)"
       style="stroke-width:1.11577785">
      <text
         xml:space="preserve"
         style="font-style:normal;font-variant:normal;font-weight:normal;font-stretch:normal;font-size:28.01556396px;line-height:1.29999995;font-family:Quicksand;-inkscape-font-specification:'Quicksand, Normal';font-variant-ligatures:normal;font-variant-position:normal;font-variant-caps:normal;font-variant-numeric:normal;font-variant-alternates:normal;font-feature-settings:normal;text-indent:0;text-align:center;text-decoration:none;text-decoration-line:none;text-decoration-style:solid;text-decoration-color:#000000;letter-spacing:0px;word-spacing:0px;text-transform:none;writing-mode:lr-tb;direction:ltr;text-orientation:mixed;dominant-baseline:auto;baseline-shift:baseline;text-anchor:middle;white-space:normal;shape-padding:0;opacity:1;vector-effect:none;fill:#555555;fill-opacity:1;stroke:none;stroke-width:3.17272329px;stroke-linecap:butt;stroke-linejoin:miter;stroke-miterlimit:4;stroke-dasharray:none;stroke-dashoffset:0;stroke-opacity:1"
         x="44.292774"
         y="218.67326"
         id="text2653"><tspan
           sodipodi:role="line"
           id="tspan2651"
           x="44.292774"
           y="245.28806"
           style="stroke-width:3.17272329px" /></text>
      <text
         xml:space="preserve"
         style="font-style:normal;font-variant:normal;font-weight:normal;font-stretch:normal;font-size:4.72345829px;line-height:1.25;font-family:Quicksand;-inkscape-font-specification:Quicksand;text-align:end;letter-spacing:0px;word-spacing:0px;text-anchor:end;fill:#d3d3d3;fill-opacity:1;stroke:none;stroke-width:0.29521614"
         x="167.17076"
         y="298.24545"
         id="text7806"><tspan
           sodipodi:role="line"
           id="tspan7804"
           x="167.17076"
           y="298.24545"
           style="font-size:4.72345829px;text-align:end;text-anchor:end;fill:#d3d3d3;stroke-width:0.29521614">Meer op: https://hoezithet.nu</tspan></text>
    </g>
  </g>
  <g
     inkscape:groupmode="layer"
     id="layer2"
     inkscape:label="Layer 1"
     transform="translate(5.1800203,-240.86796)" />
  <text
     xml:space="preserve"
     style="font-style:normal;font-variant:normal;font-weight:normal;font-stretch:normal;font-size:6.34999943px;line-height:1.29999995;font-family:Quicksand;-inkscape-font-specification:'Quicksand, Normal';font-variant-ligatures:normal;font-variant-position:normal;font-variant-caps:normal;font-variant-numeric:normal;font-variant-alternates:normal;font-feature-settings:normal;text-indent:0;text-align:center;text-decoration:none;text-decoration-line:none;text-decoration-style:solid;text-decoration-color:#000000;letter-spacing:0px;word-spacing:0px;text-transform:none;writing-mode:lr-tb;direction:ltr;text-orientation:mixed;dominant-baseline:auto;baseline-shift:baseline;text-anchor:middle;white-space:normal;shape-padding:0;opacity:1;vector-effect:none;fill:#555555;fill-opacity:1;stroke:none;stroke-width:0.71912855px;stroke-linecap:butt;stroke-linejoin:miter;stroke-miterlimit:4;stroke-dasharray:none;stroke-dashoffset:0;stroke-opacity:1"
     x="77.114815"
     y="7.0061269"
     id="text2933"><tspan
       sodipodi:role="line"
       id="tspan2931"
       x="77.114815"
       y="7.0061269"
       style="stroke-width:0.71912855px">Scalaire grootheden</tspan></text>
  <text
     xml:space="preserve"
     style="font-style:normal;font-variant:normal;font-weight:normal;font-stretch:normal;font-size:4.93888855px;line-height:1.29999995;font-family:Quicksand;-inkscape-font-specification:'Quicksand, Normal';font-variant-ligatures:normal;font-variant-position:normal;font-variant-caps:normal;font-variant-numeric:normal;font-variant-alternates:normal;font-feature-settings:normal;text-indent:0;text-align:center;text-decoration:none;text-decoration-line:none;text-decoration-style:solid;text-decoration-color:#000000;letter-spacing:0px;word-spacing:0px;text-transform:none;writing-mode:lr-tb;direction:ltr;text-orientation:mixed;dominant-baseline:auto;baseline-shift:baseline;text-anchor:middle;white-space:normal;shape-padding:0;opacity:1;vector-effect:none;fill:#555555;fill-opacity:1;stroke:none;stroke-width:0.71912855px;stroke-linecap:butt;stroke-linejoin:miter;stroke-miterlimit:4;stroke-dasharray:none;stroke-dashoffset:0;stroke-opacity:1"
     x="130.16515"
     y="49.829197"
     id="text4669"><tspan
       sodipodi:role="line"
       id="tspan4667"
       x="130.16515"
       y="49.829197"
       style="font-style:normal;font-variant:normal;font-weight:normal;font-stretch:normal;font-size:4.93888855px;font-family:Quicksand;-inkscape-font-specification:'Quicksand, Normal';font-variant-ligatures:normal;font-variant-caps:normal;font-variant-numeric:normal;font-feature-settings:normal;text-align:center;writing-mode:lr-tb;text-anchor:middle;stroke-width:0.71912855px">Energie</tspan></text>
  <text
     xml:space="preserve"
     style="font-style:normal;font-variant:normal;font-weight:normal;font-stretch:normal;font-size:4.93888855px;line-height:1.29999995;font-family:Quicksand;-inkscape-font-specification:'Quicksand, Normal';font-variant-ligatures:normal;font-variant-position:normal;font-variant-caps:normal;font-variant-numeric:normal;font-variant-alternates:normal;font-feature-settings:normal;text-indent:0;text-align:center;text-decoration:none;text-decoration-line:none;text-decoration-style:solid;text-decoration-color:#000000;letter-spacing:0px;word-spacing:0px;text-transform:none;writing-mode:lr-tb;direction:ltr;text-orientation:mixed;dominant-baseline:auto;baseline-shift:baseline;text-anchor:middle;white-space:normal;shape-padding:0;opacity:1;vector-effect:none;fill:#555555;fill-opacity:1;stroke:none;stroke-width:0.71912855px;stroke-linecap:butt;stroke-linejoin:miter;stroke-miterlimit:4;stroke-dasharray:none;stroke-dashoffset:0;stroke-opacity:1"
     x="21.04339"
     y="49.829197"
     id="text4669-7"><tspan
       sodipodi:role="line"
       id="tspan4667-6"
       x="21.04339"
       y="49.829197"
       style="font-style:normal;font-variant:normal;font-weight:normal;font-stretch:normal;font-size:4.93888855px;font-family:Quicksand;-inkscape-font-specification:'Quicksand, Normal';font-variant-ligatures:normal;font-variant-caps:normal;font-variant-numeric:normal;font-feature-settings:normal;text-align:center;writing-mode:lr-tb;text-anchor:middle;stroke-width:0.71912855px">Massa</tspan></text>
  <text
     xml:space="preserve"
     style="font-style:normal;font-variant:normal;font-weight:normal;font-stretch:normal;font-size:4.93888855px;line-height:1.29999995;font-family:Quicksand;-inkscape-font-specification:'Quicksand, Normal';font-variant-ligatures:normal;font-variant-position:normal;font-variant-caps:normal;font-variant-numeric:normal;font-variant-alternates:normal;font-feature-settings:normal;text-indent:0;text-align:center;text-decoration:none;text-decoration-line:none;text-decoration-style:solid;text-decoration-color:#000000;letter-spacing:0px;word-spacing:0px;text-transform:none;writing-mode:lr-tb;direction:ltr;text-orientation:mixed;dominant-baseline:auto;baseline-shift:baseline;text-anchor:middle;white-space:normal;shape-padding:0;opacity:1;vector-effect:none;fill:#555555;fill-opacity:1;stroke:none;stroke-width:0.71912855px;stroke-linecap:butt;stroke-linejoin:miter;stroke-miterlimit:4;stroke-dasharray:none;stroke-dashoffset:0;stroke-opacity:1"
     x="78.121567"
     y="49.829197"
     id="text4669-7-7"><tspan
       sodipodi:role="line"
       id="tspan4667-6-6"
       x="78.121567"
       y="49.829197"
       style="font-style:normal;font-variant:normal;font-weight:normal;font-stretch:normal;font-size:4.93888855px;font-family:Quicksand;-inkscape-font-specification:'Quicksand, Normal';font-variant-ligatures:normal;font-variant-caps:normal;font-variant-numeric:normal;font-feature-settings:normal;text-align:center;writing-mode:lr-tb;text-anchor:middle;stroke-width:0.71912855px">Temperatuur</tspan></text>
  <g
     id="g8920"
     transform="translate(0,4.2333328)">
    <path
       id="path4395"
       d="m 21.083983,17.121951 c -1.890583,0 -3.423564,1.532979 -3.423564,3.423563 0,1.461117 0.916189,2.7079 2.205033,3.199288 h 2.437061 c 1.288844,-0.491388 2.205033,-1.73795 2.205033,-3.199288 -2.21e-4,-1.890584 -1.532757,-3.423563 -3.423563,-3.423563 z m 0,1.205094 c 1.225375,0 2.218985,0.993095 2.218985,2.218469 0,0.77512 -0.398051,1.457118 -1.000455,1.853634 h -2.437061 c -0.602404,-0.396516 -0.999939,-1.078514 -0.999939,-1.853634 0,-1.225374 0.993316,-2.218469 2.21847,-2.218469 z"
       style="fill:#555555;stroke-width:0.22114679"
       inkscape:connector-curvature="0" />
    <path
       id="path4404"
       d="m 19.865452,21.625551 v 2.119251 0.426847 0.926558 H 13.889074 L 10.026777,39.236879 H 32.141189 L 28.278892,25.098207 h -5.976379 v -0.926558 -0.426847 -2.119251 z"
       style="fill:#000000;stroke-width:0.22114679"
       inkscape:connector-curvature="0" />
    <text
       id="text4416"
       y="34.708889"
       x="21.316202"
       style="font-style:normal;font-variant:normal;font-weight:normal;font-stretch:normal;font-size:6.34999943px;line-height:1.29999995;font-family:Quicksand;-inkscape-font-specification:'Quicksand, Normal';font-variant-ligatures:normal;font-variant-position:normal;font-variant-caps:normal;font-variant-numeric:normal;font-variant-alternates:normal;font-feature-settings:normal;text-indent:0;text-align:center;text-decoration:none;text-decoration-line:none;text-decoration-style:solid;text-decoration-color:#000000;letter-spacing:0px;word-spacing:0px;text-transform:none;writing-mode:lr-tb;direction:ltr;text-orientation:mixed;dominant-baseline:auto;baseline-shift:baseline;text-anchor:middle;white-space:normal;shape-padding:0;opacity:1;vector-effect:none;fill:#f4f4f4;fill-opacity:1;stroke:none;stroke-width:0.71912855px;stroke-linecap:butt;stroke-linejoin:miter;stroke-miterlimit:4;stroke-dasharray:none;stroke-dashoffset:0;stroke-opacity:1"
       xml:space="preserve"><tspan
         style="fill:#f4f4f4;stroke-width:0.71912855px"
         y="34.708889"
         x="21.316202"
         id="tspan4414"
         sodipodi:role="line">10 kg</tspan></text>
  </g>
  <g
     id="g8914"
     transform="translate(0,0.22965806)">
    <path
       style="color:#000000;font-style:normal;font-variant:normal;font-weight:normal;font-stretch:normal;font-size:medium;line-height:normal;font-family:sans-serif;font-variant-ligatures:normal;font-variant-position:normal;font-variant-caps:normal;font-variant-numeric:normal;font-variant-alternates:normal;font-feature-settings:normal;text-indent:0;text-align:start;text-decoration:none;text-decoration-line:none;text-decoration-style:solid;text-decoration-color:#000000;letter-spacing:normal;word-spacing:normal;text-transform:none;writing-mode:lr-tb;direction:ltr;text-orientation:mixed;dominant-baseline:auto;baseline-shift:baseline;text-anchor:start;white-space:normal;shape-padding:0;clip-rule:nonzero;display:inline;overflow:visible;visibility:visible;opacity:1;isolation:auto;mix-blend-mode:normal;color-interpolation:sRGB;color-interpolation-filters:linearRGB;solid-color:#000000;solid-opacity:1;vector-effect:none;fill:#f4f4f4;fill-opacity:1;fill-rule:nonzero;stroke:#555555;stroke-width:0.7055555;stroke-linecap:round;stroke-linejoin:miter;stroke-miterlimit:4;stroke-dasharray:none;stroke-dashoffset:0;stroke-opacity:1;color-rendering:auto;image-rendering:auto;shape-rendering:auto;text-rendering:auto;enable-background:accumulate"
       d="m 78.169898,11.289232 c -0.973222,0.01521 -1.750226,0.815797 -1.736328,1.789038 v 23.588222 c -0.992142,0.611518 -1.596771,1.69328 -1.597834,2.858741 0.0021,1.790218 1.40663,3.26481 3.194637,3.3538 0.02461,0.0019 0.04924,0.0029 0.0739,0.0036 0.03098,0.0019 0.06199,0.0035 0.09302,0.0047 0.0026,-1.69e-4 0.0052,-2.64e-4 0.0078,-5.29e-4 0.01035,-2.54e-4 0.02066,-5.29e-4 0.03101,-0.0011 1.840933,-0.02133 3.322245,-1.519463 3.322795,-3.360518 -0.0016,-1.16491 -0.606163,-2.24596 -1.597837,-2.85719 V 13.07827 c 0.01421,-0.994693 -0.796427,-1.804387 -1.791104,-1.789038 z"
       id="path4440"
       inkscape:connector-curvature="0"
       sodipodi:nodetypes="ccccccccccccc" />
    <circle
       style="opacity:1;vector-effect:none;fill:#e7040f;fill-opacity:1;stroke:none;stroke-width:0.96570116;stroke-linecap:square;stroke-linejoin:round;stroke-miterlimit:4;stroke-dasharray:none;stroke-dashoffset:0;stroke-opacity:1;paint-order:markers fill stroke"
       id="path4447"
       cx="78.169899"
       cy="39.525234"
       r="1.9804417" />
    <path
       style="opacity:1;vector-effect:none;fill:none;fill-opacity:1;stroke:#e7040f;stroke-width:1.05833328;stroke-linecap:round;stroke-linejoin:miter;stroke-miterlimit:4;stroke-dasharray:none;stroke-dashoffset:0;stroke-opacity:1"
       d="M 78.169901,39.525233 V 21.560705"
       id="path4453"
       inkscape:connector-curvature="0"
       sodipodi:nodetypes="cc" />
    <g
       transform="translate(74.994848,10.907643)"
       inkscape:label="Grid_Polar:X1:Y1"
       id="g8051">
      <g
         inkscape:label="MajorXGridlines"
         id="g8025" />
      <g
         inkscape:label="MajorYGridlines"
         id="g8027" />
      <path
         id="path8102"
         d="M 3.6993458,23.8125 H 5.1366374"
         style="fill:none;stroke:#555555;stroke-width:0.35277775;stroke-linecap:round;stroke-miterlimit:4;stroke-dasharray:none;stroke-opacity:1"
         inkscape:connector-curvature="0" />
      <path
         id="path8100"
         d="M 3.6993458,21.166667 H 5.1366374"
         style="fill:none;stroke:#555555;stroke-width:0.35277775;stroke-linecap:round;stroke-miterlimit:4;stroke-dasharray:none;stroke-opacity:1"
         inkscape:connector-curvature="0" />
      <path
         id="path8098"
         d="M 3.6993458,18.520833 H 5.1366374"
         style="fill:none;stroke:#555555;stroke-width:0.35277775;stroke-linecap:round;stroke-miterlimit:4;stroke-dasharray:none;stroke-opacity:1"
         inkscape:connector-curvature="0" />
      <path
         id="path8096"
         d="M 3.6993458,15.875 H 5.1366374"
         style="fill:none;stroke:#555555;stroke-width:0.35277775;stroke-linecap:round;stroke-miterlimit:4;stroke-dasharray:none;stroke-opacity:1"
         inkscape:connector-curvature="0" />
      <path
         id="path8094"
         d="M 3.6993458,13.229167 H 5.1366374"
         style="fill:none;stroke:#555555;stroke-width:0.35277775;stroke-linecap:round;stroke-miterlimit:4;stroke-dasharray:none;stroke-opacity:1"
         inkscape:connector-curvature="0" />
      <path
         id="path8092"
         d="M 3.6993458,10.583333 H 5.1366374"
         style="fill:none;stroke:#555555;stroke-width:0.35277775;stroke-linecap:round;stroke-miterlimit:4;stroke-dasharray:none;stroke-opacity:1"
         inkscape:connector-curvature="0" />
      <path
         id="path8090"
         d="M 3.6993458,7.9375 H 5.1366374"
         style="fill:none;stroke:#555555;stroke-width:0.35277775;stroke-linecap:round;stroke-miterlimit:4;stroke-dasharray:none;stroke-opacity:1"
         inkscape:connector-curvature="0" />
      <path
         id="path8088"
         d="M 3.6993458,5.2916667 H 5.1366374"
         style="fill:none;stroke:#555555;stroke-width:0.35277775;stroke-linecap:round;stroke-miterlimit:4;stroke-dasharray:none;stroke-opacity:1"
         inkscape:connector-curvature="0" />
      <path
         id="path8045"
         d="M 3.6993458,2.6458333 H 5.1366374"
         style="fill:none;stroke:#555555;stroke-width:0.35277775;stroke-linecap:round;stroke-miterlimit:4;stroke-dasharray:none;stroke-opacity:1"
         inkscape:connector-curvature="0" />
      <rect
         height="26.458334"
         style="fill:none;stroke:#000000;stroke-width:0"
         width="5.2916665"
         x="0"
         y="0"
         inkscape:label="Border"
         id="rect8049" />
    </g>
    <text
       id="text8084"
       y="22.972643"
       x="81.406731"
       style="font-style:normal;font-variant:normal;font-weight:normal;font-stretch:normal;font-size:4.23333311px;line-height:1.29999995;font-family:Quicksand;-inkscape-font-specification:'Quicksand, Normal';font-variant-ligatures:normal;font-variant-position:normal;font-variant-caps:normal;font-variant-numeric:normal;font-variant-alternates:normal;font-feature-settings:normal;text-indent:0;text-align:start;text-decoration:none;text-decoration-line:none;text-decoration-style:solid;text-decoration-color:#000000;letter-spacing:0px;word-spacing:0px;text-transform:none;writing-mode:lr-tb;direction:ltr;text-orientation:mixed;dominant-baseline:auto;baseline-shift:baseline;text-anchor:start;white-space:normal;shape-padding:0;opacity:1;vector-effect:none;fill:#555555;fill-opacity:1;stroke:none;stroke-width:0.71912855px;stroke-linecap:butt;stroke-linejoin:miter;stroke-miterlimit:4;stroke-dasharray:none;stroke-dashoffset:0;stroke-opacity:1"
       xml:space="preserve"><tspan
         style="font-size:4.23333311px;text-align:start;text-anchor:start;stroke-width:0.71912855px"
         y="22.972643"
         x="81.406731"
         id="tspan8082"
         sodipodi:role="line">20 °C</tspan></text>
  </g>
  <g
     id="g8947"
     transform="translate(0,-1.3384492)">
    <g
       transform="translate(0,-2.1017676)"
       id="g8869">
      <path
         style="fill:#c87137;fill-opacity:1;stroke-width:0.20543467"
         d="m 121.19285,31.106487 -0.0454,0.04895 c -0.26049,0.285143 -0.29625,0.56453 -0.29625,0.823788 0,2.487406 5.12786,3.373589 9.92743,3.373589 4.79916,0 9.92743,-0.886183 9.92743,-3.373589 0,-0.208309 -0.0547,-0.409571 -0.16336,-0.598981 l -0.0419,-0.07193 z"
         id="path8736"
         inkscape:connector-curvature="0" />
      <path
         style="fill:#e7040f;stroke-width:0.20749211"
         d="m 121.68771,29.915864 c -0.86245,0.231092 -0.90099,0.620067 -0.88956,0.851211 0.0199,0.388219 0.33935,0.639231 0.53938,0.796719 h -9.8e-4 c 0.21372,0.168277 0.45015,0.199253 0.65846,0.227058 0.16392,0.02158 0.30513,0.04024 0.41779,0.119079 0.0807,0.05623 0.124,0.157937 0.17357,0.276001 0.0786,0.187571 0.19806,0.471157 0.56159,0.497507 0.24981,0.01868 0.40222,-0.15357 0.52526,-0.291136 0.10523,-0.117856 0.17387,-0.190167 0.26289,-0.192242 0.19857,0 0.29937,0.170588 0.47883,0.542412 0.17554,0.363321 0.39404,0.81581 0.90571,0.818923 0.3156,8.33e-4 0.5238,-0.3012 0.72507,-0.594389 0.13947,-0.203133 0.31315,-0.456292 0.45008,-0.465214 0.0675,-0.0044 0.16342,0.05747 0.26792,0.174077 0.0494,0.05623 0.12309,0.323957 0.17661,0.519206 0.13381,0.486983 0.28505,1.038865 0.63777,1.206934 0.0552,0.02676 0.12968,0.05046 0.22,0.05046 0.07,0 0.14935,-0.0143 0.23664,-0.05247 0.34796,-0.151468 0.38228,-0.557624 0.41527,-0.950615 0.0466,-0.552758 0.10592,-0.819012 0.45007,-0.867358 0.10191,-0.01495 0.31476,0.09945 0.46976,0.182654 0.12385,0.06661 0.24089,0.129515 0.35169,0.164995 0.45709,0.147113 0.6383,0.05964 0.89662,-0.09537 0.056,-0.0334 0.11948,-0.07158 0.19678,-0.111005 0.35813,-0.183631 0.57066,-0.05872 0.91529,0.177609 0.27286,0.18612 0.58184,0.398264 1.00158,0.314853 0.24276,-0.04856 0.39702,-0.243072 0.53333,-0.414254 0.0813,-0.101879 0.16516,-0.207344 0.24523,-0.249258 0.22284,-0.116196 0.49898,-0.09033 0.86937,0.08022 0.0911,0.0415 0.16558,0.146531 0.24371,0.257333 0.13399,0.189441 0.3003,0.425353 0.63021,0.425353 0.24837,0 0.44327,-0.121802 0.61507,-0.229076 0.20085,-0.125531 0.32168,-0.194034 0.47127,-0.135729 0.1433,0.05581 0.30149,0.23209 0.45463,0.402649 0.22887,0.254799 0.46557,0.518242 0.76644,0.48691 0.18695,-0.01971 0.34626,-0.147266 0.48591,-0.390032 0.0785,-0.136324 0.11287,-0.276848 0.14329,-0.401136 0.049,-0.199401 0.0837,-0.316669 0.21949,-0.412738 0.11819,-0.08362 0.27223,-0.109766 0.43595,-0.13674 0.17305,-0.02905 0.36889,-0.06203 0.54443,-0.170546 0.0402,-0.02469 0.0883,-0.05344 0.14078,-0.08476 0.48056,-0.286756 1.20708,-0.719533 1.18675,-1.247807 -0.01,-0.239445 -0.16783,-0.443648 -0.46723,-0.609018 z"
         id="path8727"
         inkscape:connector-curvature="0"
         sodipodi:nodetypes="cccccccccccccccccscccccccccccccsccccccccccccc" />
      <path
         style="color:#000000;font-style:normal;font-variant:normal;font-weight:normal;font-stretch:normal;font-size:medium;line-height:normal;font-family:sans-serif;font-variant-ligatures:normal;font-variant-position:normal;font-variant-caps:normal;font-variant-numeric:normal;font-variant-alternates:normal;font-feature-settings:normal;text-indent:0;text-align:start;text-decoration:none;text-decoration-line:none;text-decoration-style:solid;text-decoration-color:#000000;letter-spacing:normal;word-spacing:normal;text-transform:none;writing-mode:lr-tb;direction:ltr;text-orientation:mixed;dominant-baseline:auto;baseline-shift:baseline;text-anchor:start;white-space:normal;shape-padding:0;clip-rule:nonzero;display:inline;overflow:visible;visibility:visible;opacity:1;isolation:auto;mix-blend-mode:normal;color-interpolation:sRGB;color-interpolation-filters:linearRGB;solid-color:#000000;solid-opacity:1;vector-effect:none;fill:#501616;fill-opacity:1;fill-rule:nonzero;stroke:none;stroke-width:3.52777743;stroke-linecap:round;stroke-linejoin:miter;stroke-miterlimit:4;stroke-dasharray:none;stroke-dashoffset:0;stroke-opacity:1;color-rendering:auto;image-rendering:auto;shape-rendering:auto;text-rendering:auto;enable-background:accumulate"
         d="m 122.57617,27.914144 a 1.7640651,1.7640651 0 1 0 0,3.527343 h 16.35547 a 1.7640651,1.7640651 0 1 0 0,-3.527343 z"
         id="path8375"
         inkscape:connector-curvature="0" />
      <path
         id="path8124-2"
         d="m 129.81541,31.039582 -0.0606,-0.03889 c 0.0177,0.01515 0.0358,0.02974 0.054,0.0442 z"
         inkscape:connector-curvature="0"
         style="fill:#000000;stroke-width:0.21250594" />
      <path
         inkscape:connector-curvature="0"
         style="fill:#000000;stroke-width:0.21250594"
         d="m 140.47992,31.211923 c -0.064,0.133874 -0.14302,0.256282 -0.23397,0.364873"
         id="path8725" />
      <path
         inkscape:connector-curvature="0"
         style="fill:#19a974;stroke-width:0.21250594"
         d="m 121.18333,26.243045 c 0.032,0.142167 0.094,0.279869 0.18913,0.411412 0.82962,1.146469 4.06268,1.633533 5.99436,1.924454 0.47283,0.07141 0.88063,0.132597 1.11884,0.18488 1.80864,0.395898 3.42666,1.000052 5.15518,1.942729 -0.0289,0.05653 -0.0599,0.109442 -0.096,0.15577 l -5.8e-4,-1.52e-4 c -0.0414,0.05355 -0.0897,0.09732 -0.14098,0.13643 -0.0795,0.06056 -0.16923,0.106036 -0.27244,0.131337 -0.42373,0.105611 -1.01534,-0.09711 -1.4053,-0.480902 -0.0531,-0.05164 -0.12787,-0.07396 -0.20018,-0.05951 -0.0727,0.01447 -0.13331,0.06439 -0.16174,0.132597 -0.0666,0.157898 -0.14625,0.276047 -0.23229,0.364237 -0.0608,0.06226 -0.12496,0.106684 -0.18932,0.14237 -0.0901,0.04994 -0.18128,0.07948 -0.26734,0.0918 -0.0882,0.01226 -0.16975,0.0095 -0.23928,0.0013 -0.0119,-0.0017 -0.0243,-0.0032 -0.0358,-0.0049 -0.15068,-0.02402 -0.3058,-0.08394 -0.4503,-0.172134 -0.0482,-0.02997 -0.095,-0.06332 -0.14063,-0.09945 -0.0182,-0.01396 -0.0361,-0.02891 -0.0538,-0.04442 -0.16209,-0.141111 -0.29816,-0.321946 -0.37934,-0.533814 -0.041,-0.106889 -0.0683,-0.221005 -0.0778,-0.341922 -0.009,-0.106889 -0.0918,-0.192531 -0.19827,-0.204006 -0.10726,-0.01141 -0.20633,0.05397 -0.23735,0.156621 -0.005,0.01447 -0.0119,0.02699 -0.017,0.04102 -0.0294,0.08138 -0.0725,0.153863 -0.12105,0.220581 -0.20677,0.284121 -0.5591,0.437125 -0.85874,0.437125 h -0.0102 c -0.0281,-4.23e-4 -0.0598,-0.0024 -0.0928,-0.0061 -0.0644,-0.0077 -0.13604,-0.02443 -0.20741,-0.05504 -0.0855,-0.03718 -0.17043,-0.09478 -0.24162,-0.185304 -0.0312,-0.03996 -0.0594,-0.0867 -0.0841,-0.140038 -0.0189,-0.04039 -0.0359,-0.08416 -0.0497,-0.133874 -0.0228,-0.08118 -0.0891,-0.142796 -0.17191,-0.158733 -0.0831,-0.01685 -0.16736,0.01549 -0.21909,0.08203 -0.072,0.09329 -0.15255,0.172554 -0.2376,0.241407 -0.0831,0.06672 -0.17085,0.120492 -0.26116,0.165746 -0.0599,0.02974 -0.12071,0.0561 -0.18233,0.0765 -0.13961,0.04633 -0.28177,0.06863 -0.4182,0.07141 -0.15817,0.0034 -0.30941,-0.02082 -0.44075,-0.07013 -0.27136,-0.101803 -0.46007,-0.301551 -0.55697,-0.570159 -0.0274,-0.07607 -0.0487,-0.157047 -0.0611,-0.243532 -0.0136,-0.09521 -0.0199,-0.194018 -0.0136,-0.300482 0.005,-0.08266 -0.0368,-0.161082 -0.10795,-0.203369 -0.071,-0.04314 -0.15987,-0.0425 -0.23056,2.14e-4 -0.0317,0.01912 -0.064,0.03443 -0.096,0.05184 -0.11475,0.06184 -0.231,0.110294 -0.34639,0.146848 -0.37869,0.119845 -0.74866,0.103483 -1.02788,-0.06247 -0.28519,-0.169799 -0.4484,-0.483452 -0.46964,-0.89465 -2.3e-4,-0.0032 0,-0.0063 0,-0.0095 -0.003,-0.05801 -0.003,-0.117728 -2.3e-4,-0.179773 0.003,-0.08309 -0.0386,-0.161287 -0.11049,-0.203369 -0.0186,-0.01056 -0.0385,-0.01849 -0.0587,-0.02338 -0.0581,-0.0143 -0.12072,-0.0051 -0.17276,0.02763 -0.34044,0.215276 -0.65368,0.25204 -0.90571,0.106683 -0.2922,-0.168726 -0.46922,-0.558465 -0.45201,-0.993039 0.009,-0.217819 0.085,-0.700208 0.54488,-1.070818"
         id="path8349" />
      <path
         inkscape:connector-curvature="0"
         style="fill:#19a974;stroke-width:0.21250594"
         d="m 140.34559,26.103919 c 0.009,0.0054 0.0153,0.01345 0.0242,0.01786 0.38974,0.180842 0.61754,0.462412 0.62454,0.772035 0.007,0.30962 -0.21356,0.611591 -0.59054,0.807521 l 1.6e-4,-3.6e-5 c -0.0559,0.02891 -0.0967,0.08012 -0.11237,0.140889 -0.0153,0.06099 -0.005,0.125583 0.0284,0.178504 0.11918,0.183606 0.23354,0.409074 0.26096,0.624131 0.0194,0.154919 -0.007,0.304309 -0.10863,0.429475 -0.0179,0.02189 -0.0385,0.0425 -0.0599,0.06226 -0.0267,0.02465 -0.0581,0.04633 -0.0901,0.06758 -0.28794,0.193167 -0.77735,0.266482 -1.25569,0.196568 -0.0187,-0.0027 -0.0366,-0.0083 -0.0552,-0.01124 -0.15272,-0.02593 -0.3041,-0.06375 -0.44584,-0.119642 -0.0982,-0.03889 -0.20974,-0.0043 -0.2684,0.08416 -0.0208,0.03124 -0.0409,0.06036 -0.0615,0.09075 -0.33001,0.48578 -0.62327,0.800502 -0.97455,0.89103 -0.20507,0.05312 -0.4299,0.03082 -0.69468,-0.08012 -0.0412,-0.01742 -0.0841,-0.03826 -0.12753,-0.05971 0.0286,-0.07246 0.0589,-0.142813 0.0943,-0.208044 0.23505,-0.432025 0.62244,-0.887637 1.12014,-1.316686 0.22545,-0.194658 0.53061,-0.393137 0.85384,-0.603093 0.81772,-0.531478 1.72682,-1.124794 1.83839,-1.964193"
         id="path8126-2-5" />
      <path
         style="opacity:1;vector-effect:none;fill:#ffb700;fill-opacity:1;stroke:none;stroke-width:0.39443892;stroke-linecap:round;stroke-linejoin:miter;stroke-miterlimit:4;stroke-dasharray:none;stroke-dashoffset:0;stroke-opacity:1"
         d="m 121.24371,25.316338 c 0,0 -1.94741,2.5193 4.92831,3.385988 6.87571,0.866684 9.93801,3.611195 9.93801,3.611195 0,0 0.80891,-2.83118 2.62895,-3.871203 1.82004,-1.040026 1.66988,-2.34291 1.58321,-3.094039 -0.0867,-0.751128 -19.07848,-0.03194 -19.07848,-0.03194 z"
         id="path8325"
         inkscape:connector-curvature="0"
         sodipodi:nodetypes="cscccc" />
      <path
         style="opacity:1;vector-effect:none;fill:#c87137;fill-opacity:1;stroke:none;stroke-width:0.35277775;stroke-linecap:round;stroke-linejoin:miter;stroke-miterlimit:4;stroke-dasharray:none;stroke-dashoffset:0;stroke-opacity:1"
         d="m 130.71552,20.531296 c 6.17534,0 10.07691,2.273762 10.07691,4.754231 0,2.480468 -6.84713,2.919719 -10.23194,2.919719 -3.3848,0 -9.79268,-0.904338 -9.79268,-2.919719 0,-2.015381 3.35897,-4.754231 9.94771,-4.754231 z"
         id="path8327"
         inkscape:connector-curvature="0" />
      <ellipse
         id="ellipse8106-7"
         ry="0.76673651"
         rx="0.45838431"
         cy="-116.7004"
         cx="-72.329178"
         transform="rotate(131.00213)"
         style="fill:#ffb380;stroke-width:0.21251011" />
      <ellipse
         id="ellipse8108-9"
         ry="0.45835727"
         rx="0.76669121"
         cy="-101.14194"
         cx="89.808777"
         transform="rotate(58.07418)"
         style="fill:#ffb380;stroke-width:0.21249755" />
      <ellipse
         id="ellipse8110-9"
         ry="0.76671386"
         rx="0.45837075"
         cy="-80.65181"
         cx="99.309029"
         transform="rotate(48.973619)"
         style="fill:#ffb380;stroke-width:0.21250382" />
      <ellipse
         id="ellipse8112-3"
         ry="0.51085937"
         rx="0.7603389"
         cy="-130.33487"
         cx="1.2726977"
         transform="rotate(99.526374)"
         style="fill:#ffb380;stroke-width:0.21250387" />
      <ellipse
         id="ellipse8114-2"
         ry="0.76034623"
         rx="0.51107675"
         cy="21.830425"
         cx="130.83778"
         style="fill:#ffb380;stroke-width:0.21250594" />
    </g>
    <g
       transform="matrix(0.65853659,0,0,0.65853659,80.924976,51.010793)"
       id="g8853">
      <rect
         style="opacity:1;vector-effect:none;fill:#96ccff;fill-opacity:1;stroke:none;stroke-width:0.54366702;stroke-linecap:round;stroke-linejoin:round;stroke-miterlimit:4;stroke-dasharray:none;stroke-dashoffset:0;stroke-opacity:1;paint-order:markers fill stroke"
         id="rect8798"
         width="13.964763"
         height="12.65122"
         x="-23.216471"
         y="-82.296432"
         rx="2.9572036"
         ry="6.3256102"
         transform="rotate(90)" />
      <ellipse
         style="opacity:1;vector-effect:none;fill:#f4f4f4;fill-opacity:1;stroke:none;stroke-width:0.47717693;stroke-linecap:round;stroke-linejoin:round;stroke-miterlimit:4;stroke-dasharray:none;stroke-dashoffset:0;stroke-opacity:1;paint-order:markers fill stroke"
         id="path8800"
         transform="rotate(90)"
         ry="4.4335246"
         rx="2.4148645"
         cy="-75.970825"
         cx="-11.029367" />
      <g
         id="g8842"
         transform="matrix(0.77981699,0,0,0.77981699,18.59758,-2.1356451)">
        <text
           id="text8796"
           y="-20.470228"
           x="73.76165"
           style="font-style:normal;font-variant:normal;font-weight:bold;font-stretch:normal;font-size:4.23333311px;line-height:1.29999995;font-family:Quicksand;-inkscape-font-specification:'Quicksand Bold';font-variant-ligatures:normal;font-variant-position:normal;font-variant-caps:normal;font-variant-numeric:normal;font-variant-alternates:normal;font-feature-settings:normal;text-indent:0;text-align:center;text-decoration:none;text-decoration-line:none;text-decoration-style:solid;text-decoration-color:#000000;letter-spacing:0px;word-spacing:0px;text-transform:none;writing-mode:lr-tb;direction:ltr;text-orientation:mixed;dominant-baseline:auto;baseline-shift:baseline;text-anchor:middle;white-space:normal;shape-padding:0;opacity:1;vector-effect:none;fill:#555555;fill-opacity:1;stroke:none;stroke-width:0.41718683px;stroke-linecap:butt;stroke-linejoin:miter;stroke-miterlimit:4;stroke-dasharray:none;stroke-dashoffset:0;stroke-opacity:1"
           xml:space="preserve"><tspan
             style="font-style:normal;font-variant:normal;font-weight:bold;font-stretch:normal;font-size:4.23333311px;font-family:Quicksand;-inkscape-font-specification:'Quicksand Bold';stroke-width:0.41718683px"
             y="-20.470228"
             x="73.76165"
             id="tspan8794"
             sodipodi:role="line">1266 kJ</tspan></text>
        <text
           id="text8796-8"
           y="-17.059584"
           x="73.629807"
           style="font-style:normal;font-variant:normal;font-weight:normal;font-stretch:normal;font-size:2.82222199px;line-height:1.29999995;font-family:Quicksand;-inkscape-font-specification:'Quicksand, Normal';font-variant-ligatures:normal;font-variant-position:normal;font-variant-caps:normal;font-variant-numeric:normal;font-variant-alternates:normal;font-feature-settings:normal;text-indent:0;text-align:center;text-decoration:none;text-decoration-line:none;text-decoration-style:solid;text-decoration-color:#000000;letter-spacing:0px;word-spacing:0px;text-transform:none;writing-mode:lr-tb;direction:ltr;text-orientation:mixed;dominant-baseline:auto;baseline-shift:baseline;text-anchor:middle;white-space:normal;shape-padding:0;opacity:1;vector-effect:none;fill:#555555;fill-opacity:1;stroke:none;stroke-width:0.41718683px;stroke-linecap:butt;stroke-linejoin:miter;stroke-miterlimit:4;stroke-dasharray:none;stroke-dashoffset:0;stroke-opacity:1"
           xml:space="preserve"><tspan
             style="font-size:2.82222199px;fill:#555555;stroke-width:0.41718683px"
             y="-17.059584"
             x="73.629807"
             id="tspan8794-0"
             sodipodi:role="line">302 kcal</tspan></text>
      </g>
      <text
         xml:space="preserve"
         style="font-style:normal;font-variant:normal;font-weight:normal;font-stretch:normal;font-size:2.53064466px;line-height:1.29999995;font-family:Quicksand;-inkscape-font-specification:'Quicksand, Normal';font-variant-ligatures:normal;font-variant-position:normal;font-variant-caps:normal;font-variant-numeric:normal;font-variant-alternates:normal;font-feature-settings:normal;text-indent:0;text-align:center;text-decoration:none;text-decoration-line:none;text-decoration-style:solid;text-decoration-color:#000000;letter-spacing:0px;word-spacing:0px;text-transform:none;writing-mode:lr-tb;direction:ltr;text-orientation:mixed;dominant-baseline:auto;baseline-shift:baseline;text-anchor:middle;white-space:normal;shape-padding:0;opacity:1;vector-effect:none;fill:#555555;fill-opacity:1;stroke:none;stroke-width:0.28659195px;stroke-linecap:butt;stroke-linejoin:miter;stroke-miterlimit:4;stroke-dasharray:none;stroke-dashoffset:0;stroke-opacity:1"
         x="75.961029"
         y="-10.301851"
         id="text8796-8-8"><tspan
           sodipodi:role="line"
           id="tspan8794-0-1"
           x="75.961029"
           y="-10.301851"
           style="fill:#555555;stroke-width:0.28659195px">15%*</tspan></text>
    </g>
  </g>
</svg>
