<?xml version="1.0" encoding="UTF-8" standalone="no"?>
<!-- Created with Inkscape (http://www.inkscape.org/) -->

<svg
   xmlns:ns1="http://www.iki.fi/pav/software/textext/"
   xmlns:dc="http://purl.org/dc/elements/1.1/"
   xmlns:cc="http://creativecommons.org/ns#"
   xmlns:rdf="http://www.w3.org/1999/02/22-rdf-syntax-ns#"
   xmlns:svg="http://www.w3.org/2000/svg"
   xmlns="http://www.w3.org/2000/svg"
   xmlns:sodipodi="http://sodipodi.sourceforge.net/DTD/sodipodi-0.dtd"
   xmlns:inkscape="http://www.inkscape.org/namespaces/inkscape"
   width="566.49658"
   height="241.88274"
   viewBox="0 0 149.88554 63.998135"
   version="1.1"
   id="svg4623"
   inkscape:version="0.92.4 (unknown)"
   sodipodi:docname="conveyor_nulpunt_1.svg"
   inkscape:export-filename="/home/fdf/hugo/hoezithet/static/images/favicon.png"
   inkscape:export-xdpi="90"
   inkscape:export-ydpi="90">
  <defs
     id="defs4617">
    <marker
       inkscape:stockid="Arrow2Mend"
       orient="auto"
       refY="0"
       refX="0"
       id="Arrow2Mend"
       style="overflow:visible"
       inkscape:isstock="true">
      <path
         id="path5592"
         style="fill:#555555;fill-opacity:1;fill-rule:evenodd;stroke:#555555;stroke-width:0.625;stroke-linejoin:round;stroke-opacity:1"
         d="M 8.7185878,4.0337352 -2.2072895,0.01601326 8.7185884,-4.0017078 c -1.7454984,2.3720609 -1.7354408,5.6174519 -6e-7,8.035443 z"
         transform="scale(-0.6)"
         inkscape:connector-curvature="0" />
    </marker>
    <marker
       inkscape:stockid="Arrow2Mend"
       orient="auto"
       refY="0"
       refX="0"
       id="Arrow2Mend-9"
       style="overflow:visible"
       inkscape:isstock="true">
      <path
         inkscape:connector-curvature="0"
         id="path5592-3"
         style="fill:#555555;fill-opacity:1;fill-rule:evenodd;stroke:#555555;stroke-width:0.625;stroke-linejoin:round;stroke-opacity:1"
         d="M 8.7185878,4.0337352 -2.2072895,0.01601326 8.7185884,-4.0017078 c -1.7454984,2.3720609 -1.7354408,5.6174519 -6e-7,8.035443 z"
         transform="scale(-0.6)" />
    </marker>
    <marker
       inkscape:stockid="Arrow2Mend"
       orient="auto"
       refY="0"
       refX="0"
       id="Arrow2Mend-4-3"
       style="overflow:visible"
       inkscape:isstock="true">
      <path
         inkscape:connector-curvature="0"
         id="path5592-36-1"
         style="fill:#555555;fill-opacity:1;fill-rule:evenodd;stroke:#555555;stroke-width:0.625;stroke-linejoin:round;stroke-opacity:1"
         d="M 8.7185878,4.0337352 -2.2072895,0.01601326 8.7185884,-4.0017078 c -1.7454984,2.3720609 -1.7354408,5.6174519 -6e-7,8.035443 z"
         transform="scale(-0.6)" />
    </marker>
    <marker
       inkscape:stockid="Arrow2Mend"
       orient="auto"
       refY="0"
       refX="0"
       id="Arrow2Mend-4-3-9-9"
       style="overflow:visible"
       inkscape:isstock="true">
      <path
         inkscape:connector-curvature="0"
         id="path5592-36-1-1-4"
         style="fill:#555555;fill-opacity:1;fill-rule:evenodd;stroke:#555555;stroke-width:0.625;stroke-linejoin:round;stroke-opacity:1"
         d="M 8.7185878,4.0337352 -2.2072895,0.01601326 8.7185884,-4.0017078 c -1.7454984,2.3720609 -1.7354408,5.6174519 -6e-7,8.035443 z"
         transform="scale(-0.6)" />
    </marker>
  </defs>
  <sodipodi:namedview
     id="base"
     pagecolor="#f4f4f4"
     bordercolor="#666666"
     borderopacity="1.0"
     inkscape:pageopacity="1"
     inkscape:pageshadow="2"
     inkscape:zoom="1.8101934"
     inkscape:cx="293.90554"
     inkscape:cy="135.19702"
     inkscape:document-units="px"
     inkscape:current-layer="layer2"
     showgrid="false"
     units="px"
     inkscape:object-paths="true"
     inkscape:snap-smooth-nodes="true"
     inkscape:window-width="1920"
     inkscape:window-height="1055"
     inkscape:window-x="1600"
     inkscape:window-y="25"
     inkscape:window-maximized="1"
     showguides="true"
     inkscape:guide-bbox="true"
     inkscape:pagecheckerboard="false"
     inkscape:snap-global="false"
     inkscape:showpageshadow="true"
     showborder="true"
     borderlayer="false"
     inkscape:snap-page="true" />
  <metadata
     id="metadata4620">
    <rdf:RDF>
      <cc:Work
         rdf:about="">
        <dc:format>image/svg+xml</dc:format>
        <dc:type
           rdf:resource="http://purl.org/dc/dcmitype/StillImage" />
        <dc:title />
      </cc:Work>
    </rdf:RDF>
  </metadata>
  <g
     inkscape:groupmode="layer"
     id="layer2"
     inkscape:label="Layer 1"
     transform="translate(1.6207409,-232.24618)"
     style="display:inline">
    <g
       id="g5353"
       transform="matrix(0.89623585,0,0,0.89623585,-1.2321399,28.099387)"
       style="stroke-width:1.11577785">
      <text
         xml:space="preserve"
         style="font-style:normal;font-variant:normal;font-weight:normal;font-stretch:normal;font-size:28.01556396px;line-height:1.29999995;font-family:Quicksand;-inkscape-font-specification:'Quicksand, Normal';font-variant-ligatures:normal;font-variant-position:normal;font-variant-caps:normal;font-variant-numeric:normal;font-variant-alternates:normal;font-feature-settings:normal;text-indent:0;text-align:center;text-decoration:none;text-decoration-line:none;text-decoration-style:solid;text-decoration-color:#000000;letter-spacing:0px;word-spacing:0px;text-transform:none;writing-mode:lr-tb;direction:ltr;text-orientation:mixed;dominant-baseline:auto;baseline-shift:baseline;text-anchor:middle;white-space:normal;shape-padding:0;opacity:1;vector-effect:none;fill:#555555;fill-opacity:1;stroke:none;stroke-width:3.17272329px;stroke-linecap:butt;stroke-linejoin:miter;stroke-miterlimit:4;stroke-dasharray:none;stroke-dashoffset:0;stroke-opacity:1"
         x="44.292774"
         y="218.67326"
         id="text2653"><tspan
           sodipodi:role="line"
           id="tspan2651"
           x="44.292774"
           y="245.28806"
           style="stroke-width:3.17272329px" /></text>
      <text
         xml:space="preserve"
         style="font-style:normal;font-variant:normal;font-weight:normal;font-stretch:normal;font-size:4.72345829px;line-height:1.25;font-family:Quicksand;-inkscape-font-specification:Quicksand;text-align:end;letter-spacing:0px;word-spacing:0px;text-anchor:end;fill:#d3d3d3;fill-opacity:1;stroke:none;stroke-width:0.29521614"
         x="167.17076"
         y="298.24545"
         id="text7806"><tspan
           sodipodi:role="line"
           id="tspan7804"
           x="167.17076"
           y="298.24545"
           style="font-size:4.72345829px;text-align:end;text-anchor:end;fill:#d3d3d3;stroke-width:0.29521614">Meer op: https://hoezithet.nu</tspan></text>
    </g>
    <text
       xml:space="preserve"
       style="font-style:normal;font-variant:normal;font-weight:normal;font-stretch:normal;font-size:6.34999943px;line-height:1.29999995;font-family:Quicksand;-inkscape-font-specification:'Quicksand, Normal';font-variant-ligatures:normal;font-variant-position:normal;font-variant-caps:normal;font-variant-numeric:normal;font-variant-alternates:normal;font-feature-settings:normal;text-indent:0;text-align:end;text-decoration:none;text-decoration-line:none;text-decoration-style:solid;text-decoration-color:#000000;letter-spacing:0px;word-spacing:0px;text-transform:none;writing-mode:lr-tb;direction:ltr;text-orientation:mixed;dominant-baseline:auto;baseline-shift:baseline;text-anchor:end;white-space:normal;shape-padding:0;opacity:1;vector-effect:none;fill:#555555;fill-opacity:1;stroke:none;stroke-width:0.71912855px;stroke-linecap:butt;stroke-linejoin:miter;stroke-miterlimit:4;stroke-dasharray:none;stroke-dashoffset:0;stroke-opacity:1"
       x="41.85173"
       y="280.16638"
       id="text5171"><tspan
         sodipodi:role="line"
         id="tspan5169"
         x="41.85173"
         y="286.19888"
         style="stroke-width:0.71912855px" /></text>
    <text
       xml:space="preserve"
       style="font-style:normal;font-variant:normal;font-weight:normal;font-stretch:normal;font-size:6.34999943px;line-height:1.29999995;font-family:Quicksand;-inkscape-font-specification:'Quicksand, Normal';font-variant-ligatures:normal;font-variant-position:normal;font-variant-caps:normal;font-variant-numeric:normal;font-variant-alternates:normal;font-feature-settings:normal;text-indent:0;text-align:center;text-decoration:none;text-decoration-line:none;text-decoration-style:solid;text-decoration-color:#000000;letter-spacing:0px;word-spacing:0px;text-transform:none;writing-mode:lr-tb;direction:ltr;text-orientation:mixed;dominant-baseline:auto;baseline-shift:baseline;text-anchor:middle;white-space:normal;shape-padding:0;opacity:1;vector-effect:none;fill:#555555;fill-opacity:1;stroke:none;stroke-width:0.71912855px;stroke-linecap:butt;stroke-linejoin:miter;stroke-miterlimit:4;stroke-dasharray:none;stroke-dashoffset:0;stroke-opacity:1"
       x="72.83223"
       y="236.91978"
       id="text1559"><tspan
         sodipodi:role="line"
         id="tspan1557"
         x="72.83223"
         y="236.91978"
         style="text-align:center;text-anchor:middle;stroke-width:0.71912855px">Nulwaarde van een functie</tspan></text>
    <g
       id="g2699"
       transform="translate(46.193176)">
      <circle
         r="1.4816505"
         cy="269.76236"
         cx="0.031535991"
         id="path20300-3-9"
         style="fill:#19a974;stroke:none;stroke-width:0.55876547;stroke-linecap:round;stroke-miterlimit:4;stroke-dasharray:none" />
      <circle
         r="1.4816505"
         cy="269.76236"
         cx="59.862003"
         id="path20300-9-7-5"
         style="fill:#19a974;stroke:none;stroke-width:0.55876547;stroke-linecap:round;stroke-miterlimit:4;stroke-dasharray:none" />
      <circle
         r="1.4816505"
         cy="269.76236"
         cx="4.6338758"
         id="path20300-2-9-5"
         style="fill:#19a974;stroke:none;stroke-width:0.55876547;stroke-linecap:round;stroke-miterlimit:4;stroke-dasharray:none" />
      <circle
         r="1.4816505"
         cy="269.76236"
         cx="9.2362194"
         id="path20300-2-3-4-2"
         style="fill:#19a974;stroke:none;stroke-width:0.55876547;stroke-linecap:round;stroke-miterlimit:4;stroke-dasharray:none" />
      <circle
         r="1.4816505"
         cy="269.76236"
         cx="13.838565"
         id="path20300-2-3-6-9-1"
         style="fill:#19a974;stroke:none;stroke-width:0.55876547;stroke-linecap:round;stroke-miterlimit:4;stroke-dasharray:none" />
      <circle
         r="1.4816505"
         cy="269.76236"
         cx="18.440908"
         id="path20300-2-3-6-6-9-5"
         style="fill:#19a974;stroke:none;stroke-width:0.55876547;stroke-linecap:round;stroke-miterlimit:4;stroke-dasharray:none" />
      <circle
         r="1.4816505"
         cy="269.76236"
         cx="23.043251"
         id="path20300-2-3-6-6-7-1-9"
         style="fill:#19a974;stroke:none;stroke-width:0.55876547;stroke-linecap:round;stroke-miterlimit:4;stroke-dasharray:none" />
      <circle
         r="1.4816505"
         cy="269.76236"
         cx="27.645599"
         id="path20300-2-3-6-6-7-7-9-9"
         style="fill:#19a974;stroke:none;stroke-width:0.55876547;stroke-linecap:round;stroke-miterlimit:4;stroke-dasharray:none" />
      <circle
         r="1.4816505"
         cy="269.76236"
         cx="32.24794"
         id="path20300-2-3-6-6-7-7-4-4-1"
         style="fill:#19a974;stroke:none;stroke-width:0.55876547;stroke-linecap:round;stroke-miterlimit:4;stroke-dasharray:none" />
      <circle
         r="1.4816505"
         cy="269.76236"
         cx="55.259655"
         id="path20300-2-3-6-6-7-7-4-6-2-6"
         style="fill:#19a974;stroke:none;stroke-width:0.55876547;stroke-linecap:round;stroke-miterlimit:4;stroke-dasharray:none" />
      <circle
         r="1.4816505"
         cy="269.76236"
         cx="50.657322"
         id="path20300-2-3-6-6-7-7-4-6-9-0-2"
         style="fill:#19a974;stroke:none;stroke-width:0.55876547;stroke-linecap:round;stroke-miterlimit:4;stroke-dasharray:none" />
      <circle
         r="1.4816505"
         cy="269.76236"
         cx="46.054977"
         id="path20300-2-3-6-6-7-7-4-6-9-6-6-1"
         style="fill:#19a974;stroke:none;stroke-width:0.55876547;stroke-linecap:round;stroke-miterlimit:4;stroke-dasharray:none" />
      <circle
         r="1.4816505"
         cy="269.76236"
         cx="41.452641"
         id="path20300-2-3-6-6-7-7-4-6-9-6-0-5-0"
         style="fill:#19a974;stroke:none;stroke-width:0.55876547;stroke-linecap:round;stroke-miterlimit:4;stroke-dasharray:none" />
      <circle
         r="1.4816505"
         cy="269.76236"
         cx="36.850292"
         id="path20300-2-3-6-6-7-7-4-6-9-6-0-9-9-5"
         style="fill:#19a974;stroke:none;stroke-width:0.55876547;stroke-linecap:round;stroke-miterlimit:4;stroke-dasharray:none" />
      <path
         inkscape:connector-curvature="0"
         id="path4893-5-3"
         d="m -0.11925803,267.6098 c -2.89539727,-0.0254 -2.89539727,4.33056 0,4.30516 H 59.961086 c 2.895399,0.0254 2.895399,-4.33056 0,-4.30516 z"
         style="color:#000000;font-style:normal;font-variant:normal;font-weight:normal;font-stretch:normal;font-size:medium;line-height:normal;font-family:sans-serif;font-variant-ligatures:normal;font-variant-position:normal;font-variant-caps:normal;font-variant-numeric:normal;font-variant-alternates:normal;font-feature-settings:normal;text-indent:0;text-align:start;text-decoration:none;text-decoration-line:none;text-decoration-style:solid;text-decoration-color:#000000;letter-spacing:normal;word-spacing:normal;text-transform:none;writing-mode:lr-tb;direction:ltr;text-orientation:mixed;dominant-baseline:auto;baseline-shift:baseline;text-anchor:start;white-space:normal;shape-padding:0;clip-rule:nonzero;display:inline;overflow:visible;visibility:visible;opacity:1;isolation:auto;mix-blend-mode:normal;color-interpolation:sRGB;color-interpolation-filters:linearRGB;solid-color:#000000;solid-opacity:1;vector-effect:none;fill:none;fill-opacity:1;fill-rule:nonzero;stroke:#19a974;stroke-width:0.71748275;stroke-linecap:round;stroke-linejoin:miter;stroke-miterlimit:4;stroke-dasharray:none;stroke-dashoffset:0;stroke-opacity:1;color-rendering:auto;image-rendering:auto;shape-rendering:auto;text-rendering:auto;enable-background:accumulate" />
      <g
         id="g4789-6-2"
         style="fill:#000000"
         transform="matrix(0.30661391,0,0,0.30661391,20.109269,257.15659)">
        <rect
           y="2.9999983"
           x="2.9999995"
           height="54"
           width="58"
           id="rect4897-1-1"
           style="fill:#f4f4f4;stroke:none;stroke-width:2.94455934;stroke-linecap:round;stroke-miterlimit:4;stroke-dasharray:none" />
        <path
           style="fill:#19a974"
           inkscape:connector-curvature="0"
           d="M 63,1 H 1 v 58 h 2 v 4 h 8 v -4 h 42 v 4 h 8 v -4 h 2 z M 9,61 H 5 v -2 h 4 z m 50,0 h -4 v -2 h 4 z m 2,-4 H 3 V 3 h 58 z"
           id="path4755-1-9" />
        <path
           style="fill:#19a974"
           inkscape:connector-curvature="0"
           d="M 18,31 C 25.168,31 31,25.168 31,18 31,10.832 25.168,5 18,5 10.832,5 5,10.832 5,18 5,25.168 10.832,31 18,31 Z M 18,7 c 6.065,0 11,4.935 11,11 0,6.065 -4.935,11 -11,11 C 11.935,29 7,24.065 7,18 7,11.935 11.935,7 18,7 Z"
           id="path4757-4-7" />
        <path
           style="fill:#19a974"
           inkscape:connector-curvature="0"
           d="m 15,18 c 0,1.654 1.346,3 3,3 1.654,0 3,-1.346 3,-3 0,-1.654 -1.346,-3 -3,-3 -0.414,0 -0.808,0.084 -1.168,0.237 l -4.064,-4.877 -1.537,1.28 4.132,4.959 C 15.139,17.019 15,17.491 15,18 Z m 4,0 c 0,0.551 -0.448,1 -1,1 -0.552,0 -1,-0.449 -1,-1 0,-0.551 0.448,-1 1,-1 0.552,0 1,0.449 1,1 z"
           id="path4759-3-6" />
        <rect
           style="fill:#19a974"
           x="12"
           y="23"
           width="12"
           height="2"
           id="rect4761-7-8" />
        <path
           style="fill:#19a974"
           inkscape:connector-curvature="0"
           d="M 46,31 C 53.168,31 59,25.168 59,18 59,10.832 53.168,5 46,5 38.832,5 33,10.832 33,18 c 0,7.168 5.832,13 13,13 z M 46,7 c 6.065,0 11,4.935 11,11 0,6.065 -4.935,11 -11,11 C 39.935,29 35,24.065 35,18 35,11.935 39.935,7 46,7 Z"
           id="path4763-2-2" />
        <path
           style="fill:#19a974"
           inkscape:connector-curvature="0"
           d="m 46,21 c 1.654,0 3,-1.346 3,-3 0,-1.07 -0.567,-2.004 -1.412,-2.535 l 1.389,-6.248 -1.953,-0.434 -1.39,6.254 C 44.154,15.22 43,16.471 43,18 c 0,1.654 1.346,3 3,3 z m 0,-4 c 0.552,0 1,0.449 1,1 0,0.551 -0.448,1 -1,1 -0.552,0 -1,-0.449 -1,-1 0,-0.551 0.448,-1 1,-1 z"
           id="path4765-7-0" />
        <rect
           style="fill:#19a974"
           x="50"
           y="23"
           width="2"
           height="2"
           id="rect4767-3-6" />
        <rect
           style="fill:#19a974"
           x="40"
           y="23"
           width="8"
           height="2"
           id="rect4769-3-4" />
        <path
           style="fill:#19a974"
           inkscape:connector-curvature="0"
           d="M 33,33 H 5 V 55 H 33 Z M 31,53 H 7 V 35 h 24 z"
           id="path4771-9-3" />
        <polygon
           style="fill:#19a974"
           points="29,44 26.659,44 23.659,37 20.279,37 16.279,49 15.721,49 12.721,40 9,40 9,42 11.279,42 14.279,51 17.721,51 21.721,39 22.341,39 25.341,46 29,46 "
           id="polygon4773-2-3" />
        <path
           style="fill:#19a974"
           inkscape:connector-curvature="0"
           d="m 42,33 h -6 v 6 h 6 z m -2,4 h -2 v -2 h 2 z"
           id="path4775-4-6" />
        <path
           style="fill:#19a974"
           inkscape:connector-curvature="0"
           d="m 50,33 h -6 v 6 h 6 z m -2,4 h -2 v -2 h 2 z"
           id="path4777-4-9" />
        <path
           style="fill:#19a974"
           inkscape:connector-curvature="0"
           d="m 52,39 h 6 v -6 h -6 z m 2,-4 h 2 v 2 h -2 z"
           id="path4779-4-0" />
        <path
           style="fill:#19a974"
           inkscape:connector-curvature="0"
           d="m 36,47 h 6 v -6 h -6 z m 2,-4 h 2 v 2 h -2 z"
           id="path4781-9-4" />
        <path
           style="fill:#19a974"
           inkscape:connector-curvature="0"
           d="m 44,47 h 6 v -6 h -6 z m 2,-4 h 2 v 2 h -2 z"
           id="path4783-9-8" />
        <path
           style="fill:#19a974"
           inkscape:connector-curvature="0"
           d="m 52,47 h 6 v -6 h -6 z m 2,-4 h 2 v 2 h -2 z"
           id="path4785-3-5" />
        <path
           style="fill:#19a974"
           inkscape:connector-curvature="0"
           d="M 36,55 H 58 V 49 H 36 Z m 20,-2 h -4 v -2 h 4 z M 38,51 h 12 v 2 H 38 Z"
           id="path4787-8-1" />
      </g>
      <path
         inkscape:connector-curvature="0"
         id="path861-3-2"
         d="M 8.0143521,262.41826 H 18.456462"
         style="fill:none;stroke:#555555;stroke-width:0.55879992;stroke-linecap:round;stroke-linejoin:miter;stroke-miterlimit:4;stroke-dasharray:none;stroke-opacity:1;marker-end:url(#Arrow2Mend)" />
      <ellipse
         style="fill:none;fill-opacity:1;stroke:#555555;stroke-width:0.27938277;stroke-linecap:round;stroke-linejoin:round;stroke-miterlimit:4;stroke-dasharray:none;stroke-dashoffset:0;stroke-opacity:1"
         id="path1070-9-7"
         cx="41.714878"
         cy="249.96408"
         rx="18.410194"
         ry="5.5591574" />
      <circle
         style="fill:none;fill-opacity:1;stroke:#555555;stroke-width:0.27938277;stroke-linecap:round;stroke-linejoin:round;stroke-miterlimit:4;stroke-dasharray:none;stroke-dashoffset:0;stroke-opacity:1"
         id="path1072-5-3"
         cx="25.651075"
         cy="256.57007"
         r="0.46927953" />
      <ellipse
         style="fill:none;fill-opacity:1;stroke:#555555;stroke-width:0.27938277;stroke-linecap:round;stroke-linejoin:round;stroke-miterlimit:4;stroke-dasharray:none;stroke-dashoffset:0;stroke-opacity:1"
         id="path1074-4-8"
         cx="25.76512"
         cy="254.47636"
         rx="1.1395278"
         ry="0.97465742" />
      <g
         transform="matrix(0.44457578,0,0,0.44457578,-38.696039,191.07552)"
         ns1:version="0.9.0"
         ns1:texconverter="pdflatex"
         ns1:pdfconverter="pdf2svg"
         ns1:text="$f(x) = -x + 4$"
         ns1:preamble="/home/fdf/.config/inkscape/extensions/textext/default_packages.tex"
         ns1:scale="1.0"
         ns1:alignment="middle center"
         inkscapeversion="0.92.3"
         ns1:jacobian_sqrt="0.352778"
         id="g1341-3-0">
        <g
           id="g1339-9-9">
          <g
             style="fill:#000000;fill-opacity:1"
             id="g1305-4-2">
            <path
               inkscape:connector-curvature="0"
               style="fill:#19a974;stroke:none;stroke-width:0"
               d="m 3.65625,-3.984375 h 0.859375 c 0.203125,0 0.296875,0 0.296875,-0.203125 0,-0.109375 -0.09375,-0.109375 -0.265625,-0.109375 H 3.71875 L 3.921875,-5.4375 c 0.046875,-0.203125 0.1875,-0.90625 0.25,-1.03125 0.078125,-0.1875 0.25,-0.34375 0.46875,-0.34375 0.03125,0 0.296875,0 0.484375,0.1875 -0.4375,0.03125 -0.546875,0.390625 -0.546875,0.53125 0,0.234375 0.1875,0.359375 0.375,0.359375 C 5.21875,-5.734375 5.5,-5.96875 5.5,-6.34375 c 0,-0.453125 -0.453125,-0.6875 -0.859375,-0.6875 -0.34375,0 -0.96875,0.1875 -1.265625,1.171875 -0.0625,0.203125 -0.09375,0.3125 -0.328125,1.5625 h -0.6875 c -0.203125,0 -0.3125,0 -0.3125,0.1875 0,0.125 0.09375,0.125 0.28125,0.125 h 0.65625 L 2.25,-0.046875 c -0.1875,0.96875 -0.359375,1.875 -0.875,1.875 -0.046875,0 -0.28125,0 -0.484375,-0.1875 C 1.359375,1.609375 1.453125,1.25 1.453125,1.109375 1.453125,0.875 1.265625,0.75 1.078125,0.75 0.8125,0.75 0.53125,0.984375 0.53125,1.359375 c 0,0.4375 0.4375,0.6875 0.84375,0.6875 0.546875,0 0.953125,-0.59375 1.125,-0.96875 0.328125,-0.625 0.546875,-1.828125 0.5625,-1.90625 z m 0,0"
               transform="translate(148.712,134.765)"
               id="path1303-9-3" />
          </g>
          <g
             style="fill:#000000;fill-opacity:1"
             id="g1309-5-1">
            <path
               inkscape:connector-curvature="0"
               style="fill:#19a974;stroke:none;stroke-width:0"
               d="m 3.296875,2.390625 c 0,-0.03125 0,-0.046875 -0.171875,-0.21875 C 1.890625,0.921875 1.5625,-0.96875 1.5625,-2.5 c 0,-1.734375 0.375,-3.46875 1.609375,-4.703125 0.125,-0.125 0.125,-0.140625 0.125,-0.171875 0,-0.078125 -0.03125,-0.109375 -0.09375,-0.109375 -0.109375,0 -1,0.6875 -1.59375,1.953125 -0.5,1.09375 -0.625,2.203125 -0.625,3.03125 0,0.78125 0.109375,1.984375 0.65625,3.125 C 2.25,1.84375 3.09375,2.5 3.203125,2.5 c 0.0625,0 0.09375,-0.03125 0.09375,-0.109375 z m 0,0"
               transform="translate(154.662,134.765)"
               id="path1307-5-8" />
          </g>
          <g
             style="fill:#000000;fill-opacity:1"
             id="g1313-7-7">
            <path
               inkscape:connector-curvature="0"
               style="fill:#19a974;stroke:none;stroke-width:0"
               d="M 3.328125,-3.015625 C 3.390625,-3.265625 3.625,-4.1875 4.3125,-4.1875 c 0.046875,0 0.296875,0 0.5,0.125 C 4.53125,-4 4.34375,-3.765625 4.34375,-3.515625 c 0,0.15625 0.109375,0.34375 0.375,0.34375 0.21875,0 0.53125,-0.171875 0.53125,-0.578125 0,-0.515625 -0.578125,-0.65625 -0.921875,-0.65625 -0.578125,0 -0.921875,0.53125 -1.046875,0.75 -0.25,-0.65625 -0.78125,-0.75 -1.078125,-0.75 -1.03125,0 -1.609375,1.28125 -1.609375,1.53125 0,0.109375 0.109375,0.109375 0.125,0.109375 0.078125,0 0.109375,-0.03125 0.125,-0.109375 0.34375,-1.0625 1,-1.3125 1.34375,-1.3125 0.1875,0 0.53125,0.09375 0.53125,0.671875 0,0.3125 -0.171875,0.96875 -0.53125,2.375 -0.15625,0.609375 -0.515625,1.03125 -0.953125,1.03125 -0.0625,0 -0.28125,0 -0.5,-0.125 0.25,-0.0625 0.46875,-0.265625 0.46875,-0.546875 0,-0.265625 -0.21875,-0.34375 -0.359375,-0.34375 -0.3125,0 -0.546875,0.25 -0.546875,0.578125 0,0.453125 0.484375,0.65625 0.921875,0.65625 0.671875,0 1.03125,-0.703125 1.046875,-0.75 0.125,0.359375 0.484375,0.75 1.078125,0.75 1.03125,0 1.59375,-1.28125 1.59375,-1.53125 0,-0.109375 -0.078125,-0.109375 -0.109375,-0.109375 -0.09375,0 -0.109375,0.046875 -0.140625,0.109375 -0.328125,1.078125 -1,1.3125 -1.3125,1.3125 -0.390625,0 -0.546875,-0.3125 -0.546875,-0.65625 0,-0.21875 0.046875,-0.4375 0.15625,-0.875 z m 0,0"
               transform="translate(158.537,134.765)"
               id="path1311-3-4" />
          </g>
          <g
             style="fill:#000000;fill-opacity:1"
             id="g1317-9-1">
            <path
               inkscape:connector-curvature="0"
               style="fill:#19a974;stroke:none;stroke-width:0"
               d="m 2.875,-2.5 c 0,-0.765625 -0.109375,-1.96875 -0.65625,-3.109375 -0.59375,-1.21875 -1.453125,-1.875 -1.546875,-1.875 -0.0625,0 -0.109375,0.046875 -0.109375,0.109375 0,0.03125 0,0.046875 0.1875,0.234375 0.984375,0.984375 1.546875,2.5625 1.546875,4.640625 0,1.71875 -0.359375,3.46875 -1.59375,4.71875 C 0.5625,2.34375 0.5625,2.359375 0.5625,2.390625 0.5625,2.453125 0.609375,2.5 0.671875,2.5 0.765625,2.5 1.671875,1.8125 2.25,0.546875 2.765625,-0.546875 2.875,-1.65625 2.875,-2.5 Z m 0,0"
               transform="translate(164.231,134.765)"
               id="path1315-0-6" />
          </g>
          <g
             style="fill:#000000;fill-opacity:1"
             id="g1321-7-3">
            <path
               inkscape:connector-curvature="0"
               style="fill:#19a974;stroke:none;stroke-width:0"
               d="m 6.84375,-3.265625 c 0.15625,0 0.34375,0 0.34375,-0.1875 C 7.1875,-3.65625 7,-3.65625 6.859375,-3.65625 h -5.96875 c -0.140625,0 -0.328125,0 -0.328125,0.203125 0,0.1875 0.1875,0.1875 0.328125,0.1875 z m 0.015625,1.9375 c 0.140625,0 0.328125,0 0.328125,-0.203125 0,-0.1875 -0.1875,-0.1875 -0.34375,-0.1875 H 0.890625 c -0.140625,0 -0.328125,0 -0.328125,0.1875 0,0.203125 0.1875,0.203125 0.328125,0.203125 z m 0,0"
               transform="translate(170.87506,134.765)"
               id="path1319-2-8" />
          </g>
          <g
             style="fill:#000000;fill-opacity:1"
             id="g1325-7-5">
            <path
               inkscape:connector-curvature="0"
               style="fill:#19a974;stroke:none;stroke-width:0"
               d="m 6.5625,-2.296875 c 0.171875,0 0.359375,0 0.359375,-0.203125 0,-0.1875 -0.1875,-0.1875 -0.359375,-0.1875 H 1.171875 c -0.171875,0 -0.34375,0 -0.34375,0.1875 0,0.203125 0.171875,0.203125 0.34375,0.203125 z m 0,0"
               transform="translate(181.388,134.765)"
               id="path1323-2-5" />
          </g>
          <g
             style="fill:#000000;fill-opacity:1"
             id="g1329-9-0">
            <path
               inkscape:connector-curvature="0"
               style="fill:#19a974;stroke:none;stroke-width:0"
               d="M 3.328125,-3.015625 C 3.390625,-3.265625 3.625,-4.1875 4.3125,-4.1875 c 0.046875,0 0.296875,0 0.5,0.125 C 4.53125,-4 4.34375,-3.765625 4.34375,-3.515625 c 0,0.15625 0.109375,0.34375 0.375,0.34375 0.21875,0 0.53125,-0.171875 0.53125,-0.578125 0,-0.515625 -0.578125,-0.65625 -0.921875,-0.65625 -0.578125,0 -0.921875,0.53125 -1.046875,0.75 -0.25,-0.65625 -0.78125,-0.75 -1.078125,-0.75 -1.03125,0 -1.609375,1.28125 -1.609375,1.53125 0,0.109375 0.109375,0.109375 0.125,0.109375 0.078125,0 0.109375,-0.03125 0.125,-0.109375 0.34375,-1.0625 1,-1.3125 1.34375,-1.3125 0.1875,0 0.53125,0.09375 0.53125,0.671875 0,0.3125 -0.171875,0.96875 -0.53125,2.375 -0.15625,0.609375 -0.515625,1.03125 -0.953125,1.03125 -0.0625,0 -0.28125,0 -0.5,-0.125 0.25,-0.0625 0.46875,-0.265625 0.46875,-0.546875 0,-0.265625 -0.21875,-0.34375 -0.359375,-0.34375 -0.3125,0 -0.546875,0.25 -0.546875,0.578125 0,0.453125 0.484375,0.65625 0.921875,0.65625 0.671875,0 1.03125,-0.703125 1.046875,-0.75 0.125,0.359375 0.484375,0.75 1.078125,0.75 1.03125,0 1.59375,-1.28125 1.59375,-1.53125 0,-0.109375 -0.078125,-0.109375 -0.109375,-0.109375 -0.09375,0 -0.109375,0.046875 -0.140625,0.109375 -0.328125,1.078125 -1,1.3125 -1.3125,1.3125 -0.390625,0 -0.546875,-0.3125 -0.546875,-0.65625 0,-0.21875 0.046875,-0.4375 0.15625,-0.875 z m 0,0"
               transform="translate(189.137,134.765)"
               id="path1327-0-1" />
          </g>
          <g
             style="fill:#000000;fill-opacity:1"
             id="g1333-5-2">
            <path
               inkscape:connector-curvature="0"
               style="fill:#19a974;stroke:none;stroke-width:0"
               d="m 4.078125,-2.296875 h 2.78125 C 7,-2.296875 7.1875,-2.296875 7.1875,-2.5 7.1875,-2.6875 7,-2.6875 6.859375,-2.6875 h -2.78125 v -2.796875 c 0,-0.140625 0,-0.328125 -0.203125,-0.328125 -0.203125,0 -0.203125,0.1875 -0.203125,0.328125 V -2.6875 h -2.78125 c -0.140625,0 -0.328125,0 -0.328125,0.1875 0,0.203125 0.1875,0.203125 0.328125,0.203125 h 2.78125 V 0.5 c 0,0.140625 0,0.328125 0.203125,0.328125 0.203125,0 0.203125,-0.1875 0.203125,-0.328125 z m 0,0"
               transform="translate(197.045,134.765)"
               id="path1331-0-6" />
          </g>
          <g
             style="fill:#000000;fill-opacity:1"
             id="g1337-4-4">
            <path
               inkscape:connector-curvature="0"
               style="fill:#19a974;stroke:none;stroke-width:0"
               d="m 2.9375,-1.640625 v 0.859375 c 0,0.359375 -0.03125,0.46875 -0.765625,0.46875 H 1.96875 V 0 C 2.375,-0.03125 2.890625,-0.03125 3.3125,-0.03125 c 0.421875,0 0.9375,0 1.359375,0.03125 v -0.3125 h -0.21875 c -0.734375,0 -0.75,-0.109375 -0.75,-0.46875 V -1.640625 H 4.6875 v -0.3125 H 3.703125 v -4.53125 c 0,-0.203125 0,-0.265625 -0.171875,-0.265625 -0.078125,0 -0.109375,0 -0.1875,0.125 l -3.0625,4.671875 v 0.3125 z m 0.046875,-0.3125 H 0.5625 l 2.421875,-3.71875 z m 0,0"
               transform="translate(207.00561,134.765)"
               id="path1335-1-8" />
          </g>
        </g>
      </g>
      <path
         inkscape:connector-curvature="0"
         id="path861-3-2-5"
         d="M 42.216495,262.41826 H 52.658606"
         style="display:inline;fill:none;stroke:#555555;stroke-width:0.55879992;stroke-linecap:round;stroke-linejoin:miter;stroke-miterlimit:4;stroke-dasharray:none;stroke-opacity:1;marker-end:url(#Arrow2Mend-9)" />
      <g
         id="g1724"
         ns1:jacobian_sqrt="0.352778"
         inkscapeversion="0.92.4"
         ns1:alignment="middle center"
         ns1:scale="1.0"
         ns1:preamble="/home/fdf/.config/inkscape/extensions/textext/default_packages.tex"
         ns1:text="$x$"
         ns1:pdfconverter="pdf2svg"
         ns1:texconverter="pdflatex"
         ns1:version="0.9.0"
         transform="matrix(0.92363804,0,0,0.92363804,-137.04577,139.8976)"
         style="fill:#ff6300">
        <g
           id="g1722"
           style="fill:#ff6300">
          <g
             id="g1720"
             style="fill:#ff6300;fill-opacity:1">
            <path
               id="path1718"
               transform="translate(148.712,134.765)"
               d="M 3.328125,-3.015625 C 3.390625,-3.265625 3.625,-4.1875 4.3125,-4.1875 c 0.046875,0 0.296875,0 0.5,0.125 C 4.53125,-4 4.34375,-3.765625 4.34375,-3.515625 c 0,0.15625 0.109375,0.34375 0.375,0.34375 0.21875,0 0.53125,-0.171875 0.53125,-0.578125 0,-0.515625 -0.578125,-0.65625 -0.921875,-0.65625 -0.578125,0 -0.921875,0.53125 -1.046875,0.75 -0.25,-0.65625 -0.78125,-0.75 -1.078125,-0.75 -1.03125,0 -1.609375,1.28125 -1.609375,1.53125 0,0.109375 0.109375,0.109375 0.125,0.109375 0.078125,0 0.109375,-0.03125 0.125,-0.109375 0.34375,-1.0625 1,-1.3125 1.34375,-1.3125 0.1875,0 0.53125,0.09375 0.53125,0.671875 0,0.3125 -0.171875,0.96875 -0.53125,2.375 -0.15625,0.609375 -0.515625,1.03125 -0.953125,1.03125 -0.0625,0 -0.28125,0 -0.5,-0.125 0.25,-0.0625 0.46875,-0.265625 0.46875,-0.546875 0,-0.265625 -0.21875,-0.34375 -0.359375,-0.34375 -0.3125,0 -0.546875,0.25 -0.546875,0.578125 0,0.453125 0.484375,0.65625 0.921875,0.65625 0.671875,0 1.03125,-0.703125 1.046875,-0.75 0.125,0.359375 0.484375,0.75 1.078125,0.75 1.03125,0 1.59375,-1.28125 1.59375,-1.53125 0,-0.109375 -0.078125,-0.109375 -0.109375,-0.109375 -0.09375,0 -0.109375,0.046875 -0.140625,0.109375 -0.328125,1.078125 -1,1.3125 -1.3125,1.3125 -0.390625,0 -0.546875,-0.3125 -0.546875,-0.65625 0,-0.21875 0.046875,-0.4375 0.15625,-0.875 z m 0,0"
               style="fill:#ff6300;stroke:none;stroke-width:0"
               inkscape:connector-curvature="0" />
          </g>
        </g>
      </g>
      <g
         id="g3131"
         ns1:jacobian_sqrt="0.352778"
         inkscapeversion="0.92.4"
         ns1:alignment="middle center"
         ns1:scale="1.0"
         ns1:preamble="/home/fdf/.config/inkscape/extensions/textext/default_packages.tex"
         ns1:text="$0$"
         ns1:pdfconverter="pdf2svg"
         ns1:texconverter="pdflatex"
         ns1:version="0.9.0"
         transform="matrix(0.56586303,0,0,0.56586303,-27.880874,187.83732)"
         style="fill:#555555">
        <g
           id="surface1"
           style="fill:#555555">
          <g
             id="g3128"
             style="fill:#555555;fill-opacity:1">
            <path
               id="path3126"
               transform="translate(148.712,134.765)"
               d="m 4.578125,-3.1875 c 0,-0.796875 -0.046875,-1.59375 -0.390625,-2.328125 -0.453125,-0.96875 -1.28125,-1.125 -1.6875,-1.125 -0.609375,0 -1.328125,0.265625 -1.75,1.1875 -0.3125,0.6875 -0.359375,1.46875 -0.359375,2.265625 0,0.75 0.03125,1.640625 0.453125,2.40625 0.421875,0.796875 1.15625,1 1.640625,1 0.53125,0 1.296875,-0.203125 1.734375,-1.15625 0.3125,-0.6875 0.359375,-1.46875 0.359375,-2.25 z M 2.484375,0 C 2.09375,0 1.5,-0.25 1.328125,-1.203125 1.21875,-1.796875 1.21875,-2.71875 1.21875,-3.3125 c 0,-0.640625 0,-1.296875 0.078125,-1.828125 0.1875,-1.1875 0.9375,-1.28125 1.1875,-1.28125 0.328125,0 0.984375,0.1875 1.171875,1.171875 0.109375,0.5625 0.109375,1.3125 0.109375,1.9375 0,0.75 0,1.421875 -0.109375,2.0625 C 3.5,-0.296875 2.9375,0 2.484375,0 Z m 0,0"
               style="stroke:none;stroke-width:0;fill:#555555"
               inkscape:connector-curvature="0" />
          </g>
        </g>
      </g>
    </g>
    <g
       id="g2560"
       transform="matrix(0.89973339,0,0,0.89973339,4.9394449,32.133045)">
      <g
         transform="translate(-12.94119,-0.04116264)"
         id="g2497">
        <g
           id="g2166"
           style="fill:#000000;fill-opacity:1"
           transform="matrix(0.63066447,0,0,0.63066447,-62.875992,199.34452)">
          <path
             id="path2164"
             transform="translate(148.712,134.765)"
             d="m 3.65625,-3.984375 h 0.859375 c 0.203125,0 0.296875,0 0.296875,-0.203125 0,-0.109375 -0.09375,-0.109375 -0.265625,-0.109375 H 3.71875 L 3.921875,-5.4375 c 0.046875,-0.203125 0.1875,-0.90625 0.25,-1.03125 0.078125,-0.1875 0.25,-0.34375 0.46875,-0.34375 0.03125,0 0.296875,0 0.484375,0.1875 -0.4375,0.03125 -0.546875,0.390625 -0.546875,0.53125 0,0.234375 0.1875,0.359375 0.375,0.359375 C 5.21875,-5.734375 5.5,-5.96875 5.5,-6.34375 c 0,-0.453125 -0.453125,-0.6875 -0.859375,-0.6875 -0.34375,0 -0.96875,0.1875 -1.265625,1.171875 -0.0625,0.203125 -0.09375,0.3125 -0.328125,1.5625 h -0.6875 c -0.203125,0 -0.3125,0 -0.3125,0.1875 0,0.125 0.09375,0.125 0.28125,0.125 h 0.65625 L 2.25,-0.046875 c -0.1875,0.96875 -0.359375,1.875 -0.875,1.875 -0.046875,0 -0.28125,0 -0.484375,-0.1875 C 1.359375,1.609375 1.453125,1.25 1.453125,1.109375 1.453125,0.875 1.265625,0.75 1.078125,0.75 0.8125,0.75 0.53125,0.984375 0.53125,1.359375 c 0,0.4375 0.4375,0.6875 0.84375,0.6875 0.546875,0 0.953125,-0.59375 1.125,-0.96875 0.328125,-0.625 0.546875,-1.828125 0.5625,-1.90625 z m 0,0"
             style="fill:#19a974;stroke:none;stroke-width:0"
             inkscape:connector-curvature="0" />
        </g>
        <g
           id="g2170"
           style="fill:#000000;fill-opacity:1"
           transform="matrix(0.63066447,0,0,0.63066447,-62.875992,199.34452)">
          <path
             id="path2168"
             transform="translate(154.662,134.765)"
             d="m 3.296875,2.390625 c 0,-0.03125 0,-0.046875 -0.171875,-0.21875 C 1.890625,0.921875 1.5625,-0.96875 1.5625,-2.5 c 0,-1.734375 0.375,-3.46875 1.609375,-4.703125 0.125,-0.125 0.125,-0.140625 0.125,-0.171875 0,-0.078125 -0.03125,-0.109375 -0.09375,-0.109375 -0.109375,0 -1,0.6875 -1.59375,1.953125 -0.5,1.09375 -0.625,2.203125 -0.625,3.03125 0,0.78125 0.109375,1.984375 0.65625,3.125 C 2.25,1.84375 3.09375,2.5 3.203125,2.5 c 0.0625,0 0.09375,-0.03125 0.09375,-0.109375 z m 0,0"
             style="fill:#19a974;stroke:none;stroke-width:0"
             inkscape:connector-curvature="0" />
        </g>
        <g
           id="g2174"
           style="fill:#000000;fill-opacity:1"
           transform="matrix(0.63066447,0,0,0.63066447,-62.875992,199.34452)">
          <path
             id="path2172"
             transform="translate(158.537,134.765)"
             d="M 3.328125,-3.015625 C 3.390625,-3.265625 3.625,-4.1875 4.3125,-4.1875 c 0.046875,0 0.296875,0 0.5,0.125 C 4.53125,-4 4.34375,-3.765625 4.34375,-3.515625 c 0,0.15625 0.109375,0.34375 0.375,0.34375 0.21875,0 0.53125,-0.171875 0.53125,-0.578125 0,-0.515625 -0.578125,-0.65625 -0.921875,-0.65625 -0.578125,0 -0.921875,0.53125 -1.046875,0.75 -0.25,-0.65625 -0.78125,-0.75 -1.078125,-0.75 -1.03125,0 -1.609375,1.28125 -1.609375,1.53125 0,0.109375 0.109375,0.109375 0.125,0.109375 0.078125,0 0.109375,-0.03125 0.125,-0.109375 0.34375,-1.0625 1,-1.3125 1.34375,-1.3125 0.1875,0 0.53125,0.09375 0.53125,0.671875 0,0.3125 -0.171875,0.96875 -0.53125,2.375 -0.15625,0.609375 -0.515625,1.03125 -0.953125,1.03125 -0.0625,0 -0.28125,0 -0.5,-0.125 0.25,-0.0625 0.46875,-0.265625 0.46875,-0.546875 0,-0.265625 -0.21875,-0.34375 -0.359375,-0.34375 -0.3125,0 -0.546875,0.25 -0.546875,0.578125 0,0.453125 0.484375,0.65625 0.921875,0.65625 0.671875,0 1.03125,-0.703125 1.046875,-0.75 0.125,0.359375 0.484375,0.75 1.078125,0.75 1.03125,0 1.59375,-1.28125 1.59375,-1.53125 0,-0.109375 -0.078125,-0.109375 -0.109375,-0.109375 -0.09375,0 -0.109375,0.046875 -0.140625,0.109375 -0.328125,1.078125 -1,1.3125 -1.3125,1.3125 -0.390625,0 -0.546875,-0.3125 -0.546875,-0.65625 0,-0.21875 0.046875,-0.4375 0.15625,-0.875 z m 0,0"
             style="fill:#ff6300;stroke:none;stroke-width:0"
             inkscape:connector-curvature="0" />
        </g>
        <g
           id="g2178"
           style="fill:#000000;fill-opacity:1"
           transform="matrix(0.63066447,0,0,0.63066447,-62.875992,199.34452)">
          <path
             id="path2176"
             transform="translate(164.231,134.765)"
             d="m 2.875,-2.5 c 0,-0.765625 -0.109375,-1.96875 -0.65625,-3.109375 -0.59375,-1.21875 -1.453125,-1.875 -1.546875,-1.875 -0.0625,0 -0.109375,0.046875 -0.109375,0.109375 0,0.03125 0,0.046875 0.1875,0.234375 0.984375,0.984375 1.546875,2.5625 1.546875,4.640625 0,1.71875 -0.359375,3.46875 -1.59375,4.71875 C 0.5625,2.34375 0.5625,2.359375 0.5625,2.390625 0.5625,2.453125 0.609375,2.5 0.671875,2.5 0.765625,2.5 1.671875,1.8125 2.25,0.546875 2.765625,-0.546875 2.875,-1.65625 2.875,-2.5 Z m 0,0"
             style="fill:#19a974;stroke:none;stroke-width:0"
             inkscape:connector-curvature="0" />
        </g>
        <g
           id="g2182"
           style="fill:#000000;fill-opacity:1"
           transform="matrix(0.63066447,0,0,0.63066447,-62.875992,199.34452)">
          <path
             id="path2180"
             transform="translate(170.87506,134.765)"
             d="m 6.84375,-3.265625 c 0.15625,0 0.34375,0 0.34375,-0.1875 C 7.1875,-3.65625 7,-3.65625 6.859375,-3.65625 h -5.96875 c -0.140625,0 -0.328125,0 -0.328125,0.203125 0,0.1875 0.1875,0.1875 0.328125,0.1875 z m 0.015625,1.9375 c 0.140625,0 0.328125,0 0.328125,-0.203125 0,-0.1875 -0.1875,-0.1875 -0.34375,-0.1875 H 0.890625 c -0.140625,0 -0.328125,0 -0.328125,0.1875 0,0.203125 0.1875,0.203125 0.328125,0.203125 z m 0,0"
             style="fill:#555555;stroke:none;stroke-width:0"
             inkscape:connector-curvature="0" />
        </g>
      </g>
      <g
         transform="matrix(0.63066447,0,0,0.63066447,-94.885691,199.30336)"
         style="fill:#000000;fill-opacity:1"
         id="g2210">
        <path
           inkscape:connector-curvature="0"
           style="fill:#555555;stroke:none;stroke-width:0"
           d="m 2.53125,-3.65625 c 0.5625,-0.65625 0.875,-1.375 0.875,-1.453125 0,-0.125 -0.109375,-0.125 -0.203125,-0.125 -0.15625,0 -0.15625,0.015625 -0.25,0.203125 C 2.546875,-4.109375 1.8125,-3.1875 0.515625,-2.625 0.375,-2.578125 0.34375,-2.5625 0.34375,-2.5 c 0,0.03125 0,0.046875 0,0.0625 C 0.375,-2.40625 0.375,-2.40625 0.578125,-2.3125 1.671875,-1.859375 2.5,-1 3,0.15625 3.046875,0.234375 3.078125,0.25 3.203125,0.25 c 0.09375,0 0.203125,0 0.203125,-0.125 0,-0.078125 -0.3125,-0.796875 -0.875,-1.453125 H 7.421875 C 6.859375,-0.671875 6.5625,0.046875 6.5625,0.125 6.5625,0.25 6.671875,0.25 6.765625,0.25 6.90625,0.25 6.90625,0.234375 7,0.046875 7.40625,-0.875 8.140625,-1.796875 9.453125,-2.359375 9.59375,-2.40625 9.625,-2.421875 9.625,-2.5 c 0,-0.015625 0,-0.03125 -0.015625,-0.046875 C 9.59375,-2.578125 9.578125,-2.578125 9.375,-2.671875 8.28125,-3.125 7.46875,-3.984375 6.953125,-5.140625 6.921875,-5.21875 6.875,-5.234375 6.765625,-5.234375 c -0.09375,0 -0.203125,0 -0.203125,0.125 0,0.078125 0.296875,0.796875 0.859375,1.453125 z m -0.390625,1.9375 C 1.84375,-2.015625 1.5,-2.25 1.09375,-2.5 1.640625,-2.8125 1.9375,-3.0625 2.140625,-3.265625 H 7.8125 C 8.109375,-2.96875 8.453125,-2.734375 8.859375,-2.5 8.3125,-2.171875 8.015625,-1.921875 7.8125,-1.71875 Z m 0,0"
           transform="translate(221.233,134.765)"
           id="path2208" />
      </g>
      <g
         transform="translate(-32.009699,-0.04116264)"
         id="g2473">
        <g
           id="g2214"
           style="fill:#000000;fill-opacity:1"
           transform="matrix(0.63066447,0,0,0.63066447,-62.875992,199.34452)" />
        <g
           id="g2220"
           style="fill:#000000;fill-opacity:1"
           transform="matrix(0.63066447,0,0,0.63066447,-62.875992,199.34452)">
          <path
             id="path2216"
             d="m 238.33166,131.74938 c 0.0625,-0.25 0.29687,-1.17188 0.98437,-1.17188 0.0469,0 0.29688,0 0.5,0.125 -0.28125,0.0625 -0.46875,0.29688 -0.46875,0.54688 0,0.15625 0.10938,0.34375 0.375,0.34375 0.21875,0 0.53125,-0.17188 0.53125,-0.57813 0,-0.51562 -0.57812,-0.65625 -0.92187,-0.65625 -0.57813,0 -0.92188,0.53125 -1.04688,0.75 -0.25,-0.65625 -0.78125,-0.75 -1.07812,-0.75 -1.03125,0 -1.60938,1.28125 -1.60938,1.53125 0,0.10938 0.10938,0.10938 0.125,0.10938 0.0781,0 0.10938,-0.0312 0.125,-0.10938 0.34375,-1.0625 1,-1.3125 1.34375,-1.3125 0.1875,0 0.53125,0.0937 0.53125,0.67188 0,0.3125 -0.17187,0.96875 -0.53125,2.375 -0.15625,0.60937 -0.51562,1.03125 -0.95312,1.03125 -0.0625,0 -0.28125,0 -0.5,-0.125 0.25,-0.0625 0.46875,-0.26563 0.46875,-0.54688 0,-0.26562 -0.21875,-0.34375 -0.35938,-0.34375 -0.3125,0 -0.54687,0.25 -0.54687,0.57813 0,0.45312 0.48437,0.65625 0.92187,0.65625 0.67188,0 1.03125,-0.70313 1.04688,-0.75 0.125,0.35937 0.48437,0.75 1.07812,0.75 1.03125,0 1.59375,-1.28125 1.59375,-1.53125 0,-0.10938 -0.0781,-0.10938 -0.10937,-0.10938 -0.0937,0 -0.10938,0.0469 -0.14063,0.10938 -0.32812,1.07812 -1,1.3125 -1.3125,1.3125 -0.39062,0 -0.54687,-0.3125 -0.54687,-0.65625 0,-0.21875 0.0469,-0.4375 0.15625,-0.875 z m 0,0"
             style="fill:#ff6300;stroke:none;stroke-width:0"
             inkscape:connector-curvature="0" />
        </g>
        <g
           id="g2228"
           style="fill:#000000;fill-opacity:1"
           transform="matrix(0.63066447,0,0,0.63066447,-62.875992,199.34452)" />
      </g>
      <g
         transform="translate(22.848576,-0.06624024)"
         id="g2462">
        <g
           id="g2232"
           style="fill:#000000;fill-opacity:1"
           transform="matrix(0.63066447,0,0,0.63066447,-62.875992,199.34452)">
          <path
             id="path2230"
             transform="translate(257.075,134.765)"
             d="m 3.65625,-3.984375 h 0.859375 c 0.203125,0 0.296875,0 0.296875,-0.203125 0,-0.109375 -0.09375,-0.109375 -0.265625,-0.109375 H 3.71875 L 3.921875,-5.4375 c 0.046875,-0.203125 0.1875,-0.90625 0.25,-1.03125 0.078125,-0.1875 0.25,-0.34375 0.46875,-0.34375 0.03125,0 0.296875,0 0.484375,0.1875 -0.4375,0.03125 -0.546875,0.390625 -0.546875,0.53125 0,0.234375 0.1875,0.359375 0.375,0.359375 C 5.21875,-5.734375 5.5,-5.96875 5.5,-6.34375 c 0,-0.453125 -0.453125,-0.6875 -0.859375,-0.6875 -0.34375,0 -0.96875,0.1875 -1.265625,1.171875 -0.0625,0.203125 -0.09375,0.3125 -0.328125,1.5625 h -0.6875 c -0.203125,0 -0.3125,0 -0.3125,0.1875 0,0.125 0.09375,0.125 0.28125,0.125 h 0.65625 L 2.25,-0.046875 c -0.1875,0.96875 -0.359375,1.875 -0.875,1.875 -0.046875,0 -0.28125,0 -0.484375,-0.1875 C 1.359375,1.609375 1.453125,1.25 1.453125,1.109375 1.453125,0.875 1.265625,0.75 1.078125,0.75 0.8125,0.75 0.53125,0.984375 0.53125,1.359375 c 0,0.4375 0.4375,0.6875 0.84375,0.6875 0.546875,0 0.953125,-0.59375 1.125,-0.96875 0.328125,-0.625 0.546875,-1.828125 0.5625,-1.90625 z m 0,0"
             style="fill:#19a974;stroke:none;stroke-width:0"
             inkscape:connector-curvature="0" />
        </g>
        <g
           id="g2236"
           style="fill:#000000;fill-opacity:1"
           transform="matrix(0.63066447,0,0,0.63066447,-62.875992,199.34452)">
          <path
             id="path2234"
             transform="translate(263.025,134.765)"
             d="m 3.296875,2.390625 c 0,-0.03125 0,-0.046875 -0.171875,-0.21875 C 1.890625,0.921875 1.5625,-0.96875 1.5625,-2.5 c 0,-1.734375 0.375,-3.46875 1.609375,-4.703125 0.125,-0.125 0.125,-0.140625 0.125,-0.171875 0,-0.078125 -0.03125,-0.109375 -0.09375,-0.109375 -0.109375,0 -1,0.6875 -1.59375,1.953125 -0.5,1.09375 -0.625,2.203125 -0.625,3.03125 0,0.78125 0.109375,1.984375 0.65625,3.125 C 2.25,1.84375 3.09375,2.5 3.203125,2.5 c 0.0625,0 0.09375,-0.03125 0.09375,-0.109375 z m 0,0"
             style="fill:#19a974;stroke:none;stroke-width:0"
             inkscape:connector-curvature="0" />
        </g>
        <g
           id="g2240"
           style="fill:#000000;fill-opacity:1"
           transform="matrix(0.63066447,0,0,0.63066447,-62.875992,199.34452)">
          <path
             id="path2238"
             transform="translate(266.9,134.765)"
             d="M 3.328125,-3.015625 C 3.390625,-3.265625 3.625,-4.1875 4.3125,-4.1875 c 0.046875,0 0.296875,0 0.5,0.125 C 4.53125,-4 4.34375,-3.765625 4.34375,-3.515625 c 0,0.15625 0.109375,0.34375 0.375,0.34375 0.21875,0 0.53125,-0.171875 0.53125,-0.578125 0,-0.515625 -0.578125,-0.65625 -0.921875,-0.65625 -0.578125,0 -0.921875,0.53125 -1.046875,0.75 -0.25,-0.65625 -0.78125,-0.75 -1.078125,-0.75 -1.03125,0 -1.609375,1.28125 -1.609375,1.53125 0,0.109375 0.109375,0.109375 0.125,0.109375 0.078125,0 0.109375,-0.03125 0.125,-0.109375 0.34375,-1.0625 1,-1.3125 1.34375,-1.3125 0.1875,0 0.53125,0.09375 0.53125,0.671875 0,0.3125 -0.171875,0.96875 -0.53125,2.375 -0.15625,0.609375 -0.515625,1.03125 -0.953125,1.03125 -0.0625,0 -0.28125,0 -0.5,-0.125 0.25,-0.0625 0.46875,-0.265625 0.46875,-0.546875 0,-0.265625 -0.21875,-0.34375 -0.359375,-0.34375 -0.3125,0 -0.546875,0.25 -0.546875,0.578125 0,0.453125 0.484375,0.65625 0.921875,0.65625 0.671875,0 1.03125,-0.703125 1.046875,-0.75 0.125,0.359375 0.484375,0.75 1.078125,0.75 1.03125,0 1.59375,-1.28125 1.59375,-1.53125 0,-0.109375 -0.078125,-0.109375 -0.109375,-0.109375 -0.09375,0 -0.109375,0.046875 -0.140625,0.109375 -0.328125,1.078125 -1,1.3125 -1.3125,1.3125 -0.390625,0 -0.546875,-0.3125 -0.546875,-0.65625 0,-0.21875 0.046875,-0.4375 0.15625,-0.875 z m 0,0"
             style="fill:#19a974;stroke:none;stroke-width:0"
             inkscape:connector-curvature="0" />
        </g>
        <g
           id="g2244"
           style="fill:#000000;fill-opacity:1"
           transform="matrix(0.63066447,0,0,0.63066447,-62.875992,199.34452)">
          <path
             id="path2242"
             transform="translate(272.594,134.765)"
             d="m 2.875,-2.5 c 0,-0.765625 -0.109375,-1.96875 -0.65625,-3.109375 -0.59375,-1.21875 -1.453125,-1.875 -1.546875,-1.875 -0.0625,0 -0.109375,0.046875 -0.109375,0.109375 0,0.03125 0,0.046875 0.1875,0.234375 0.984375,0.984375 1.546875,2.5625 1.546875,4.640625 0,1.71875 -0.359375,3.46875 -1.59375,4.71875 C 0.5625,2.34375 0.5625,2.359375 0.5625,2.390625 0.5625,2.453125 0.609375,2.5 0.671875,2.5 0.765625,2.5 1.671875,1.8125 2.25,0.546875 2.765625,-0.546875 2.875,-1.65625 2.875,-2.5 Z m 0,0"
             style="fill:#19a974;stroke:none;stroke-width:0"
             inkscape:connector-curvature="0" />
        </g>
      </g>
      <text
         id="text2321"
         y="284.63513"
         x="59.368366"
         style="font-style:normal;font-variant:normal;font-weight:normal;font-stretch:normal;font-size:6.34999943px;line-height:1.29999995;font-family:Quicksand;-inkscape-font-specification:'Quicksand, Normal';font-variant-ligatures:normal;font-variant-position:normal;font-variant-caps:normal;font-variant-numeric:normal;font-variant-alternates:normal;font-feature-settings:normal;text-indent:0;text-align:start;text-decoration:none;text-decoration-line:none;text-decoration-style:solid;text-decoration-color:#000000;letter-spacing:0px;word-spacing:0px;text-transform:none;writing-mode:lr-tb;direction:ltr;text-orientation:mixed;dominant-baseline:auto;baseline-shift:baseline;text-anchor:start;white-space:normal;shape-padding:0;opacity:1;vector-effect:none;fill:#555555;fill-opacity:1;stroke:none;stroke-width:0.71912855px;stroke-linecap:butt;stroke-linejoin:miter;stroke-miterlimit:4;stroke-dasharray:none;stroke-dashoffset:0;stroke-opacity:1"
         xml:space="preserve"><tspan
           style="text-align:start;text-anchor:start;stroke-width:0.71912855px"
           y="284.63513"
           x="59.368366"
           id="tspan2319"
           sodipodi:role="line">is een nulwaarde van</tspan></text>
      <path
         id="path3126-3"
         d="m 42.236885,282.73786 c 0,-0.50117 -0.02948,-1.00234 -0.245673,-1.46421 -0.284981,-0.60927 -0.805808,-0.70754 -1.061308,-0.70754 -0.38325,0 -0.835288,0.16706 -1.100615,0.74685 -0.196539,0.43238 -0.226019,0.92373 -0.226019,1.4249 0,0.4717 0.01965,1.03183 0.28498,1.51335 0.265327,0.50117 0.727193,0.62892 1.031827,0.62892 0.334116,0 0.815635,-0.12775 1.090789,-0.72719 0.196538,-0.43238 0.226019,-0.92373 0.226019,-1.41508 z m -1.316808,2.0047 c -0.245673,0 -0.619096,-0.15723 -0.727192,-0.75668 -0.06879,-0.37342 -0.06879,-0.95321 -0.06879,-1.32663 0,-0.40291 0,-0.81564 0.04913,-1.14975 0.117923,-0.74685 0.589615,-0.80581 0.746846,-0.80581 0.206365,0 0.619096,0.11792 0.737019,0.73702 0.06879,0.35377 0.06879,0.82546 0.06879,1.21854 0,0.47169 0,0.89425 -0.06879,1.29715 -0.09827,0.59944 -0.452038,0.78616 -0.737019,0.78616 z m 0,0"
         style="display:inline;fill:#555555;fill-opacity:1;stroke:none;stroke-width:0"
         inkscape:connector-curvature="0" />
    </g>
  </g>
</svg>
