<?xml version="1.0" encoding="UTF-8" standalone="no"?>
<!-- Created with Inkscape (http://www.inkscape.org/) -->

<svg
   xmlns:dc="http://purl.org/dc/elements/1.1/"
   xmlns:cc="http://creativecommons.org/ns#"
   xmlns:rdf="http://www.w3.org/1999/02/22-rdf-syntax-ns#"
   xmlns:svg="http://www.w3.org/2000/svg"
   xmlns="http://www.w3.org/2000/svg"
   xmlns:sodipodi="http://sodipodi.sourceforge.net/DTD/sodipodi-0.dtd"
   xmlns:inkscape="http://www.inkscape.org/namespaces/inkscape"
   width="6.121273mm"
   height="10.733932mm"
   viewBox="0 0 6.121273 10.733932"
   version="1.1"
   id="svg906"
   inkscape:version="0.92.4 (unknown)"
   sodipodi:docname="lamp_broken.svg"
   inkscape:export-filename="/home/fdf/projects/hoezithet/static/images/lamp_broken.png"
   inkscape:export-xdpi="299.957"
   inkscape:export-ydpi="299.957">
  <defs
     id="defs900" />
  <sodipodi:namedview
     id="base"
     pagecolor="#ffffff"
     bordercolor="#666666"
     borderopacity="1.0"
     inkscape:pageopacity="0.0"
     inkscape:pageshadow="2"
     inkscape:zoom="15.839192"
     inkscape:cx="8.5382087"
     inkscape:cy="15.956728"
     inkscape:document-units="mm"
     inkscape:current-layer="layer1"
     showgrid="false"
     inkscape:window-width="1920"
     inkscape:window-height="1055"
     inkscape:window-x="1600"
     inkscape:window-y="25"
     inkscape:window-maximized="1"
     inkscape:snap-global="false" />
  <metadata
     id="metadata903">
    <rdf:RDF>
      <cc:Work
         rdf:about="">
        <dc:format>image/svg+xml</dc:format>
        <dc:type
           rdf:resource="http://purl.org/dc/dcmitype/StillImage" />
        <dc:title></dc:title>
      </cc:Work>
    </rdf:RDF>
  </metadata>
  <g
     inkscape:label="Layer 1"
     inkscape:groupmode="layer"
     id="layer1"
     transform="translate(-89.921506,-110.96042)">
    <path
       style="fill:#555555;fill-opacity:1;stroke:none;stroke-width:0.67027771;stroke-linecap:round;stroke-linejoin:round;stroke-miterlimit:4;stroke-dasharray:none;stroke-dashoffset:0;stroke-opacity:1;paint-order:markers stroke fill"
       d="m 94.253284,121.17088 -0.343131,-0.786 -0.700733,0.091 -0.42323,0.45786 c 0.121006,0.10078 0.248192,0.19712 0.40411,0.25683 0.05198,0.0199 0.108756,0.027 0.160714,0.047 0.305051,0.0742 0.619886,0.0419 0.90227,-0.0667 z"
       id="path862"
       inkscape:connector-curvature="0" />
    <path
       style="fill:#555555;fill-opacity:1;stroke:none;stroke-width:0.67027771;stroke-linecap:round;stroke-linejoin:round;stroke-miterlimit:4;stroke-dasharray:none;stroke-dashoffset:0;stroke-opacity:1;paint-order:markers stroke fill"
       d="m 95.131758,117.84884 -0.987537,0.66714 0.106453,0.93535 -0.240295,0.0315 0.343132,0.786 c 0.310509,-0.11935 0.581817,-0.33208 0.749308,-0.62684 0.214215,-0.36488 0.254572,-0.7817 0.127124,-1.18804 -0.06175,-0.20459 -0.08214,-0.40528 -0.09819,-0.60513 z"
       id="path852"
       inkscape:connector-curvature="0" />
    <path
       style="fill:#555555;fill-opacity:1;stroke:none;stroke-width:0.67027771;stroke-linecap:round;stroke-linejoin:round;stroke-miterlimit:4;stroke-dasharray:none;stroke-dashoffset:0;stroke-opacity:1;paint-order:markers stroke fill"
       d="m 91.996795,120.87996 0.05513,-0.89173 -0.522764,-0.69693 c -0.0798,0.0887 -0.163921,0.17481 -0.220469,0.27981 -0.304673,0.56598 -0.188364,1.23906 0.231257,1.69088 z"
       id="path857"
       inkscape:connector-curvature="0" />
    <path
       style="fill:#555555;fill-opacity:1;stroke:none;stroke-width:2.53333306;stroke-linecap:round;stroke-linejoin:round;stroke-miterlimit:4;stroke-dasharray:none;stroke-dashoffset:0;stroke-opacity:1;paint-order:markers stroke fill"
       d="M 9.3066406 20.378906 C 9.2014564 22.324418 8.5179555 24.162327 7.3085938 25.582031 C 6.7557804 26.238477 6.4330472 27.045117 6.2285156 27.884766 L 9.2167969 29.267578 L 10.630859 32.333984 L 10.669922 32.236328 L 13.826172 30.53125 L 12.185547 27.375 L 14.769531 23.683594 C 14.262326 22.622443 13.894046 21.530124 13.830078 20.378906 L 9.3066406 20.378906 z "
       id="rect1013-8"
       transform="matrix(0.26458333,0,0,0.26458333,89.921506,110.96042)" />
    <path
       inkscape:connector-curvature="0"
       id="path1097-0"
       d="m 92.986737,114.85662 v -3.62785"
       style="fill:none;stroke:#000000;stroke-width:0.52916664;stroke-linecap:round;stroke-linejoin:miter;stroke-miterlimit:4;stroke-dasharray:none;stroke-opacity:1" />
    <rect
       ry="0.3674956"
       y="114.54536"
       x="92.22171"
       height="2.149302"
       width="1.5211308"
       id="rect5341"
       style="fill:#000000;fill-opacity:1;stroke:none;stroke-width:0.52916664;stroke-linecap:round;stroke-linejoin:round;stroke-miterlimit:4;stroke-dasharray:none;stroke-dashoffset:0;stroke-opacity:1;paint-order:markers stroke fill"
       rx="0.3674956" />
  </g>
</svg>
