<?xml version="1.0" encoding="UTF-8" standalone="no"?>
<!-- Created with Inkscape (http://www.inkscape.org/) -->

<svg
   xmlns:dc="http://purl.org/dc/elements/1.1/"
   xmlns:cc="http://creativecommons.org/ns#"
   xmlns:rdf="http://www.w3.org/1999/02/22-rdf-syntax-ns#"
   xmlns:svg="http://www.w3.org/2000/svg"
   xmlns="http://www.w3.org/2000/svg"
   xmlns:sodipodi="http://sodipodi.sourceforge.net/DTD/sodipodi-0.dtd"
   xmlns:inkscape="http://www.inkscape.org/namespaces/inkscape"
   width="6.121273mm"
   height="10.733932mm"
   viewBox="0 0 6.121273 10.733932"
   version="1.1"
   id="svg906"
   inkscape:version="0.92.4 (unknown)"
   sodipodi:docname="lamp_on.svg"
   inkscape:export-filename="/home/fdf/projects/hoezithet/static/images/lamp_on.png"
   inkscape:export-xdpi="299.957"
   inkscape:export-ydpi="299.957">
  <defs
     id="defs900" />
  <sodipodi:namedview
     id="base"
     pagecolor="#ffffff"
     bordercolor="#666666"
     borderopacity="1.0"
     inkscape:pageopacity="0.0"
     inkscape:pageshadow="2"
     inkscape:zoom="11.2"
     inkscape:cx="13.929088"
     inkscape:cy="20.723585"
     inkscape:document-units="mm"
     inkscape:current-layer="layer1"
     showgrid="false"
     inkscape:window-width="1920"
     inkscape:window-height="1055"
     inkscape:window-x="1600"
     inkscape:window-y="25"
     inkscape:window-maximized="1" />
  <metadata
     id="metadata903">
    <rdf:RDF>
      <cc:Work
         rdf:about="">
        <dc:format>image/svg+xml</dc:format>
        <dc:type
           rdf:resource="http://purl.org/dc/dcmitype/StillImage" />
        <dc:title />
      </cc:Work>
    </rdf:RDF>
  </metadata>
  <g
     inkscape:label="Layer 1"
     inkscape:groupmode="layer"
     id="layer1"
     transform="translate(-89.921506,-110.96042)">
    <path
       sodipodi:nodetypes="ccssccccc"
       style="fill:#ffb700;fill-opacity:1;stroke:none;stroke-width:0.67027771;stroke-linecap:round;stroke-linejoin:round;stroke-miterlimit:4;stroke-dasharray:none;stroke-dashoffset:0;stroke-opacity:1;paint-order:markers stroke fill"
       d="m 92.383961,116.35213 c -0.02783,0.51475 -0.20854,1.00142 -0.528517,1.37705 -0.222592,0.26432 -0.347664,0.61223 -0.347664,0.96003 0,0.8069 0.653689,1.47449 1.474496,1.47449 0.05565,0 0.11116,-0.0136 0.166808,-0.0136 0.653862,-0.0835 1.196695,-0.59838 1.29408,-1.23834 0.06956,-0.41735 -0.04163,-0.82103 -0.305963,-1.15492 -0.333886,-0.43127 -0.528782,-0.90387 -0.556611,-1.4047 z"
       id="rect1013-8"
       inkscape:connector-curvature="0" />
    <path
       style="fill:#ffb700;stroke-width:0.20629536"
       id="path922-7"
       d="m 90.060625,118.77283 h 0.792984 c 0.08348,0 0.139119,-0.0556 0.139119,-0.13913 0,-0.0835 -0.05565,-0.13911 -0.139119,-0.13911 h -0.792984 c -0.08347,0 -0.139119,0.0556 -0.139119,0.13911 0,0.0835 0.06956,0.13913 0.139119,0.13913 z"
       inkscape:connector-curvature="0" />
    <path
       style="fill:#ffb700;stroke-width:0.20629536"
       id="path924-2"
       d="m 94.971556,118.6337 c 0,0.0835 0.05565,0.13913 0.139119,0.13913 h 0.792984 c 0.08347,0 0.13912,-0.0556 0.13912,-0.13913 0,-0.0835 -0.05565,-0.13911 -0.13912,-0.13911 h -0.792984 c -0.08347,0 -0.139119,0.0696 -0.139119,0.13911 z"
       inkscape:connector-curvature="0" />
    <path
       style="fill:#ffb700;stroke-width:0.20629536"
       id="path926-6"
       d="m 92.982142,120.66486 c -0.08347,0 -0.139119,0.0556 -0.139119,0.13912 v 0.75124 c 0,0.0835 0.05565,0.13913 0.139119,0.13913 0.08348,0 0.13912,-0.0556 0.13912,-0.13913 v -0.75124 c 0,-0.0835 -0.05565,-0.13912 -0.13912,-0.13912 z"
       inkscape:connector-curvature="0" />
    <path
       style="fill:#ffb700;stroke-width:0.20629536"
       id="path928-6"
       d="m 91.465736,120.011 c -0.04173,0 -0.06956,0.0139 -0.09738,0.0417 l -0.542568,0.54258 c -0.05565,0.0556 -0.05565,0.13911 0,0.19476 0.05565,0.0556 0.139119,0.0556 0.194767,0 l 0.542568,-0.54256 c 0.05565,-0.0556 0.05565,-0.13913 0,-0.19478 -0.02783,-0.0278 -0.06956,-0.0417 -0.09738,-0.0417 z"
       inkscape:connector-curvature="0" />
    <path
       style="fill:#ffb700;stroke-width:0.20629536"
       id="path930-2"
       d="m 94.387252,117.22859 c 0.05565,0.0556 0.139121,0.0556 0.194769,0 l 0.556478,-0.55647 c 0.05565,-0.0556 0.05565,-0.13913 0,-0.19478 -0.06956,-0.0556 -0.125207,-0.0556 -0.194765,0 l -0.556482,0.55648 c -0.05565,0.0556 -0.05565,0.13913 0,0.19477 z"
       inkscape:connector-curvature="0" />
    <path
       style="fill:#ffb700;stroke-width:0.20629536"
       id="path932-9"
       d="m 90.811872,116.67212 0.570392,0.57039 c 0.05565,0.0556 0.139121,0.0556 0.194768,0 0.05565,-0.0556 0.05565,-0.13913 0,-0.19477 l -0.570391,-0.5704 c -0.06956,-0.0556 -0.139121,-0.0556 -0.194769,0 -0.04173,0.0417 -0.04173,0.13913 0,0.19478 z"
       inkscape:connector-curvature="0" />
    <path
       style="fill:#ffb700;stroke-width:0.20629536"
       id="path934-7"
       d="m 94.609845,120.06664 c -0.02783,-0.0279 -0.06956,-0.0417 -0.09739,-0.0417 -0.04173,0 -0.06956,0.0139 -0.09738,0.0417 -0.05565,0.0556 -0.05565,0.13912 0,0.19477 l 0.528658,0.54257 c 0.05565,0.0556 0.139119,0.0556 0.194765,0 0.05565,-0.0556 0.05565,-0.13912 0,-0.19477 z"
       inkscape:connector-curvature="0" />
    <path
       inkscape:connector-curvature="0"
       id="path1097-0"
       d="m 92.986737,114.85662 v -3.62785"
       style="fill:none;stroke:#000000;stroke-width:0.52916664;stroke-linecap:round;stroke-linejoin:miter;stroke-miterlimit:4;stroke-dasharray:none;stroke-opacity:1" />
    <rect
       ry="0.3674956"
       y="114.54536"
       x="92.22171"
       height="2.149302"
       width="1.5211308"
       id="rect5341"
       style="fill:#000000;fill-opacity:1;stroke:none;stroke-width:0.52916664;stroke-linecap:round;stroke-linejoin:round;stroke-miterlimit:4;stroke-dasharray:none;stroke-dashoffset:0;stroke-opacity:1;paint-order:markers stroke fill"
       rx="0.3674956" />
  </g>
</svg>
