<?xml version="1.0" encoding="UTF-8" standalone="no"?>
<svg
   xmlns:dc="http://purl.org/dc/elements/1.1/"
   xmlns:cc="http://creativecommons.org/ns#"
   xmlns:rdf="http://www.w3.org/1999/02/22-rdf-syntax-ns#"
   xmlns:svg="http://www.w3.org/2000/svg"
   xmlns="http://www.w3.org/2000/svg"
   xmlns:sodipodi="http://sodipodi.sourceforge.net/DTD/sodipodi-0.dtd"
   xmlns:inkscape="http://www.inkscape.org/namespaces/inkscape"
   inkscape:export-ydpi="95.850235"
   inkscape:export-xdpi="95.850235"
   inkscape:export-filename="D:\Hoe Zit Het\hoezithet\content\lessen\fysica\beweging\verplaatsing\img\baan.png"
   sodipodi:docname="baan.svg"
   inkscape:version="1.0 (4035a4fb49, 2020-05-01)"
   id="svg4623"
   version="1.1"
   viewBox="0 0 1923 694.09125"
   height="694.09125"
   width="1923">
  <defs
     id="defs4617">
    <inkscape:path-effect
       lpeversion="1"
       is_visible="true"
       id="path-effect1433"
       effect="spiro" />
    <inkscape:path-effect
       lpeversion="1"
       is_visible="true"
       id="path-effect1425"
       effect="spiro" />
    <inkscape:path-effect
       lpeversion="1"
       is_visible="true"
       id="path-effect1421"
       effect="spiro" />
  </defs>
  <sodipodi:namedview
     inkscape:document-rotation="0"
     inkscape:snap-page="true"
     borderlayer="false"
     showborder="true"
     inkscape:showpageshadow="true"
     inkscape:snap-global="true"
     inkscape:pagecheckerboard="false"
     inkscape:guide-bbox="true"
     showguides="true"
     inkscape:window-maximized="1"
     inkscape:window-y="25"
     inkscape:window-x="1600"
     inkscape:window-height="1055"
     inkscape:window-width="1920"
     inkscape:snap-smooth-nodes="true"
     inkscape:object-paths="true"
     units="px"
     showgrid="false"
     inkscape:current-layer="layer2"
     inkscape:document-units="px"
     inkscape:cy="-22.649922"
     inkscape:cx="915.84594"
     inkscape:zoom="0.45254834"
     inkscape:pageshadow="2"
     inkscape:pageopacity="1"
     borderopacity="1.0"
     bordercolor="#666666"
     pagecolor="#f4f4f4"
     id="base">
    <sodipodi:guide
       inkscape:color="rgb(0,0,255)"
       inkscape:label=""
       inkscape:locked="false"
       id="guide818"
       orientation="1,0"
       position="1821.5,1.4999725" />
    <sodipodi:guide
       inkscape:color="rgb(0,0,255)"
       inkscape:label=""
       inkscape:locked="false"
       id="guide820"
       orientation="1,0"
       position="101.5,1.4999725" />
    <sodipodi:guide
       inkscape:color="rgb(0,0,255)"
       inkscape:label=""
       inkscape:locked="false"
       id="guide822"
       orientation="0,1"
       position="1.5,101.49997" />
    <sodipodi:guide
       inkscape:color="rgb(0,0,255)"
       inkscape:label=""
       inkscape:locked="false"
       id="guide922"
       orientation="0,1"
       position="1.5,981.49997" />
  </sodipodi:namedview>
  <metadata
     id="metadata4620">
    <rdf:RDF>
      <cc:Work
         rdf:about="">
        <dc:format>image/svg+xml</dc:format>
        <dc:type
           rdf:resource="http://purl.org/dc/dcmitype/StillImage" />
        <dc:title></dc:title>
      </cc:Work>
    </rdf:RDF>
  </metadata>
  <g
     sodipodi:insensitive="true"
     style="display:inline"
     transform="translate(6.6800203,-397.99127)"
     id="layer1"
     inkscape:groupmode="layer"
     inkscape:label="watermark">
    <g
       style="stroke-width:1.11578"
       transform="matrix(0.89623584,0,0,0.89623584,-1.2321384,28.09939)"
       id="g5353">
      <text
         id="text2653"
         y="218.67326"
         x="44.292774"
         style="font-style:normal;font-variant:normal;font-weight:normal;font-stretch:normal;font-size:28.0156px;line-height:1.3;font-family:Quicksand;-inkscape-font-specification:'Quicksand, Normal';font-variant-ligatures:normal;font-variant-position:normal;font-variant-caps:normal;font-variant-numeric:normal;font-variant-alternates:normal;font-feature-settings:normal;text-indent:0;text-align:center;text-decoration:none;text-decoration-line:none;text-decoration-style:solid;text-decoration-color:#000000;letter-spacing:0px;word-spacing:0px;text-transform:none;writing-mode:lr-tb;direction:ltr;text-orientation:mixed;dominant-baseline:auto;baseline-shift:baseline;text-anchor:middle;white-space:normal;shape-padding:0;opacity:1;vector-effect:none;fill:#555555;fill-opacity:1;stroke:none;stroke-width:3.17272px;stroke-linecap:butt;stroke-linejoin:miter;stroke-miterlimit:4;stroke-dasharray:none;stroke-dashoffset:0;stroke-opacity:1"
         xml:space="preserve" />
      <text
         id="text7806"
         y="1144.005"
         x="2102.0203"
         style="font-style:normal;font-variant:normal;font-weight:normal;font-stretch:normal;font-size:47.6065px;line-height:1.25;font-family:Quicksand;-inkscape-font-specification:Quicksand;text-align:end;letter-spacing:0px;word-spacing:0px;text-anchor:end;fill:#d3d3d3;fill-opacity:1;stroke:none;stroke-width:0.295216"
         xml:space="preserve"><tspan
           style="font-size:47.6065px;text-align:end;text-anchor:end;fill:#d3d3d3;stroke-width:0.295216"
           y="1144.005"
           x="2102.0203"
           id="tspan7804"
           sodipodi:role="line">Meer op: https://hoezithet.nu</tspan></text>
    </g>
  </g>
  <g
     transform="translate(6.6800203,-397.99127)"
     inkscape:label="Layer 1"
     id="layer2"
     inkscape:groupmode="layer">
    <path
       inkscape:original-d="m 230.75748,579.33255 c 78.6468,91.66767 155.2093,183.33433 232.8125,275 77.6032,91.66567 -62.499,66.66767 -93.75,100 -31.251,33.33233 42.7093,-218.749 64.0625,-328.125 21.3532,-109.376 504.16767,93.751 756.25002,140.625 252.0823,46.874 -266.66569,-13.54067 -400.00002,-20.3125 -133.3343,-6.77183 432.29272,-95.83233 648.43752,-143.75 216.1448,-47.91767 70.8343,-33.33233 106.25,-50 35.4157,-16.66767 70.8343,-12.499 106.25,-18.75"
       inkscape:path-effect="#path-effect1425"
       id="path1423"
       d="m 230.75748,579.33255 c 70.11688,-6.60278 142.67499,22.98509 188.1805,76.73657 45.50552,53.75148 62.7146,130.19734 44.632,198.26343 -6.20947,23.37353 -16.48724,45.97681 -32.3211,64.25708 -15.83386,18.28028 -37.53593,32.00051 -61.4289,35.74292 -19.8131,3.10337 -40.53085,-0.78707 -58.25147,-10.17694 -17.72062,-9.38986 -32.43208,-24.14137 -42.47436,-41.50059 -10.04228,-17.35922 -15.4728,-37.25149 -16.45424,-57.28213 -0.98144,-20.03064 2.42493,-40.18535 9.16914,-59.072 13.48841,-37.7733 39.95665,-69.8672 70.77159,-95.54207 30.81493,-25.67487 66.02146,-45.47106 101.30184,-64.55127 134.55173,-72.76778 281.09861,-138.95362 433.79061,-129.76282 76.346,4.5954 152.51411,29.04654 212.74131,76.19012 60.2271,47.14359 103.2061,117.99125 109.7181,194.1977 5.4082,63.28924 -15.0417,128.79298 -57.0992,176.39486 -42.0576,47.60189 -105.4976,76.13009 -168.97947,73.93279 -63.48187,-2.1973 -125.55148,-35.77535 -160.44507,-88.85278 -17.44679,-26.53872 -28.17612,-57.49576 -30.6168,-89.16178 -2.44068,-31.66602 3.44234,-63.97155 17.14052,-92.62559 25.11729,-52.54068 75.21367,-90.26613 129.99,-110.03869 54.77633,-19.77257 114.14602,-23.21757 172.33952,-21.00166 58.1936,2.21591 116.0938,9.88268 174.3058,11.54569 58.212,1.66301 117.6115,-2.92998 171.8022,-24.25534 36.4406,-14.34028 69.7084,-35.91904 106.25,-50 33.7681,-13.01223 70.0677,-19.41804 106.25,-18.75"
       style="font-variation-settings:normal;opacity:1;vector-effect:none;fill:none;fill-opacity:1;stroke:#ff6300;stroke-width:3;stroke-linecap:round;stroke-linejoin:miter;stroke-miterlimit:4;stroke-dasharray:3, 6;stroke-dashoffset:0;stroke-opacity:1;stop-color:#000000;stop-opacity:1" />
    <g
       style="stroke-width:1.20633"
       transform="matrix(0.63494874,0.53292868,-0.53292868,0.63494874,2168.9954,-148.62173)"
       id="g4">
      <path
         style="opacity:1;fill:#000000;fill-opacity:1;stroke:none;stroke-width:5.4525;stroke-linecap:round;stroke-linejoin:round;stroke-miterlimit:4;stroke-dasharray:none;stroke-dashoffset:0;stroke-opacity:1"
         d="m 44.120835,960.89628 a 2.9059377,2.9059377 0 0 0 -2.07838,4.9663 l 1.22076,1.2485 c -4.726,2.1817 -7.96276,6.312 -7.96276,9.6224 0,1.8451 1.01233,3.1561 2.71904,4.0734 -1.9823,-0.3646 -3.86722,-0.9302 -5.63721,-1.7554 -2.18349,-1.018 -4.22016,-2.4166 -6.134142,-4.3383 -0.957184,-0.9608 -1.879243,-2.0517 -2.769533,-3.2966 a 2.9059377,2.9059377 0 0 0 -2.494466,-1.2485 2.9059377,2.9059377 0 0 0 -2.234766,4.6258 c 1.06308,1.4864 2.191633,2.8252 3.382432,4.0205 2.380823,2.3904 5.010885,4.2049 7.796305,5.5036 1.17388,0.5473 2.37656,0.9857 3.59422,1.3594 -4.60306,0.4858 -9.419592,3.1265 -14.427378,8.1344 -5.085916,5.0859 -9.4766721,11.77992 -11.9782401,18.12492 -1.25072,3.1726 -2.036148,6.2594 -2.111179,9.1129 -0.0749,2.8536 0.60205,5.6164 2.560198,7.5744 1.95789,1.9581 4.7258741,2.6376 7.5793491,2.5627 2.853603,-0.075 5.93798,-0.863 9.11043,-2.1138 3.886852,-1.5322 7.90078,-3.7761 11.59985,-6.4518 -0.0336,0.7251 -0.0607,1.4482 -0.0607,2.159 0,13.6849 6.03716,19.0481 14.20538,19.0481 8.16849,0 14.20539,-5.3632 14.20539,-19.0481 0,-0.7108 -0.0258,-1.4339 -0.0607,-2.159 3.69934,2.6751 7.71598,4.9197 11.60232,6.4518 3.17258,1.2508 6.25437,2.0389 9.10797,2.1138 2.85348,0.075 5.62146,-0.6046 7.57935,-2.5627 1.95802,-1.958 2.6351,-4.7208 2.56007,-7.5744 -0.0749,-2.8535 -0.86291,-5.9403 -2.11363,-9.1129 -2.50131,-6.345 -6.88974,-13.03912 -11.97566,-18.12492 -5.00856,-5.0087 -9.82367,-7.6492 -14.42738,-8.1344 1.21779,-0.3737 2.42034,-0.8121 3.59423,-1.3594 2.78541,-1.2987 5.41548,-3.1132 7.7963,-5.5036 1.19067,-1.1953 2.31935,-2.5341 3.38243,-4.0205 a 2.9059377,2.9059377 0 0 0 -2.32051,-4.6258 2.9059377,2.9059377 0 0 0 -2.40627,1.2485 c -0.89029,1.2449 -1.81493,2.3358 -2.77198,3.2966 -1.91412,1.9217 -3.95323,3.3203 -6.1366,4.3383 -1.76935,0.8248 -3.65376,1.3883 -5.63476,1.753 1.70606,-0.9175 2.71904,-2.2263 2.71891,-4.071 0,-3.31 -3.23496,-7.4406 -7.96018,-9.6224 l 1.22076,-1.2485 a 2.9059377,2.9059377 0 0 0 -2.16917,-4.9639 2.9059377,2.9059377 0 0 0 -1.98746,0.9005 l -3.71535,3.801 c -0.0297,-2e-4 -0.0581,0 -0.0878,0 -0.031,0 -0.0607,0 -0.0904,0 l -3.71522,-3.801 a 2.9059377,2.9059377 0 0 0 -2.07334,-0.9029 z m -8.80772,29.2128 c 0.15251,0 0.2987,0.027 0.44889,0.038 -0.49009,1.8064 -0.7667,3.6322 -0.7667,5.3799 0,6.73742 3.75073,10.32762 9.38032,11.64282 -1.09936,2.0623 -2.76927,4.3078 -5.1909,6.7293 -4.59066,4.5908 -10.928457,8.7388 -16.586333,10.9694 -2.828938,1.1153 -5.488961,1.7437 -7.571858,1.7984 -2.082897,0.054 -3.449326,-0.4228 -4.265102,-1.2384 -0.8157771,-0.8158 -1.2906241,-2.1798 -1.2359981,-4.2627 0.05553,-2.0829 0.6806961,-4.7403 1.7959481,-7.5693 2.230633,-5.658 6.378477,-11.9981 10.96927,-16.58892 4.60332,-4.6034 8.595683,-6.5534 11.831923,-6.8555 0.4046,-0.037 0.8017,-0.052 1.19054,-0.043 z m 29.37673,0 c 0.38884,-0.013 0.78349,0 1.18809,0.043 3.23625,0.3021 7.22848,2.2521 11.83192,6.8555 4.59067,4.59072 8.73877,10.93102 10.96927,16.58902 1.11526,2.8289 1.74378,5.4863 1.79841,7.5692 0.0555,2.0829 -0.42268,3.4469 -1.23846,4.2627 -0.81577,0.8156 -2.1822,1.2931 -4.2651,1.2384 -2.0829,-0.054 -4.74034,-0.6831 -7.5694,-1.7984 -5.65788,-2.2306 -11.998,-6.3784 -16.58892,-10.9694 -2.42138,-2.4215 -4.09206,-4.6669 -5.19078,-6.7293 5.6305,-1.3148 9.38033,-4.9047 9.38033,-11.64272 0,-1.7478 -0.27661,-3.5736 -0.76683,-5.38 0.15109,-0.013 0.29818,-0.035 0.45147,-0.038 z"
         id="path2" />
    </g>
    <text
       transform="translate(149.50748,73.082547)"
       id="text1429"
       y="473.4375"
       x="1050"
       style="font-style:normal;font-variant:normal;font-weight:normal;font-stretch:normal;font-size:40px;line-height:1.25;font-family:Quicksand;-inkscape-font-specification:Quicksand;font-variant-ligatures:normal;font-variant-position:normal;font-variant-caps:normal;font-variant-numeric:normal;font-variant-alternates:normal;font-variant-east-asian:normal;font-feature-settings:normal;font-variation-settings:normal;text-indent:0;text-align:start;text-decoration:none;text-decoration-line:none;text-decoration-style:solid;text-decoration-color:#000000;letter-spacing:normal;word-spacing:normal;text-transform:none;writing-mode:lr-tb;direction:ltr;text-orientation:mixed;dominant-baseline:auto;baseline-shift:baseline;text-anchor:start;white-space:normal;shape-padding:0;shape-margin:0;inline-size:0;opacity:1;vector-effect:none;fill:#000000;fill-opacity:1;stroke-width:1;stroke-linecap:butt;stroke-linejoin:miter;stroke-miterlimit:4;stroke-dasharray:none;stroke-dashoffset:0;stroke-opacity:1;stop-color:#000000;stop-opacity:1"
       xml:space="preserve"><tspan
         y="473.4375"
         x="1050"
         id="tspan1427"
         sodipodi:role="line">baan</tspan></text>
    <path
       id="path1435"
       d="m 1247.945,554.33255 c 0,0 20.3125,29.6875 53.125,31.25 32.8125,1.5625 35.9375,21.875 35.9375,21.875"
       style="font-variation-settings:normal;opacity:1;vector-effect:none;fill:none;fill-opacity:1;stroke:#d3d3d3;stroke-width:3;stroke-linecap:round;stroke-linejoin:miter;stroke-miterlimit:4;stroke-dasharray:none;stroke-dashoffset:0;stroke-opacity:1;stop-color:#000000;stop-opacity:1" />
  </g>
</svg>
