<?xml version="1.0" encoding="UTF-8" standalone="no"?>
<svg
   xmlns:dc="http://purl.org/dc/elements/1.1/"
   xmlns:cc="http://creativecommons.org/ns#"
   xmlns:rdf="http://www.w3.org/1999/02/22-rdf-syntax-ns#"
   xmlns:svg="http://www.w3.org/2000/svg"
   xmlns="http://www.w3.org/2000/svg"
   xmlns:sodipodi="http://sodipodi.sourceforge.net/DTD/sodipodi-0.dtd"
   xmlns:inkscape="http://www.inkscape.org/namespaces/inkscape"
   inkscape:export-ydpi="96"
   inkscape:export-xdpi="96"
   inkscape:export-filename="C:\Users\flori\OneDrive - Hoe Zit Het vzw\Visie\HZH_GVR_watching.png"
   sodipodi:docname="HZH_GVR_watching.svg"
   inkscape:version="1.0 (4035a4fb49, 2020-05-01)"
   id="svg8"
   version="1.1"
   viewBox="0 0 507.99999 285.75"
   height="1080"
   width="1920">
  <defs
     id="defs2">
    <style
       type="text/css"
       id="style1695">
      @import url('https://fonts.googleapis.com/css?family=Quicksand:300');
     </style>
  </defs>
  <sodipodi:namedview
     units="px"
     inkscape:snap-object-midpoints="true"
     inkscape:snap-intersection-paths="true"
     inkscape:guide-bbox="true"
     showguides="true"
     inkscape:object-paths="true"
     inkscape:snap-global="false"
     inkscape:window-maximized="1"
     inkscape:window-y="633"
     inkscape:window-x="55"
     inkscape:window-height="877"
     inkscape:window-width="1537"
     showgrid="false"
     inkscape:document-rotation="0"
     inkscape:current-layer="layer1"
     inkscape:document-units="mm"
     inkscape:cy="717.82739"
     inkscape:cx="966.87533"
     inkscape:zoom="0.35"
     inkscape:pageshadow="2"
     inkscape:pageopacity="0.0"
     borderopacity="1.0"
     bordercolor="#666666"
     pagecolor="#ffffff"
     id="base">
    <sodipodi:guide
       id="guide4305"
       orientation="0,-1"
       position="330.87967,16.876855" />
  </sodipodi:namedview>
  <metadata
     id="metadata5">
    <rdf:RDF>
      <cc:Work
         rdf:about="">
        <dc:format>image/svg+xml</dc:format>
        <dc:type
           rdf:resource="http://purl.org/dc/dcmitype/StillImage" />
        <dc:title />
      </cc:Work>
    </rdf:RDF>
  </metadata>
  <g
     transform="translate(-4.7247047,71.881107)"
     id="layer1"
     inkscape:groupmode="layer"
     inkscape:label="Layer 1">
    <path
       id="path1556-5-8-9"
       style="fill:#555555;stroke:none;stroke-width:2.64583333;stroke-linecap:round;stroke-linejoin:round;stroke-dashoffset:37.7986;paint-order:markers stroke fill;stroke-miterlimit:4;stroke-dasharray:none"
       d="m 125.82878,-61.255192 a 18.718599,18.718599 0 0 0 -18.71843,18.718432 18.718599,18.718599 0 0 0 0.0352,1.146178 12.987591,12.987591 0 0 0 -0.32112,-0.321114 12.987591,12.987591 0 0 0 -12.987514,12.987544 12.987591,12.987591 0 0 0 12.987514,12.987538 h 44.35754 0.0363 a 14.493411,14.493411 0 0 0 14.49287,-14.492884 14.493411,14.493411 0 0 0 -14.49287,-14.493815 14.493411,14.493411 0 0 0 -6.67939,1.631563 18.718599,18.718599 0 0 0 -18.71006,-18.163442 z" />
    <path
       d="m 167.52594,-43.574602 a 18.718599,18.718599 0 0 0 -18.71843,18.718433 18.718599,18.718599 0 0 0 0.0352,1.146178 12.987591,12.987591 0 0 0 -0.32111,-0.321115 12.987591,12.987591 0 0 0 -12.98755,12.987544 12.987591,12.987591 0 0 0 12.98755,12.9875414 h 44.35756 0.0363 a 14.493411,14.493411 0 0 0 14.4929,-14.4928864 14.493411,14.493411 0 0 0 -14.4929,-14.493815 14.493411,14.493411 0 0 0 -6.67938,1.631561 18.718599,18.718599 0 0 0 -18.71008,-18.163441 z"
       style="fill:#555555;stroke:#f4f4f4;stroke-width:2.64583333;stroke-linecap:round;stroke-linejoin:round;stroke-dashoffset:37.7986;paint-order:markers stroke fill;stroke-miterlimit:4;stroke-dasharray:none"
       id="path1556-5-8" />
    <g
       transform="matrix(3.6460384,0,0,3.6460384,189.2841,-344.8421)"
       id="g2229">
      <path
         transform="matrix(0.07256735,0,0,0.07256735,-37.557028,89.378569)"
         d="m 1501.0625,289.08008 c -5.6261,-0.0512 -11.3674,0.66964 -17.207,2.23437 -74.7479,20.02857 -52.158,145.29509 -32.8164,237.38086 0.9292,4.4239 1.7347,8.90632 2.4414,13.42774 L 1335.375,444.95703 a 59.410622,59.410622 0 0 0 -37.7598,-13.50976 59.410622,59.410622 0 0 0 -58.7285,50.49023 l -40.5058,267.47852 a 59.404681,59.404681 0 0 0 49.8457,67.63671 59.404681,59.404681 0 0 0 67.6093,-49.8457 l 24.8418,-164.01758 144.4785,118.85547 a 59.404681,59.404681 0 0 0 0.4297,0.34961 c 10.0807,9.51018 24.2466,14.99024 44.3262,14.99024 92.6863,0 111.235,-74.49166 96.5215,-242.10547 -8.5582,-97.49417 -58.9827,-205.59518 -125.3711,-206.19922 z"
         style="color:#000000;font-style:normal;font-variant:normal;font-weight:normal;font-stretch:normal;font-size:medium;line-height:normal;font-family:sans-serif;font-variant-ligatures:normal;font-variant-position:normal;font-variant-caps:normal;font-variant-numeric:normal;font-variant-alternates:normal;font-variant-east-asian:normal;font-feature-settings:normal;font-variation-settings:normal;text-indent:0;text-align:start;text-decoration:none;text-decoration-line:none;text-decoration-style:solid;text-decoration-color:#000000;letter-spacing:normal;word-spacing:normal;text-transform:none;writing-mode:lr-tb;direction:ltr;text-orientation:mixed;dominant-baseline:auto;baseline-shift:baseline;text-anchor:start;white-space:normal;shape-padding:0;shape-margin:0;inline-size:0;clip-rule:nonzero;display:inline;overflow:visible;visibility:visible;opacity:1;isolation:auto;mix-blend-mode:normal;color-interpolation:sRGB;color-interpolation-filters:linearRGB;solid-color:#000000;solid-opacity:1;vector-effect:none;fill:#000000;fill-opacity:1;fill-rule:nonzero;stroke:#f4f4f4;stroke-width:10;stroke-linecap:round;stroke-linejoin:round;stroke-miterlimit:4;stroke-dasharray:none;stroke-dashoffset:0;stroke-opacity:1;paint-order:markers stroke fill;color-rendering:auto;image-rendering:auto;shape-rendering:auto;text-rendering:auto;enable-background:accumulate;stop-color:#000000;stop-opacity:1"
         id="path3656" />
      <circle
         style="vector-effect:none;fill:#000000;fill-opacity:0.988796;stroke:#f4f4f4;stroke-width:0.725673;stroke-linecap:butt;stroke-linejoin:round;stroke-miterlimit:4;stroke-dasharray:none;stroke-dashoffset:0;stroke-opacity:1;paint-order:markers stroke fill"
         id="path17144"
         cx="-63.662487"
         cy="103.70634"
         r="8.0010109"
         transform="scale(-1,1)" />
    </g>
    <g
       style="fill:#000000;stroke:none;stroke-width:1.71637"
       id="g1251-5-1-3-7"
       transform="matrix(-0.75071158,0.12566858,0.12566858,0.75071158,444.23432,-8.6782721)">
      <rect
         transform="matrix(0.86611684,0.49984159,-0.50014687,0.86594059,0,0)"
         y="5.0564628"
         x="135.53751"
         height="8.8297234"
         width="8.9975777"
         id="rect1246-5-3-3-1"
         style="color:#000000;clip-rule:nonzero;display:inline;overflow:visible;visibility:visible;opacity:1;isolation:auto;mix-blend-mode:normal;color-interpolation:sRGB;color-interpolation-filters:linearRGB;solid-color:#000000;solid-opacity:1;fill:#000000;fill-opacity:1;fill-rule:evenodd;stroke:#f4f4f4;stroke-width:1.66281;stroke-linecap:square;stroke-linejoin:round;stroke-miterlimit:4;stroke-dasharray:none;stroke-dashoffset:0;stroke-opacity:1;paint-order:markers stroke fill;color-rendering:auto;image-rendering:auto;shape-rendering:auto;text-rendering:auto;enable-background:accumulate" />
      <rect
         ry="0"
         transform="matrix(0.5,-0.8660254,-0.99991011,0.01340771,0,0)"
         y="-168.22519"
         x="-106.98386"
         height="11.294343"
         width="15.668805"
         id="rect1229-6-0-0-1"
         style="color:#000000;clip-rule:nonzero;display:inline;overflow:visible;visibility:visible;opacity:1;isolation:auto;mix-blend-mode:normal;color-interpolation:sRGB;color-interpolation-filters:linearRGB;solid-color:#000000;solid-opacity:1;fill:#000000;fill-opacity:1;fill-rule:evenodd;stroke:#f4f4f4;stroke-width:1.85163;stroke-linecap:round;stroke-linejoin:round;stroke-miterlimit:4;stroke-dasharray:none;stroke-dashoffset:0;stroke-opacity:1;paint-order:markers stroke fill;color-rendering:auto;image-rendering:auto;shape-rendering:auto;text-rendering:auto;enable-background:accumulate" />
    </g>
    <circle
       r="23.080009"
       cy="-15.466942"
       cx="79.922165"
       id="path1758"
       style="fill:#ffb700;fill-opacity:1;stroke:none;stroke-width:2.64583333;stroke-linecap:round;stroke-linejoin:round;stroke-dashoffset:37.7986;stroke-miterlimit:4;stroke-dasharray:none" />
    <path
       d="m 483.6446,151.94217 c -1.02389,0 -1.84847,0.82457 -1.84847,1.84846 v 12.6044 h -18.42265 c -0.57325,0 -1.0482,0.40472 -1.15651,0.94516 h -0.0238 v 0.23461 0.66818 7.67705 h -1.33893 c -1.02389,0 -1.84795,0.82406 -1.84795,1.84795 v 1.84846 h 1.84795 0.39481 0.94412 v 17.74414 h 3.69642 v -17.74414 h 15.90652 v 17.74414 h 3.69642 v -19.5926 -23.97735 c 0,-1.02389 -0.82406,-1.84846 -1.84795,-1.84846 z m -17.75499,17.4811 h 15.90652 v 6.49676 h -15.90652 z"
       style="fill:#aa4400;fill-opacity:1;stroke:none;stroke-width:2.64583;stroke-linecap:round;stroke-linejoin:round;stroke-miterlimit:4;stroke-dasharray:none;stroke-dashoffset:37.7986"
       id="rect2088" />
    <path
       style="color:#000000;font-style:normal;font-variant:normal;font-weight:normal;font-stretch:normal;font-size:medium;line-height:normal;font-family:sans-serif;font-variant-ligatures:normal;font-variant-position:normal;font-variant-caps:normal;font-variant-numeric:normal;font-variant-alternates:normal;font-variant-east-asian:normal;font-feature-settings:normal;font-variation-settings:normal;text-indent:0;text-align:start;text-decoration:none;text-decoration-line:none;text-decoration-style:solid;text-decoration-color:#000000;letter-spacing:normal;word-spacing:normal;text-transform:none;writing-mode:lr-tb;direction:ltr;text-orientation:mixed;dominant-baseline:auto;baseline-shift:baseline;text-anchor:start;white-space:normal;shape-padding:0;shape-margin:0;inline-size:0;clip-rule:nonzero;display:inline;overflow:visible;visibility:visible;opacity:1;isolation:auto;mix-blend-mode:normal;color-interpolation:sRGB;color-interpolation-filters:linearRGB;solid-color:#000000;solid-opacity:1;vector-effect:none;fill:#000000;fill-opacity:1;fill-rule:nonzero;stroke:#f4f4f4;stroke-width:2.64583;stroke-linecap:round;stroke-linejoin:miter;stroke-miterlimit:4;stroke-dasharray:none;stroke-dashoffset:0;stroke-opacity:1;paint-order:stroke fill markers;color-rendering:auto;image-rendering:auto;shape-rendering:auto;text-rendering:auto;enable-background:accumulate;stop-color:#000000;stop-opacity:1"
       d="m 455.72308,73.458691 a 10.155913,10.155913 0 0 0 -12.18041,2.552084 c -5.63132,6.616678 -9.88823,11.726448 -13.90182,14.667633 -4.01356,2.941186 -7.62534,4.429988 -15.14434,4.232043 C 402.80556,94.602742 386.616,85.184891 374.58045,74.10006 a 10.155913,10.155913 0 0 0 -14.35468,0.591037 10.155913,10.155913 0 0 0 0.59105,14.354646 c 14.07144,12.959937 32.57211,25.631917 53.1432,26.173377 11.20731,0.29504 20.61523,-2.97456 27.68785,-8.15742 7.07258,-5.18285 11.97403,-11.559066 17.36381,-17.891946 a 10.155913,10.155913 0 0 0 -1.15497,-14.314025 10.155913,10.155913 0 0 0 -2.13357,-1.39714 z"
       id="path3577"
       inkscape:transform-center-x="44.096129"
       inkscape:transform-center-y="10.475844" />
    <g
       transform="matrix(1.7272485,0,0,1.7272485,29.259602,-57.018058)"
       id="layer1-0-7"
       inkscape:label="Layer 1">
      <path
         sodipodi:nodetypes="csc"
         inkscape:connector-curvature="0"
         id="path17142-5-5"
         d="m 89.920888,127.79864 c 0,0 1.360719,4.42185 1.289,8.59176 -0.0604,3.51157 -1.72046,8.44854 -1.72046,8.44854"
         style="opacity:1;vector-effect:none;fill:none;fill-opacity:1;stroke:#000000;stroke-width:4.58611;stroke-linecap:round;stroke-linejoin:round;stroke-miterlimit:4;stroke-dasharray:none;stroke-dashoffset:0;stroke-opacity:1" />
      <path
         sodipodi:nodetypes="zzzzz"
         inkscape:connector-curvature="0"
         id="path17140-3-5"
         d="m 89.004547,110.45347 c 2.653205,-0.31004 3.648624,5.97423 2.902028,9.52879 -0.746596,3.55456 2.290958,8.47666 -2.469461,8.45303 -4.760419,-0.0236 -5.031257,-4.96794 -4.568109,-10.24407 0.463149,-5.27612 1.482337,-7.42771 4.135542,-7.73775 z"
         style="opacity:1;vector-effect:none;fill:#000000;fill-opacity:1;stroke:none;stroke-width:0.352778;stroke-linecap:round;stroke-linejoin:miter;stroke-miterlimit:4;stroke-dasharray:none;stroke-dashoffset:0;stroke-opacity:1" />
      <path
         inkscape:transform-center-y="9.1146516"
         inkscape:transform-center-x="-7.336784"
         sodipodi:nodetypes="csc"
         inkscape:connector-curvature="0"
         id="path17138-6-4"
         d="m 89.962218,114.15334 c -0.260593,3.08165 0.281701,4.91972 1.603929,7.20094 0.971802,1.67663 1.748987,2.7653 4.900685,5.62378"
         style="opacity:1;vector-effect:none;fill:none;fill-opacity:1;stroke:#000000;stroke-width:2.96333;stroke-linecap:round;stroke-linejoin:miter;stroke-miterlimit:4;stroke-dasharray:none;stroke-dashoffset:0;stroke-opacity:1" />
      <circle
         r="4.2559581"
         cy="106.06179"
         cx="87.102875"
         id="path17144-6-1"
         style="opacity:1;vector-effect:none;fill:#000000;fill-opacity:0.988796;stroke:none;stroke-width:4.58611;stroke-linecap:butt;stroke-linejoin:round;stroke-miterlimit:4;stroke-dasharray:none;stroke-dashoffset:0;stroke-opacity:1;paint-order:fill markers stroke" />
    </g>
    <path
       d="M 55.335298,-49.098701 A 28.337219,28.337219 0 0 0 27.272027,-24.080463 23.568761,23.568761 0 0 0 9.6171763,-1.2654762 23.568761,23.568761 0 0 0 33.185749,22.303101 H 105.37728 A 21.120039,21.120039 0 0 0 126.49664,1.1827952 21.120039,21.120039 0 0 0 108.4223,-19.715705 22.232801,22.232801 0 0 0 86.618981,-37.60258 a 22.232801,22.232801 0 0 0 -7.506303,1.305809 28.337219,28.337219 0 0 0 -23.699436,-12.80193 28.337219,28.337219 0 0 0 -0.07794,0 z"
       style="fill:#555555;stroke:#f4f4f4;stroke-width:2.64583333;stroke-linecap:round;stroke-linejoin:round;stroke-dashoffset:37.7986;paint-order:markers stroke fill;stroke-miterlimit:4;stroke-dasharray:none"
       id="path1556" />
    <path
       d="m 137.77131,-25.08884 a 22.254381,22.254381 0 0 0 -22.2544,22.2544191 22.254381,22.254381 0 0 0 0.0418,1.3624215 15.440835,15.440835 0 0 0 -0.38143,-0.3814422 15.440835,15.440835 0 0 0 -15.440457,15.4413826 15.440835,15.440835 0 0 0 15.440457,15.440462 h 52.77894 A 17.231091,17.231091 0 0 0 185.18784,11.79768 17.231091,17.231091 0 0 0 167.9562,-5.4339698 17.231091,17.231091 0 0 0 160.01555,-3.4942836 22.254381,22.254381 0 0 0 137.77134,-25.08884 Z"
       style="fill:#555555;stroke:#f4f4f4;stroke-width:2.64583333;stroke-linecap:round;stroke-linejoin:round;stroke-dashoffset:37.7986;paint-order:markers stroke fill;stroke-miterlimit:4;stroke-dasharray:none"
       id="path1556-5" />
  </g>
</svg>
