<?xml version="1.0" encoding="UTF-8" standalone="no"?>
<svg
   xmlns:dc="http://purl.org/dc/elements/1.1/"
   xmlns:cc="http://creativecommons.org/ns#"
   xmlns:rdf="http://www.w3.org/1999/02/22-rdf-syntax-ns#"
   xmlns:svg="http://www.w3.org/2000/svg"
   xmlns="http://www.w3.org/2000/svg"
   xmlns:sodipodi="http://sodipodi.sourceforge.net/DTD/sodipodi-0.dtd"
   xmlns:inkscape="http://www.inkscape.org/namespaces/inkscape"
   width="1920"
   height="1080"
   viewBox="0 0 507.99999 285.75"
   version="1.1"
   id="svg8"
   inkscape:version="1.0 (4035a4fb49, 2020-05-01)"
   sodipodi:docname="HZH_GVR_run.svg"
   inkscape:export-filename="C:\Users\flori\OneDrive - Hoe Zit Het vzw\Visie\HZH_GVR_run.png"
   inkscape:export-xdpi="96"
   inkscape:export-ydpi="96">
  <defs
     id="defs2">
    <style
       id="style1695"
       type="text/css">
      @import url('https://fonts.googleapis.com/css?family=Quicksand:300');
     </style>
  </defs>
  <sodipodi:namedview
     id="base"
     pagecolor="#ffffff"
     bordercolor="#666666"
     borderopacity="1.0"
     inkscape:pageopacity="0.0"
     inkscape:pageshadow="2"
     inkscape:zoom="0.35"
     inkscape:cx="1033.7076"
     inkscape:cy="743.76937"
     inkscape:document-units="mm"
     inkscape:current-layer="layer1"
     inkscape:document-rotation="0"
     showgrid="false"
     inkscape:window-width="1537"
     inkscape:window-height="877"
     inkscape:window-x="55"
     inkscape:window-y="633"
     inkscape:window-maximized="1"
     inkscape:snap-global="false"
     inkscape:object-paths="true"
     showguides="true"
     inkscape:guide-bbox="true"
     inkscape:snap-intersection-paths="true"
     inkscape:snap-object-midpoints="true"
     units="px">
    <sodipodi:guide
       position="330.87967,16.876855"
       orientation="0,-1"
       id="guide4305" />
  </sodipodi:namedview>
  <metadata
     id="metadata5">
    <rdf:RDF>
      <cc:Work
         rdf:about="">
        <dc:format>image/svg+xml</dc:format>
        <dc:type
           rdf:resource="http://purl.org/dc/dcmitype/StillImage" />
        <dc:title />
      </cc:Work>
    </rdf:RDF>
  </metadata>
  <g
     inkscape:label="Layer 1"
     inkscape:groupmode="layer"
     id="layer1"
     transform="translate(-4.7247047,71.881107)">
    <g
       id="g2229"
       transform="matrix(3.6460384,0,0,3.6460384,189.2841,-344.8421)">
      <path
         id="path3656"
         style="color:#000000;font-style:normal;font-variant:normal;font-weight:normal;font-stretch:normal;font-size:medium;line-height:normal;font-family:sans-serif;font-variant-ligatures:normal;font-variant-position:normal;font-variant-caps:normal;font-variant-numeric:normal;font-variant-alternates:normal;font-variant-east-asian:normal;font-feature-settings:normal;font-variation-settings:normal;text-indent:0;text-align:start;text-decoration:none;text-decoration-line:none;text-decoration-style:solid;text-decoration-color:#000000;letter-spacing:normal;word-spacing:normal;text-transform:none;writing-mode:lr-tb;direction:ltr;text-orientation:mixed;dominant-baseline:auto;baseline-shift:baseline;text-anchor:start;white-space:normal;shape-padding:0;shape-margin:0;inline-size:0;clip-rule:nonzero;display:inline;overflow:visible;visibility:visible;opacity:1;isolation:auto;mix-blend-mode:normal;color-interpolation:sRGB;color-interpolation-filters:linearRGB;solid-color:#000000;solid-opacity:1;vector-effect:none;fill:#000000;fill-opacity:1;fill-rule:nonzero;stroke:#f4f4f4;stroke-width:10;stroke-linecap:round;stroke-linejoin:round;stroke-miterlimit:4;stroke-dasharray:none;stroke-dashoffset:0;stroke-opacity:1;paint-order:markers stroke fill;color-rendering:auto;image-rendering:auto;shape-rendering:auto;text-rendering:auto;enable-background:accumulate;stop-color:#000000;stop-opacity:1"
         d="m 1501.0625,289.08008 c -5.6261,-0.0512 -11.3674,0.66964 -17.207,2.23437 -74.7479,20.02857 -52.158,145.29509 -32.8164,237.38086 0.9292,4.4239 1.7347,8.90632 2.4414,13.42774 L 1335.375,444.95703 a 59.410622,59.410622 0 0 0 -37.7598,-13.50976 59.410622,59.410622 0 0 0 -58.7285,50.49023 l -40.5058,267.47852 a 59.404681,59.404681 0 0 0 49.8457,67.63671 59.404681,59.404681 0 0 0 67.6093,-49.8457 l 24.8418,-164.01758 144.4785,118.85547 a 59.404681,59.404681 0 0 0 0.4297,0.34961 c 10.0807,9.51018 24.2466,14.99024 44.3262,14.99024 92.6863,0 111.235,-74.49166 96.5215,-242.10547 -8.5582,-97.49417 -58.9827,-205.59518 -125.3711,-206.19922 z"
         transform="matrix(0.07256735,0,0,0.07256735,-37.557028,89.378569)" />
      <circle
         transform="scale(-1,1)"
         r="8.0010109"
         cy="103.70634"
         cx="-63.662487"
         id="path17144"
         style="vector-effect:none;fill:#000000;fill-opacity:0.988796;stroke:#f4f4f4;stroke-width:0.725673;stroke-linecap:butt;stroke-linejoin:round;stroke-miterlimit:4;stroke-dasharray:none;stroke-dashoffset:0;stroke-opacity:1;paint-order:markers stroke fill" />
    </g>
    <g
       transform="matrix(-0.75071158,0.12566858,0.12566858,0.75071158,444.23432,-8.6782721)"
       id="g1251-5-1-3-7"
       style="fill:#000000;stroke:none;stroke-width:1.71637">
      <rect
         style="color:#000000;clip-rule:nonzero;display:inline;overflow:visible;visibility:visible;opacity:1;isolation:auto;mix-blend-mode:normal;color-interpolation:sRGB;color-interpolation-filters:linearRGB;solid-color:#000000;solid-opacity:1;fill:#000000;fill-opacity:1;fill-rule:evenodd;stroke:#f4f4f4;stroke-width:1.66281;stroke-linecap:square;stroke-linejoin:round;stroke-miterlimit:4;stroke-dasharray:none;stroke-dashoffset:0;stroke-opacity:1;paint-order:markers stroke fill;color-rendering:auto;image-rendering:auto;shape-rendering:auto;text-rendering:auto;enable-background:accumulate"
         id="rect1246-5-3-3-1"
         width="8.9975777"
         height="8.8297234"
         x="135.53751"
         y="5.0564628"
         transform="matrix(0.86611684,0.49984159,-0.50014687,0.86594059,0,0)" />
      <rect
         style="color:#000000;clip-rule:nonzero;display:inline;overflow:visible;visibility:visible;opacity:1;isolation:auto;mix-blend-mode:normal;color-interpolation:sRGB;color-interpolation-filters:linearRGB;solid-color:#000000;solid-opacity:1;fill:#000000;fill-opacity:1;fill-rule:evenodd;stroke:#f4f4f4;stroke-width:1.85163;stroke-linecap:round;stroke-linejoin:round;stroke-miterlimit:4;stroke-dasharray:none;stroke-dashoffset:0;stroke-opacity:1;paint-order:markers stroke fill;color-rendering:auto;image-rendering:auto;shape-rendering:auto;text-rendering:auto;enable-background:accumulate"
         id="rect1229-6-0-0-1"
         width="15.668805"
         height="11.294343"
         x="-106.98386"
         y="-168.22519"
         transform="matrix(0.5,-0.8660254,-0.99991011,0.01340771,0,0)"
         ry="0" />
    </g>
    <path
       id="rect2088"
       style="fill:#aa4400;fill-opacity:1;stroke:none;stroke-width:2.64583;stroke-linecap:round;stroke-linejoin:round;stroke-miterlimit:4;stroke-dasharray:none;stroke-dashoffset:37.7986"
       d="m 483.6446,151.94217 c -1.02389,0 -1.84847,0.82457 -1.84847,1.84846 v 12.6044 h -18.42265 c -0.57325,0 -1.0482,0.40472 -1.15651,0.94516 h -0.0238 v 0.23461 0.66818 7.67705 h -1.33893 c -1.02389,0 -1.84795,0.82406 -1.84795,1.84795 v 1.84846 h 1.84795 0.39481 0.94412 v 17.74414 h 3.69642 v -17.74414 h 15.90652 v 17.74414 h 3.69642 v -19.5926 -23.97735 c 0,-1.02389 -0.82406,-1.84846 -1.84795,-1.84846 z m -17.75499,17.4811 h 15.90652 v 6.49676 h -15.90652 z" />
    <path
       inkscape:transform-center-y="10.475844"
       inkscape:transform-center-x="44.096129"
       id="path3577"
       d="m 455.72308,73.458691 a 10.155913,10.155913 0 0 0 -12.18041,2.552084 c -5.63132,6.616678 -9.88823,11.726448 -13.90182,14.667633 -4.01356,2.941186 -7.62534,4.429988 -15.14434,4.232043 C 402.80556,94.602742 386.616,85.184891 374.58045,74.10006 a 10.155913,10.155913 0 0 0 -14.35468,0.591037 10.155913,10.155913 0 0 0 0.59105,14.354646 c 14.07144,12.959937 32.57211,25.631917 53.1432,26.173377 11.20731,0.29504 20.61523,-2.97456 27.68785,-8.15742 7.07258,-5.18285 11.97403,-11.559066 17.36381,-17.891946 a 10.155913,10.155913 0 0 0 -1.15497,-14.314025 10.155913,10.155913 0 0 0 -2.13357,-1.39714 z"
       style="color:#000000;font-style:normal;font-variant:normal;font-weight:normal;font-stretch:normal;font-size:medium;line-height:normal;font-family:sans-serif;font-variant-ligatures:normal;font-variant-position:normal;font-variant-caps:normal;font-variant-numeric:normal;font-variant-alternates:normal;font-variant-east-asian:normal;font-feature-settings:normal;font-variation-settings:normal;text-indent:0;text-align:start;text-decoration:none;text-decoration-line:none;text-decoration-style:solid;text-decoration-color:#000000;letter-spacing:normal;word-spacing:normal;text-transform:none;writing-mode:lr-tb;direction:ltr;text-orientation:mixed;dominant-baseline:auto;baseline-shift:baseline;text-anchor:start;white-space:normal;shape-padding:0;shape-margin:0;inline-size:0;clip-rule:nonzero;display:inline;overflow:visible;visibility:visible;opacity:1;isolation:auto;mix-blend-mode:normal;color-interpolation:sRGB;color-interpolation-filters:linearRGB;solid-color:#000000;solid-opacity:1;vector-effect:none;fill:#000000;fill-opacity:1;fill-rule:nonzero;stroke:#f4f4f4;stroke-width:2.64583;stroke-linecap:round;stroke-linejoin:miter;stroke-miterlimit:4;stroke-dasharray:none;stroke-dashoffset:0;stroke-opacity:1;paint-order:stroke fill markers;color-rendering:auto;image-rendering:auto;shape-rendering:auto;text-rendering:auto;enable-background:accumulate;stop-color:#000000;stop-opacity:1" />
    <path
       style="vector-effect:none;fill:none;fill-opacity:1;stroke:#000000;stroke-width:7.92136;stroke-linecap:round;stroke-linejoin:round;stroke-miterlimit:4;stroke-dasharray:none;stroke-dashoffset:0;stroke-opacity:1"
       d="m 96.194569,167.38202 c 0,0 -9.52626,4.27384 -9.63298,11.47659 -0.0899,6.06559 2.50304,14.68037 2.50304,14.68037"
       id="path17142-5"
       inkscape:connector-curvature="0"
       sodipodi:nodetypes="csc"
       inkscape:transform-center-x="5.398487"
       inkscape:transform-center-y="12.565739" />
    <path
       style="vector-effect:none;fill:#000000;fill-opacity:1;stroke:none;stroke-width:0.609335;stroke-linecap:round;stroke-linejoin:miter;stroke-miterlimit:4;stroke-dasharray:none;stroke-dashoffset:0;stroke-opacity:1"
       d="m 95.770129,137.99777 c -5.46993,0.88778 -5.75303,10.63485 -4.14371,16.69851 1.60931,6.06365 -3.18488,14.82843 5.02413,14.35707 8.209011,-0.47135 8.228931,-9.02419 6.952791,-18.08298 -1.27611,-9.05877 -2.36329,-13.86038 -7.833211,-12.9726 z"
       id="path17140-3"
       inkscape:connector-curvature="0"
       sodipodi:nodetypes="zzzzz"
       inkscape:transform-center-x="-2.1873155"
       inkscape:transform-center-y="-12.697339" />
    <circle
       style="vector-effect:none;fill:#000000;fill-opacity:0.988796;stroke:none;stroke-width:7.92136;stroke-linecap:butt;stroke-linejoin:round;stroke-miterlimit:4;stroke-dasharray:none;stroke-dashoffset:0;stroke-opacity:1;paint-order:fill markers stroke"
       id="path17144-6"
       cx="-69.420517"
       cy="144.31541"
       r="7.3510971"
       transform="matrix(-0.98277461,0.1848082,0.1848082,0.98277461,0,0)" />
    <path
       sodipodi:nodetypes="csc"
       inkscape:connector-curvature="0"
       id="path17142-5-51"
       d="m 95.181359,167.92008 c 0,0 0.33602,11.5859 7.506071,12.27946 6.03809,0.58408 14.83556,-1.29789 14.83556,-1.29789"
       style="vector-effect:none;fill:none;fill-opacity:1;stroke:#000000;stroke-width:7.92136;stroke-linecap:round;stroke-linejoin:round;stroke-miterlimit:4;stroke-dasharray:none;stroke-dashoffset:0;stroke-opacity:1"
       inkscape:transform-center-x="-11.366179"
       inkscape:transform-center-y="9.3526818" />
    <path
       inkscape:transform-center-y="-5.5500298"
       inkscape:transform-center-x="9.833241"
       sodipodi:nodetypes="csc"
       inkscape:connector-curvature="0"
       id="path17138-6-47"
       d="m 98.584389,141.6131 c -5.23797,1.04793 -8.4982,0.47553 -12.67101,-1.34902 -3.06687,-1.341 -5.08675,-2.46262 -10.60687,-7.31441"
       style="vector-effect:none;fill:none;fill-opacity:1;stroke:#000000;stroke-width:5.11842;stroke-linecap:round;stroke-linejoin:miter;stroke-miterlimit:4;stroke-dasharray:none;stroke-dashoffset:0;stroke-opacity:1" />
    <path
       style="fill:none;stroke:#d3d3d3;stroke-width:1.05833;stroke-linecap:round;stroke-linejoin:miter;stroke-miterlimit:4;stroke-dasharray:none;stroke-opacity:1"
       d="m 110.43268,143.42624 h 43.8322"
       id="path2396" />
    <path
       id="path2396-3"
       d="m 115.77807,148.23709 h 43.8322"
       style="fill:none;stroke:#d3d3d3;stroke-width:1.05833;stroke-linecap:round;stroke-linejoin:miter;stroke-miterlimit:4;stroke-dasharray:none;stroke-opacity:1" />
    <path
       style="fill:none;stroke:#d3d3d3;stroke-width:1.05833;stroke-linecap:round;stroke-linejoin:miter;stroke-miterlimit:4;stroke-dasharray:none;stroke-opacity:1"
       d="m 110.43268,155.72064 h 43.8322"
       id="path2396-3-0" />
    <path
       d="m 125.82878,-61.255197 a 18.718599,18.718599 0 0 0 -18.71843,18.718432 18.718599,18.718599 0 0 0 0.0352,1.146178 12.987591,12.987591 0 0 0 -0.3211,-0.321114 12.987591,12.987591 0 0 0 -12.987533,12.987543 12.987591,12.987591 0 0 0 12.987533,12.987539 h 44.35752 0.0363 a 14.493411,14.493411 0 0 0 14.49287,-14.492883 14.493411,14.493411 0 0 0 -14.49287,-14.493816 14.493411,14.493411 0 0 0 -6.67939,1.631563 18.718599,18.718599 0 0 0 -18.71006,-18.163442 z"
       style="fill:#555555;stroke:none;stroke-width:2.64583333;stroke-linecap:round;stroke-linejoin:round;stroke-dashoffset:37.7986;paint-order:markers stroke fill;stroke-miterlimit:4;stroke-dasharray:none"
       id="path1556-5-8-9" />
    <path
       id="path1556-5-8"
       style="fill:#555555;stroke:#f4f4f4;stroke-width:2.64583333;stroke-linecap:round;stroke-linejoin:round;stroke-dashoffset:37.7986;paint-order:markers stroke fill;stroke-miterlimit:4;stroke-dasharray:none"
       d="m 167.52596,-43.574607 a 18.718599,18.718599 0 0 0 -18.71844,18.718433 18.718599,18.718599 0 0 0 0.0352,1.146177 12.987591,12.987591 0 0 0 -0.32112,-0.321114 12.987591,12.987591 0 0 0 -12.98753,12.987544 12.987591,12.987591 0 0 0 12.98753,12.9875411 h 44.35756 0.0363 a 14.493411,14.493411 0 0 0 14.49291,-14.4928851 14.493411,14.493411 0 0 0 -14.49291,-14.493817 14.493411,14.493411 0 0 0 -6.67936,1.631561 18.718599,18.718599 0 0 0 -18.71009,-18.16344 z" />
    <circle
       style="fill:#ffb700;fill-opacity:1;stroke:none;stroke-width:3.03067;stroke-linecap:round;stroke-linejoin:round;stroke-dashoffset:37.7986"
       id="path1758-0"
       cx="79.922165"
       cy="-15.466948"
       r="23.080009" />
    <path
       id="path1556"
       style="fill:#555555;stroke:#f4f4f4;stroke-width:2.64583333;stroke-linecap:round;stroke-linejoin:round;stroke-dashoffset:37.7986;paint-order:markers stroke fill;stroke-miterlimit:4;stroke-dasharray:none"
       d="M 55.335298,-49.098706 A 28.337219,28.337219 0 0 0 27.272029,-24.080469 23.568761,23.568761 0 0 0 9.6171763,-1.2654803 23.568761,23.568761 0 0 0 33.185751,22.303096 H 105.37728 A 21.120039,21.120039 0 0 0 126.49666,1.1827917 21.120039,21.120039 0 0 0 108.4223,-19.715709 22.232801,22.232801 0 0 0 86.618983,-37.602585 a 22.232801,22.232801 0 0 0 -7.506303,1.305809 28.337219,28.337219 0 0 0 -23.699438,-12.80193 28.337219,28.337219 0 0 0 -0.07794,0 z" />
    <path
       id="path1556-5"
       style="fill:#555555;stroke:#f4f4f4;stroke-width:2.64583333;stroke-linecap:round;stroke-linejoin:round;stroke-dashoffset:37.7986;paint-order:markers stroke fill;stroke-miterlimit:4;stroke-dasharray:none"
       d="m 137.77131,-25.088843 a 22.254381,22.254381 0 0 0 -22.25439,22.2544187 22.254381,22.254381 0 0 0 0.0418,1.362421 15.440835,15.440835 0 0 0 -0.38144,-0.381442 15.440835,15.440835 0 0 0 -15.440463,15.4413823 15.440835,15.440835 0 0 0 15.440453,15.440462 h 52.77895 a 17.231091,17.231091 0 0 0 17.23163,-17.230722 17.231091,17.231091 0 0 0 -17.23164,-17.2316513 17.231091,17.231091 0 0 0 -7.94067,1.939687 22.254381,22.254381 0 0 0 -22.24419,-21.5945557 z" />
  </g>
</svg>
