<?xml version="1.0" encoding="UTF-8" standalone="no"?>
<svg
   xmlns:dc="http://purl.org/dc/elements/1.1/"
   xmlns:cc="http://creativecommons.org/ns#"
   xmlns:rdf="http://www.w3.org/1999/02/22-rdf-syntax-ns#"
   xmlns:svg="http://www.w3.org/2000/svg"
   xmlns="http://www.w3.org/2000/svg"
   xmlns:sodipodi="http://sodipodi.sourceforge.net/DTD/sodipodi-0.dtd"
   xmlns:inkscape="http://www.inkscape.org/namespaces/inkscape"
   inkscape:export-ydpi="96"
   inkscape:export-xdpi="96"
   inkscape:export-filename="C:\Users\flori\OneDrive - Hoe Zit Het vzw\Visie\HZH_GVR_lifter.png"
   sodipodi:docname="HZH_GVR_lifter.svg"
   inkscape:version="1.0 (4035a4fb49, 2020-05-01)"
   id="svg8"
   version="1.1"
   viewBox="0 0 507.99999 285.75"
   height="1080"
   width="1920">
  <defs
     id="defs2">
    <style
       type="text/css"
       id="style1695">
      @import url('https://fonts.googleapis.com/css?family=Quicksand:300');
     </style>
  </defs>
  <sodipodi:namedview
     units="px"
     inkscape:snap-object-midpoints="true"
     inkscape:snap-intersection-paths="true"
     inkscape:guide-bbox="true"
     showguides="true"
     inkscape:object-paths="true"
     inkscape:snap-global="false"
     inkscape:window-maximized="1"
     inkscape:window-y="633"
     inkscape:window-x="55"
     inkscape:window-height="877"
     inkscape:window-width="1537"
     showgrid="false"
     inkscape:document-rotation="0"
     inkscape:current-layer="layer1"
     inkscape:document-units="mm"
     inkscape:cy="500.69659"
     inkscape:cx="811.30424"
     inkscape:zoom="0.35000001"
     inkscape:pageshadow="2"
     inkscape:pageopacity="0.0"
     borderopacity="1.0"
     bordercolor="#666666"
     pagecolor="#ffffff"
     id="base"
     inkscape:snap-smooth-nodes="true">
    <sodipodi:guide
       position="162.23076,221.7149"
       orientation="1,0"
       id="guide1564" />
  </sodipodi:namedview>
  <metadata
     id="metadata5">
    <rdf:RDF>
      <cc:Work
         rdf:about="">
        <dc:format>image/svg+xml</dc:format>
        <dc:type
           rdf:resource="http://purl.org/dc/dcmitype/StillImage" />
        <dc:title />
      </cc:Work>
    </rdf:RDF>
  </metadata>
  <g
     transform="translate(-4.7247047,71.881107)"
     id="layer1"
     inkscape:groupmode="layer"
     inkscape:label="Layer 1">
    <g
       inkscape:label="Layer 1"
       id="layer1-3"
       transform="translate(229.91969,41.070505)">
      <path
         sodipodi:nodetypes="ccssccccc"
         style="fill:#ffb700;fill-opacity:1;stroke:none;stroke-width:0.670278;stroke-linecap:round;stroke-linejoin:round;stroke-miterlimit:4;stroke-dasharray:none;stroke-dashoffset:0;stroke-opacity:1;paint-order:markers stroke fill"
         d="m 92.383961,116.35213 c -0.02783,0.51475 -0.20854,1.00142 -0.528517,1.37705 -0.222592,0.26432 -0.347664,0.61223 -0.347664,0.96003 0,0.8069 0.653689,1.47449 1.474496,1.47449 0.05565,0 0.11116,-0.0136 0.166808,-0.0136 0.653862,-0.0835 1.196695,-0.59838 1.29408,-1.23834 0.06956,-0.41735 -0.04163,-0.82103 -0.305963,-1.15492 -0.333886,-0.43127 -0.528782,-0.90387 -0.556611,-1.4047 z"
         id="rect1013-8"
         inkscape:connector-curvature="0" />
      <path
         style="fill:#ffb700;stroke-width:0.206295"
         id="path922-7"
         d="m 90.060625,118.77283 h 0.792984 c 0.08348,0 0.139119,-0.0556 0.139119,-0.13913 0,-0.0835 -0.05565,-0.13911 -0.139119,-0.13911 h -0.792984 c -0.08347,0 -0.139119,0.0556 -0.139119,0.13911 0,0.0835 0.06956,0.13913 0.139119,0.13913 z"
         inkscape:connector-curvature="0" />
      <path
         style="fill:#ffb700;stroke-width:0.206295"
         id="path924-2"
         d="m 94.971556,118.6337 c 0,0.0835 0.05565,0.13913 0.139119,0.13913 h 0.792984 c 0.08347,0 0.13912,-0.0556 0.13912,-0.13913 0,-0.0835 -0.05565,-0.13911 -0.13912,-0.13911 h -0.792984 c -0.08347,0 -0.139119,0.0696 -0.139119,0.13911 z"
         inkscape:connector-curvature="0" />
      <path
         style="fill:#ffb700;stroke-width:0.206295"
         id="path926-6"
         d="m 92.982142,120.66486 c -0.08347,0 -0.139119,0.0556 -0.139119,0.13912 v 0.75124 c 0,0.0835 0.05565,0.13913 0.139119,0.13913 0.08348,0 0.13912,-0.0556 0.13912,-0.13913 v -0.75124 c 0,-0.0835 -0.05565,-0.13912 -0.13912,-0.13912 z"
         inkscape:connector-curvature="0" />
      <path
         style="fill:#ffb700;stroke-width:0.206295"
         id="path928-6"
         d="m 91.465736,120.011 c -0.04173,0 -0.06956,0.0139 -0.09738,0.0417 l -0.542568,0.54258 c -0.05565,0.0556 -0.05565,0.13911 0,0.19476 0.05565,0.0556 0.139119,0.0556 0.194767,0 l 0.542568,-0.54256 c 0.05565,-0.0556 0.05565,-0.13913 0,-0.19478 -0.02783,-0.0278 -0.06956,-0.0417 -0.09738,-0.0417 z"
         inkscape:connector-curvature="0" />
      <path
         style="fill:#ffb700;stroke-width:0.206295"
         id="path930-2"
         d="m 94.387252,117.22859 c 0.05565,0.0556 0.139121,0.0556 0.194769,0 l 0.556478,-0.55647 c 0.05565,-0.0556 0.05565,-0.13913 0,-0.19478 -0.06956,-0.0556 -0.125207,-0.0556 -0.194765,0 l -0.556482,0.55648 c -0.05565,0.0556 -0.05565,0.13913 0,0.19477 z"
         inkscape:connector-curvature="0" />
      <path
         style="fill:#ffb700;stroke-width:0.206295"
         id="path932-9"
         d="m 90.811872,116.67212 0.570392,0.57039 c 0.05565,0.0556 0.139121,0.0556 0.194768,0 0.05565,-0.0556 0.05565,-0.13913 0,-0.19477 l -0.570391,-0.5704 c -0.06956,-0.0556 -0.139121,-0.0556 -0.194769,0 -0.04173,0.0417 -0.04173,0.13913 0,0.19478 z"
         inkscape:connector-curvature="0" />
      <path
         style="fill:#ffb700;stroke-width:0.206295"
         id="path934-7"
         d="m 94.609845,120.06664 c -0.02783,-0.0279 -0.06956,-0.0417 -0.09739,-0.0417 -0.04173,0 -0.06956,0.0139 -0.09738,0.0417 -0.05565,0.0556 -0.05565,0.13912 0,0.19477 l 0.528658,0.54257 c 0.05565,0.0556 0.139119,0.0556 0.194765,0 0.05565,-0.0556 0.05565,-0.13912 0,-0.19477 z"
         inkscape:connector-curvature="0" />
      <path
         sodipodi:nodetypes="cc"
         inkscape:connector-curvature="0"
         id="path1097-0"
         d="m 92.986737,114.85662 v -8.87227"
         style="fill:none;stroke:#000000;stroke-width:0.529167;stroke-linecap:round;stroke-linejoin:miter;stroke-miterlimit:4;stroke-dasharray:none;stroke-opacity:1" />
      <rect
         ry="0.3674956"
         y="114.54536"
         x="92.22171"
         height="2.149302"
         width="1.5211308"
         id="rect5341"
         style="fill:#000000;fill-opacity:1;stroke:none;stroke-width:0.529167;stroke-linecap:round;stroke-linejoin:round;stroke-miterlimit:4;stroke-dasharray:none;stroke-dashoffset:0;stroke-opacity:1;paint-order:markers stroke fill"
         rx="0.3674956" />
    </g>
    <path
       inkscape:transform-center-y="-22.45391"
       inkscape:transform-center-x="38.341818"
       id="path3577-8"
       d="m 456.61491,64.421007 a 10.155913,10.155913 0 0 0 -12.101,-2.905344 c -7.921,3.570698 -13.95498,6.367517 -18.8411,7.308426 -4.88608,0.940927 -8.78757,0.741066 -15.49873,-2.655212 -10.43492,-5.280664 -21.03758,-20.72026 -27.17245,-35.88903 a 10.155913,10.155913 0 0 0 -13.22704,-5.608157 10.155913,10.155913 0 0 0 -5.60813,13.227022 c 7.1726,17.734693 18.47168,37.104384 36.83267,46.396118 10.00322,5.062264 19.9054,6.132746 28.51555,4.474699 8.61012,-1.658041 15.76857,-5.323707 23.34982,-8.741253 a 10.155913,10.155913 0 0 0 5.08106,-13.431614 10.155913,10.155913 0 0 0 -1.33054,-2.175717 z"
       style="color:#000000;font-style:normal;font-variant:normal;font-weight:normal;font-stretch:normal;font-size:medium;line-height:normal;font-family:sans-serif;font-variant-ligatures:normal;font-variant-position:normal;font-variant-caps:normal;font-variant-numeric:normal;font-variant-alternates:normal;font-variant-east-asian:normal;font-feature-settings:normal;font-variation-settings:normal;text-indent:0;text-align:start;text-decoration:none;text-decoration-line:none;text-decoration-style:solid;text-decoration-color:#000000;letter-spacing:normal;word-spacing:normal;text-transform:none;writing-mode:lr-tb;direction:ltr;text-orientation:mixed;dominant-baseline:auto;baseline-shift:baseline;text-anchor:start;white-space:normal;shape-padding:0;shape-margin:0;inline-size:0;clip-rule:nonzero;display:inline;overflow:visible;visibility:visible;opacity:1;isolation:auto;mix-blend-mode:normal;color-interpolation:sRGB;color-interpolation-filters:linearRGB;solid-color:#000000;solid-opacity:1;vector-effect:none;fill:#000000;fill-opacity:1;fill-rule:nonzero;stroke:#f4f4f4;stroke-width:2.64583;stroke-linecap:round;stroke-linejoin:miter;stroke-miterlimit:4;stroke-dasharray:none;stroke-dashoffset:0;stroke-opacity:1;paint-order:stroke fill markers;color-rendering:auto;image-rendering:auto;shape-rendering:auto;text-rendering:auto;enable-background:accumulate;stop-color:#000000;stop-opacity:1" />
    <g
       transform="matrix(3.6460384,0,0,3.6460384,189.2841,-344.8421)"
       id="g2229">
      <path
         transform="matrix(0.07256735,0,0,0.07256735,-37.557028,89.378569)"
         d="m 1501.0625,289.08008 c -5.6261,-0.0512 -11.3674,0.66964 -17.207,2.23437 -74.7479,20.02857 -52.158,145.29509 -32.8164,237.38086 0.9292,4.4239 1.7347,8.90632 2.4414,13.42774 L 1335.375,444.95703 a 59.410622,59.410622 0 0 0 -37.7598,-13.50976 59.410622,59.410622 0 0 0 -58.7285,50.49023 l -40.5058,267.47852 a 59.404681,59.404681 0 0 0 49.8457,67.63671 59.404681,59.404681 0 0 0 67.6093,-49.8457 l 24.8418,-164.01758 144.4785,118.85547 a 59.404681,59.404681 0 0 0 0.4297,0.34961 c 10.0807,9.51018 24.2466,14.99024 44.3262,14.99024 92.6863,0 111.235,-74.49166 96.5215,-242.10547 -8.5582,-97.49417 -58.9827,-205.59518 -125.3711,-206.19922 z"
         style="color:#000000;font-style:normal;font-variant:normal;font-weight:normal;font-stretch:normal;font-size:medium;line-height:normal;font-family:sans-serif;font-variant-ligatures:normal;font-variant-position:normal;font-variant-caps:normal;font-variant-numeric:normal;font-variant-alternates:normal;font-variant-east-asian:normal;font-feature-settings:normal;font-variation-settings:normal;text-indent:0;text-align:start;text-decoration:none;text-decoration-line:none;text-decoration-style:solid;text-decoration-color:#000000;letter-spacing:normal;word-spacing:normal;text-transform:none;writing-mode:lr-tb;direction:ltr;text-orientation:mixed;dominant-baseline:auto;baseline-shift:baseline;text-anchor:start;white-space:normal;shape-padding:0;shape-margin:0;inline-size:0;clip-rule:nonzero;display:inline;overflow:visible;visibility:visible;opacity:1;isolation:auto;mix-blend-mode:normal;color-interpolation:sRGB;color-interpolation-filters:linearRGB;solid-color:#000000;solid-opacity:1;vector-effect:none;fill:#000000;fill-opacity:1;fill-rule:nonzero;stroke:#f4f4f4;stroke-width:10;stroke-linecap:round;stroke-linejoin:round;stroke-miterlimit:4;stroke-dasharray:none;stroke-dashoffset:0;stroke-opacity:1;paint-order:markers stroke fill;color-rendering:auto;image-rendering:auto;shape-rendering:auto;text-rendering:auto;enable-background:accumulate;stop-color:#000000;stop-opacity:1"
         id="path3656" />
      <circle
         style="vector-effect:none;fill:#000000;fill-opacity:0.988796;stroke:#f4f4f4;stroke-width:0.725673;stroke-linecap:butt;stroke-linejoin:round;stroke-miterlimit:4;stroke-dasharray:none;stroke-dashoffset:0;stroke-opacity:1;paint-order:markers stroke fill"
         id="path17144"
         cx="-67.32769"
         cy="101.214"
         r="8.0010109"
         transform="scale(-1,1)" />
    </g>
    <g
       style="fill:#000000;stroke:none;stroke-width:1.71637"
       id="g1251-5-1-3-7"
       transform="matrix(-0.38211406,0.65829273,0.65829273,0.38211406,380.46473,50.180669)">
      <rect
         transform="matrix(0.86611684,0.49984159,-0.50014687,0.86594059,0,0)"
         y="5.0564628"
         x="135.53751"
         height="8.8297234"
         width="8.9975777"
         id="rect1246-5-3-3-1"
         style="color:#000000;clip-rule:nonzero;display:inline;overflow:visible;visibility:visible;opacity:1;isolation:auto;mix-blend-mode:normal;color-interpolation:sRGB;color-interpolation-filters:linearRGB;solid-color:#000000;solid-opacity:1;fill:#000000;fill-opacity:1;fill-rule:evenodd;stroke:#f4f4f4;stroke-width:1.66281;stroke-linecap:square;stroke-linejoin:round;stroke-miterlimit:4;stroke-dasharray:none;stroke-dashoffset:0;stroke-opacity:1;paint-order:markers stroke fill;color-rendering:auto;image-rendering:auto;shape-rendering:auto;text-rendering:auto;enable-background:accumulate" />
      <rect
         ry="0"
         transform="matrix(0.5,-0.8660254,-0.99991011,0.01340771,0,0)"
         y="-168.22519"
         x="-106.98386"
         height="11.294343"
         width="15.668805"
         id="rect1229-6-0-0-1"
         style="color:#000000;clip-rule:nonzero;display:inline;overflow:visible;visibility:visible;opacity:1;isolation:auto;mix-blend-mode:normal;color-interpolation:sRGB;color-interpolation-filters:linearRGB;solid-color:#000000;solid-opacity:1;fill:#000000;fill-opacity:1;fill-rule:evenodd;stroke:#f4f4f4;stroke-width:1.85163;stroke-linecap:round;stroke-linejoin:round;stroke-miterlimit:4;stroke-dasharray:none;stroke-dashoffset:0;stroke-opacity:1;paint-order:markers stroke fill;color-rendering:auto;image-rendering:auto;shape-rendering:auto;text-rendering:auto;enable-background:accumulate" />
    </g>
    <circle
       r="16.363361"
       cy="-28.374235"
       cx="74.574921"
       id="path1758"
       style="fill:#ffb700;fill-opacity:1;stroke:none;stroke-width:2.1487;stroke-linecap:round;stroke-linejoin:round;stroke-dashoffset:37.7986" />
    <path
       d="m 483.6446,151.94217 c -1.02389,0 -1.84847,0.82457 -1.84847,1.84846 v 12.6044 h -18.42265 c -0.57325,0 -1.0482,0.40472 -1.15651,0.94516 h -0.0238 v 0.23461 0.66818 7.67705 h -1.33893 c -1.02389,0 -1.84795,0.82406 -1.84795,1.84795 v 1.84846 h 1.84795 0.39481 0.94412 v 17.74414 h 3.69642 v -17.74414 h 15.90652 v 17.74414 h 3.69642 v -19.5926 -23.97735 c 0,-1.02389 -0.82406,-1.84846 -1.84795,-1.84846 z m -17.75499,17.4811 h 15.90652 v 6.49676 h -15.90652 z"
       style="fill:#aa4400;fill-opacity:1;stroke:none;stroke-width:2.64583;stroke-linecap:round;stroke-linejoin:round;stroke-miterlimit:4;stroke-dasharray:none;stroke-dashoffset:37.7986"
       id="rect2088" />
    <path
       style="color:#000000;font-style:normal;font-variant:normal;font-weight:normal;font-stretch:normal;font-size:medium;line-height:normal;font-family:sans-serif;font-variant-ligatures:normal;font-variant-position:normal;font-variant-caps:normal;font-variant-numeric:normal;font-variant-alternates:normal;font-variant-east-asian:normal;font-feature-settings:normal;font-variation-settings:normal;text-indent:0;text-align:start;text-decoration:none;text-decoration-line:none;text-decoration-style:solid;text-decoration-color:#000000;letter-spacing:normal;word-spacing:normal;text-transform:none;writing-mode:lr-tb;direction:ltr;text-orientation:mixed;dominant-baseline:auto;baseline-shift:baseline;text-anchor:start;white-space:normal;shape-padding:0;shape-margin:0;inline-size:0;clip-rule:nonzero;display:inline;overflow:visible;visibility:visible;opacity:1;isolation:auto;mix-blend-mode:normal;color-interpolation:sRGB;color-interpolation-filters:linearRGB;solid-color:#000000;solid-opacity:1;vector-effect:none;fill:#000000;fill-opacity:1;fill-rule:nonzero;stroke:#f4f4f4;stroke-width:2.64583;stroke-linecap:round;stroke-linejoin:miter;stroke-miterlimit:4;stroke-dasharray:none;stroke-dashoffset:0;stroke-opacity:1;paint-order:stroke fill markers;color-rendering:auto;image-rendering:auto;shape-rendering:auto;text-rendering:auto;enable-background:accumulate;stop-color:#000000;stop-opacity:1"
       d="m 446.87882,75.931591 a 10.155913,10.155913 0 0 0 -4.50508,11.600856 c 2.47392,8.328976 4.43455,14.684053 4.71035,19.652293 0.27582,4.96821 -0.44649,8.80745 -4.71379,15.00138 -6.63497,9.63069 -23.35928,18.06248 -39.21485,22.10339 a 10.155913,10.155913 0 0 0 -7.33469,12.35348 10.155913,10.155913 0 0 0 12.35346,7.33466 c 18.53767,-4.72443 39.25001,-13.31821 50.92475,-30.2641 6.36054,-9.23225 8.75193,-18.90078 8.26592,-27.65565 -0.48601,-8.754837 -3.15651,-16.340929 -5.52432,-24.312665 a 10.155913,10.155913 0 0 0 -12.62702,-6.839858 10.155913,10.155913 0 0 0 -2.33478,1.026104 z"
       id="path3577"
       inkscape:transform-center-x="29.064348"
       inkscape:transform-center-y="34.401429" />
    <g
       transform="translate(-51.85834,50.270836)"
       id="g3608">
      <g
         style="fill:#000000;stroke:#f4f4f4;stroke-width:8.2044;stroke-linecap:round;stroke-linejoin:round;stroke-miterlimit:4;stroke-dasharray:none;paint-order:stroke fill markers"
         id="g2456"
         transform="matrix(-0.32248942,0,0,0.32248942,432.6254,2.2098407)">
        <g
           id="g2440"
           style="stroke:#f4f4f4;stroke-width:8.2044;stroke-linecap:round;stroke-linejoin:round;stroke-miterlimit:4;stroke-dasharray:none;paint-order:stroke fill markers">
          <path
             id="path2430"
             d="m 100.496,82.692 c 5.004,-0.007 9.546,-0.784 13.59,-2.313 0.515,-0.196 1.019,-0.409 1.518,-0.628 1.923,-0.845 3.73,-1.866 5.441,-3.066 h -13.02 c -1.852,0 -3.55,0.652 -4.88,1.737 -0.089,0.044 -0.179,0.086 -0.267,0.131 -1.999,1.062 -3.816,2.412 -5.57,4.037 1.027,0.065 2.068,0.104 3.119,0.104 0.024,-0.001 0.045,-0.002 0.069,-0.002 z"
             style="stroke:#f4f4f4;stroke-width:8.2044;stroke-linecap:round;stroke-linejoin:round;stroke-miterlimit:4;stroke-dasharray:none;paint-order:stroke fill markers" />
          <path
             id="path2432"
             d="m 143.738,79.618 c -0.187,2.209 -1.088,4.282 -2.621,5.934 -0.771,0.835 -1.566,1.633 -2.377,2.409 -5.14,4.92 -11.039,8.659 -17.584,11.126 -5.951,2.25 -12.449,3.445 -19.319,3.583 -0.441,0.009 -0.88,0.027 -1.325,0.027 h -0.006 -0.004 c -0.069,0 -0.136,-0.005 -0.205,-0.005 -5.538,-0.042 -10.764,-0.722 -15.486,-1.708 -3.523,8.062 -5.947,17.887 -5.979,29.083 -0.004,9.868 1.944,20.724 6.71,32.039 1.286,3.059 4.254,4.899 7.376,4.899 1.035,0 2.086,-0.202 3.1,-0.628 0.864,-0.363 1.624,-0.867 2.279,-1.464 v -14.289 c -2.474,-7.376 -3.46,-14.253 -3.463,-20.557 -0.008,-9.654 2.359,-18.032 5.463,-24.464 v 20.809 29.507 6.162 88.727 c 0,6.829 5.537,12.363 12.363,12.363 6.828,0 12.365,-5.534 12.365,-12.363 v -90.272 h 4.635 v 90.272 c 0,6.829 5.537,12.363 12.363,12.363 6.828,0 12.365,-5.534 12.365,-12.363 V 126.411 91.728 c 2.748,-1.951 6.605,-5.084 10.518,-9.582 7.004,-8.015 14.148,-20.799 14.121,-38.065 0.004,-11.524 -3.143,-24.808 -10.89,-39.758 -2.031,-3.925 -6.858,-5.458 -10.783,-3.426 -3.923,2.031 -5.457,6.858 -3.426,10.783 6.789,13.127 9.094,23.795 9.099,32.401 -0.029,12.814 -5.049,21.572 -10.207,27.58 -1.805,2.081 -3.617,3.774 -5.198,5.089 -0.316,-0.04 -0.636,-0.066 -0.963,-0.066 h -3.1 c 0.114,0.551 0.193,1.114 0.215,1.688 0.018,0.42 -0.001,0.834 -0.036,1.246 z"
             style="stroke:#f4f4f4;stroke-width:8.2044;stroke-linecap:round;stroke-linejoin:round;stroke-miterlimit:4;stroke-dasharray:none;paint-order:stroke fill markers" />
          <path
             id="path2434"
             d="m 134.568,68.788 c 7.113,-2.42 12.855,-8.344 14.684,-16.201 2.818,-12.1 -4.709,-24.192 -16.807,-27.011 -12.1,-2.816 -24.193,4.708 -27.012,16.808 -2.816,12.101 4.709,24.193 16.809,27.011 2.32,0.541 4.641,0.697 6.896,0.517 1.422,-0.746 3.015,-1.161 4.649,-1.161 0.261,0 0.521,0.017 0.781,0.037 z"
             style="stroke:#f4f4f4;stroke-width:8.2044;stroke-linecap:round;stroke-linejoin:round;stroke-miterlimit:4;stroke-dasharray:none;paint-order:stroke fill markers" />
          <path
             id="path2436"
             d="m 14.086,167.004 c 1.035,0 2.086,-0.202 3.099,-0.628 0.864,-0.363 1.623,-0.867 2.279,-1.464 v -14.288 c -2.473,-7.377 -3.46,-14.253 -3.463,-20.556 -0.007,-9.653 2.36,-18.031 5.463,-24.464 v 20.807 29.51 6.158 88.727 c 0,6.829 5.537,12.363 12.363,12.363 6.828,0 12.365,-5.534 12.365,-12.363 v -90.272 h 4.635 v 90.272 c 0,6.829 5.539,12.363 12.364,12.363 6.828,0 12.365,-5.534 12.365,-12.363 V 126.411 98.533 c -5.271,-1.704 -9.338,-3.544 -11.68,-4.706 l -0.242,-0.121 -0.047,-0.021 c 0,0 0.302,-0.712 0.794,-1.843 0.021,0.012 0.04,0.025 0.062,0.037 0.307,0.127 4.49,2.366 11.113,4.557 2.933,0.97 6.345,1.927 10.111,2.69 4.45,0.9 9.392,1.526 14.629,1.566 0.072,0 0.143,0.004 0.215,0.004 0.843,0 1.694,-0.019 2.552,-0.053 5.613,-0.224 11.524,-1.211 17.39,-3.429 6.531,-2.46 12.963,-6.509 18.614,-12.428 0.192,-0.202 0.392,-0.388 0.583,-0.594 0.825,-0.89 1.4,-1.92 1.746,-3.004 0.467,-1.464 0.501,-3.028 0.108,-4.502 -0.376,-1.409 -1.134,-2.735 -2.282,-3.8 -3.24,-3.003 -8.303,-2.812 -11.303,0.429 -1.172,1.259 -2.368,2.368 -3.582,3.371 -2.477,2.045 -5.036,3.601 -7.67,4.783 -0.621,0.279 -1.246,0.542 -1.875,0.781 -4.607,1.743 -9.467,2.447 -14.281,2.447 -0.072,0 -0.143,-0.005 -0.215,-0.006 C 98.662,84.686 97.04,84.594 95.443,84.441 89.792,83.898 84.484,82.549 80.356,81.163 77.68,80.269 75.499,79.376 74.022,78.724 73.284,78.398 72.723,78.13 72.364,77.957 72.184,77.868 72.057,77.802 71.981,77.765 71.952,77.752 71.932,77.742 71.918,77.735 L 71.92,77.734 C 71.737,77.638 71.551,77.557 71.365,77.476 71.007,77.32 70.643,77.19 70.275,77.09 69.504,76.833 68.683,76.688 67.826,76.688 H 29.192 c -1.85,0 -3.546,0.651 -4.877,1.735 -0.089,0.044 -0.181,0.087 -0.269,0.132 -3.132,1.665 -5.821,4.031 -8.511,7.063 -7.9,9.041 -15.482,24.588 -15.535,44.45 -0.004,9.866 1.944,20.724 6.709,32.037 1.286,3.058 4.254,4.899 7.377,4.899 z"
             style="stroke:#f4f4f4;stroke-width:8.2044;stroke-linecap:round;stroke-linejoin:round;stroke-miterlimit:4;stroke-dasharray:none;paint-order:stroke fill markers" />
          <ellipse
             id="ellipse2438"
             ry="22.496"
             rx="22.495001"
             cy="47.486"
             cx="48.511002"
             transform="matrix(0.2268,-0.9739,0.9739,0.2268,-8.7408,83.9609)"
             style="stroke:#f4f4f4;stroke-width:8.20473;stroke-linecap:round;stroke-linejoin:round;stroke-miterlimit:4;stroke-dasharray:none;paint-order:stroke fill markers" />
        </g>
      </g>
      <g
         style="fill:#000000"
         id="g3090"
         transform="matrix(0.93935393,0,0,0.93935393,371.82008,83.633065)">
        <path
           id="path3116"
           style="fill:#d3d3d3;stroke:#f4f4f4;stroke-width:10;stroke-miterlimit:4;stroke-dasharray:none;paint-order:markers stroke fill"
           d="m 910.16211,637.47461 43.43945,23.07617 -45.00195,23.9082 c -5.02579,2.66995 -5.02579,9.87108 0,12.54102 l 45.00195,23.90625 -43.43945,23.07813 h 30.26953 l 28.30469,-15.03711 28.30469,15.03711 h 30.26948 L 983.87109,720.90625 1028.873,697 c 5.0258,-2.66994 5.0258,-9.87107 0,-12.54102 l -45.00191,-23.9082 43.43941,-23.07617 h -30.26948 l -28.30469,15.03711 -28.30469,-15.03711 z m 58.57422,31.11719 41.66987,22.13672 -41.66987,22.13867 -41.66992,-22.13867 z"
           transform="matrix(0.28166522,0,0,0.28166522,-238.85932,-165.5544)" />
        <path
           d="m 53,66.172443 c -4.513512,0 -8.172443,-3.658931 -8.172443,-8.172443 0,-4.513512 3.658931,-8.172443 8.172443,-8.172443 4.513512,0 8.172443,3.658931 8.172443,8.172443 0,4.513512 -3.658931,8.172443 -8.172443,8.172443 z"
           id="path3106"
           style="stroke:#f4f4f4;stroke-width:3.28842;stroke-miterlimit:4;stroke-dasharray:none;paint-order:markers stroke fill" />
        <path
           d="m 15,66.172446 c -4.513513,0 -8.1724444,-3.658933 -8.1724444,-8.172446 0,-4.513513 3.6589314,-8.172446 8.1724444,-8.172446 4.513513,0 8.172444,3.658933 8.172444,8.172446 0,4.513513 -3.658931,8.172446 -8.172444,8.172446 z"
           id="path3104"
           style="stroke:#f4f4f4;stroke-width:3.28842;stroke-miterlimit:4;stroke-dasharray:none;paint-order:markers stroke fill" />
        <path
           d="M 697.97231,73 H 682.02769"
           transform="translate(-656,-59)"
           id="path3100" />
        <path
           d="M 706.49828,103 H 722 c 1.10457,0 2,0.89543 2,2 v 10 c 0,1.10457 -0.89543,2 -2,2 h -3 c 0,-5.52285 -4.47715,-10 -10,-10 -5.52285,0 -10,4.47715 -10,10 h -18 c 0,-5.52285 -4.47715,-10 -10,-10 -5.52285,0 -10,4.47715 -10,10 h -3 c -1.10457,0 -2,-0.89543 -2,-2 v -10 c 0,-1.10457 0.89543,-2 2,-2 h 15.50172 z"
           transform="translate(-656,-59)"
           id="path3094"
           style="fill:#00449e;stroke:#f4f4f4;stroke-width:2.81665;stroke-miterlimit:4;stroke-dasharray:none;paint-order:markers stroke fill"
           sodipodi:nodetypes="csssscsccscsssscc" />
        <path
           d="M 673.50172,73 H 658 c -1.10457,0 -2,-0.895431 -2,-2 V 61 c 0,-1.104569 0.89543,-2 2,-2 h 64 c 1.10457,0 2,0.895431 2,2 v 10 c 0,1.104569 -0.89543,2 -2,2 h -15.50172 z"
           id="path3079"
           transform="translate(-656,-59)"
           style="fill:#357edd;stroke:#f4f4f4;stroke-width:2.81665;stroke-miterlimit:4;stroke-dasharray:none;paint-order:markers stroke fill"
           sodipodi:nodetypes="csssssssscc" />
      </g>
    </g>
    <path
       d="m 34.610517,-40.418595 a 13.271191,13.271191 0 0 0 -13.271066,13.271073 13.271191,13.271191 0 0 0 0.02496,0.812622 9.207997,9.207997 0 0 0 -0.227665,-0.227665 9.207997,9.207997 0 0 0 -9.207958,9.207961 9.207997,9.207997 0 0 0 9.207958,9.2079617 h 31.448786 0.02572 A 10.275599,10.275599 0 0 0 62.886471,-18.42187 10.275599,10.275599 0 0 0 52.611249,-28.697754 10.275599,10.275599 0 0 0 47.875663,-27.541003 13.271191,13.271191 0 0 0 34.61053,-40.418595 Z"
       style="fill:#cdecff;stroke:none;stroke-width:2.64583333;stroke-linecap:round;stroke-linejoin:round;stroke-dashoffset:37.7986;paint-order:markers stroke fill;stroke-miterlimit:4;stroke-dasharray:none"
       id="path1556-5-8-9" />
    <g
       style="fill:#d3d3d3"
       id="g1743"
       transform="matrix(0.84283555,0,0,0.84283555,39.656562,15.465335)">
      <path
         id="path1717"
         d="m 16.5,63.6 c 0,0 2.2,-4.7 11.2,-2.6 0,0 3.1,-4.7 7.2,-3.8 0,0 -7.2,4.7 -7.2,6.4 0,0 -3.5,-1.5 -11.2,0 z"
         style="fill:#d3d3d3" />
      <path
         id="path1719"
         d="m 67.3,73.4 c 0,0 3.3,-7 16.9,-3.9 0,0 4.7,-7 10.9,-5.7 0,0 -10.9,7 -10.9,9.6 -0.1,0 -5.3,-2.2 -16.9,0 z"
         style="fill:#d3d3d3" />
      <path
         id="path1721"
         d="m 82.6,50.5 c 0,0 -2.2,-4.7 -11.2,-2.6 0,0 -3.1,-4.7 -7.2,-3.8 0,0 7.2,4.7 7.2,6.4 0,0 3.5,-1.5 11.2,0 z"
         style="fill:#d3d3d3" />
      <path
         id="path1723"
         d="m 30.3,29.9 c 0,0 1.1,-2.3 5.6,-1.3 0,0 1.6,-2.3 3.6,-1.9 0,0 -3.6,2.3 -3.6,3.2 0.1,0 -1.7,-0.7 -5.6,0 z"
         style="fill:#d3d3d3" />
      <path
         id="path1725"
         d="m 5,41 c 0,0 1.1,-2.3 5.6,-1.3 0,0 1.6,-2.3 3.6,-1.9 0,0 -3.6,2.3 -3.6,3.2 0,0 -1.7,-0.7 -5.6,0 z"
         style="fill:#d3d3d3" />
      <path
         id="path1727"
         d="m 39.3,43.8 c 0,0 2,-4.3 10.4,-2.4 0,0 2.9,-4.3 6.7,-3.5 0,0 -6.7,4.3 -6.7,5.9 0,0 -3.2,-1.3 -10.4,0 z"
         style="fill:#d3d3d3" />
    </g>
    <path
       d="m 226.37051,-61.255197 a 18.718599,18.718599 0 0 0 -18.71843,18.718432 18.718599,18.718599 0 0 0 0.0352,1.146178 12.987591,12.987591 0 0 0 -0.3211,-0.321114 12.987591,12.987591 0 0 0 -12.98754,12.987543 12.987591,12.987591 0 0 0 12.98754,12.987539 h 44.35752 0.0363 a 14.493411,14.493411 0 0 0 14.49287,-14.492883 14.493411,14.493411 0 0 0 -14.49287,-14.493816 14.493411,14.493411 0 0 0 -6.67939,1.631563 18.718599,18.718599 0 0 0 -18.71006,-18.163442 z"
       style="fill:#cdecff;stroke:none;stroke-width:2.64583333;stroke-linecap:round;stroke-linejoin:round;stroke-dashoffset:37.7986;paint-order:markers stroke fill;stroke-miterlimit:4;stroke-dasharray:none"
       id="path1556-5-8-9-4" />
    <path
       id="path1556-5-8"
       style="fill:#cdecff;stroke:#f4f4f4;stroke-width:2.64583333;stroke-linecap:round;stroke-linejoin:round;stroke-dashoffset:37.7986;paint-order:markers stroke fill;stroke-miterlimit:4;stroke-dasharray:none"
       d="m 289.23438,-43.574607 a 18.718599,18.718599 0 0 0 -18.71845,18.718433 18.718599,18.718599 0 0 0 0.0352,1.146177 12.987591,12.987591 0 0 0 -0.32112,-0.321114 12.987591,12.987591 0 0 0 -12.98753,12.987544 12.987591,12.987591 0 0 0 12.98753,12.9875411 h 44.35756 0.0363 a 14.493411,14.493411 0 0 0 14.49291,-14.4928851 14.493411,14.493411 0 0 0 -14.49291,-14.493817 14.493411,14.493411 0 0 0 -6.67935,1.631561 18.718599,18.718599 0 0 0 -18.7101,-18.16344 z" />
    <path
       id="path1556"
       style="fill:#cdecff;stroke:#f4f4f4;stroke-width:2.64583333;stroke-linecap:round;stroke-linejoin:round;stroke-dashoffset:37.7986;paint-order:markers stroke fill;stroke-miterlimit:4;stroke-dasharray:none"
       d="m 150.58533,-49.098706 a 28.337219,28.337219 0 0 0 -28.06328,25.018237 23.568761,23.568761 0 0 0 -17.65487,22.8149887 23.568761,23.568761 0 0 0 23.56859,23.5685763 h 72.19157 a 21.120039,21.120039 0 0 0 21.11938,-21.1203043 21.120039,21.120039 0 0 0 -18.07436,-20.8985007 22.232801,22.232801 0 0 0 -21.80333,-17.886876 22.232801,22.232801 0 0 0 -7.5063,1.305809 28.337219,28.337219 0 0 0 -23.69946,-12.80193 28.337219,28.337219 0 0 0 -0.0779,0 z" />
    <path
       id="path1556-5"
       style="fill:#cdecff;stroke:#f4f4f4;stroke-width:2.64583333;stroke-linecap:round;stroke-linejoin:round;stroke-dashoffset:37.7986;paint-order:markers stroke fill;stroke-miterlimit:4;stroke-dasharray:none"
       d="m 243.60471,-25.088843 a 22.254381,22.254381 0 0 0 -22.25439,22.2544187 22.254381,22.254381 0 0 0 0.0418,1.362421 15.440835,15.440835 0 0 0 -0.38145,-0.381442 15.440835,15.440835 0 0 0 -15.44045,15.4413823 15.440835,15.440835 0 0 0 15.44046,15.440462 h 52.77895 a 17.231091,17.231091 0 0 0 17.23163,-17.230722 17.231091,17.231091 0 0 0 -17.23164,-17.2316513 17.231091,17.231091 0 0 0 -7.94067,1.939687 22.254381,22.254381 0 0 0 -22.24419,-21.5945557 z" />
  </g>
</svg>
