<?xml version="1.0" encoding="UTF-8" standalone="no"?>
<!-- Created with Inkscape (http://www.inkscape.org/) -->

<svg
   xmlns:i="http://ns.adobe.com/AdobeIllustrator/10.0/"
   xmlns:dc="http://purl.org/dc/elements/1.1/"
   xmlns:cc="http://creativecommons.org/ns#"
   xmlns:rdf="http://www.w3.org/1999/02/22-rdf-syntax-ns#"
   xmlns:svg="http://www.w3.org/2000/svg"
   xmlns="http://www.w3.org/2000/svg"
   xmlns:sodipodi="http://sodipodi.sourceforge.net/DTD/sodipodi-0.dtd"
   xmlns:inkscape="http://www.inkscape.org/namespaces/inkscape"
   width="114.24219mm"
   height="95.679642mm"
   viewBox="0 0 114.24219 95.679642"
   version="1.1"
   id="svg5423"
   sodipodi:docname="404.svg"
   inkscape:version="0.92.3 (unknown)"
   inkscape:export-filename="/home/fdf/quickstart/themes/hugo-paper/static/img/logo.png"
   inkscape:export-xdpi="90"
   inkscape:export-ydpi="90">
  <defs
     id="defs5417">
     <style type="text/css">
      @import url('https://fonts.googleapis.com/css?family=Quicksand:300');
     </style>
  </defs>
  <sodipodi:namedview
     id="base"
     pagecolor="#ffffff"
     bordercolor="#666666"
     borderopacity="1.0"
     inkscape:pageopacity="0.0"
     inkscape:pageshadow="2"
     inkscape:zoom="1.979899"
     inkscape:cx="136.50534"
     inkscape:cy="178.33474"
     inkscape:document-units="mm"
     inkscape:current-layer="g1604"
     showgrid="false"
     inkscape:window-width="1920"
     inkscape:window-height="1055"
     inkscape:window-x="1600"
     inkscape:window-y="25"
     inkscape:window-maximized="1"
     inkscape:snap-global="false" />
  <metadata
     id="metadata5420">
    <rdf:RDF>
      <cc:Work
         rdf:about="">
        <dc:format>image/svg+xml</dc:format>
        <dc:type
           rdf:resource="http://purl.org/dc/dcmitype/StillImage" />
        <dc:title />
      </cc:Work>
    </rdf:RDF>
  </metadata>
  <g
     inkscape:label="Layer 1"
     inkscape:groupmode="layer"
     id="layer1"
     transform="translate(-17.091039,-197.26985)">
    <g
       id="g1604"
       transform="matrix(1.9771757,0,0,1.9771757,-803.08015,-251.17144)"
       style="fill:#000000;stroke-width:0.50577193"
       inkscape:export-xdpi="90"
       inkscape:export-ydpi="90">
      <g
         transform="matrix(-0.27217657,0.11293022,0.11293022,0.27217657,480.66676,204.7694)"
         id="g1251-5-1-3"
         style="fill:#000000;stroke:none;stroke-width:1.71637249">
        <rect
           style="color:#000000;clip-rule:nonzero;display:inline;overflow:visible;visibility:visible;opacity:1;isolation:auto;mix-blend-mode:normal;color-interpolation:sRGB;color-interpolation-filters:linearRGB;solid-color:#000000;solid-opacity:1;fill:#000000;fill-opacity:1;fill-rule:evenodd;stroke:none;stroke-width:1.8516264;stroke-linecap:square;stroke-linejoin:round;stroke-miterlimit:4;stroke-dasharray:none;stroke-dashoffset:0;stroke-opacity:1;paint-order:fill markers stroke;color-rendering:auto;image-rendering:auto;shape-rendering:auto;text-rendering:auto;enable-background:accumulate"
           id="rect1229-6-0-0"
           width="15.668805"
           height="11.294343"
           x="-106.98386"
           y="-168.22519"
           transform="matrix(0.5,-0.8660254,-0.99991011,0.01340771,0,0)"
           ry="0" />
        <rect
           style="color:#000000;clip-rule:nonzero;display:inline;overflow:visible;visibility:visible;opacity:1;isolation:auto;mix-blend-mode:normal;color-interpolation:sRGB;color-interpolation-filters:linearRGB;solid-color:#000000;solid-opacity:1;fill:#000000;fill-opacity:1;fill-rule:evenodd;stroke:none;stroke-width:1.71637249;stroke-linecap:square;stroke-linejoin:round;stroke-miterlimit:4;stroke-dasharray:none;stroke-dashoffset:0;stroke-opacity:1;paint-order:fill markers stroke;color-rendering:auto;image-rendering:auto;shape-rendering:auto;text-rendering:auto;enable-background:accumulate"
           id="rect1246-5-3-3"
           width="9.6449051"
           height="2.4550581"
           x="134.8607"
           y="5.2323093"
           transform="rotate(30)" />
      </g>
      <text
         id="text840-7"
         y="275.02267"
         x="472.90695"
         style="color:#000000;font-style:normal;font-variant:normal;font-weight:normal;font-stretch:normal;font-size:17.84251022px;line-height:129.99999523%;font-family:Quicksand;-inkscape-font-specification:'Quicksand, Normal';font-variant-ligatures:normal;font-variant-caps:normal;font-variant-numeric:normal;font-feature-settings:normal;text-indent:0;text-align:end;text-decoration:none;text-decoration-line:none;text-decoration-style:solid;text-decoration-color:#000000;letter-spacing:0px;word-spacing:0px;text-transform:none;writing-mode:lr-tb;direction:ltr;baseline-shift:baseline;text-anchor:end;white-space:normal;clip-rule:nonzero;display:inline;overflow:visible;visibility:visible;opacity:1;isolation:auto;mix-blend-mode:normal;color-interpolation:sRGB;color-interpolation-filters:linearRGB;solid-color:#000000;solid-opacity:1;fill:#000000;fill-opacity:1;fill-rule:nonzero;stroke:none;stroke-width:0.36371511px;stroke-linecap:butt;stroke-linejoin:miter;stroke-miterlimit:4;stroke-dasharray:none;stroke-dashoffset:0;stroke-opacity:1;color-rendering:auto;image-rendering:auto;shape-rendering:auto;text-rendering:auto;enable-background:accumulate"
         xml:space="preserve"><tspan
           style="font-style:normal;font-variant:normal;font-weight:300;font-stretch:normal;font-size:17.84251022px;font-family:Quicksand;-inkscape-font-specification:'Quicksand Light';font-variant-ligatures:normal;font-variant-caps:normal;font-variant-numeric:normal;font-feature-settings:normal;text-align:end;word-spacing:6.69094181px;writing-mode:lr-tb;text-anchor:end;stroke-width:0.36371511px"
           y="275.02267"
           x="472.90695"
           id="tspan838-9"
           sodipodi:role="line">404</tspan></text>
      <svg
         height="100%"
         width="100%"
         version="1.1"
         x="0px"
         y="0px"
         viewBox="0 0 100 100"
         style="fill:#000000;stroke-width:0.76722896"
         xml:space="preserve"
         id="svg857"><g
           id="g855"
           style="stroke-width:0.76722896"><g
             i:extraneous="self"
             id="g853"
             style="stroke-width:0.76722896"><g
               id="g851"
               style="stroke-width:0.76722896" /></g></g></svg>      <g
         style="stroke-width:0.90536898"
         transform="matrix(-0.55863626,0,0,0.55863626,656.82155,115.8633)"
         id="g960">
        <path
           style="fill:#000000;stroke-width:0.59350681"
           id="path847"
           d="m 432.15853,236.93957 c -1.0848,-0.75936 -2.60352,-0.5424 -3.41712,0.59664 l -3.36287,4.77311 c -1.03056,1.46448 -2.4408,2.49504 -4.12224,3.09168 l -1.03056,0.32544 c -0.97631,0.32544 -1.95263,0.48816 -2.98319,0.48816 l -4.3392,-0.10848 c -1.41024,-0.0542 -2.82047,-0.43392 -4.06799,-1.13904 -1.46448,-0.86784 -2.60352,-2.11536 -3.36288,-3.63408 l -2.11536,-4.33919 c -0.59664,-1.19328 -2.06111,-1.73568 -3.25439,-1.13904 -1.19328,0.59664 -1.73568,2.06112 -1.13904,3.2544 l 2.11536,4.33919 c 1.13904,2.38656 2.98319,4.39344 5.31551,5.6952 0.86784,0.48816 1.73568,0.86783 2.712,1.13903 l -3.30864,9.00383 c -0.70512,1.95264 -0.10848,4.12224 1.51872,5.424 l 0.43392,0.32544 -0.86784,2.06111 c -0.21696,0.59664 -0.8136,0.92208 -1.41024,0.92208 0,0 0,0 0,0 l -8.46143,-0.0542 c -1.57296,-0.0542 -2.82048,1.24752 -2.82048,2.82048 0,1.57296 1.24752,2.82048 2.82048,2.82048 l 8.46143,0.0542 c 0,0 0,0 0.0542,0 2.87472,0 5.47824,-1.73568 6.61727,-4.39344 l 0.2712,-0.65088 1.19328,0.92208 c 0.48816,0.37968 0.70512,0.97632 0.5424,1.57296 l -2.33232,10.35983 c -0.32544,1.51872 0.59664,3.03744 2.11536,3.36287 0.21696,0.0542 0.43392,0.0542 0.59664,0.0542 1.30176,0 2.4408,-0.86783 2.712,-2.16959 l 2.33231,-10.35983 c 0.59664,-2.65776 -0.37967,-5.47824 -2.54927,-7.21391 l -2.38656,-1.8984 5.31552,-12.58367 c 0.65087,-0.10848 1.24751,-0.2712 1.84415,-0.48816 l 1.0848,-0.37967 c 2.60352,-0.92208 4.8816,-2.60352 6.50879,-4.8816 l 3.36288,-4.77311 c 0.75936,-0.86784 0.5424,-2.38656 -0.59664,-3.20016 z"
           inkscape:connector-curvature="0" />
        <circle
           style="fill:#000000;stroke-width:0.59348953"
           id="ellipse849"
           cy="438.86661"
           cx="-192.57388"
           transform="rotate(-83.788255)"
           r="5.4238367" />
      </g>
      <g
         id="g1033"
         transform="rotate(-7.1614113,426.51233,236.68578)">
        <path
           sodipodi:nodetypes="cc"
           inkscape:connector-curvature="0"
           id="path998"
           d="m 423.69612,244.94347 0.60509,-1.14296"
           style="fill:none;stroke:#000000;stroke-width:0.35685021;stroke-linecap:round;stroke-linejoin:miter;stroke-miterlimit:4;stroke-dasharray:none;stroke-opacity:1" />
        <path
           sodipodi:nodetypes="cc"
           inkscape:connector-curvature="0"
           id="path998-6"
           d="m 422.83119,244.97003 -0.0667,-1.23642"
           style="fill:none;stroke:#000000;stroke-width:0.35685021;stroke-linecap:round;stroke-linejoin:miter;stroke-miterlimit:4;stroke-dasharray:none;stroke-opacity:1" />
        <path
           sodipodi:nodetypes="cc"
           inkscape:connector-curvature="0"
           id="path998-6-7"
           d="m 421.98011,245.04417 -0.51714,-0.98674"
           style="fill:none;stroke:#000000;stroke-width:0.35685021;stroke-linecap:round;stroke-linejoin:miter;stroke-miterlimit:4;stroke-dasharray:none;stroke-opacity:1" />
      </g>
      <g
         id="g2568"
         transform="rotate(-77.412577,439.2543,233.86253)"
         inkscape:transform-center-x="-5.5001986"
         inkscape:transform-center-y="1.4059673"
         style="fill:#000000">
        <path
           style="fill:#ffb700;fill-opacity:1;stroke:none;stroke-width:2.5333333;stroke-linecap:round;stroke-linejoin:round;stroke-miterlimit:4;stroke-dasharray:none;stroke-dashoffset:0;stroke-opacity:1;paint-order:markers stroke fill"
           d="m 258.83398,36.3125 c -1.22575,0.05129 -2.44502,0.362491 -3.61132,0.925781 -3.00297,1.410499 -6.06789,1.942108 -9.07813,1.44336 l -1.58594,7.103515 c 3.01895,0.847929 5.66876,2.565279 7.47461,4.962891 1.2742,1.671863 3.17351,2.876835 5.23828,3.337891 1.15449,0.257792 2.30988,0.273665 3.41602,0.08984 l 1.74609,-6.074219 -5.88086,-2.455078 4.77735,0.05078 0.42383,-8.996094 c -0.96217,-0.297236 -1.94278,-0.429557 -2.91993,-0.388672 z"
           transform="matrix(0.029163,0.13060244,-0.13060244,0.029163,439.27496,205.29565)"
           id="path2595"
           inkscape:connector-curvature="0"
           sodipodi:nodetypes="ccccccccccccc" />
        <path
           style="fill:#ffb700;fill-opacity:1;stroke:none;stroke-width:0.33900768;stroke-linecap:round;stroke-linejoin:round;stroke-miterlimit:4;stroke-dasharray:none;stroke-dashoffset:0;stroke-opacity:1;paint-order:markers stroke fill"
           d="m 441.55034,241.28158 0.21019,0.76831 0.44512,-0.4503 c -0.16194,-0.15498 -0.36496,-0.26552 -0.58992,-0.30809 -0.0218,-0.005 -0.0436,-0.007 -0.0653,-0.01 z"
           id="path2593"
           inkscape:connector-curvature="0" />
        <path
           style="fill:#ffb700;fill-opacity:1;stroke:none;stroke-width:0.33900768;stroke-linecap:round;stroke-linejoin:round;stroke-miterlimit:4;stroke-dasharray:none;stroke-dashoffset:0;stroke-opacity:1;paint-order:markers stroke fill"
           d="m 441.38302,243.62988 0.24176,-0.42168 -0.52592,-0.78585 c -0.0377,0.11429 -0.0591,0.23611 -0.0604,0.3634 -4.7e-4,0.0453 0.0101,0.0908 0.01,0.13609 0.0317,0.27043 0.15417,0.51814 0.33493,0.70803 z"
           id="path2591"
           inkscape:connector-curvature="0" />
        <path
           style="fill:#ffb700;fill-opacity:1;stroke:none;stroke-width:0.33900768;stroke-linecap:round;stroke-linejoin:round;stroke-miterlimit:4;stroke-dasharray:none;stroke-dashoffset:0;stroke-opacity:1;paint-order:markers stroke fill"
           d="m 440.60813,242.34672 -0.93947,-0.56665 c 0.0233,0.3191 0.17337,0.61955 0.41999,0.82912 z"
           id="rect1013"
           inkscape:connector-curvature="0" />
        <rect
           rx="0.18586896"
           style="fill:#000000;fill-opacity:1;stroke:none;stroke-width:0.26763764;stroke-linecap:round;stroke-linejoin:round;stroke-miterlimit:4;stroke-dasharray:none;stroke-dashoffset:0;stroke-opacity:1;paint-order:markers stroke fill"
           id="rect5341"
           width="1.2382302"
           height="1.7495739"
           x="446.11823"
           y="225.9259"
           ry="0.18586896"
           transform="rotate(1.4302963)" />
      </g>
      <path
         inkscape:connector-curvature="0"
         id="path1097"
         d="m 443.02085,232.95661 c -3.97072,-1.93949 -5.79897,-3.00442 -5.54392,-6.01187"
         style="fill:none;stroke:#000000;stroke-width:0.26763767;stroke-linecap:round;stroke-linejoin:miter;stroke-miterlimit:4;stroke-dasharray:none;stroke-opacity:1"
         sodipodi:nodetypes="cc" />
      <path
         style="fill:none;stroke:#000000;stroke-width:0.1784251;stroke-linecap:butt;stroke-linejoin:miter;stroke-miterlimit:4;stroke-dasharray:0.53527531, 0.1784251;stroke-dashoffset:0;stroke-opacity:1"
         d="m 432.39265,245.86759 c 0,0 3.29925,-17.12493 22.1691,-5.9478"
         id="path2603"
         inkscape:connector-curvature="0"
         sodipodi:nodetypes="cc" />
    </g>
  </g>
</svg>
