<svg xmlns:xlink="http://www.w3.org/1999/xlink" width="1149" height="815" xmlns="http://www.w3.org/2000/svg" version="1.1"><defs><clipPath id="rWgbsnPWKNaQ"><path fill="none" stroke="none" d="M 0 0 L 1149 0 L 1149 815 L 0 815 L 0 0 Z" /></clipPath></defs><g clip-path="url(&quot;#rWgbsnPWKNaQ&quot;)" transform="scale(1)"><g><rect fill="rgb(255, 255, 255)" fill-opacity="1" stroke="none" x="0" y="0" width="1149" height="815" /><path fill="none" stroke="rgb(192, 192, 192)" stroke-linecap="round" stroke-linejoin="round" stroke-miterlimit="10" stroke-opacity="1" d="M 31.5 0.5 L 31.5 815.5 M 31.5 0.5 L 31.5 815.5 M 92.5 0.5 L 92.5 815.5 M 153.5 0.5 L 153.5 815.5 M 214.5 0.5 L 214.5 815.5 M 275.5 0.5 L 275.5 815.5 M 336.5 0.5 L 336.5 815.5 M 396.5 0.5 L 396.5 815.5 M 457.5 0.5 L 457.5 815.5 M 518.5 0.5 L 518.5 815.5 M 640.5 0.5 L 640.5 815.5 M 701.5 0.5 L 701.5 815.5 M 762.5 0.5 L 762.5 815.5 M 823.5 0.5 L 823.5 815.5 M 884.5 0.5 L 884.5 815.5 M 944.5 0.5 L 944.5 815.5 M 1005.5 0.5 L 1005.5 815.5 M 1066.5 0.5 L 1066.5 815.5 M 1127.5 0.5 L 1127.5 815.5" paint-order="fill stroke markers" /><path fill="none" stroke="rgb(192, 192, 192)" stroke-linecap="round" stroke-linejoin="round" stroke-miterlimit="10" stroke-opacity="0.235294" d="M 7.5 0.5 L 7.5 815.5 M 19.5 0.5 L 19.5 815.5 M 43.5 0.5 L 43.5 815.5 M 56.5 0.5 L 56.5 815.5 M 68.5 0.5 L 68.5 815.5 M 80.5 0.5 L 80.5 815.5 M 104.5 0.5 L 104.5 815.5 M 116.5 0.5 L 116.5 815.5 M 129.5 0.5 L 129.5 815.5 M 141.5 0.5 L 141.5 815.5 M 165.5 0.5 L 165.5 815.5 M 177.5 0.5 L 177.5 815.5 M 189.5 0.5 L 189.5 815.5 M 202.5 0.5 L 202.5 815.5 M 226.5 0.5 L 226.5 815.5 M 238.5 0.5 L 238.5 815.5 M 250.5 0.5 L 250.5 815.5 M 263.5 0.5 L 263.5 815.5 M 287.5 0.5 L 287.5 815.5 M 299.5 0.5 L 299.5 815.5 M 311.5 0.5 L 311.5 815.5 M 323.5 0.5 L 323.5 815.5 M 348.5 0.5 L 348.5 815.5 M 360.5 0.5 L 360.5 815.5 M 372.5 0.5 L 372.5 815.5 M 384.5 0.5 L 384.5 815.5 M 409.5 0.5 L 409.5 815.5 M 421.5 0.5 L 421.5 815.5 M 433.5 0.5 L 433.5 815.5 M 445.5 0.5 L 445.5 815.5 M 470.5 0.5 L 470.5 815.5 M 482.5 0.5 L 482.5 815.5 M 494.5 0.5 L 494.5 815.5 M 506.5 0.5 L 506.5 815.5 M 530.5 0.5 L 530.5 815.5 M 543.5 0.5 L 543.5 815.5 M 555.5 0.5 L 555.5 815.5 M 567.5 0.5 L 567.5 815.5 M 591.5 0.5 L 591.5 815.5 M 604.5 0.5 L 604.5 815.5 M 616.5 0.5 L 616.5 815.5 M 628.5 0.5 L 628.5 815.5 M 652.5 0.5 L 652.5 815.5 M 664.5 0.5 L 664.5 815.5 M 677.5 0.5 L 677.5 815.5 M 689.5 0.5 L 689.5 815.5 M 713.5 0.5 L 713.5 815.5 M 725.5 0.5 L 725.5 815.5 M 737.5 0.5 L 737.5 815.5 M 750.5 0.5 L 750.5 815.5 M 774.5 0.5 L 774.5 815.5 M 786.5 0.5 L 786.5 815.5 M 798.5 0.5 L 798.5 815.5 M 811.5 0.5 L 811.5 815.5 M 835.5 0.5 L 835.5 815.5 M 847.5 0.5 L 847.5 815.5 M 859.5 0.5 L 859.5 815.5 M 871.5 0.5 L 871.5 815.5 M 896.5 0.5 L 896.5 815.5 M 908.5 0.5 L 908.5 815.5 M 920.5 0.5 L 920.5 815.5 M 932.5 0.5 L 932.5 815.5 M 957.5 0.5 L 957.5 815.5 M 969.5 0.5 L 969.5 815.5 M 981.5 0.5 L 981.5 815.5 M 993.5 0.5 L 993.5 815.5 M 1018.5 0.5 L 1018.5 815.5 M 1030.5 0.5 L 1030.5 815.5 M 1042.5 0.5 L 1042.5 815.5 M 1054.5 0.5 L 1054.5 815.5 M 1078.5 0.5 L 1078.5 815.5 M 1091.5 0.5 L 1091.5 815.5 M 1103.5 0.5 L 1103.5 815.5 M 1115.5 0.5 L 1115.5 815.5 M 1139.5 0.5 L 1139.5 815.5" paint-order="fill stroke markers" /><path fill="none" stroke="rgb(192, 192, 192)" stroke-linecap="round" stroke-linejoin="round" stroke-miterlimit="10" stroke-opacity="1" d="M 0.5 10.5 L 1149.5 10.5 M 0.5 10.5 L 1149.5 10.5 M 0.5 107.5 L 1149.5 107.5 M 0.5 205.5 L 1149.5 205.5 M 0.5 303.5 L 1149.5 303.5 M 0.5 499.5 L 1149.5 499.5 M 0.5 597.5 L 1149.5 597.5 M 0.5 695.5 L 1149.5 695.5 M 0.5 792.5 L 1149.5 792.5" paint-order="fill stroke markers" /><path fill="none" stroke="rgb(192, 192, 192)" stroke-linecap="round" stroke-linejoin="round" stroke-miterlimit="10" stroke-opacity="0.235294" d="M 0.5 10.5 L 1149.5 10.5 M 0.5 29.5 L 1149.5 29.5 M 0.5 49.5 L 1149.5 49.5 M 0.5 68.5 L 1149.5 68.5 M 0.5 88.5 L 1149.5 88.5 M 0.5 127.5 L 1149.5 127.5 M 0.5 147.5 L 1149.5 147.5 M 0.5 166.5 L 1149.5 166.5 M 0.5 186.5 L 1149.5 186.5 M 0.5 225.5 L 1149.5 225.5 M 0.5 244.5 L 1149.5 244.5 M 0.5 264.5 L 1149.5 264.5 M 0.5 284.5 L 1149.5 284.5 M 0.5 323.5 L 1149.5 323.5 M 0.5 342.5 L 1149.5 342.5 M 0.5 362.5 L 1149.5 362.5 M 0.5 381.5 L 1149.5 381.5 M 0.5 421.5 L 1149.5 421.5 M 0.5 440.5 L 1149.5 440.5 M 0.5 460.5 L 1149.5 460.5 M 0.5 479.5 L 1149.5 479.5 M 0.5 518.5 L 1149.5 518.5 M 0.5 538.5 L 1149.5 538.5 M 0.5 558.5 L 1149.5 558.5 M 0.5 577.5 L 1149.5 577.5 M 0.5 616.5 L 1149.5 616.5 M 0.5 636.5 L 1149.5 636.5 M 0.5 655.5 L 1149.5 655.5 M 0.5 675.5 L 1149.5 675.5 M 0.5 714.5 L 1149.5 714.5 M 0.5 734.5 L 1149.5 734.5 M 0.5 753.5 L 1149.5 753.5 M 0.5 773.5 L 1149.5 773.5 M 0.5 812.5 L 1149.5 812.5" paint-order="fill stroke markers" /><path fill="none" stroke="rgb(0, 0, 0)" stroke-miterlimit="10" stroke-opacity="1" d="M 579.5 2.5 L 579.5 815.5" paint-order="fill stroke markers" /><path fill="none" stroke="rgb(0, 0, 0)" stroke-miterlimit="10" stroke-opacity="1" d="M 579.5 1.5 L 575.5 5.5" paint-order="fill stroke markers" /><path fill="none" stroke="rgb(0, 0, 0)" stroke-miterlimit="10" stroke-opacity="1" d="M 579.5 1.5 L 583.5 5.5" paint-order="fill stroke markers" /><path fill="none" stroke="rgb(0, 0, 0)" stroke-miterlimit="10" stroke-opacity="1" d="M 0.5 401.5 L 1147.5 401.5" paint-order="fill stroke markers" /><path fill="none" stroke="rgb(0, 0, 0)" stroke-miterlimit="10" stroke-opacity="1" d="M 1148.5 401.5 L 1144.5 397.5" paint-order="fill stroke markers" /><path fill="none" stroke="rgb(0, 0, 0)" stroke-miterlimit="10" stroke-opacity="1" d="M 1148.5 401.5 L 1144.5 405.5" paint-order="fill stroke markers" /><text font-family="geogebra-sans-serif, sans-serif" font-size="12px" font-style="normal" font-weight="normal" text-decoration="normal" dominant-baseline="alphabetic" fill="rgb(0, 0, 0)" fill-opacity="1" stroke="none" text-anchor="start" x="23" y="417">–18</text><text font-family="geogebra-sans-serif, sans-serif" font-size="12px" font-style="normal" font-weight="normal" text-decoration="normal" dominant-baseline="alphabetic" fill="none" stroke="rgb(255, 255, 255)" stroke-linejoin="bevel" stroke-miterlimit="10" stroke-opacity="1" stroke-width="3" text-anchor="start" x="23" y="417">–18</text><text font-family="geogebra-sans-serif, sans-serif" font-size="12px" font-style="normal" font-weight="normal" text-decoration="normal" dominant-baseline="alphabetic" fill="rgb(0, 0, 0)" fill-opacity="1" stroke="none" text-anchor="start" x="23" y="417">–18</text><text font-family="geogebra-sans-serif, sans-serif" font-size="12px" font-style="normal" font-weight="normal" text-decoration="normal" dominant-baseline="alphabetic" fill="rgb(0, 0, 0)" fill-opacity="1" stroke="none" text-anchor="start" x="84" y="417">–16</text><text font-family="geogebra-sans-serif, sans-serif" font-size="12px" font-style="normal" font-weight="normal" text-decoration="normal" dominant-baseline="alphabetic" fill="none" stroke="rgb(255, 255, 255)" stroke-linejoin="bevel" stroke-miterlimit="10" stroke-opacity="1" stroke-width="3" text-anchor="start" x="84" y="417">–16</text><text font-family="geogebra-sans-serif, sans-serif" font-size="12px" font-style="normal" font-weight="normal" text-decoration="normal" dominant-baseline="alphabetic" fill="rgb(0, 0, 0)" fill-opacity="1" stroke="none" text-anchor="start" x="84" y="417">–16</text><text font-family="geogebra-sans-serif, sans-serif" font-size="12px" font-style="normal" font-weight="normal" text-decoration="normal" dominant-baseline="alphabetic" fill="rgb(0, 0, 0)" fill-opacity="1" stroke="none" text-anchor="start" x="145" y="417">–14</text><text font-family="geogebra-sans-serif, sans-serif" font-size="12px" font-style="normal" font-weight="normal" text-decoration="normal" dominant-baseline="alphabetic" fill="none" stroke="rgb(255, 255, 255)" stroke-linejoin="bevel" stroke-miterlimit="10" stroke-opacity="1" stroke-width="3" text-anchor="start" x="145" y="417">–14</text><text font-family="geogebra-sans-serif, sans-serif" font-size="12px" font-style="normal" font-weight="normal" text-decoration="normal" dominant-baseline="alphabetic" fill="rgb(0, 0, 0)" fill-opacity="1" stroke="none" text-anchor="start" x="145" y="417">–14</text><text font-family="geogebra-sans-serif, sans-serif" font-size="12px" font-style="normal" font-weight="normal" text-decoration="normal" dominant-baseline="alphabetic" fill="rgb(0, 0, 0)" fill-opacity="1" stroke="none" text-anchor="start" x="206" y="417">–12</text><text font-family="geogebra-sans-serif, sans-serif" font-size="12px" font-style="normal" font-weight="normal" text-decoration="normal" dominant-baseline="alphabetic" fill="none" stroke="rgb(255, 255, 255)" stroke-linejoin="bevel" stroke-miterlimit="10" stroke-opacity="1" stroke-width="3" text-anchor="start" x="206" y="417">–12</text><text font-family="geogebra-sans-serif, sans-serif" font-size="12px" font-style="normal" font-weight="normal" text-decoration="normal" dominant-baseline="alphabetic" fill="rgb(0, 0, 0)" fill-opacity="1" stroke="none" text-anchor="start" x="206" y="417">–12</text><text font-family="geogebra-sans-serif, sans-serif" font-size="12px" font-style="normal" font-weight="normal" text-decoration="normal" dominant-baseline="alphabetic" fill="rgb(0, 0, 0)" fill-opacity="1" stroke="none" text-anchor="start" x="267" y="417">–10</text><text font-family="geogebra-sans-serif, sans-serif" font-size="12px" font-style="normal" font-weight="normal" text-decoration="normal" dominant-baseline="alphabetic" fill="none" stroke="rgb(255, 255, 255)" stroke-linejoin="bevel" stroke-miterlimit="10" stroke-opacity="1" stroke-width="3" text-anchor="start" x="267" y="417">–10</text><text font-family="geogebra-sans-serif, sans-serif" font-size="12px" font-style="normal" font-weight="normal" text-decoration="normal" dominant-baseline="alphabetic" fill="rgb(0, 0, 0)" fill-opacity="1" stroke="none" text-anchor="start" x="267" y="417">–10</text><text font-family="geogebra-sans-serif, sans-serif" font-size="12px" font-style="normal" font-weight="normal" text-decoration="normal" dominant-baseline="alphabetic" fill="rgb(0, 0, 0)" fill-opacity="1" stroke="none" text-anchor="start" x="331" y="417">–8</text><text font-family="geogebra-sans-serif, sans-serif" font-size="12px" font-style="normal" font-weight="normal" text-decoration="normal" dominant-baseline="alphabetic" fill="none" stroke="rgb(255, 255, 255)" stroke-linejoin="bevel" stroke-miterlimit="10" stroke-opacity="1" stroke-width="3" text-anchor="start" x="331" y="417">–8</text><text font-family="geogebra-sans-serif, sans-serif" font-size="12px" font-style="normal" font-weight="normal" text-decoration="normal" dominant-baseline="alphabetic" fill="rgb(0, 0, 0)" fill-opacity="1" stroke="none" text-anchor="start" x="331" y="417">–8</text><text font-family="geogebra-sans-serif, sans-serif" font-size="12px" font-style="normal" font-weight="normal" text-decoration="normal" dominant-baseline="alphabetic" fill="rgb(0, 0, 0)" fill-opacity="1" stroke="none" text-anchor="start" x="391" y="417">–6</text><text font-family="geogebra-sans-serif, sans-serif" font-size="12px" font-style="normal" font-weight="normal" text-decoration="normal" dominant-baseline="alphabetic" fill="none" stroke="rgb(255, 255, 255)" stroke-linejoin="bevel" stroke-miterlimit="10" stroke-opacity="1" stroke-width="3" text-anchor="start" x="391" y="417">–6</text><text font-family="geogebra-sans-serif, sans-serif" font-size="12px" font-style="normal" font-weight="normal" text-decoration="normal" dominant-baseline="alphabetic" fill="rgb(0, 0, 0)" fill-opacity="1" stroke="none" text-anchor="start" x="391" y="417">–6</text><text font-family="geogebra-sans-serif, sans-serif" font-size="12px" font-style="normal" font-weight="normal" text-decoration="normal" dominant-baseline="alphabetic" fill="rgb(0, 0, 0)" fill-opacity="1" stroke="none" text-anchor="start" x="452" y="417">–4</text><text font-family="geogebra-sans-serif, sans-serif" font-size="12px" font-style="normal" font-weight="normal" text-decoration="normal" dominant-baseline="alphabetic" fill="none" stroke="rgb(255, 255, 255)" stroke-linejoin="bevel" stroke-miterlimit="10" stroke-opacity="1" stroke-width="3" text-anchor="start" x="452" y="417">–4</text><text font-family="geogebra-sans-serif, sans-serif" font-size="12px" font-style="normal" font-weight="normal" text-decoration="normal" dominant-baseline="alphabetic" fill="rgb(0, 0, 0)" fill-opacity="1" stroke="none" text-anchor="start" x="452" y="417">–4</text><text font-family="geogebra-sans-serif, sans-serif" font-size="12px" font-style="normal" font-weight="normal" text-decoration="normal" dominant-baseline="alphabetic" fill="rgb(0, 0, 0)" fill-opacity="1" stroke="none" text-anchor="start" x="513" y="417">–2</text><text font-family="geogebra-sans-serif, sans-serif" font-size="12px" font-style="normal" font-weight="normal" text-decoration="normal" dominant-baseline="alphabetic" fill="none" stroke="rgb(255, 255, 255)" stroke-linejoin="bevel" stroke-miterlimit="10" stroke-opacity="1" stroke-width="3" text-anchor="start" x="513" y="417">–2</text><text font-family="geogebra-sans-serif, sans-serif" font-size="12px" font-style="normal" font-weight="normal" text-decoration="normal" dominant-baseline="alphabetic" fill="rgb(0, 0, 0)" fill-opacity="1" stroke="none" text-anchor="start" x="513" y="417">–2</text><text font-family="geogebra-sans-serif, sans-serif" font-size="12px" font-style="normal" font-weight="normal" text-decoration="normal" dominant-baseline="alphabetic" fill="rgb(0, 0, 0)" fill-opacity="1" stroke="none" text-anchor="start" x="638" y="417">2</text><text font-family="geogebra-sans-serif, sans-serif" font-size="12px" font-style="normal" font-weight="normal" text-decoration="normal" dominant-baseline="alphabetic" fill="none" stroke="rgb(255, 255, 255)" stroke-linejoin="bevel" stroke-miterlimit="10" stroke-opacity="1" stroke-width="3" text-anchor="start" x="638" y="417">2</text><text font-family="geogebra-sans-serif, sans-serif" font-size="12px" font-style="normal" font-weight="normal" text-decoration="normal" dominant-baseline="alphabetic" fill="rgb(0, 0, 0)" fill-opacity="1" stroke="none" text-anchor="start" x="638" y="417">2</text><text font-family="geogebra-sans-serif, sans-serif" font-size="12px" font-style="normal" font-weight="normal" text-decoration="normal" dominant-baseline="alphabetic" fill="rgb(0, 0, 0)" fill-opacity="1" stroke="none" text-anchor="start" x="699" y="417">4</text><text font-family="geogebra-sans-serif, sans-serif" font-size="12px" font-style="normal" font-weight="normal" text-decoration="normal" dominant-baseline="alphabetic" fill="none" stroke="rgb(255, 255, 255)" stroke-linejoin="bevel" stroke-miterlimit="10" stroke-opacity="1" stroke-width="3" text-anchor="start" x="699" y="417">4</text><text font-family="geogebra-sans-serif, sans-serif" font-size="12px" font-style="normal" font-weight="normal" text-decoration="normal" dominant-baseline="alphabetic" fill="rgb(0, 0, 0)" fill-opacity="1" stroke="none" text-anchor="start" x="699" y="417">4</text><text font-family="geogebra-sans-serif, sans-serif" font-size="12px" font-style="normal" font-weight="normal" text-decoration="normal" dominant-baseline="alphabetic" fill="rgb(0, 0, 0)" fill-opacity="1" stroke="none" text-anchor="start" x="760" y="417">6</text><text font-family="geogebra-sans-serif, sans-serif" font-size="12px" font-style="normal" font-weight="normal" text-decoration="normal" dominant-baseline="alphabetic" fill="none" stroke="rgb(255, 255, 255)" stroke-linejoin="bevel" stroke-miterlimit="10" stroke-opacity="1" stroke-width="3" text-anchor="start" x="760" y="417">6</text><text font-family="geogebra-sans-serif, sans-serif" font-size="12px" font-style="normal" font-weight="normal" text-decoration="normal" dominant-baseline="alphabetic" fill="rgb(0, 0, 0)" fill-opacity="1" stroke="none" text-anchor="start" x="760" y="417">6</text><text font-family="geogebra-sans-serif, sans-serif" font-size="12px" font-style="normal" font-weight="normal" text-decoration="normal" dominant-baseline="alphabetic" fill="rgb(0, 0, 0)" fill-opacity="1" stroke="none" text-anchor="start" x="821" y="417">8</text><text font-family="geogebra-sans-serif, sans-serif" font-size="12px" font-style="normal" font-weight="normal" text-decoration="normal" dominant-baseline="alphabetic" fill="none" stroke="rgb(255, 255, 255)" stroke-linejoin="bevel" stroke-miterlimit="10" stroke-opacity="1" stroke-width="3" text-anchor="start" x="821" y="417">8</text><text font-family="geogebra-sans-serif, sans-serif" font-size="12px" font-style="normal" font-weight="normal" text-decoration="normal" dominant-baseline="alphabetic" fill="rgb(0, 0, 0)" fill-opacity="1" stroke="none" text-anchor="start" x="821" y="417">8</text><text font-family="geogebra-sans-serif, sans-serif" font-size="12px" font-style="normal" font-weight="normal" text-decoration="normal" dominant-baseline="alphabetic" fill="rgb(0, 0, 0)" fill-opacity="1" stroke="none" text-anchor="start" x="879" y="417">10</text><text font-family="geogebra-sans-serif, sans-serif" font-size="12px" font-style="normal" font-weight="normal" text-decoration="normal" dominant-baseline="alphabetic" fill="none" stroke="rgb(255, 255, 255)" stroke-linejoin="bevel" stroke-miterlimit="10" stroke-opacity="1" stroke-width="3" text-anchor="start" x="879" y="417">10</text><text font-family="geogebra-sans-serif, sans-serif" font-size="12px" font-style="normal" font-weight="normal" text-decoration="normal" dominant-baseline="alphabetic" fill="rgb(0, 0, 0)" fill-opacity="1" stroke="none" text-anchor="start" x="879" y="417">10</text><text font-family="geogebra-sans-serif, sans-serif" font-size="12px" font-style="normal" font-weight="normal" text-decoration="normal" dominant-baseline="alphabetic" fill="rgb(0, 0, 0)" fill-opacity="1" stroke="none" text-anchor="start" x="939" y="417">12</text><text font-family="geogebra-sans-serif, sans-serif" font-size="12px" font-style="normal" font-weight="normal" text-decoration="normal" dominant-baseline="alphabetic" fill="none" stroke="rgb(255, 255, 255)" stroke-linejoin="bevel" stroke-miterlimit="10" stroke-opacity="1" stroke-width="3" text-anchor="start" x="939" y="417">12</text><text font-family="geogebra-sans-serif, sans-serif" font-size="12px" font-style="normal" font-weight="normal" text-decoration="normal" dominant-baseline="alphabetic" fill="rgb(0, 0, 0)" fill-opacity="1" stroke="none" text-anchor="start" x="939" y="417">12</text><text font-family="geogebra-sans-serif, sans-serif" font-size="12px" font-style="normal" font-weight="normal" text-decoration="normal" dominant-baseline="alphabetic" fill="rgb(0, 0, 0)" fill-opacity="1" stroke="none" text-anchor="start" x="1000" y="417">14</text><text font-family="geogebra-sans-serif, sans-serif" font-size="12px" font-style="normal" font-weight="normal" text-decoration="normal" dominant-baseline="alphabetic" fill="none" stroke="rgb(255, 255, 255)" stroke-linejoin="bevel" stroke-miterlimit="10" stroke-opacity="1" stroke-width="3" text-anchor="start" x="1000" y="417">14</text><text font-family="geogebra-sans-serif, sans-serif" font-size="12px" font-style="normal" font-weight="normal" text-decoration="normal" dominant-baseline="alphabetic" fill="rgb(0, 0, 0)" fill-opacity="1" stroke="none" text-anchor="start" x="1000" y="417">14</text><text font-family="geogebra-sans-serif, sans-serif" font-size="12px" font-style="normal" font-weight="normal" text-decoration="normal" dominant-baseline="alphabetic" fill="rgb(0, 0, 0)" fill-opacity="1" stroke="none" text-anchor="start" x="1061" y="417">16</text><text font-family="geogebra-sans-serif, sans-serif" font-size="12px" font-style="normal" font-weight="normal" text-decoration="normal" dominant-baseline="alphabetic" fill="none" stroke="rgb(255, 255, 255)" stroke-linejoin="bevel" stroke-miterlimit="10" stroke-opacity="1" stroke-width="3" text-anchor="start" x="1061" y="417">16</text><text font-family="geogebra-sans-serif, sans-serif" font-size="12px" font-style="normal" font-weight="normal" text-decoration="normal" dominant-baseline="alphabetic" fill="rgb(0, 0, 0)" fill-opacity="1" stroke="none" text-anchor="start" x="1061" y="417">16</text><text font-family="geogebra-sans-serif, sans-serif" font-size="12px" font-style="normal" font-weight="normal" text-decoration="normal" dominant-baseline="alphabetic" fill="rgb(0, 0, 0)" fill-opacity="1" stroke="none" text-anchor="start" x="1122" y="417">18</text><text font-family="geogebra-sans-serif, sans-serif" font-size="12px" font-style="normal" font-weight="normal" text-decoration="normal" dominant-baseline="alphabetic" fill="none" stroke="rgb(255, 255, 255)" stroke-linejoin="bevel" stroke-miterlimit="10" stroke-opacity="1" stroke-width="3" text-anchor="start" x="1122" y="417">18</text><text font-family="geogebra-sans-serif, sans-serif" font-size="12px" font-style="normal" font-weight="normal" text-decoration="normal" dominant-baseline="alphabetic" fill="rgb(0, 0, 0)" fill-opacity="1" stroke="none" text-anchor="start" x="1122" y="417">18</text><text font-family="geogebra-sans-serif, sans-serif" font-size="12px" font-style="normal" font-weight="normal" text-decoration="normal" dominant-baseline="alphabetic" fill="rgb(0, 0, 0)" fill-opacity="1" stroke="none" text-anchor="start" x="552" y="797">–20</text><text font-family="geogebra-sans-serif, sans-serif" font-size="12px" font-style="normal" font-weight="normal" text-decoration="normal" dominant-baseline="alphabetic" fill="none" stroke="rgb(255, 255, 255)" stroke-linejoin="bevel" stroke-miterlimit="10" stroke-opacity="1" stroke-width="3" text-anchor="start" x="552" y="797">–20</text><text font-family="geogebra-sans-serif, sans-serif" font-size="12px" font-style="normal" font-weight="normal" text-decoration="normal" dominant-baseline="alphabetic" fill="rgb(0, 0, 0)" fill-opacity="1" stroke="none" text-anchor="start" x="552" y="797">–20</text><text font-family="geogebra-sans-serif, sans-serif" font-size="12px" font-style="normal" font-weight="normal" text-decoration="normal" dominant-baseline="alphabetic" fill="rgb(0, 0, 0)" fill-opacity="1" stroke="none" text-anchor="start" x="552" y="700">–15</text><text font-family="geogebra-sans-serif, sans-serif" font-size="12px" font-style="normal" font-weight="normal" text-decoration="normal" dominant-baseline="alphabetic" fill="none" stroke="rgb(255, 255, 255)" stroke-linejoin="bevel" stroke-miterlimit="10" stroke-opacity="1" stroke-width="3" text-anchor="start" x="552" y="700">–15</text><text font-family="geogebra-sans-serif, sans-serif" font-size="12px" font-style="normal" font-weight="normal" text-decoration="normal" dominant-baseline="alphabetic" fill="rgb(0, 0, 0)" fill-opacity="1" stroke="none" text-anchor="start" x="552" y="700">–15</text><text font-family="geogebra-sans-serif, sans-serif" font-size="12px" font-style="normal" font-weight="normal" text-decoration="normal" dominant-baseline="alphabetic" fill="rgb(0, 0, 0)" fill-opacity="1" stroke="none" text-anchor="start" x="552" y="602">–10</text><text font-family="geogebra-sans-serif, sans-serif" font-size="12px" font-style="normal" font-weight="normal" text-decoration="normal" dominant-baseline="alphabetic" fill="none" stroke="rgb(255, 255, 255)" stroke-linejoin="bevel" stroke-miterlimit="10" stroke-opacity="1" stroke-width="3" text-anchor="start" x="552" y="602">–10</text><text font-family="geogebra-sans-serif, sans-serif" font-size="12px" font-style="normal" font-weight="normal" text-decoration="normal" dominant-baseline="alphabetic" fill="rgb(0, 0, 0)" fill-opacity="1" stroke="none" text-anchor="start" x="552" y="602">–10</text><text font-family="geogebra-sans-serif, sans-serif" font-size="12px" font-style="normal" font-weight="normal" text-decoration="normal" dominant-baseline="alphabetic" fill="rgb(0, 0, 0)" fill-opacity="1" stroke="none" text-anchor="start" x="559" y="504">–5</text><text font-family="geogebra-sans-serif, sans-serif" font-size="12px" font-style="normal" font-weight="normal" text-decoration="normal" dominant-baseline="alphabetic" fill="none" stroke="rgb(255, 255, 255)" stroke-linejoin="bevel" stroke-miterlimit="10" stroke-opacity="1" stroke-width="3" text-anchor="start" x="559" y="504">–5</text><text font-family="geogebra-sans-serif, sans-serif" font-size="12px" font-style="normal" font-weight="normal" text-decoration="normal" dominant-baseline="alphabetic" fill="rgb(0, 0, 0)" fill-opacity="1" stroke="none" text-anchor="start" x="559" y="504">–5</text><text font-family="geogebra-sans-serif, sans-serif" font-size="12px" font-style="normal" font-weight="normal" text-decoration="normal" dominant-baseline="alphabetic" fill="rgb(0, 0, 0)" fill-opacity="1" stroke="none" text-anchor="start" x="565" y="308">5</text><text font-family="geogebra-sans-serif, sans-serif" font-size="12px" font-style="normal" font-weight="normal" text-decoration="normal" dominant-baseline="alphabetic" fill="none" stroke="rgb(255, 255, 255)" stroke-linejoin="bevel" stroke-miterlimit="10" stroke-opacity="1" stroke-width="3" text-anchor="start" x="565" y="308">5</text><text font-family="geogebra-sans-serif, sans-serif" font-size="12px" font-style="normal" font-weight="normal" text-decoration="normal" dominant-baseline="alphabetic" fill="rgb(0, 0, 0)" fill-opacity="1" stroke="none" text-anchor="start" x="565" y="308">5</text><text font-family="geogebra-sans-serif, sans-serif" font-size="12px" font-style="normal" font-weight="normal" text-decoration="normal" dominant-baseline="alphabetic" fill="rgb(0, 0, 0)" fill-opacity="1" stroke="none" text-anchor="start" x="559" y="210">10</text><text font-family="geogebra-sans-serif, sans-serif" font-size="12px" font-style="normal" font-weight="normal" text-decoration="normal" dominant-baseline="alphabetic" fill="none" stroke="rgb(255, 255, 255)" stroke-linejoin="bevel" stroke-miterlimit="10" stroke-opacity="1" stroke-width="3" text-anchor="start" x="559" y="210">10</text><text font-family="geogebra-sans-serif, sans-serif" font-size="12px" font-style="normal" font-weight="normal" text-decoration="normal" dominant-baseline="alphabetic" fill="rgb(0, 0, 0)" fill-opacity="1" stroke="none" text-anchor="start" x="559" y="210">10</text><text font-family="geogebra-sans-serif, sans-serif" font-size="12px" font-style="normal" font-weight="normal" text-decoration="normal" dominant-baseline="alphabetic" fill="rgb(0, 0, 0)" fill-opacity="1" stroke="none" text-anchor="start" x="559" y="112">15</text><text font-family="geogebra-sans-serif, sans-serif" font-size="12px" font-style="normal" font-weight="normal" text-decoration="normal" dominant-baseline="alphabetic" fill="none" stroke="rgb(255, 255, 255)" stroke-linejoin="bevel" stroke-miterlimit="10" stroke-opacity="1" stroke-width="3" text-anchor="start" x="559" y="112">15</text><text font-family="geogebra-sans-serif, sans-serif" font-size="12px" font-style="normal" font-weight="normal" text-decoration="normal" dominant-baseline="alphabetic" fill="rgb(0, 0, 0)" fill-opacity="1" stroke="none" text-anchor="start" x="559" y="112">15</text><text font-family="geogebra-sans-serif, sans-serif" font-size="12px" font-style="normal" font-weight="normal" text-decoration="normal" dominant-baseline="alphabetic" fill="rgb(0, 0, 0)" fill-opacity="1" stroke="none" text-anchor="start" x="559" y="15">20</text><text font-family="geogebra-sans-serif, sans-serif" font-size="12px" font-style="normal" font-weight="normal" text-decoration="normal" dominant-baseline="alphabetic" fill="none" stroke="rgb(255, 255, 255)" stroke-linejoin="bevel" stroke-miterlimit="10" stroke-opacity="1" stroke-width="3" text-anchor="start" x="559" y="15">20</text><text font-family="geogebra-sans-serif, sans-serif" font-size="12px" font-style="normal" font-weight="normal" text-decoration="normal" dominant-baseline="alphabetic" fill="rgb(0, 0, 0)" fill-opacity="1" stroke="none" text-anchor="start" x="559" y="15">20</text><text font-family="geogebra-sans-serif, sans-serif" font-size="12px" font-style="normal" font-weight="normal" text-decoration="normal" dominant-baseline="alphabetic" fill="rgb(0, 0, 0)" fill-opacity="1" stroke="none" text-anchor="start" x="565" y="417">0</text><text font-family="geogebra-sans-serif, sans-serif" font-size="12px" font-style="normal" font-weight="normal" text-decoration="normal" dominant-baseline="alphabetic" fill="none" stroke="rgb(255, 255, 255)" stroke-linejoin="bevel" stroke-miterlimit="10" stroke-opacity="1" stroke-width="3" text-anchor="start" x="565" y="417">0</text><text font-family="geogebra-sans-serif, sans-serif" font-size="12px" font-style="normal" font-weight="normal" text-decoration="normal" dominant-baseline="alphabetic" fill="rgb(0, 0, 0)" fill-opacity="1" stroke="none" text-anchor="start" x="565" y="417">0</text><path fill="none" stroke="rgb(0, 100, 0)" stroke-linecap="round" stroke-linejoin="round" stroke-miterlimit="10" stroke-opacity="0.698039" stroke-width="2.5" d="M 437.046 821.593 L 437.046 821.593 L 437.607 815.221 L 437.607 815.221 L 437.607 815.221 L 438.168 808.905 L 438.168 808.905 L 438.729 802.644 L 439.291 796.438 L 439.852 790.288 L 440.413 784.193 L 440.974 778.152 L 441.535 772.166 L 442.096 766.234 L 442.657 760.356 L 443.218 754.532 L 443.779 748.761 L 444.34 743.044 L 444.901 737.38 L 445.462 731.769 L 446.023 726.211 L 446.584 720.705 L 447.145 715.252 L 447.706 709.851 L 448.267 704.501 L 448.828 699.203 L 449.389 693.957 L 449.95 688.761 L 450.511 683.617 L 451.072 678.523 L 451.633 673.48 L 452.194 668.487 L 453.316 658.652 L 454.438 649.015 L 455.561 639.574 L 456.683 630.329 L 457.805 621.277 L 458.927 612.417 L 460.049 603.746 L 461.171 595.263 L 462.293 586.966 L 463.415 578.854 L 464.537 570.925 L 465.659 563.176 L 466.781 555.607 L 467.903 548.215 L 469.025 540.999 L 470.147 533.956 L 471.27 527.086 L 472.392 520.386 L 473.514 513.854 L 474.636 507.49 L 475.758 501.29 L 476.88 495.254 L 478.002 489.379 L 479.124 483.664 L 480.246 478.107 L 481.368 472.706 L 482.49 467.46 L 483.612 462.366 L 484.734 457.423 L 486.979 447.984 L 489.223 439.127 L 491.467 430.838 L 493.711 423.104 L 495.955 415.91 L 498.199 409.243 L 500.443 403.087 L 502.688 397.43 L 507.176 387.552 L 511.664 379.497 L 516.152 373.151 L 520.641 368.403 L 522.885 366.592 L 525.129 365.138 L 527.373 364.027 L 529.617 363.245 L 531.861 362.777 L 534.105 362.61 L 536.35 362.729 L 538.594 363.12 L 543.082 364.663 L 547.57 367.126 L 552.059 370.395 L 556.547 374.359 L 561.035 378.904 L 565.523 383.917 L 570.012 389.285 L 574.5 394.896 L 578.988 400.637 L 583.477 406.395 L 587.965 412.057 L 592.453 417.509 L 596.941 422.641 L 601.43 427.337 L 605.918 431.487 L 610.406 434.976 L 614.895 437.691 L 619.383 439.521 L 621.627 440.069 L 623.871 440.352 L 626.115 440.358 L 628.359 440.072 L 630.604 439.479 L 632.848 438.567 L 635.092 437.32 L 637.336 435.724 L 641.824 431.431 L 646.313 425.576 L 650.801 418.044 L 655.289 408.723 L 657.533 403.357 L 659.777 397.501 L 662.021 391.141 L 664.266 384.264 L 666.51 376.855 L 668.754 368.9 L 670.998 360.384 L 673.242 351.295 L 675.486 341.618 L 676.608 336.554 L 677.73 331.338 L 678.853 325.967 L 679.975 320.441 L 681.097 314.757 L 682.219 308.914 L 683.341 302.91 L 684.463 296.742 L 685.585 290.41 L 686.707 283.912 L 687.829 277.245 L 688.951 270.408 L 690.073 263.4 L 691.195 256.218 L 692.317 248.86 L 693.439 241.326 L 694.562 233.613 L 695.684 225.719 L 696.806 217.643 L 697.928 209.383 L 699.05 200.937 L 700.172 192.303 L 701.294 183.48 L 702.416 174.466 L 703.538 165.259 L 704.66 155.857 L 705.782 146.259 L 706.904 136.462 L 708.026 126.466 L 708.587 121.392 L 709.148 116.268 L 709.709 111.092 L 710.271 105.866 L 710.832 100.588 L 711.393 95.2591 L 711.954 89.8782 L 712.515 84.4452 L 713.076 78.9601 L 713.637 73.4225 L 714.198 67.8323 L 714.759 62.1892 L 715.32 56.4931 L 715.881 50.7436 L 716.442 44.9407 L 717.003 39.084 L 717.564 33.1733 L 718.125 27.2085 L 718.686 21.1892 L 719.247 15.1154 L 719.808 8.98664 L 720.369 2.80288 L 720.369 2.80288 L 720.93 -3.43617 L 720.93 -3.43617 L 720.93 -3.43617 L 721.491 -9.73073 L 721.491 -9.73073" paint-order="fill stroke markers" /><text font-family="geogebra-sans-serif, sans-serif" font-size="16px" font-style="normal" font-weight="normal" text-decoration="normal" dominant-baseline="alphabetic" fill="rgb(0, 100, 0)" fill-opacity="1" stroke="none" text-anchor="start" x="448" y="810">f</text><text font-family="geogebra-sans-serif, sans-serif" font-size="16px" font-style="normal" font-weight="normal" text-decoration="normal" dominant-baseline="alphabetic" fill="none" stroke="rgb(255, 255, 255)" stroke-linejoin="bevel" stroke-miterlimit="10" stroke-opacity="1" stroke-width="3" text-anchor="start" x="448" y="810">f</text><text font-family="geogebra-sans-serif, sans-serif" font-size="16px" font-style="normal" font-weight="normal" text-decoration="normal" dominant-baseline="alphabetic" fill="rgb(0, 100, 0)" fill-opacity="1" stroke="none" text-anchor="start" x="448" y="810">f</text><path fill="none" stroke="rgb(0, 0, 255)" stroke-linecap="round" stroke-linejoin="round" stroke-miterlimit="10" stroke-opacity="0.698039" stroke-width="2.5" d="M 426.387 -5.72886 L 427.509 0.782613 L 428.631 7.24625 L 429.753 13.662 L 430.875 20.03 L 431.997 26.3501 L 433.119 32.6223 L 434.241 38.8468 L 435.363 45.0233 L 436.485 51.152 L 437.607 57.2329 L 438.729 63.266 L 439.852 69.2512 L 440.974 75.1885 L 442.096 81.078 L 443.218 86.9197 L 444.34 92.7135 L 445.462 98.4595 L 446.584 104.158 L 447.706 109.808 L 448.828 115.41 L 449.95 120.965 L 451.072 126.472 L 452.194 131.931 L 453.316 137.342 L 454.438 142.705 L 455.561 148.02 L 456.683 153.288 L 457.805 158.507 L 458.927 163.679 L 460.049 168.803 L 461.171 173.88 L 462.293 178.908 L 464.537 188.821 L 466.781 198.543 L 469.025 208.073 L 471.27 217.412 L 473.514 226.56 L 475.758 235.516 L 478.002 244.281 L 480.246 252.854 L 482.49 261.236 L 484.734 269.427 L 486.979 277.426 L 489.223 285.234 L 491.467 292.851 L 493.711 300.276 L 495.955 307.51 L 498.199 314.552 L 500.443 321.403 L 502.688 328.063 L 504.932 334.531 L 507.176 340.808 L 509.42 346.894 L 511.664 352.788 L 513.908 358.491 L 516.152 364.003 L 518.396 369.323 L 520.641 374.451 L 525.129 384.135 L 529.617 393.052 L 534.105 401.205 L 538.594 408.591 L 543.082 415.213 L 547.57 421.068 L 552.059 426.159 L 556.547 430.483 L 561.035 434.043 L 565.523 436.837 L 570.012 438.865 L 574.5 440.128 L 578.988 440.625 L 583.477 440.357 L 587.965 439.323 L 592.453 437.523 L 596.941 434.959 L 601.43 431.628 L 605.918 427.533 L 610.406 422.671 L 614.895 417.045 L 619.383 410.652 L 623.871 403.495 L 628.359 395.571 L 632.848 386.883 L 637.336 377.428 L 639.58 372.414 L 641.824 367.208 L 644.068 361.812 L 646.313 356.223 L 648.557 350.444 L 650.801 344.472 L 653.045 338.31 L 655.289 331.956 L 657.533 325.411 L 659.777 318.674 L 662.021 311.746 L 664.266 304.627 L 666.51 297.316 L 668.754 289.814 L 670.998 282.121 L 673.242 274.236 L 675.486 266.16 L 677.73 257.892 L 679.975 249.433 L 682.219 240.783 L 684.463 231.941 L 686.707 222.908 L 688.951 213.684 L 691.195 204.268 L 693.439 194.66 L 695.684 184.862 L 697.928 174.872 L 699.05 169.805 L 700.172 164.691 L 701.294 159.528 L 702.416 154.318 L 703.538 149.06 L 704.66 143.754 L 705.782 138.4 L 706.904 132.998 L 708.026 127.549 L 709.148 122.051 L 710.271 116.506 L 711.393 110.913 L 712.515 105.272 L 713.637 99.5835 L 714.759 93.847 L 715.881 88.0626 L 717.003 82.2303 L 718.125 76.3502 L 719.247 70.4223 L 720.369 64.4465 L 721.491 58.4228 L 722.613 52.3514 L 723.735 46.232 L 724.857 40.0649 L 725.979 33.8499 L 727.102 27.587 L 728.224 21.2763 L 729.346 14.9178 L 730.468 8.51141 L 731.59 2.05718 L 732.712 -4.44489 L 733.834 -10.9948" paint-order="fill stroke markers" /><text font-family="geogebra-sans-serif, sans-serif" font-size="16px" font-style="normal" font-weight="normal" text-decoration="normal" dominant-baseline="alphabetic" fill="rgb(0, 0, 255)" fill-opacity="1" stroke="none" text-anchor="start" x="437" y="16">g</text><text font-family="geogebra-sans-serif, sans-serif" font-size="16px" font-style="normal" font-weight="normal" text-decoration="normal" dominant-baseline="alphabetic" fill="none" stroke="rgb(255, 255, 255)" stroke-linejoin="bevel" stroke-miterlimit="10" stroke-opacity="1" stroke-width="3" text-anchor="start" x="437" y="16">g</text><text font-family="geogebra-sans-serif, sans-serif" font-size="16px" font-style="normal" font-weight="normal" text-decoration="normal" dominant-baseline="alphabetic" fill="rgb(0, 0, 255)" fill-opacity="1" stroke="none" text-anchor="start" x="437" y="16">g</text></g></g></svg>