<?xml version="1.0" encoding="UTF-8" standalone="no"?>
<!-- Created with Inkscape (http://www.inkscape.org/) -->

<svg
   xmlns:dc="http://purl.org/dc/elements/1.1/"
   xmlns:cc="http://creativecommons.org/ns#"
   xmlns:rdf="http://www.w3.org/1999/02/22-rdf-syntax-ns#"
   xmlns:svg="http://www.w3.org/2000/svg"
   xmlns="http://www.w3.org/2000/svg"
   xmlns:sodipodi="http://sodipodi.sourceforge.net/DTD/sodipodi-0.dtd"
   xmlns:inkscape="http://www.inkscape.org/namespaces/inkscape"
   width="581.73621"
   height="265.99649"
   viewBox="0 0 153.91769 70.378232"
   version="1.1"
   id="svg4623"
   inkscape:version="0.92.4 (unknown)"
   sodipodi:docname="donkere_voorwerpen.svg"
   inkscape:export-filename="/home/fdf/hugo/hoezithet/static/images/favicon.png"
   inkscape:export-xdpi="90"
   inkscape:export-ydpi="90">
  <defs
     id="defs4617">
    <marker
       inkscape:stockid="Arrow1Lstart"
       orient="auto"
       refY="0"
       refX="0"
       id="marker10545"
       style="overflow:visible"
       inkscape:isstock="true">
      <path
         id="path10543"
         d="M 0,0 5,-5 -12.5,0 5,5 Z"
         style="fill:#e7040f;fill-opacity:1;fill-rule:evenodd;stroke:#e7040f;stroke-width:1.00000003pt;stroke-opacity:1"
         transform="matrix(0.8,0,0,0.8,10,0)"
         inkscape:connector-curvature="0" />
    </marker>
    <marker
       inkscape:stockid="Arrow1Lstart"
       orient="auto"
       refY="0"
       refX="0"
       id="Arrow1Lstart"
       style="overflow:visible"
       inkscape:isstock="true">
      <path
         id="path10261"
         d="M 0,0 5,-5 -12.5,0 5,5 Z"
         style="fill:#e7040f;fill-opacity:1;fill-rule:evenodd;stroke:#e7040f;stroke-width:1.00000003pt;stroke-opacity:1"
         transform="matrix(0.8,0,0,0.8,10,0)"
         inkscape:connector-curvature="0" />
    </marker>
  </defs>
  <sodipodi:namedview
     id="base"
     pagecolor="#f4f4f4"
     bordercolor="#666666"
     borderopacity="1.0"
     inkscape:pageopacity="1"
     inkscape:pageshadow="2"
     inkscape:zoom="1.28"
     inkscape:cx="223.3008"
     inkscape:cy="210.1885"
     inkscape:document-units="px"
     inkscape:current-layer="svg4623"
     showgrid="false"
     units="px"
     inkscape:object-paths="true"
     inkscape:snap-smooth-nodes="true"
     inkscape:window-width="1920"
     inkscape:window-height="1055"
     inkscape:window-x="1600"
     inkscape:window-y="25"
     inkscape:window-maximized="1"
     showguides="true"
     inkscape:guide-bbox="true"
     inkscape:pagecheckerboard="false"
     inkscape:snap-global="true"
     inkscape:showpageshadow="true"
     showborder="true"
     borderlayer="false"
     inkscape:snap-page="true" />
  <metadata
     id="metadata4620">
    <rdf:RDF>
      <cc:Work
         rdf:about="">
        <dc:format>image/svg+xml</dc:format>
        <dc:type
           rdf:resource="http://purl.org/dc/dcmitype/StillImage" />
        <dc:title></dc:title>
      </cc:Work>
    </rdf:RDF>
  </metadata>
  <g
     inkscape:label="watermark"
     inkscape:groupmode="layer"
     id="layer1"
     transform="translate(5.1800203,-225.95428)"
     sodipodi:insensitive="true">
    <g
       id="g5353"
       transform="matrix(0.89623584,0,0,0.89623584,-1.2321384,28.09939)"
       style="stroke-width:1.11577785">
      <text
         xml:space="preserve"
         style="font-style:normal;font-variant:normal;font-weight:normal;font-stretch:normal;font-size:28.01556396px;line-height:1.29999995;font-family:Quicksand;-inkscape-font-specification:'Quicksand, Normal';font-variant-ligatures:normal;font-variant-position:normal;font-variant-caps:normal;font-variant-numeric:normal;font-variant-alternates:normal;font-feature-settings:normal;text-indent:0;text-align:center;text-decoration:none;text-decoration-line:none;text-decoration-style:solid;text-decoration-color:#000000;letter-spacing:0px;word-spacing:0px;text-transform:none;writing-mode:lr-tb;direction:ltr;text-orientation:mixed;dominant-baseline:auto;baseline-shift:baseline;text-anchor:middle;white-space:normal;shape-padding:0;opacity:1;vector-effect:none;fill:#555555;fill-opacity:1;stroke:none;stroke-width:3.17272329px;stroke-linecap:butt;stroke-linejoin:miter;stroke-miterlimit:4;stroke-dasharray:none;stroke-dashoffset:0;stroke-opacity:1"
         x="44.292774"
         y="218.67326"
         id="text2653"><tspan
           sodipodi:role="line"
           id="tspan2651"
           x="44.292774"
           y="245.28806"
           style="stroke-width:3.17272329px" /></text>
      <text
         xml:space="preserve"
         style="font-style:normal;font-variant:normal;font-weight:normal;font-stretch:normal;font-size:4.72345829px;line-height:1.25;font-family:Quicksand;-inkscape-font-specification:Quicksand;text-align:end;letter-spacing:0px;word-spacing:0px;text-anchor:end;fill:#d3d3d3;fill-opacity:1;stroke:none;stroke-width:0.29521614"
         x="167.17076"
         y="298.24545"
         id="text7806"><tspan
           sodipodi:role="line"
           id="tspan7804"
           x="167.17076"
           y="298.24545"
           style="font-size:4.72345829px;text-align:end;text-anchor:end;fill:#d3d3d3;stroke-width:0.29521614">Meer op: https://hoezithet.nu</tspan></text>
    </g>
  </g>
  <g
     inkscape:groupmode="layer"
     id="layer2"
     inkscape:label="Layer 1"
     transform="translate(5.1800203,-225.95428)" />
  <g
     id="g2303"
     transform="matrix(0.76978468,0,0,0.76978468,-31.546334,0.21968126)">
    <g
       transform="translate(-12.13153,0.58465202)"
       id="g2273">
      <circle
         style="fill:#ff6300;fill-opacity:1;stroke:none;stroke-width:0.7055555;stroke-linecap:round;stroke-linejoin:round;stroke-miterlimit:4;stroke-dasharray:none;stroke-dashoffset:0;stroke-opacity:1;paint-order:markers fill stroke"
         id="path2127"
         cx="70.535851"
         cy="49.609589"
         r="17.97805"
         transform="rotate(-15)" />
      <circle
         style="fill:#ff9450;fill-opacity:1;stroke:none;stroke-width:0.52899998;stroke-linecap:round;stroke-linejoin:round;stroke-miterlimit:4;stroke-dasharray:none;stroke-dashoffset:0;stroke-opacity:1;paint-order:markers stroke fill"
         id="path2147"
         cx="76.272743"
         cy="46.795952"
         r="0.7673558"
         transform="rotate(-15)" />
      <circle
         style="fill:#ff9450;fill-opacity:1;stroke:none;stroke-width:0.52899998;stroke-linecap:round;stroke-linejoin:round;stroke-miterlimit:4;stroke-dasharray:none;stroke-dashoffset:0;stroke-opacity:1;paint-order:markers stroke fill"
         id="path2147-0"
         cx="65.602844"
         cy="43.872696"
         r="0.7673558"
         transform="rotate(-15)" />
      <circle
         style="fill:#ff9450;fill-opacity:1;stroke:none;stroke-width:0.52899998;stroke-linecap:round;stroke-linejoin:round;stroke-miterlimit:4;stroke-dasharray:none;stroke-dashoffset:0;stroke-opacity:1;paint-order:markers stroke fill"
         id="path2147-1"
         cx="68.562645"
         cy="53.336746"
         r="0.7673558"
         transform="rotate(-15)" />
      <circle
         style="fill:#ff9450;fill-opacity:1;stroke:none;stroke-width:0.52899998;stroke-linecap:round;stroke-linejoin:round;stroke-miterlimit:4;stroke-dasharray:none;stroke-dashoffset:0;stroke-opacity:1;paint-order:markers stroke fill"
         id="path2147-4"
         cx="81.351913"
         cy="53.263668"
         r="0.7673558"
         transform="rotate(-15)" />
      <circle
         style="fill:#ff9450;fill-opacity:1;stroke:none;stroke-width:0.52899998;stroke-linecap:round;stroke-linejoin:round;stroke-miterlimit:4;stroke-dasharray:none;stroke-dashoffset:0;stroke-opacity:1;paint-order:markers stroke fill"
         id="path2147-7"
         cx="78.355568"
         cy="40.328239"
         r="0.7673558"
         transform="rotate(-15)" />
      <circle
         style="fill:#ff9450;fill-opacity:1;stroke:none;stroke-width:0.52899998;stroke-linecap:round;stroke-linejoin:round;stroke-miterlimit:4;stroke-dasharray:none;stroke-dashoffset:0;stroke-opacity:1;paint-order:markers stroke fill"
         id="path2147-73"
         cx="62.131481"
         cy="49.53651"
         r="0.7673558"
         transform="rotate(-15)" />
      <circle
         style="fill:#ff9450;fill-opacity:1;stroke:none;stroke-width:0.52899998;stroke-linecap:round;stroke-linejoin:round;stroke-miterlimit:4;stroke-dasharray:none;stroke-dashoffset:0;stroke-opacity:1;paint-order:markers stroke fill"
         id="path2147-9"
         cx="74.99382"
         cy="59.110188"
         r="0.7673558"
         transform="rotate(-15)" />
      <g
         id="g2256"
         transform="rotate(15,78.933658,49.007227)"
         inkscape:transform-center-y="5.9850076"
         inkscape:transform-center-x="0.29874606">
        <path
           sodipodi:nodetypes="csscc"
           inkscape:connector-curvature="0"
           id="path2215"
           d="m 83.763079,37.757674 c 0,5.667899 -3.023788,10.905253 -7.932332,13.739202 -4.908544,2.833949 -10.956119,2.833948 -15.864663,-10e-7 -4.908544,-2.833949 -7.932331,-8.071303 -7.932331,-13.739201 z"
           style="fill:#ff6300;fill-opacity:1;stroke:#ff9450;stroke-width:0.7055555;stroke-linecap:round;stroke-linejoin:round;stroke-miterlimit:4;stroke-dasharray:none;stroke-dashoffset:0;stroke-opacity:1;paint-order:markers fill stroke" />
        <path
           sodipodi:nodetypes="csscc"
           inkscape:connector-curvature="0"
           id="path2215-5"
           d="m 81.402712,37.757666 c 0,4.806279 -2.573905,9.247464 -6.752149,11.650603 -4.178244,2.40314 -9.326052,2.403139 -13.504296,0 -4.178243,-2.40314 -6.752147,-6.844324 -6.752147,-11.650603 z"
           style="fill:#ff6300;fill-opacity:1;stroke:#ff9450;stroke-width:0.7055555;stroke-linecap:round;stroke-linejoin:round;stroke-miterlimit:4;stroke-dasharray:none;stroke-dashoffset:0;stroke-opacity:1;paint-order:markers fill stroke" />
        <path
           inkscape:connector-curvature="0"
           id="path2249"
           d="M 67.898417,51.210623 V 37.757667"
           style="fill:none;stroke:#ff9450;stroke-width:0.7055555;stroke-linecap:round;stroke-linejoin:miter;stroke-miterlimit:4;stroke-dasharray:none;stroke-opacity:1" />
        <path
           inkscape:connector-curvature="0"
           id="path2242"
           d="m 67.898417,37.757667 9.530994,9.530993"
           style="fill:none;stroke:#ff9450;stroke-width:0.7055555;stroke-linecap:round;stroke-linejoin:miter;stroke-miterlimit:4;stroke-dasharray:none;stroke-opacity:1" />
        <path
           inkscape:connector-curvature="0"
           id="path2244"
           d="m 67.898417,37.757675 -9.530992,9.53099"
           style="fill:none;stroke:#ff9450;stroke-width:0.7055555;stroke-linecap:round;stroke-linejoin:miter;stroke-miterlimit:4;stroke-dasharray:none;stroke-opacity:1" />
      </g>
    </g>
    <g
       transform="rotate(-15,71.0743,26.680811)"
       id="g2283">
      <ellipse
         style="fill:#137752;fill-opacity:1;stroke:none;stroke-width:0.7055555;stroke-linecap:round;stroke-linejoin:round;stroke-miterlimit:4;stroke-dasharray:none;stroke-dashoffset:0;stroke-opacity:1;paint-order:markers fill stroke"
         id="path2277"
         cx="67.917084"
         cy="12.462193"
         rx="2.0983522"
         ry="1.0915157" />
      <rect
         style="fill:#137752;fill-opacity:1;stroke:none;stroke-width:0.7055555;stroke-linecap:round;stroke-linejoin:round;stroke-miterlimit:4;stroke-dasharray:none;stroke-dashoffset:0;stroke-opacity:1;paint-order:markers fill stroke"
         id="rect2279"
         width="1.8017075"
         height="1.483759"
         x="67.052742"
         y="10.424883"
         ry="0.50348258"
         rx="0.50348258" />
    </g>
  </g>
  <g
     id="g8607-9-8-6"
     transform="matrix(-0.08851243,0,0,0.08838735,78.561364,-25.647398)"
     style="display:inline;stroke-width:1.08531773">
    <ellipse
       ry="40.242191"
       rx="40.721157"
       transform="scale(-1,1)"
       cy="475.19592"
       cx="-172.37955"
       id="path23009-9"
       style="color:#000000;clip-rule:nonzero;display:inline;overflow:visible;visibility:visible;opacity:1;isolation:auto;mix-blend-mode:normal;color-interpolation:sRGB;color-interpolation-filters:linearRGB;solid-color:#000000;solid-opacity:1;fill:#ffb700;fill-opacity:1;fill-rule:nonzero;stroke:none;stroke-width:5.42658854;stroke-linecap:butt;stroke-linejoin:round;stroke-miterlimit:4;stroke-dasharray:none;stroke-dashoffset:0;stroke-opacity:1;color-rendering:auto;image-rendering:auto;shape-rendering:auto;text-rendering:auto;enable-background:accumulate" />
    <path
       sodipodi:nodetypes="ccccccccccccccccccc"
       style="clip-rule:evenodd;fill:#137752;fill-rule:evenodd;stroke:none;stroke-width:4.05465794;stroke-miterlimit:4;stroke-dasharray:none;image-rendering:optimizeQuality;shape-rendering:geometricPrecision;text-rendering:geometricPrecision"
       inkscape:connector-curvature="0"
       class="fil0"
       d="m 201.93708,656.81861 c 0,-29 8,-46 49,-45 7,0 16,-3 26,-11 0,48 -23,81 -70,63 22,35 54,56 98,69 12,4 9,16 -3,13 -74,-19 -118,-70 -135,-146 -15.99999,49 -55.99999,46 -92.99999,17 12,-4 20,-8 25,-14 25,-34 44,-28 66.99999,-9 -0.96043,-14.82548 -5.74662,-79.34176 -5.74662,-79.34176 l 15.26794,1.20407 c -0.0591,90.75179 12.18579,110.35846 26.47868,141.13769 z m -105.99999,-40 c 36,-3 32,-29 65.99999,-18 -36.99999,-22 -33.99999,8 -65.99999,18 z m 167.99999,2 c -25,26 -43,7 -55,40 6,-43 27,-21 55,-40 z"
       id="path8190-0-9-9-3" />
    <path
       inkscape:connector-curvature="0"
       id="path8583-3-5-7"
       d="m 153.25343,577.66812 c -3.42723,-1.2505 -5.908,-6.76502 -6.69907,-14.89141 -1.16209,-11.93783 2.15694,-30.05057 8.77614,-47.8935 0.62932,-1.69641 1.10069,-3.12791 1.04748,-3.18112 -0.0532,-0.0532 -0.77531,1.52631 -1.60468,3.51002 -6.59504,15.7742 -14.85296,29.08012 -23.31953,37.57456 -4.92654,4.94276 -8.70599,7.55909 -12.58165,8.70964 -5.06187,1.50271 -8.22181,-0.94922 -8.22181,-6.37964 0,-4.06377 1.43878,-8.76654 4.52848,-14.80176 4.85841,-9.49007 12.11693,-19.11452 24.03863,-31.87405 l 3.2527,-3.48129 -3.73473,3.48479 c -7.72399,7.20708 -11.26586,10.226 -17.536,14.94679 -16.1835,12.18457 -30.325056,16.86131 -34.383796,11.37104 -1.359368,-1.83882 -1.070316,-5.34359 0.73442,-8.90486 5.593262,-11.03715 21.865326,-23.56654 43.491966,-33.48855 4.91492,-2.2549 6.46624,-3.09144 3.64996,-1.96822 -13.23418,5.27821 -23.55687,8.24426 -35.072495,10.07747 -2.578539,0.41049 -4.806174,0.51502 -10.748023,0.50436 -7.188413,-0.0129 -7.608024,-0.0439 -10.247388,-0.75812 -5.90764,-1.59853 -8.703074,-3.84709 -8.703074,-7.00049 0,-1.61087 0.598126,-2.86998 2.15301,-4.53228 6.191061,-6.61874 23.278547,-11.35438 44.9403,-12.45477 3.26683,-0.16595 7.59433,-0.40179 9.61665,-0.52408 l 3.67696,-0.22236 -4.53031,-0.0439 c -27.824705,-0.26958 -50.875647,-6.66275 -55.301319,-15.33778 -0.860116,-1.68597 -0.692439,-4.0425 0.388476,-5.45965 2.686976,-3.52281 9.068745,-5.35935 18.57238,-5.34475 12.091023,0.0186 25.801693,3.07363 42.133913,9.38842 2.40593,0.93024 4.41269,1.65308 4.45946,1.60631 0.0468,-0.0468 -1.15804,-0.63047 -2.67736,-1.2971 -16.77115,-7.35869 -32.26708,-17.62051 -40.248143,-26.65341 -7.985368,-9.03776 -9.464228,-16.71669 -3.557246,-18.47088 3.478321,-1.03295 8.344922,0.0198 15.108869,3.26834 9.95127,4.77933 21.12292,13.16186 33.48069,25.12186 2.14971,2.08052 3.90856,3.71034 3.90856,3.62184 0,-0.0885 -1.41734,-1.66201 -3.14964,-3.49666 -17.71384,-18.7604 -28.54599,-36.89014 -28.19225,-47.18529 0.10893,-3.17043 0.91711,-5.0048 2.64997,-6.01482 0.97155,-0.56629 1.41396,-0.63641 3.44391,-0.54591 2.1027,0.0937 2.58396,0.23163 4.94975,1.41799 3.40489,1.70744 5.89063,3.59345 9.5711,7.26191 8.29848,8.27138 16.665,21.69749 23.31682,37.4175 0.90522,2.13925 1.69132,3.84407 1.7469,3.78848 0.0556,-0.0556 -0.33249,-1.23714 -0.86238,-2.6257 -3.93912,-10.32224 -7.27888,-23.24597 -8.51826,-32.96269 -1.89856,-14.88477 0.48222,-27.60083 5.62444,-30.04097 6.92104,-3.28425 14.23311,9.69793 17.2654,30.65378 0.8425,5.82248 1.49576,14.05815 1.81751,22.91349 0.15423,4.24476 0.24569,5.3263 0.27465,3.24786 0.106,-7.60832 1.05558,-18.18421 2.31357,-25.76707 2.38927,-14.40202 6.36398,-24.74003 11.27612,-29.32864 1.74702,-1.63196 2.94236,-2.1751 4.78697,-2.1751 2.96167,0 5.42207,3.16778 6.68287,8.60425 2.74529,11.83744 -0.65314,31.68545 -9.04921,52.85046 -0.99456,2.50711 -1.77241,4.59428 -1.72854,4.63815 0.0439,0.0439 0.87718,-1.66751 1.85182,-3.80305 9.56347,-20.95454 22.44645,-37.96965 33.42459,-44.14529 3.71707,-2.091 7.715,-2.66415 9.6215,-1.37937 3.12201,2.10393 3.52542,6.57249 1.21866,13.49901 -3.5429,10.63828 -12.53413,23.57555 -27.54519,39.63411 l -3.53553,3.78225 3.49647,-3.25269 c 7.96891,-7.4133 12.5868,-11.33893 18.54406,-15.76416 15.99165,-11.87904 29.76679,-16.59137 34.18958,-11.69587 1.83727,2.03364 1.70742,4.8595 -0.41845,9.10688 -5.378,10.74491 -22.52537,23.63606 -44.5627,33.50162 -2.36906,1.06057 -4.27038,1.9653 -4.22516,2.01052 0.0452,0.0452 1.21987,-0.36868 2.61033,-0.91979 11.3846,-4.51226 25.75081,-8.25797 36.32781,-9.47176 4.3243,-0.49624 12.57224,-0.43551 15.861,0.1168 12.63294,2.12155 15.47025,8.88814 6.32748,15.09019 -8.94244,6.06615 -26.90416,9.92504 -48.70783,10.46436 -3.92954,0.0972 -7.10691,0.21443 -7.06081,0.26053 0.0461,0.0461 3.55897,0.22013 7.80639,0.38675 4.24742,0.16662 9.71582,0.49324 12.15198,0.72582 18.90549,1.80491 32.66017,5.9908 38.54202,11.72928 2.24145,2.18682 3.02113,4.05848 2.49876,5.99842 -0.85804,3.18655 -5.34106,5.52316 -12.42609,6.47665 -3.55636,0.47861 -13.63824,0.15847 -18.52843,-0.58836 -10.16729,-1.55275 -22.14017,-4.92118 -33.63626,-9.46318 -3.55282,-1.40369 -2.66406,-0.77709 1.39219,0.98152 7.4905,3.24755 18.1182,8.93835 23.90021,12.7978 10.71819,7.15434 19.28685,15.66934 22.22393,22.08478 2.64757,5.78304 0.77107,9.90235 -4.68768,10.29046 -10.16121,0.72247 -29.40141,-10.77696 -48.27572,-28.8533 -1.58369,-1.51674 -2.96627,-2.75771 -3.07239,-2.75771 -0.10611,0 1.50931,1.75885 3.58983,3.90856 16.44958,16.99666 26.8978,33.01591 28.52185,43.72984 0.7434,4.90422 -0.86661,8.31891 -4.15482,8.81201 -7.13386,1.06979 -19.02766,-8.83466 -29.31611,-24.41274 -4.52164,-6.84636 -9.15491,-15.27476 -12.51445,-22.76509 -0.74771,-1.66709 -1.39914,-2.99142 -1.4476,-2.94296 -0.0485,0.0485 0.62226,1.85793 1.49051,4.02103 9.46904,23.59069 12.65623,45.41413 8.28709,56.7437 -1.45294,3.76758 -4.21305,6.01274 -6.6665,5.42272 -9.18043,-2.2078 -16.19985,-24.53019 -17.28907,-54.98082 l -0.19728,-5.51544 -0.22124,6.92965 c -0.45284,14.18363 -1.66531,24.63353 -3.87418,33.39018 -3.50992,13.91449 -9.29254,21.85342 -14.52669,19.94364 z m 23.7235,-69.18287 c 7.34949,-1.04491 13.70553,-4.21201 18.97412,-9.45446 3.00722,-2.9923 4.6703,-5.26533 6.42325,-8.77904 2.48448,-4.98001 3.42098,-9.0135 3.41488,-14.70782 -0.01,-9.24806 -3.10306,-17.10208 -9.29103,-23.59151 -4.91484,-5.15426 -10.41931,-8.25263 -17.44583,-9.81996 -2.89828,-0.64649 -9.48424,-0.64977 -12.75974,-0.006 -10.69637,2.1011 -19.39777,8.7487 -24.12033,18.42716 -5.94589,12.1856 -4.23519,26.12672 4.45876,36.33603 7.2557,8.52036 19.38318,13.15459 30.34592,11.59597 v 0 z"
       style="color:#000000;clip-rule:nonzero;display:inline;overflow:visible;visibility:visible;opacity:1;isolation:auto;mix-blend-mode:normal;color-interpolation:sRGB;color-interpolation-filters:linearRGB;solid-color:#000000;solid-opacity:1;fill:#e7040f;fill-opacity:1;fill-rule:nonzero;stroke:none;stroke-width:4.05465794;stroke-linecap:round;stroke-linejoin:miter;stroke-miterlimit:4;stroke-dasharray:none;stroke-dashoffset:0;stroke-opacity:1;color-rendering:auto;image-rendering:auto;shape-rendering:auto;text-rendering:auto;enable-background:accumulate" />
  </g>
  <g
     id="g9448"
     transform="matrix(0.87439445,0,0,0.87439445,11.650294,0.97772326)">
    <path
       id="path1472"
       d="m 107.09269,30.920687 v 14.068038 h -6.51527 v -8.277828 h -0.831733 v 8.277828 H 93.230428 V 30.920687 H 107.0927 Z"
       style="clip-rule:evenodd;fill:#00449e;fill-rule:evenodd;stroke-width:0.33202237;image-rendering:optimizeQuality;shape-rendering:geometricPrecision;text-rendering:geometricPrecision"
       inkscape:connector-curvature="0" />
    <path
       id="path1470"
       d="m 93.253552,30.445505 0.466073,-4.134183 h 7e-6 l 0.917872,-8.141851 c 0.126095,-0.546024 0.559081,-0.874255 1.120768,-0.865899 h 1.285421 0.431132 5.161025 0.36741 1.56154 c 0.56168,-0.0084 0.99467,0.319877 1.12076,0.865899 l 0.005,0.04256 0.91309,8.099306 h 1e-5 l 0.46607,4.134182 H 93.25375 Z"
       style="clip-rule:evenodd;fill:#e7040f;fill-rule:evenodd;stroke-width:0.33202237;image-rendering:optimizeQuality;shape-rendering:geometricPrecision;text-rendering:geometricPrecision"
       inkscape:connector-curvature="0" />
    <path
       id="path1468"
       d="m 97.474825,16.952358 v -0.760321 h -0.630366 c -0.910013,0 -1.654558,-0.744545 -1.654558,-1.654563 v -4.443939 c 0,-0.9100185 0.744545,-1.6545628 1.654558,-1.6545628 h 0.630366 V 6.8782001 c 0,-0.1540016 0.10942,-0.2799849 0.243162,-0.2799849 h 4.674703 c 0.13375,0 0.24316,0.1259833 0.24316,0.2799849 v 1.5607721 h 0.63038 c 0.91002,0 1.65456,0.7445443 1.65456,1.6545628 v 4.443939 c 0,0.910018 -0.74454,1.654563 -1.65456,1.654563 h -0.63038 v 0.760321 h -5.161018 z"
       style="clip-rule:evenodd;fill:#ffb700;fill-rule:evenodd;stroke-width:0.33202237;image-rendering:optimizeQuality;shape-rendering:geometricPrecision;text-rendering:geometricPrecision"
       inkscape:connector-curvature="0" />
    <path
       id="path1476"
       d="m 91.9481,28.671133 -0.157326,0.580383 c 0.522341,0.452065 0.840214,1.113108 0.918424,1.848262 0.07919,0.744461 -0.649907,2.598552 -1.957689,2.148502 -1.061944,-0.365447 0.767633,-3.000479 -0.552546,-3.138461 -0.522135,-0.08399 -0.768682,0.492169 -0.814852,0.877631 -0.408687,3.412043 -2.210162,1.470861 -2.081469,0.11233 0.108245,-1.142555 0.864762,-2.10441 2.028904,-2.383331 l 0.187382,-0.688109"
       style="clip-rule:evenodd;fill:#ffb700;fill-rule:evenodd;stroke-width:0.33202237;image-rendering:optimizeQuality;shape-rendering:geometricPrecision;text-rendering:geometricPrecision"
       inkscape:connector-curvature="0" />
    <path
       id="path1466"
       d="M 89.518928,28.02834 89.32899,27.978077 C 89.002336,27.864762 88.937799,27.51406 89.105696,27.163368 l 2.579396,-6.652093 c 0.515813,-1.031088 1.160574,-2.108574 2.467017,-2.277655 l -0.859976,7.628226 -7e-6,1.9e-5 -0.674725,2.402441 c -0.09771,0.305386 -0.299273,0.501967 -0.594801,0.426539 l -0.0745,-0.01971"
       style="clip-rule:evenodd;fill:#e7040f;fill-rule:evenodd;stroke-width:0.33202237;image-rendering:optimizeQuality;shape-rendering:geometricPrecision;text-rendering:geometricPrecision"
       inkscape:connector-curvature="0" />
    <path
       id="path1480"
       d="m 110.72439,28.028332 0.18739,0.688121 c 1.16414,0.278912 1.92066,1.240772 2.02889,2.383319 0.1287,1.358528 -1.67278,3.299714 -2.08146,-0.112329 -0.0462,-0.385463 -0.29271,-0.961625 -0.81485,-0.877632 -1.32018,0.137982 0.5094,2.773022 -0.55255,3.138462 -1.30778,0.45005 -2.03689,-1.404042 -1.95768,-2.148503 0.0782,-0.735154 0.39607,-1.396194 0.91842,-1.848262 l -0.15733,-0.580381"
       style="clip-rule:evenodd;fill:#ffb700;fill-rule:evenodd;stroke-width:0.33202237;image-rendering:optimizeQuality;shape-rendering:geometricPrecision;text-rendering:geometricPrecision"
       inkscape:connector-curvature="0" />
    <path
       id="path847-6"
       d="m 108.29522,28.671127 -0.0745,0.01971 c -0.29553,0.07543 -0.49709,-0.121154 -0.5948,-0.42654 l -0.56314,-2.005152 0.0128,-0.0015 -0.90434,-8.021756 -1e-5,2e-6 c 1.28264,0.176648 1.87356,1.249041 2.38698,2.275364 l 2.5794,6.652092 c 0.1679,0.350693 0.10337,0.701397 -0.22329,0.814707 l -0.18994,0.05026"
       style="clip-rule:evenodd;fill:#e7040f;fill-rule:evenodd;stroke-width:0.33202237;image-rendering:optimizeQuality;shape-rendering:geometricPrecision;text-rendering:geometricPrecision"
       inkscape:connector-curvature="0" />
  </g>
  <g
     id="g10184"
     transform="matrix(1.8239769,0,0,1.8239769,-110.53211,-27.359306)">
    <path
       sodipodi:nodetypes="ccssccccc"
       style="fill:#ffb700;fill-opacity:1;stroke:none;stroke-width:0.67027771;stroke-linecap:round;stroke-linejoin:round;stroke-miterlimit:4;stroke-dasharray:none;stroke-dashoffset:0;stroke-opacity:1;paint-order:markers stroke fill"
       d="m 133.65338,27.213164 c -0.0448,0.828461 -0.33564,1.611738 -0.85063,2.216298 -0.35825,0.425421 -0.55955,0.985357 -0.55955,1.545129 0,1.29867 1.05209,2.373139 2.37314,2.373139 0.0896,0 0.17891,-0.02188 0.26848,-0.02188 1.05236,-0.134388 1.92603,-0.963068 2.08276,-1.993049 0.11196,-0.671716 -0.067,-1.32142 -0.49243,-1.858798 -0.53738,-0.69411 -0.85105,-1.454746 -0.89584,-2.260813 z"
       id="rect1013"
       inkscape:connector-curvature="0" />
    <path
       style="fill:#ffb700;stroke-width:0.20629534"
       id="path922"
       d="m 129.91407,31.109175 h 1.27627 c 0.13435,0 0.22391,-0.08955 0.22391,-0.223915 0,-0.134392 -0.0896,-0.2239 -0.22391,-0.2239 h -1.27627 c -0.13434,0 -0.22391,0.08955 -0.22391,0.2239 0,0.134393 0.11195,0.223915 0.22391,0.223915 z"
       inkscape:connector-curvature="0" />
    <path
       style="fill:#ffb700;stroke-width:0.20629534"
       id="path924"
       d="m 137.81801,30.88526 c 0,0.134393 0.0896,0.223915 0.22391,0.223915 h 1.27627 c 0.13434,0 0.22391,-0.08955 0.22391,-0.223915 0,-0.134392 -0.0896,-0.2239 -0.22391,-0.2239 h -1.27627 c -0.13434,0 -0.22391,0.111971 -0.22391,0.2239 z"
       inkscape:connector-curvature="0" />
    <path
       style="fill:#ffb700;stroke-width:0.20629534"
       id="path926"
       d="m 134.61613,34.154316 c -0.13434,0 -0.22391,0.08955 -0.22391,0.223915 v 1.209093 c 0,0.134393 0.0896,0.223915 0.22391,0.223915 0.13435,0 0.22391,-0.08955 0.22391,-0.223915 v -1.209093 c 0,-0.134393 -0.0896,-0.223915 -0.22391,-0.223915 z"
       inkscape:connector-curvature="0" />
    <path
       style="fill:#ffb700;stroke-width:0.20629534"
       id="path928"
       d="m 132.17553,33.101955 c -0.0672,0 -0.11195,0.02242 -0.15673,0.06713 l -0.87324,0.87325 c -0.0896,0.08955 -0.0896,0.223901 0,0.313464 0.0896,0.08955 0.22391,0.08955 0.31347,0 l 0.87324,-0.873236 c 0.0896,-0.08955 0.0896,-0.223914 0,-0.313478 -0.0448,-0.04471 -0.11196,-0.06713 -0.15674,-0.06713 z"
       inkscape:connector-curvature="0" />
    <path
       style="fill:#ffb700;stroke-width:0.20629534"
       id="path930"
       d="m 136.8776,28.623791 c 0.0896,0.08955 0.22391,0.08955 0.31347,0 l 0.89563,-0.89563 c 0.0896,-0.08955 0.0896,-0.223914 0,-0.313477 -0.11196,-0.08955 -0.20152,-0.08955 -0.31347,0 l -0.89563,0.89563 c -0.0896,0.08955 -0.0896,0.223914 0,0.313477 z"
       inkscape:connector-curvature="0" />
    <path
       style="fill:#ffb700;stroke-width:0.20629534"
       id="path932"
       d="m 131.12317,27.728161 0.91802,0.918025 c 0.0896,0.08955 0.22391,0.08955 0.31347,0 0.0896,-0.08955 0.0896,-0.223915 0,-0.313478 l -0.91802,-0.918024 c -0.11196,-0.08955 -0.22391,-0.08955 -0.31347,0 -0.0672,0.06713 -0.0672,0.223914 0,0.313477 z"
       inkscape:connector-curvature="0" />
    <path
       style="fill:#ffb700;stroke-width:0.20629534"
       id="path934"
       d="m 137.23585,33.191504 c -0.0448,-0.04484 -0.11196,-0.06713 -0.15674,-0.06713 -0.0672,0 -0.11195,0.02242 -0.15673,0.06713 -0.0896,0.08955 -0.0896,0.223914 0,0.313477 l 0.85085,0.87325 c 0.0896,0.08955 0.22391,0.08955 0.31347,0 0.0896,-0.08955 0.0896,-0.223915 0,-0.313477 z"
       inkscape:connector-curvature="0" />
    <path
       inkscape:connector-curvature="0"
       id="path1097"
       d="M 134.62352,24.806201 V 18.967312"
       style="fill:none;stroke:#000000;stroke-width:0.52916664;stroke-linecap:round;stroke-linejoin:miter;stroke-miterlimit:4;stroke-dasharray:none;stroke-opacity:1" />
    <rect
       ry="0.20148039"
       y="24.305241"
       x="133.39224"
       height="3.4592147"
       width="2.4481986"
       id="rect5341"
       style="fill:#000000;fill-opacity:1;stroke:none;stroke-width:0.52916664;stroke-linecap:round;stroke-linejoin:round;stroke-miterlimit:4;stroke-dasharray:none;stroke-dashoffset:0;stroke-opacity:1;paint-order:markers stroke fill"
       rx="0.20148039" />
  </g>
  <text
     xml:space="preserve"
     style="font-style:normal;font-variant:normal;font-weight:normal;font-stretch:normal;font-size:6.34999943px;line-height:1;font-family:Quicksand;-inkscape-font-specification:'Quicksand, Normal';font-variant-ligatures:normal;font-variant-position:normal;font-variant-caps:normal;font-variant-numeric:normal;font-variant-alternates:normal;font-feature-settings:normal;text-indent:0;text-align:center;text-decoration:none;text-decoration-line:none;text-decoration-style:solid;text-decoration-color:#000000;letter-spacing:0px;word-spacing:0px;text-transform:none;writing-mode:lr-tb;direction:ltr;text-orientation:mixed;dominant-baseline:auto;baseline-shift:baseline;text-anchor:middle;white-space:normal;shape-padding:0;opacity:1;vector-effect:none;fill:#137752;fill-opacity:1;stroke:none;stroke-width:0.71912855px;stroke-linecap:butt;stroke-linejoin:miter;stroke-miterlimit:4;stroke-dasharray:none;stroke-dashoffset:0;stroke-opacity:1"
     x="18.384314"
     y="51.417503"
     id="text10188"><tspan
       sodipodi:role="line"
       id="tspan10186"
       x="18.384314"
       y="51.417503"
       style="line-height:1;fill:#137752;stroke-width:0.71912855px">Donker</tspan><tspan
       sodipodi:role="line"
       x="18.384314"
       y="57.767502"
       style="line-height:1;fill:#137752;stroke-width:0.71912855px"
       id="tspan10190">lichaam</tspan></text>
  <text
     xml:space="preserve"
     style="font-style:normal;font-variant:normal;font-weight:normal;font-stretch:normal;font-size:6.34999943px;line-height:1;font-family:Quicksand;-inkscape-font-specification:'Quicksand, Normal';font-variant-ligatures:normal;font-variant-position:normal;font-variant-caps:normal;font-variant-numeric:normal;font-variant-alternates:normal;font-feature-settings:normal;text-indent:0;text-align:center;text-decoration:none;text-decoration-line:none;text-decoration-style:solid;text-decoration-color:#000000;letter-spacing:0px;word-spacing:0px;text-transform:none;writing-mode:lr-tb;direction:ltr;text-orientation:mixed;dominant-baseline:auto;baseline-shift:baseline;text-anchor:middle;white-space:normal;shape-padding:0;opacity:1;vector-effect:none;fill:#137752;fill-opacity:1;stroke:none;stroke-width:0.71912855px;stroke-linecap:butt;stroke-linejoin:miter;stroke-miterlimit:4;stroke-dasharray:none;stroke-dashoffset:0;stroke-opacity:1"
     x="61.660671"
     y="51.417503"
     id="text10188-2"><tspan
       sodipodi:role="line"
       id="tspan10186-5"
       x="61.660671"
       y="51.417503"
       style="line-height:1;fill:#137752;stroke-width:0.71912855px">Donker</tspan><tspan
       sodipodi:role="line"
       x="61.660671"
       y="57.767502"
       style="line-height:1;fill:#137752;stroke-width:0.71912855px"
       id="tspan10190-6">lichaam</tspan></text>
  <text
     xml:space="preserve"
     style="font-style:normal;font-variant:normal;font-weight:normal;font-stretch:normal;font-size:6.34999943px;line-height:1;font-family:Quicksand;-inkscape-font-specification:'Quicksand, Normal';font-variant-ligatures:normal;font-variant-position:normal;font-variant-caps:normal;font-variant-numeric:normal;font-variant-alternates:normal;font-feature-settings:normal;text-indent:0;text-align:center;text-decoration:none;text-decoration-line:none;text-decoration-style:solid;text-decoration-color:#000000;letter-spacing:0px;word-spacing:0px;text-transform:none;writing-mode:lr-tb;direction:ltr;text-orientation:mixed;dominant-baseline:auto;baseline-shift:baseline;text-anchor:middle;white-space:normal;shape-padding:0;opacity:1;vector-effect:none;fill:#137752;fill-opacity:1;stroke:none;stroke-width:0.71912855px;stroke-linecap:butt;stroke-linejoin:miter;stroke-miterlimit:4;stroke-dasharray:none;stroke-dashoffset:0;stroke-opacity:1"
     x="99.223297"
     y="51.417503"
     id="text10188-2-2"><tspan
       sodipodi:role="line"
       id="tspan10186-5-1"
       x="99.223297"
       y="51.417503"
       style="line-height:1;fill:#137752;stroke-width:0.71912855px">Donker</tspan><tspan
       sodipodi:role="line"
       x="99.223297"
       y="57.767502"
       style="line-height:1;fill:#137752;stroke-width:0.71912855px"
       id="tspan10190-6-8">lichaam</tspan></text>
  <text
     xml:space="preserve"
     style="font-style:normal;font-variant:normal;font-weight:normal;font-stretch:normal;font-size:6.34999943px;line-height:1;font-family:Quicksand;-inkscape-font-specification:'Quicksand, Normal';font-variant-ligatures:normal;font-variant-position:normal;font-variant-caps:normal;font-variant-numeric:normal;font-variant-alternates:normal;font-feature-settings:normal;text-indent:0;text-align:center;text-decoration:none;text-decoration-line:none;text-decoration-style:solid;text-decoration-color:#000000;letter-spacing:0px;word-spacing:0px;text-transform:none;writing-mode:lr-tb;direction:ltr;text-orientation:mixed;dominant-baseline:auto;baseline-shift:baseline;text-anchor:middle;white-space:normal;shape-padding:0;opacity:1;vector-effect:none;fill:#e7040f;fill-opacity:1;stroke:none;stroke-width:0.71912855px;stroke-linecap:butt;stroke-linejoin:miter;stroke-miterlimit:4;stroke-dasharray:none;stroke-dashoffset:0;stroke-opacity:1"
     x="134.89908"
     y="48.147255"
     id="text10188-2-2-1"><tspan
       sodipodi:role="line"
       x="134.89908"
       y="48.147255"
       style="line-height:1;fill:#e7040f;stroke-width:0.71912855px"
       id="tspan10190-6-8-0">GEEN</tspan><tspan
       sodipodi:role="line"
       x="134.89908"
       y="54.497253"
       style="line-height:1;fill:#e7040f;stroke-width:0.71912855px"
       id="tspan10589">donker</tspan><tspan
       sodipodi:role="line"
       x="134.89908"
       y="60.847252"
       style="line-height:1;fill:#e7040f;stroke-width:0.71912855px"
       id="tspan10257">lichaam</tspan></text>
</svg>
