<?xml version="1.0" encoding="UTF-8" standalone="no"?>
<svg
   xmlns:dc="http://purl.org/dc/elements/1.1/"
   xmlns:cc="http://creativecommons.org/ns#"
   xmlns:rdf="http://www.w3.org/1999/02/22-rdf-syntax-ns#"
   xmlns:svg="http://www.w3.org/2000/svg"
   xmlns="http://www.w3.org/2000/svg"
   xmlns:sodipodi="http://sodipodi.sourceforge.net/DTD/sodipodi-0.dtd"
   xmlns:inkscape="http://www.inkscape.org/namespaces/inkscape"
   inkscape:export-ydpi="94.066864"
   inkscape:export-xdpi="94.066864"
   inkscape:export-filename="\\wsl$\Ubuntu-18.04\home\fdf\clones\hzh_gatsby\src\images\default_title_img.png"
   sodipodi:docname="default_title_img.svg"
   inkscape:version="1.0 (4035a4fb49, 2020-05-01)"
   id="svg4623"
   version="1.1"
   viewBox="0 0 90.772358 36.276299"
   height="137.10728"
   width="343.07666">
  <defs
     id="defs4617" />
  <sodipodi:namedview
     inkscape:snap-page="true"
     inkscape:document-rotation="0"
     inkscape:snap-global="false"
     inkscape:pagecheckerboard="true"
     inkscape:guide-bbox="true"
     showguides="false"
     inkscape:window-maximized="1"
     inkscape:window-y="161"
     inkscape:window-x="55"
     inkscape:window-height="877"
     inkscape:window-width="1537"
     inkscape:snap-smooth-nodes="true"
     inkscape:object-paths="true"
     units="px"
     showgrid="false"
     inkscape:current-layer="g5353"
     inkscape:document-units="px"
     inkscape:cy="110.41997"
     inkscape:cx="151.2022"
     inkscape:zoom="0.9899495"
     inkscape:pageshadow="2"
     inkscape:pageopacity="0.0"
     borderopacity="1.0"
     bordercolor="#666666"
     pagecolor="#ffffff"
     id="base">
    <sodipodi:guide
       inkscape:locked="false"
       id="guide5355"
       orientation="1,0"
       position="45.386182,47.55167" />
  </sodipodi:namedview>
  <metadata
     id="metadata4620">
    <rdf:RDF>
      <cc:Work
         rdf:about="">
        <dc:format>image/svg+xml</dc:format>
        <dc:type
           rdf:resource="http://purl.org/dc/dcmitype/StillImage" />
        <dc:title></dc:title>
      </cc:Work>
    </rdf:RDF>
  </metadata>
  <g
     transform="translate(29.386183,-262.86187)"
     id="layer1"
     inkscape:groupmode="layer"
     inkscape:label="Layer 1">
    <g
       style="stroke-width:1.11578"
       transform="matrix(0.89623584,0,0,0.89623584,-1.2321384,28.09939)"
       id="g5353">
      <rect
         ry="0.83666807"
         rx="2.0935526"
         y="261.94275"
         x="-31.413656"
         height="40.476288"
         width="101.28178"
         id="rect850"
         style="fill:#f4f4f4;stroke:none;stroke-width:4.60572;stroke-linecap:round;stroke-linejoin:round;paint-order:markers stroke fill;stop-color:#000000" />
      <g
         style="fill:#000000;stroke-width:3.67035"
         id="g1348-2-1-2-3"
         transform="matrix(-0.30399753,0,0,0.30399753,49.46681,259.04116)">
        <circle
           style="color:#000000;clip-rule:nonzero;display:inline;overflow:visible;visibility:visible;opacity:1;isolation:auto;mix-blend-mode:normal;color-interpolation:sRGB;color-interpolation-filters:linearRGB;solid-color:#000000;solid-opacity:1;fill:#000000;fill-opacity:1;fill-rule:evenodd;stroke:none;stroke-width:91.7588;stroke-linecap:square;stroke-linejoin:round;stroke-miterlimit:4;stroke-dasharray:none;stroke-dashoffset:0;stroke-opacity:1;color-rendering:auto;image-rendering:auto;shape-rendering:auto;text-rendering:auto;enable-background:accumulate"
           id="path1114-1-7-9-4"
           cx="86.092468"
           cy="52.248337"
           r="10" />
        <path
           sodipodi:nodetypes="csccccccccsccsccccccscccccccccccccssccssscssscsccccc"
           inkscape:connector-curvature="0"
           id="rect1116-7-9-0-9"
           transform="matrix(-0.26458333,0,0,0.26458333,496.676,-170.90929)"
           d="m 1593.1523,880.55273 c -20.9385,0 -37.7949,16.85635 -37.7949,37.79493 v 34.34179 h 32.8711 v -36.03906 c -0.017,-1.06732 0.8526,-1.93697 1.9199,-1.91992 1.0436,0.0167 1.8761,0.8763 1.8594,1.91992 v 37.92773 c 4e-4,1.04357 -0.8451,1.88994 -1.8887,1.89063 h -34.7617 -14.9629 c -2.3637,0 -4.6088,0.47231 -6.6465,1.32813 -1.0188,0.4279 -1.9864,0.95179 -2.8906,1.56054 -0.4521,0.30438 -0.8873,0.62916 -1.3066,0.97461 -0.4193,0.34545 -0.8213,0.71194 -1.2051,1.0957 -0.3834,0.38346 -0.7506,0.78419 -1.0957,1.20313 -3e-4,3.7e-4 3e-4,0.002 0,0.002 -1.3813,1.677 -2.4453,3.62648 -3.1035,5.76172 -2e-4,5.9e-4 2e-4,10e-4 0,0.002 -0.3289,1.06734 -0.5567,2.18134 -0.6719,3.33008 -0.058,0.5747 -0.088,1.15907 -0.088,1.75 0,0.59094 0.03,1.1733 0.088,1.74805 10e-5,6.4e-4 -10e-5,0.001 0,0.002 0.1153,1.14882 0.3429,2.26252 0.6719,3.33008 2e-4,6e-4 -2e-4,10e-4 0,0.002 0.1645,0.53347 0.3546,1.05542 0.5683,1.56446 3e-4,5.6e-4 -2e-4,10e-4 0,0.002 0.2138,0.50902 0.4527,1.0045 0.7129,1.48633 3e-4,5.1e-4 -2e-4,10e-4 0,0.002 1.0421,1.92877 2.4462,3.62937 4.1231,5.01172 0.8386,0.69135 1.7447,1.30273 2.709,1.82422 1.4464,0.78223 3.0223,1.36143 4.6894,1.69922 1.1114,0.22519 2.2635,0.34375 3.4453,0.34375 0,0 80.1268,0.0293 90.5528,0.0293 v -72.17382 c 0,-20.93858 -16.8564,-37.79493 -37.795,-37.79493 z m -89.6777,113.74995 c -5.0365,0.46052 -9.4801,2.60538 -12.584,6.22072 l -79.1426,79.1426 c -7.4029,7.4029 -7.4029,19.3217 0,26.7246 7.4029,7.4029 19.3237,7.4029 26.7266,0 l 47.8574,-47.8574 v 67.6875 c 0,10.4693 8.4292,18.8984 18.8985,18.8984 10.4693,0 18.8984,-8.4291 18.8984,-18.8984 v -94.4883 h 69.2126 v 0 c 20.7285,-0.1013 37.4017,-16.7241 37.5957,-37.42972 -10.4472,-10e-6 -127.367,-0.009 -127.4629,0 z"
           style="color:#000000;clip-rule:nonzero;display:inline;overflow:visible;visibility:visible;opacity:1;isolation:auto;mix-blend-mode:normal;color-interpolation:sRGB;color-interpolation-filters:linearRGB;solid-color:#000000;solid-opacity:1;fill:#000000;fill-opacity:1;fill-rule:evenodd;stroke:none;stroke-width:346.805;stroke-linecap:square;stroke-linejoin:round;stroke-miterlimit:4;stroke-dasharray:none;stroke-dashoffset:0;stroke-opacity:1;color-rendering:auto;image-rendering:auto;shape-rendering:auto;text-rendering:auto;enable-background:accumulate" />
        <g
           style="fill:#000000;stroke-width:3.67035"
           id="g1251-5-1-3-2"
           transform="translate(-10.723601,0.60112632)">
          <rect
             ry="0"
             transform="matrix(0.5,-0.8660254,-0.99991011,0.01340771,0,0)"
             y="-168.22519"
             x="-106.98386"
             height="11.294343"
             width="15.668805"
             id="rect1229-6-0-0-7"
             style="color:#000000;clip-rule:nonzero;display:inline;overflow:visible;visibility:visible;opacity:1;isolation:auto;mix-blend-mode:normal;color-interpolation:sRGB;color-interpolation-filters:linearRGB;solid-color:#000000;solid-opacity:1;fill:#000000;fill-opacity:1;fill-rule:evenodd;stroke:none;stroke-width:3.95958;stroke-linecap:square;stroke-linejoin:round;stroke-miterlimit:4;stroke-dasharray:none;stroke-dashoffset:0;stroke-opacity:1;paint-order:fill markers stroke;color-rendering:auto;image-rendering:auto;shape-rendering:auto;text-rendering:auto;enable-background:accumulate" />
          <rect
             transform="rotate(30)"
             y="5.2323093"
             x="134.8607"
             height="2.4550581"
             width="9.6449051"
             id="rect1246-5-3-3-4"
             style="color:#000000;clip-rule:nonzero;display:inline;overflow:visible;visibility:visible;opacity:1;isolation:auto;mix-blend-mode:normal;color-interpolation:sRGB;color-interpolation-filters:linearRGB;solid-color:#000000;solid-opacity:1;fill:#000000;fill-opacity:1;fill-rule:evenodd;stroke:none;stroke-width:3.67035;stroke-linecap:square;stroke-linejoin:round;stroke-miterlimit:4;stroke-dasharray:none;stroke-dashoffset:0;stroke-opacity:1;paint-order:fill markers stroke;color-rendering:auto;image-rendering:auto;shape-rendering:auto;text-rendering:auto;enable-background:accumulate" />
        </g>
      </g>
      <g
         style="stroke-width:1.2397"
         transform="matrix(0.90003565,0,0,0.90003565,-41.950954,52.849425)"
         id="g1092">
        <path
           sodipodi:nodetypes="ccssccccc"
           style="fill:#ffb700;fill-opacity:1;stroke:none;stroke-width:0.830946;stroke-linecap:round;stroke-linejoin:round;stroke-miterlimit:4;stroke-dasharray:none;stroke-dashoffset:0;stroke-opacity:1;paint-order:markers stroke fill"
           d="m 61.929524,242.18784 c -0.03276,0.60597 -0.245499,1.17889 -0.622183,1.62109 -0.262041,0.31117 -0.409279,0.72073 -0.409279,1.13017 0,0.9499 0.769538,1.73581 1.735812,1.73581 0.06551,0 0.13086,-0.016 0.196371,-0.016 0.769742,-0.0983 1.408777,-0.70443 1.523421,-1.4578 0.08189,-0.49132 -0.04901,-0.96654 -0.360186,-1.3596 -0.393059,-0.5077 -0.622495,-1.06406 -0.655256,-1.65365 z"
           id="rect1013-8"
           inkscape:connector-curvature="0" />
        <path
           style="fill:#ffb700;stroke-width:0.255745"
           id="path922-8"
           d="m 59.194437,245.03754 h 0.933519 c 0.09827,0 0.163775,-0.0655 0.163775,-0.16378 0,-0.0983 -0.06551,-0.16377 -0.163775,-0.16377 h -0.933519 c -0.09826,0 -0.163775,0.0655 -0.163775,0.16377 0,0.0983 0.08189,0.16378 0.163775,0.16378 z"
           inkscape:connector-curvature="0" />
        <path
           style="fill:#ffb700;stroke-width:0.255745"
           id="path924-6"
           d="m 64.975702,244.87376 c 0,0.0983 0.06551,0.16378 0.163775,0.16378 h 0.933519 c 0.09826,0 0.163775,-0.0655 0.163775,-0.16378 0,-0.0983 -0.06551,-0.16377 -0.163775,-0.16377 h -0.933519 c -0.09826,0 -0.163775,0.0819 -0.163775,0.16377 z"
           inkscape:connector-curvature="0" />
        <path
           style="fill:#ffb700;stroke-width:0.255745"
           id="path926-8"
           d="m 62.633717,247.26488 c -0.09826,0 -0.163775,0.0655 -0.163775,0.16378 v 0.88438 c 0,0.0983 0.06551,0.16378 0.163775,0.16378 0.09827,0 0.163775,-0.0655 0.163775,-0.16378 v -0.88438 c 0,-0.0983 -0.06551,-0.16378 -0.163775,-0.16378 z"
           inkscape:connector-curvature="0" />
        <path
           style="fill:#ffb700;stroke-width:0.255745"
           id="path928-3"
           d="m 60.848567,246.49514 c -0.04913,0 -0.08189,0.0164 -0.114642,0.0491 l -0.638724,0.63873 c -0.06551,0.0655 -0.06551,0.16377 0,0.22928 0.06551,0.0655 0.163775,0.0655 0.229285,0 l 0.638724,-0.63872 c 0.06551,-0.0655 0.06551,-0.16378 0,-0.22929 -0.03276,-0.0327 -0.08189,-0.0491 -0.114643,-0.0491 z"
           inkscape:connector-curvature="0" />
        <path
           style="fill:#ffb700;stroke-width:0.255745"
           id="path930-8"
           d="m 64.287846,243.21963 c 0.06551,0.0655 0.163776,0.0655 0.229286,0 l 0.6551,-0.6551 c 0.06551,-0.0655 0.06551,-0.16378 0,-0.22929 -0.08189,-0.0655 -0.147397,-0.0655 -0.229284,0 l -0.655102,0.6551 c -0.06551,0.0655 -0.06551,0.16378 0,0.22929 z"
           inkscape:connector-curvature="0" />
        <path
           style="fill:#ffb700;stroke-width:0.255745"
           id="path932-3"
           d="m 60.078823,242.56453 0.671479,0.67148 c 0.06551,0.0655 0.163776,0.0655 0.229285,0 0.06551,-0.0655 0.06551,-0.16378 0,-0.22929 l -0.671478,-0.67148 c -0.08189,-0.0655 -0.163776,-0.0655 -0.229286,0 -0.04913,0.0491 -0.04913,0.16378 0,0.22929 z"
           inkscape:connector-curvature="0" />
        <path
           style="fill:#ffb700;stroke-width:0.255745"
           id="path934-3"
           d="m 64.549887,246.56064 c -0.03276,-0.0328 -0.08189,-0.0491 -0.114643,-0.0491 -0.04913,0 -0.08189,0.0164 -0.114643,0.0491 -0.06551,0.0655 -0.06551,0.16378 0,0.22929 l 0.622347,0.63873 c 0.06551,0.0655 0.163774,0.0655 0.229284,0 0.06551,-0.0655 0.06551,-0.16378 0,-0.22929 z"
           inkscape:connector-curvature="0" />
        <path
           inkscape:connector-curvature="0"
           id="path1097"
           d="m 62.639126,240.42729 v -4.2708"
           style="fill:none;stroke:#000000;stroke-width:0.65601;stroke-linecap:round;stroke-linejoin:miter;stroke-miterlimit:4;stroke-dasharray:none;stroke-opacity:1" />
        <rect
           ry="0.45558572"
           y="240.06087"
           x="61.738518"
           height="2.5302098"
           width="1.7907115"
           id="rect5341"
           style="fill:#000000;fill-opacity:1;stroke:none;stroke-width:0.65601;stroke-linecap:round;stroke-linejoin:round;stroke-miterlimit:4;stroke-dasharray:none;stroke-dashoffset:0;stroke-opacity:1;paint-order:markers stroke fill"
           rx="0.45558572" />
      </g>
    </g>
  </g>
</svg>
