<?xml version="1.0" encoding="UTF-8" standalone="no"?>
<svg
   xmlns:dc="http://purl.org/dc/elements/1.1/"
   xmlns:cc="http://creativecommons.org/ns#"
   xmlns:rdf="http://www.w3.org/1999/02/22-rdf-syntax-ns#"
   xmlns:svg="http://www.w3.org/2000/svg"
   xmlns="http://www.w3.org/2000/svg"
   xmlns:sodipodi="http://sodipodi.sourceforge.net/DTD/sodipodi-0.dtd"
   xmlns:inkscape="http://www.inkscape.org/namespaces/inkscape"
   width="100"
   height="100"
   viewBox="0 0 100 100"
   version="1.1"
   id="svg26"
   sodipodi:docname="student.svg"
   inkscape:version="0.92.4 (unknown)">
  <metadata
     id="metadata32">
    <rdf:RDF>
      <cc:Work
         rdf:about="">
        <dc:format>image/svg+xml</dc:format>
        <dc:type
           rdf:resource="http://purl.org/dc/dcmitype/StillImage" />
        <dc:title></dc:title>
      </cc:Work>
    </rdf:RDF>
  </metadata>
  <defs
     id="defs30" />
  <sodipodi:namedview
     pagecolor="#ffffff"
     bordercolor="#666666"
     borderopacity="1"
     objecttolerance="10"
     gridtolerance="10"
     guidetolerance="10"
     inkscape:pageopacity="0"
     inkscape:pageshadow="2"
     inkscape:window-width="1920"
     inkscape:window-height="1055"
     id="namedview28"
     showgrid="false"
     inkscape:zoom="2.36"
     inkscape:cx="2.9661017"
     inkscape:cy="50"
     inkscape:window-x="1600"
     inkscape:window-y="25"
     inkscape:window-maximized="1"
     inkscape:current-layer="svg26" />
  <g
     id="g903"
     transform="matrix(1.4401789,0,0,1.4401789,-22.009004,-22.008947)"
     style="fill:#ffb700">
    <path
       id="path4"
       d="m 44.003887,84.500001 c 1.220746,0 2.27917,-0.689607 2.810823,-1.699747 -1.987918,-0.04777 -4.006656,-0.233464 -5.817613,-0.461022 0.423524,1.255933 1.608827,2.160769 3.00679,2.160769 z"
       style="fill:#ffb700;stroke-width:0.25683689"
       inkscape:connector-curvature="0" />
    <path
       id="path6"
       d="m 51.545388,84.500001 c 1.398477,0 2.583523,-0.904836 3.007304,-2.160769 -1.811214,0.227558 -3.829695,0.412994 -5.817613,0.461022 0.531396,1.010397 1.589821,1.699747 2.810309,1.699747 z"
       style="fill:#ffb700;stroke-width:0.25683689"
       inkscape:connector-curvature="0" />
    <circle
       id="circle8"
       r="5.7788301"
       cy="29.361744"
       cx="47.774765"
       style="fill:#ffb700;stroke-width:0.25683689" />
    <path
       id="path10"
       d="m 29.400398,25.157324 -2.22395,-2.067794 c 1.38358,-1.387176 2.94823,-2.873234 4.802079,-4.554489 0.888655,-0.805697 -1.144209,-3.244363 -2.095276,-1.895199 -1.380755,1.958895 -2.898404,3.900582 -4.393965,5.689708 -0.529855,0.01567 -1.053802,0.234749 -1.44368,0.65365 -0.427634,0.460251 -0.603053,1.064075 -0.534478,1.642471 -2.135085,2.403737 -4.065985,4.341314 -5.277741,5.372515 0.07551,0.634644 0.739177,1.340945 1.489911,1.607542 1.5346,-1.968655 2.976226,-3.727217 4.618698,-5.539972 l 2.778204,2.583522 c 0.670858,-0.782068 1.279305,-1.595214 1.698463,-2.273263 0.35315,-0.548347 0.555795,-1.055856 0.581735,-1.218691 z m 1.05072,-8.465601 c 0.194682,-0.144599 0.60331,0.07474 0.911771,0.490559 0.308975,0.415819 0.401436,0.87042 0.206497,1.014762 -0.04341,0.0321 -0.09837,0.04366 -0.159239,0.04161 0.07808,-0.519324 -0.64312,-1.447276 -0.440475,-0.921017 0.177474,0.461536 -0.111211,0.483367 -0.308205,0.393731 -0.0013,-0.0018 -0.0028,-0.0033 -0.0041,-0.0051 -0.308718,-0.415305 -0.400923,-0.869907 -0.20624,-1.014506 z"
       style="fill:#ffb700;stroke-width:0.25683689"
       inkscape:connector-curvature="0" />
    <path
       id="path12"
       d="m 67.271254,24.113796 -1.12212,1.043528 c 0.02568,0.163091 0.228071,0.670344 0.580965,1.218691 0.391676,0.632076 0.946701,1.384864 1.564137,2.116593 0.04392,0.05265 0.08887,0.105046 0.133555,0.157441 l 2.437896,-2.266586 c -0.119173,-0.113522 -0.241684,-0.227814 -0.372414,-0.34262 -1.220232,-1.073578 -2.319751,-1.639904 -3.222019,-1.927047 z"
       style="fill:#ffb700;stroke-width:0.25683689"
       inkscape:connector-curvature="0" />
    <path
       id="path14"
       d="m 46.875837,38.637665 -1.027348,1.60523 -3.356344,-3.635783 c -5.536119,-4.487711 -7.055309,-7.501948 -12.575762,-11.496276 0,1.284185 -4.023606,6.292504 -6.078301,6.977488 14.382865,8.817981 13.869192,15.238903 13.869192,15.238903 0,0 2.484126,27.781276 0.557849,30.221227 -1.926276,2.43995 -3.595716,3.210461 -3.595716,3.210461 0,0 6.941017,1.541021 13.105102,1.541021 6.164086,0 13.105616,-1.541021 13.105616,-1.541021 0,0 -1.66944,-0.770511 -3.595716,-3.210461 -1.926277,-2.439951 0.557336,-30.221227 0.557336,-30.221227 0,0 -0.513674,-6.420922 13.869706,-15.238903 -2.054696,-0.684984 -6.078816,-5.693303 -6.078816,-6.977488 -5.521223,3.994585 -7.039385,7.009079 -12.577302,11.498074 l -3.35429,3.633985 -1.027348,-1.60523 2.082691,-2.033635 h -5.962983 z"
       style="fill:#ffb700;stroke-width:0.25683689"
       inkscape:connector-curvature="0" />
    <path
       id="path16"
       d="m 75.86553,29.470129 c -0.05008,1.78065 -0.195709,5.037856 -0.616151,8.140188 0.77051,-0.342363 1.198914,0.171054 1.198914,0.171054 l 0.03673,-8.175889 -0.5635,-0.216257 z"
       style="fill:#ffb700;stroke-width:0.25683689"
       inkscape:connector-curvature="0" />
    <path
       id="path18"
       d="m 76.776274,18.900264 c 0,0 -5.11542,0.943618 -12.717792,-3.400264 l 3.067916,5.695615 -2.531641,2.266585 c 0,0 2.696274,-0.922814 6.237284,2.193387 3.54101,3.115946 2.969034,5.907506 2.969034,5.907506 l 1.92602,-2.799265 6.039777,2.318209 C 76.490928,24.094276 76.776274,18.900264 76.776274,18.900264 Z"
       style="fill:#ffb700;stroke-width:0.25683689"
       inkscape:connector-curvature="0" />
  </g>
</svg>
