<?xml version="1.0" encoding="UTF-8" standalone="no"?>
<!-- Created with Inkscape (http://www.inkscape.org/) -->

<svg
   xmlns:ns1="http://www.iki.fi/pav/software/textext/"
   xmlns:dc="http://purl.org/dc/elements/1.1/"
   xmlns:cc="http://creativecommons.org/ns#"
   xmlns:rdf="http://www.w3.org/1999/02/22-rdf-syntax-ns#"
   xmlns:svg="http://www.w3.org/2000/svg"
   xmlns="http://www.w3.org/2000/svg"
   xmlns:sodipodi="http://sodipodi.sourceforge.net/DTD/sodipodi-0.dtd"
   xmlns:inkscape="http://www.inkscape.org/namespaces/inkscape"
   width="583.0885"
   height="275.55225"
   viewBox="0 0 154.27548 72.906525"
   version="1.1"
   id="svg4623"
   inkscape:version="0.92.4 (unknown)"
   sodipodi:docname="evian_kracht.svg"
   inkscape:export-filename="/home/fdf/hugo/hoezithet/static/images/favicon.png"
   inkscape:export-xdpi="90"
   inkscape:export-ydpi="90">
  <defs
     id="defs4617">
    <marker
       inkscape:stockid="Arrow2Mend"
       orient="auto"
       refY="0"
       refX="0"
       id="Arrow2Mend"
       style="overflow:visible"
       inkscape:isstock="true">
      <path
         id="path9370"
         style="fill:#e7040f;fill-opacity:1;fill-rule:evenodd;stroke:#e7040f;stroke-width:0.625;stroke-linejoin:round;stroke-opacity:1"
         d="M 8.7185878,4.0337352 -2.2072895,0.01601326 8.7185884,-4.0017078 c -1.7454984,2.3720609 -1.7354408,5.6174519 -6e-7,8.035443 z"
         transform="scale(-0.6)"
         inkscape:connector-curvature="0" />
    </marker>
  </defs>
  <sodipodi:namedview
     id="base"
     pagecolor="#f4f4f4"
     bordercolor="#666666"
     borderopacity="1.0"
     inkscape:pageopacity="1"
     inkscape:pageshadow="2"
     inkscape:zoom="1.8101934"
     inkscape:cx="247.94876"
     inkscape:cy="190.68401"
     inkscape:document-units="px"
     inkscape:current-layer="layer2"
     showgrid="false"
     units="px"
     inkscape:object-paths="true"
     inkscape:snap-smooth-nodes="true"
     inkscape:window-width="1920"
     inkscape:window-height="1055"
     inkscape:window-x="1600"
     inkscape:window-y="25"
     inkscape:window-maximized="1"
     showguides="true"
     inkscape:guide-bbox="true"
     inkscape:pagecheckerboard="false"
     inkscape:snap-global="true"
     inkscape:showpageshadow="true"
     showborder="true"
     borderlayer="false"
     inkscape:snap-page="true" />
  <metadata
     id="metadata4620">
    <rdf:RDF>
      <cc:Work
         rdf:about="">
        <dc:format>image/svg+xml</dc:format>
        <dc:type
           rdf:resource="http://purl.org/dc/dcmitype/StillImage" />
        <dc:title />
      </cc:Work>
    </rdf:RDF>
  </metadata>
  <g
     inkscape:label="watermark"
     inkscape:groupmode="layer"
     id="layer1"
     transform="translate(5.3589214,-223.6024)"
     sodipodi:insensitive="true">
    <g
       id="g5353"
       transform="matrix(0.89623584,0,0,0.89623584,-1.2321384,28.09939)"
       style="stroke-width:1.11577785">
      <text
         xml:space="preserve"
         style="font-style:normal;font-variant:normal;font-weight:normal;font-stretch:normal;font-size:28.01556396px;line-height:1.29999995;font-family:Quicksand;-inkscape-font-specification:'Quicksand, Normal';font-variant-ligatures:normal;font-variant-position:normal;font-variant-caps:normal;font-variant-numeric:normal;font-variant-alternates:normal;font-feature-settings:normal;text-indent:0;text-align:center;text-decoration:none;text-decoration-line:none;text-decoration-style:solid;text-decoration-color:#000000;letter-spacing:0px;word-spacing:0px;text-transform:none;writing-mode:lr-tb;direction:ltr;text-orientation:mixed;dominant-baseline:auto;baseline-shift:baseline;text-anchor:middle;white-space:normal;shape-padding:0;opacity:1;vector-effect:none;fill:#555555;fill-opacity:1;stroke:none;stroke-width:3.17272329px;stroke-linecap:butt;stroke-linejoin:miter;stroke-miterlimit:4;stroke-dasharray:none;stroke-dashoffset:0;stroke-opacity:1"
         x="44.292774"
         y="218.67326"
         id="text2653"><tspan
           sodipodi:role="line"
           id="tspan2651"
           x="44.292774"
           y="245.28806"
           style="stroke-width:3.17272329px" /></text>
      <text
         xml:space="preserve"
         style="font-style:normal;font-variant:normal;font-weight:normal;font-stretch:normal;font-size:4.72345829px;line-height:1.25;font-family:Quicksand;-inkscape-font-specification:Quicksand;text-align:end;letter-spacing:0px;word-spacing:0px;text-anchor:end;fill:#d3d3d3;fill-opacity:1;stroke:none;stroke-width:0.29521614"
         x="167.17076"
         y="298.24545"
         id="text7806"><tspan
           sodipodi:role="line"
           id="tspan7804"
           x="167.17076"
           y="298.24545"
           style="font-size:4.72345829px;text-align:end;text-anchor:end;fill:#d3d3d3;stroke-width:0.29521614">Meer op: https://hoezithet.nu</tspan></text>
    </g>
  </g>
  <g
     inkscape:groupmode="layer"
     id="layer2"
     inkscape:label="Layer 1"
     transform="translate(5.3589214,-223.6024)">
    <g
       id="g2487"
       transform="translate(2.5595123,-2.790527)">
      <path
         sodipodi:nodetypes="cssscc"
         inkscape:connector-curvature="0"
         id="rect9680"
         d="m 52.321116,269.32745 h 27.285153 c 3.607221,0 6.51123,2.90401 6.51123,6.51123 0,3.60722 -2.904009,6.51123 -6.51123,6.51123 H 52.321116 Z"
         style="opacity:1;vector-effect:none;fill:#000000;fill-opacity:1;stroke:none;stroke-width:0.7055555;stroke-linecap:round;stroke-linejoin:round;stroke-miterlimit:4;stroke-dasharray:none;stroke-dashoffset:0;stroke-opacity:1;paint-order:fill markers stroke" />
      <g
         id="g9240"
         transform="translate(-5.1800206,224.35154)">
        <path
           style="opacity:1;vector-effect:none;fill:#f6fffe;fill-opacity:1;stroke:none;stroke-width:1.33333337;stroke-linecap:round;stroke-linejoin:miter;stroke-miterlimit:4;stroke-dasharray:none;stroke-dashoffset:0;stroke-opacity:1"
           d="m 281.97852,31.505859 -0.0332,0.933594 1.86328,0.414063 v 3.589843 l -13.5332,27.070313 v 10.496094 l 0.41406,2.484375 v 35.494139 l -0.41406,0.9668 v 3.45312 l 3.72852,19.47266 -0.13868,3.86719 -2.34765,8.14843 -1.10352,7.59571 v 11.87695 l 2.76172,9.25391 5.38477,2.90039 4.00586,0.27539 1.38086,-1.24219 1.93359,1.79492 h 8.28711 8.28515 l 1.9336,-1.79492 1.38086,1.24219 4.00586,-0.27539 5.38672,-2.90039 2.76172,-9.25391 v -11.87695 l -1.10547,-7.59571 -2.34766,-8.14843 -0.13867,-3.86719 3.73047,-19.47266 v -3.45312 l -0.41602,-0.9668 V 76.494141 l 0.41602,-2.484375 V 63.513672 L 304.52539,36.443359 v -3.589843 l 1.86328,-0.414063 -0.0332,-0.933594 h -12.18848 z"
           id="path8981"
           inkscape:connector-curvature="0"
           sodipodi:nodetypes="ccccccccccccccccccccccccccccccccccccccccccc"
           transform="scale(0.26458331)" />
        <path
           style="opacity:1;vector-effect:none;fill:#9fd3fa;fill-opacity:1;stroke:none;stroke-width:1.33333337;stroke-linecap:round;stroke-linejoin:miter;stroke-miterlimit:4;stroke-dasharray:none;stroke-dashoffset:0;stroke-opacity:1"
           d="M 305.90625,31.505859 V 20.25 l -1.63477,-2.830078 H 294.16797 284.0625 L 282.42773,20.25 v 11.255859 z"
           id="path8129"
           inkscape:connector-curvature="0"
           sodipodi:nodetypes="cccccccc"
           transform="scale(0.26458331)" />
        <rect
           style="opacity:1;vector-effect:none;fill:#f6fffe;fill-opacity:1;stroke:none;stroke-width:0.36264846;stroke-linecap:round;stroke-linejoin:round;stroke-miterlimit:4;stroke-dasharray:none;stroke-dashoffset:0;stroke-opacity:1;paint-order:fill markers stroke"
           id="rect8985"
           width="12.423742"
           height="8.8466606"
           x="71.619911"
           y="20.314648" />
        <path
           style="opacity:1;vector-effect:none;fill:#fdc8d8;fill-opacity:1;stroke:none;stroke-width:1.33333337;stroke-linecap:round;stroke-linejoin:round;stroke-miterlimit:4;stroke-dasharray:none;stroke-dashoffset:0;stroke-opacity:1;paint-order:fill markers stroke"
           d="M 281.03906 97.519531 L 281.03906 102.5 L 327.99609 102.5 L 327.99609 97.519531 L 281.03906 97.519531 z M 321.02148 98.589844 C 321.27173 98.589844 321.48531 98.656953 321.66406 98.791016 C 321.84579 98.925078 321.98382 99.11313 322.07617 99.357422 C 322.16853 99.598734 322.21484 99.878495 322.21484 100.19727 C 322.21484 100.51604 322.16853 100.79868 322.07617 101.04297 C 321.98382 101.28428 321.84579 101.47141 321.66406 101.60547 C 321.48531 101.73953 321.27173 101.80664 321.02148 101.80664 C 320.77123 101.80664 320.55478 101.73953 320.37305 101.60547 C 320.1943 101.47141 320.05915 101.28428 319.9668 101.04297 C 319.87444 100.79868 319.82812 100.51604 319.82812 100.19727 C 319.82812 99.878495 319.87444 99.598734 319.9668 99.357422 C 320.05915 99.11313 320.1943 98.925078 320.37305 98.791016 C 320.55478 98.656953 320.77123 98.589844 321.02148 98.589844 z M 317.73633 98.634766 L 319.02734 98.634766 C 319.09884 98.634766 319.15936 98.657411 319.20703 98.705078 C 319.2547 98.752745 319.27734 98.813266 319.27734 98.884766 C 319.27734 98.953286 319.2547 99.010927 319.20703 99.058594 C 319.15936 99.103281 319.09884 99.125 319.02734 99.125 L 317.91992 99.125 L 317.83398 99.773438 C 317.89059 99.740667 317.96243 99.714214 318.04883 99.693359 C 318.13522 99.672505 318.21746 99.662109 318.29492 99.662109 C 318.49155 99.662109 318.66828 99.708427 318.82617 99.800781 C 318.98705 99.890156 319.1118 100.01398 319.20117 100.17188 C 319.29353 100.32977 319.33984 100.50557 319.33984 100.69922 C 319.33984 100.89882 319.28313 101.08214 319.16992 101.25195 C 319.05671 101.42177 318.90644 101.55886 318.71875 101.66016 C 318.53106 101.75847 318.32881 101.80664 318.11133 101.80664 C 317.99514 101.80664 317.87513 101.78966 317.75 101.75391 C 317.62785 101.71816 317.52863 101.66803 317.45117 101.60547 C 317.41542 101.57568 317.38516 101.53409 317.36133 101.48047 C 317.33749 101.42684 317.32617 101.37579 317.32617 101.32812 C 317.32617 101.2745 317.34789 101.22726 317.39258 101.18555 C 317.44024 101.14086 317.50169 101.11914 317.57617 101.11914 C 317.6298 101.11914 317.69691 101.14652 317.77734 101.20312 C 317.90247 101.28058 318.01209 101.32031 318.10742 101.32031 C 318.22957 101.32031 318.34392 101.29098 318.45117 101.23438 C 318.55842 101.17777 318.64252 101.10119 318.70508 101.00586 C 318.77062 100.91053 318.80469 100.80945 318.80469 100.69922 C 318.80469 100.53834 318.7489 100.40598 318.63867 100.30469 C 318.52844 100.2034 318.39803 100.15234 318.24609 100.15234 C 318.17757 100.15234 318.11613 100.16181 318.0625 100.17969 C 318.00887 100.19756 317.94557 100.22402 317.87109 100.25977 C 317.81747 100.28658 317.77301 100.30644 317.74023 100.31836 C 317.71044 100.33028 317.67926 100.33594 317.64648 100.33594 C 317.5303 100.33594 317.44713 100.30475 317.39648 100.24219 C 317.34882 100.17962 317.32617 100.10593 317.32617 100.01953 C 317.32617 99.98974 317.3271 99.968948 317.33008 99.957031 L 317.46875 98.847656 C 317.48067 98.785094 317.50897 98.735995 317.55664 98.697266 C 317.60729 98.655557 317.66781 98.634766 317.73633 98.634766 z M 325.31641 98.634766 C 325.39089 98.634766 325.45419 98.661219 325.50781 98.714844 C 325.56144 98.76549 325.58789 98.828792 325.58789 98.90625 L 325.58789 101.23828 L 326.75391 101.23828 C 326.83136 101.23828 326.89662 101.26381 326.94727 101.31445 C 327.00089 101.36212 327.02734 101.42449 327.02734 101.50195 C 327.02734 101.57643 327.00089 101.64076 326.94727 101.69141 C 326.89662 101.73907 326.83136 101.76172 326.75391 101.76172 L 325.30273 101.76172 C 325.22528 101.76172 325.15909 101.73619 325.10547 101.68555 C 325.05482 101.63192 325.0293 101.56769 325.0293 101.49023 L 325.0293 98.90625 C 325.0293 98.828792 325.05575 98.76549 325.10938 98.714844 C 325.163 98.661219 325.23299 98.634766 325.31641 98.634766 z M 321.02148 99.125 C 320.83082 99.125 320.68054 99.216708 320.57031 99.398438 C 320.46306 99.580167 320.41016 99.845724 320.41016 100.19727 C 320.41016 100.54881 320.46306 100.81632 320.57031 100.99805 C 320.68054 101.17978 320.83082 101.26953 321.02148 101.26953 C 321.21215 101.26953 321.3615 101.17978 321.46875 100.99805 C 321.57898 100.81632 321.63281 100.54881 321.63281 100.19727 C 321.63281 99.845724 321.57898 99.580167 321.46875 99.398438 C 321.3615 99.216708 321.21215 99.125 321.02148 99.125 z M 323.72266 99.326172 C 323.97589 99.326172 324.17907 99.366828 324.33398 99.447266 C 324.4889 99.524724 324.56641 99.628682 324.56641 99.759766 C 324.56641 99.825307 324.54654 99.882948 324.50781 99.933594 C 324.46908 99.98126 324.41803 100.00586 324.35547 100.00586 C 324.3078 100.00586 324.27003 100.0002 324.24023 99.988281 C 324.21044 99.973385 324.18018 99.954448 324.15039 99.933594 C 324.12358 99.90976 324.09713 99.891849 324.07031 99.876953 C 324.04052 99.862057 323.99513 99.847854 323.93555 99.835938 C 323.87894 99.824021 323.83263 99.818359 323.79688 99.818359 C 323.57344 99.818359 323.39764 99.887323 323.26953 100.02734 C 323.14441 100.16439 323.08203 100.34492 323.08203 100.56836 C 323.08203 100.78286 323.14729 100.96247 323.27539 101.10547 C 323.40349 101.24549 323.56602 101.31445 323.76562 101.31445 C 323.9116 101.31445 324.0203 101.29747 324.0918 101.26172 C 324.10967 101.25278 324.13427 101.23765 324.16406 101.2168 C 324.19683 101.19296 324.22709 101.17598 324.25391 101.16406 C 324.28072 101.15215 324.31283 101.14453 324.35156 101.14453 C 324.42604 101.14453 324.48368 101.16913 324.52539 101.2168 C 324.57008 101.26446 324.59375 101.32591 324.59375 101.40039 C 324.59375 101.47189 324.55217 101.539 324.46875 101.60156 C 324.38533 101.66413 324.27376 101.71518 324.13672 101.75391 C 323.99968 101.78966 323.85414 101.80664 323.69922 101.80664 C 323.46982 101.80664 323.26757 101.75373 323.0918 101.64648 C 322.91901 101.53923 322.78479 101.39081 322.68945 101.20312 C 322.59412 101.01246 322.54688 100.80073 322.54688 100.56836 C 322.54688 100.32705 322.59505 100.11347 322.69336 99.925781 C 322.79465 99.738094 322.93453 99.592552 323.11328 99.488281 C 323.29203 99.381031 323.49624 99.326172 323.72266 99.326172 z "
           transform="matrix(0.2645833,0,0,0.2645833,-2.7384131,2.041387)"
           id="rect8150" />
        <g
           id="g8970"
           transform="matrix(0.45746529,0,0,0.45746529,58.111574,17.313208)">
          <text
             id="text8158"
             y="19.587166"
             x="43.238194"
             style="font-style:normal;font-variant:normal;font-weight:normal;font-stretch:normal;font-size:7.88783836px;line-height:1;font-family:Quicksand;-inkscape-font-specification:'Quicksand, Normal';font-variant-ligatures:normal;font-variant-position:normal;font-variant-caps:normal;font-variant-numeric:normal;font-variant-alternates:normal;font-feature-settings:normal;text-indent:0;text-align:center;text-decoration:none;text-decoration-line:none;text-decoration-style:solid;text-decoration-color:#000000;letter-spacing:0px;word-spacing:0px;text-transform:none;writing-mode:lr-tb;direction:ltr;text-orientation:mixed;dominant-baseline:auto;baseline-shift:baseline;text-anchor:middle;white-space:normal;shape-padding:0;opacity:1;vector-effect:none;fill:#555555;fill-opacity:1;stroke:none;stroke-width:0.89328665px;stroke-linecap:butt;stroke-linejoin:miter;stroke-miterlimit:4;stroke-dasharray:none;stroke-dashoffset:0;stroke-opacity:1"
             xml:space="preserve"><tspan
               style="font-style:normal;font-variant:normal;font-weight:normal;font-stretch:normal;font-family:Quicksand;-inkscape-font-specification:Quicksand;fill:#e7040f;stroke-width:0.89328665px"
               y="19.587166"
               x="43.238194"
               id="tspan8156"
               sodipodi:role="line">ezitan</tspan></text>
          <g
             id="g2860"
             transform="matrix(0.45539346,0,0,0.45539346,46.726024,8.7573418)">
            <text
               id="text2855"
               y="23.025011"
               x="17.826567"
               style="font-style:normal;font-variant:normal;font-weight:bold;font-stretch:normal;font-size:2.47650647px;line-height:1;font-family:Quicksand;-inkscape-font-specification:'Quicksand Bold';font-variant-ligatures:normal;font-variant-position:normal;font-variant-caps:normal;font-variant-numeric:normal;font-variant-alternates:normal;font-feature-settings:normal;text-indent:0;text-align:center;text-decoration:none;text-decoration-line:none;text-decoration-style:solid;text-decoration-color:#000000;letter-spacing:0px;word-spacing:0px;text-transform:none;writing-mode:lr-tb;direction:ltr;text-orientation:mixed;dominant-baseline:auto;baseline-shift:baseline;text-anchor:middle;white-space:normal;shape-padding:0;opacity:1;vector-effect:none;fill:#e7040f;fill-opacity:1;stroke:none;stroke-width:0.28046089px;stroke-linecap:butt;stroke-linejoin:miter;stroke-miterlimit:4;stroke-dasharray:none;stroke-dashoffset:0;stroke-opacity:1"
               xml:space="preserve"><tspan
                 style="font-style:normal;font-variant:normal;font-weight:bold;font-stretch:normal;font-family:Quicksand;-inkscape-font-specification:'Quicksand Bold';fill:#e7040f;fill-opacity:1;stroke-width:0.28046089px"
                 y="23.025011"
                 x="17.826567"
                 id="tspan2853"
                 sodipodi:role="line">R</tspan></text>
            <circle
               r="1.6185951"
               cy="22.159472"
               cx="17.875477"
               id="path2851"
               style="opacity:1;vector-effect:none;fill:none;fill-opacity:1;stroke:#e7040f;stroke-width:0.35277775;stroke-linecap:round;stroke-linejoin:round;stroke-miterlimit:4;stroke-dasharray:none;stroke-dashoffset:0;stroke-opacity:1;paint-order:fill markers stroke" />
          </g>
        </g>
        <path
           style="opacity:1;vector-effect:none;fill:#0079f5;fill-opacity:1;stroke:none;stroke-width:0.35277775;stroke-linecap:round;stroke-linejoin:miter;stroke-miterlimit:4;stroke-dasharray:none;stroke-dashoffset:0;stroke-opacity:1"
           d="m 74.159455,23.034643 0.840439,-1.096223 h 0.310594 l 0.200975,-0.438488 0.548111,-0.347138 -0.01828,1.096223 0.292327,0.785626 -1.205846,0.03654 -0.127892,-0.164434 -0.529841,0.219245 z"
           id="path8972"
           inkscape:connector-curvature="0" />
        <path
           style="opacity:1;vector-effect:none;fill:#0079f5;fill-opacity:1;stroke:none;stroke-width:0.35277775;stroke-linecap:round;stroke-linejoin:miter;stroke-miterlimit:4;stroke-dasharray:none;stroke-dashoffset:0;stroke-opacity:1"
           d="m 76.333632,21.965826 0.630327,-0.776491 0.328867,-0.03654 0.09135,-0.328866 0.411047,-0.255786 0.02744,0.237514 0.365407,0.264921 0.06395,0.338001 0.411084,0.484165 -0.01827,0.420219 0.301461,0.264921 -0.07308,0.155298 -0.429354,-0.146163 -0.319731,0.200974 -0.438489,-0.310597 -0.118758,-0.347137 -0.557246,-0.200974 z"
           id="path8974"
           inkscape:connector-curvature="0"
           sodipodi:nodetypes="ccccc" />
        <path
           style="opacity:1;vector-effect:none;fill:#0079f5;fill-opacity:1;stroke:none;stroke-width:0.35277775;stroke-linecap:round;stroke-linejoin:miter;stroke-miterlimit:4;stroke-dasharray:none;stroke-dashoffset:0;stroke-opacity:1"
           d="m 78.991969,22.038908 0.164433,-0.06395 0.191842,-0.127892 0.484163,-0.02741 0.602922,-0.4933 0.06395,0.356272 0.347136,0.438489 0.05481,0.639463 -0.621191,0.146163 h -0.283191 l -0.02741,-0.200974 -0.849572,-0.447624 z"
           id="path8976"
           inkscape:connector-curvature="0" />
      </g>
      <path
         inkscape:connector-curvature="0"
         id="path9341"
         d="m 72.651918,272.06955 v 19.73192"
         style="opacity:1;vector-effect:none;fill:none;fill-opacity:1;stroke:#e7040f;stroke-width:0.7055555;stroke-linecap:round;stroke-linejoin:miter;stroke-miterlimit:4;stroke-dasharray:none;stroke-dashoffset:0;stroke-opacity:1;marker-end:url(#Arrow2Mend)" />
    </g>
    <g
       id="g2411"
       style="fill:#e7040f"
       ns1:jacobian_sqrt="0.539545"
       inkscapeversion="0.92.4"
       ns1:alignment="middle center"
       ns1:scale="1.52941708383"
       ns1:preamble="/home/fdf/.config/inkscape/extensions/textext/default_packages.tex"
       ns1:text="5 N"
       ns1:pdfconverter="pdf2svg"
       ns1:texconverter="pdflatex"
       ns1:version="0.9.0"
       transform="matrix(0.88545023,0,0,0.88545023,-51.26356,168.99941)">
      <g
         style="fill:#e7040f"
         id="surface1">
        <g
           id="g2404"
           style="fill:#e7040f;fill-opacity:1">
          <path
             id="path2402"
             transform="translate(148.712,134.765)"
             d="m 4.46875,-2 c 0,-1.1875 -0.8125,-2.1875 -1.890625,-2.1875 -0.46875,0 -0.90625,0.15625 -1.265625,0.515625 V -5.625 c 0.203125,0.0625 0.53125,0.125 0.84375,0.125 1.234375,0 1.9375,-0.90625 1.9375,-1.03125 0,-0.0625 -0.03125,-0.109375 -0.109375,-0.109375 0,0 -0.03125,0 -0.078125,0.03125 C 3.703125,-6.515625 3.21875,-6.3125 2.546875,-6.3125 2.15625,-6.3125 1.6875,-6.390625 1.21875,-6.59375 1.140625,-6.625 1.125,-6.625 1.109375,-6.625 1,-6.625 1,-6.546875 1,-6.390625 V -3.4375 c 0,0.171875 0,0.25 0.140625,0.25 0.078125,0 0.09375,-0.015625 0.140625,-0.078125 C 1.390625,-3.421875 1.75,-3.96875 2.5625,-3.96875 c 0.515625,0 0.765625,0.453125 0.84375,0.640625 0.15625,0.375 0.1875,0.75 0.1875,1.25 0,0.359375 0,0.953125 -0.25,1.375 C 3.109375,-0.3125 2.734375,-0.0625 2.28125,-0.0625 c -0.71875,0 -1.296875,-0.53125 -1.46875,-1.109375 0.03125,0 0.0625,0.015625 0.171875,0.015625 0.328125,0 0.5,-0.25 0.5,-0.484375 0,-0.25 -0.171875,-0.5 -0.5,-0.5 C 0.84375,-2.140625 0.5,-2.0625 0.5,-1.609375 0.5,-0.75 1.1875,0.21875 2.296875,0.21875 3.453125,0.21875 4.46875,-0.734375 4.46875,-2 Z m 0,0"
             style="fill:#e7040f;stroke:none;stroke-width:0"
             inkscape:connector-curvature="0" />
        </g>
        <g
           id="g2408"
           style="fill:#e7040f;fill-opacity:1">
          <path
             id="path2406"
             transform="translate(157.01085,134.765)"
             d="M 2.3125,-6.671875 C 2.21875,-6.796875 2.21875,-6.8125 2.03125,-6.8125 H 0.328125 V -6.5 H 0.625 c 0.140625,0 0.34375,0.015625 0.484375,0.015625 0.234375,0.03125 0.25,0.046875 0.25,0.234375 v 5.203125 c 0,0.265625 0,0.734375 -1.03125,0.734375 V 0 C 0.671875,-0.015625 1.171875,-0.03125 1.5,-0.03125 c 0.328125,0 0.8125,0.015625 1.15625,0.03125 v -0.3125 c -1.015625,0 -1.015625,-0.46875 -1.015625,-0.734375 v -5.1875 c 0.046875,0.046875 0.046875,0.0625 0.09375,0.125 L 5.796875,-0.125 C 5.890625,-0.015625 5.90625,0 5.96875,0 6.109375,0 6.109375,-0.0625 6.109375,-0.265625 v -5.5 c 0,-0.265625 0,-0.734375 1.03125,-0.734375 v -0.3125 c -0.359375,0.015625 -0.84375,0.03125 -1.171875,0.03125 -0.328125,0 -0.8125,-0.015625 -1.15625,-0.03125 V -6.5 c 1.015625,0 1.015625,0.46875 1.015625,0.734375 V -1.5 Z m 0,0"
             style="fill:#e7040f;stroke:none;stroke-width:0"
             inkscape:connector-curvature="0" />
        </g>
      </g>
    </g>
  </g>
</svg>
