<?xml version="1.0" encoding="UTF-8" standalone="no"?>
<svg
   xmlns:dc="http://purl.org/dc/elements/1.1/"
   xmlns:cc="http://creativecommons.org/ns#"
   xmlns:rdf="http://www.w3.org/1999/02/22-rdf-syntax-ns#"
   xmlns:svg="http://www.w3.org/2000/svg"
   xmlns="http://www.w3.org/2000/svg"
   xmlns:sodipodi="http://sodipodi.sourceforge.net/DTD/sodipodi-0.dtd"
   xmlns:inkscape="http://www.inkscape.org/namespaces/inkscape"
   inkscape:export-ydpi="95.737373"
   inkscape:export-xdpi="95.737373"
   inkscape:export-filename="D:\Hoe Zit Het\hoezithet\content\lessen\wiskunde\meetkunde_1\basisbegrippen\img\collineaire_punten.png"
   sodipodi:docname="collineaire_punten.svg"
   inkscape:version="1.0 (4035a4fb49, 2020-05-01)"
   id="svg4623"
   version="1.1"
   viewBox="0 0 1925.267 393.0795"
   height="393.0795"
   width="1925.267">
  <defs
     id="defs4617">
    <clipPath
       id="clipPath2190"
       clipPathUnits="userSpaceOnUse">
      <path
         d="m -30.859375,830.3418 v 189.4531 h 24.5058594 c -0.2671739,-1.1626 -0.5554574,-2.3212 -0.8867188,-3.4707 -0.3062331,-1.0627 -1.0221469,-1.9607 -1.5332031,-2.9414 -7.1479285,-13.71733 8.20631662,-20.71403 14.2246094,-6.4648 3.0107865,7.1284 3.0017058,6.6514 4.1425781,12.8769 h 1.482422 c 1.897263,-7.7804 3.475453,-15.6523 4.550781,-23.58787 1.004517,-7.41297 -1.743065,-15.71705 1.652344,-22.38281 0.04208,-0.0826 0.09284,-0.15718 0.136719,-0.23828 0.01239,-3.8184 0.01612,-7.63836 -0.0078,-11.45703 2.29056,1.7543 5.119244,3.10445 7.777344,4.58203 2.664382,-1.51813 5.4826,-2.90764 7.847656,-4.67774 0.02519,4.16936 0.02851,8.34531 0.03125,12.52149 0.407102,1.69874 0.341745,4.87879 -0.01563,8.83398 -0.04102,12.14034 -0.18328,24.28893 -0.449219,36.40623 h 10.316407 c 0.835791,-2.4945 1.778406,-5.5108 3.015625,-9.5683 1.561457,-5.1209 0.309935,-11.52429 3.765625,-15.61332 0.555006,-0.65672 1.089567,-1.2639 1.613281,-1.84766 -0.173703,-0.48964 -0.03814,-0.73664 0.560547,-0.62304 0.0025,4.7e-4 0.0053,0.001 0.0078,0.002 17.723976,-19.2834 17.274781,3.69961 19.890625,14.89462 0.530038,4.2554 1.173264,8.4983 1.683594,12.7558 h 4.287109 c -1.127297,-0.5309 -2.483501,-1.0425 -4.11914,-1.5293 1.911033,-8.4692 4.252296,-16.8531 5.732422,-25.40823 0.831422,-4.80556 -1.548643,-10.54494 1.1875,-14.58203 0.361666,-0.53363 0.702211,-1.01014 1.048828,-1.50195 -0.09775,-0.92189 -0.185096,-1.80255 -0.294922,-2.77539 -0.01722,-0.15255 -0.481487,-0.36086 -0.333984,-0.31836 0.794871,0.22928 1.646781,0.38255 2.517578,0.51172 15.34205,-19.99641 14.204577,5.2421 14.814453,13.95703 0.589627,8.42559 0.948209,16.86601 1.421875,25.29891 -0.002,2.1157 0.01884,4.2316 0.03906,6.3476 h 0.33398 c 0.99416,-4.6092 1.97968,-9.5023 3.26367,-15.4023 0.78923,-7.23859 1.65697,-14.47017 2.36719,-21.71687 0.52778,-5.38523 -2.34187,-12.21585 1.3457,-16.17578 3.59034,-3.85553 10.69538,-3.8378 15.66602,-2.0918 2.87826,1.01103 2.31601,5.67304 2.99805,8.64649 2.80394,12.22431 3.65959,23.85958 5,36.31256 0.0497,0.9815 0.11824,1.8521 0.19336,2.6738 0.39484,-0.7407 0.77348,-1.4881 1.12695,-2.2461 7.11652,-15.26015 6.76796,-19.98631 9.54492,-36.44143 -0.43406,-6.66006 -1.54874,-10.48387 -0.0488,-13.25977 -0.16608,-0.1611 -0.27734,-0.28166 -0.10547,-0.26758 0.0871,0.007 0.15609,0.0107 0.24219,0.0176 1.52612,-2.49475 5.34974,-4.14703 14.04688,-6.33984 0.0987,-0.0249 0.1898,-0.0344 0.27539,-0.0312 1.28385,0.0473 1.15714,3.09464 1.49218,4.58398 3.12188,13.87772 4.54895,28.04944 5.59961,42.24414 1.50785,-6.92153 2.95744,-13.80558 4.27735,-19.96484 3.24114,-15.12458 18.49474,-11.73402 15.2539,3.39062 -2.36626,11.04312 -5.09572,24.23642 -7.93554,36.06832 H 1283.0234 V 830.3418 Z m 94.423828,177.6211 c -0.517113,1.1787 -1.057743,2.3542 -1.544922,3.5176 3.988325,1.2784 3.607389,-0.5551 1.544922,-3.5176 z m 84.722657,3.5762 c -1.17699,2.8372 -2.49017,5.6306 -3.91211,8.2558 h 4.48047 c -0.18593,-2.7229 -0.39947,-5.7981 -0.56836,-8.2558 z"
         style="fill:#ff0000;fill-opacity:1;fill-rule:nonzero;stroke:none"
         id="path2192" />
    </clipPath>
  </defs>
  <sodipodi:namedview
     inkscape:document-rotation="0"
     inkscape:snap-page="true"
     borderlayer="false"
     showborder="true"
     inkscape:showpageshadow="true"
     inkscape:snap-global="true"
     inkscape:pagecheckerboard="false"
     inkscape:guide-bbox="true"
     showguides="true"
     inkscape:window-maximized="1"
     inkscape:window-y="25"
     inkscape:window-x="1600"
     inkscape:window-height="1055"
     inkscape:window-width="1920"
     inkscape:snap-smooth-nodes="true"
     inkscape:object-paths="true"
     units="px"
     showgrid="false"
     inkscape:current-layer="layer4"
     inkscape:document-units="px"
     inkscape:cy="-1.0567833"
     inkscape:cx="1005.7278"
     inkscape:zoom="0.64"
     inkscape:pageshadow="2"
     inkscape:pageopacity="1"
     borderopacity="1.0"
     bordercolor="#666666"
     pagecolor="#f4f4f4"
     id="base">
    <sodipodi:guide
       inkscape:color="rgb(0,0,255)"
       inkscape:label=""
       inkscape:locked="false"
       id="guide818"
       orientation="1,0"
       position="1822.6335,2.6334982" />
    <sodipodi:guide
       inkscape:color="rgb(0,0,255)"
       inkscape:label=""
       inkscape:locked="false"
       id="guide820"
       orientation="1,0"
       position="102.6335,2.6334982" />
    <sodipodi:guide
       inkscape:color="rgb(0,0,255)"
       inkscape:label=""
       inkscape:locked="false"
       id="guide822"
       orientation="0,1"
       position="2.6335001,102.6335" />
    <sodipodi:guide
       inkscape:color="rgb(0,0,255)"
       inkscape:label=""
       inkscape:locked="false"
       id="guide922"
       orientation="0,1"
       position="2.6335001,982.63351" />
  </sodipodi:namedview>
  <metadata
     id="metadata4620">
    <rdf:RDF>
      <cc:Work
         rdf:about="">
        <dc:format>image/svg+xml</dc:format>
        <dc:type
           rdf:resource="http://purl.org/dc/dcmitype/StillImage" />
        <dc:title></dc:title>
      </cc:Work>
    </rdf:RDF>
  </metadata>
  <g
     sodipodi:insensitive="true"
     style="display:inline"
     transform="translate(7.8135204,-700.13655)"
     id="layer1"
     inkscape:groupmode="layer"
     inkscape:label="watermark">
    <g
       style="stroke-width:1.11578"
       transform="matrix(0.89623584,0,0,0.89623584,-1.2321384,28.09939)"
       id="g5353">
      <text
         id="text2653"
         y="218.67326"
         x="44.292774"
         style="font-style:normal;font-variant:normal;font-weight:normal;font-stretch:normal;font-size:28.0156px;line-height:1.3;font-family:Quicksand;-inkscape-font-specification:'Quicksand, Normal';font-variant-ligatures:normal;font-variant-position:normal;font-variant-caps:normal;font-variant-numeric:normal;font-variant-alternates:normal;font-feature-settings:normal;text-indent:0;text-align:center;text-decoration:none;text-decoration-line:none;text-decoration-style:solid;text-decoration-color:#000000;letter-spacing:0px;word-spacing:0px;text-transform:none;writing-mode:lr-tb;direction:ltr;text-orientation:mixed;dominant-baseline:auto;baseline-shift:baseline;text-anchor:middle;white-space:normal;shape-padding:0;opacity:1;vector-effect:none;fill:#555555;fill-opacity:1;stroke:none;stroke-width:3.17272px;stroke-linecap:butt;stroke-linejoin:miter;stroke-miterlimit:4;stroke-dasharray:none;stroke-dashoffset:0;stroke-opacity:1"
         xml:space="preserve" />
      <text
         id="text7806"
         y="1144.005"
         x="2102.0203"
         style="font-style:normal;font-variant:normal;font-weight:normal;font-stretch:normal;font-size:47.6065px;line-height:1.25;font-family:Quicksand;-inkscape-font-specification:Quicksand;text-align:end;letter-spacing:0px;word-spacing:0px;text-anchor:end;fill:#d3d3d3;fill-opacity:1;stroke:none;stroke-width:0.295216"
         xml:space="preserve"><tspan
           style="font-size:47.6065px;text-align:end;text-anchor:end;fill:#d3d3d3;stroke-width:0.295216"
           y="1144.005"
           x="2102.0203"
           id="tspan7804"
           sodipodi:role="line">Meer op: https://hoezithet.nu</tspan></text>
    </g>
  </g>
  <g
     style="display:inline"
     transform="translate(2.6335001,-689.554)"
     inkscape:label="uitleg"
     id="layer4"
     inkscape:groupmode="layer">
    <path
       clip-path="url(#clipPath2190)"
       style="font-variation-settings:normal;opacity:1;vector-effect:none;fill:none;fill-opacity:1;stroke:#d3d3d3;stroke-width:5.267;stroke-linecap:round;stroke-linejoin:miter;stroke-miterlimit:4;stroke-dasharray:10.534, 31.602;stroke-dashoffset:0;stroke-opacity:1;stop-color:#000000;stop-opacity:1"
       d="M -28.225468,1017.1613 1283.0239,831.92337"
       id="path2071-8" />
    <text
       transform="matrix(0.78639772,0,0,0.78639772,44.545572,656.92788)"
       id="text2329"
       y="110.9375"
       x="102.6335"
       style="font-style:normal;font-variant:normal;font-weight:normal;font-stretch:normal;font-size:40px;line-height:1.25;font-family:Quicksand;-inkscape-font-specification:Quicksand;font-variant-ligatures:normal;font-variant-position:normal;font-variant-caps:normal;font-variant-numeric:normal;font-variant-alternates:normal;font-variant-east-asian:normal;font-feature-settings:normal;font-variation-settings:normal;text-indent:0;text-align:start;text-decoration:none;text-decoration-line:none;text-decoration-style:solid;text-decoration-color:#000000;letter-spacing:normal;word-spacing:normal;text-transform:none;writing-mode:lr-tb;direction:ltr;text-orientation:mixed;dominant-baseline:auto;baseline-shift:baseline;text-anchor:start;white-space:normal;shape-padding:0;shape-margin:0;inline-size:0;opacity:1;vector-effect:none;fill:#000000;fill-opacity:1;stroke-width:1;stroke-linecap:butt;stroke-linejoin:miter;stroke-miterlimit:4;stroke-dasharray:none;stroke-dashoffset:0;stroke-opacity:1;stop-color:#000000;stop-opacity:1"
       xml:space="preserve"><tspan
         y="110.9375"
         x="102.6335"
         id="tspan2327"
         sodipodi:role="line">Wanneer je de rechte doortrekt,</tspan><tspan
         id="tspan2331"
         y="160.9375"
         x="102.6335"
         sodipodi:role="line">dan zie je dat dit punt op de rechte ligt.</tspan><tspan
         id="tspan2333"
         y="210.9375"
         x="102.6335"
         sodipodi:role="line">Een rechte gaat immers <tspan
   id="tspan2337"
   style="font-weight:bold">oneindig</tspan> door</tspan><tspan
         id="tspan2335"
         y="260.9375"
         x="102.6335"
         sodipodi:role="line">in één richting. </tspan></text>
  </g>
  <g
     transform="translate(7.8135204,-700.13655)"
     inkscape:label="Layer 1"
     id="layer2"
     inkscape:groupmode="layer">
    <path
       id="path2071"
       d="M 414.13906,964.4326 1725.3885,779.19462"
       style="font-variation-settings:normal;opacity:1;vector-effect:none;fill:none;fill-opacity:1;stroke:#d3d3d3;stroke-width:5.2669;stroke-linecap:round;stroke-linejoin:miter;stroke-miterlimit:4;stroke-dasharray:none;stroke-dashoffset:0;stroke-opacity:1;stop-color:#000000;stop-opacity:1" />
    <circle
       id="path1426"
       style="fill:#357edd;stroke:none;stroke-width:6.57449"
       cx="1623.3348"
       cy="794.5332"
       r="9.8617353" />
    <circle
       r="9.8617353"
       cy="885.6272"
       cx="964.88208"
       style="fill:#357edd;stroke:none;stroke-width:6.57449"
       id="path1426-0" />
    <circle
       r="9.8617353"
       cy="911.03888"
       cx="793.62964"
       style="fill:#357edd;stroke:none;stroke-width:6.57449"
       id="path1426-5" />
    <circle
       r="9.8617353"
       cy="960.75732"
       cx="1632.2141"
       style="fill:#357edd;stroke:none;stroke-width:6.57449"
       id="path1426-07" />
    <circle
       r="9.8617353"
       cy="991.14075"
       cx="223.52481"
       style="fill:#357edd;stroke:none;stroke-width:6.57449"
       id="path1426-6" />
    <text
       transform="translate(-148.81109,172.4437)"
       id="text2114"
       y="804.33398"
       x="382.2796"
       style="font-style:normal;font-variant:normal;font-weight:normal;font-stretch:normal;font-size:40px;line-height:1.25;font-family:Quicksand;-inkscape-font-specification:Quicksand;font-variant-ligatures:normal;font-variant-position:normal;font-variant-caps:normal;font-variant-numeric:normal;font-variant-alternates:normal;font-variant-east-asian:normal;font-feature-settings:normal;font-variation-settings:normal;text-indent:0;text-align:start;text-decoration:none;text-decoration-line:none;text-decoration-style:solid;text-decoration-color:#000000;letter-spacing:normal;word-spacing:normal;text-transform:none;writing-mode:lr-tb;direction:ltr;text-orientation:mixed;dominant-baseline:auto;baseline-shift:baseline;text-anchor:start;white-space:normal;shape-padding:0;shape-margin:0;inline-size:0;opacity:1;vector-effect:none;fill:#000000;fill-opacity:1;stroke-width:1;stroke-linecap:butt;stroke-linejoin:miter;stroke-miterlimit:4;stroke-dasharray:none;stroke-dashoffset:0;stroke-opacity:1;stop-color:#000000;stop-opacity:1"
       xml:space="preserve"><tspan
         y="804.33398"
         x="382.2796"
         id="tspan2112"
         sodipodi:role="line">A</tspan></text>
    <text
       transform="translate(300.40699,47.500386)"
       id="text2118"
       y="848.52814"
       x="500.49902"
       style="font-style:normal;font-variant:normal;font-weight:normal;font-stretch:normal;font-size:40px;line-height:1.25;font-family:Quicksand;-inkscape-font-specification:Quicksand;font-variant-ligatures:normal;font-variant-position:normal;font-variant-caps:normal;font-variant-numeric:normal;font-variant-alternates:normal;font-variant-east-asian:normal;font-feature-settings:normal;font-variation-settings:normal;text-indent:0;text-align:start;text-decoration:none;text-decoration-line:none;text-decoration-style:solid;text-decoration-color:#000000;letter-spacing:normal;word-spacing:normal;text-transform:none;writing-mode:lr-tb;direction:ltr;text-orientation:mixed;dominant-baseline:auto;baseline-shift:baseline;text-anchor:start;white-space:normal;shape-padding:0;shape-margin:0;inline-size:0;opacity:1;vector-effect:none;fill:#000000;fill-opacity:1;stroke-width:1;stroke-linecap:butt;stroke-linejoin:miter;stroke-miterlimit:4;stroke-dasharray:none;stroke-dashoffset:0;stroke-opacity:1;stop-color:#000000;stop-opacity:1"
       xml:space="preserve"><tspan
         y="848.52814"
         x="500.49902"
         id="tspan2116"
         sodipodi:role="line">B</tspan></text>
    <text
       transform="translate(388.14813,101.1806)"
       id="text2122"
       y="771.18835"
       x="585.57281"
       style="font-style:normal;font-variant:normal;font-weight:normal;font-stretch:normal;font-size:40px;line-height:1.25;font-family:Quicksand;-inkscape-font-specification:Quicksand;font-variant-ligatures:normal;font-variant-position:normal;font-variant-caps:normal;font-variant-numeric:normal;font-variant-alternates:normal;font-variant-east-asian:normal;font-feature-settings:normal;font-variation-settings:normal;text-indent:0;text-align:start;text-decoration:none;text-decoration-line:none;text-decoration-style:solid;text-decoration-color:#000000;letter-spacing:normal;word-spacing:normal;text-transform:none;writing-mode:lr-tb;direction:ltr;text-orientation:mixed;dominant-baseline:auto;baseline-shift:baseline;text-anchor:start;white-space:normal;shape-padding:0;shape-margin:0;inline-size:0;opacity:1;vector-effect:none;fill:#000000;fill-opacity:1;stroke-width:1;stroke-linecap:butt;stroke-linejoin:miter;stroke-miterlimit:4;stroke-dasharray:none;stroke-dashoffset:0;stroke-opacity:1;stop-color:#000000;stop-opacity:1"
       xml:space="preserve"><tspan
         y="771.18835"
         x="585.57281"
         id="tspan2120"
         sodipodi:role="line">C</tspan></text>
    <text
       transform="translate(898.59083,-4.8854138)"
       id="text2126"
       y="783.34174"
       x="731.41357"
       style="font-style:normal;font-variant:normal;font-weight:normal;font-stretch:normal;font-size:40px;line-height:1.25;font-family:Quicksand;-inkscape-font-specification:Quicksand;font-variant-ligatures:normal;font-variant-position:normal;font-variant-caps:normal;font-variant-numeric:normal;font-variant-alternates:normal;font-variant-east-asian:normal;font-feature-settings:normal;font-variation-settings:normal;text-indent:0;text-align:start;text-decoration:none;text-decoration-line:none;text-decoration-style:solid;text-decoration-color:#000000;letter-spacing:normal;word-spacing:normal;text-transform:none;writing-mode:lr-tb;direction:ltr;text-orientation:mixed;dominant-baseline:auto;baseline-shift:baseline;text-anchor:start;white-space:normal;shape-padding:0;shape-margin:0;inline-size:0;opacity:1;vector-effect:none;fill:#000000;fill-opacity:1;stroke-width:1;stroke-linecap:butt;stroke-linejoin:miter;stroke-miterlimit:4;stroke-dasharray:none;stroke-dashoffset:0;stroke-opacity:1;stop-color:#000000;stop-opacity:1"
       xml:space="preserve"><tspan
         y="783.34174"
         x="731.41357"
         id="tspan2124"
         sodipodi:role="line">D</tspan></text>
    <text
       transform="translate(792.52482,152.0039)"
       id="text2130"
       y="796.59998"
       x="847.42328"
       style="font-style:normal;font-variant:normal;font-weight:normal;font-stretch:normal;font-size:40px;line-height:1.25;font-family:Quicksand;-inkscape-font-specification:Quicksand;font-variant-ligatures:normal;font-variant-position:normal;font-variant-caps:normal;font-variant-numeric:normal;font-variant-alternates:normal;font-variant-east-asian:normal;font-feature-settings:normal;font-variation-settings:normal;text-indent:0;text-align:start;text-decoration:none;text-decoration-line:none;text-decoration-style:solid;text-decoration-color:#000000;letter-spacing:normal;word-spacing:normal;text-transform:none;writing-mode:lr-tb;direction:ltr;text-orientation:mixed;dominant-baseline:auto;baseline-shift:baseline;text-anchor:start;white-space:normal;shape-padding:0;shape-margin:0;inline-size:0;opacity:1;vector-effect:none;fill:#000000;fill-opacity:1;stroke-width:1;stroke-linecap:butt;stroke-linejoin:miter;stroke-miterlimit:4;stroke-dasharray:none;stroke-dashoffset:0;stroke-opacity:1;stop-color:#000000;stop-opacity:1"
       xml:space="preserve"><tspan
         y="796.59998"
         x="847.42328"
         id="tspan2128"
         sodipodi:role="line">E</tspan></text>
  </g>
  <path
     d="m 184.97171,302.88617 c -0.42778,4.89759 -3.83628,7.82693 9.7837,-5.3701 0.59447,-0.576 -0.15008,-1.64958 -0.17796,-2.47686 -0.0591,-1.75308 0.0307,-2.92474 0.11511,-4.64469 0.0753,-0.25357 0.45268,-0.89668 0.2258,-0.76071 -3.58909,2.15101 -7.45242,4.02073 -10.48167,6.90726 -0.87724,0.83591 -0.29734,2.40766 -0.53977,3.59489 -0.98575,4.82736 -2.37269,9.20286 -4.16687,13.77054 -0.44448,0.6679 -2.05401,2.3562 -1.33344,2.0035 3.29935,-1.6147 6.49558,-3.5374 9.3045,-5.90448 0.45396,-0.38255 -0.15715,-1.17771 -0.19738,-1.77001 -0.1819,-2.67819 -0.0874,-5.31712 0.0877,-7.99039 -0.051,-0.55677 0.11019,-2.08245 -0.89703,-2.28805 -0.58467,-0.11935 -1.23921,0.0214 -1.76392,0.30557 -4.34936,2.35562 -8.50029,5.06062 -12.7663,7.56403 -1.65402,0.97062 5.85956,-1.28805 4.93014,-2.96556 -0.93108,-1.68049 -3.48201,1.62464 -5.22302,2.43696 -6.98592,2.57437 -13.7251,3.76309 -20.35352,-0.52974 -3.27698,-2.12231 -4.36254,-3.93655 -6.74456,-6.89098 -2.02375,-2.71027 -3.26972,-5.82935 -4.71125,-8.84871 -0.19133,-0.40075 -0.22643,-1.334 -0.63875,-1.16911 -11.22028,4.48696 -10.27456,2.00072 -10.98699,8.06115 -0.54894,2.38108 -1.04567,5.16802 -2.23176,7.33098 -1.65167,3.01202 -4.2309,5.54694 -6.84241,7.70414 -1.33334,1.1014 -5.85013,3.5762 -4.2073,3.0359 1.99034,-0.6546 3.52772,-2.2617 5.29158,-3.3925 -1.03152,0.2969 -2.03532,0.7169 -3.09456,0.8906 -0.55959,0.092 -1.17195,0.107 -1.69793,-0.1049 -0.16699,-0.067 0.009,-0.4053 0.14863,-0.5192 0.61208,-0.50049 1.36149,-0.80626 2.01558,-1.25043 6.96347,-4.72872 -1.35683,0.60551 5.5955,-3.78401 2.63472,1.01407 1.67542,-2.36696 0.82713,-2.41016 -1.07323,-0.0546 -1.99841,0.79177 -2.98547,1.21666 -2.0056,0.86333 -3.95296,1.86568 -5.99167,2.64763 -11.20739,4.29861 -13.299,4.53551 -25.577613,7.95571 -11.537654,2.6038 -18.133656,4.3534 -29.69444,5.9941 -2.420737,0.3435 -12.695967,2.2243 -16.614443,0.1446 -0.545176,-0.2894 -0.316854,-1.4378 0.146254,-1.8458 1.436799,-1.2659 3.368164,-1.8228 5.052245,-2.7341 -0.499394,0.4932 -2.169818,1.6834 -1.498182,1.4796 2.52773,-0.7672 4.821942,-2.159 7.240062,-3.2223 2.777163,-1.2213 11.915905,-4.5828 10.156174,-7.91528 -1.521158,-2.88068 -6.310257,1.62218 -9.474795,2.39543 -4.540687,1.10945 -9.093577,2.16845 -13.640366,3.25265 -14.309702,3.1382 -28.529995,6.7493 -42.894491,9.6401 -2.6820741,0.5397 -5.37397,1.0514 -8.0882509,1.3942 -1.0460421,0.1321 -2.2634661,-0.5232 -3.1629451,0.027 -2.298759,1.4058 -3.937394,3.6796 -5.90609,5.5194 7.479622,-2.5126 15.1206984,-4.5498 22.7869616,-6.4075 1.3877155,-0.3363 2.7822473,-0.6488 4.1870306,-0.9046 0.2390811,-0.043 0.542818,0.1658 0.7289714,0.01 2.3025674,-1.9322 4.3947784,-4.1021 6.5921674,-6.1531 -8.7695703,2.6405 -17.6997221,4.7032 -26.643862,6.6528 -6.55771,1.4293 -4.128131,0.9932 -9.546576,1.7757 -0.33923,-0.139 -1.278768,-0.1596 -1.01769,-0.417 0.528457,-0.521 1.453237,-0.3511 2.122364,-0.672 1.366879,-0.6553 3.86097,-3.7554 3.956239,-2.2425 0.09844,1.5632 -5.497,2.4404 -3.935811,2.5669 1.786584,0.1448 3.201395,-1.6162 4.760797,-2.5001 4.16167,-2.3586 8.2660766,-4.8169 12.3991147,-7.2254 0.2674132,-0.3629 1.0892447,-0.741 0.8022394,-1.0886 -1.6750913,-2.0284 -4.901393,-0.1541 -6.390494,0.3654 -3.2313721,1.1272 -6.3994541,2.4099 -9.5133491,3.826 -3.389212,2.0568 -7.127701,3.6256 -10.167637,6.1704 -0.464595,0.3889 0.806444,0.9735 1.371025,1.1934 0.588462,0.2292 3.085554,-0.6426 3.434154,-0.087 0.09163,0.1462 -0.148991,0.3112 -0.223486,0.4667 -0.665463,1.4329 -0.776066,1.7637 -1.682059,3.2341 -0.36611,0.5942 -0.902776,1.0915 -1.17056,1.736 -0.10471,0.252 -0.135845,0.9244 0.112332,0.8109 11.397902,-5.2126 10.150116,-4.6607 17.1820991,-10.1429 1.3349885,3.6739 8.7563194,-11.04199 10.6839666,-7.2036 0.9409603,1.8736 -4.036725,1.9734 -4.9754325,3.8482 -0.4172328,0.8333 1.7322649,0.9472 2.1596849,1.7754 1.4587264,2.8262 1.1182474,7.6237 1.1696926,10.4655 -0.1830617,1.7699 -0.2920603,3.5491 -0.5491851,5.3098 -0.866384,5.9327 -4.2702152,8.1104 10.2087594,-2.522 0.975231,-0.7161 0.838271,-2.274 1.363782,-3.3638 1.505167,-3.1216 3.338413,-5.9945 5.126405,-8.9553 1.010165,-1.0029 4.324039,-3.6029 3.030497,-3.0088 -2.468841,1.134 -5.39614,2.2828 -6.671961,4.6814 -0.601298,1.1305 2.024796,1.6228 2.761916,2.6698 3.483109,4.9473 5.327393,11.6126 7.151499,17.3112 0.235444,0.8548 -0.118589,2.8892 0.706333,2.5643 3.720133,-1.4653 7.455539,-3.5973 9.916467,-6.7485 0.924689,-1.1841 -0.845002,-2.8835 -1.268923,-4.3248 -1.644696,-5.5919 -3.309987,-11.1622 -5.152292,-16.6923 -0.54207,-0.9114 -0.78013,-2.095 -1.626211,-2.7343 -0.58477,-0.4418 -1.589339,-0.5667 -2.19351,-0.1517 -4.238132,2.9104 -8.430252,6.0213 -11.890575,9.8238 -1.375229,1.5112 -1.5115609,3.7969 -2.2413287,5.7054 -2.9718653,7.7721 -0.9576285,3.229 -3.9252946,9.4983 -0.3881929,0.4291 -1.6773356,1.5553 -1.1645786,1.2872 3.6422049,-1.9044 7.4121519,-3.6885 10.6351039,-6.239 1.144392,-0.9056 1.359314,-2.5842 2.10205,-3.8405 1.856579,-3.1401 4.088056,-6.7997 6.661312,-9.4431 0.996733,-1.0239 2.245747,-1.7675 3.368621,-2.6513 -2.377144,1.9676 -5.460596,3.3084 -7.131431,5.9027 -0.549097,0.8526 1.295257,1.5911 1.708756,2.5171 0.880295,1.9713 1.418051,5.3312 1.616433,7.458 0.234149,2.5104 0.410397,1.9483 -0.220967,3.2048 3.407848,-2.6449 7.457139,-4.6247 10.223545,-7.9347 0.948792,-1.1352 0.03408,-2.9598 0.116446,-4.437 0.08971,-1.6089 0.204898,-3.218 0.399578,-4.8175 0.154599,-1.2703 0.334947,-2.543 0.647288,-3.7839 0.154778,-0.615 1.317817,-2.0234 0.745629,-1.7501 -3.413335,1.6303 -6.423193,3.9971 -9.63479,5.9957 0.09446,0.7502 0.229119,1.4965 0.283372,2.2507 0.139156,1.9345 0.200395,5.5725 0.10335,7.4716 -0.04612,0.9024 -0.126613,1.8074 -0.300414,2.6941 -0.046,0.2347 -0.555165,0.7497 -0.350367,0.6262 3.631065,-2.1904 7.136988,-4.5818 10.705482,-6.8726 0.378269,-1.3821 0.611924,-2.8121 1.134807,-4.1462 0.743723,-1.8976 1.696278,-3.709 2.649917,-5.5102 1.75882,-3.322 3.986029,-7.36266 6.815256,-9.99226 1.023435,-0.95122 4.477949,-3.27768 3.543844,-2.2386 -1.930411,2.14735 -4.39194,3.74984 -6.58791,5.62476 3.657441,2.6295 5.233476,6.7 6.848279,10.7317 0.242464,0.6053 1.393854,4.7983 2.69497,5.4716 0.609827,0.3155 1.372016,-0.058 2.058024,-0.088 3.980733,-2.8231 8.200399,-5.3365 11.942199,-8.4695 1.217482,-1.0193 1.850883,-2.5807 2.78716,-3.8631 0.78245,-1.0718 4.829316,-6.59263 5.812037,-7.7017 0.807037,-0.9108 3.727394,-3.07209 2.644619,-2.5167 -2.608618,1.33805 -4.867083,3.26994 -7.300624,4.90491 0.601507,0.35158 1.338195,0.53708 1.804521,1.05472 2.569232,2.85197 3.685153,7.71257 4.826832,11.26537 1.146367,3.5675 0.298795,2.2141 2.051971,4.3353 4.007713,-2.4141 8.293215,-4.418 12.023138,-7.2424 1.194653,-0.9047 1.630259,-2.5155 2.486826,-3.7451 0.922101,-1.3237 1.792817,-2.6926 2.847943,-3.91285 0.876656,-1.01386 4.134813,-3.33375 2.922928,-2.76123 -9.027335,4.26468 -9.03825,3.51608 -5.075719,5.74088 0.611169,1.1912 1.325167,2.335 1.833506,3.5736 0.594715,1.449 0.99947,2.9692 1.465543,4.4645 0.355651,1.1411 0.503166,2.3562 0.999263,3.4436 0.165261,0.3623 0.588238,0.9831 0.919573,0.7623 3.664689,-2.4418 7.392509,-4.959 10.318219,-8.2503 0.79961,-0.8996 0.14618,-2.4027 0.21926,-3.604 0.033,-0.6372 0.18221,-5.11862 0.49146,-6.17321 0.0592,-0.20196 0.70908,-0.45366 0.53429,-0.33642 -3.35387,2.24953 -7.30415,3.79253 -10.07175,6.73343 -0.82002,0.8714 0.28181,2.3771 0.3757,3.57 0.10846,1.3778 0.15412,2.7599 0.23118,4.1399 0.23895,7.0104 -1.54134,8.714 10.28557,-3.1341 0.70005,-0.7013 0.002,-1.9835 0.0749,-2.9717 0.17579,-2.3737 -0.0824,-1.7989 0.79015,-3.012 -3.35403,2.1209 -7.14606,3.671 -10.06208,6.3625 -0.65228,0.602 0.22673,1.7613 0.30243,2.6457 0.0936,1.0939 0.15392,2.1906 0.20542,3.2873 0.0431,0.9169 0.0681,1.8348 0.0782,2.7527 0.004,0.3603 -0.34263,1.2698 -0.0362,1.0803 3.61112,-2.2329 6.88868,-4.9649 10.33302,-7.4474 0.51968,-3.9083 0.18333,-8.8892 1.69238,-12.5813 0.2683,-0.65644 1.95908,-2.01005 1.35303,-1.6418 -9.73587,5.9157 -10.57157,3.33401 -7.255,8.0422 0.45343,0.9843 0.9505,1.9496 1.36029,2.9529 0.97229,2.3803 1.12135,3.2107 1.84891,5.5092 0.11228,0.3547 0.0299,1.2237 0.36185,1.0558 11.11383,-5.6206 11.06176,-2.7561 9.41485,-8.7751 -0.88816,-2.2439 -1.23066,-6.85113 -3.55472,-8.26088 -0.58687,-0.35599 -1.44409,-0.57621 -2.04472,-0.24394 -11.42293,6.31922 -9.74969,4.80572 -14.42213,11.38352 -0.74797,1.0202 -1.36466,2.1512 -2.24391,3.0608 -0.585928,0.6061 -2.759154,1.9369 -2.090648,1.4232 2.881748,-2.2141 6.330348,-3.8 8.732908,-6.5267 0.6353,-0.7209 -0.46907,-1.8822 -0.47668,-2.8431 -0.0209,-2.6373 0.61876,-4.26044 1.31877,-6.72501 0.35243,-0.67667 0.58495,-1.43086 1.05729,-2.03 0.18334,-0.23255 1.08131,-0.48226 0.8174,-0.34794 -3.5128,1.78776 -7.11188,3.4101 -10.565775,5.30918 -0.28671,0.15764 -0.370501,0.53941 -0.558364,0.80729 -0.262924,0.37488 -0.474667,0.79288 -0.793977,1.12108 -0.258076,0.2653 -0.608206,0.4219 -0.912308,0.6329 6.618824,-1.4407 8.464154,-5.54942 13.158484,-8.60582 0.75949,-0.49448 3.11221,-1.84876 2.37928,-1.31571 -2.42121,1.76094 -4.97055,3.33859 -7.45583,5.00788 0.52742,0.19949 1.17208,0.21153 1.58224,0.59849 1.6425,1.5496 0.71139,6.94746 -0.39511,8.53036 -0.24647,0.3526 -0.75475,0.4131 -1.13213,0.6197 3.08487,-1.9931 6.56319,-3.4803 9.25462,-5.9794 0.52998,-0.49205 -0.61685,-1.37637 -0.55634,-2.09705 0.0989,-1.17779 0.49964,-2.33425 1.01757,-3.39666 2.00442,-4.11159 5.4301,-6.95618 8.89413,-9.74703 -2.32161,1.60114 -4.87939,2.90489 -6.96485,4.80342 -0.28575,0.26014 0.85611,0.30866 0.93362,0.68723 0.12785,0.6245 -1.49882,3.42615 -1.60103,3.54721 -0.44654,0.52886 -1.10916,0.82832 -1.66374,1.24249 2.76995,-1.87841 5.53989,-3.75681 8.30984,-5.63521 -0.37841,-0.48497 -0.8906,-0.89051 -1.13521,-1.4549 -1.1313,-2.61023 -1.09493,-6.52962 -0.44139,-9.25295 0.18452,-0.76889 1.62027,-2.51638 0.89741,-2.19588 -3.08482,1.36775 -5.64363,3.70093 -8.46544,5.55139 0.45252,0.47483 1.03268,0.85469 1.35757,1.42451 2.8057,4.92086 3.68184,10.79199 5.06794,16.19283 1.2053,4.6963 -0.13273,3.6094 3.19486,4.7357 18.05289,-12.01716 7.74074,-3.3796 15.37839,-12.00568 1.08667,-1.22731 4.88554,-4.27289 3.42465,-3.52931 -11.02183,5.61003 -5.57039,3.55789 -2.17958,6.28787 1.32675,1.06818 2.22962,2.57565 3.34443,3.86348 0.45092,0.71824 4.07657,6.69294 5.10137,7.67044 0.62929,0.6003 1.50877,1.4988 2.32179,1.1901 4.4024,-1.6718 8.48827,-4.1491 12.39496,-6.7785 1.27778,-0.86 1.95781,-2.37847 2.95471,-3.55257 1.21184,-1.42724 2.44749,-2.83409 3.67123,-4.25114 1.31165,-1.22224 5.69338,-3.31717 3.93494,-3.66673 -2.09831,-0.41711 -4.27419,1.58619 -5.46696,3.36219 -0.61602,0.91722 2.2453,-0.44335 3.31117,-0.15229 3.43093,0.9369 5.74736,5.44905 7.44928,8.19234 0.47972,0.6584 0.83614,1.4274 1.43916,1.9751 3.35819,3.0499 11.56332,-6.18711 12.61101,-7.11588 0.85049,-0.75395 0.76635,-2.14023 1.12605,-3.21837 1.29532,-4.08104 0.6647,-2.15169 1.88207,-5.79123 0.78104,-1.74402 0.1532,-1.38159 1.30676,-1.73844 0,0 -10.74931,4.40549 -10.74931,4.40549 v 0 c -0.42361,1.09429 -0.16351,0.39074 -0.73035,2.12847 -0.4795,1.59919 -1.22927,4.18608 -1.79833,5.66952 -0.4024,1.04898 -2.47282,3.14204 -1.35059,3.08814 3.05413,-0.1466 5.70526,-2.20679 8.50685,-3.43166 0.34575,-0.15116 -0.7861,0.38581 -1.11431,0.19961 -0.68097,-0.38632 -1.05772,-1.15458 -1.58659,-1.73186 -1.92866,-2.99016 -4.46251,-7.80922 -8.01191,-9.14217 -1.17927,-0.44286 -2.6199,-0.72883 -3.77259,-0.22079 -10.5796,4.66293 -10.8173,5.48815 -16.85543,11.35158 -1.28047,1.43466 -2.52913,2.89839 -3.84143,4.30399 -1.08481,1.1619 -4.93565,3.4694 -3.34771,3.3963 2.73896,-0.1262 5.25397,-1.8819 7.40415,-3.5832 0.59513,-0.4709 -1.61071,-0.064 -2.21603,-0.522 -1.60215,-1.2114 -4.5421,-6.32414 -5.32881,-7.57915 -0.68131,-0.86893 -4.77912,-7.18 -7.26057,-6.61159 -9.56986,2.19211 -11.56237,4.23973 -16.54699,9.76819 -1.1326,1.25617 -4.94376,3.38175 -3.31588,3.84075 2.45197,0.6915 4.74962,-1.84446 7.12443,-2.76672 -0.54962,0.23436 -1.22913,1.12833 -1.64885,0.70308 -0.94808,-0.96056 -1.02082,-2.50352 -1.40514,-3.79728 -1.59191,-5.35893 -2.30865,-11.9076 -4.76185,-16.91154 -0.48297,-0.98513 -1.27758,-1.78402 -1.91637,-2.67604 -3.62047,2.08833 -7.51616,3.75933 -10.8614,6.26498 -0.65624,0.49153 -0.52945,1.55954 -0.66464,2.36822 -0.52652,3.14976 -0.56384,7.03656 0.69372,10.03462 0.36068,0.85988 1.03445,1.55172 1.55167,2.32758 1.29254,-0.59302 10.55699,-2.97695 12.94638,-6.89281 0.72377,-1.18616 1.63823,-3.46848 1.00935,-4.94086 -0.29236,-0.68446 -0.97938,-1.70464 -1.68433,-1.46586 -4.29574,1.45504 -8.09222,4.09855 -12.13833,6.14783 -2.72835,2.3894 -4.05743,3.30202 -6.26039,6.33935 -1.73204,2.38805 -3.27495,5.00155 -3.381,8.05855 -0.26117,7.5281 7.79677,0 11.84731,-1.6409 0.24463,-0.3619 0.56563,-0.6825 0.73389,-1.0856 1.16686,-2.7952 1.93668,-7.49354 -0.36305,-9.97303 -0.53039,-0.57185 -1.35983,-0.76433 -2.03975,-1.14649 -4.83906,2.34436 -10.08707,4.0748 -14.375118,7.31905 -1.061218,0.8029 -2.925037,2.3241 -3.230558,3.83267 -0.10941,0.5402 -0.103862,1.7769 0.418066,1.5998 3.79378,-1.2879 7.16234,-3.59255 10.74351,-5.38881 0.7054,-0.82855 1.02254,-1.10664 1.52399,-2.1568 0.19727,-0.41314 0.89235,-1.42708 0.45356,-1.29643 -9.75324,2.90414 -9.61306,1.45714 -11.730063,7.12324 -0.249865,1.0845 -0.577335,2.1539 -0.749596,3.2533 -0.201956,1.289 -0.412714,2.5925 -0.37064,3.8965 0.03831,1.1872 -0.57817,3.5163 0.609638,3.5109 3.828861,-0.017 10.179651,-1.6139 13.214711,-5.1812 0.80691,-0.9483 1.46017,-2.0174 2.19025,-3.0261 4.26278,-5.48858 3.63275,-3.56991 -4.80086,-0.2014 -0.51239,0.2046 0.94932,-0.8627 1.48512,-0.731 0.66412,0.1633 1.11171,0.8576 1.44913,1.4525 0.8673,1.529 1.4673,4.6267 1.85661,6.2774 0.82522,5.9243 -0.25497,3.9066 10.56343,-2.2335 0.28083,-0.1594 -0.39244,-0.5201 -0.52325,-0.8153 -1.25663,-2.8361 -1.90831,-5.9242 -3.37803,-8.6761 -0.51259,-0.87763 -0.53584,-2.80366 -1.53775,-2.6329 -4.3127,0.73502 -10.83619,1.85252 -12.18786,6.6928 -0.62946,2.254 -1.01653,6.4166 -1.30219,8.601 -0.18545,1.4181 -0.39377,2.8332 -0.59065,4.2498 3.34195,-0.9854 6.78244,-1.6833 10.02585,-2.956 0.28528,-0.112 -0.18178,-0.5893 -0.21464,-0.894 -0.097,-0.8997 -0.12813,-1.8055 -0.174,-2.7094 -0.45913,-9.0467 2.19017,-7.4292 -10.84114,-2.3158 -0.043,0.3951 -0.57617,6.2227 -0.48949,6.2215 3.53329,-0.047 6.74043,-2.1241 10.11065,-3.1862 -0.0988,-0.1392 -0.27398,-0.2484 -0.29644,-0.4176 -0.14975,-1.1282 -0.14088,-2.2719 -0.21131,-3.4078 -0.0558,-1.3985 -0.11841,-2.7968 -0.16731,-4.1955 -0.0446,-1.2762 1.16251,-3.77243 -0.11321,-3.82933 -11.630837,-0.51879 -10.45283,0.91418 -10.74485,6.43783 -0.0639,1.2081 -0.14328,2.4153 -0.21492,3.6229 -0.15134,1.1905 -1.653789,3.5448 -0.45403,3.5715 3.28699,0.073 6.13592,-2.3752 9.26795,-3.3752 0.28107,-0.09 -0.46933,0.8635 -0.6334,0.6183 -0.65707,-0.9821 -0.81434,-2.2189 -1.18757,-3.3401 -2.32559,-6.98576 -0.4312,-2.3094 -3.35162,-8.86088 -0.83562,-0.63833 -1.50272,-2.22712 -2.50686,-1.91499 -6.343094,1.9717 -10.913271,4.60412 -14.782995,9.30387 -1.035924,1.2581 -1.914233,2.6382 -2.8887,3.9445 -0.931323,1.2485 -4.375154,3.5359 -2.828434,3.7195 2.862635,0.3396 5.383086,-2.0647 8.074629,-3.097 -1.868873,-1.2063 -1.071842,-0.3999 -2.208653,-3.5863 -1.327698,-3.7214 -2.441739,-8.8978 -4.913818,-12.03845 -0.625317,-0.79443 -1.574979,-1.26808 -2.362468,-1.90212 -3.961725,2.07794 -8.076044,3.88784 -11.885177,6.23382 -1.005148,0.61905 -1.671034,1.67251 -2.425892,2.58011 -0.527995,0.63484 -5.424219,7.24164 -5.768302,7.69474 -0.989863,1.3035 -4.60045,3.5103 -3.006505,3.8822 2.521899,0.5884 4.804228,-1.9349 7.206343,-2.9024 -0.432753,0.4287 -0.689455,1.3062 -1.298258,1.2861 -0.661379,-0.022 -1.092631,-0.8074 -1.430748,-1.3763 -0.658077,-1.1071 -0.999694,-2.374 -1.503054,-3.5595 -1.841753,-4.3376 -3.445247,-8.76446 -7.206756,-11.86497 -4.253107,1.61787 -8.621313,2.96064 -12.75932,4.8536 -2.724655,1.24641 -5.055792,4.61437 -6.539046,6.89047 -1.193036,1.8308 -2.2209,3.7657 -3.247325,5.6948 -3.098625,5.8238 -2.51647,4.7536 -4.363314,10.25 3.329997,-1.0432 6.726454,-1.8942 9.989991,-3.1297 0.197723,-0.075 -0.05562,-0.4205 -0.05396,-0.6319 0.007,-0.8864 0.06254,-1.7718 0.07987,-2.658 0.06956,-3.5579 0.240261,-7.1513 -0.286702,-10.6846 -3.534295,1.6086 -7.274594,2.8255 -10.602885,4.8258 -0.512682,0.3081 -0.267366,1.1674 -0.353759,1.7592 -0.400089,2.741 -0.657771,5.9125 -0.887304,8.6344 -0.129848,1.5398 -1.869536,4.268 -0.365234,4.6214 3.390828,0.7967 6.793562,-1.5419 10.190344,-2.3128 -0.425472,-1.5794 0.07671,0.3992 -0.435491,-3.2079 -0.321969,-2.2674 -0.869433,-5.7924 -1.781596,-7.8959 -0.514562,-1.1866 -0.752176,-3.4167 -2.040325,-3.3004 -4.360383,0.3937 -8.202757,3.0637 -12.304136,4.5956 -1.013347,0.9196 -2.129673,1.7371 -3.04004,2.7587 -2.264252,2.5409 -5.021556,6.8016 -6.7474317,9.6662 -0.8716396,1.4467 -4.1370567,4.1937 -2.4642911,4.4274 8.2801458,1.1565 8.8747278,-0.8015 10.8024648,-4.656 1.246167,-3.1048 2.335412,-6.2714 3.600276,-9.3686 0.782868,-1.917 4.044777,-4.2797 2.518179,-5.6787 -1.777114,-1.6286 -4.669247,1.3268 -7.073153,1.5045 -0.641779,0.047 0.981878,-1.3174 1.587245,-1.099 0.919018,0.3314 1.195568,1.5454 1.793352,2.3181 2.079538,5.4891 3.810879,10.8567 5.004565,16.6237 0.303221,1.4649 -0.794193,4.3767 0.700723,4.4328 3.623878,0.1361 7.136593,-1.9461 10.106501,-4.0271 0.686902,-0.4813 -0.808738,-1.4696 -1.213107,-2.2045 -1.279501,-3.7389 -2.82584,-8.4627 -4.364445,-12.069 -0.838756,-1.9659 -1.634486,-3.9718 -2.767275,-5.7843 -0.888315,-1.4213 -1.593257,-4.1107 -3.247227,-3.8392 -8.612137,1.4136 -10.75121,4.6164 -15.0757048,9.5401 -3.0263528,5.0501 -2.4728615,4.0384 -5.333998,9.1633 -0.6309784,1.1302 -3.1609796,3.4847 -1.869101,3.4038 9.9781075,-0.6251 9.569291,-1.4752 10.0010986,-6.9007 0.1415369,-1.7783 0.249589,-3.5592 0.3743836,-5.3388 -0.014759,-3.0882 0.4092516,-8.4888 -1.1992592,-11.5175 -0.6156876,-1.1594 -1.6982789,-2.89966 -2.9722617,-2.58335 -7.2196598,1.79255 -17.7714655,9.22005 -24.2591125,14.00875 -1.620872,1.2103 -6.83198,3.1687 -4.862617,3.6309 6.368917,1.4949 9.323152,-4.1203 10.591641,-8.5461 -0.510946,-2.045 -0.566174,-2.3786 -2.852311,-2.0616 -0.394552,0.055 -0.889805,-0.012 -1.16185,0.2794 -0.240774,0.2576 0.206812,0.8566 -0.08509,1.0542 -2.993406,2.0273 -6.277922,3.5873 -9.416882,5.3809 3.125251,-1.6444 6.338019,-2.9483 9.664045,-4.1418 2.985242,-1.0713 3.308303,-0.3117 4.49183,-2.6029 0.119486,-0.2313 -0.359169,0.377 -0.538753,0.5655 2.109998,-1.1714 4.2873301,-2.229 6.3299948,-3.5143 1.5426593,-0.9706 -3.2278687,1.6941 -4.8269898,2.5686 -4.853068,2.654 -9.721514,5.2812 -14.529163,8.0166 -1.209877,0.6884 -5.874429,2.6249 -5.446391,5.3908 0.09373,0.6057 1.148471,0.4284 1.722707,0.6426 12.147532,-2.1055 24.0721123,-5.4127 36.0823509,-8.1663 3.8572881,-2.5404 7.8172331,-4.9314 11.5718631,-7.6212 0.360429,-0.2582 -0.873621,0.1563 -1.303468,0.265 -1.556911,0.3936 -3.102113,0.8323 -4.654982,1.2416 -7.4052361,1.9518 -14.8283445,3.8341 -22.2336619,5.7856 -3.9265771,2.6553 -8.3597201,4.6839 -11.7797321,7.966 -0.955832,0.9173 2.644852,-0.2162 3.948708,-0.4507 2.921044,-0.5255 5.818268,-1.1778 8.7142941,-1.8272 14.3410625,-3.2154 28.6013799,-6.8002 43.0076139,-9.7277 4.335612,-0.922 8.6681,-1.8587 13.006838,-2.7659 2.780659,-0.5813 5.771765,-0.5093 8.351159,-1.6996 3.85757,-1.7801 7.215102,-4.50687 10.616106,-7.05301 1.05198,-0.78756 -2.338351,1.20178 -3.532642,1.75003 -15.936473,7.31578 1.89844,-1.71236 -23.717203,12.02818 -1.708525,1.3996 -4.009497,2.2929 -5.125573,4.1987 -0.48476,0.8278 0.232177,2.273 1.112512,2.6541 1.957268,0.8472 4.240763,0.6791 6.371498,0.5856 3.904263,-0.1713 7.779912,-0.7853 11.643037,-1.3759 11.014662,-1.6841 18.805396,-3.5649 29.76159,-5.9462 10.253637,-2.6566 20.28727,-5.0099 30.03312,-9.2115 0.82235,-0.3545 1.88113,-0.4457 2.4243,-1.15764 0.31171,-0.40858 0.0859,-1.34017 -0.4065,-1.48719 -0.55161,-0.16468 -0.96941,0.62114 -1.45411,0.9317 -2.06797,1.37583 -6.70452,3.87863 -7.36803,6.48433 -0.83469,3.278 5.71867,1.3404 6.24286,1.0695 4.42562,-2.4744 8.94428,-4.7894 13.27686,-7.42333 4.17755,-2.53972 8.64919,-7.04703 10.93832,-11.37642 1.04152,-1.9698 1.89514,-5.41159 2.50889,-7.61557 1.86281,-5.04772 2.08672,-4.21296 -9.13667,2.65729 -0.33851,0.20721 0.54527,0.58449 0.75135,0.9237 1.03174,1.6982 1.66438,3.622 2.85629,5.23229 0.7477,1.23048 1.5595,2.42086 2.33925,3.63129 2.45252,3.01344 3.73365,5.02164 7.03442,7.26055 6.93879,4.7065 13.48769,3.7597 21.00146,1.238 9.87763,-4.3899 3.9247,-1.54334 18.99031,-10.1271 2.14287,-1.22092 -4.18734,2.64224 -6.44721,3.62995 -0.40439,0.17674 2.48906,-3.28551 1.45898,-0.11977 -0.0525,2.69983 -0.24222,5.48992 0.008,8.18162 0.0853,0.916 -0.43683,2.8982 0.46572,2.7202 9.86444,-1.9449 9.35835,-2.012 11.74543,-6.98693 1.54002,-4.59825 2.96102,-9.24656 4.12469,-13.95686 0.3127,-1.26576 2.11349,-3.75194 0.8118,-3.82626 -10.5619,-0.60303 -10.28683,0.0346 -10.07128,4.04081 -0.008,0.66656 -0.0781,7.28696 0.0974,7.27537 10.37417,-0.68529 10.21343,-0.23714 10.62497,-5.16089 0,0 -10.32358,5.26013 -10.32358,5.26013 z"
     id="path2313"
     style="opacity:0.996;fill:#f4f4f4;stroke:#f4f4f4;stroke-width:5.267;stroke-linecap:square;stroke-miterlimit:4;stroke-dasharray:10.534, 31.602;stroke-dashoffset:0;stroke-opacity:0.996078" />
</svg>
