<?xml version="1.0" encoding="UTF-8" standalone="no"?>
<!-- Created with Inkscape (http://www.inkscape.org/) -->

<svg
   xmlns:ns1="http://www.iki.fi/pav/software/textext/"
   xmlns:dc="http://purl.org/dc/elements/1.1/"
   xmlns:cc="http://creativecommons.org/ns#"
   xmlns:rdf="http://www.w3.org/1999/02/22-rdf-syntax-ns#"
   xmlns:svg="http://www.w3.org/2000/svg"
   xmlns="http://www.w3.org/2000/svg"
   xmlns:sodipodi="http://sodipodi.sourceforge.net/DTD/sodipodi-0.dtd"
   xmlns:inkscape="http://www.inkscape.org/namespaces/inkscape"
   inkscape:export-ydpi="299.95728"
   inkscape:export-xdpi="299.95728"
   inkscape:export-filename="/home/fdf/projects/hoezithet/content/lessen/wiskunde/eentermen/variabelen/img/bedroom_area_formula.png"
   sodipodi:docname="bedroom_area_formula.svg"
   inkscape:version="0.92.4 (unknown)"
   id="svg4623"
   version="1.1"
   viewBox="0 0 153.91769 55.46456"
   height="209.62985"
   width="581.73621">
  <defs
     id="defs4617">
    <marker
       inkscape:isstock="true"
       style="overflow:visible"
       id="marker9772"
       refX="0"
       refY="0"
       orient="auto"
       inkscape:stockid="Arrow2Mend">
      <path
         transform="scale(-0.6)"
         d="M 8.7185878,4.0337352 -2.2072895,0.01601326 8.7185884,-4.0017078 c -1.7454984,2.3720609 -1.7354408,5.6174519 -6e-7,8.035443 z"
         style="fill:#d3d3d3;fill-opacity:1;fill-rule:evenodd;stroke:#d3d3d3;stroke-width:0.625;stroke-linejoin:round;stroke-opacity:1"
         id="path9770"
         inkscape:connector-curvature="0" />
    </marker>
    <marker
       inkscape:isstock="true"
       style="overflow:visible;"
       id="marker1441"
       refX="0.0"
       refY="0.0"
       orient="auto"
       inkscape:stockid="Arrow2Mend">
      <path
         transform="scale(0.6) rotate(180) translate(0,0)"
         d="M 8.7185878,4.0337352 L -2.2072895,0.016013256 L 8.7185884,-4.0017078 C 6.9730900,-1.6296469 6.9831476,1.6157441 8.7185878,4.0337352 z "
         style="fill-rule:evenodd;stroke-width:0.625;stroke-linejoin:round;stroke:#357edd;stroke-opacity:1;fill:#357edd;fill-opacity:1"
         id="path1439" />
    </marker>
    <marker
       inkscape:isstock="true"
       style="overflow:visible"
       id="marker1435"
       refX="0.0"
       refY="0.0"
       orient="auto"
       inkscape:stockid="Arrow2Mstart">
      <path
         transform="scale(0.6) translate(0,0)"
         d="M 8.7185878,4.0337352 L -2.2072895,0.016013256 L 8.7185884,-4.0017078 C 6.9730900,-1.6296469 6.9831476,1.6157441 8.7185878,4.0337352 z "
         style="fill-rule:evenodd;stroke-width:0.625;stroke-linejoin:round;stroke:#357edd;stroke-opacity:1;fill:#357edd;fill-opacity:1"
         id="path1433" />
    </marker>
    <pattern
       patternUnits="userSpaceOnUse"
       width="50.260043"
       height="37.694409"
       patternTransform="matrix(0.26458331,0,0,0.26458331,39.526125,62.056557)"
       id="pattern13500">
      <g
         id="use13498"
         transform="matrix(3.7795279,0,0,3.7795279,-77.89009,-234.54449)">
        <rect
           id="rect13530"
           y="62.056557"
           x="20.608419"
           height="9.9733095"
           width="13.297967"
           style="fill:none;stroke:none;stroke-width:0.61472619" />
        <path
           inkscape:connector-curvature="0"
           d="m 30.581893,62.056559 3.324491,4.986654 -3.324491,4.986654 -3.32449,-4.986654 z m -6.648981,10e-7 3.32449,4.986654 -3.32449,4.986654 -3.32449,-4.986654 z"
           style="opacity:1;vector-effect:none;fill:#555555;fill-opacity:1;stroke:none;stroke-width:0.88533551;stroke-linecap:butt;stroke-linejoin:bevel;stroke-miterlimit:4;stroke-dasharray:2.65600656, 2.65600656;stroke-dashoffset:0;stroke-opacity:1;paint-order:markers stroke fill"
           id="path13532" />
        <path
           inkscape:connector-curvature="0"
           d="m 27.257404,62.05656 3.324489,-10e-7 -3.32449,4.986654 -3.324491,-4.986654 z m -1e-6,4.986654 3.32449,4.986654 -3.324489,-2e-6 -3.324492,2e-6 z"
           style="opacity:1;vector-effect:none;fill:#16502d;fill-opacity:1;stroke:none;stroke-width:0.88533551;stroke-linecap:butt;stroke-linejoin:bevel;stroke-miterlimit:4;stroke-dasharray:2.65600656, 2.65600656;stroke-dashoffset:0;stroke-opacity:1;paint-order:markers stroke fill"
           id="path13534" />
        <path
           inkscape:connector-curvature="0"
           d="m 33.906385,67.043213 v 4.986653 0 l -3.324491,10e-7 z m -13.297963,1e-6 3.32449,4.986654 -3.324489,-2e-6 z m 10e-7,-4.986654 3.32449,-2e-6 -3.32449,4.986655 z m 13.297962,0 v 0 l -10e-7,4.986653 -3.32449,-4.986655 z"
           style="opacity:1;vector-effect:none;fill:#19a974;fill-opacity:1;stroke:none;stroke-width:0.88533551;stroke-linecap:butt;stroke-linejoin:bevel;stroke-miterlimit:4;stroke-dasharray:2.65600653, 2.65600653;stroke-dashoffset:0;stroke-opacity:1;paint-order:markers stroke fill"
           id="path13536" />
        <path
           id="path13538"
           style="opacity:1;vector-effect:none;fill:#137752;fill-opacity:1;stroke:#000000;stroke-width:0.21277149;stroke-linecap:round;stroke-linejoin:miter;stroke-miterlimit:4;stroke-dasharray:0.2127715, 0.42554299;stroke-dashoffset:0;stroke-opacity:1"
           d="m 27.257401,71.922222 -6.541749,-9.758016 m 13.083499,9.758016 -6.541748,-9.758017 m 0,9.758017 6.541748,-9.758017 m -13.083499,9.758017 6.54175,-9.758017"
           inkscape:connector-curvature="0"
           sodipodi:nodetypes="cccccccc" />
      </g>
    </pattern>
    <pattern
       patternUnits="userSpaceOnUse"
       width="50.260043"
       height="37.694409"
       patternTransform="matrix(0.26458331,0,0,0.26458331,39.526125,62.056557)"
       id="pattern13500-7">
      <g
         id="use13498-0"
         transform="matrix(3.7795279,0,0,3.7795279,-77.89009,-234.54449)">
        <rect
           id="rect13530-5"
           y="62.056557"
           x="20.608419"
           height="9.9733095"
           width="13.297967"
           style="fill:none;stroke:none;stroke-width:0.61472619" />
        <path
           inkscape:connector-curvature="0"
           d="m 30.581893,62.056559 3.324491,4.986654 -3.324491,4.986654 -3.32449,-4.986654 z m -6.648981,10e-7 3.32449,4.986654 -3.32449,4.986654 -3.32449,-4.986654 z"
           style="opacity:1;vector-effect:none;fill:#555555;fill-opacity:1;stroke:none;stroke-width:0.88533551;stroke-linecap:butt;stroke-linejoin:bevel;stroke-miterlimit:4;stroke-dasharray:2.65600656, 2.65600656;stroke-dashoffset:0;stroke-opacity:1;paint-order:markers stroke fill"
           id="path13532-1" />
        <path
           inkscape:connector-curvature="0"
           d="m 27.257404,62.05656 3.324489,-10e-7 -3.32449,4.986654 -3.324491,-4.986654 z m -1e-6,4.986654 3.32449,4.986654 -3.324489,-2e-6 -3.324492,2e-6 z"
           style="opacity:1;vector-effect:none;fill:#16502d;fill-opacity:1;stroke:none;stroke-width:0.88533551;stroke-linecap:butt;stroke-linejoin:bevel;stroke-miterlimit:4;stroke-dasharray:2.65600656, 2.65600656;stroke-dashoffset:0;stroke-opacity:1;paint-order:markers stroke fill"
           id="path13534-1" />
        <path
           inkscape:connector-curvature="0"
           d="m 33.906385,67.043213 v 4.986653 0 l -3.324491,10e-7 z m -13.297963,1e-6 3.32449,4.986654 -3.324489,-2e-6 z m 10e-7,-4.986654 3.32449,-2e-6 -3.32449,4.986655 z m 13.297962,0 v 0 l -10e-7,4.986653 -3.32449,-4.986655 z"
           style="opacity:1;vector-effect:none;fill:#19a974;fill-opacity:1;stroke:none;stroke-width:0.88533551;stroke-linecap:butt;stroke-linejoin:bevel;stroke-miterlimit:4;stroke-dasharray:2.65600653, 2.65600653;stroke-dashoffset:0;stroke-opacity:1;paint-order:markers stroke fill"
           id="path13536-0" />
        <path
           id="path13538-3"
           style="opacity:1;vector-effect:none;fill:#137752;fill-opacity:1;stroke:#000000;stroke-width:0.21277149;stroke-linecap:round;stroke-linejoin:miter;stroke-miterlimit:4;stroke-dasharray:0.2127715, 0.42554299;stroke-dashoffset:0;stroke-opacity:1"
           d="m 27.257401,71.922222 -6.541749,-9.758016 m 13.083499,9.758016 -6.541748,-9.758017 m 0,9.758017 6.541748,-9.758017 m -13.083499,9.758017 6.54175,-9.758017"
           inkscape:connector-curvature="0"
           sodipodi:nodetypes="cccccccc" />
      </g>
    </pattern>
    <pattern
       patternUnits="userSpaceOnUse"
       width="50.260043"
       height="37.694409"
       patternTransform="matrix(0.26458331,0,0,0.26458331,39.526125,62.056557)"
       id="pattern13500-0">
      <g
         id="use13498-3"
         transform="matrix(3.7795279,0,0,3.7795279,-77.89009,-234.54449)">
        <rect
           id="rect13530-59"
           y="62.056557"
           x="20.608419"
           height="9.9733095"
           width="13.297967"
           style="fill:none;stroke:none;stroke-width:0.61472619" />
        <path
           inkscape:connector-curvature="0"
           d="m 30.581893,62.056559 3.324491,4.986654 -3.324491,4.986654 -3.32449,-4.986654 z m -6.648981,10e-7 3.32449,4.986654 -3.32449,4.986654 -3.32449,-4.986654 z"
           style="opacity:1;vector-effect:none;fill:#555555;fill-opacity:1;stroke:none;stroke-width:0.88533551;stroke-linecap:butt;stroke-linejoin:bevel;stroke-miterlimit:4;stroke-dasharray:2.65600656, 2.65600656;stroke-dashoffset:0;stroke-opacity:1;paint-order:markers stroke fill"
           id="path13532-4" />
        <path
           inkscape:connector-curvature="0"
           d="m 27.257404,62.05656 3.324489,-10e-7 -3.32449,4.986654 -3.324491,-4.986654 z m -1e-6,4.986654 3.32449,4.986654 -3.324489,-2e-6 -3.324492,2e-6 z"
           style="opacity:1;vector-effect:none;fill:#16502d;fill-opacity:1;stroke:none;stroke-width:0.88533551;stroke-linecap:butt;stroke-linejoin:bevel;stroke-miterlimit:4;stroke-dasharray:2.65600656, 2.65600656;stroke-dashoffset:0;stroke-opacity:1;paint-order:markers stroke fill"
           id="path13534-8" />
        <path
           inkscape:connector-curvature="0"
           d="m 33.906385,67.043213 v 4.986653 0 l -3.324491,10e-7 z m -13.297963,1e-6 3.32449,4.986654 -3.324489,-2e-6 z m 10e-7,-4.986654 3.32449,-2e-6 -3.32449,4.986655 z m 13.297962,0 v 0 l -10e-7,4.986653 -3.32449,-4.986655 z"
           style="opacity:1;vector-effect:none;fill:#19a974;fill-opacity:1;stroke:none;stroke-width:0.88533551;stroke-linecap:butt;stroke-linejoin:bevel;stroke-miterlimit:4;stroke-dasharray:2.65600653, 2.65600653;stroke-dashoffset:0;stroke-opacity:1;paint-order:markers stroke fill"
           id="path13536-4" />
        <path
           id="path13538-6"
           style="opacity:1;vector-effect:none;fill:#137752;fill-opacity:1;stroke:#000000;stroke-width:0.21277149;stroke-linecap:round;stroke-linejoin:miter;stroke-miterlimit:4;stroke-dasharray:0.2127715, 0.42554299;stroke-dashoffset:0;stroke-opacity:1"
           d="m 27.257401,71.922222 -6.541749,-9.758016 m 13.083499,9.758016 -6.541748,-9.758017 m 0,9.758017 6.541748,-9.758017 m -13.083499,9.758017 6.54175,-9.758017"
           inkscape:connector-curvature="0"
           sodipodi:nodetypes="cccccccc" />
      </g>
    </pattern>
    <marker
       inkscape:isstock="true"
       style="overflow:visible"
       id="marker1435-0"
       refX="0"
       refY="0"
       orient="auto"
       inkscape:stockid="Arrow2Mstart">
      <path
         inkscape:connector-curvature="0"
         transform="scale(0.6)"
         d="M 8.7185878,4.0337352 -2.2072895,0.01601326 8.7185884,-4.0017078 c -1.7454984,2.3720609 -1.7354408,5.6174519 -6e-7,8.035443 z"
         style="fill:#357edd;fill-opacity:1;fill-rule:evenodd;stroke:#357edd;stroke-width:0.625;stroke-linejoin:round;stroke-opacity:1"
         id="path1433-8" />
    </marker>
    <marker
       inkscape:isstock="true"
       style="overflow:visible"
       id="marker1441-6"
       refX="0"
       refY="0"
       orient="auto"
       inkscape:stockid="Arrow2Mend">
      <path
         inkscape:connector-curvature="0"
         transform="scale(-0.6)"
         d="M 8.7185878,4.0337352 -2.2072895,0.01601326 8.7185884,-4.0017078 c -1.7454984,2.3720609 -1.7354408,5.6174519 -6e-7,8.035443 z"
         style="fill:#357edd;fill-opacity:1;fill-rule:evenodd;stroke:#357edd;stroke-width:0.625;stroke-linejoin:round;stroke-opacity:1"
         id="path1439-9" />
    </marker>
    <marker
       inkscape:stockid="Arrow2Mstart"
       orient="auto"
       refY="0"
       refX="0"
       id="Arrow2Mstart"
       style="overflow:visible"
       inkscape:isstock="true"
       inkscape:collect="always">
      <path
         inkscape:connector-curvature="0"
         id="path1193"
         style="fill:#ff6300;fill-opacity:1;fill-rule:evenodd;stroke:#ff6300;stroke-width:0.625;stroke-linejoin:round;stroke-opacity:1"
         d="M 8.7185878,4.0337352 -2.2072895,0.01601326 8.7185884,-4.0017078 c -1.7454984,2.3720609 -1.7354408,5.6174519 -6e-7,8.035443 z"
         transform="scale(0.6)" />
    </marker>
    <marker
       inkscape:stockid="Arrow2Mend"
       orient="auto"
       refY="0"
       refX="0"
       id="Arrow2Mend"
       style="overflow:visible"
       inkscape:isstock="true"
       inkscape:collect="always">
      <path
         inkscape:connector-curvature="0"
         id="path1196"
         style="fill:#ff6300;fill-opacity:1;fill-rule:evenodd;stroke:#ff6300;stroke-width:0.625;stroke-linejoin:round;stroke-opacity:1"
         d="M 8.7185878,4.0337352 -2.2072895,0.01601326 8.7185884,-4.0017078 c -1.7454984,2.3720609 -1.7354408,5.6174519 -6e-7,8.035443 z"
         transform="scale(-0.6)" />
    </marker>
    <marker
       inkscape:isstock="true"
       style="overflow:visible"
       id="marker9772-3"
       refX="0"
       refY="0"
       orient="auto"
       inkscape:stockid="Arrow2Mend">
      <path
         transform="scale(-0.6)"
         d="M 8.7185878,4.0337352 -2.2072895,0.01601326 8.7185884,-4.0017078 c -1.7454984,2.3720609 -1.7354408,5.6174519 -6e-7,8.035443 z"
         style="fill:#d3d3d3;fill-opacity:1;fill-rule:evenodd;stroke:#d3d3d3;stroke-width:0.625;stroke-linejoin:round;stroke-opacity:1"
         id="path9770-3"
         inkscape:connector-curvature="0" />
    </marker>
    <marker
       inkscape:isstock="true"
       style="overflow:visible"
       id="marker9772-3-4"
       refX="0"
       refY="0"
       orient="auto"
       inkscape:stockid="Arrow2Mend">
      <path
         transform="scale(-0.6)"
         d="M 8.7185878,4.0337352 -2.2072895,0.01601326 8.7185884,-4.0017078 c -1.7454984,2.3720609 -1.7354408,5.6174519 -6e-7,8.035443 z"
         style="fill:#d3d3d3;fill-opacity:1;fill-rule:evenodd;stroke:#d3d3d3;stroke-width:0.625;stroke-linejoin:round;stroke-opacity:1"
         id="path9770-3-3"
         inkscape:connector-curvature="0" />
    </marker>
  </defs>
  <sodipodi:namedview
     id="base"
     pagecolor="#f4f4f4"
     bordercolor="#666666"
     borderopacity="1.0"
     inkscape:pageopacity="1"
     inkscape:pageshadow="2"
     inkscape:zoom="1.1925677"
     inkscape:cx="327.12676"
     inkscape:cy="209.19046"
     inkscape:document-units="px"
     inkscape:current-layer="svg4623"
     showgrid="false"
     units="px"
     inkscape:object-paths="true"
     inkscape:snap-smooth-nodes="false"
     inkscape:window-width="1600"
     inkscape:window-height="875"
     inkscape:window-x="0"
     inkscape:window-y="25"
     inkscape:window-maximized="1"
     showguides="false"
     inkscape:guide-bbox="true"
     inkscape:pagecheckerboard="false"
     inkscape:snap-global="false"
     inkscape:showpageshadow="true"
     showborder="true"
     borderlayer="false"
     inkscape:snap-page="true"
     inkscape:snap-midpoints="false"
     inkscape:snap-grids="true"
     inkscape:snap-center="true">
    <sodipodi:guide
       position="146.86199,0"
       orientation="1,0"
       id="guide818"
       inkscape:locked="false"
       inkscape:label=""
       inkscape:color="rgb(0,0,255)" />
    <sodipodi:guide
       position="7.0556431,0"
       orientation="1,0"
       id="guide820"
       inkscape:locked="false"
       inkscape:label=""
       inkscape:color="rgb(0,0,255)" />
    <sodipodi:guide
       position="0,50.172933"
       orientation="0,1"
       id="guide822"
       inkscape:locked="false"
       inkscape:label=""
       inkscape:color="rgb(0,0,255)" />
    <sodipodi:guide
       position="0,7.0556431"
       orientation="0,1"
       id="guide922"
       inkscape:locked="false"
       inkscape:label=""
       inkscape:color="rgb(0,0,255)" />
    <inkscape:grid
       type="axonomgrid"
       id="grid1389"
       units="mm"
       empspacing="5" />
  </sodipodi:namedview>
  <metadata
     id="metadata4620">
    <rdf:RDF>
      <cc:Work
         rdf:about="">
        <dc:format>image/svg+xml</dc:format>
        <dc:type
           rdf:resource="http://purl.org/dc/dcmitype/StillImage" />
        <dc:title />
      </cc:Work>
    </rdf:RDF>
  </metadata>
  <g
     inkscape:label="watermark"
     inkscape:groupmode="layer"
     id="layer1"
     transform="translate(5.1800203,-240.86796)"
     sodipodi:insensitive="true">
    <g
       id="g5353"
       transform="matrix(0.89623584,0,0,0.89623584,-1.2321384,28.09939)"
       style="stroke-width:1.11577785">
      <text
         xml:space="preserve"
         style="font-style:normal;font-variant:normal;font-weight:normal;font-stretch:normal;font-size:28.01556396px;line-height:1.29999995;font-family:Quicksand;-inkscape-font-specification:'Quicksand, Normal';font-variant-ligatures:normal;font-variant-position:normal;font-variant-caps:normal;font-variant-numeric:normal;font-variant-alternates:normal;font-feature-settings:normal;text-indent:0;text-align:center;text-decoration:none;text-decoration-line:none;text-decoration-style:solid;text-decoration-color:#000000;letter-spacing:0px;word-spacing:0px;text-transform:none;writing-mode:lr-tb;direction:ltr;text-orientation:mixed;dominant-baseline:auto;baseline-shift:baseline;text-anchor:middle;white-space:normal;shape-padding:0;opacity:1;vector-effect:none;fill:#555555;fill-opacity:1;stroke:none;stroke-width:3.17272329px;stroke-linecap:butt;stroke-linejoin:miter;stroke-miterlimit:4;stroke-dasharray:none;stroke-dashoffset:0;stroke-opacity:1"
         x="44.292774"
         y="218.67326"
         id="text2653"><tspan
           sodipodi:role="line"
           id="tspan2651"
           x="44.292774"
           y="245.28806"
           style="stroke-width:3.17272329px" /></text>
      <text
         xml:space="preserve"
         style="font-style:normal;font-variant:normal;font-weight:normal;font-stretch:normal;font-size:4.72345829px;line-height:1.25;font-family:Quicksand;-inkscape-font-specification:Quicksand;text-align:end;letter-spacing:0px;word-spacing:0px;text-anchor:end;fill:#d3d3d3;fill-opacity:1;stroke:none;stroke-width:0.29521614"
         x="167.17076"
         y="298.24545"
         id="text7806"><tspan
           sodipodi:role="line"
           id="tspan7804"
           x="167.17076"
           y="298.24545"
           style="font-size:4.72345829px;text-align:end;text-anchor:end;fill:#d3d3d3;stroke-width:0.29521614">Meer op: https://hoezithet.nu</tspan></text>
    </g>
  </g>
  <g
     inkscape:groupmode="layer"
     id="layer2"
     inkscape:label="Layer 1"
     transform="translate(5.1800203,-240.86796)" />
  <g
     id="g1358"
     transform="translate(97.345658,-2.645833)">
    <g
       transform="matrix(0.04343251,0,0,0.04343251,-7.4039389,2.2856407)"
       id="XMLID_228_">
      <polygon
         transform="translate(-106.87861,61.63523)"
         points="525.7,669.8 525.7,307.6 551.5,322.6 551.5,684.8 "
         id="XMLID_221_"
         style="clip-rule:evenodd;fill:#d3c8d7;fill-rule:evenodd" />
      <path
         sodipodi:nodetypes="ccccc"
         inkscape:connector-curvature="0"
         id="XMLID_226_"
         d="M 808.52139,926.44814 1278.8,654.8 915.4,444.9 444.62139,716.54814 Z"
         style="clip-rule:evenodd;fill:#ecb160;fill-rule:evenodd" />
      <path
         sodipodi:nodetypes="ccccc"
         inkscape:connector-curvature="0"
         id="XMLID_225_"
         d="m 808.51097,956.34123 -363.88958,-209.906 v -29.9 l 363.88958,209.906 z"
         style="clip-rule:evenodd;fill:#d3c8d7;fill-rule:evenodd" />
      <path
         sodipodi:nodetypes="ccccc"
         inkscape:connector-curvature="0"
         id="XMLID_224_"
         d="M 1280.6,683.7 V 653.8 L 808.49911,926.43439 v 29.9 z"
         style="clip-rule:evenodd;fill:#e4d6d4;fill-rule:evenodd" />
      <polygon
         points="915.4,115.2 915.4,85.4 1304.7,308.1 1278.7,322.9 "
         id="XMLID_223_"
         style="clip-rule:evenodd;fill:#f6f5f0;fill-rule:evenodd" />
      <polygon
         points="915.4,448.6 915.4,115.1 1278.7,322.9 1278.8,654.8 "
         id="XMLID_222_"
         style="clip-rule:evenodd;fill:#51342c;fill-rule:evenodd" />
      <path
         sodipodi:nodetypes="ccccc"
         inkscape:connector-curvature="0"
         id="XMLID_220_"
         d="m 915.4,85.4 -496.90355,283.90445 25.9,14.8 L 915.4,115.2 Z"
         style="clip-rule:evenodd;fill:#d0d1d3;fill-rule:evenodd" />
      <path
         sodipodi:nodetypes="ccccc"
         inkscape:connector-curvature="0"
         id="XMLID_219_"
         d="M 915.3,115 444.398,384.10535 v 331.9 L 915.3,448.6 Z"
         style="clip-rule:evenodd;fill:#5e4038;fill-rule:evenodd" />
      <polygon
         points="1278.8,684.8 1304.7,669.8 1304.7,308.1 1278.7,322.9 "
         id="XMLID_218_"
         style="clip-rule:evenodd;fill:#e4d6d4;fill-rule:evenodd" />
      <polygon
         points=""
         id="XMLID_211_"
         style="clip-rule:evenodd;fill:#d3a692;fill-rule:evenodd" />
      <path
         sodipodi:nodetypes="ccccc"
         inkscape:connector-curvature="0"
         id="XMLID_210_"
         d="m 444.398,707.70487 v 7.8 L 915.3,448.6 v -11.2 z"
         style="clip-rule:evenodd;fill:#d0d1d3;fill-rule:evenodd" />
      <path
         sodipodi:nodetypes="ccccc"
         inkscape:connector-curvature="0"
         id="XMLID_209_"
         d="M 808.51097,934.54213 444.62139,724.64814 v -8.1 l 363.88958,209.89399 z"
         style="clip-rule:evenodd;fill:#c7b68b;fill-rule:evenodd" />
      <path
         sodipodi:nodetypes="ccccc"
         inkscape:connector-curvature="0"
         id="XMLID_208_"
         d="m 1278.8,663 v -8.2 L 808.50917,926.44019 v 8.1 z"
         style="clip-rule:evenodd;fill:#e8e1cc;fill-rule:evenodd" />
      <polygon
         points="893.6,703.2 922.5,720.3 930.4,724.9 959.3,742 967.2,746.6 996.1,763.7 1003.3,767.9 1010.7,763.7 1040.3,746.6 1040.9,746.3 1045,748.7 1003.3,772.7 827.7,669.1 831.9,666.8 848.9,676.9 856.8,681.5 885.7,698.6 "
         id="XMLID_207_"
         style="clip-rule:evenodd;fill:#eaa245;fill-rule:evenodd" />
      <polygon
         points="825.5,663.1 1003.3,767.9 1173.9,669.7 996.2,564.7 "
         id="XMLID_206_"
         style="clip-rule:evenodd;fill:#fccf90;fill-rule:evenodd" />
      <rect
         height="2.5999999"
         width="0"
         y="479"
         x="649.90002"
         id="XMLID_204_"
         style="clip-rule:evenodd;fill:#e9dfdd;fill-rule:evenodd" />
      <g
         id="g2817">
        <polygon
           style="clip-rule:evenodd;fill:#fefce7;fill-rule:evenodd"
           id="XMLID_205_"
           points="813.2,386.3 813.2,225.8 648.8,319.7 648.8,480.9 " />
        <path
           style="clip-rule:evenodd;fill:#9dd8f7;fill-rule:evenodd"
           inkscape:connector-curvature="0"
           id="XMLID_203_"
           d="m 734.3,431.7 c 20,-20.1 40,-40.1 60,-60.1 l 3.4,1.8 v 3.8 l 15.6,8.9 v 0.1 z" />
        <polygon
           style="clip-rule:evenodd;fill:#e0dbda;fill-rule:evenodd"
           id="XMLID_202_"
           points="797.6,377.2 648.8,464.1 648.8,480.8 649,480.9 677.2,464.9 813.2,386.3 " />
        <polygon
           style="clip-rule:evenodd;fill:#d3a692;fill-rule:evenodd"
           id="XMLID_200_"
           points="813.2,389.3 651.5,482.6 " />
        <polygon
           style="clip-rule:evenodd;fill:#bfbab9;fill-rule:evenodd"
           id="XMLID_199_"
           points="797.6,377.2 813.2,386.2 813.2,225.8 797.6,234.8 " />
        <polygon
           style="clip-rule:evenodd;fill:#ecb9a2;fill-rule:evenodd"
           id="XMLID_198_"
           points="807.4,370.8 800.1,367.3 648.8,455.4 648.8,463.1 " />
        <polygon
           style="clip-rule:evenodd;fill:#ba7f64;fill-rule:evenodd"
           id="XMLID_197_"
           points="807.4,383.3 807.4,370.7 648.8,463.1 648.8,474.6 " />
        <polygon
           style="clip-rule:evenodd;fill:#ba7f64;fill-rule:evenodd"
           id="XMLID_196_"
           points="799.9,374.6 807.4,370.7 807.4,229 799.9,233.3 " />
        <polygon
           style="clip-rule:evenodd;fill:#cd9378;fill-rule:evenodd"
           id="XMLID_195_"
           points="799.9,374.6 793.4,371.2 793.4,237 799.9,233.3 " />
      </g>
      <path
         d="M 1038.3,599.9 H 1025 l 6.7,-3.9 3.9,2.3 z m -94.9,-4.7 -8.1,4.7 h 18.3 l -8.1,-4.7 z"
         id="XMLID_320_"
         inkscape:connector-curvature="0"
         style="clip-rule:evenodd;fill:#fcc881;fill-rule:evenodd" />
      <g
         transform="translate(49.311749,-24.924189)"
         id="g2755">
        <polygon
           style="clip-rule:evenodd;fill:#7d3d31;fill-rule:evenodd"
           id="XMLID_192_"
           points="710.3,485.2 710.3,553.5 816.9,497.8 816.9,422.1 " />
        <polygon
           style="clip-rule:evenodd;fill:#d8c38d;fill-rule:evenodd"
           id="XMLID_191_"
           points="717.7,489.4 717.7,541.4 809.6,493.3 809.6,435 " />
        <polygon
           style="clip-rule:evenodd;fill:#eaa245;fill-rule:evenodd"
           id="XMLID_190_"
           points="918.9,653.8 922.7,651.5 992.4,610.3 992.4,609.8 992.4,616.4 927.8,654.5 921.1,658.5 892.3,675.5 886.1,679.2 879.6,675.5 849.8,658.5 841.7,653.8 840.6,653.2 698,571.7 710.2,564.7 710.2,572.5 766.3,604.7 845.7,650.3 851.8,653.8 859.9,658.5 870.7,664.7 870.7,664.4 886.1,673.2 911,658.5 " />
        <polygon
           style="clip-rule:evenodd;fill:#532e1b;fill-rule:evenodd"
           id="XMLID_189_"
           points="710.2,544.1 992.4,581.9 992.4,610.3 886.1,673.2 710.2,572.5 " />
        <polygon
           style="clip-rule:evenodd;fill:#7b3f27;fill-rule:evenodd"
           id="XMLID_188_"
           points="886.1,567.6 886.1,673.2 992.4,610.3 992.4,581.9 " />
        <polygon
           style="clip-rule:evenodd;fill:#7d3d31;fill-rule:evenodd"
           id="XMLID_187_"
           points="992.4,581.9 886.1,644.8 710.2,544.1 816.5,481.1 " />
        <polygon
           style="clip-rule:evenodd;fill:#7d3d31;fill-rule:evenodd"
           id="XMLID_186_"
           points="873.7,633.7 870.7,636.2 766.3,576.3 769.4,574.8 " />
        <polygon
           style="clip-rule:evenodd;fill:#dedede;fill-rule:evenodd"
           id="XMLID_185_"
           points="716.4,526.4 987.3,562.7 987.3,580.7 885.2,641.2 716.4,544.5 " />
        <polygon
           style="clip-rule:evenodd;fill:#cac9c9;fill-rule:evenodd"
           id="XMLID_184_"
           points="885.2,549 885.2,641.2 987.3,580.7 987.3,562.7 " />
        <polygon
           style="clip-rule:evenodd;fill:#f5f5f5;fill-rule:evenodd"
           id="XMLID_183_"
           points="987.3,562.7 885.2,623.1 716.4,526.4 818.4,465.9 " />
        <path
           style="clip-rule:evenodd;fill:#793e1b;fill-rule:evenodd"
           inkscape:connector-curvature="0"
           id="XMLID_182_"
           d="m 737.6,513.8 c -1.2,-1.9 -0.6,-3.2 -0.6,-3.2 0,0 0.8,-1.5 2.5,-3.8 0.4,0.7 1.1,1.6 2.4,2.5 0.4,0.3 0.9,0.6 1.6,1 z" />
        <path
           style="clip-rule:evenodd;fill:#d0d1d3;fill-rule:evenodd"
           inkscape:connector-curvature="0"
           id="XMLID_181_"
           d="m 771.9,535.3 c -0.3,0 -0.6,-0.1 -0.7,-0.2 -3.9,-3 -27,-16.1 -31.2,-19 -1.2,-0.8 -1.9,-1.6 -2.4,-2.3 l 5.9,-3.5 c 6.2,3.9 23.7,13.9 27,16.4 0.1,0.1 0.4,0.1 0.7,0.1 7.3,0 61.8,-29.7 61.8,-36.7 0,-0.2 -0.1,-0.4 -0.2,-0.6 -1.4,-2.2 -4.1,-4.9 -7.7,-7.7 6.7,4.5 11.9,9.3 14.2,12.7 4.1,6.2 -59.1,40.8 -67.4,40.8 z" />
        <polygon
           style="clip-rule:evenodd;fill:#1f191d;fill-rule:evenodd"
           id="XMLID_180_"
           points="769.5,556.7 769.4,574.8 789.6,586.4 873.7,634.6 873.7,616.3 797.9,572.9 789.5,568.1 " />
        <polygon
           style="clip-rule:evenodd;fill:#c2b6b4;fill-rule:evenodd"
           id="XMLID_178_"
           points="899.7,512.3 871.5,496.2 899.7,512.2 " />
        <polygon
           style="clip-rule:evenodd;fill:#a05830;fill-rule:evenodd"
           id="XMLID_177_"
           points="816.9,422.1 710.3,485.2 702.9,481.1 809.5,417.9 " />
        <polygon
           style="clip-rule:evenodd;fill:#793e1b;fill-rule:evenodd"
           id="XMLID_176_"
           points="710.3,485.2 702.9,481.1 702.9,568.5 710.3,572.7 " />
        <path
           style="clip-rule:evenodd;fill:#f7ebbc;fill-rule:evenodd"
           inkscape:connector-curvature="0"
           id="XMLID_175_"
           d="m 801.9,468.7 c -41.4,-1.5 -62.6,35.6 -62.6,35.6 0,0 -1.2,2.3 2.7,5 3.9,2.7 25,14.7 28.5,17.4 3.6,2.7 66.2,-31.3 62.3,-37.1 -3.9,-5.8 -17,-15.9 -30.9,-20.9 z" />
        <path
           style="clip-rule:evenodd;fill:#f7e6aa;fill-rule:evenodd"
           inkscape:connector-curvature="0"
           id="XMLID_174_"
           d="m 771.1,526.9 c -0.3,0 -0.5,0 -0.7,-0.1 -3.6,-2.7 -24.7,-14.7 -28.5,-17.4 -2.4,-1.7 -2.9,-3.2 -2.9,-4.2 0,-0.5 0.2,-0.9 0.2,-0.9 v 0 c 0,0 2.1,-3.6 6.1,-8.4 l 0.2,0.1 c 3.9,2.7 25,14.7 28.5,17.4 0.1,0.1 0.4,0.1 0.7,0.1 5.6,0 38.7,-17.3 54,-28.6 1.8,1.7 3.2,3.3 4.1,4.6 0.1,0.2 0.2,0.4 0.2,0.6 0,7 -54.5,36.8 -61.9,36.8 z" />
        <path
           style="clip-rule:evenodd;fill:#d99a43;fill-rule:evenodd"
           inkscape:connector-curvature="0"
           id="XMLID_173_"
           d="m 701.2,651.7 c 0,0 0,0 0,0 0,0 0,0 0,0 z" />
        <polygon
           transform="translate(-102.1,60.500002)"
           points="710.3,485.2 710.3,553.5 816.9,497.8 816.9,422.1 "
           id="XMLID_192_-7"
           style="clip-rule:evenodd;fill:#7d3d31;fill-rule:evenodd" />
        <polygon
           transform="translate(-102.1,60.500002)"
           points="717.7,489.4 717.7,541.4 809.6,493.3 809.6,435 "
           id="XMLID_191_-0"
           style="clip-rule:evenodd;fill:#d8c38d;fill-rule:evenodd" />
        <polygon
           transform="translate(-102.1,60.500002)"
           points="840.6,653.2 698,571.7 710.2,564.7 710.2,572.5 766.3,604.7 845.7,650.3 851.8,653.8 859.9,658.5 870.7,664.7 870.7,664.4 886.1,673.2 911,658.5 918.9,653.8 922.7,651.5 992.4,610.3 992.4,609.8 992.4,616.4 927.8,654.5 921.1,658.5 892.3,675.5 886.1,679.2 879.6,675.5 849.8,658.5 841.7,653.8 "
           id="XMLID_190_-3"
           style="clip-rule:evenodd;fill:#eaa245;fill-rule:evenodd" />
        <polygon
           transform="translate(-102.1,60.500002)"
           points="992.4,610.3 886.1,673.2 710.2,572.5 710.2,544.1 992.4,581.9 "
           id="XMLID_189_-4"
           style="clip-rule:evenodd;fill:#532e1b;fill-rule:evenodd" />
        <polygon
           transform="translate(-102.1,60.500002)"
           points="886.1,567.6 886.1,673.2 992.4,610.3 992.4,581.9 "
           id="XMLID_188_-6"
           style="clip-rule:evenodd;fill:#7b3f27;fill-rule:evenodd" />
        <polygon
           transform="translate(-102.1,60.500002)"
           points="992.4,581.9 886.1,644.8 710.2,544.1 816.5,481.1 "
           id="XMLID_187_-3"
           style="clip-rule:evenodd;fill:#7d3d31;fill-rule:evenodd" />
        <polygon
           transform="translate(-102.1,60.500002)"
           points="873.7,633.7 870.7,636.2 766.3,576.3 769.4,574.8 "
           id="XMLID_186_-6"
           style="clip-rule:evenodd;fill:#7d3d31;fill-rule:evenodd" />
        <polygon
           transform="translate(-102.1,60.500002)"
           points="987.3,580.7 885.2,641.2 716.4,544.5 716.4,526.4 987.3,562.7 "
           id="XMLID_185_-3"
           style="clip-rule:evenodd;fill:#dedede;fill-rule:evenodd" />
        <polygon
           transform="translate(-102.1,60.500002)"
           points="885.2,549 885.2,641.2 987.3,580.7 987.3,562.7 "
           id="XMLID_184_-3"
           style="clip-rule:evenodd;fill:#cac9c9;fill-rule:evenodd" />
        <polygon
           transform="translate(-102.1,60.500002)"
           points="987.3,562.7 885.2,623.1 716.4,526.4 818.4,465.9 "
           id="XMLID_183_-4"
           style="clip-rule:evenodd;fill:#f5f5f5;fill-rule:evenodd" />
        <path
           d="m 635.5,574.3 c -1.2,-1.9 -0.6,-3.2 -0.6,-3.2 0,0 0.8,-1.5 2.5,-3.8 0.4,0.7 1.1,1.6 2.4,2.5 0.4,0.3 0.9,0.6 1.6,1 z"
           id="XMLID_182_-4"
           inkscape:connector-curvature="0"
           style="clip-rule:evenodd;fill:#793e1b;fill-rule:evenodd" />
        <path
           d="m 669.8,595.8 c -0.3,0 -0.6,-0.1 -0.7,-0.2 -3.9,-3 -27,-16.1 -31.2,-19 -1.2,-0.8 -1.9,-1.6 -2.4,-2.3 l 5.9,-3.5 c 6.2,3.9 23.7,13.9 27,16.4 0.1,0.1 0.4,0.1 0.7,0.1 7.3,0 61.8,-29.7 61.8,-36.7 0,-0.2 -0.1,-0.4 -0.2,-0.6 -1.4,-2.2 -4.1,-4.9 -7.7,-7.7 6.7,4.5 11.9,9.3 14.2,12.7 4.1,6.2 -59.1,40.8 -67.4,40.8 z"
           id="XMLID_181_-3"
           inkscape:connector-curvature="0"
           style="clip-rule:evenodd;fill:#d0d1d3;fill-rule:evenodd" />
        <polygon
           transform="translate(-102.1,60.500002)"
           points="797.9,572.9 789.5,568.1 769.5,556.7 769.4,574.8 789.6,586.4 873.7,634.6 873.7,616.3 "
           id="XMLID_180_-9"
           style="clip-rule:evenodd;fill:#1f191d;fill-rule:evenodd" />
        <polygon
           transform="translate(-102.1,60.500002)"
           points="899.7,512.3 871.5,496.2 899.7,512.2 "
           id="XMLID_178_-2"
           style="clip-rule:evenodd;fill:#c2b6b4;fill-rule:evenodd" />
        <polygon
           transform="translate(-102.1,60.500002)"
           points="816.9,422.1 710.3,485.2 702.9,481.1 809.5,417.9 "
           id="XMLID_177_-5"
           style="clip-rule:evenodd;fill:#a05830;fill-rule:evenodd" />
        <polygon
           transform="translate(-102.1,60.500002)"
           points="710.3,485.2 702.9,481.1 702.9,568.5 710.3,572.7 "
           id="XMLID_176_-8"
           style="clip-rule:evenodd;fill:#793e1b;fill-rule:evenodd" />
        <path
           d="m 699.8,529.2 c -41.4,-1.5 -62.6,35.6 -62.6,35.6 0,0 -1.2,2.3 2.7,5 3.9,2.7 25,14.7 28.5,17.4 3.6,2.7 66.2,-31.3 62.3,-37.1 -3.9,-5.8 -17,-15.9 -30.9,-20.9 z"
           id="XMLID_175_-9"
           inkscape:connector-curvature="0"
           style="clip-rule:evenodd;fill:#f7ebbc;fill-rule:evenodd" />
        <path
           d="m 669,587.4 c -0.3,0 -0.5,0 -0.7,-0.1 -3.6,-2.7 -24.7,-14.7 -28.5,-17.4 -2.4,-1.7 -2.9,-3.2 -2.9,-4.2 0,-0.5 0.2,-0.9 0.2,-0.9 v 0 c 0,0 2.1,-3.6 6.1,-8.4 l 0.2,0.1 c 3.9,2.7 25,14.7 28.5,17.4 0.1,0.1 0.4,0.1 0.7,0.1 5.6,0 38.7,-17.3 54,-28.6 1.8,1.7 3.2,3.3 4.1,4.6 0.1,0.2 0.2,0.4 0.2,0.6 0,7 -54.5,36.8 -61.9,36.8 z"
           id="XMLID_174_-0"
           inkscape:connector-curvature="0"
           style="clip-rule:evenodd;fill:#f7e6aa;fill-rule:evenodd" />
        <path
           d="m 599.1,712.2 c 0,0 0,0 0,0 0,0 0,0 0,0 z"
           id="XMLID_173_-2"
           inkscape:connector-curvature="0"
           style="clip-rule:evenodd;fill:#d99a43;fill-rule:evenodd" />
        <path
           inkscape:connector-curvature="0"
           id="XMLID_179_"
           transform="matrix(5.4444438,0,0,5.4444438,-543.86665,810.57923)"
           d="m 259.96484,-57.742188 -18.73437,11.111329 3.63867,2.082031 -3.65625,-2.082031 -18.73437,11.111328 19.13867,10.947265 18.75195,-11.111328 18.75391,-11.113281 -15.44727,-8.833984 z"
           style="clip-rule:evenodd;fill:#423e3b;fill-rule:evenodd;stroke-width:0.18367349" />
      </g>
      <g
         transform="translate(-86.754405,50.173981)"
         id="g2769">
        <path
           style="clip-rule:evenodd;fill:#b7adab;fill-rule:evenodd"
           inkscape:connector-curvature="0"
           id="XMLID_201_"
           d="m 648.8,484.2 2.7,-1.5 z" />
        <polygon
           style="clip-rule:evenodd;fill:#eaa245;fill-rule:evenodd"
           id="XMLID_161_"
           points="601.8,626.2 601.8,677.1 557.5,651.7 557.5,651.3 551.6,654.7 601.8,684.2 716.5,617.2 704.8,610.6 704.8,616.8 657.1,644.8 653.3,647 601.8,677.1 " />
        <polygon
           style="clip-rule:evenodd;fill:#834c2c;fill-rule:evenodd"
           id="XMLID_160_"
           points="601.8,407.3 557.5,381.9 661.1,323.1 704.8,347.1 " />
        <polygon
           style="clip-rule:evenodd;fill:#6c3e26;fill-rule:evenodd"
           id="XMLID_159_"
           points="597.8,405 598.3,405.3 601.8,407.3 704.8,347.1 701.3,345.2 " />
        <polygon
           style="clip-rule:evenodd;fill:#783e28;fill-rule:evenodd"
           id="XMLID_158_"
           points="704.8,347.1 704.8,616.8 601.8,677.1 601.8,407.3 " />
        <polygon
           style="clip-rule:evenodd;fill:#532e1b;fill-rule:evenodd"
           id="XMLID_148_"
           points="601.8,677.1 557.5,651.7 557.5,381.9 601.8,407.3 " />
        <polygon
           style="clip-rule:evenodd;fill:#8a6350;fill-rule:evenodd"
           id="XMLID_147_"
           points="598.3,405.3 601.8,407.3 " />
        <polygon
           style="clip-rule:evenodd;fill:#422517;fill-rule:evenodd"
           id="XMLID_146_"
           points="601.8,677.1 601.8,407.3 598.3,405.3 598.3,675.1 " />
        <polygon
           style="clip-rule:evenodd;fill:#a69e89;fill-rule:evenodd"
           id="XMLID_145_"
           points="653.3,647 657.1,644.8 " />
        <polygon
           style="clip-rule:evenodd;fill:#603120;fill-rule:evenodd"
           id="XMLID_144_"
           points="653.3,647 657.1,644.8 657.1,375 653.3,377.2 " />
        <path
           style="clip-rule:evenodd;fill:#f9c557;fill-rule:evenodd"
           inkscape:connector-curvature="0"
           id="XMLID_143_"
           d="m 667.1,519.2 c 1,-0.6 2,-0.7 2.7,-0.4 0.7,0.3 1.1,1 1.2,2.1 0,1.1 -0.4,2.2 -1.1,3.3 -0.7,1.1 -1.6,2 -2.7,2.6 -1.1,0.6 -2,0.7 -2.7,0.3 -0.7,-0.3 -1.1,-1 -1.1,-2.1 0,-1 0.4,-2.2 1.1,-3.3 0.6,-1 1.5,-1.9 2.6,-2.5 z" />
        <path
           style="clip-rule:evenodd;fill:#f9c557;fill-rule:evenodd"
           inkscape:connector-curvature="0"
           id="XMLID_142_"
           d="m 643.2,532.3 c 1,-0.5 1.9,-0.6 2.6,-0.3 0.7,0.3 1.1,1 1.1,2.1 0,1 -0.4,2.2 -1.1,3.2 -0.7,1 -1.6,1.9 -2.6,2.5 -1,0.5 -1.9,0.6 -2.5,0.3 -0.7,-0.3 -1.1,-1 -1.1,-2.1 0,-1 0.4,-2.2 1,-3.2 0.7,-1 1.6,-1.9 2.6,-2.5 z" />
      </g>
      <polygon
         points="915.3,437.4 1278.8,642.6 1278.8,654.8 915.3,448.6 "
         id="XMLID_141_"
         style="clip-rule:evenodd;fill:#c6cacd;fill-rule:evenodd" />
      <polygon
         points=""
         id="XMLID_133_"
         style="clip-rule:evenodd;fill:#b9aeac;fill-rule:evenodd" />
      <polygon
         points=""
         id="XMLID_117_"
         style="clip-rule:evenodd;fill:#d3a692;fill-rule:evenodd" />
      <g
         id="g2802">
        <polygon
           style="clip-rule:evenodd;fill:#9e6a52;fill-rule:evenodd"
           id="XMLID_113_"
           points="1257,514.6 1253.2,516.3 1171.9,384 1175.8,382.3 1257,429.4 " />
        <polygon
           style="clip-rule:evenodd;fill:#d4977d;fill-rule:evenodd"
           id="XMLID_112_"
           points="1253.2,516.3 1171.9,469.2 1171.9,384 1253.2,431.1 " />
      </g>
      <g
         id="g2806">
        <polygon
           style="clip-rule:evenodd;fill:#9e6a52;fill-rule:evenodd"
           id="XMLID_111_"
           points="1010.2,372.1 1006.3,373.8 925.1,241.5 928.9,239.9 1010.2,286.9 " />
        <polygon
           style="clip-rule:evenodd;fill:#d4977d;fill-rule:evenodd"
           id="XMLID_110_"
           points="1006.3,373.8 925.1,326.7 925.1,241.5 1006.3,288.6 " />
      </g>
      <g
         id="g2798">
        <polygon
           style="clip-rule:evenodd;fill:#412a25;fill-rule:evenodd"
           id="XMLID_140_"
           points="1153,467.5 1043.1,403.5 1043.1,392.7 1118.8,436.7 1150,419.6 1153,421.4 1153,418 1153.6,417.6 " />
        <path
           style="clip-rule:evenodd;fill:#412a25;fill-rule:evenodd"
           inkscape:connector-curvature="0"
           id="XMLID_139_"
           d="m 1153,417.3 c -38.1,-22 -74.9,-43.3 -109.7,-63.4 l -0.2,0.1 v -10.6 l 75.6,44 32.1,-17.6 2.7,1.6 z" />
        <polygon
           style="clip-rule:evenodd;fill:#b9aeac;fill-rule:evenodd"
           id="XMLID_138_"
           points="1150,419.6 1153,418 1153,421.4 " />
        <polygon
           style="clip-rule:evenodd;fill:#ecb9a2;fill-rule:evenodd"
           id="XMLID_137_"
           points="1118.8,436.7 1153.6,417.6 1043.3,353.9 1008.9,372.8 " />
        <polygon
           style="clip-rule:evenodd;fill:#c2b6b4;fill-rule:evenodd"
           id="XMLID_136_"
           points="1043.1,354 1031.3,360.5 " />
        <polygon
           style="clip-rule:evenodd;fill:#ba7f64;fill-rule:evenodd"
           id="XMLID_135_"
           points="1118.8,440 1153.6,420.9 1153.6,417.6 1118.8,436.7 " />
        <polygon
           style="clip-rule:evenodd;fill:#d4977d;fill-rule:evenodd"
           id="XMLID_134_"
           points="1118.8,440 1118.8,436.7 1008.9,372.8 1008.9,376 " />
        <polygon
           style="clip-rule:evenodd;fill:#b9aeac;fill-rule:evenodd"
           id="XMLID_132_"
           points="1069.5,367.6 1070.2,368 1069.5,367.6 1069.5,366.1 " />
        <polygon
           style="clip-rule:evenodd;fill:#b9aeac;fill-rule:evenodd"
           id="XMLID_131_"
           points="1058.5,359.7 1055.9,361.2 " />
        <polygon
           style="clip-rule:evenodd;fill:#d5a793;fill-rule:evenodd"
           id="XMLID_130_"
           points="1055.9,361.2 1047.9,365.9 " />
        <polygon
           style="clip-rule:evenodd;fill:#ecb9a2;fill-rule:evenodd"
           id="XMLID_129_"
           points="1118.8,387.5 1153.6,368.4 1043.3,304.7 1008.9,323.5 " />
        <polygon
           style="clip-rule:evenodd;fill:#ba7f64;fill-rule:evenodd"
           id="XMLID_128_"
           points="1118.8,390.8 1153.6,371.7 1153.6,368.4 1118.8,387.5 " />
        <polygon
           style="clip-rule:evenodd;fill:#d4977d;fill-rule:evenodd"
           id="XMLID_127_"
           points="1118.8,390.8 1118.8,387.5 1008.9,323.5 1008.9,326.8 " />
        <path
           style="clip-rule:evenodd;fill:#d3a692;fill-rule:evenodd"
           inkscape:connector-curvature="0"
           id="XMLID_125_"
           d="m 1045.8,332.1 c -9.2,0 -16.6,-4.5 -16.7,-10.1 -0.1,-5.5 6.6,-10.1 15.3,-10.8 v 8.2 c 0,0.8 0.7,1.1 1.5,1.1 0.8,0 1.5,-0.3 1.5,-1.1 v -8.3 c 8.8,0.2 15.9,4.6 16,10.1 0.1,5.8 -7.4,10.7 -16.9,10.9 -0.3,0 -0.5,0 -0.7,0 z" />
        <path
           style="clip-rule:evenodd;fill:#342d2a;fill-rule:evenodd"
           inkscape:connector-curvature="0"
           id="XMLID_124_"
           d="m 1059.1,322.3 c -0.8,4.8 -5,7.9 -12.2,8.1 -7.2,0.1 -13.8,-2.8 -13.9,-7.2 0,-0.5 0,-3.2 0.2,-3.7 1.1,-3.7 6.1,-4.8 12.4,-4.9 6.7,-0.1 12.8,1.2 13.6,5.2 0,0.2 -0.1,2.2 -0.1,2.5 z" />
        <path
           style="clip-rule:evenodd;fill:#4a403c;fill-rule:evenodd"
           inkscape:connector-curvature="0"
           id="XMLID_123_"
           d="m 1059.2,320.1 c 0.1,4.4 -5.7,8.1 -12.9,8.3 -7.2,0.1 -13.1,-3.3 -13.2,-7.7 -0.1,-4.4 5.7,-8.1 12.9,-8.3 7.2,-0.2 13.1,3.3 13.2,7.7 z" />
        <path
           style="clip-rule:evenodd;fill:#a18a82;fill-rule:evenodd"
           inkscape:connector-curvature="0"
           id="XMLID_121_"
           d="m 1047.3,298.7 c 0,-0.8 -0.7,-1.5 -1.5,-1.5 -0.8,0 -1.5,0.7 -1.5,1.5 v 20.7 c 0,0.8 0.7,1.1 1.5,1.1 0.8,0 1.5,-0.3 1.5,-1.1 z" />
        <path
           style="clip-rule:evenodd;fill:#dad7cd;fill-rule:evenodd"
           inkscape:connector-curvature="0"
           id="XMLID_119_"
           d="m 1031.6,273.1 c 9.5,-1.7 19,-1.7 28.6,0 -9.3,2.1 -18.9,2.1 -28.6,0 z" />
        <path
           style="clip-rule:evenodd;fill:#927c76;fill-rule:evenodd"
           inkscape:connector-curvature="0"
           id="XMLID_118_"
           d="m 1047.3,304.8 h -3 v -3.1 c 0.5,0 1,0.1 1.5,0.1 0.5,0 1,0 1.5,-0.1 z" />
        <path
           style="clip-rule:evenodd;fill:#ffffff;fill-rule:evenodd"
           inkscape:connector-curvature="0"
           id="XMLID_114_"
           d="m 1031.6,273.1 c 9.7,2.2 19.3,2.2 28.6,0 v 28.7 c -9.5,2.1 -19.1,2.1 -28.6,0 z" />
        <polygon
           style="clip-rule:evenodd;fill:#dfaf9b;fill-rule:evenodd"
           id="XMLID_109_"
           points="1113,350.7 1139.5,365.4 1115.1,378.3 1071,354.2 1098.3,338.1 1116.1,348.5 " />
        <polygon
           style="clip-rule:evenodd;fill:#dedede;fill-rule:evenodd"
           id="XMLID_107_"
           points="1134.4,362.9 1134.4,357.9 1114.4,368.6 1114.4,373.5 " />
        <polygon
           style="clip-rule:evenodd;fill:#cac9c9;fill-rule:evenodd"
           id="XMLID_105_"
           points="1082,355.7 1082,350.8 1114.4,368.6 1114.4,373.5 " />
        <polygon
           style="clip-rule:evenodd;fill:#79979e;fill-rule:evenodd"
           id="XMLID_104_"
           points="1134.4,357.9 1102,339 1082,350.9 1114.4,368.6 " />
        <polygon
           style="clip-rule:evenodd;fill:#dedede;fill-rule:evenodd"
           id="XMLID_96_"
           points="1130.3,356.4 1130.3,352.2 1113.4,361.2 1113.4,365.4 " />
        <polygon
           style="clip-rule:evenodd;fill:#cac9c9;fill-rule:evenodd"
           id="XMLID_94_"
           points="1086.1,350.3 1086.1,346.1 1113.4,361.2 1113.4,365.4 " />
        <polygon
           style="clip-rule:evenodd;fill:#79979e;fill-rule:evenodd"
           id="XMLID_91_"
           points="1130.3,352.2 1103,336.2 1086.1,346.2 1113.4,361.2 " />
      </g>
      <polygon
         points=""
         id="XMLID_82_"
         style="clip-rule:evenodd;fill:#d3a692;fill-rule:evenodd" />
    </g>
    <path
       sodipodi:nodetypes="ccc"
       inkscape:connector-curvature="0"
       d="M 51.419295,33.352585 27.431708,47.201824 8.009454,35.988379"
       style="opacity:1;vector-effect:none;fill:none;fill-opacity:1;stroke:#d3d3d3;stroke-width:0.42375457;stroke-linecap:round;stroke-linejoin:miter;stroke-miterlimit:4;stroke-dasharray:0.84750916, 1.69501832;stroke-dashoffset:0;stroke-opacity:1"
       id="path4479" />
    <path
       style="opacity:1;vector-effect:none;fill:none;fill-opacity:1;stroke:#ff6300;stroke-width:0.34405339;stroke-linecap:round;stroke-linejoin:miter;stroke-miterlimit:4;stroke-dasharray:none;stroke-dashoffset:0;stroke-opacity:1;marker-start:url(#Arrow2Mstart);marker-end:url(#Arrow2Mend)"
       d="M 29.683433,48.666492 53.472292,34.931988"
       id="path1167"
       inkscape:connector-curvature="0"
       sodipodi:nodetypes="cc" />
    <g
       style="fill:#ff6300;fill-opacity:1"
       transform="matrix(0.57286947,-0.33074649,0.57286947,0.33074649,-123.46273,54.224691)"
       ns1:version="0.9.0"
       ns1:texconverter="pdflatex"
       ns1:pdfconverter="pdf2svg"
       ns1:text="lengte"
       ns1:preamble="/home/fdf/.config/inkscape/extensions/textext/default_packages.tex"
       ns1:scale="1.92385834868"
       ns1:alignment="middle center"
       inkscapeversion="0.92.4"
       ns1:jacobian_sqrt="0.678694"
       id="g1864">
      <g
         style="fill:#ff6300;fill-opacity:1"
         id="surface1">
        <g
           style="fill:#ff6300;fill-opacity:1"
           id="g1861">
          <path
             inkscape:connector-curvature="0"
             style="fill:#ff6300;fill-opacity:1;stroke:none;stroke-width:0"
             d="M 1.765625,-6.921875 0.328125,-6.8125 V -6.5 c 0.703125,0 0.78125,0.0625 0.78125,0.5625 V -0.75 c 0,0.4375 -0.109375,0.4375 -0.78125,0.4375 V 0 C 0.65625,-0.015625 1.1875,-0.03125 1.4375,-0.03125 c 0.25,0 0.734375,0.015625 1.109375,0.03125 v -0.3125 c -0.671875,0 -0.78125,0 -0.78125,-0.4375 z m 0,0"
             transform="translate(148.712,134.765)"
             id="path1849" />
          <path
             inkscape:connector-curvature="0"
             style="fill:#ff6300;fill-opacity:1;stroke:none;stroke-width:0"
             d="M 1.109375,-2.515625 C 1.171875,-4 2.015625,-4.25 2.359375,-4.25 c 1.015625,0 1.125,1.34375 1.125,1.734375 z m 0,0.21875 h 2.78125 c 0.21875,0 0.25,0 0.25,-0.21875 0,-0.984375 -0.546875,-1.953125 -1.78125,-1.953125 -1.15625,0 -2.078125,1.03125 -2.078125,2.28125 0,1.328125 1.046875,2.296875 2.1875,2.296875 C 3.6875,0.109375 4.140625,-1 4.140625,-1.1875 4.140625,-1.28125 4.0625,-1.3125 4,-1.3125 c -0.078125,0 -0.109375,0.0625 -0.125,0.140625 -0.34375,1.03125 -1.25,1.03125 -1.34375,1.03125 -0.5,0 -0.890625,-0.296875 -1.125,-0.671875 -0.296875,-0.46875 -0.296875,-1.125 -0.296875,-1.484375 z m 0,0"
             transform="translate(151.47961,134.765)"
             id="path1851" />
          <path
             inkscape:connector-curvature="0"
             style="fill:#ff6300;fill-opacity:1;stroke:none;stroke-width:0"
             d="M 1.09375,-3.421875 V -0.75 c 0,0.4375 -0.109375,0.4375 -0.78125,0.4375 V 0 c 0.359375,-0.015625 0.859375,-0.03125 1.140625,-0.03125 0.25,0 0.765625,0.015625 1.109375,0.03125 v -0.3125 c -0.671875,0 -0.78125,0 -0.78125,-0.4375 V -2.59375 C 1.78125,-3.625 2.5,-4.1875 3.125,-4.1875 c 0.640625,0 0.75,0.53125 0.75,1.109375 V -0.75 c 0,0.4375 -0.109375,0.4375 -0.78125,0.4375 V 0 c 0.34375,-0.015625 0.859375,-0.03125 1.125,-0.03125 0.25,0 0.78125,0.015625 1.109375,0.03125 v -0.3125 c -0.515625,0 -0.765625,0 -0.765625,-0.296875 v -1.90625 c 0,-0.859375 0,-1.15625 -0.3125,-1.515625 -0.140625,-0.171875 -0.46875,-0.375 -1.046875,-0.375 C 2.46875,-4.40625 2,-3.984375 1.71875,-3.359375 V -4.40625 L 0.3125,-4.296875 v 0.3125 c 0.703125,0 0.78125,0.0625 0.78125,0.5625 z m 0,0"
             transform="translate(155.90699,134.765)"
             id="path1853" />
          <path
             inkscape:connector-curvature="0"
             style="fill:#ff6300;fill-opacity:1;stroke:none;stroke-width:0"
             d="m 2.21875,-1.71875 c -0.875,0 -0.875,-1 -0.875,-1.21875 0,-0.265625 0.015625,-0.59375 0.15625,-0.84375 0.078125,-0.109375 0.3125,-0.390625 0.71875,-0.390625 0.859375,0 0.859375,0.984375 0.859375,1.21875 0,0.265625 0,0.59375 -0.15625,0.84375 C 2.84375,-2 2.609375,-1.71875 2.21875,-1.71875 Z M 1.0625,-1.328125 c 0,-0.03125 0,-0.265625 0.15625,-0.46875 0.390625,0.28125 0.8125,0.3125 1,0.3125 0.921875,0 1.609375,-0.6875 1.609375,-1.453125 0,-0.375 -0.15625,-0.734375 -0.40625,-0.96875 C 3.78125,-4.25 4.140625,-4.296875 4.3125,-4.296875 c 0.03125,0 0.078125,0 0.109375,0.015625 C 4.3125,-4.25 4.25,-4.140625 4.25,-4.015625 c 0,0.171875 0.140625,0.28125 0.296875,0.28125 0.09375,0 0.28125,-0.0625 0.28125,-0.296875 0,-0.171875 -0.109375,-0.484375 -0.5,-0.484375 -0.203125,0 -0.640625,0.0625 -1.0625,0.46875 C 2.84375,-4.375 2.4375,-4.40625 2.21875,-4.40625 c -0.9375,0 -1.625,0.6875 -1.625,1.453125 0,0.4375 0.21875,0.8125 0.46875,1.03125 -0.125,0.140625 -0.3125,0.46875 -0.3125,0.828125 0,0.3125 0.140625,0.6875 0.453125,0.890625 -0.609375,0.15625 -0.921875,0.59375 -0.921875,0.984375 0,0.71875 0.984375,1.265625 2.203125,1.265625 1.171875,0 2.203125,-0.5 2.203125,-1.28125 0,-0.34375 -0.125,-0.859375 -0.640625,-1.140625 -0.53125,-0.265625 -1.109375,-0.265625 -1.71875,-0.265625 -0.25,0 -0.671875,0 -0.75,-0.015625 C 1.265625,-0.703125 1.0625,-1 1.0625,-1.328125 Z M 2.5,1.828125 c -1.015625,0 -1.703125,-0.515625 -1.703125,-1.046875 0,-0.453125 0.375,-0.828125 0.8125,-0.84375 h 0.59375 c 0.859375,0 1.96875,0 1.96875,0.84375 0,0.546875 -0.703125,1.046875 -1.671875,1.046875 z m 0,0"
             transform="translate(161.44221,134.765)"
             id="path1855" />
          <path
             inkscape:connector-curvature="0"
             style="fill:#ff6300;fill-opacity:1;stroke:none;stroke-width:0"
             d="m 1.71875,-3.984375 h 1.4375 v -0.3125 H 1.71875 V -6.125 h -0.25 c 0,0.8125 -0.296875,1.875 -1.28125,1.921875 v 0.21875 h 0.84375 v 2.75 c 0,1.21875 0.9375,1.34375 1.296875,1.34375 0.703125,0 0.984375,-0.703125 0.984375,-1.34375 v -0.5625 h -0.25 V -1.25 c 0,0.734375 -0.296875,1.109375 -0.671875,1.109375 -0.671875,0 -0.671875,-0.90625 -0.671875,-1.078125 z m 0,0"
             transform="translate(166.42351,134.765)"
             id="path1857" />
          <path
             inkscape:connector-curvature="0"
             style="fill:#ff6300;fill-opacity:1;stroke:none;stroke-width:0"
             d="M 1.109375,-2.515625 C 1.171875,-4 2.015625,-4.25 2.359375,-4.25 c 1.015625,0 1.125,1.34375 1.125,1.734375 z m 0,0.21875 h 2.78125 c 0.21875,0 0.25,0 0.25,-0.21875 0,-0.984375 -0.546875,-1.953125 -1.78125,-1.953125 -1.15625,0 -2.078125,1.03125 -2.078125,2.28125 0,1.328125 1.046875,2.296875 2.1875,2.296875 C 3.6875,0.109375 4.140625,-1 4.140625,-1.1875 4.140625,-1.28125 4.0625,-1.3125 4,-1.3125 c -0.078125,0 -0.109375,0.0625 -0.125,0.140625 -0.34375,1.03125 -1.25,1.03125 -1.34375,1.03125 -0.5,0 -0.890625,-0.296875 -1.125,-0.671875 -0.296875,-0.46875 -0.296875,-1.125 -0.296875,-1.484375 z m 0,0"
             transform="translate(170.29796,134.765)"
             id="path1859" />
        </g>
      </g>
    </g>
    <g
       style="fill:#357edd;fill-opacity:1"
       transform="matrix(0.57286947,0.33074649,-0.57286947,0.33074649,-5.8698775,-51.752021)"
       ns1:version="0.9.0"
       ns1:texconverter="pdflatex"
       ns1:pdfconverter="pdf2svg"
       ns1:text="breedte"
       ns1:preamble="/home/fdf/.config/inkscape/extensions/textext/default_packages.tex"
       ns1:scale="1.92385834868"
       ns1:alignment="middle center"
       inkscapeversion="0.92.4"
       ns1:jacobian_sqrt="0.678694"
       id="g2119">
      <g
         style="fill:#357edd;fill-opacity:1"
         id="g2117">
        <g
           style="fill:#357edd;fill-opacity:1"
           id="g2115">
          <path
             inkscape:connector-curvature="0"
             style="fill:#357edd;fill-opacity:1;stroke:none;stroke-width:0"
             d="m 1.71875,-3.765625 v -3.15625 L 0.28125,-6.8125 V -6.5 c 0.703125,0 0.78125,0.0625 0.78125,0.5625 V 0 h 0.25 c 0,-0.015625 0.078125,-0.15625 0.359375,-0.625 0.140625,0.234375 0.5625,0.734375 1.296875,0.734375 1.1875,0 2.21875,-0.984375 2.21875,-2.265625 0,-1.265625 -0.96875,-2.25 -2.109375,-2.25 -0.78125,0 -1.203125,0.46875 -1.359375,0.640625 z m 0.03125,2.625 V -3.1875 c 0,-0.1875 0,-0.203125 0.109375,-0.359375 C 2.25,-4.109375 2.796875,-4.1875 3.03125,-4.1875 c 0.453125,0 0.8125,0.265625 1.046875,0.640625 0.265625,0.40625 0.28125,0.96875 0.28125,1.390625 0,0.359375 -0.015625,0.953125 -0.296875,1.40625 -0.21875,0.3125 -0.59375,0.640625 -1.125,0.640625 -0.453125,0 -0.8125,-0.234375 -1.046875,-0.609375 C 1.75,-0.921875 1.75,-0.953125 1.75,-1.140625 Z m 0,0"
             transform="translate(148.712,134.765)"
             id="path2101" />
          <path
             inkscape:connector-curvature="0"
             style="fill:#357edd;fill-opacity:1;stroke:none;stroke-width:0"
             d="M 1.671875,-3.3125 V -4.40625 L 0.28125,-4.296875 v 0.3125 c 0.703125,0 0.78125,0.0625 0.78125,0.5625 V -0.75 c 0,0.4375 -0.109375,0.4375 -0.78125,0.4375 V 0 c 0.390625,-0.015625 0.859375,-0.03125 1.140625,-0.03125 0.390625,0 0.859375,0 1.265625,0.03125 V -0.3125 H 2.46875 c -0.734375,0 -0.75,-0.109375 -0.75,-0.46875 V -2.3125 c 0,-0.984375 0.421875,-1.875 1.171875,-1.875 0.0625,0 0.09375,0 0.109375,0.015625 -0.03125,0 -0.234375,0.125 -0.234375,0.390625 0,0.265625 0.21875,0.421875 0.4375,0.421875 0.171875,0 0.421875,-0.125 0.421875,-0.4375 0,-0.3125 -0.3125,-0.609375 -0.734375,-0.609375 -0.734375,0 -1.09375,0.671875 -1.21875,1.09375 z m 0,0"
             transform="translate(154.24722,134.765)"
             id="path2103" />
          <path
             inkscape:connector-curvature="0"
             style="fill:#357edd;fill-opacity:1;stroke:none;stroke-width:0"
             d="M 1.109375,-2.515625 C 1.171875,-4 2.015625,-4.25 2.359375,-4.25 c 1.015625,0 1.125,1.34375 1.125,1.734375 z m 0,0.21875 h 2.78125 c 0.21875,0 0.25,0 0.25,-0.21875 0,-0.984375 -0.546875,-1.953125 -1.78125,-1.953125 -1.15625,0 -2.078125,1.03125 -2.078125,2.28125 0,1.328125 1.046875,2.296875 2.1875,2.296875 C 3.6875,0.109375 4.140625,-1 4.140625,-1.1875 4.140625,-1.28125 4.0625,-1.3125 4,-1.3125 c -0.078125,0 -0.109375,0.0625 -0.125,0.140625 -0.34375,1.03125 -1.25,1.03125 -1.34375,1.03125 -0.5,0 -0.890625,-0.296875 -1.125,-0.671875 -0.296875,-0.46875 -0.296875,-1.125 -0.296875,-1.484375 z m 0,0"
             transform="translate(158.14957,134.765)"
             id="path2105" />
          <path
             inkscape:connector-curvature="0"
             style="fill:#357edd;fill-opacity:1;stroke:none;stroke-width:0"
             d="M 1.109375,-2.515625 C 1.171875,-4 2.015625,-4.25 2.359375,-4.25 c 1.015625,0 1.125,1.34375 1.125,1.734375 z m 0,0.21875 h 2.78125 c 0.21875,0 0.25,0 0.25,-0.21875 0,-0.984375 -0.546875,-1.953125 -1.78125,-1.953125 -1.15625,0 -2.078125,1.03125 -2.078125,2.28125 0,1.328125 1.046875,2.296875 2.1875,2.296875 C 3.6875,0.109375 4.140625,-1 4.140625,-1.1875 4.140625,-1.28125 4.0625,-1.3125 4,-1.3125 c -0.078125,0 -0.109375,0.0625 -0.125,0.140625 -0.34375,1.03125 -1.25,1.03125 -1.34375,1.03125 -0.5,0 -0.890625,-0.296875 -1.125,-0.671875 -0.296875,-0.46875 -0.296875,-1.125 -0.296875,-1.484375 z m 0,0"
             transform="translate(162.57695,134.765)"
             id="path2107" />
          <path
             inkscape:connector-curvature="0"
             style="fill:#357edd;fill-opacity:1;stroke:none;stroke-width:0"
             d="m 3.78125,-0.546875 v 0.65625 L 5.25,0 v -0.3125 c -0.6875,0 -0.78125,-0.0625 -0.78125,-0.5625 V -6.921875 L 3.046875,-6.8125 V -6.5 c 0.6875,0 0.765625,0.0625 0.765625,0.5625 v 2.15625 c -0.28125,-0.359375 -0.71875,-0.625 -1.25,-0.625 -1.171875,0 -2.21875,0.984375 -2.21875,2.265625 0,1.265625 0.96875,2.25 2.109375,2.25 0.640625,0 1.078125,-0.34375 1.328125,-0.65625 z m 0,-2.671875 v 2.046875 c 0,0.171875 0,0.1875 -0.109375,0.359375 C 3.375,-0.328125 2.9375,-0.109375 2.5,-0.109375 2.046875,-0.109375 1.6875,-0.375 1.453125,-0.75 1.203125,-1.15625 1.171875,-1.71875 1.171875,-2.140625 1.171875,-2.5 1.1875,-3.09375 1.46875,-3.546875 1.6875,-3.859375 2.0625,-4.1875 2.609375,-4.1875 c 0.34375,0 0.765625,0.15625 1.0625,0.59375 0.109375,0.171875 0.109375,0.1875 0.109375,0.375 z m 0,0"
             transform="translate(167.00433,134.765)"
             id="path2109" />
          <path
             inkscape:connector-curvature="0"
             style="fill:#357edd;fill-opacity:1;stroke:none;stroke-width:0"
             d="m 1.71875,-3.984375 h 1.4375 v -0.3125 H 1.71875 V -6.125 h -0.25 c 0,0.8125 -0.296875,1.875 -1.28125,1.921875 v 0.21875 h 0.84375 v 2.75 c 0,1.21875 0.9375,1.34375 1.296875,1.34375 0.703125,0 0.984375,-0.703125 0.984375,-1.34375 v -0.5625 h -0.25 V -1.25 c 0,0.734375 -0.296875,1.109375 -0.671875,1.109375 -0.671875,0 -0.671875,-0.90625 -0.671875,-1.078125 z m 0,0"
             transform="translate(172.53955,134.765)"
             id="path2111" />
          <path
             inkscape:connector-curvature="0"
             style="fill:#357edd;fill-opacity:1;stroke:none;stroke-width:0"
             d="M 1.109375,-2.515625 C 1.171875,-4 2.015625,-4.25 2.359375,-4.25 c 1.015625,0 1.125,1.34375 1.125,1.734375 z m 0,0.21875 h 2.78125 c 0.21875,0 0.25,0 0.25,-0.21875 0,-0.984375 -0.546875,-1.953125 -1.78125,-1.953125 -1.15625,0 -2.078125,1.03125 -2.078125,2.28125 0,1.328125 1.046875,2.296875 2.1875,2.296875 C 3.6875,0.109375 4.140625,-1 4.140625,-1.1875 4.140625,-1.28125 4.0625,-1.3125 4,-1.3125 c -0.078125,0 -0.109375,0.0625 -0.125,0.140625 -0.34375,1.03125 -1.25,1.03125 -1.34375,1.03125 -0.5,0 -0.890625,-0.296875 -1.125,-0.671875 -0.296875,-0.46875 -0.296875,-1.125 -0.296875,-1.484375 z m 0,0"
             transform="translate(176.41401,134.765)"
             id="path2113" />
        </g>
      </g>
    </g>
    <path
       style="opacity:1;vector-effect:none;fill:none;fill-opacity:1;stroke:#357edd;stroke-width:0.34405339;stroke-linecap:round;stroke-linejoin:miter;stroke-miterlimit:4;stroke-dasharray:none;stroke-dashoffset:0;stroke-opacity:1;marker-start:url(#marker1435-0);marker-end:url(#marker1441-6)"
       d="M 7.8493593,38.421078 25.554086,48.642905"
       id="path1165"
       inkscape:connector-curvature="0"
       sodipodi:nodetypes="cc" />
  </g>
  <g
     id="g9535"
     ns1:jacobian_sqrt="0.678694"
     inkscapeversion="0.92.4"
     ns1:alignment="middle center"
     ns1:scale="1.92385834868"
     ns1:preamble="/home/fdf/.config/inkscape/extensions/textext/default_packages.tex"
     ns1:text="oppervlakte = lengte $\\cdot$ breedte"
     ns1:pdfconverter="pdf2svg"
     ns1:texconverter="pdflatex"
     ns1:version="0.9.0"
     transform="matrix(0.61683789,0,0,0.61683789,-81.625291,-53.098586)">
    <g
       id="g9533">
      <g
         id="g9475"
         style="fill:#000000;fill-opacity:1">
        <path
           id="path9469"
           transform="translate(148.712,134.765)"
           d="M 4.6875,-2.140625 C 4.6875,-3.40625 3.703125,-4.46875 2.5,-4.46875 c -1.25,0 -2.21875,1.09375 -2.21875,2.328125 0,1.296875 1.03125,2.25 2.203125,2.25 1.203125,0 2.203125,-0.984375 2.203125,-2.25 z m -2.1875,2 c -0.4375,0 -0.875,-0.203125 -1.140625,-0.671875 -0.25,-0.4375 -0.25,-1.046875 -0.25,-1.40625 0,-0.390625 0,-0.921875 0.234375,-1.359375 C 1.609375,-4.03125 2.078125,-4.25 2.484375,-4.25 c 0.4375,0 0.859375,0.21875 1.125,0.65625 0.265625,0.421875 0.265625,1 0.265625,1.375 0,0.359375 0,0.90625 -0.21875,1.34375 C 3.421875,-0.421875 2.984375,-0.140625 2.5,-0.140625 Z m 0,0"
           style="stroke:none;stroke-width:0"
           inkscape:connector-curvature="0" />
        <path
           id="path9471"
           transform="translate(153.6933,134.765)"
           d="m 1.71875,-3.75 v -0.65625 l -1.4375,0.109375 v 0.3125 c 0.703125,0 0.78125,0.0625 0.78125,0.5 v 4.65625 C 1.0625,1.625 0.953125,1.625 0.28125,1.625 V 1.9375 C 0.625,1.921875 1.140625,1.90625 1.390625,1.90625 c 0.28125,0 0.78125,0.015625 1.125,0.03125 V 1.625 C 1.859375,1.625 1.75,1.625 1.75,1.171875 V -0.59375 c 0.046875,0.171875 0.46875,0.703125 1.21875,0.703125 1.1875,0 2.21875,-0.984375 2.21875,-2.265625 0,-1.265625 -0.953125,-2.25 -2.078125,-2.25 -0.78125,0 -1.203125,0.4375 -1.390625,0.65625 z M 1.75,-1.140625 v -2.21875 C 2.03125,-3.875 2.515625,-4.15625 3.03125,-4.15625 c 0.734375,0 1.328125,0.875 1.328125,2 0,1.203125 -0.6875,2.046875 -1.421875,2.046875 -0.40625,0 -0.78125,-0.203125 -1.046875,-0.609375 C 1.75,-0.921875 1.75,-0.9375 1.75,-1.140625 Z m 0,0"
           style="stroke:none;stroke-width:0"
           inkscape:connector-curvature="0" />
        <path
           id="path9473"
           transform="translate(159.22852,134.765)"
           d="m 1.71875,-3.75 v -0.65625 l -1.4375,0.109375 v 0.3125 c 0.703125,0 0.78125,0.0625 0.78125,0.5 v 4.65625 C 1.0625,1.625 0.953125,1.625 0.28125,1.625 V 1.9375 C 0.625,1.921875 1.140625,1.90625 1.390625,1.90625 c 0.28125,0 0.78125,0.015625 1.125,0.03125 V 1.625 C 1.859375,1.625 1.75,1.625 1.75,1.171875 V -0.59375 c 0.046875,0.171875 0.46875,0.703125 1.21875,0.703125 1.1875,0 2.21875,-0.984375 2.21875,-2.265625 0,-1.265625 -0.953125,-2.25 -2.078125,-2.25 -0.78125,0 -1.203125,0.4375 -1.390625,0.65625 z M 1.75,-1.140625 v -2.21875 C 2.03125,-3.875 2.515625,-4.15625 3.03125,-4.15625 c 0.734375,0 1.328125,0.875 1.328125,2 0,1.203125 -0.6875,2.046875 -1.421875,2.046875 -0.40625,0 -0.78125,-0.203125 -1.046875,-0.609375 C 1.75,-0.921875 1.75,-0.9375 1.75,-1.140625 Z m 0,0"
           style="stroke:none;stroke-width:0"
           inkscape:connector-curvature="0" />
      </g>
      <g
         id="g9493"
         style="fill:#000000;fill-opacity:1">
        <path
           id="path9477"
           transform="translate(165.04269,134.765)"
           d="M 1.109375,-2.515625 C 1.171875,-4 2.015625,-4.25 2.359375,-4.25 c 1.015625,0 1.125,1.34375 1.125,1.734375 z m 0,0.21875 h 2.78125 c 0.21875,0 0.25,0 0.25,-0.21875 0,-0.984375 -0.546875,-1.953125 -1.78125,-1.953125 -1.15625,0 -2.078125,1.03125 -2.078125,2.28125 0,1.328125 1.046875,2.296875 2.1875,2.296875 C 3.6875,0.109375 4.140625,-1 4.140625,-1.1875 4.140625,-1.28125 4.0625,-1.3125 4,-1.3125 c -0.078125,0 -0.109375,0.0625 -0.125,0.140625 -0.34375,1.03125 -1.25,1.03125 -1.34375,1.03125 -0.5,0 -0.890625,-0.296875 -1.125,-0.671875 -0.296875,-0.46875 -0.296875,-1.125 -0.296875,-1.484375 z m 0,0"
           style="stroke:none;stroke-width:0"
           inkscape:connector-curvature="0" />
        <path
           id="path9479"
           transform="translate(169.47007,134.765)"
           d="M 1.671875,-3.3125 V -4.40625 L 0.28125,-4.296875 v 0.3125 c 0.703125,0 0.78125,0.0625 0.78125,0.5625 V -0.75 c 0,0.4375 -0.109375,0.4375 -0.78125,0.4375 V 0 c 0.390625,-0.015625 0.859375,-0.03125 1.140625,-0.03125 0.390625,0 0.859375,0 1.265625,0.03125 V -0.3125 H 2.46875 c -0.734375,0 -0.75,-0.109375 -0.75,-0.46875 V -2.3125 c 0,-0.984375 0.421875,-1.875 1.171875,-1.875 0.0625,0 0.09375,0 0.109375,0.015625 -0.03125,0 -0.234375,0.125 -0.234375,0.390625 0,0.265625 0.21875,0.421875 0.4375,0.421875 0.171875,0 0.421875,-0.125 0.421875,-0.4375 0,-0.3125 -0.3125,-0.609375 -0.734375,-0.609375 -0.734375,0 -1.09375,0.671875 -1.21875,1.09375 z m 0,0"
           style="stroke:none;stroke-width:0"
           inkscape:connector-curvature="0" />
        <path
           id="path9481"
           transform="translate(173.37242,134.765)"
           d="M 4.140625,-3.3125 C 4.234375,-3.546875 4.40625,-3.984375 5.0625,-3.984375 v -0.3125 c -0.234375,0.015625 -0.515625,0.03125 -0.75,0.03125 -0.234375,0 -0.6875,-0.015625 -0.859375,-0.03125 v 0.3125 c 0.359375,0 0.46875,0.234375 0.46875,0.421875 0,0.09375 -0.015625,0.140625 -0.046875,0.25 L 2.84375,-0.78125 1.734375,-3.5625 c -0.0625,-0.125 -0.0625,-0.140625 -0.0625,-0.171875 0,-0.25 0.390625,-0.25 0.578125,-0.25 v -0.3125 c -0.3125,0.015625 -0.859375,0.03125 -1.09375,0.03125 -0.265625,0 -0.671875,-0.015625 -0.96875,-0.03125 v 0.3125 c 0.625,0 0.671875,0.0625 0.796875,0.359375 l 1.4375,3.546875 C 2.484375,0.0625 2.5,0.109375 2.625,0.109375 c 0.140625,0 0.171875,-0.09375 0.21875,-0.1875 z m 0,0"
           style="stroke:none;stroke-width:0"
           inkscape:connector-curvature="0" />
        <path
           id="path9483"
           transform="translate(178.63068,134.765)"
           d="M 1.765625,-6.921875 0.328125,-6.8125 V -6.5 c 0.703125,0 0.78125,0.0625 0.78125,0.5625 V -0.75 c 0,0.4375 -0.109375,0.4375 -0.78125,0.4375 V 0 C 0.65625,-0.015625 1.1875,-0.03125 1.4375,-0.03125 c 0.25,0 0.734375,0.015625 1.109375,0.03125 v -0.3125 c -0.671875,0 -0.78125,0 -0.78125,-0.4375 z m 0,0"
           style="stroke:none;stroke-width:0"
           inkscape:connector-curvature="0" />
        <path
           id="path9485"
           transform="translate(181.39829,134.765)"
           d="m 3.3125,-0.75 c 0.046875,0.390625 0.3125,0.8125 0.78125,0.8125 0.21875,0 0.828125,-0.140625 0.828125,-0.953125 v -0.5625 h -0.25 v 0.5625 c 0,0.578125 -0.25,0.640625 -0.359375,0.640625 -0.328125,0 -0.375,-0.453125 -0.375,-0.5 v -1.984375 c 0,-0.421875 0,-0.8125 -0.359375,-1.1875 C 3.1875,-4.3125 2.6875,-4.46875 2.21875,-4.46875 c -0.828125,0 -1.515625,0.46875 -1.515625,1.125 0,0.296875 0.203125,0.46875 0.46875,0.46875 0.28125,0 0.453125,-0.203125 0.453125,-0.453125 0,-0.125 -0.046875,-0.453125 -0.515625,-0.453125 C 1.390625,-4.140625 1.875,-4.25 2.1875,-4.25 c 0.5,0 1.0625,0.390625 1.0625,1.28125 v 0.359375 c -0.515625,0.03125 -1.203125,0.0625 -1.828125,0.359375 -0.75,0.34375 -1,0.859375 -1,1.296875 0,0.8125 0.96875,1.0625 1.59375,1.0625 0.65625,0 1.109375,-0.40625 1.296875,-0.859375 z M 3.25,-2.390625 v 1 c 0,0.9375 -0.71875,1.28125 -1.171875,1.28125 -0.484375,0 -0.890625,-0.34375 -0.890625,-0.84375 0,-0.546875 0.421875,-1.375 2.0625,-1.4375 z m 0,0"
           style="stroke:none;stroke-width:0"
           inkscape:connector-curvature="0" />
        <path
           id="path9487"
           transform="translate(186.37959,134.765)"
           d="m 1.0625,-0.75 c 0,0.4375 -0.109375,0.4375 -0.78125,0.4375 V 0 c 0.328125,-0.015625 0.796875,-0.03125 1.078125,-0.03125 0.3125,0 0.703125,0.015625 1.109375,0.03125 v -0.3125 c -0.671875,0 -0.78125,0 -0.78125,-0.4375 v -1.03125 l 0.640625,-0.546875 c 0.765625,1.046875 1.1875,1.609375 1.1875,1.796875 0,0.1875 -0.171875,0.21875 -0.359375,0.21875 V 0 c 0.265625,-0.015625 0.859375,-0.03125 1.078125,-0.03125 0.28125,0 0.578125,0.015625 0.859375,0.03125 v -0.3125 c -0.375,0 -0.59375,0 -0.96875,-0.53125 L 2.859375,-2.625 c -0.015625,-0.015625 -0.0625,-0.078125 -0.0625,-0.109375 0,-0.03125 0.71875,-0.640625 0.8125,-0.71875 0.625,-0.5 1.046875,-0.53125 1.25,-0.53125 v -0.3125 c -0.28125,0.03125 -0.40625,0.03125 -0.6875,0.03125 -0.359375,0 -0.984375,-0.015625 -1.125,-0.03125 v 0.3125 c 0.1875,0 0.296875,0.109375 0.296875,0.25 0,0.203125 -0.140625,0.3125 -0.21875,0.390625 l -1.40625,1.203125 v -4.78125 L 0.28125,-6.8125 V -6.5 c 0.703125,0 0.78125,0.0625 0.78125,0.5625 z m 0,0"
           style="stroke:none;stroke-width:0"
           inkscape:connector-curvature="0" />
        <path
           id="path9489"
           transform="translate(191.63785,134.765)"
           d="m 1.71875,-3.984375 h 1.4375 v -0.3125 H 1.71875 V -6.125 h -0.25 c 0,0.8125 -0.296875,1.875 -1.28125,1.921875 v 0.21875 h 0.84375 v 2.75 c 0,1.21875 0.9375,1.34375 1.296875,1.34375 0.703125,0 0.984375,-0.703125 0.984375,-1.34375 v -0.5625 h -0.25 V -1.25 c 0,0.734375 -0.296875,1.109375 -0.671875,1.109375 -0.671875,0 -0.671875,-0.90625 -0.671875,-1.078125 z m 0,0"
           style="stroke:none;stroke-width:0"
           inkscape:connector-curvature="0" />
        <path
           id="path9491"
           transform="translate(195.51231,134.765)"
           d="M 1.109375,-2.515625 C 1.171875,-4 2.015625,-4.25 2.359375,-4.25 c 1.015625,0 1.125,1.34375 1.125,1.734375 z m 0,0.21875 h 2.78125 c 0.21875,0 0.25,0 0.25,-0.21875 0,-0.984375 -0.546875,-1.953125 -1.78125,-1.953125 -1.15625,0 -2.078125,1.03125 -2.078125,2.28125 0,1.328125 1.046875,2.296875 2.1875,2.296875 C 3.6875,0.109375 4.140625,-1 4.140625,-1.1875 4.140625,-1.28125 4.0625,-1.3125 4,-1.3125 c -0.078125,0 -0.109375,0.0625 -0.125,0.140625 -0.34375,1.03125 -1.25,1.03125 -1.34375,1.03125 -0.5,0 -0.890625,-0.296875 -1.125,-0.671875 -0.296875,-0.46875 -0.296875,-1.125 -0.296875,-1.484375 z m 0,0"
           style="stroke:none;stroke-width:0"
           inkscape:connector-curvature="0" />
      </g>
      <g
         id="g9497"
         style="fill:#000000;fill-opacity:1">
        <path
           id="path9495"
           transform="translate(203.25723,134.765)"
           d="m 6.84375,-3.265625 c 0.15625,0 0.34375,0 0.34375,-0.1875 C 7.1875,-3.65625 7,-3.65625 6.859375,-3.65625 h -5.96875 c -0.140625,0 -0.328125,0 -0.328125,0.203125 0,0.1875 0.1875,0.1875 0.328125,0.1875 z m 0.015625,1.9375 c 0.140625,0 0.328125,0 0.328125,-0.203125 0,-0.1875 -0.1875,-0.1875 -0.34375,-0.1875 H 0.890625 c -0.140625,0 -0.328125,0 -0.328125,0.1875 0,0.203125 0.1875,0.203125 0.328125,0.203125 z m 0,0"
           style="stroke:none;stroke-width:0"
           inkscape:connector-curvature="0" />
      </g>
      <g
         id="g9511"
         style="fill:#ff6300;fill-opacity:1">
        <path
           id="path9499"
           transform="translate(214.32369,134.765)"
           d="M 1.765625,-6.921875 0.328125,-6.8125 V -6.5 c 0.703125,0 0.78125,0.0625 0.78125,0.5625 V -0.75 c 0,0.4375 -0.109375,0.4375 -0.78125,0.4375 V 0 C 0.65625,-0.015625 1.1875,-0.03125 1.4375,-0.03125 c 0.25,0 0.734375,0.015625 1.109375,0.03125 v -0.3125 c -0.671875,0 -0.78125,0 -0.78125,-0.4375 z m 0,0"
           style="fill:#ff6300;fill-opacity:1;stroke:none;stroke-width:0"
           inkscape:connector-curvature="0" />
        <path
           id="path9501"
           transform="translate(217.0913,134.765)"
           d="M 1.109375,-2.515625 C 1.171875,-4 2.015625,-4.25 2.359375,-4.25 c 1.015625,0 1.125,1.34375 1.125,1.734375 z m 0,0.21875 h 2.78125 c 0.21875,0 0.25,0 0.25,-0.21875 0,-0.984375 -0.546875,-1.953125 -1.78125,-1.953125 -1.15625,0 -2.078125,1.03125 -2.078125,2.28125 0,1.328125 1.046875,2.296875 2.1875,2.296875 C 3.6875,0.109375 4.140625,-1 4.140625,-1.1875 4.140625,-1.28125 4.0625,-1.3125 4,-1.3125 c -0.078125,0 -0.109375,0.0625 -0.125,0.140625 -0.34375,1.03125 -1.25,1.03125 -1.34375,1.03125 -0.5,0 -0.890625,-0.296875 -1.125,-0.671875 -0.296875,-0.46875 -0.296875,-1.125 -0.296875,-1.484375 z m 0,0"
           style="fill:#ff6300;fill-opacity:1;stroke:none;stroke-width:0"
           inkscape:connector-curvature="0" />
        <path
           id="path9503"
           transform="translate(221.51868,134.765)"
           d="M 1.09375,-3.421875 V -0.75 c 0,0.4375 -0.109375,0.4375 -0.78125,0.4375 V 0 c 0.359375,-0.015625 0.859375,-0.03125 1.140625,-0.03125 0.25,0 0.765625,0.015625 1.109375,0.03125 v -0.3125 c -0.671875,0 -0.78125,0 -0.78125,-0.4375 V -2.59375 C 1.78125,-3.625 2.5,-4.1875 3.125,-4.1875 c 0.640625,0 0.75,0.53125 0.75,1.109375 V -0.75 c 0,0.4375 -0.109375,0.4375 -0.78125,0.4375 V 0 c 0.34375,-0.015625 0.859375,-0.03125 1.125,-0.03125 0.25,0 0.78125,0.015625 1.109375,0.03125 v -0.3125 c -0.515625,0 -0.765625,0 -0.765625,-0.296875 v -1.90625 c 0,-0.859375 0,-1.15625 -0.3125,-1.515625 -0.140625,-0.171875 -0.46875,-0.375 -1.046875,-0.375 C 2.46875,-4.40625 2,-3.984375 1.71875,-3.359375 V -4.40625 L 0.3125,-4.296875 v 0.3125 c 0.703125,0 0.78125,0.0625 0.78125,0.5625 z m 0,0"
           style="fill:#ff6300;fill-opacity:1;stroke:none;stroke-width:0"
           inkscape:connector-curvature="0" />
        <path
           id="path9505"
           transform="translate(227.0539,134.765)"
           d="m 2.21875,-1.71875 c -0.875,0 -0.875,-1 -0.875,-1.21875 0,-0.265625 0.015625,-0.59375 0.15625,-0.84375 0.078125,-0.109375 0.3125,-0.390625 0.71875,-0.390625 0.859375,0 0.859375,0.984375 0.859375,1.21875 0,0.265625 0,0.59375 -0.15625,0.84375 C 2.84375,-2 2.609375,-1.71875 2.21875,-1.71875 Z M 1.0625,-1.328125 c 0,-0.03125 0,-0.265625 0.15625,-0.46875 0.390625,0.28125 0.8125,0.3125 1,0.3125 0.921875,0 1.609375,-0.6875 1.609375,-1.453125 0,-0.375 -0.15625,-0.734375 -0.40625,-0.96875 C 3.78125,-4.25 4.140625,-4.296875 4.3125,-4.296875 c 0.03125,0 0.078125,0 0.109375,0.015625 C 4.3125,-4.25 4.25,-4.140625 4.25,-4.015625 c 0,0.171875 0.140625,0.28125 0.296875,0.28125 0.09375,0 0.28125,-0.0625 0.28125,-0.296875 0,-0.171875 -0.109375,-0.484375 -0.5,-0.484375 -0.203125,0 -0.640625,0.0625 -1.0625,0.46875 C 2.84375,-4.375 2.4375,-4.40625 2.21875,-4.40625 c -0.9375,0 -1.625,0.6875 -1.625,1.453125 0,0.4375 0.21875,0.8125 0.46875,1.03125 -0.125,0.140625 -0.3125,0.46875 -0.3125,0.828125 0,0.3125 0.140625,0.6875 0.453125,0.890625 -0.609375,0.15625 -0.921875,0.59375 -0.921875,0.984375 0,0.71875 0.984375,1.265625 2.203125,1.265625 1.171875,0 2.203125,-0.5 2.203125,-1.28125 0,-0.34375 -0.125,-0.859375 -0.640625,-1.140625 -0.53125,-0.265625 -1.109375,-0.265625 -1.71875,-0.265625 -0.25,0 -0.671875,0 -0.75,-0.015625 C 1.265625,-0.703125 1.0625,-1 1.0625,-1.328125 Z M 2.5,1.828125 c -1.015625,0 -1.703125,-0.515625 -1.703125,-1.046875 0,-0.453125 0.375,-0.828125 0.8125,-0.84375 h 0.59375 c 0.859375,0 1.96875,0 1.96875,0.84375 0,0.546875 -0.703125,1.046875 -1.671875,1.046875 z m 0,0"
           style="fill:#ff6300;fill-opacity:1;stroke:none;stroke-width:0"
           inkscape:connector-curvature="0" />
        <path
           id="path9507"
           transform="translate(232.0352,134.765)"
           d="m 1.71875,-3.984375 h 1.4375 v -0.3125 H 1.71875 V -6.125 h -0.25 c 0,0.8125 -0.296875,1.875 -1.28125,1.921875 v 0.21875 h 0.84375 v 2.75 c 0,1.21875 0.9375,1.34375 1.296875,1.34375 0.703125,0 0.984375,-0.703125 0.984375,-1.34375 v -0.5625 h -0.25 V -1.25 c 0,0.734375 -0.296875,1.109375 -0.671875,1.109375 -0.671875,0 -0.671875,-0.90625 -0.671875,-1.078125 z m 0,0"
           style="fill:#ff6300;fill-opacity:1;stroke:none;stroke-width:0"
           inkscape:connector-curvature="0" />
        <path
           id="path9509"
           transform="translate(235.90966,134.765)"
           d="M 1.109375,-2.515625 C 1.171875,-4 2.015625,-4.25 2.359375,-4.25 c 1.015625,0 1.125,1.34375 1.125,1.734375 z m 0,0.21875 h 2.78125 c 0.21875,0 0.25,0 0.25,-0.21875 0,-0.984375 -0.546875,-1.953125 -1.78125,-1.953125 -1.15625,0 -2.078125,1.03125 -2.078125,2.28125 0,1.328125 1.046875,2.296875 2.1875,2.296875 C 3.6875,0.109375 4.140625,-1 4.140625,-1.1875 4.140625,-1.28125 4.0625,-1.3125 4,-1.3125 c -0.078125,0 -0.109375,0.0625 -0.125,0.140625 -0.34375,1.03125 -1.25,1.03125 -1.34375,1.03125 -0.5,0 -0.890625,-0.296875 -1.125,-0.671875 -0.296875,-0.46875 -0.296875,-1.125 -0.296875,-1.484375 z m 0,0"
           style="fill:#ff6300;fill-opacity:1;stroke:none;stroke-width:0"
           inkscape:connector-curvature="0" />
      </g>
      <g
         id="g9515"
         style="fill:#000000;fill-opacity:1">
        <path
           id="path9513"
           transform="translate(243.662,134.765)"
           d="m 1.90625,-2.5 c 0,-0.28125 -0.234375,-0.515625 -0.515625,-0.515625 -0.296875,0 -0.53125,0.234375 -0.53125,0.515625 0,0.296875 0.234375,0.53125 0.53125,0.53125 0.28125,0 0.515625,-0.234375 0.515625,-0.53125 z m 0,0"
           style="stroke:none;stroke-width:0"
           inkscape:connector-curvature="0" />
      </g>
      <g
         id="g9531"
         style="fill:#357edd;fill-opacity:1">
        <path
           id="path9517"
           transform="translate(249.75,134.765)"
           d="m 1.71875,-3.765625 v -3.15625 L 0.28125,-6.8125 V -6.5 c 0.703125,0 0.78125,0.0625 0.78125,0.5625 V 0 h 0.25 c 0,-0.015625 0.078125,-0.15625 0.359375,-0.625 0.140625,0.234375 0.5625,0.734375 1.296875,0.734375 1.1875,0 2.21875,-0.984375 2.21875,-2.265625 0,-1.265625 -0.96875,-2.25 -2.109375,-2.25 -0.78125,0 -1.203125,0.46875 -1.359375,0.640625 z m 0.03125,2.625 V -3.1875 c 0,-0.1875 0,-0.203125 0.109375,-0.359375 C 2.25,-4.109375 2.796875,-4.1875 3.03125,-4.1875 c 0.453125,0 0.8125,0.265625 1.046875,0.640625 0.265625,0.40625 0.28125,0.96875 0.28125,1.390625 0,0.359375 -0.015625,0.953125 -0.296875,1.40625 -0.21875,0.3125 -0.59375,0.640625 -1.125,0.640625 -0.453125,0 -0.8125,-0.234375 -1.046875,-0.609375 C 1.75,-0.921875 1.75,-0.953125 1.75,-1.140625 Z m 0,0"
           style="fill:#357edd;fill-opacity:1;stroke:none;stroke-width:0"
           inkscape:connector-curvature="0" />
        <path
           id="path9519"
           transform="translate(255.28522,134.765)"
           d="M 1.671875,-3.3125 V -4.40625 L 0.28125,-4.296875 v 0.3125 c 0.703125,0 0.78125,0.0625 0.78125,0.5625 V -0.75 c 0,0.4375 -0.109375,0.4375 -0.78125,0.4375 V 0 c 0.390625,-0.015625 0.859375,-0.03125 1.140625,-0.03125 0.390625,0 0.859375,0 1.265625,0.03125 V -0.3125 H 2.46875 c -0.734375,0 -0.75,-0.109375 -0.75,-0.46875 V -2.3125 c 0,-0.984375 0.421875,-1.875 1.171875,-1.875 0.0625,0 0.09375,0 0.109375,0.015625 -0.03125,0 -0.234375,0.125 -0.234375,0.390625 0,0.265625 0.21875,0.421875 0.4375,0.421875 0.171875,0 0.421875,-0.125 0.421875,-0.4375 0,-0.3125 -0.3125,-0.609375 -0.734375,-0.609375 -0.734375,0 -1.09375,0.671875 -1.21875,1.09375 z m 0,0"
           style="fill:#357edd;fill-opacity:1;stroke:none;stroke-width:0"
           inkscape:connector-curvature="0" />
        <path
           id="path9521"
           transform="translate(259.18757,134.765)"
           d="M 1.109375,-2.515625 C 1.171875,-4 2.015625,-4.25 2.359375,-4.25 c 1.015625,0 1.125,1.34375 1.125,1.734375 z m 0,0.21875 h 2.78125 c 0.21875,0 0.25,0 0.25,-0.21875 0,-0.984375 -0.546875,-1.953125 -1.78125,-1.953125 -1.15625,0 -2.078125,1.03125 -2.078125,2.28125 0,1.328125 1.046875,2.296875 2.1875,2.296875 C 3.6875,0.109375 4.140625,-1 4.140625,-1.1875 4.140625,-1.28125 4.0625,-1.3125 4,-1.3125 c -0.078125,0 -0.109375,0.0625 -0.125,0.140625 -0.34375,1.03125 -1.25,1.03125 -1.34375,1.03125 -0.5,0 -0.890625,-0.296875 -1.125,-0.671875 -0.296875,-0.46875 -0.296875,-1.125 -0.296875,-1.484375 z m 0,0"
           style="fill:#357edd;fill-opacity:1;stroke:none;stroke-width:0"
           inkscape:connector-curvature="0" />
        <path
           id="path9523"
           transform="translate(263.61495,134.765)"
           d="M 1.109375,-2.515625 C 1.171875,-4 2.015625,-4.25 2.359375,-4.25 c 1.015625,0 1.125,1.34375 1.125,1.734375 z m 0,0.21875 h 2.78125 c 0.21875,0 0.25,0 0.25,-0.21875 0,-0.984375 -0.546875,-1.953125 -1.78125,-1.953125 -1.15625,0 -2.078125,1.03125 -2.078125,2.28125 0,1.328125 1.046875,2.296875 2.1875,2.296875 C 3.6875,0.109375 4.140625,-1 4.140625,-1.1875 4.140625,-1.28125 4.0625,-1.3125 4,-1.3125 c -0.078125,0 -0.109375,0.0625 -0.125,0.140625 -0.34375,1.03125 -1.25,1.03125 -1.34375,1.03125 -0.5,0 -0.890625,-0.296875 -1.125,-0.671875 -0.296875,-0.46875 -0.296875,-1.125 -0.296875,-1.484375 z m 0,0"
           style="fill:#357edd;fill-opacity:1;stroke:none;stroke-width:0"
           inkscape:connector-curvature="0" />
        <path
           id="path9525"
           transform="translate(268.04233,134.765)"
           d="m 3.78125,-0.546875 v 0.65625 L 5.25,0 v -0.3125 c -0.6875,0 -0.78125,-0.0625 -0.78125,-0.5625 V -6.921875 L 3.046875,-6.8125 V -6.5 c 0.6875,0 0.765625,0.0625 0.765625,0.5625 v 2.15625 c -0.28125,-0.359375 -0.71875,-0.625 -1.25,-0.625 -1.171875,0 -2.21875,0.984375 -2.21875,2.265625 0,1.265625 0.96875,2.25 2.109375,2.25 0.640625,0 1.078125,-0.34375 1.328125,-0.65625 z m 0,-2.671875 v 2.046875 c 0,0.171875 0,0.1875 -0.109375,0.359375 C 3.375,-0.328125 2.9375,-0.109375 2.5,-0.109375 2.046875,-0.109375 1.6875,-0.375 1.453125,-0.75 1.203125,-1.15625 1.171875,-1.71875 1.171875,-2.140625 1.171875,-2.5 1.1875,-3.09375 1.46875,-3.546875 1.6875,-3.859375 2.0625,-4.1875 2.609375,-4.1875 c 0.34375,0 0.765625,0.15625 1.0625,0.59375 0.109375,0.171875 0.109375,0.1875 0.109375,0.375 z m 0,0"
           style="fill:#357edd;fill-opacity:1;stroke:none;stroke-width:0"
           inkscape:connector-curvature="0" />
        <path
           id="path9527"
           transform="translate(273.57755,134.765)"
           d="m 1.71875,-3.984375 h 1.4375 v -0.3125 H 1.71875 V -6.125 h -0.25 c 0,0.8125 -0.296875,1.875 -1.28125,1.921875 v 0.21875 h 0.84375 v 2.75 c 0,1.21875 0.9375,1.34375 1.296875,1.34375 0.703125,0 0.984375,-0.703125 0.984375,-1.34375 v -0.5625 h -0.25 V -1.25 c 0,0.734375 -0.296875,1.109375 -0.671875,1.109375 -0.671875,0 -0.671875,-0.90625 -0.671875,-1.078125 z m 0,0"
           style="fill:#357edd;fill-opacity:1;stroke:none;stroke-width:0"
           inkscape:connector-curvature="0" />
        <path
           id="path9529"
           transform="translate(277.45201,134.765)"
           d="M 1.109375,-2.515625 C 1.171875,-4 2.015625,-4.25 2.359375,-4.25 c 1.015625,0 1.125,1.34375 1.125,1.734375 z m 0,0.21875 h 2.78125 c 0.21875,0 0.25,0 0.25,-0.21875 0,-0.984375 -0.546875,-1.953125 -1.78125,-1.953125 -1.15625,0 -2.078125,1.03125 -2.078125,2.28125 0,1.328125 1.046875,2.296875 2.1875,2.296875 C 3.6875,0.109375 4.140625,-1 4.140625,-1.1875 4.140625,-1.28125 4.0625,-1.3125 4,-1.3125 c -0.078125,0 -0.109375,0.0625 -0.125,0.140625 -0.34375,1.03125 -1.25,1.03125 -1.34375,1.03125 -0.5,0 -0.890625,-0.296875 -1.125,-0.671875 -0.296875,-0.46875 -0.296875,-1.125 -0.296875,-1.484375 z m 0,0"
           style="fill:#357edd;fill-opacity:1;stroke:none;stroke-width:0"
           inkscape:connector-curvature="0" />
      </g>
    </g>
  </g>
  <path
     style="opacity:1;vector-effect:none;fill:none;fill-opacity:1;stroke:#d3d3d3;stroke-width:0.35268956;stroke-linecap:round;stroke-linejoin:miter;stroke-miterlimit:4;stroke-dasharray:none;stroke-dashoffset:0;stroke-opacity:1;marker-end:url(#marker9772)"
     d="M 44.787716,43.645207 C 41.723596,38.337999 35.989015,43.743017 27.954768,31.8458"
     id="path9762"
     inkscape:connector-curvature="0"
     sodipodi:nodetypes="cc" />
  <text
     xml:space="preserve"
     style="font-style:normal;font-variant:normal;font-weight:normal;font-stretch:normal;font-size:4.93888855px;line-height:1;font-family:Quicksand;-inkscape-font-specification:'Quicksand, Normal';font-variant-ligatures:normal;font-variant-position:normal;font-variant-caps:normal;font-variant-numeric:normal;font-variant-alternates:normal;font-feature-settings:normal;text-indent:0;text-align:center;text-decoration:none;text-decoration-line:none;text-decoration-style:solid;text-decoration-color:#000000;letter-spacing:0px;word-spacing:0px;text-transform:none;writing-mode:lr-tb;direction:ltr;text-orientation:mixed;dominant-baseline:auto;baseline-shift:baseline;text-anchor:middle;white-space:normal;shape-padding:0;opacity:1;vector-effect:none;fill:#555555;fill-opacity:1;stroke:none;stroke-width:0.71912855px;stroke-linecap:butt;stroke-linejoin:miter;stroke-miterlimit:4;stroke-dasharray:none;stroke-dashoffset:0;stroke-opacity:1"
     x="51.280731"
     y="49.12463"
     id="text10652"><tspan
       sodipodi:role="line"
       id="tspan10650"
       x="51.280731"
       y="49.12463"
       style="font-size:4.93888855px;fill:#555555;stroke-width:0.71912855px">maar variabelen hebben <tspan
   style="font-weight:bold"
   id="tspan1376">andere </tspan><tspan
   style="font-weight:bold;font-size:4.93888855px;fill:#555555"
   id="tspan1360">waarde</tspan></tspan></text>
  <path
     style="opacity:1;vector-effect:none;fill:none;fill-opacity:1;stroke:#d3d3d3;stroke-width:0.35268956;stroke-linecap:round;stroke-linejoin:miter;stroke-miterlimit:4;stroke-dasharray:none;stroke-dashoffset:0;stroke-opacity:1;marker-end:url(#marker9772-3)"
     d="m 50.628218,43.873968 c 0.58411,-7.365183 4.20397,-3.36333 6.085416,-12.173584"
     id="path9762-7"
     inkscape:connector-curvature="0"
     sodipodi:nodetypes="cc" />
  <path
     style="opacity:1;vector-effect:none;fill:none;fill-opacity:1;stroke:#d3d3d3;stroke-width:0.35268956;stroke-linecap:round;stroke-linejoin:miter;stroke-miterlimit:4;stroke-dasharray:none;stroke-dashoffset:0;stroke-opacity:1;marker-end:url(#marker9772-3-4)"
     d="m 59.693314,43.629322 c 0.50395,-6.8575 14.089782,0.380564 16.562372,-12.173585"
     id="path9762-7-7"
     inkscape:connector-curvature="0"
     sodipodi:nodetypes="cc" />
  <text
     xml:space="preserve"
     style="font-style:normal;font-variant:normal;font-weight:normal;font-stretch:normal;font-size:4.93888855px;line-height:1;font-family:Quicksand;-inkscape-font-specification:'Quicksand, Normal';font-variant-ligatures:normal;font-variant-position:normal;font-variant-caps:normal;font-variant-numeric:normal;font-variant-alternates:normal;font-feature-settings:normal;text-indent:0;text-align:center;text-decoration:none;text-decoration-line:none;text-decoration-style:solid;text-decoration-color:#000000;letter-spacing:0px;word-spacing:0px;text-transform:none;writing-mode:lr-tb;direction:ltr;text-orientation:mixed;dominant-baseline:auto;baseline-shift:baseline;text-anchor:middle;white-space:normal;shape-padding:0;opacity:1;vector-effect:none;fill:#555555;fill-opacity:1;stroke:none;stroke-width:0.71912855px;stroke-linecap:butt;stroke-linejoin:miter;stroke-miterlimit:4;stroke-dasharray:none;stroke-dashoffset:0;stroke-opacity:1"
     x="51.17926"
     y="12.867403"
     id="text1364"><tspan
       sodipodi:role="line"
       id="tspan1362"
       x="51.17926"
       y="12.867403"
       style="font-size:4.93888855px;stroke-width:0.71912855px"><tspan
   style="font-weight:bold"
   id="tspan1374">Zelfde formule</tspan> voor de slaapkamer:</tspan></text>
</svg>
