<svg width="100%" height="100%" version="1.1" xmlns="http://www.w3.org/2000/svg"  xmlns:xlink="http://www.w3.org/1999/xlink">
  <style>
    .landscape,
    .portrait {
      visibility: hidden;
    }

    @media screen and (min-width: 480px) {
      .portrait {
        visibility: visible;
      } 

      .mobile {
        visibility: hidden;
      } 
    }

    @media screen and (min-width: 640px) {
      .landscape {
        visibility: visible;
      } 

      .portrait {
        visibility: hidden;
      } 
    }
  </style>

  <symbol id="landscape" viewBox="0 0 261.92 102.32" width="100%" height="100%">
    <circle id="head" transform="scale(-1,1)" cx="-147.3" cy="48.382" r="6.717" color="#000000" color-rendering="auto" fill-rule="evenodd" image-rendering="auto" shape-rendering="auto" solid-color="#000000" stroke-width=".6717" style="isolation:auto;mix-blend-mode:normal"/>
    <path id="body" d="m154.65 54.977c-3.7211 0-6.7169 2.9956-6.7169 6.7169v6.1032h5.8418v-6.4048c-3e-3 -0.18968 0.15153-0.34424 0.34121-0.3412 0.18546 3e-3 0.33341 0.15574 0.33044 0.3412v6.7405c8e-5 0.18547-0.15019 0.33587-0.33565 0.33599h-8.837c-0.42007 0-0.81907 0.08394-1.1812 0.23603-0.18106 0.07605-0.35302 0.16915-0.51372 0.27733-0.0803 0.05409-0.15769 0.11181-0.2322 0.17321-0.0745 0.06139-0.14596 0.12652-0.21417 0.19473-0.0681 0.06815-0.1334 0.13936-0.19473 0.21381-5e-5 6.5e-5 5e-5 3.55e-4 0 3.55e-4 -0.24548 0.29803-0.43457 0.6445-0.55155 1.024-3e-5 1.05e-4 4e-5 1.78e-4 0 3.56e-4 -0.0585 0.18968-0.0989 0.38766-0.11941 0.59182-0.0103 0.10213-0.0156 0.20599-0.0156 0.31101 0 0.10502 5e-3 0.20852 0.0156 0.31065 2e-5 1.13e-4 -1e-5 1.77e-4 0 3.55e-4 0.0205 0.20416 0.0609 0.40209 0.11941 0.59182 4e-5 1.07e-4 -3e-5 1.78e-4 0 3.55e-4 0.0292 0.09481 0.063 0.18756 0.101 0.27804 5e-5 9.9e-5 -4e-5 1.78e-4 0 3.55e-4 0.038 0.09046 0.0804 0.17852 0.1267 0.26414 5e-5 9.1e-5 -4e-5 1.78e-4 0 3.56e-4 0.1852 0.34278 0.43473 0.64501 0.73275 0.89067 0.14903 0.12286 0.31006 0.23151 0.48144 0.32419 0.25705 0.13902 0.53711 0.24195 0.83339 0.30198 0.19751 0.04002 0.40226 0.06109 0.61229 0.06109 0 0 14.24 0.0052 16.093 0.0052v-12.827c0-3.7212-2.9956-6.7169-6.7169-6.7169zm-15.937 20.215c-0.89508 0.08184-1.6848 0.46303-2.2364 1.1055l-14.065 14.065c-1.3156 1.3156-1.3156 3.4339 0 4.7495 1.3156 1.3156 3.4342 1.3156 4.7499 0l8.5051-8.5051v12.029c0 1.8605 1.498 3.3585 3.3585 3.3585 1.8605 0 3.3585-1.498 3.3585-3.3585v-16.792h12.3c3.6838-0.018 6.647-2.9722 6.6815-6.652-1.8566-1e-6 -22.636-0.0016-22.652 0z" color="#000000" color-rendering="auto" fill-rule="evenodd" image-rendering="auto" shape-rendering="auto" solid-color="#000000" stroke-width=".17772" style="isolation:auto;mix-blend-mode:normal"/>
    <rect transform="matrix(-.5 -.86603 .99991 .013408 0 0)" x="-84.477" y="93.041" width="10.525" height="7.5862" ry="0" color="#000000" color-rendering="auto" fill-rule="evenodd" image-rendering="auto" shape-rendering="auto" solid-color="#000000" stroke-width=".6717" style="isolation:auto;mix-blend-mode:normal;paint-order:fill markers stroke"/>
    <rect transform="matrix(-.86603 .5 .5 .86603 0 0)" x="-86.454" y="121.54" width="6.4785" height="1.6491" color="#000000" color-rendering="auto" fill-rule="evenodd" image-rendering="auto" shape-rendering="auto" solid-color="#000000" stroke-width=".6717" style="isolation:auto;mix-blend-mode:normal;paint-order:fill markers stroke"/>
    <path id="bulb" d="m133.93 42.663c-0.0429-0.043-0.10735-0.06437-0.15028-0.06437-0.0644 0-0.10735 0.0215-0.15028 0.06437-0.0859 0.08586-0.0859 0.2147 0 0.30058l0.81584 0.83731c0.0859 0.08586 0.21468 0.08586 0.30056 0 0.0859-0.08586 0.0859-0.2147 0-0.30058zm-5.861-5.2436 0.88024 0.88024c0.0859 0.08586 0.2147 0.08586 0.30056 0 0.0859-0.08586 0.0859-0.2147 0-0.30058l-0.88024-0.88024c-0.10735-0.08586-0.2147-0.08586-0.30058 0-0.0644 0.06436-0.0644 0.2147 0 0.30058zm5.5176 0.86519c0.0859 0.08586 0.21469 0.08586 0.30057 0l0.85877-0.85877c0.0859-0.08586 0.0859-0.2147 0-0.30058-0.10735-0.08586-0.19322-0.08586-0.30056 0l-0.85877 0.85877c-0.0859 0.08586-0.0859 0.2147 0 0.30058zm-4.5082 4.2998c-0.0644 0-0.10735 0.0215-0.15028 0.06436l-0.8373 0.83731c-0.0859 0.08586-0.0859 0.21469 0 0.30056 0.0859 0.08586 0.2147 0.08586 0.30056 0l0.8373-0.8373c0.0859-0.08586 0.0859-0.2147 0-0.30058-0.0429-0.04287-0.10735-0.06436-0.15028-0.06436zm2.34 0.99628c-0.12881 0-0.2147 0.08586-0.2147 0.2147v1.1593c0 0.12886 0.0859 0.2147 0.2147 0.2147 0.12882 0 0.2147-0.08586 0.2147-0.2147v-1.1593c0-0.12886-0.0859-0.2147-0.2147-0.2147zm3.0701-3.1331c0 0.12886 0.0859 0.2147 0.2147 0.2147h1.2238c0.12881 0 0.2147-0.08586 0.2147-0.2147 0-0.12886-0.0859-0.21469-0.2147-0.21469h-1.2238c-0.12881 0-0.2147 0.10736-0.2147 0.21469zm-7.5796 0.22285h1.2238c0.12882 0 0.2147-0.08586 0.2147-0.2147 0-0.12886-0.0859-0.21469-0.2147-0.21469h-1.2238c-0.12881 0-0.2147 0.08586-0.2147 0.21469 0 0.12886 0.10735 0.2147 0.2147 0.2147zm3.5866-3.7361c-0.0429 0.79437-0.32182 1.5454-0.81561 2.1251-0.34351 0.40791-0.53653 0.9448-0.53653 1.4816 0 1.2452 1.0088 2.2755 2.2755 2.2755 0.0859 0 0.17155-0.02097 0.25742-0.02097 1.0091-0.12886 1.8468-0.92344 1.997-1.911 0.10735-0.64407-0.0643-1.267-0.47217-1.7823-0.51527-0.66554-0.81604-1.3949-0.85898-2.1677z" fill="#ffb700" stroke-width=".1978"/>
    <path id="wire" transform="scale(.26458)" d="m496.7 62.311a1.6668 1.6668 0 0 0-1.6387 1.6914v65.041h-1.4473c-0.73781 0-1.3301 0.59422-1.3301 1.332v9.8711c0 0.73782 0.59227 1.332 1.3301 1.332h6.209c0.73782 1e-5 1.332-0.59421 1.332-1.332v-9.8711c0-0.73781-0.59421-1.332-1.332-1.332h-1.4238v-65.041a1.6668 1.6668 0 0 0-1.6992-1.6914z" color="#000000" color-rendering="auto" dominant-baseline="auto" image-rendering="auto" shape-rendering="auto" solid-color="#000000" style="font-feature-settings:normal;font-variant-alternates:normal;font-variant-caps:normal;font-variant-ligatures:normal;font-variant-numeric:normal;font-variant-position:normal;isolation:auto;mix-blend-mode:normal;shape-padding:0;text-decoration-color:#000000;text-decoration-line:none;text-decoration-style:solid;text-indent:0;text-orientation:mixed;text-transform:none;white-space:normal"/>
    <text id="tagline" x="-0.032927215" y="17.549192" dominant-baseline="auto" fill="#000000" font-family="Quicksand" font-size="22.58px" letter-spacing="0px" stroke-width="2.5572px" word-spacing="0px" style="font-feature-settings:normal;font-variant-alternates:normal;font-variant-caps:normal;font-variant-ligatures:normal;font-variant-numeric:normal;font-variant-position:normal;line-height:1;shape-padding:0;text-decoration-color:#000000;text-decoration-line:none;text-decoration-style:solid;text-indent:0;text-orientation:mixed;text-transform:none;white-space:normal" xml:space="preserve"><tspan x="-0.032927215" y="17.549192" style="line-height:1">Wetenschap</tspan><tspan x="-0.032927215" y="40.129375" style="line-height:1">Verlicht.</tspan></text>
    <path id="dot" d="m131.34 18.018q-0.38386 0-0.58708-0.2258-0.20322-0.24838-0.20322-0.65483v-0.47418q0-0.40644 0.20322-0.63224t0.58708-0.2258h0.15806q0.38386 0 0.58708 0.2258t0.20322 0.63224v0.47418q0 0.40644-0.20322 0.65483-0.20322 0.2258-0.58708 0.2258z" dominant-baseline="auto" style="font-feature-settings:normal;font-variant-alternates:normal;font-variant-caps:normal;font-variant-ligatures:normal;font-variant-numeric:normal;font-variant-position:normal;shape-padding:0;text-decoration-color:#000000;text-decoration-line:none;text-decoration-style:solid;text-indent:0;text-orientation:mixed;text-transform:none;white-space:normal"/>
    <a href="/lessen/fysica/krachten_1/zwaartekracht/" class="_show_example_lesson">
      <rect id="button_bg" x="144" y="83.286" width="96.386" height="18.709" rx="2.2206" ry="2.5" fill="#ffb700" style="paint-order:markers fill stroke"/>
      <text id="button_text" x="192.33945" y="95.428108" dominant-baseline="auto" fill="#ffffff" font-family="Quicksand" font-size="10.267px" font-weight="500" letter-spacing="0px" stroke-width="1.1627px" text-align="center" text-anchor="middle" word-spacing="0px" style="font-feature-settings:normal;font-variant-alternates:normal;font-variant-caps:normal;font-variant-ligatures:normal;font-variant-numeric:normal;font-variant-position:normal;line-height:1.29999995;shape-padding:0;text-decoration-color:#000000;text-decoration-line:none;text-decoration-style:solid;text-indent:0;text-orientation:mixed;text-transform:none;white-space:normal" xml:space="preserve"><tspan x="192.33945" y="95.428108" fill="#ffffff" font-family="Quicksand" font-weight="500" stroke-width="1.1627px" text-align="center" text-anchor="middle">Toon mij een les!</tspan></text>
    </a>
    <text id="text" x="0.4222272" y="63.141445" dominant-baseline="auto" fill="#555555" font-family="Quicksand" font-size="6.35px" letter-spacing="0px" stroke-width=".71913px" word-spacing="0px" style="font-feature-settings:normal;font-variant-alternates:normal;font-variant-caps:normal;font-variant-ligatures:normal;font-variant-numeric:normal;font-variant-position:normal;line-height:1.29999995;shape-padding:0;text-decoration-color:#000000;text-decoration-line:none;text-decoration-style:solid;text-indent:0;text-orientation:mixed;text-transform:none;white-space:normal" xml:space="preserve"><tspan x="0.4222272" y="63.141445">Leer wetenschappen en wiskunde</tspan><tspan x="0.4222272" y="71.396454"><tspan font-weight="bold">écht te begrijpen</tspan>. Stap per stap en</tspan><tspan x="0.4222272" y="79.651459">zonder omwegen.</tspan></text>
  </symbol>

  <symbol id="portrait" viewBox="0 0 169.83 157.61"  height="100%" width="100%">
    <g transform="translate(16.332 -.27681)">
      <a href="/lessen/fysica/krachten_1/zwaartekracht/" class="_show_example_lesson">
        <rect x="6.1271" y="96.143" width="137.01" height="22.451" rx="2.2206" ry="3" fill="#ffb700" stroke-width="1.0954" style="paint-order:markers fill stroke"/>
        <text x="74.840202" y="111.19939" dominant-baseline="auto" fill="#ffffff" font-family="Quicksand" font-size="14.111px" font-weight="500" letter-spacing="0px" stroke-width="1.1627px" text-align="center" text-anchor="middle" word-spacing="0px" style="font-feature-settings:normal;font-variant-alternates:normal;font-variant-caps:normal;font-variant-ligatures:normal;font-variant-numeric:normal;font-variant-position:normal;line-height:1.29999995;shape-padding:0;text-decoration-color:#000000;text-decoration-line:none;text-decoration-style:solid;text-indent:0;text-orientation:mixed;text-transform:none;white-space:normal" xml:space="preserve"><tspan x="74.840202" y="111.19939" fill="#ffffff" font-family="Quicksand" font-size="14.111px" font-weight="500" stroke-width="1.1627px" text-align="center" text-anchor="middle">Toon mij een les!</tspan></text>
      </a>
      <g fill-rule="evenodd" shape-rendering="auto">
      <circle transform="scale(-1,1)" cx="-9.5443" cy="60.994" r="6.717" color="#000000" color-rendering="auto" image-rendering="auto" solid-color="#000000" stroke-width=".6717" style="isolation:auto;mix-blend-mode:normal"/>
      <path d="m16.893 67.589c-3.7211 0-6.7169 2.9956-6.7169 6.7169v6.1032h5.8418v-6.4048c-3e-3 -0.18968 0.15152-0.34424 0.3412-0.3412 0.18547 3e-3 0.33342 0.15573 0.33045 0.3412v6.7405c7.1e-5 0.18547-0.15019 0.33587-0.33566 0.336h-8.837c-0.42007 0-0.81907 0.0839-1.1812 0.23603-0.18106 0.076-0.35302 0.16915-0.51371 0.27732-0.08035 0.0541-0.15769 0.11182-0.23221 0.17321-0.07452 0.0614-0.14596 0.12653-0.21417 0.19473-0.06814 0.0681-0.1334 0.13936-0.19473 0.21381-5.4e-5 7e-5 5.3e-5 3.6e-4 0 3.6e-4 -0.24548 0.29803-0.43458 0.64449-0.55155 1.024-3.6e-5 1e-4 3.5e-5 1.7e-4 0 3.5e-4 -0.05845 0.18968-0.09894 0.38766-0.11941 0.59182-0.01031 0.10214-0.01564 0.20599-0.01564 0.31101s0.0053 0.20851 0.01564 0.31065c1.7e-5 1.1e-4 -1.8e-5 1.8e-4 0 3.6e-4 0.02049 0.20416 0.06094 0.40208 0.11941 0.59182 3.5e-5 1e-4 -3.6e-5 1.7e-4 0 3.5e-4 0.02923 0.0948 0.06302 0.18756 0.101 0.27804 5.3e-5 1e-4 -3.6e-5 1.8e-4 0 3.6e-4 0.038 0.0905 0.08045 0.17851 0.1267 0.26414 5.4e-5 9e-5 -3.5e-5 1.8e-4 0 3.5e-4 0.1852 0.34279 0.43474 0.64502 0.73275 0.89068 0.14904 0.12286 0.31006 0.23151 0.48144 0.32419 0.25705 0.13902 0.53712 0.24195 0.83339 0.30198 0.19752 0.04 0.40226 0.0611 0.61229 0.0611 0 0 14.24 5e-3 16.093 5e-3v-12.827c0-3.7212-2.9956-6.7169-6.7169-6.7169zm-15.937 20.215c-0.89508 0.0818-1.6848 0.46303-2.2364 1.1055l-14.065 14.065c-1.3156 1.3156-1.3156 3.4339 0 4.7495 1.3156 1.3156 3.4342 1.3156 4.7499 0l8.5051-8.5051v12.029c0 1.8605 1.498 3.3585 3.3585 3.3585 1.8605 0 3.3585-1.498 3.3585-3.3585v-16.792h12.3c3.6837-0.018 6.647-2.9722 6.6815-6.652-1.8566 0-22.636-2e-3 -22.652 0z" color="#000000" color-rendering="auto" image-rendering="auto" solid-color="#000000" stroke-width=".17772" style="isolation:auto;mix-blend-mode:normal"/>
      <rect transform="matrix(-.5 -.86603 .99991 .013408 0 0)" x="-101.3" y="-53.142" width="10.525" height="7.5862" ry="0" color="#000000" color-rendering="auto" image-rendering="auto" solid-color="#000000" stroke-width=".6717" style="isolation:auto;mix-blend-mode:normal;paint-order:fill markers stroke"/>
      <rect transform="matrix(-.86603 .5 .5 .86603 0 0)" x="39.152" y="63.581" width="6.4785" height="1.6491" color="#000000" color-rendering="auto" image-rendering="auto" solid-color="#000000" stroke-width=".6717" style="isolation:auto;mix-blend-mode:normal;paint-order:fill markers stroke"/>
      </g>
      <path d="m117.38 55.121c-0.043-0.043-0.10735-0.0644-0.15028-0.0644-0.0644 0-0.10735 0.0215-0.15028 0.0644-0.0859 0.0859-0.0859 0.2147 0 0.30058l0.81583 0.83731c0.0859 0.0859 0.21469 0.0859 0.30057 0 0.0859-0.0859 0.0859-0.2147 0-0.30057zm-5.861-5.2436 0.88024 0.88025c0.0859 0.0859 0.2147 0.0859 0.30056 0 0.0859-0.0859 0.0859-0.2147 0-0.30058l-0.88024-0.88024c-0.10735-0.0859-0.2147-0.0859-0.30058 0-0.0644 0.0644-0.0644 0.2147 0 0.30057zm5.5176 0.8652c0.0859 0.0859 0.2147 0.0859 0.30058 0l0.85877-0.85877c0.0859-0.0859 0.0859-0.2147 0-0.30058-0.10735-0.0859-0.19323-0.0859-0.30056 0l-0.85877 0.85877c-0.0859 0.0859-0.0859 0.2147 0 0.30058zm-4.5082 4.2998c-0.0644 0-0.10735 0.0215-0.15028 0.0644l-0.8373 0.83731c-0.0859 0.0859-0.0859 0.21468 0 0.30056 0.0859 0.0859 0.2147 0.0859 0.30056 0l0.8373-0.8373c0.0859-0.0859 0.0859-0.2147 0-0.30057-0.043-0.0429-0.10735-0.0644-0.15028-0.0644zm2.34 0.99628c-0.1288 0-0.21469 0.0859-0.21469 0.2147v1.1593c0 0.12886 0.0859 0.2147 0.21469 0.2147 0.12883 0 0.2147-0.0859 0.2147-0.2147v-1.1593c0-0.12886-0.0859-0.2147-0.2147-0.2147zm3.0701-3.133c0 0.12886 0.0859 0.2147 0.2147 0.2147h1.2238c0.12881 0 0.2147-0.0859 0.2147-0.2147 0-0.12886-0.0859-0.21468-0.2147-0.21468h-1.2238c-0.12881 0-0.2147 0.10736-0.2147 0.21468zm-7.5796 0.22286h1.2238c0.12882 0 0.2147-0.0859 0.2147-0.2147 0-0.12886-0.0859-0.21469-0.2147-0.21469h-1.2238c-0.12881 0-0.2147 0.0859-0.2147 0.21469 0 0.12886 0.10735 0.2147 0.2147 0.2147zm3.5866-3.7361c-0.0429 0.79437-0.32182 1.5454-0.81561 2.1251-0.34351 0.40791-0.53653 0.94481-0.53653 1.4816 0 1.2452 1.0088 2.2755 2.2755 2.2755 0.0859 0 0.17154-0.021 0.25742-0.021 1.009-0.12887 1.8468-0.92344 1.997-1.911 0.10735-0.64408-0.0643-1.267-0.47218-1.7823-0.51526-0.66555-0.81603-1.3949-0.85898-2.1677z" fill="#ffb700" stroke-width=".1978"/>
      <path d="m114.87 38.717a0.44101 0.44101 0 0 0-0.43356 0.447v7.4357h-0.38396c-0.19521 0-0.35243 0.15722-0.35243 0.35243v2.6122c0 0.19521 0.15722 0.35243 0.35243 0.35243h1.6428c0.19522 0 0.35244-0.15722 0.35244-0.35243v-2.6122c0-0.19521-0.15722-0.35243-0.35244-0.35243h-0.37827v-7.4357a0.44101 0.44101 0 0 0-0.447-0.447z" color="#000000" color-rendering="auto" dominant-baseline="auto" image-rendering="auto" shape-rendering="auto" solid-color="#000000" style="font-feature-settings:normal;font-variant-alternates:normal;font-variant-caps:normal;font-variant-ligatures:normal;font-variant-numeric:normal;font-variant-position:normal;isolation:auto;mix-blend-mode:normal;shape-padding:0;text-decoration-color:#000000;text-decoration-line:none;text-decoration-style:solid;text-indent:0;text-orientation:mixed;text-transform:none;white-space:normal"/>
      <text x="74.353691" y="16.986013" dominant-baseline="auto" fill="#000000" font-family="Quicksand" font-size="22.58px" letter-spacing="0px" stroke-width="2.5572px" text-align="center" text-anchor="middle" word-spacing="0px" style="font-feature-settings:normal;font-variant-alternates:normal;font-variant-caps:normal;font-variant-ligatures:normal;font-variant-numeric:normal;font-variant-position:normal;line-height:1;shape-padding:0;text-decoration-color:#000000;text-decoration-line:none;text-decoration-style:solid;text-indent:0;text-orientation:mixed;text-transform:none;white-space:normal" xml:space="preserve"><tspan x="74.353691" y="16.986013" text-align="center" style="line-height:1">Wetenschap.</tspan><tspan x="74.353691" y="39.5662" text-align="center" style="line-height:1">Verlicht</tspan></text>
      <path d="m114.79 39.586q-0.38386 0-0.58709-0.2258-0.20322-0.24839-0.20322-0.65483v-0.47418q0-0.40645 0.20322-0.63225 0.20323-0.2258 0.58709-0.2258h0.15806q0.38386 0 0.58709 0.2258 0.20322 0.2258 0.20322 0.63225v0.47418q0 0.40644-0.20322 0.65483-0.20323 0.2258-0.58709 0.2258z" dominant-baseline="auto" style="font-feature-settings:normal;font-variant-alternates:normal;font-variant-caps:normal;font-variant-ligatures:normal;font-variant-numeric:normal;font-variant-position:normal;shape-padding:0;text-decoration-color:#000000;text-decoration-line:none;text-decoration-style:solid;text-indent:0;text-orientation:mixed;text-transform:none;white-space:normal"/>
      <text x="73.890488" y="134.18353" dominant-baseline="auto" fill="#555555" font-family="Quicksand" font-size="8.4667px" letter-spacing="0px" stroke-width=".71913px" text-align="center" text-anchor="middle" word-spacing="0px" style="font-feature-settings:normal;font-variant-alternates:normal;font-variant-caps:normal;font-variant-ligatures:normal;font-variant-numeric:normal;font-variant-position:normal;line-height:1.29999995;shape-padding:0;text-decoration-color:#000000;text-decoration-line:none;text-decoration-style:solid;text-indent:0;text-orientation:mixed;text-transform:none;white-space:normal" xml:space="preserve"><tspan x="73.890488" y="134.18353">Leer wetenschappen en wiskunde</tspan><tspan x="73.890488" y="145.1902"><tspan font-size="8.4667px" font-weight="bold" stroke-width=".71913px">écht te begrijpen</tspan>. Stap per stap en</tspan><tspan x="73.890488" y="156.19687">zonder omwegen.</tspan></text>
    </g>
  </symbol>

  <symbol id="mobile" viewBox="0 0 126.84 176.11" width="100%" height="100%">
    <g fill-rule="evenodd" shape-rendering="auto">
      <circle transform="scale(-1,1)" cx="-26.568" cy="53.536" r="6.717" color="#000000" color-rendering="auto" image-rendering="auto" solid-color="#000000" stroke-width=".6717" style="isolation:auto;mix-blend-mode:normal"/>
      <path d="m33.917 60.13c-3.7211 0-6.7169 2.9956-6.7169 6.7169v6.1032h5.8418v-6.4048c-3e-3 -0.18968 0.15152-0.34424 0.3412-0.3412 0.18547 3e-3 0.33342 0.15573 0.33045 0.3412v6.7405c7.1e-5 0.18547-0.15019 0.33587-0.33566 0.336h-8.837c-0.42007 0-0.81907 0.0839-1.1812 0.23603-0.18106 0.076-0.35302 0.16915-0.51371 0.27732-0.08035 0.0541-0.15769 0.11182-0.23221 0.17321-0.07452 0.0614-0.14596 0.12653-0.21417 0.19473-0.06814 0.0681-0.1334 0.13936-0.19473 0.21381-5.4e-5 7e-5 5.4e-5 2.7e-4 0 2.7e-4 -0.24548 0.29803-0.43458 0.64449-0.55155 1.024-3.6e-5 1.1e-4 3.4e-5 1.8e-4 0 2.7e-4 -0.05845 0.18968-0.09894 0.38766-0.11941 0.59182-0.01031 0.10214-0.01564 0.20599-0.01564 0.31101s0.0053 0.20851 0.01564 0.31065c1.7e-5 1.1e-4 -1.8e-5 1.8e-4 0 2.6e-4 0.02049 0.20416 0.06094 0.40208 0.11941 0.59182 3.4e-5 1e-4 -3.6e-5 1.7e-4 0 2.7e-4 0.02923 0.0948 0.06302 0.18756 0.101 0.27804 5.3e-5 1e-4 -3.6e-5 1.8e-4 0 2.6e-4 0.038 0.0905 0.08045 0.17851 0.1267 0.26414 5.3e-5 9e-5 -3.5e-5 1.8e-4 0 2.7e-4 0.1852 0.34279 0.43474 0.64502 0.73275 0.89068 0.14904 0.12286 0.31007 0.23151 0.48144 0.32419 0.25705 0.13902 0.53712 0.24195 0.83339 0.30198 0.19752 0.04 0.40227 0.0611 0.61229 0.0611 0 0 14.24 5e-3 16.093 5e-3v-12.827c0-3.7212-2.9956-6.7169-6.7169-6.7169zm-15.937 20.215c-0.89508 0.0818-1.6848 0.46303-2.2364 1.1055l-14.065 14.065c-1.3156 1.3156-1.3156 3.4339 0 4.7495 1.3156 1.3156 3.4342 1.3156 4.7499 0l8.5051-8.5051v12.029c0 1.8605 1.498 3.3585 3.3585 3.3585s3.3585-1.498 3.3585-3.3585v-16.792h12.3c3.6837-0.018 6.647-2.9722 6.6815-6.652-1.8566 0-22.636-2e-3 -22.652 0z" color="#000000" color-rendering="auto" image-rendering="auto" solid-color="#000000" stroke-width=".17772" style="isolation:auto;mix-blend-mode:normal"/>
      <rect transform="matrix(-.5 -.86603 .99991 .013408 0 0)" x="-92.359" y="-31.644" width="10.525" height="7.5862" ry="0" color="#000000" color-rendering="auto" image-rendering="auto" solid-color="#000000" stroke-width=".6717" style="isolation:auto;mix-blend-mode:normal;paint-order:fill markers stroke"/>
      <rect transform="matrix(-.86603 .5 .5 .86603 0 0)" x="20.681" y="65.634" width="6.4785" height="1.6491" color="#000000" color-rendering="auto" image-rendering="auto" solid-color="#000000" stroke-width=".6717" style="isolation:auto;mix-blend-mode:normal;paint-order:fill markers stroke"/>
    </g>
    <g transform="matrix(.96046 0 0 .96046 -2.5994 -82.398)">
      <path d="m112.1 140.64c-0.043-0.043-0.10734-0.0644-0.15028-0.0644-0.0644 0-0.10735 0.0215-0.15029 0.0644-0.0859 0.0859-0.0859 0.2147 0 0.30058l0.81584 0.83731c0.0859 0.0859 0.21468 0.0859 0.30057 0 0.0859-0.0859 0.0859-0.2147 0-0.30057zm-5.861-5.2436 0.88024 0.88025c0.0859 0.0859 0.2147 0.0859 0.30056 0 0.0859-0.0859 0.0859-0.2147 0-0.30058l-0.88024-0.88024c-0.10735-0.0859-0.2147-0.0859-0.30058 0-0.0644 0.0644-0.0644 0.2147 0 0.30057zm5.5176 0.8652c0.0859 0.0859 0.2147 0.0859 0.30057 0l0.85878-0.85877c0.0859-0.0859 0.0859-0.2147 0-0.30058-0.10735-0.0859-0.19323-0.0859-0.30056 0l-0.85876 0.85877c-0.0859 0.0859-0.0859 0.2147 0 0.30058zm-4.5082 4.2998c-0.0644 0-0.10734 0.0215-0.15027 0.0644l-0.8373 0.83731c-0.0859 0.0859-0.0859 0.21468 0 0.30056 0.0859 0.0859 0.2147 0.0859 0.30056 0l0.8373-0.8373c0.0859-0.0859 0.0859-0.2147 0-0.30057-0.043-0.0429-0.10735-0.0644-0.15029-0.0644zm2.34 0.99628c-0.12881 0-0.21469 0.0859-0.21469 0.2147v1.1593c0 0.12886 0.0859 0.2147 0.21469 0.2147 0.12882 0 0.21469-0.0859 0.21469-0.2147v-1.1593c0-0.12886-0.0859-0.2147-0.21469-0.2147zm3.0701-3.133c0 0.12886 0.0859 0.2147 0.21469 0.2147h1.2238c0.12881 0 0.2147-0.0859 0.2147-0.2147 0-0.12886-0.0859-0.21468-0.2147-0.21468h-1.2238c-0.12881 0-0.21469 0.10736-0.21469 0.21468zm-7.5796 0.22286h1.2237c0.12883 0 0.21471-0.0859 0.21471-0.2147 0-0.12886-0.0859-0.21469-0.21471-0.21469h-1.2237c-0.12881 0-0.2147 0.0859-0.2147 0.21469 0 0.12886 0.10734 0.2147 0.2147 0.2147zm3.5866-3.7361c-0.0429 0.79437-0.32182 1.5454-0.81562 2.1251-0.3435 0.40791-0.53651 0.94481-0.53651 1.4816 0 1.2452 1.0088 2.2755 2.2755 2.2755 0.0859 0 0.17154-0.021 0.25741-0.021 1.0091-0.12887 1.8468-0.92344 1.997-1.911 0.10736-0.64408-0.0643-1.267-0.47218-1.7823-0.51526-0.66555-0.81603-1.3949-0.85898-2.1677z" fill="#ffb700" stroke-width=".1978"/>
      <path d="m109.59 124.23a0.44101 0.44101 0 0 0-0.43356 0.447v7.4357h-0.38396c-0.19521 0-0.35243 0.15722-0.35243 0.35243v2.6122c0 0.19521 0.15722 0.35243 0.35243 0.35243h1.6428c0.19522 0 0.35244-0.15722 0.35244-0.35243v-2.6122c0-0.19521-0.15722-0.35243-0.35244-0.35243h-0.37827v-7.4357a0.44101 0.44101 0 0 0-0.447-0.447z" color="#000000" color-rendering="auto" dominant-baseline="auto" image-rendering="auto" shape-rendering="auto" solid-color="#000000" style="font-feature-settings:normal;font-variant-alternates:normal;font-variant-caps:normal;font-variant-ligatures:normal;font-variant-numeric:normal;font-variant-position:normal;isolation:auto;mix-blend-mode:normal;shape-padding:0;text-decoration-color:#000000;text-decoration-line:none;text-decoration-style:solid;text-indent:0;text-orientation:mixed;text-transform:none;white-space:normal"/>
      <text x="69.076408" y="102.50013" dominant-baseline="auto" fill="#000000" font-family="Quicksand" font-size="22.58px" letter-spacing="0px" stroke-width="2.5572px" text-align="center" text-anchor="middle" word-spacing="0px" style="font-feature-settings:normal;font-variant-alternates:normal;font-variant-caps:normal;font-variant-ligatures:normal;font-variant-numeric:normal;font-variant-position:normal;line-height:1;shape-padding:0;text-decoration-color:#000000;text-decoration-line:none;text-decoration-style:solid;text-indent:0;text-orientation:mixed;text-transform:none;white-space:normal" xml:space="preserve"><tspan x="69.076408" y="102.50013" text-align="center" style="line-height:1">Wetenschap.</tspan><tspan x="69.076408" y="125.08031" text-align="center" style="line-height:1">Verlicht</tspan></text>
      <path d="m109.51 125.1q-0.38386 0-0.58708-0.2258-0.20323-0.24839-0.20323-0.65483v-0.47418q0-0.40645 0.20323-0.63225 0.20322-0.2258 0.58708-0.2258h0.15805q0.38386 0 0.5871 0.2258 0.20322 0.2258 0.20322 0.63225v0.47418q0 0.40644-0.20322 0.65483-0.20324 0.2258-0.5871 0.2258z" dominant-baseline="auto" style="font-feature-settings:normal;font-variant-alternates:normal;font-variant-caps:normal;font-variant-ligatures:normal;font-variant-numeric:normal;font-variant-position:normal;shape-padding:0;text-decoration-color:#000000;text-decoration-line:none;text-decoration-style:solid;text-indent:0;text-orientation:mixed;text-transform:none;white-space:normal"/>
    </g>
    <a href="/lessen/fysica/krachten_1/zwaartekracht/" class="_show_example_lesson">
      <rect x="23.154" y="88.752" width="80.693" height="32.278" rx="2.2206" ry="3" fill="#ffb700" stroke-width="1.0954" style="paint-order:markers fill stroke"/>
      <text x="63.58213" y="102.98618" dominant-baseline="auto" fill="#f4f4f4" font-family="Quicksand" font-size="14.111px" letter-spacing="0px" stroke-width=".71913px" text-align="center" text-anchor="middle" word-spacing="0px" style="font-feature-settings:normal;font-variant-alternates:normal;font-variant-caps:normal;font-variant-ligatures:normal;font-variant-numeric:normal;font-variant-position:normal;line-height:1;shape-padding:0;text-decoration-color:#000000;text-decoration-line:none;text-decoration-style:solid;text-indent:0;text-orientation:mixed;text-transform:none;white-space:normal" xml:space="preserve"><tspan x="63.58213" y="102.98618" style="line-height:1">Toon mij</tspan><tspan x="63.58213" y="117.09729" style="line-height:1">een les!</tspan></text>
    </a>
    <text x="63.582188" y="135.61382" dominant-baseline="auto" fill="#555555" font-family="Quicksand" font-size="9.8778px" letter-spacing="0px" stroke-width=".71913px" text-align="center" text-anchor="middle" word-spacing="0px" style="font-feature-settings:normal;font-variant-alternates:normal;font-variant-caps:normal;font-variant-ligatures:normal;font-variant-numeric:normal;font-variant-position:normal;line-height:1.29999995;shape-padding:0;text-decoration-color:#000000;text-decoration-line:none;text-decoration-style:solid;text-indent:0;text-orientation:mixed;text-transform:none;white-space:normal" xml:space="preserve"><tspan x="63.582188" y="135.61382">Leer wetenschappen en</tspan><tspan x="63.582188" y="148.45493">wiskunde <tspan font-size="9.8778px" font-weight="bold">écht te begrijpen</tspan>.</tspan><tspan x="63.582188" y="161.29604">Stap per stap en zonder</tspan><tspan x="63.582188" y="174.13715">omwegen.</tspan></text>
  </symbol>

  <use class="landscape" xlink:href="#landscape" x="0" y="0" width="100%" height="100%"/>
  <use class="portrait" xlink:href="#portrait" x="0" y="0" width="100%" height="100%"/>
  <use class="mobile" xlink:href="#mobile" x="0" y="0" width="100%" height="100%"/>
</svg>
