<?xml version="1.0" encoding="UTF-8" standalone="no"?>
<!-- Created with Inkscape (http://www.inkscape.org/) -->

<svg
   xmlns:dc="http://purl.org/dc/elements/1.1/"
   xmlns:cc="http://creativecommons.org/ns#"
   xmlns:rdf="http://www.w3.org/1999/02/22-rdf-syntax-ns#"
   xmlns:svg="http://www.w3.org/2000/svg"
   xmlns="http://www.w3.org/2000/svg"
   xmlns:sodipodi="http://sodipodi.sourceforge.net/DTD/sodipodi-0.dtd"
   xmlns:inkscape="http://www.inkscape.org/namespaces/inkscape"
   width="217.00545mm"
   height="90.342331mm"
   viewBox="0 0 217.00545 90.342331"
   version="1.1"
   id="svg1995"
   inkscape:version="0.92.3 (unknown)"
   sodipodi:docname="caliper.svg">
  <defs
     id="defs1989" />
  <sodipodi:namedview
     id="base"
     pagecolor="#ffffff"
     bordercolor="#666666"
     borderopacity="1.0"
     inkscape:pageopacity="0.0"
     inkscape:pageshadow="2"
     inkscape:zoom="0.35"
     inkscape:cx="-292.73939"
     inkscape:cy="-306.68668"
     inkscape:document-units="mm"
     inkscape:current-layer="layer1"
     showgrid="false"
     inkscape:window-width="1600"
     inkscape:window-height="875"
     inkscape:window-x="0"
     inkscape:window-y="25"
     inkscape:window-maximized="1" />
  <metadata
     id="metadata1992">
    <rdf:RDF>
      <cc:Work
         rdf:about="">
        <dc:format>image/svg+xml</dc:format>
        <dc:type
           rdf:resource="http://purl.org/dc/dcmitype/StillImage" />
        <dc:title />
      </cc:Work>
    </rdf:RDF>
  </metadata>
  <g
     inkscape:label="Layer 1"
     inkscape:groupmode="layer"
     id="layer1"
     transform="translate(-59.311106,22.653181)">
    <path
       id="path1972"
       style="clip-rule:evenodd;fill:#357edd;fill-rule:evenodd;stroke-width:0.226441"
       d="m 126.92235,29.537117 h 149.3942 v 4.89121 H 126.92217 M 79.175758,21.791687 v -2.56061 -5.48445 -36.396521 l 6.88262,4.173869 12.978659,34.150682 h 8.798823 c 0,-3.59879 2.92072,-6.5196001 6.51952,-6.5196001 3.60191,0 6.5257,2.9208101 6.5257,6.5196001 h 6.04128 l 0.006,32.61915 H 63.733077 v 0.27241 c 0,1.5497 0.62289,2.95107 1.62832,3.97713 v 15.1458 c -3.64413,-2.46074 -6.04129,-6.62856 -6.04129,-11.35632 v -8.03902 h -0.009 v -5.27561 l -10e-7,-21.22651 z"
       inkscape:connector-curvature="0"
       sodipodi:nodetypes="cccccccccccsccccsccsccccc" />
    <path
       style="clip-rule:evenodd;fill:#357edd;fill-rule:evenodd;stroke-width:0.226441"
       d="m 79.175528,-22.653181 -6.885884,4.173905 -12.978538,34.150883 v 6.12004 7.74527 4.89117 7.74888 6.11694 l 7.611801,-0.0698 v 0.27285 c 0,1.54666 -0.623155,2.94793 -1.628325,3.97702 v 15.14584 c 3.64413,-2.46376 5.876149,-6.63152 6.040974,-11.35641 v -8.0393 -6.04718 H 276.31646 V 21.791647 H 79.175528 v -6.11693 -1.92805 z"
       id="path1960"
       inkscape:connector-curvature="0"
       sodipodi:nodetypes="cccccccccsccscccccccc" />
  </g>
</svg>
