<?xml version="1.0" encoding="UTF-8" standalone="no"?>
<!-- Created with Inkscape (http://www.inkscape.org/) -->

<svg
   xmlns:osb="http://www.openswatchbook.org/uri/2009/osb"
   xmlns:dc="http://purl.org/dc/elements/1.1/"
   xmlns:cc="http://creativecommons.org/ns#"
   xmlns:rdf="http://www.w3.org/1999/02/22-rdf-syntax-ns#"
   xmlns:svg="http://www.w3.org/2000/svg"
   xmlns="http://www.w3.org/2000/svg"
   xmlns:xlink="http://www.w3.org/1999/xlink"
   xmlns:sodipodi="http://sodipodi.sourceforge.net/DTD/sodipodi-0.dtd"
   xmlns:inkscape="http://www.inkscape.org/namespaces/inkscape"
   width="435.80212pt"
   height="206.61562pt"
   viewBox="0 0 153.7413 72.889394"
   version="1.1"
   id="svg13550"
   inkscape:version="0.92.4 (unknown)"
   sodipodi:docname="schaduw_intro.svg">
  <defs
     id="defs13544">
    <linearGradient
       osb:paint="gradient"
       id="linearGradient18201">
      <stop
         id="stop18203"
         offset="0"
         style="stop-color:#cc0000;stop-opacity:1;" />
      <stop
         id="stop18205"
         offset="1"
         style="stop-color:#cc0000;stop-opacity:0;" />
    </linearGradient>
  </defs>
  <sodipodi:namedview
     id="base"
     pagecolor="#ffffff"
     bordercolor="#666666"
     borderopacity="1.0"
     inkscape:pageopacity="0.0"
     inkscape:pageshadow="2"
     inkscape:zoom="1.979899"
     inkscape:cx="315.55088"
     inkscape:cy="141.29575"
     inkscape:document-units="mm"
     inkscape:current-layer="g16317"
     showgrid="false"
     inkscape:window-width="1920"
     inkscape:window-height="1055"
     inkscape:window-x="1600"
     inkscape:window-y="25"
     inkscape:window-maximized="1"
     units="pt"
     inkscape:snap-page="true"
     inkscape:snap-global="false"
     inkscape:object-paths="true"
     inkscape:snap-bbox="true"
     inkscape:bbox-paths="true"
     showguides="true"
     inkscape:guide-bbox="true"
     inkscape:snap-midpoints="true"
     inkscape:snap-center="true"
     inkscape:snap-smooth-nodes="true" />
  <metadata
     id="metadata13547">
    <rdf:RDF>
      <cc:Work
         rdf:about="">
        <dc:format>image/svg+xml</dc:format>
        <dc:type
           rdf:resource="http://purl.org/dc/dcmitype/StillImage" />
        <dc:title />
      </cc:Work>
    </rdf:RDF>
  </metadata>
  <g
     inkscape:label="Layer 1"
     inkscape:groupmode="layer"
     id="layer1"
     transform="translate(-8.6213531,-210.47903)">
    <text
       xml:space="preserve"
       style="font-style:normal;font-variant:normal;font-weight:normal;font-stretch:normal;font-size:4.23333311px;line-height:1.25;font-family:Quicksand;-inkscape-font-specification:Quicksand;text-align:end;letter-spacing:0px;word-spacing:0px;text-anchor:end;fill:#d3d3d3;fill-opacity:1;stroke:none;stroke-width:0.26458332"
       x="162.30548"
       y="282.52176"
       id="text7806"><tspan
         sodipodi:role="line"
         id="tspan7804"
         x="162.30548"
         y="282.52176"
         style="font-size:4.23333311px;text-align:end;text-anchor:end;fill:#d3d3d3;stroke-width:0.26458332">Meer op: https://hoezithet.nu</tspan></text>
    <path
       style="fill:none;stroke:none;stroke-width:0.26458332px;stroke-linecap:butt;stroke-linejoin:miter;stroke-opacity:1"
       d="M 8.6213531,210.47903 H 162.36266"
       id="path26864"
       inkscape:connector-curvature="0" />
    <g
       id="g8607-9-8-6-2"
       transform="matrix(-0.06181578,0,0,0.06172842,129.54094,195.68102)"
       style="display:inline;stroke-width:1.08531773" />
    <g
       id="g16317"
       transform="translate(1.09277)">
      <g
         style="fill:#fbf1a9;stroke:none;stroke-width:1.196509"
         id="g10250"
         transform="matrix(0.05398394,0.07691352,0,0.13321813,90.239893,124.15727)">
        <rect
           y="193.99521"
           x="835.09308"
           height="304.05591"
           width="304.05591"
           id="rect10246"
           style="color:#000000;clip-rule:nonzero;display:inline;overflow:visible;visibility:visible;opacity:1;isolation:auto;mix-blend-mode:normal;color-interpolation:sRGB;color-interpolation-filters:linearRGB;solid-color:#000000;solid-opacity:1;fill:#fbf1a9;fill-opacity:1;fill-rule:nonzero;stroke:none;stroke-width:8.07256413;stroke-linecap:round;stroke-linejoin:miter;stroke-miterlimit:4;stroke-dasharray:none;stroke-dashoffset:0;stroke-opacity:1;color-rendering:auto;image-rendering:auto;shape-rendering:auto;text-rendering:auto;enable-background:accumulate" />
      </g>
      <text
         id="text76654-9"
         y="266.96991"
         x="127.91904"
         style="font-style:normal;font-variant:normal;font-weight:normal;font-stretch:normal;font-size:4.23333311px;line-height:1.29999995;font-family:Quicksand;-inkscape-font-specification:'Quicksand, Normal';font-variant-ligatures:normal;font-variant-position:normal;font-variant-caps:normal;font-variant-numeric:normal;font-variant-alternates:normal;font-feature-settings:normal;text-indent:0;text-align:end;text-decoration:none;text-decoration-line:none;text-decoration-style:solid;text-decoration-color:#000000;letter-spacing:0px;word-spacing:0px;text-transform:none;writing-mode:lr-tb;direction:ltr;text-orientation:mixed;dominant-baseline:auto;baseline-shift:baseline;text-anchor:end;white-space:normal;shape-padding:0;opacity:1;vector-effect:none;fill:#555555;fill-opacity:1;stroke:none;stroke-width:0.71912861px;stroke-linecap:butt;stroke-linejoin:miter;stroke-miterlimit:4;stroke-dasharray:none;stroke-dashoffset:0;stroke-opacity:1;"
         xml:space="preserve"><tspan
           style="font-style:normal;font-variant:normal;font-weight:normal;font-stretch:normal;font-size:4.23333311px;font-family:Quicksand;-inkscape-font-specification:'Quicksand, Normal';font-variant-ligatures:normal;font-variant-caps:normal;font-variant-numeric:normal;font-feature-settings:normal;text-align:end;writing-mode:lr-tb;text-anchor:end;fill:#555555;stroke-width:0.71912861px;"
           y="266.96991"
           x="127.91904"
           id="tspan76652-6"
           sodipodi:role="line">Hier geraken geen lichtstralen</tspan></text>
      <g
         id="g16140">
        <text
           xml:space="preserve"
           style="font-style:normal;font-variant:normal;font-weight:normal;font-stretch:normal;font-size:2.65355277px;line-height:0%;font-family:Purisa;-inkscape-font-specification:'Purisa, Normal';text-align:center;letter-spacing:0px;word-spacing:0px;writing-mode:lr-tb;text-anchor:middle;fill:#000000;fill-opacity:1;stroke:none;stroke-width:0.26458332px;stroke-linecap:butt;stroke-linejoin:miter;stroke-opacity:1"
           x="42.623383"
           y="235.85161"
           id="text14942"
           transform="rotate(-4.2353908)"><tspan
             sodipodi:role="line"
             x="43.695557"
             y="235.85161"
             style="font-style:normal;font-variant:normal;font-weight:normal;font-stretch:normal;font-size:3.31694102px;line-height:150%;font-family:Purisa;-inkscape-font-specification:'Purisa, Normal';text-align:center;writing-mode:lr-tb;text-anchor:middle;stroke-width:0.26458332px"
             id="tspan14946"> </tspan></text>
        <g
           id="g15722"
           inkscape:tile-cx="74.631573"
           inkscape:tile-cy="13.633002"
           inkscape:tile-w="113.38867"
           inkscape:tile-h="2.371497"
           inkscape:tile-x0="17.93724"
           inkscape:tile-y0="12.447254"
           transform="translate(0,17.197916)">
          <path
             style="color:#000000;font-style:normal;font-variant:normal;font-weight:normal;font-stretch:normal;font-size:medium;line-height:normal;font-family:sans-serif;font-variant-ligatures:normal;font-variant-position:normal;font-variant-caps:normal;font-variant-numeric:normal;font-variant-alternates:normal;font-feature-settings:normal;text-indent:0;text-align:start;text-decoration:none;text-decoration-line:none;text-decoration-style:solid;text-decoration-color:#000000;letter-spacing:normal;word-spacing:normal;text-transform:none;writing-mode:lr-tb;direction:ltr;text-orientation:mixed;dominant-baseline:auto;baseline-shift:baseline;text-anchor:start;white-space:normal;shape-padding:0;clip-rule:nonzero;display:inline;overflow:visible;visibility:visible;opacity:1;isolation:auto;mix-blend-mode:normal;color-interpolation:sRGB;color-interpolation-filters:linearRGB;solid-color:#000000;solid-opacity:1;vector-effect:none;fill:#ffb700;fill-opacity:1;fill-rule:evenodd;stroke:none;stroke-width:0.45638797;stroke-linecap:round;stroke-linejoin:miter;stroke-miterlimit:4;stroke-dasharray:none;stroke-dashoffset:0;stroke-opacity:1;color-rendering:auto;image-rendering:auto;shape-rendering:auto;text-rendering:auto;enable-background:accumulate"
             d="m 26.787109,210.73438 a 0.228515,0.228515 0 1 0 0,0.45703 h 56.466797 56.464844 a 0.228515,0.228515 0 1 0 0,-0.45703 H 83.253906 Z"
             id="use9545-2"
             inkscape:connector-curvature="0" />
          <path
             d="m 80.865644,209.85827 2.991863,1.10019 -2.991863,1.10018 c 0.477974,-0.64955 0.47522,-1.53824 0,-2.20037 z"
             style="fill:#ffb700;fill-opacity:1;fill-rule:evenodd;stroke:#ffb700;stroke-width:0.17114548;stroke-linejoin:round;stroke-opacity:1"
             id="path15728"
             inkscape:connector-curvature="0" />
        </g>
        <use
           x="0"
           y="0"
           inkscape:tiled-clone-of="#g15722"
           xlink:href="#g15722"
           id="use15850"
           style="fill:#f4f4f4;stroke:#f4f4f4"
           width="100%"
           height="100%" />
        <use
           x="0"
           y="0"
           inkscape:tiled-clone-of="#g15722"
           xlink:href="#g15722"
           transform="translate(0,3.557246)"
           id="use15852"
           style="fill:#f4f4f4;stroke:#f4f4f4"
           width="100%"
           height="100%" />
        <path
           d="m 80.865644,234.17068 2.991863,1.10019 -2.991863,1.10018 c 0.477974,-0.64955 0.47522,-1.53824 0,-2.20037 z"
           style="fill:#ffb700;fill-opacity:1;fill-rule:evenodd;stroke:#ffb700;stroke-width:0.17114548;stroke-linejoin:round;stroke-opacity:1"
           id="path15876"
           inkscape:connector-curvature="0" />
        <path
           d="m 80.865644,237.72793 2.991863,1.10019 -2.991863,1.10018 c 0.477974,-0.64955 0.47522,-1.53824 0,-2.20037 z"
           style="fill:#ffb700;fill-opacity:1;fill-rule:evenodd;stroke:#ffb700;stroke-width:0.17114548;stroke-linejoin:round;stroke-opacity:1"
           id="path15882"
           inkscape:connector-curvature="0" />
        <path
           d="m 80.865644,241.28517 2.991863,1.10019 -2.991863,1.10018 c 0.477974,-0.64955 0.47522,-1.53824 0,-2.20037 z"
           style="fill:#ffb700;fill-opacity:1;fill-rule:evenodd;stroke:#ffb700;stroke-width:0.17114548;stroke-linejoin:round;stroke-opacity:1"
           id="path15888"
           inkscape:connector-curvature="0" />
        <path
           d="m 80.865644,244.84242 2.991863,1.10019 -2.991863,1.10018 c 0.477974,-0.64955 0.47522,-1.53824 0,-2.20037 z"
           style="fill:#ffb700;fill-opacity:1;fill-rule:evenodd;stroke:#ffb700;stroke-width:0.17114548;stroke-linejoin:round;stroke-opacity:1"
           id="path15894"
           inkscape:connector-curvature="0" />
        <path
           d="m 80.865644,248.39966 2.991863,1.10019 -2.991863,1.10018 c 0.477974,-0.64955 0.47522,-1.53824 0,-2.20037 z"
           style="fill:#ffb700;fill-opacity:1;fill-rule:evenodd;stroke:#ffb700;stroke-width:0.17114548;stroke-linejoin:round;stroke-opacity:1"
           id="path15900"
           inkscape:connector-curvature="0" />
        <path
           style="color:#000000;font-style:normal;font-variant:normal;font-weight:normal;font-stretch:normal;font-size:medium;line-height:normal;font-family:sans-serif;font-variant-ligatures:normal;font-variant-position:normal;font-variant-caps:normal;font-variant-numeric:normal;font-variant-alternates:normal;font-feature-settings:normal;text-indent:0;text-align:start;text-decoration:none;text-decoration-line:none;text-decoration-style:solid;text-decoration-color:#000000;letter-spacing:normal;word-spacing:normal;text-transform:none;writing-mode:lr-tb;direction:ltr;text-orientation:mixed;dominant-baseline:auto;baseline-shift:baseline;text-anchor:start;white-space:normal;shape-padding:0;clip-rule:nonzero;display:inline;overflow:visible;visibility:visible;opacity:1;isolation:auto;mix-blend-mode:normal;color-interpolation:sRGB;color-interpolation-filters:linearRGB;solid-color:#000000;solid-opacity:1;vector-effect:none;fill:#ffb700;fill-opacity:1;fill-rule:evenodd;stroke:none;stroke-width:0.45638797;stroke-linecap:round;stroke-linejoin:miter;stroke-miterlimit:4;stroke-dasharray:none;stroke-dashoffset:0;stroke-opacity:1;color-rendering:auto;image-rendering:auto;shape-rendering:auto;text-rendering:auto;enable-background:accumulate"
           d="m 26.787169,235.04681 a 0.228515,0.228515 0 1 0 0,0.45682 h 56.466836 7.822261 c 0.0096,-0.0152 0.01532,-0.0321 0.02791,-0.046 0.15772,-0.17433 0.511225,-0.14548 0.968933,0.046 h 0.994256 c -0.0998,-0.15928 -0.182279,-0.31077 -0.252698,-0.45682 h -9.560658 z"
           id="path16053"
           inkscape:connector-curvature="0" />
        <path
           style="color:#000000;font-style:normal;font-variant:normal;font-weight:normal;font-stretch:normal;font-size:medium;line-height:normal;font-family:sans-serif;font-variant-ligatures:normal;font-variant-position:normal;font-variant-caps:normal;font-variant-numeric:normal;font-variant-alternates:normal;font-feature-settings:normal;text-indent:0;text-align:start;text-decoration:none;text-decoration-line:none;text-decoration-style:solid;text-decoration-color:#000000;letter-spacing:normal;word-spacing:normal;text-transform:none;writing-mode:lr-tb;direction:ltr;text-orientation:mixed;dominant-baseline:auto;baseline-shift:baseline;text-anchor:start;white-space:normal;shape-padding:0;clip-rule:nonzero;display:inline;overflow:visible;visibility:visible;opacity:1;isolation:auto;mix-blend-mode:normal;color-interpolation:sRGB;color-interpolation-filters:linearRGB;solid-color:#000000;solid-opacity:1;vector-effect:none;fill:#ffb700;fill-opacity:1;fill-rule:evenodd;stroke:none;stroke-width:0.45638797;stroke-linecap:round;stroke-linejoin:miter;stroke-miterlimit:4;stroke-dasharray:none;stroke-dashoffset:0;stroke-opacity:1;color-rendering:auto;image-rendering:auto;shape-rendering:auto;text-rendering:auto;enable-background:accumulate"
           d="m 26.787169,238.60422 a 0.228515,0.228515 0 1 0 0,0.45682 h 56.466836 8.922454 c -0.689729,-0.093 -1.259054,-0.2496 -1.643827,-0.45682 h -7.278627 z"
           id="path16043"
           inkscape:connector-curvature="0" />
        <path
           style="color:#000000;font-style:normal;font-variant:normal;font-weight:normal;font-stretch:normal;font-size:medium;line-height:normal;font-family:sans-serif;font-variant-ligatures:normal;font-variant-position:normal;font-variant-caps:normal;font-variant-numeric:normal;font-variant-alternates:normal;font-feature-settings:normal;text-indent:0;text-align:start;text-decoration:none;text-decoration-line:none;text-decoration-style:solid;text-decoration-color:#000000;letter-spacing:normal;word-spacing:normal;text-transform:none;writing-mode:lr-tb;direction:ltr;text-orientation:mixed;dominant-baseline:auto;baseline-shift:baseline;text-anchor:start;white-space:normal;shape-padding:0;clip-rule:nonzero;display:inline;overflow:visible;visibility:visible;opacity:1;isolation:auto;mix-blend-mode:normal;color-interpolation:sRGB;color-interpolation-filters:linearRGB;solid-color:#000000;solid-opacity:1;vector-effect:none;fill:#ffb700;fill-opacity:1;fill-rule:evenodd;stroke:none;stroke-width:0.45638797;stroke-linecap:round;stroke-linejoin:miter;stroke-miterlimit:4;stroke-dasharray:none;stroke-dashoffset:0;stroke-opacity:1;color-rendering:auto;image-rendering:auto;shape-rendering:auto;text-rendering:auto;enable-background:accumulate"
           d="m 26.787169,242.16111 a 0.22866747,0.22866747 0 0 0 0,0.45733 h 56.466836 7.774721 c -1.54e-4,-0.0857 0.02069,-0.18279 0.07028,-0.29094 0.02442,-0.0533 0.056,-0.10896 0.0925,-0.16639 h -7.9375 z"
           id="path16039"
           inkscape:connector-curvature="0" />
        <path
           style="color:#000000;font-style:normal;font-variant:normal;font-weight:normal;font-stretch:normal;font-size:medium;line-height:normal;font-family:sans-serif;font-variant-ligatures:normal;font-variant-position:normal;font-variant-caps:normal;font-variant-numeric:normal;font-variant-alternates:normal;font-feature-settings:normal;text-indent:0;text-align:start;text-decoration:none;text-decoration-line:none;text-decoration-style:solid;text-decoration-color:#000000;letter-spacing:normal;word-spacing:normal;text-transform:none;writing-mode:lr-tb;direction:ltr;text-orientation:mixed;dominant-baseline:auto;baseline-shift:baseline;text-anchor:start;white-space:normal;shape-padding:0;clip-rule:nonzero;display:inline;overflow:visible;visibility:visible;opacity:1;isolation:auto;mix-blend-mode:normal;color-interpolation:sRGB;color-interpolation-filters:linearRGB;solid-color:#000000;solid-opacity:1;vector-effect:none;fill:#ffb700;fill-opacity:1;fill-rule:evenodd;stroke:none;stroke-width:0.45638797;stroke-linecap:round;stroke-linejoin:miter;stroke-miterlimit:4;stroke-dasharray:none;stroke-dashoffset:0;stroke-opacity:1;color-rendering:auto;image-rendering:auto;shape-rendering:auto;text-rendering:auto;enable-background:accumulate"
           d="m 26.787169,245.71851 a 0.228515,0.228515 0 1 0 0,0.45682 h 56.466836 12.664861 c 0.02141,-0.14639 0.04147,-0.29858 0.06046,-0.45682 H 83.254005 Z"
           id="path16027"
           inkscape:connector-curvature="0" />
        <path
           style="color:#000000;font-style:normal;font-variant:normal;font-weight:normal;font-stretch:normal;font-size:medium;line-height:normal;font-family:sans-serif;font-variant-ligatures:normal;font-variant-position:normal;font-variant-caps:normal;font-variant-numeric:normal;font-variant-alternates:normal;font-feature-settings:normal;text-indent:0;text-align:start;text-decoration:none;text-decoration-line:none;text-decoration-style:solid;text-decoration-color:#000000;letter-spacing:normal;word-spacing:normal;text-transform:none;writing-mode:lr-tb;direction:ltr;text-orientation:mixed;dominant-baseline:auto;baseline-shift:baseline;text-anchor:start;white-space:normal;shape-padding:0;clip-rule:nonzero;display:inline;overflow:visible;visibility:visible;opacity:1;isolation:auto;mix-blend-mode:normal;color-interpolation:sRGB;color-interpolation-filters:linearRGB;solid-color:#000000;solid-opacity:1;vector-effect:none;fill:#ffb700;fill-opacity:1;fill-rule:evenodd;stroke:none;stroke-width:0.45638797;stroke-linecap:round;stroke-linejoin:miter;stroke-miterlimit:4;stroke-dasharray:none;stroke-dashoffset:0;stroke-opacity:1;color-rendering:auto;image-rendering:auto;shape-rendering:auto;text-rendering:auto;enable-background:accumulate"
           d="m 26.787169,249.27592 a 0.228515,0.228515 0 1 0 0,0.45682 h 56.466836 7.256405 c -0.0786,-0.14245 -0.14759,-0.2965 -0.210839,-0.45682 h -7.045566 z"
           id="path16021"
           inkscape:connector-curvature="0" />
        <path
           style="color:#000000;font-style:normal;font-variant:normal;font-weight:normal;font-stretch:normal;font-size:medium;line-height:normal;font-family:sans-serif;font-variant-ligatures:normal;font-variant-position:normal;font-variant-caps:normal;font-variant-numeric:normal;font-variant-alternates:normal;font-feature-settings:normal;text-indent:0;text-align:start;text-decoration:none;text-decoration-line:none;text-decoration-style:solid;text-decoration-color:#000000;letter-spacing:normal;word-spacing:normal;text-transform:none;writing-mode:lr-tb;direction:ltr;text-orientation:mixed;dominant-baseline:auto;baseline-shift:baseline;text-anchor:start;white-space:normal;shape-padding:0;clip-rule:nonzero;display:inline;overflow:visible;visibility:visible;opacity:1;isolation:auto;mix-blend-mode:normal;color-interpolation:sRGB;color-interpolation-filters:linearRGB;solid-color:#000000;solid-opacity:1;vector-effect:none;fill:#ffb700;fill-opacity:1;fill-rule:evenodd;stroke:none;stroke-width:0.45638797;stroke-linecap:round;stroke-linejoin:miter;stroke-miterlimit:4;stroke-dasharray:none;stroke-dashoffset:0;stroke-opacity:1;color-rendering:auto;image-rendering:auto;shape-rendering:auto;text-rendering:auto;enable-background:accumulate"
           d="m 26.787169,252.83281 a 0.22866879,0.22866879 0 1 0 0,0.45733 h 56.466836 8.651153 c 0.199327,-0.14546 0.392716,-0.29726 0.578258,-0.45733 h -9.229411 z"
           id="path16015"
           inkscape:connector-curvature="0" />
        <path
           d="m 80.865644,251.95691 2.991863,1.10019 -2.991863,1.10018 c 0.477974,-0.64955 0.47522,-1.53824 0,-2.20037 z"
           style="fill:#ffb700;fill-opacity:1;fill-rule:evenodd;stroke:#ffb700;stroke-width:0.17114548;stroke-linejoin:round;stroke-opacity:1"
           id="path15906"
           inkscape:connector-curvature="0" />
        <use
           x="0"
           y="0"
           inkscape:tiled-clone-of="#g15722"
           xlink:href="#g15722"
           transform="translate(0,28.457964)"
           id="use15866"
           style="fill:#f4f4f4;stroke:#f4f4f4"
           width="100%"
           height="100%" />
        <use
           x="0"
           y="0"
           inkscape:tiled-clone-of="#g15722"
           xlink:href="#g15722"
           transform="translate(0,32.015209)"
           id="use15868"
           style="fill:#f4f4f4;stroke:#f4f4f4"
           width="100%"
           height="100%" />
        <g
           id="g8607-9-8-6"
           transform="matrix(-0.06181578,0,0,0.06172842,107.02348,209.81484)"
           style="display:inline;stroke-width:1.08531773">
          <ellipse
             ry="40.242191"
             rx="40.721157"
             transform="scale(-1,1)"
             cy="475.19592"
             cx="-172.37955"
             id="path23009-9"
             style="color:#000000;clip-rule:nonzero;display:inline;overflow:visible;visibility:visible;opacity:1;isolation:auto;mix-blend-mode:normal;color-interpolation:sRGB;color-interpolation-filters:linearRGB;solid-color:#000000;solid-opacity:1;fill:#ffde37;fill-opacity:1;fill-rule:nonzero;stroke:none;stroke-width:5.42658854;stroke-linecap:butt;stroke-linejoin:round;stroke-miterlimit:4;stroke-dasharray:none;stroke-dashoffset:0;stroke-opacity:1;color-rendering:auto;image-rendering:auto;shape-rendering:auto;text-rendering:auto;enable-background:accumulate" />
          <path
             sodipodi:nodetypes="ccccccccccccccccccc"
             style="clip-rule:evenodd;fill:#19a974;fill-rule:evenodd;stroke:none;stroke-width:4.05465794;stroke-miterlimit:4;stroke-dasharray:none;image-rendering:optimizeQuality;shape-rendering:geometricPrecision;text-rendering:geometricPrecision"
             inkscape:connector-curvature="0"
             class="fil0"
             d="m 201.93708,656.81861 c 0,-29 8,-46 49,-45 7,0 16,-3 26,-11 0,48 -23,81 -70,63 22,35 54,56 98,69 12,4 9,16 -3,13 -74,-19 -118,-70 -135,-146 -15.99999,49 -55.99999,46 -92.99999,17 12,-4 20,-8 25,-14 25,-34 44,-28 66.99999,-9 -0.96043,-14.82548 -5.74662,-79.34176 -5.74662,-79.34176 l 15.26794,1.20407 c -0.0591,90.75179 12.18579,110.35846 26.47868,141.13769 z m -105.99999,-40 c 36,-3 32,-29 65.99999,-18 -36.99999,-22 -33.99999,8 -65.99999,18 z m 167.99999,2 c -25,26 -43,7 -55,40 6,-43 27,-21 55,-40 z"
             id="path8190-0-9-9-3" />
          <path
             inkscape:connector-curvature="0"
             id="path8583-3-5-7"
             d="m 153.25343,577.66812 c -3.42723,-1.2505 -5.908,-6.76502 -6.69907,-14.89141 -1.16209,-11.93783 2.15694,-30.05057 8.77614,-47.8935 0.62932,-1.69641 1.10069,-3.12791 1.04748,-3.18112 -0.0532,-0.0532 -0.77531,1.52631 -1.60468,3.51002 -6.59504,15.7742 -14.85296,29.08012 -23.31953,37.57456 -4.92654,4.94276 -8.70599,7.55909 -12.58165,8.70964 -5.06187,1.50271 -8.22181,-0.94922 -8.22181,-6.37964 0,-4.06377 1.43878,-8.76654 4.52848,-14.80176 4.85841,-9.49007 12.11693,-19.11452 24.03863,-31.87405 l 3.2527,-3.48129 -3.73473,3.48479 c -7.72399,7.20708 -11.26586,10.226 -17.536,14.94679 -16.1835,12.18457 -30.325056,16.86131 -34.383796,11.37104 -1.359368,-1.83882 -1.070316,-5.34359 0.73442,-8.90486 5.593262,-11.03715 21.865326,-23.56654 43.491966,-33.48855 4.91492,-2.2549 6.46624,-3.09144 3.64996,-1.96822 -13.23418,5.27821 -23.55687,8.24426 -35.072495,10.07747 -2.578539,0.41049 -4.806174,0.51502 -10.748023,0.50436 -7.188413,-0.0129 -7.608024,-0.0439 -10.247388,-0.75812 -5.90764,-1.59853 -8.703074,-3.84709 -8.703074,-7.00049 0,-1.61087 0.598126,-2.86998 2.15301,-4.53228 6.191061,-6.61874 23.278547,-11.35438 44.9403,-12.45477 3.26683,-0.16595 7.59433,-0.40179 9.61665,-0.52408 l 3.67696,-0.22236 -4.53031,-0.0439 c -27.824705,-0.26958 -50.875647,-6.66275 -55.301319,-15.33778 -0.860116,-1.68597 -0.692439,-4.0425 0.388476,-5.45965 2.686976,-3.52281 9.068745,-5.35935 18.57238,-5.34475 12.091023,0.0186 25.801693,3.07363 42.133913,9.38842 2.40593,0.93024 4.41269,1.65308 4.45946,1.60631 0.0468,-0.0468 -1.15804,-0.63047 -2.67736,-1.2971 -16.77115,-7.35869 -32.26708,-17.62051 -40.248143,-26.65341 -7.985368,-9.03776 -9.464228,-16.71669 -3.557246,-18.47088 3.478321,-1.03295 8.344922,0.0198 15.108869,3.26834 9.95127,4.77933 21.12292,13.16186 33.48069,25.12186 2.14971,2.08052 3.90856,3.71034 3.90856,3.62184 0,-0.0885 -1.41734,-1.66201 -3.14964,-3.49666 -17.71384,-18.7604 -28.54599,-36.89014 -28.19225,-47.18529 0.10893,-3.17043 0.91711,-5.0048 2.64997,-6.01482 0.97155,-0.56629 1.41396,-0.63641 3.44391,-0.54591 2.1027,0.0937 2.58396,0.23163 4.94975,1.41799 3.40489,1.70744 5.89063,3.59345 9.5711,7.26191 8.29848,8.27138 16.665,21.69749 23.31682,37.4175 0.90522,2.13925 1.69132,3.84407 1.7469,3.78848 0.0556,-0.0556 -0.33249,-1.23714 -0.86238,-2.6257 -3.93912,-10.32224 -7.27888,-23.24597 -8.51826,-32.96269 -1.89856,-14.88477 0.48222,-27.60083 5.62444,-30.04097 6.92104,-3.28425 14.23311,9.69793 17.2654,30.65378 0.8425,5.82248 1.49576,14.05815 1.81751,22.91349 0.15423,4.24476 0.24569,5.3263 0.27465,3.24786 0.106,-7.60832 1.05558,-18.18421 2.31357,-25.76707 2.38927,-14.40202 6.36398,-24.74003 11.27612,-29.32864 1.74702,-1.63196 2.94236,-2.1751 4.78697,-2.1751 2.96167,0 5.42207,3.16778 6.68287,8.60425 2.74529,11.83744 -0.65314,31.68545 -9.04921,52.85046 -0.99456,2.50711 -1.77241,4.59428 -1.72854,4.63815 0.0439,0.0439 0.87718,-1.66751 1.85182,-3.80305 9.56347,-20.95454 22.44645,-37.96965 33.42459,-44.14529 3.71707,-2.091 7.715,-2.66415 9.6215,-1.37937 3.12201,2.10393 3.52542,6.57249 1.21866,13.49901 -3.5429,10.63828 -12.53413,23.57555 -27.54519,39.63411 l -3.53553,3.78225 3.49647,-3.25269 c 7.96891,-7.4133 12.5868,-11.33893 18.54406,-15.76416 15.99165,-11.87904 29.76679,-16.59137 34.18958,-11.69587 1.83727,2.03364 1.70742,4.8595 -0.41845,9.10688 -5.378,10.74491 -22.52537,23.63606 -44.5627,33.50162 -2.36906,1.06057 -4.27038,1.9653 -4.22516,2.01052 0.0452,0.0452 1.21987,-0.36868 2.61033,-0.91979 11.3846,-4.51226 25.75081,-8.25797 36.32781,-9.47176 4.3243,-0.49624 12.57224,-0.43551 15.861,0.1168 12.63294,2.12155 15.47025,8.88814 6.32748,15.09019 -8.94244,6.06615 -26.90416,9.92504 -48.70783,10.46436 -3.92954,0.0972 -7.10691,0.21443 -7.06081,0.26053 0.0461,0.0461 3.55897,0.22013 7.80639,0.38675 4.24742,0.16662 9.71582,0.49324 12.15198,0.72582 18.90549,1.80491 32.66017,5.9908 38.54202,11.72928 2.24145,2.18682 3.02113,4.05848 2.49876,5.99842 -0.85804,3.18655 -5.34106,5.52316 -12.42609,6.47665 -3.55636,0.47861 -13.63824,0.15847 -18.52843,-0.58836 -10.16729,-1.55275 -22.14017,-4.92118 -33.63626,-9.46318 -3.55282,-1.40369 -2.66406,-0.77709 1.39219,0.98152 7.4905,3.24755 18.1182,8.93835 23.90021,12.7978 10.71819,7.15434 19.28685,15.66934 22.22393,22.08478 2.64757,5.78304 0.77107,9.90235 -4.68768,10.29046 -10.16121,0.72247 -29.40141,-10.77696 -48.27572,-28.8533 -1.58369,-1.51674 -2.96627,-2.75771 -3.07239,-2.75771 -0.10611,0 1.50931,1.75885 3.58983,3.90856 16.44958,16.99666 26.8978,33.01591 28.52185,43.72984 0.7434,4.90422 -0.86661,8.31891 -4.15482,8.81201 -7.13386,1.06979 -19.02766,-8.83466 -29.31611,-24.41274 -4.52164,-6.84636 -9.15491,-15.27476 -12.51445,-22.76509 -0.74771,-1.66709 -1.39914,-2.99142 -1.4476,-2.94296 -0.0485,0.0485 0.62226,1.85793 1.49051,4.02103 9.46904,23.59069 12.65623,45.41413 8.28709,56.7437 -1.45294,3.76758 -4.21305,6.01274 -6.6665,5.42272 -9.18043,-2.2078 -16.19985,-24.53019 -17.28907,-54.98082 l -0.19728,-5.51544 -0.22124,6.92965 c -0.45284,14.18363 -1.66531,24.63353 -3.87418,33.39018 -3.50992,13.91449 -9.29254,21.85342 -14.52669,19.94364 z m 23.7235,-69.18287 c 7.34949,-1.04491 13.70553,-4.21201 18.97412,-9.45446 3.00722,-2.9923 4.6703,-5.26533 6.42325,-8.77904 2.48448,-4.98001 3.42098,-9.0135 3.41488,-14.70782 -0.01,-9.24806 -3.10306,-17.10208 -9.29103,-23.59151 -4.91484,-5.15426 -10.41931,-8.25263 -17.44583,-9.81996 -2.89828,-0.64649 -9.48424,-0.64977 -12.75974,-0.006 -10.69637,2.1011 -19.39777,8.7487 -24.12033,18.42716 -5.94589,12.1856 -4.23519,26.12672 4.45876,36.33603 7.2557,8.52036 19.38318,13.15459 30.34592,11.59597 v 0 z"
             style="color:#000000;clip-rule:nonzero;display:inline;overflow:visible;visibility:visible;opacity:1;isolation:auto;mix-blend-mode:normal;color-interpolation:sRGB;color-interpolation-filters:linearRGB;solid-color:#000000;solid-opacity:1;fill:#ff4136;fill-opacity:1;fill-rule:nonzero;stroke:none;stroke-width:4.05465794;stroke-linecap:round;stroke-linejoin:miter;stroke-miterlimit:4;stroke-dasharray:none;stroke-dashoffset:0;stroke-opacity:1;color-rendering:auto;image-rendering:auto;shape-rendering:auto;text-rendering:auto;enable-background:accumulate" />
        </g>
        <g
           style="display:inline;stroke-width:1.08531773"
           transform="matrix(-0.06181578,0,0,0.06702204,149.7866,206.66404)"
           id="g8607-9-8-6-8">
          <path
             inkscape:connector-curvature="0"
             id="path16082"
             d="m 102.38325,399.24306 c 2.77466,-1.03303 5.48293,9.63584 6.69425,27.27186 0.38462,5.6001 0.68512,13.66157 0.83201,22.432 0.0704,4.20405 0.1089,5.26364 0.12212,3.17755 0.0484,-7.63633 0.48286,-18.46405 1.05718,-26.37895 1.09081,-15.03268 2.90596,-26.41719 5.14856,-32.30239 0.79757,-2.09306 1.34475,-2.95409 2.18688,-3.44098 1.35213,-0.78176 2.47383,1.73087 3.04944,6.83454 1.25333,11.11278 -0.29637,31.86447 -4.12952,55.24569 -0.35496,2.16508 -0.51621,3.25219 -0.61828,3.98235 a 17.817139,41.989715 8.0240627 0 1 0.0458,0.007 c 0.13807,-0.65264 0.29543,-1.41434 0.62591,-3.19149 4.36612,-23.47888 10.25046,-43.89415 15.26243,-52.96758 1.69699,-3.07216 3.52247,-4.70267 4.39286,-3.9211 1.42532,1.27984 1.60652,5.64798 0.55341,13.18339 -1.61749,11.57344 -5.72243,26.881 -12.57558,46.90183 l -1.6144,4.71734 1.59914,-4.18109 c 3.63813,-9.51678 5.74541,-14.66027 8.46513,-20.65797 7.30084,-16.10015 13.59055,-24.44818 15.60974,-20.72011 0.83879,1.54864 0.77972,4.41009 -0.19084,9.2186 -2.45526,12.16445 -10.28516,29.58406 -20.34609,45.26649 -0.70691,1.10192 -0.9235,1.48471 -1.25946,2.04251 a 17.817139,41.989715 8.0240627 0 1 0.0343,0.13088 c 0.19843,-0.27238 0.22818,-0.28264 0.48852,-0.65917 5.19754,-7.51732 11.75414,-15.05032 16.58296,-19.05597 1.97421,-1.63768 5.74238,-3.75519 7.24383,-4.07095 5.76745,-1.21299 7.06319,4.79984 2.88915,13.41516 -4.0826,8.42658 -12.28487,17.02787 -22.23911,23.32242 -1.794,1.13443 -3.24223,2.08796 -3.22118,2.12186 0.0211,0.0339 1.62173,-0.71075 3.56084,-1.66528 1.93913,-0.95453 4.43709,-2.07799 5.54929,-2.48846 8.63112,-3.18533 14.90905,-2.6298 17.59434,1.55612 1.02332,1.59515 1.37964,3.26481 1.14117,5.34263 -0.39174,3.41302 -2.43682,6.93498 -5.67141,9.75864 -1.62362,1.41732 -6.22876,3.75368 -8.46132,4.29764 -4.64178,1.13099 -10.1056,0.92485 -15.35402,-0.58269 -0.0786,-0.0225 -0.0263,0.007 -0.0954,-0.0118 a 17.817139,41.989715 8.0240627 0 1 -0.0496,0.27145 c 0.26998,0.12337 0.33327,0.18811 0.77857,0.35353 3.41972,1.27039 8.27184,4.15817 10.91156,6.49144 4.89329,4.32521 8.80733,10.57666 10.14824,16.21683 1.20872,5.08421 0.35105,9.69759 -2.14111,11.52659 -4.63898,3.4046 -13.42374,-3.01095 -22.04063,-16.1053 -0.72302,-1.0987 -1.35224,-1.9808 -1.40068,-1.95279 -0.0484,0.028 0.68746,1.36234 1.6373,2.9629 7.5099,12.65467 12.28067,25.91892 13.02211,36.20419 0.3394,4.70797 -0.39563,8.54252 -1.89683,9.90355 -3.25688,2.95284 -8.68758,-3.81056 -13.38468,-16.67292 -2.06431,-5.65282 -4.17962,-12.85547 -5.7134,-19.45904 -0.21641,-0.93174 -0.29769,-1.17582 -0.41981,-1.62411 a 17.817139,41.989715 8.0240627 0 1 -0.0534,0.0727 c 0.10257,0.60429 0.20622,1.22438 0.49233,2.62032 4.32299,21.09127 5.78072,42.07074 3.78603,54.55359 -0.66333,4.15108 -1.92551,7.11967 -3.04563,7.17728 -2.39545,0.12315 -4.44785,-6.66929 -5.8775,-18.00794 1.46316,56.04328 6.2149,71.24756 11.61761,93.60808 0,-28.99998 3.65454,-48.11017 22.37269,-57.93241 3.19578,-1.8477 7.30412,-7.22325 11.86951,-17.8628 0,47.99998 -10.49866,87.06611 -31.95606,81.47207 10.04387,29.19296 24.64995,41.75515 44.73774,43.14102 5.47848,0.83254 4.11214,13.62357 -1.36634,13.79107 -33.78398,0.53275 -53.87247,-38.85305 -61.63366,-110.36577 -7.30465,53.22328 -25.56727,60.77644 -42.45925,41.54284 5.47848,-7.16749 9.13263,-13.27747 11.41533,-20.59727 11.41352,-40.59891 20.08551,-39.61223 30.58594,-26.68324 -0.14054,-4.67074 -0.46968,-13.95982 -0.83965,-24.94738 -1.47891,7.88467 -3.27218,12.51691 -4.95007,12.14606 -1.56468,-0.34586 -2.69591,-5.20797 -3.05709,-13.12553 -0.53053,-11.6311 0.98166,-30.61845 4.00358,-50.20855 0.25192,-1.63302 0.39543,-2.6867 0.42365,-3.03267 a 17.817139,41.989715 8.0240627 0 1 -0.0191,-0.014 c -0.0765,0.29103 -0.31749,1.54723 -0.65643,3.51885 -3.01091,17.51502 -6.78288,33.00722 -10.64821,43.73648 -2.24917,6.24317 -3.97454,9.85383 -5.74392,12.02739 -2.31095,2.83883 -3.7517,1.22039 -3.7517,-4.21003 0,-4.06379 0.65419,-9.14395 2.06476,-15.99475 2.21808,-10.77247 5.5337,-22.31881 10.97644,-38.22519 l 1.48465,-4.34095 -1.70601,4.47733 c -3.52631,9.24587 -5.14075,13.19466 -8.00332,19.57049 -7.38844,16.45637 -13.84454,24.86335 -15.69754,20.44444 -0.6206,-1.48003 -0.49188,-5.05331 0.33206,-9.09097 2.55353,-12.51354 9.98413,-29.34519 19.85756,-44.9757 0.88598,-1.40259 1.32324,-2.12508 1.70219,-2.75892 a 17.817139,41.989715 8.0240627 0 1 -0.0343,-0.17271 c -6.04194,8.77147 -10.75696,14.46547 -16.01429,19.33831 -1.17722,1.09113 -2.19541,1.78229 -4.9081,3.34001 -3.2818,1.88453 -3.47031,1.96722 -4.67529,1.94966 -2.69708,-0.0392 -3.97304,-1.54815 -3.97304,-4.70159 0,-1.61086 0.27099,-3.03176 0.98085,-5.10447 2.82648,-8.25292 10.62838,-17.50148 20.51784,-24.31966 1.49145,-1.02826 3.46578,-2.40053 4.38906,-3.05663 l 1.67927,-1.19696 -2.06856,1.15418 c -12.70311,7.07492 -23.22608,6.76683 -25.24658,-0.74 -0.39267,-1.45894 -0.31791,-3.85732 0.17558,-5.5598 1.22671,-4.23202 4.14161,-7.75857 8.48039,-10.25249 5.52004,-3.17291 11.77915,-3.7322 19.23547,-1.72844 0.78801,0.21176 1.12444,0.25887 1.46175,0.31013 a 17.817139,41.989715 8.0240627 0 1 0.0267,-0.14098 c -0.22343,-0.11192 -0.2926,-0.18277 -0.67553,-0.32939 -7.65671,-2.93181 -14.72926,-9.10624 -18.37294,-16.03247 -3.64563,-6.92999 -4.32262,-14.2143 -1.62585,-17.52767 1.588,-1.95112 3.81233,-2.18777 6.90034,-0.72468 4.54316,2.15263 9.64352,7.58755 15.28534,16.28563 0.98142,1.51312 1.78234,2.67454 1.78234,2.58603 0,-0.0885 -0.64799,-1.28164 -1.43885,-2.65903 -8.08708,-14.08472 -13.03094,-29.36137 -12.86945,-39.74992 0.0497,-3.19914 0.41874,-5.24287 1.20984,-6.71027 0.44356,-0.82275 0.64567,-1.00796 1.57244,-1.45327 0.95996,-0.46132 1.17932,-0.45342 2.2594,0.1085 1.55447,0.80868 2.68968,2.04296 4.36997,4.73995 3.78859,6.08094 7.60756,17.29412 10.64438,31.25832 0.38325,1.76227 0.67332,2.9476 0.74042,3.08801 a 17.817139,41.989715 8.0240627 0 1 0.0152,-0.0256 c -0.0159,-0.2524 -0.13606,-1.0226 -0.35111,-2.13266 -1.79838,-9.28251 -3.32327,-21.32078 -3.88909,-30.71039 -0.86677,-14.38363 0.22091,-27.73318 2.56854,-31.53062 0.39498,-0.6389 0.79058,-1.02424 1.18697,-1.17181 z"
             style="color:#000000;clip-rule:nonzero;display:inline;overflow:visible;visibility:visible;opacity:1;isolation:auto;mix-blend-mode:normal;color-interpolation:sRGB;color-interpolation-filters:linearRGB;solid-color:#000000;solid-opacity:1;fill:#000000;fill-opacity:1;fill-rule:nonzero;stroke:none;stroke-width:3.66662478;stroke-linecap:butt;stroke-linejoin:round;stroke-miterlimit:4;stroke-dasharray:none;stroke-dashoffset:0;stroke-opacity:1;color-rendering:auto;image-rendering:auto;shape-rendering:auto;text-rendering:auto;enable-background:accumulate" />
        </g>
        <path
           id="path16254"
           transform="matrix(0.26458333,0,0,0.26458333,8.6213531,210.47903)"
           d="m 505.16406,84.371094 v 0.002 l -169.47461,0.0039 c 0.1885,-0.01032 0.37658,0.0221 0.56446,0.111328 1.2014,0.569273 1.75802,3.535107 1.31445,7.007813 -0.28956,2.266923 -1.06992,5.283204 -1.99024,7.691406 -0.10996,0.287887 -0.17175,0.48174 -0.17968,0.542969 l 0.008,0.0039 c 0.0344,-0.04192 0.18282,-0.355594 0.37891,-0.818359 1.55409,-3.667541 3.50845,-6.800718 5.44726,-8.730469 0.85989,-0.855874 1.44083,-1.294999 2.23633,-1.693359 0.55273,-0.276662 0.66499,-0.309355 1.15625,-0.332032 0.4743,-0.02116 0.57769,-0.005 0.80469,0.126953 0.40482,0.235654 0.59268,0.664644 0.61914,1.404297 0.0827,2.401928 -2.44738,6.630929 -6.58594,11.007809 -0.40471,0.42804 -0.73633,0.79753 -0.73633,0.8164 0,0.0206 0.41185,-0.36033 0.91406,-0.84569 2.88722,-2.790311 5.4973,-4.744342 7.82227,-5.859378 1.5803,-0.756095 2.71666,-1.004806 3.5293,-0.763672 1.38009,0.409247 1.03362,2.201986 -0.83203,4.310547 -1.86463,2.107423 -5.48403,4.499993 -9.40235,6.216793 -0.19646,0.0858 -0.23137,0.11165 -0.3457,0.16797 0.005,0.01 0.009,0.0195 0.0137,0.0293 0.1723,-0.0571 0.34412,-0.11342 0.74805,-0.26953 3.81577,-1.47326 7.01885,-2.18567 9.84375,-2.18944 2.22036,-0.003 3.71206,0.4242 4.33984,1.24608 0.25285,0.33064 0.29087,0.88206 0.0899,1.27539 -1.03397,2.0239 -6.41912,3.51539 -12.91993,3.57814 l -1.05859,0.0117 0.85937,0.0508 c 0.4725,0.0284 1.48285,0.0845 2.2461,0.12305 5.06091,0.25673 9.05357,1.36208 10.5,2.90625 0.36332,0.38781 0.5039,0.68095 0.5039,1.05664 10e-6,0.73568 -0.65295,1.25977 -2.0332,1.63281 -0.61663,0.1663 -0.71506,0.17471 -2.39453,0.17773 -1.38822,0.003 -1.90926,-0.0212 -2.51172,-0.11718 -2.69042,-0.4277 -5.1014,-1.12016 -8.19336,-2.35157 h -0.002 c -0.006,0.015 -0.0117,0.0299 -0.0176,0.0449 0.19398,0.0969 0.418,0.20656 0.8711,0.41406 5.05269,2.31485 8.85533,5.23747 10.1621,7.8125 0.4218,0.83085 0.48936,1.64915 0.17188,2.07812 -0.94828,1.28092 -4.25218,0.19036 -8.0332,-2.65234 -1.46493,-1.10139 -2.29307,-1.80685 -4.09766,-3.48828 l -0.87305,-0.8125 0.75977,0.8125 c 2.78532,2.97683 4.48208,5.22146 5.61719,7.43555 0.72184,1.408 1.05859,2.50503 1.05859,3.45312 0,1.26678 -0.73925,1.83902 -1.92188,1.48828 -0.90546,-0.26842 -1.78844,-0.87808 -2.93945,-2.03125 -1.97808,-1.98179 -3.90644,-5.08542 -5.44726,-8.76562 -0.17295,-0.41307 -0.2943,-0.67346 -0.33399,-0.73243 l -0.01,0.004 c 0.0146,0.0773 0.0841,0.30381 0.21289,0.65039 1.54647,4.16285 2.32226,8.3887 2.05078,11.17383 -0.18482,1.89592 -0.76568,3.18283 -1.56641,3.47461 -0.85837,0.31272 -1.77651,-0.52511 -2.5332,-2.16406 -0.18928,2.61259 -0.3578,4.82325 -0.42969,5.93164 5.37359,-4.43275 9.81344,-5.83275 15.6543,2.09961 1.16814,1.39982 3.03623,2.33437 5.83984,3.26757 -8.64446,6.76585 -17.98841,7.46514 -21.72656,-3.96679 -3.97179,17.73112 -14.25207,29.62972 -31.54102,34.0625 h 192.58594 c -1.27158,-0.0593 -1.5871,-3.28186 -0.31055,-3.49219 4.69319,-0.35104 8.10653,-3.53279 10.45313,-10.92773 -5.01317,1.41705 -7.4668,-8.47971 -7.4668,-20.63868 1.06662,2.69511 2.02679,4.05734 2.77344,4.52539 4.37322,2.48811 5.22656,7.32974 5.22656,14.67579 1.26229,-5.66419 2.3728,-9.51646 2.71485,-23.71289 -0.33404,2.87221 -0.81338,4.59273 -1.37305,4.5625 -0.2617,-0.0146 -0.55598,-0.76686 -0.71094,-1.81836 -0.46605,-3.16207 -0.12524,-8.47765 0.88477,-13.82032 0.0669,-0.35342 0.0906,-0.51099 0.11328,-0.66406 a 10.621483,4.1685766 82.825515 0 1 -0.01,-0.0176 c -0.0283,0.11358 -0.049,0.17432 -0.0996,0.41016 -0.35833,1.67278 -0.85171,3.49777 -1.33398,4.92969 -1.09742,3.25818 -2.36602,4.97261 -3.12695,4.22461 -0.35055,-0.34477 -0.52273,-1.31722 -0.44336,-2.50977 0.17321,-2.60538 1.2884,-5.96435 3.04297,-9.16992 0.22189,-0.40547 0.39415,-0.7444 0.38281,-0.75195 -0.0113,-0.007 -0.15918,0.21792 -0.32813,0.49609 -2.0132,3.31695 -4.06657,4.94054 -5.15039,4.07812 -0.58227,-0.46333 -0.78233,-1.63201 -0.5,-2.91992 0.31329,-1.4287 1.22786,-3.01181 2.3711,-4.10742 0.61674,-0.59104 1.75182,-1.32289 2.55078,-1.64453 0.10393,-0.0419 0.11852,-0.0596 0.18164,-0.0898 a 10.621483,4.1685766 82.825515 0 1 -0.0117,-0.0684 c -0.0151,0.005 -0.005,-0.004 -0.0234,0.004 -1.22619,0.38211 -2.50144,0.43297 -3.58594,0.14649 -0.52157,-0.13777 -1.59916,-0.72884 -1.97851,-1.08789 -0.75572,-0.71528 -1.23276,-1.60809 -1.32422,-2.47266 -0.0559,-0.52634 0.0264,-0.94945 0.26562,-1.35352 0.62737,-1.06034 2.0948,-1.19943 4.11133,-0.39257 0.25985,0.10401 0.84383,0.38701 1.29688,0.6289 0.45305,0.24193 0.82825,0.42944 0.83203,0.42188 0.005,-0.009 -0.3328,-0.24987 -0.75195,-0.53711 -2.32566,-1.59451 -4.24343,-3.77364 -5.19727,-5.90821 -0.97519,-2.18237 -0.6717,-3.705714 0.67578,-3.398438 0.35078,0.07998 1.23015,0.616409 1.69141,1.031258 1.12819,1.01469 2.66067,2.92392 3.875,4.82812 0.0609,0.0956 0.0668,0.0968 0.11328,0.16602 a 10.621483,4.1685766 82.825515 0 1 0.008,-0.0332 c -0.0786,-0.14131 -0.1278,-0.23827 -0.29297,-0.51757 -2.35056,-3.97255 -4.18025,-8.385395 -4.7539,-11.466806 -0.22677,-1.218028 -0.24108,-1.941669 -0.0449,-2.333984 0.47177,-0.944353 1.94079,1.169672 3.64649,5.248047 0.63541,1.519294 1.12854,2.821688 1.97851,5.232423 l 0.37305,1.0586 -0.37695,-1.19336 c -1.60112,-5.071528 -2.55955,-8.949162 -2.9375,-11.880866 -0.24605,-1.908813 -0.20407,-3.015561 0.1289,-3.339844 0.20334,-0.197972 0.62892,0.213983 1.0254,0.992187 1.17097,2.298407 2.54631,7.470505 3.5664,13.417973 0.0771,0.45014 0.11247,0.64343 0.14649,0.8086 a 10.621483,4.1685766 82.825515 0 1 0.0117,-0.002 c -0.0238,-0.18497 -0.0618,-0.45936 -0.14453,-1.00781 -0.89563,-5.922714 -1.25775,-11.181069 -0.96484,-13.996099 0.10415,-1.001215 0.28486,-1.60128 0.50781,-1.732422 z"
           style="opacity:0.5;fill:#d3d3d3;fill-opacity:1;stroke:none;stroke-width:2.9996109;stroke-linecap:round;stroke-linejoin:round;stroke-miterlimit:4;stroke-dasharray:none;stroke-dashoffset:0;stroke-opacity:1;paint-order:markers stroke fill"
           inkscape:connector-curvature="0" />
        <path
           id="path16252"
           transform="matrix(0.26458333,0,0,0.26458333,8.6213531,210.47903)"
           d="m 335.68945,84.376953 c -0.0143,7.83e-4 -0.0287,-0.0033 -0.043,-0.002 v 0.002 z"
           style="opacity:0.5;fill:#d3d3d3;fill-opacity:1;stroke:none;stroke-width:2.9996109;stroke-linecap:round;stroke-linejoin:round;stroke-miterlimit:4;stroke-dasharray:none;stroke-dashoffset:0;stroke-opacity:1;paint-order:markers stroke fill"
           inkscape:connector-curvature="0" />
        <path
           transform="matrix(0.26458333,0,0,0.26458333,8.6213531,210.47903)"
           id="path16222"
           d="m 339.08398,135.35938 c -1.26672,0.0291 -2.84278,0.5547 -5.0039,1.83789 7.94357,-2.56634 7.0091,3.49932 15.41992,4.19921 -5.60721,-1.74977 -6.61581,-6.12441 -10.41602,-6.0371 z"
           style="opacity:0.5;fill:#d3d3d3;fill-opacity:1;stroke:none;stroke-width:2.9996109;stroke-linecap:round;stroke-linejoin:round;stroke-miterlimit:4;stroke-dasharray:none;stroke-dashoffset:0;stroke-opacity:1;paint-order:markers stroke fill"
           inkscape:connector-curvature="0" />
        <path
           transform="matrix(0.26458333,0,0,0.26458333,8.6213531,210.47903)"
           id="rect16191"
           d="m 299.80664,171.48242 v 0.01 h 0.0332 c -0.0109,-0.004 -0.0225,-0.006 -0.0332,-0.01 z"
           style="opacity:0.5;fill:#d3d3d3;fill-opacity:1;stroke:none;stroke-width:2.9996109;stroke-linecap:round;stroke-linejoin:round;stroke-miterlimit:4;stroke-dasharray:none;stroke-dashoffset:0;stroke-opacity:1;paint-order:markers stroke fill"
           inkscape:connector-curvature="0" />
      </g>
      <text
         transform="rotate(90)"
         id="text15872"
         y="-17.126328"
         x="244.11357"
         style="font-style:normal;font-variant:normal;font-weight:normal;font-stretch:normal;font-size:6.3499999px;line-height:1.29999995;font-family:Quicksand;-inkscape-font-specification:'Quicksand, Normal';font-variant-ligatures:normal;font-variant-position:normal;font-variant-caps:normal;font-variant-numeric:normal;font-variant-alternates:normal;font-feature-settings:normal;text-indent:0;text-align:center;text-decoration:none;text-decoration-line:none;text-decoration-style:solid;text-decoration-color:#000000;letter-spacing:0px;word-spacing:0px;text-transform:none;writing-mode:lr-tb;direction:ltr;text-orientation:mixed;dominant-baseline:auto;baseline-shift:baseline;text-anchor:middle;white-space:normal;shape-padding:0;opacity:1;vector-effect:none;fill:#ffb700;fill-opacity:1;stroke:none;stroke-width:0.71912861px;stroke-linecap:butt;stroke-linejoin:miter;stroke-miterlimit:4;stroke-dasharray:none;stroke-dashoffset:0;stroke-opacity:1"
         xml:space="preserve"><tspan
           style="fill:#ffb700;stroke-width:0.71912861px"
           y="-17.126328"
           x="244.11357"
           id="tspan15870"
           sodipodi:role="line">Lichtbron</tspan></text>
      <path
         style="fill:none;fill-rule:evenodd;stroke:#555555;stroke-width:0.35277778;stroke-linecap:round;stroke-linejoin:miter;stroke-miterlimit:4;stroke-dasharray:none;stroke-opacity:1"
         d="m 128.64034,265.75708 c 9.89553,-0.20183 -0.94738,-9.4562 -0.94738,-16.83298"
         id="path14828-2-8"
         inkscape:connector-curvature="0"
         sodipodi:nodetypes="cc" />
      <path
         style="fill:none;fill-rule:evenodd;stroke:#555555;stroke-width:0.35277778;stroke-linecap:round;stroke-linejoin:miter;stroke-miterlimit:4;stroke-dasharray:none;stroke-opacity:1"
         d="m 143.37352,235.21055 c 0.37182,-18.23057 -5.89223,-11.03771 -16.99046,-11.03771"
         id="path14828-2-8-8"
         inkscape:connector-curvature="0"
         sodipodi:nodetypes="cc" />
      <text
         id="text16273"
         y="225.30412"
         x="107.52779"
         style="font-style:normal;font-variant:normal;font-weight:normal;font-stretch:normal;font-size:4.23333311px;line-height:1.29999995;font-family:Quicksand;-inkscape-font-specification:'Quicksand, Normal';font-variant-ligatures:normal;font-variant-position:normal;font-variant-caps:normal;font-variant-numeric:normal;font-variant-alternates:normal;font-feature-settings:normal;text-indent:0;text-align:start;text-decoration:none;text-decoration-line:none;text-decoration-style:solid;text-decoration-color:#000000;letter-spacing:0px;word-spacing:0px;text-transform:none;writing-mode:lr-tb;direction:ltr;text-orientation:mixed;dominant-baseline:auto;baseline-shift:baseline;text-anchor:start;white-space:normal;shape-padding:0;opacity:1;vector-effect:none;fill:#555555;fill-opacity:1;stroke:none;stroke-width:0.71912861px;stroke-linecap:butt;stroke-linejoin:miter;stroke-miterlimit:4;stroke-dasharray:none;stroke-dashoffset:0;stroke-opacity:1;"
         xml:space="preserve"><tspan
           style="font-size:4.23333311px;text-align:start;text-anchor:start;fill:#555555;stroke-width:0.71912861px;"
           y="225.30412"
           x="107.52779"
           id="tspan16271"
           sodipodi:role="line">Schaduw</tspan></text>
    </g>
  </g>
</svg>
