<?xml version="1.0" encoding="UTF-8" standalone="no"?>
<!-- Created with Inkscape (http://www.inkscape.org/) -->

<svg
   xmlns:ns1="http://www.iki.fi/pav/software/textext/"
   xmlns:dc="http://purl.org/dc/elements/1.1/"
   xmlns:cc="http://creativecommons.org/ns#"
   xmlns:rdf="http://www.w3.org/1999/02/22-rdf-syntax-ns#"
   xmlns:svg="http://www.w3.org/2000/svg"
   xmlns="http://www.w3.org/2000/svg"
   xmlns:sodipodi="http://sodipodi.sourceforge.net/DTD/sodipodi-0.dtd"
   xmlns:inkscape="http://www.inkscape.org/namespaces/inkscape"
   width="581.73621"
   height="209.62985"
   viewBox="0 0 153.91769 55.46456"
   version="1.1"
   id="svg4623"
   inkscape:version="0.92.4 (unknown)"
   sodipodi:docname="veldkrachten.svg"
   inkscape:export-filename="/home/fdf/hugo/hoezithet/static/images/favicon.png"
   inkscape:export-xdpi="90"
   inkscape:export-ydpi="90">
  <defs
     id="defs4617">
    <marker
       inkscape:stockid="Arrow2Mend"
       orient="auto"
       refY="0.0"
       refX="0.0"
       id="Arrow2Mend"
       style="overflow:visible;"
       inkscape:isstock="true">
      <path
         id="path5001"
         style="fill-rule:evenodd;stroke-width:0.625;stroke-linejoin:round;stroke:#e7040f;stroke-opacity:1;fill:#e7040f;fill-opacity:1"
         d="M 8.7185878,4.0337352 L -2.2072895,0.016013256 L 8.7185884,-4.0017078 C 6.9730900,-1.6296469 6.9831476,1.6157441 8.7185878,4.0337352 z "
         transform="scale(0.6) rotate(180) translate(0,0)" />
    </marker>
  </defs>
  <sodipodi:namedview
     id="base"
     pagecolor="#f4f4f4"
     bordercolor="#666666"
     borderopacity="1.0"
     inkscape:pageopacity="1"
     inkscape:pageshadow="2"
     inkscape:zoom="1.28"
     inkscape:cx="338.23153"
     inkscape:cy="99.905828"
     inkscape:document-units="px"
     inkscape:current-layer="svg4623"
     showgrid="false"
     units="px"
     inkscape:object-paths="true"
     inkscape:snap-smooth-nodes="true"
     inkscape:window-width="1920"
     inkscape:window-height="1055"
     inkscape:window-x="1600"
     inkscape:window-y="25"
     inkscape:window-maximized="1"
     showguides="true"
     inkscape:guide-bbox="true"
     inkscape:pagecheckerboard="false"
     inkscape:snap-global="true"
     inkscape:showpageshadow="true"
     showborder="true"
     borderlayer="false"
     inkscape:snap-object-midpoints="true" />
  <metadata
     id="metadata4620">
    <rdf:RDF>
      <cc:Work
         rdf:about="">
        <dc:format>image/svg+xml</dc:format>
        <dc:type
           rdf:resource="http://purl.org/dc/dcmitype/StillImage" />
        <dc:title />
      </cc:Work>
    </rdf:RDF>
  </metadata>
  <g
     inkscape:label="watermark"
     inkscape:groupmode="layer"
     id="layer1"
     transform="translate(5.1800203,-240.86796)"
     sodipodi:insensitive="true">
    <g
       id="g5353"
       transform="matrix(0.89623584,0,0,0.89623584,-1.2321384,28.09939)"
       style="stroke-width:1.11577785">
      <text
         xml:space="preserve"
         style="font-style:normal;font-variant:normal;font-weight:normal;font-stretch:normal;font-size:28.01556396px;line-height:1.29999995;font-family:Quicksand;-inkscape-font-specification:'Quicksand, Normal';font-variant-ligatures:normal;font-variant-position:normal;font-variant-caps:normal;font-variant-numeric:normal;font-variant-alternates:normal;font-feature-settings:normal;text-indent:0;text-align:center;text-decoration:none;text-decoration-line:none;text-decoration-style:solid;text-decoration-color:#000000;letter-spacing:0px;word-spacing:0px;text-transform:none;writing-mode:lr-tb;direction:ltr;text-orientation:mixed;dominant-baseline:auto;baseline-shift:baseline;text-anchor:middle;white-space:normal;shape-padding:0;opacity:1;vector-effect:none;fill:#555555;fill-opacity:1;stroke:none;stroke-width:3.17272329px;stroke-linecap:butt;stroke-linejoin:miter;stroke-miterlimit:4;stroke-dasharray:none;stroke-dashoffset:0;stroke-opacity:1"
         x="44.292774"
         y="218.67326"
         id="text2653"><tspan
           sodipodi:role="line"
           id="tspan2651"
           x="44.292774"
           y="245.28806"
           style="stroke-width:3.17272329px" /></text>
      <text
         xml:space="preserve"
         style="font-style:normal;font-variant:normal;font-weight:normal;font-stretch:normal;font-size:4.72345829px;line-height:1.25;font-family:Quicksand;-inkscape-font-specification:Quicksand;text-align:end;letter-spacing:0px;word-spacing:0px;text-anchor:end;fill:#d3d3d3;fill-opacity:1;stroke:none;stroke-width:0.29521614"
         x="167.17076"
         y="298.24545"
         id="text7806"><tspan
           sodipodi:role="line"
           id="tspan7804"
           x="167.17076"
           y="298.24545"
           style="font-size:4.72345829px;text-align:end;text-anchor:end;fill:#d3d3d3;stroke-width:0.29521614">Meer op: https://hoezithet.nu</tspan></text>
    </g>
  </g>
  <g
     inkscape:groupmode="layer"
     id="layer2"
     inkscape:label="Layer 1"
     transform="translate(5.1800203,-240.86796)" />
  <g
     id="g5890"
     transform="translate(-3.513997,-1.8335893)">
    <g
       style="stroke-width:0.83319449"
       transform="matrix(0.57222085,0,0,0.57222085,-176.54044,-13.691628)"
       id="g9585-7-3-8-3">
      <g
         style="stroke-width:0.83319449"
         id="g27576-6-8-7-2">
        <path
           inkscape:connector-curvature="0"
           id="path28077-8"
           d="M 383.51181,87.846972 A 30.760397,30.760397 0 0 1 343.03699,103.79042 30.760397,30.760397 0 0 1 327.09354,63.31561 30.760397,30.760397 0 0 1 367.56835,47.372159 30.760397,30.760397 0 0 1 383.51181,87.846972 Z"
           style="color:#000000;clip-rule:nonzero;display:inline;overflow:visible;visibility:visible;opacity:1;isolation:auto;mix-blend-mode:normal;color-interpolation:sRGB;color-interpolation-filters:linearRGB;solid-color:#000000;solid-opacity:1;fill:#19a974;fill-opacity:1;fill-rule:evenodd;stroke:none;stroke-width:2.15547395;stroke-linecap:round;stroke-linejoin:miter;stroke-miterlimit:4;stroke-dasharray:none;stroke-dashoffset:0;stroke-opacity:0.39215686;color-rendering:auto;image-rendering:auto;shape-rendering:auto;text-rendering:auto;enable-background:accumulate" />
        <path
           inkscape:connector-curvature="0"
           id="path28073-0"
           d="m 357.56203,44.874024 -0.4054,1.11334 2.2524,0.820678 0.71593,1.536543 -1.94399,1.839106 -0.10672,3.786965 1.84305,1.945895 1.53454,-0.715875 1.94388,-1.843055 2.25241,0.818704 2.66174,-0.304549 0.8187,-2.252407 1.53464,-0.715864 -1.8392,-1.941936 0.98486,-0.545796 a 31.112952,31.112952 0 0 0 -12.24684,-3.541749 z"
           style="color:#000000;clip-rule:nonzero;display:inline;overflow:visible;visibility:visible;opacity:1;isolation:auto;mix-blend-mode:normal;color-interpolation:sRGB;color-interpolation-filters:linearRGB;solid-color:#000000;solid-opacity:1;fill:#ffffff;fill-opacity:1;fill-rule:evenodd;stroke:none;stroke-width:2.15547395;stroke-linecap:round;stroke-linejoin:miter;stroke-miterlimit:4;stroke-dasharray:none;stroke-dashoffset:0;stroke-opacity:0.39215686;color-rendering:auto;image-rendering:auto;shape-rendering:auto;text-rendering:auto;enable-background:accumulate" />
        <path
           style="color:#000000;clip-rule:nonzero;display:inline;overflow:visible;visibility:visible;opacity:1;isolation:auto;mix-blend-mode:normal;color-interpolation:sRGB;color-interpolation-filters:linearRGB;solid-color:#000000;solid-opacity:1;fill:#357edd;fill-opacity:1;fill-rule:evenodd;stroke:none;stroke-width:2.15547395;stroke-linecap:round;stroke-linejoin:miter;stroke-miterlimit:4;stroke-dasharray:none;stroke-dashoffset:0;stroke-opacity:0.39215686;color-rendering:auto;image-rendering:auto;shape-rendering:auto;text-rendering:auto;enable-background:accumulate"
           d="m 355.88938,44.817876 -0.88088,0.409139 -1.07622,-0.3909 a 30.793089,30.793089 0 0 0 -0.2762,0.01042 c -0.61603,0.05168 -1.23099,0.10949 -1.84515,0.177217 a 30.793089,30.793089 0 0 0 -0.89116,0.10945 c -0.69102,0.09557 -1.3811,0.211535 -2.06398,0.377864 l 0.89129,0.323146 1.51666,-0.708829 3.3382,1.216998 0.7089,1.516688 -1.51666,0.708829 1.11278,0.403922 0.70622,1.516688 -1.51679,0.708829 -1.5192,0.708829 -1.11277,-0.406538 -0.70623,-1.516687 -1.11278,-0.406525 2.62944,-0.302304 -0.70623,-1.516688 -2.63197,0.302305 -0.40402,1.112752 -2.22555,-0.810461 -4.14864,1.011121 -0.40655,1.112765 0.70876,1.516687 1.11278,0.406525 -0.81043,2.225516 1.11278,0.403936 0.40388,-1.112765 3.03599,-1.415056 -0.70623,-1.516674 1.51666,-0.708829 2.22556,0.81046 -0.40388,1.112751 0.70622,1.516688 1.5192,-0.706227 0.30234,2.629452 1.82154,1.923212 -1.92321,1.821594 1.11278,0.403922 0.30235,2.632055 -1.82168,-1.923226 -1.11278,-0.406537 1.51933,-0.706214 0.40402,-1.112765 -1.5168,0.706227 -2.22542,-0.81046 -1.51933,0.708829 1.11278,0.403923 0.70876,1.519289 -3.74475,-0.101631 -1.11278,-0.406538 -0.40388,1.112765 -2.63211,0.302291 -1.92054,1.821595 -3.03599,1.415043 0.30221,2.632054 -1.5192,0.706227 -0.70622,-1.516687 -0.7089,-1.51929 -2.22556,-0.807858 -1.92321,1.818979 -0.81043,2.225516 0.70889,1.51929 1.5192,-0.708829 2.62944,-0.302292 -1.51666,0.706214 -0.81043,2.225517 1.11277,0.406537 -0.40655,1.112752 0.30235,2.629452 1.11264,0.406525 1.51933,-0.708829 2.62944,-0.302292 0.7089,1.519289 3.3382,1.214397 1.41512,3.035976 2.22542,0.81046 1.41766,3.033375 2.93179,2.32975 1.82154,1.923225 0.30234,2.629439 -2.63211,0.302305 -1.21431,3.338268 -2.62944,0.302291 -1.11278,-0.403922 -0.81043,2.225517 -3.03599,1.415043 -0.40389,1.112767 -1.51932,0.70883 0.25017,0.53422 a 30.793089,30.793089 0 0 0 1.75376,1.07628 c 0.0379,0.0206 0.0768,0.0395 0.11475,0.0599 a 30.793089,30.793089 0 0 0 2.63717,1.27433 c 0.0733,0.031 0.14811,0.0582 0.22163,0.0886 a 30.793089,30.793089 0 0 0 2.22022,0.80786 c 0.26752,0.0882 0.53464,0.18012 0.80269,0.26061 a 30.793089,30.793089 0 0 0 5.60552,1.12839 c 0.0903,0.01 0.18053,0.0173 0.27099,0.026 a 30.793089,30.793089 0 0 0 2.92645,0.14595 30.793089,30.793089 0 0 0 2.17859,-0.0756 30.793089,30.793089 0 0 0 2.83011,-0.34399 c 0.25725,-0.0439 0.51062,-0.10056 0.76627,-0.15114 a 30.793089,30.793089 0 0 0 0.94333,-0.21108 l 0.35438,-0.97204 3.44254,-2.52781 0.40388,-1.11275 1.92321,-1.821599 1.11278,0.406538 1.21445,-3.338268 -0.70623,-1.519303 1.92055,-1.818979 -0.70623,-1.519289 -2.63197,0.302291 -2.22556,-0.807845 -1.81901,-1.923225 -0.30221,-2.632054 -0.70889,-1.516687 0.40388,-1.112752 1.51933,-0.708829 0.81043,-2.225517 2.32723,-2.934345 1.11278,0.406537 1.92321,-1.821594 1.51666,-0.706214 0.40655,-1.112765 -2.22556,-0.81046 0.81044,-2.225516 1.51679,-0.708829 2.22543,0.81046 0.40401,-1.112752 -0.70623,-1.516687 -0.70889,-1.51929 1.11278,0.406538 -0.70623,-1.519289 0.40388,-1.112765 -1.11278,-0.403923 -0.40388,1.112752 -1.11278,-0.406538 0.8079,-2.225503 1.11531,0.406524 -0.70876,-1.519289 1.11278,0.406538 1.41499,3.033375 -0.81043,2.228118 1.92321,-1.821594 1.11278,0.403936 0.81043,-2.225517 -1.11278,-0.403936 -0.30221,-2.632041 1.51666,-0.706227 -0.30234,-2.632054 0.60722,-0.643677 a 30.793089,30.793089 0 0 0 -0.2814,-0.3909 c -0.15277,-0.203903 -0.30581,-0.407165 -0.46392,-0.607185 a 30.793089,30.793089 0 0 0 -9.47022,-7.820576 l -1.01111,0.557683 1.819,1.92061 -1.51666,0.708829 -0.81043,2.225517 -2.63211,0.302291 -2.22555,-0.81046 -1.92322,1.821581 -1.51666,0.708829 -1.82154,-1.923212 0.10421,-3.744806 1.92321,-1.818979 -0.70876,-1.519302 -2.22556,-0.81046 0.40388,-1.112752 c -0.18372,-0.02809 -0.36919,-0.03461 -0.55505,-0.04691 a 30.793089,30.793089 0 0 0 -1.1935,-0.05994 z m 17.0171,30.870551 2.22556,0.810461 1.51919,-0.70883 2.22556,0.810461 0.30234,2.629439 0.70877,1.519302 1.11277,0.403923 1.51667,-0.706227 0.70889,1.516687 1.11278,0.403936 -0.30235,-2.629453 -1.11277,-0.403922 -0.30488,-2.632054 -1.92322,1.821594 -0.70622,-1.51929 1.51666,-0.706227 -2.52777,-3.442514 -1.11278,-0.403923 -1.11278,-0.406537 0.7089,1.519289 -1.11278,-0.406538 -0.81057,2.228132 -1.11264,-0.406538 z m -5.053,-20.743682 1.11278,0.406538 2.22809,0.807859 0.70623,1.519289 -2.62944,0.302291 -0.7089,-1.516687 z m 12.94919,5.972938 0.30221,2.632041 1.11278,0.403936 -0.30235,-2.629453 z m 1.41499,3.035977 -0.8079,2.225516 -1.5192,0.708816 1.11278,0.403936 1.5192,-0.706227 0.40401,-1.112752 z m -55.62998,0.601981 a 30.793089,30.793089 0 0 0 -0.46139,1.263897 c -0.13222,0.39553 -0.26245,0.791033 -0.37786,1.188338 a 30.793089,30.793089 0 0 0 -0.4247,1.667833 c -0.0837,0.363454 -0.17772,0.725201 -0.24764,1.089309 a 30.793089,30.793089 0 0 0 -0.31528,2.100415 c -0.0288,0.238714 -0.0759,0.478041 -0.099,0.716648 a 30.793089,30.793089 0 0 0 -0.0131,0.237153 30.793089,30.793089 0 0 0 -0.11982,2.423562 c -0.0128,1.434123 0.0862,2.856744 0.27099,4.263408 a 30.793089,30.793089 0 0 0 0.0809,0.664518 c 0.10367,0.6759 0.23509,1.343874 0.38306,2.009219 a 30.793089,30.793089 0 0 0 0.11462,0.505567 c 0.17332,0.722492 0.36479,1.440848 0.58894,2.147328 a 30.793089,30.793089 0 0 0 0.0339,0.09903 c 0.98976,3.083076 2.45679,5.996554 4.34678,8.623218 a 30.793089,30.793089 0 0 0 0.0626,0.08861 c 0.4722,0.651416 0.96975,1.286046 1.49318,1.899769 1.60045,1.876512 3.43654,3.570604 5.48304,5.024337 l -1.01111,-4.148725 -0.20067,-6.374258 -1.81901,-1.923212 -2.12389,-4.555279 -0.30221,-2.629439 1.92322,-1.821581 0.81043,-2.225516 -1.51933,0.708829 -1.82154,-1.923225 -0.30235,-2.62944 -1.11277,-0.406537 -0.70623,-1.516688 -1.11265,-0.406524 -1.41779,-3.035977 0.40655,-1.112765 -0.48981,-2.01182 z m 8.27913,4.847137 1.11278,0.406537 1.82154,1.923212 -1.11265,-0.406524 z m 0.30234,2.632054 1.11278,0.403922 -1.51666,0.70883 z m 3.74475,0.101631 1.11278,0.403923 -0.40655,1.112764 -2.22542,-0.807858 z m 46.03487,1.631354 -0.81043,2.225504 1.11264,0.406537 0.77921,0.284052 c 0.009,-0.341986 0.05,-0.770352 0.0652,-1.128389 a 30.793089,30.793089 0 0 0 -0.005,-0.10945 l -0.43523,-0.158964 -0.70623,-1.51929 z"
           id="path27539-7-1-3-3"
           inkscape:connector-curvature="0" />
        <g
           transform="matrix(8.123976,0,0,8.123976,-190.77639,-1840.8956)"
           id="g1097-3-8"
           style="stroke-width:0.32329977">
          <path
             transform="scale(-1,1)"
             d="m -67.219299,232.11705 a 3.7885458,3.7885458 0 0 1 3.788546,3.78854 3.7885458,3.7885458 0 0 1 -3.788546,3.78855 l 0,-3.78855 z"
             sodipodi:end="1.5707963"
             sodipodi:start="4.712389"
             sodipodi:ry="3.7885458"
             sodipodi:rx="3.7885458"
             sodipodi:cy="235.90559"
             sodipodi:cx="-67.219299"
             sodipodi:type="arc"
             style="opacity:0.8;fill:none;fill-opacity:1;stroke:none;stroke-width:0.13697259;stroke-linecap:round;stroke-linejoin:round;stroke-miterlimit:4;stroke-dasharray:none;stroke-dashoffset:0;stroke-opacity:1;paint-order:markers stroke fill"
             id="path1252-4-9-6-1-6" />
        </g>
      </g>
    </g>
    <g
       transform="rotate(60,75.723415,-24.107619)"
       id="g4966">
      <g
         transform="matrix(-0.01719964,0,0,0.01719964,99.024222,16.805203)"
         id="g1348-2-1-2"
         style="fill:#000000;stroke:none;stroke-width:1.71637249">
        <circle
           r="10"
           cy="52.248337"
           cx="86.092468"
           id="path1114-1-7-9"
           style="color:#000000;clip-rule:nonzero;display:inline;overflow:visible;visibility:visible;opacity:1;isolation:auto;mix-blend-mode:normal;color-interpolation:sRGB;color-interpolation-filters:linearRGB;solid-color:#000000;solid-opacity:1;fill:#000000;fill-opacity:1;fill-rule:evenodd;stroke:none;stroke-width:42.90930557;stroke-linecap:square;stroke-linejoin:round;stroke-miterlimit:4;stroke-dasharray:none;stroke-dashoffset:0;stroke-opacity:1;color-rendering:auto;image-rendering:auto;shape-rendering:auto;text-rendering:auto;enable-background:accumulate" />
        <path
           style="color:#000000;clip-rule:nonzero;display:inline;overflow:visible;visibility:visible;opacity:1;isolation:auto;mix-blend-mode:normal;color-interpolation:sRGB;color-interpolation-filters:linearRGB;solid-color:#000000;solid-opacity:1;fill:#000000;fill-opacity:1;fill-rule:evenodd;stroke:none;stroke-width:162.17694092;stroke-linecap:square;stroke-linejoin:round;stroke-miterlimit:4;stroke-dasharray:none;stroke-dashoffset:0;stroke-opacity:1;color-rendering:auto;image-rendering:auto;shape-rendering:auto;text-rendering:auto;enable-background:accumulate"
           d="m 1593.1523,880.55273 c -20.9385,0 -37.7949,16.85635 -37.7949,37.79493 v 34.34179 h 32.8711 v -36.03906 c -0.017,-1.06732 0.8526,-1.93697 1.9199,-1.91992 1.0436,0.0167 1.8761,0.8763 1.8594,1.91992 v 37.92773 c 4e-4,1.04357 -0.8451,1.88994 -1.8887,1.89063 h -34.7617 -14.9629 c -2.3637,0 -4.6088,0.47231 -6.6465,1.32813 -1.0188,0.4279 -1.9864,0.95179 -2.8906,1.56054 -0.4521,0.30438 -0.8873,0.62916 -1.3066,0.97461 -0.4193,0.34545 -0.8213,0.71194 -1.2051,1.0957 -0.3834,0.38346 -0.7506,0.78419 -1.0957,1.20313 -3e-4,3.7e-4 3e-4,0.002 0,0.002 -1.3813,1.677 -2.4453,3.62648 -3.1035,5.76172 -2e-4,5.9e-4 2e-4,10e-4 0,0.002 -0.3289,1.06734 -0.5567,2.18134 -0.6719,3.33008 -0.058,0.5747 -0.088,1.15907 -0.088,1.75 0,0.59094 0.03,1.1733 0.088,1.74805 10e-5,6.4e-4 -10e-5,0.001 0,0.002 0.1153,1.14882 0.3429,2.26252 0.6719,3.33008 2e-4,6e-4 -2e-4,10e-4 0,0.002 0.1645,0.53347 0.3546,1.05542 0.5683,1.56446 3e-4,5.6e-4 -2e-4,10e-4 0,0.002 0.2138,0.50902 0.4527,1.0045 0.7129,1.48633 3e-4,5.1e-4 -2e-4,10e-4 0,0.002 1.0421,1.92877 2.4462,3.62937 4.1231,5.01172 0.8386,0.69135 1.7447,1.30273 2.709,1.82422 1.4464,0.78223 3.0223,1.36143 4.6894,1.69922 1.1114,0.22519 2.2635,0.34375 3.4453,0.34375 0,0 80.1268,0.0293 90.5528,0.0293 v -72.17382 c 0,-20.93858 -16.8564,-37.79493 -37.795,-37.79493 z m -89.6777,113.74995 c -5.0365,0.46052 -9.4801,2.60538 -12.584,6.22072 l -79.1426,79.1426 c -7.4029,7.4029 -7.4029,19.3217 0,26.7246 7.4029,7.4029 19.3237,7.4029 26.7266,0 l 47.8574,-47.8574 v 67.6875 c 0,10.4693 8.4292,18.8984 18.8985,18.8984 10.4693,0 18.8984,-8.4291 18.8984,-18.8984 v -94.4883 h 69.2126 v 0 c 20.7285,-0.1013 37.4017,-16.7241 37.5957,-37.42972 -10.4472,-10e-6 -127.367,-0.009 -127.4629,0 z"
           transform="matrix(-0.26458333,0,0,0.26458333,496.676,-170.90929)"
           id="rect1116-7-9-0"
           inkscape:connector-curvature="0"
           sodipodi:nodetypes="csccccccccsccsccccccscccccccccccccssccssscssscsccccc" />
      </g>
      <path
         inkscape:connector-curvature="0"
         style="fill:#f4f4f4;stroke-width:0.38270548"
         d="m 389.44531,63.693359 c -0.5944,-0.02144 -1.13029,0.511435 -1.19726,0.544922 l -5.05078,4.515625 -8.03711,-0.574218 c -0.42098,-0.03829 -0.65081,0.268792 -0.76563,0.421874 l -3.13867,-0.115234 0.0391,-0.154297 c 0.0765,-0.229644 0.11405,-0.458617 -0.0391,-0.535156 -0.11482,-0.07654 -0.26722,0.03792 -0.34375,0.07617 l -0.80469,0.613281 h -0.41992 v -2.296875 h 0.76562 0.49805 c 0.30618,0 0.45862,-0.03756 0.53516,-0.152344 0.0383,-0.03829 0.0371,-0.07695 0.0371,-0.115234 0,-0.07654 10e-4,-0.15312 -0.0371,-0.191406 -0.15307,-0.229607 -0.61175,-0.306641 -0.72656,-0.306641 L 367.12305,64.8125 c -0.19136,0 -0.34496,-0.03906 -0.49805,-0.03906 -1.3012,0 -1.33868,0.61291 -1.37695,0.689453 0,0.153071 0.0387,0.267214 0.11523,0.34375 0.19136,0.229644 0.57385,0.230468 0.65039,0.230468 v 2.21875 h -2.64062 c -1.41601,0 -3.02344,0.458985 -3.02344,0.458985 l -1.68359,0.498047 c 0,-0.344429 -7.8e-4,-1.22398 -0.0391,-1.759766 -0.0383,-0.459247 -0.11409,-1.263357 -0.15234,-1.53125 -0.0383,-0.153071 -0.11605,-0.152344 -0.1543,-0.152344 -0.11482,0 -0.18984,0.03829 -0.30469,1.416016 -0.0765,0.765411 -0.11523,1.607212 -0.11523,2.257812 l -0.45898,0.152344 c -0.22965,0.07654 -0.34454,0.152756 -0.38282,0.267578 -0.0765,0.03829 -0.0762,0.115235 -0.0762,0.115235 0,0.267893 0.34338,0.382812 0.41992,0.382812 l 0.45899,0.191406 c 0,0.72714 0.0391,1.606845 0.0391,2.333985 0.0765,1.454283 0.11373,1.45392 0.22852,1.492187 0.0383,0 0.11604,-0.03756 0.15429,-0.152344 0.0765,-0.267892 0.19023,-1.07237 0.22852,-1.455078 0.0383,-0.535786 0.0379,-1.492292 0.0762,-1.875 l 0.38281,0.154297 0.0391,0.994141 c 0.0765,0.688868 1.60748,1.147328 4.63085,1.376953 l 1.41602,1.607422 c -0.22964,0.267893 -0.38281,0.612595 -0.38281,0.957031 0,0.803679 0.65139,1.455078 1.45508,1.455078 0.80368,0 1.45312,-0.651399 1.45312,-1.455078 0,-0.306179 -0.11451,-0.612172 -0.26758,-0.841797 l 2.29688,-1.683593 c 0.34443,-0.03829 0.72704,-0.07617 1.0332,-0.07617 h 0.0371 c 0.84195,-0.07654 1.57031,-0.154297 1.57031,-0.154297 l 14.19727,-1.492188 c 0.30614,-0.03829 0.42187,0 0.42187,0 l 1.37696,0.53711 c 0.0382,0.03829 0.0771,0.03711 0.11523,0.03711 l 1.30078,0.498047 h 0.0391 c 0.0382,0 0.0767,-0.03792 0.11524,-0.07617 0.0382,-0.07654 -10e-4,-0.116048 -0.0781,-0.154297 l -0.8789,-0.34375 c 0.0767,-0.07654 0.0762,-0.192182 0.0762,-0.230469 V 71.47071 l 1.875,-0.611328 c 0.95679,-0.267893 0.57344,-1.951596 0.53516,-2.066406 l -0.61133,-3.177735 c -0.15307,-1.071575 -0.53569,-1.721917 -1.03321,-1.875 -0.0861,-0.0287 -0.17289,-0.04381 -0.25781,-0.04687 z m -22.70508,2.38086 2.25782,0.03906 v 2.257813 h -0.0762 l -1.26368,-0.03906 0.0781,-0.267578 c 0.0765,-0.229644 0.11404,-0.458613 -0.0391,-0.535156 -0.11483,-0.07654 -0.26722,0.03792 -0.34375,0.07617 l -0.61329,0.458984 z m -2.75585,7.347656 c 0.72713,0.03829 1.41696,0.07813 2.02929,0.07813 v 1.033203 c -0.30618,0.03829 -0.57427,0.151579 -0.76562,0.304688 z m 5.20507,0.03906 -2.02734,1.492187 c -0.2297,-0.229625 -0.53643,-0.38165 -0.88086,-0.419922 V 73.5 h 1.30078 0.53711 c 0.26789,0 0.64933,-0.03906 1.07031,-0.03906 z"
         id="path4142"
         transform="scale(0.26458331)" />
      <path
         inkscape:connector-curvature="0"
         style="fill:#d3d3d3;fill-opacity:1;stroke-width:0.10125748"
         d="m 102.76458,17.046884 c 0,0 0.0304,-0.03038 0.0911,-0.07088 v 1.255592 c -0.60754,-0.14176 -0.86068,-0.01012 -0.91131,0.02025 l -0.46579,-0.05063 z"
         id="path4140" />
      <path
         inkscape:connector-curvature="0"
         style="fill:#d3d3d3;fill-opacity:1;stroke-width:0.10125748"
         d="m 102.79498,18.383483 c -0.28352,0.03038 -0.53667,0.01013 -0.69868,-0.03038 -0.0506,-0.01012 -0.081,-0.03038 -0.11138,-0.05063 0.081,-0.0405 0.3949,-0.141761 1.0632,0.05063 -0.0405,0 -0.12151,0.02025 -0.25314,0.03038 z"
         id="path4138" />
      <path
         inkscape:connector-curvature="0"
         style="fill:#cdecff;stroke-width:0.10125748"
         d="m 98.19789,17.998704 v 0 c 0,0 0.01013,0 0,0 0.01013,0 0,0.02025 -0.01013,0.06076 l -0.02025,0.06076 h -0.131635 z"
         id="path4136" />
      <path
         inkscape:connector-curvature="0"
         style="fill:#357edd;stroke-width:0.10125748"
         d="m 99.088956,18.211345 h 0.02025 l 0.01013,-0.02025 c 0,0 0.05063,-0.111383 0.14176,-0.09113 l 2.126404,0.151886 0.51641,0.06075 0.0101,0.01013 c 0.0405,0.03038 0.081,0.06076 0.14176,0.08101 v 0.05063 l -4.222434,0.03038 v -0.313898 z"
         id="path4134" />
      <path
         inkscape:connector-curvature="0"
         style="fill:#357edd;fill-opacity:1;stroke-width:0.10125748"
         d="m 98.056129,19.345429 c -0.232892,0.02025 -0.516413,0.05063 -0.678425,0.05063 0,0 -0.151886,0 -0.374653,0 v 0 c 0,0 -0.09113,0 -0.151886,-0.05063 -0.03038,-0.03038 -0.05063,-0.07088 -0.05063,-0.131635 0,-0.0405 0.01013,-0.08101 0.05063,-0.101258 0.07088,-0.06075 0.212641,-0.09113 0.384779,-0.08101 0,0 0.455658,0.05063 0.850563,0.172138 v 0 c 0,0 0.09113,0.02025 0.09113,0.07088 0,0.0405 -0.07088,0.06076 -0.12151,0.07088 z"
         id="path4132" />
      <path
         inkscape:connector-curvature="0"
         style="fill:#d3d3d3;stroke-width:0.10125748"
         d="m 96.841039,19.041656 c -0.01013,0.01013 -0.02025,0.01013 -0.03038,0.02025 -0.0405,0.0405 -0.07088,0.09113 -0.07088,0.151886 0,0.07088 0.02025,0.131635 0.07088,0.172138 0,0 0,0 0,0 -0.172137,0 -0.364526,-0.01013 -0.567041,-0.03038 v -0.830312 h 0.587293 v 0.516413 z"
         id="path4128" />
      <path
         inkscape:connector-curvature="0"
         style="fill:#cdecff;stroke-width:0.10125748"
         d="m 97.235944,17.988578 -0.02025,0.08101 -0.14176,-0.01012 0.172137,-0.141761 c 0,0 0,0 0.01013,-0.01013 -0.01013,0.03038 -0.01013,0.05063 -0.02025,0.08101 z"
         id="path4124" />
      <path
         inkscape:connector-curvature="0"
         style="fill:#357edd;stroke-width:0.10125748"
         d="m 97.043554,18.130339 0.567042,0.02025 h 0.02025 v 0.313898 h -0.587293 z"
         id="path4122" />
      <path
         inkscape:connector-curvature="0"
         style="fill:#d3d3d3;fill-opacity:1;stroke-width:0.10125748"
         d="m 97.043554,18.535369 h 0.587294 v 0.486036 c -0.222767,-0.0405 -0.384779,-0.06076 -0.384779,-0.06076 -0.07088,-0.01013 -0.14176,-0.01013 -0.192389,0 v -0.425281 z"
         id="path4120" />
      <path
         inkscape:connector-curvature="0"
         style="fill:#d3d3d3;fill-opacity:1;stroke-width:0.10125748"
         d="m 97.772608,19.051782 c -0.03038,-0.01013 -0.05063,-0.01013 -0.08101,-0.02025 v -1.539113 h 0.08101 z"
         id="path4118" />
      <path
         inkscape:connector-curvature="0"
         style="fill:#357edd;fill-opacity:1;stroke-width:0.10125748"
         d="m 96.709405,17.381033 c -0.01013,-0.01012 -0.02025,-0.03038 -0.01013,-0.05063 v 0 c 0,0 0.01013,-0.121509 0.293646,-0.121509 0.0405,0 0.08101,0 0.131635,0.01013 l 0.982198,0.151886 c 0.05063,0.01013 0.131635,0.03038 0.14176,0.06075 0,0 0,0.01013 0,0.01013 v 0 c -0.01013,0 -0.03038,0.01013 -0.09113,0.01013 h -0.131635 l -1.194838,-0.02025 c -0.02025,-0.01013 -0.09113,-0.02025 -0.121509,-0.05063 z"
         id="path4116" />
      <path
         inkscape:connector-curvature="0"
         style="fill:#d3d3d3;fill-opacity:1;stroke-width:0.10125748"
         d="m 96.9828,17.482291 v 1.498611 c -0.03038,0.01013 -0.06076,0.02025 -0.08101,0.03038 V 17.49242 Z"
         id="path4114" />
      <path
         inkscape:connector-curvature="0"
         style="fill:#357edd;stroke-width:0.10125748"
         d="m 96.841039,18.464489 h -0.587293 v -0.344276 h 0.587293 z"
         id="path4112" />
      <path
         inkscape:connector-curvature="0"
         style="fill:#555555;stroke-width:0.10125748"
         d="m 94.785513,17.593674 c 0.01013,0.09113 0.02025,0.202515 0.02025,0.26327 0.01013,0.151886 0.01013,0.40503 0.01013,0.486036 l -0.08101,0.02025 c 0.01013,-0.283521 0.03038,-0.597419 0.05063,-0.769557 z"
         id="path4110" />
      <path
         inkscape:connector-curvature="0"
         style="fill:#357edd;stroke-width:0.10125748"
         d="m 94.582998,18.565746 c -0.02025,-0.01013 -0.06076,-0.03038 -0.06076,-0.05063 v -0.01013 c 0,-0.01013 0.02025,-0.02025 0.06076,-0.0405 l 0.172137,-0.05063 v 0 c 0.0405,-0.01013 0.07088,-0.01013 0.09113,0.01013 0.02025,0.02025 0.03038,0.05063 0.03038,0.111383 0,0.0405 -0.02025,0.07088 -0.05063,0.09113 -0.02025,0.02025 -0.05063,0.02025 -0.08101,0.01013 z"
         id="path4108" />
      <path
         inkscape:connector-curvature="0"
         style="fill:#555555;stroke-width:0.10125748"
         d="m 94.795638,19.244171 c 0,0.06075 -0.02025,0.151886 -0.03038,0.222767 -0.01013,-0.182264 -0.02025,-0.496162 -0.02025,-0.769557 l 0.07088,0.03038 c 0,0.08101 0,0.354401 -0.02025,0.516413 z"
         id="path4106" />
      <path
         inkscape:connector-curvature="0"
         style="fill:#d3d3d3;stroke-width:0.10125748"
         d="m 95.048782,19.051782 -0.01013,-0.303773 -0.182263,-0.07088 c 0,0 0,0 0,0 0.0405,-0.03038 0.07088,-0.09113 0.07088,-0.14176 0,-0.07088 -0.02025,-0.121509 -0.05063,-0.151886 l 0.465785,-0.141761 c 0,0 0.415155,-0.121509 0.779682,-0.121509 h 0.05063 v 1.235341 c -0.95182,-0.07088 -1.113832,-0.222766 -1.123958,-0.303772 z"
         id="path4104" />
      <path
         style="fill:#555555;stroke-width:0.10125748"
         d="m 96.871417,20.434906 c -0.172138,0 -0.324024,-0.14176 -0.324024,-0.324024 0,-0.182263 0.14176,-0.324024 0.324024,-0.324024 0.172137,0 0.324024,0.141761 0.324024,0.324024 0,0.182264 -0.151887,0.324024 -0.324024,0.324024 z"
         id="path4102"
         inkscape:connector-curvature="0" />
      <path
         inkscape:connector-curvature="0"
         style="fill:#d3d3d3;fill-opacity:1;stroke-width:0.10125748"
         d="m 98.481391,19.2948 c 0,0 -0.111384,0.01013 -0.253144,0.03038 0.01013,-0.01013 0.02025,-0.03038 0.02025,-0.05063 0.01013,-0.08101 -0.08101,-0.121509 -0.14176,-0.141761 -0.09113,-0.03038 -0.182264,-0.05063 -0.26327,-0.07088 v -0.526538 l 4.222443,-0.03038 v 0.435407 z"
         id="path4098" />
      <path
         inkscape:connector-curvature="0"
         style="fill:#d3d3d3;fill-opacity:1;stroke-width:0.10125748"
         d="m 102.7342,19.072033 c 0,0 0,0 0,0 l -0.3544,-0.14176 c -0.0101,0 -0.0506,-0.02025 -0.14176,-0.01013 l -0.13163,0.01013 V 18.41386 c 0.10126,0.02025 0.24302,0.0405 0.3949,0.0405 0.0911,0 0.19239,0 0.29365,-0.01013 0.0202,0 0.0304,0 0.0506,0 v 0.47591 0.162012 0 c 0,0 0,0.01013 -0.0101,0.02025 -0.0101,0 -0.0304,0.01013 -0.0506,0 z"
         id="path4096" />
      <path
         inkscape:connector-curvature="0"
         style="fill:#357edd;fill-opacity:1;stroke-width:0.10125748"
         d="m 103.38225,18.717632 -0.46578,0.151886 v -0.445532 c 0.0709,-0.01013 0.13163,-0.02025 0.17214,-0.02025 0.0506,-0.01013 0.0911,-0.02025 0.0911,-0.05063 0,-0.02025 -0.0101,-0.03038 -0.0405,-0.0405 -0.081,-0.02025 -0.15188,-0.05063 -0.22276,-0.06075 v -1.306222 c 0.0506,-0.02025 0.11138,-0.0405 0.17214,-0.02025 0.11138,0.0405 0.19239,0.192389 0.23289,0.445533 l 0.16201,0.840437 v 0 c 0,0.01013 0.10126,0.425281 -0.10126,0.506287 z"
         id="path3236" />
    </g>
    <path
       sodipodi:nodetypes="cc"
       inkscape:connector-curvature="0"
       id="path4972"
       d="M 49.04786,16.777281 43.437151,19.95483"
       style="opacity:1;vector-effect:none;fill:none;fill-opacity:1;stroke:#e7040f;stroke-width:0.35268956;stroke-linecap:round;stroke-linejoin:miter;stroke-miterlimit:4;stroke-dasharray:none;stroke-dashoffset:0;stroke-opacity:1;marker-end:url(#Arrow2Mend)" />
    <g
       style="fill:#e7040f"
       transform="matrix(0.45477858,0,0,0.45477858,-22.185504,-37.093119)"
       ns1:version="0.9.0"
       ns1:texconverter="pdflatex"
       ns1:pdfconverter="pdf2svg"
       ns1:text="$\\vec{F}$"
       ns1:preamble="/home/fdf/.config/inkscape/extensions/textext/default_packages.tex"
       ns1:scale="1.52941708383"
       ns1:alignment="middle center"
       inkscapeversion="0.92.4"
       ns1:jacobian_sqrt="0.539544"
       id="g5827">
      <g
         style="fill:#e7040f"
         id="surface1">
        <g
           style="fill:#e7040f;fill-opacity:1"
           id="g5820">
          <path
             inkscape:connector-curvature="0"
             style="fill:#e7040f;stroke:none;stroke-width:0"
             d="m 5.359375,-5.9375 c -0.140625,0.140625 -0.46875,0.421875 -0.46875,0.59375 0,0.09375 0.09375,0.203125 0.1875,0.203125 0.09375,0 0.140625,-0.078125 0.203125,-0.140625 C 5.390625,-5.421875 5.625,-5.703125 6.0625,-5.921875 6.125,-5.96875 6.234375,-6.015625 6.234375,-6.125 6.234375,-6.234375 6.15625,-6.28125 6.09375,-6.328125 5.875,-6.484375 5.765625,-6.65625 5.6875,-6.890625 5.65625,-6.984375 5.625,-7.125 5.484375,-7.125 c -0.140625,0 -0.203125,0.140625 -0.203125,0.21875 0,0.046875 0.078125,0.359375 0.234375,0.578125 H 2.15625 c -0.15625,0 -0.34375,0 -0.34375,0.203125 0,0.1875 0.1875,0.1875 0.34375,0.1875 z m 0,0"
             transform="translate(150.181,132.246)"
             id="path5818" />
        </g>
        <g
           style="fill:#e7040f;fill-opacity:1"
           id="g5824">
          <path
             inkscape:connector-curvature="0"
             style="fill:#e7040f;stroke:none;stroke-width:0"
             d="m 3.015625,-3.234375 h 0.96875 c 0.75,0 0.828125,0.15625 0.828125,0.4375 0,0.078125 0,0.1875 -0.0625,0.5 C 4.71875,-2.25 4.71875,-2.21875 4.71875,-2.1875 c 0,0.078125 0.0625,0.109375 0.109375,0.109375 0.109375,0 0.109375,-0.03125 0.15625,-0.203125 L 5.53125,-4.453125 C 5.5625,-4.5625 5.5625,-4.578125 5.5625,-4.609375 5.5625,-4.625 5.546875,-4.71875 5.4375,-4.71875 5.34375,-4.71875 5.328125,-4.671875 5.296875,-4.5 5.078125,-3.734375 4.859375,-3.546875 4,-3.546875 H 3.09375 l 0.640625,-2.53125 C 3.828125,-6.4375 3.84375,-6.46875 4.28125,-6.46875 h 1.3125 c 1.21875,0 1.453125,0.328125 1.453125,1.09375 0,0.234375 0,0.265625 -0.03125,0.546875 C 7,-4.703125 7,-4.6875 7,-4.65625 c 0,0.046875 0.03125,0.125 0.125,0.125 0.109375,0 0.109375,-0.0625 0.125,-0.25 L 7.453125,-6.515625 C 7.484375,-6.78125 7.4375,-6.78125 7.1875,-6.78125 H 2.296875 c -0.1875,0 -0.296875,0 -0.296875,0.203125 0,0.109375 0.09375,0.109375 0.28125,0.109375 0.375,0 0.65625,0 0.65625,0.171875 0,0.046875 0,0.0625 -0.0625,0.25 L 1.5625,-0.78125 c -0.09375,0.390625 -0.109375,0.46875 -0.90625,0.46875 -0.171875,0 -0.28125,0 -0.28125,0.1875 C 0.375,0 0.5,0 0.53125,0 0.8125,0 1.5625,-0.03125 1.84375,-0.03125 2.171875,-0.03125 3,0 3.328125,0 3.421875,0 3.53125,0 3.53125,-0.1875 3.53125,-0.265625 3.484375,-0.296875 3.484375,-0.296875 3.453125,-0.3125 3.421875,-0.3125 3.203125,-0.3125 c -0.21875,0 -0.265625,0 -0.515625,-0.015625 -0.296875,-0.03125 -0.328125,-0.078125 -0.328125,-0.203125 0,-0.015625 0,-0.078125 0.046875,-0.21875 z m 0,0"
             transform="translate(148.712,134.765)"
             id="path5822" />
        </g>
      </g>
    </g>
  </g>
  <text
     xml:space="preserve"
     style="font-style:normal;font-variant:normal;font-weight:normal;font-stretch:normal;font-size:6.34999943px;line-height:1.29999995;font-family:Quicksand;-inkscape-font-specification:'Quicksand, Normal';font-variant-ligatures:normal;font-variant-position:normal;font-variant-caps:normal;font-variant-numeric:normal;font-variant-alternates:normal;font-feature-settings:normal;text-indent:0;text-align:start;text-decoration:none;text-decoration-line:none;text-decoration-style:solid;text-decoration-color:#000000;letter-spacing:0px;word-spacing:0px;text-transform:none;writing-mode:lr-tb;direction:ltr;text-orientation:mixed;dominant-baseline:auto;baseline-shift:baseline;text-anchor:start;white-space:normal;shape-padding:0;opacity:1;vector-effect:none;fill:#555555;fill-opacity:1;stroke:none;stroke-width:0.71912855px;stroke-linecap:butt;stroke-linejoin:miter;stroke-miterlimit:4;stroke-dasharray:none;stroke-dashoffset:0;stroke-opacity:1"
     x="56.585964"
     y="25.922531"
     id="text5838"><tspan
       sodipodi:role="line"
       id="tspan5836"
       x="56.585964"
       y="25.922531"
       style="text-align:start;text-anchor:start;stroke-width:0.71912855px">zwaartekracht werkt <tspan
   style="fill:#ff6300"
   id="tspan5844">op afstand</tspan>,</tspan><tspan
       sodipodi:role="line"
       x="56.585964"
       y="34.177528"
       style="text-align:start;text-anchor:start;stroke-width:0.71912855px"
       id="tspan5840">het is dus een <tspan
   style="fill:#ff6300"
   id="tspan5842">veldkracht</tspan></tspan></text>
</svg>
