<?xml version="1.0" encoding="UTF-8" standalone="no"?>
<!-- Created with Inkscape (http://www.inkscape.org/) -->

<svg
   xmlns:ns1="http://www.iki.fi/pav/software/textext/"
   xmlns:dc="http://purl.org/dc/elements/1.1/"
   xmlns:cc="http://creativecommons.org/ns#"
   xmlns:rdf="http://www.w3.org/1999/02/22-rdf-syntax-ns#"
   xmlns:svg="http://www.w3.org/2000/svg"
   xmlns="http://www.w3.org/2000/svg"
   xmlns:xlink="http://www.w3.org/1999/xlink"
   xmlns:sodipodi="http://sodipodi.sourceforge.net/DTD/sodipodi-0.dtd"
   xmlns:inkscape="http://www.inkscape.org/namespaces/inkscape"
   inkscape:export-ydpi="90"
   inkscape:export-xdpi="90"
   inkscape:export-filename="/home/fdf/hugo/hoezithet/static/images/favicon.png"
   sodipodi:docname="zwaartekrachtsveld.svg"
   inkscape:version="0.92.4 (unknown)"
   id="svg4623"
   version="1.1"
   viewBox="0 0 154.2755 112.61655"
   height="425.63739"
   width="583.08856">
  <defs
     id="defs4617">
    <marker
       inkscape:stockid="Arrow2Mend"
       orient="auto"
       refY="0"
       refX="0"
       id="Arrow2Mend"
       style="overflow:visible"
       inkscape:isstock="true">
      <path
         id="path5001"
         style="fill:#e7040f;fill-opacity:1;fill-rule:evenodd;stroke:#e7040f;stroke-width:0.625;stroke-linejoin:round;stroke-opacity:1"
         d="M 8.7185878,4.0337352 -2.2072895,0.01601326 8.7185884,-4.0017078 c -1.7454984,2.3720609 -1.7354408,5.6174519 -6e-7,8.035443 z"
         transform="scale(-0.6)"
         inkscape:connector-curvature="0" />
    </marker>
    <marker
       inkscape:stockid="Arrow2Mend"
       orient="auto"
       refY="0"
       refX="0"
       id="Arrow2Mend-1"
       style="overflow:visible"
       inkscape:isstock="true">
      <path
         id="path5001-7"
         style="fill:#e7040f;fill-opacity:1;fill-rule:evenodd;stroke:#e7040f;stroke-width:0.625;stroke-linejoin:round;stroke-opacity:1"
         d="M 8.7185878,4.0337352 -2.2072895,0.01601326 8.7185884,-4.0017078 c -1.7454984,2.3720609 -1.7354408,5.6174519 -6e-7,8.035443 z"
         transform="scale(-0.6)"
         inkscape:connector-curvature="0" />
    </marker>
  </defs>
  <sodipodi:namedview
     id="base"
     pagecolor="#f4f4f4"
     bordercolor="#666666"
     borderopacity="1.0"
     inkscape:pageopacity="1"
     inkscape:pageshadow="2"
     inkscape:zoom="1.2800001"
     inkscape:cx="296.22073"
     inkscape:cy="220.91846"
     inkscape:document-units="px"
     inkscape:current-layer="svg4623"
     showgrid="false"
     units="px"
     inkscape:object-paths="true"
     inkscape:snap-smooth-nodes="true"
     inkscape:window-width="1920"
     inkscape:window-height="1055"
     inkscape:window-x="1600"
     inkscape:window-y="25"
     inkscape:window-maximized="1"
     showguides="true"
     inkscape:guide-bbox="true"
     inkscape:pagecheckerboard="false"
     inkscape:snap-global="false"
     inkscape:showpageshadow="true"
     showborder="true"
     borderlayer="false"
     inkscape:snap-object-midpoints="true"
     inkscape:snap-page="true"
     inkscape:snap-center="true"
     inkscape:snap-bbox="true"
     inkscape:snap-bbox-midpoints="true" />
  <metadata
     id="metadata4620">
    <rdf:RDF>
      <cc:Work
         rdf:about="">
        <dc:format>image/svg+xml</dc:format>
        <dc:type
           rdf:resource="http://purl.org/dc/dcmitype/StillImage" />
        <dc:title />
      </cc:Work>
    </rdf:RDF>
  </metadata>
  <g
     inkscape:label="watermark"
     inkscape:groupmode="layer"
     id="layer1"
     transform="translate(5.3589212,-183.89238)"
     sodipodi:insensitive="true">
    <g
       id="g5353"
       transform="matrix(0.89623584,0,0,0.89623584,-1.2321384,28.09939)"
       style="stroke-width:1.11577785">
      <text
         xml:space="preserve"
         style="font-style:normal;font-variant:normal;font-weight:normal;font-stretch:normal;font-size:28.01556396px;line-height:1.29999995;font-family:Quicksand;-inkscape-font-specification:'Quicksand, Normal';font-variant-ligatures:normal;font-variant-position:normal;font-variant-caps:normal;font-variant-numeric:normal;font-variant-alternates:normal;font-feature-settings:normal;text-indent:0;text-align:center;text-decoration:none;text-decoration-line:none;text-decoration-style:solid;text-decoration-color:#000000;letter-spacing:0px;word-spacing:0px;text-transform:none;writing-mode:lr-tb;direction:ltr;text-orientation:mixed;dominant-baseline:auto;baseline-shift:baseline;text-anchor:middle;white-space:normal;shape-padding:0;opacity:1;vector-effect:none;fill:#555555;fill-opacity:1;stroke:none;stroke-width:3.17272329px;stroke-linecap:butt;stroke-linejoin:miter;stroke-miterlimit:4;stroke-dasharray:none;stroke-dashoffset:0;stroke-opacity:1"
         x="44.292774"
         y="218.67326"
         id="text2653"><tspan
           sodipodi:role="line"
           id="tspan2651"
           x="44.292774"
           y="245.28806"
           style="stroke-width:3.17272329px" /></text>
      <text
         xml:space="preserve"
         style="font-style:normal;font-variant:normal;font-weight:normal;font-stretch:normal;font-size:4.72345829px;line-height:1.25;font-family:Quicksand;-inkscape-font-specification:Quicksand;text-align:end;letter-spacing:0px;word-spacing:0px;text-anchor:end;fill:#d3d3d3;fill-opacity:1;stroke:none;stroke-width:0.29521614"
         x="167.17076"
         y="298.24545"
         id="text7806"><tspan
           sodipodi:role="line"
           id="tspan7804"
           x="167.17076"
           y="298.24545"
           style="font-size:4.72345829px;text-align:end;text-anchor:end;fill:#d3d3d3;stroke-width:0.29521614">Meer op: https://hoezithet.nu</tspan></text>
    </g>
  </g>
  <g
     inkscape:groupmode="layer"
     id="layer2"
     inkscape:label="Layer 1"
     transform="translate(5.3589212,-183.89238)" />
  <g
     id="g1701"
     transform="translate(0.17890089,39.366552)">
    <g
       inkscape:tile-y0="-36.511725"
       inkscape:tile-x0="76.042778"
       inkscape:tile-h="33.583142"
       inkscape:tile-w="1.8328477"
       inkscape:tile-cy="16.941723"
       inkscape:tile-cx="76.953746"
       inkscape:transform-center-y="-36.661877"
       inkscape:transform-center-x="-0.005455296"
       id="g1535">
      <path
         inkscape:connector-curvature="0"
         d="m 76.955078,-6.2308515 h 0.002 c 0.09738,0 0.175781,0.078398 0.175781,0.1757812 v 0.4134114 c 0,0.097383 -0.0784,0.1757812 -0.175781,0.1757812 h -0.002 c -0.09738,0 -0.175781,-0.078398 -0.175781,-0.1757812 v -0.4134114 c 0,-0.097383 0.0784,-0.1757812 0.175781,-0.1757812 z m 0,-1.1474608 h 0.002 c 0.09738,0 0.175781,0.078398 0.175781,0.1757812 v 0.4134114 c 0,0.097383 -0.0784,0.1757812 -0.175781,0.1757812 h -0.002 c -0.09738,0 -0.175781,-0.078398 -0.175781,-0.1757812 v -0.4134114 c 0,-0.097383 0.0784,-0.1757812 0.175781,-0.1757812 z m 0.85567,2.0027344 a 0.06615244,0.06615244 0 0 0 -0.03928,0.013435 c -0.489127,0.3510576 -1.144365,0.3523221 -1.623155,0 a 0.06615244,0.06615244 0 0 0 -0.101285,0.076481 l 0.849558,2.31252 a 0.06615244,0.06615244 0 0 0 0.125058,0 l 0.849561,-2.31252 a 0.06615244,0.06615244 0 0 0 -0.06046,-0.089917 z m -0.85567,-3.1501952 h 0.002 c 0.09738,0 0.175781,0.078398 0.175781,0.1757812 v 0.4134114 c 0,0.097383 -0.0784,0.1757812 -0.175781,0.1757812 h -0.002 c -0.09738,0 -0.175781,-0.078398 -0.175781,-0.1757812 v -0.4134114 c 0,-0.097383 0.0784,-0.1757812 0.175781,-0.1757812 z"
         style="opacity:1;vector-effect:none;fill:#9eebcf;fill-opacity:1;stroke:none;stroke-width:0.55879992;stroke-linecap:round;stroke-linejoin:round;stroke-miterlimit:4;stroke-dasharray:1.1175999, 1.1175999;stroke-dashoffset:0;stroke-opacity:1;paint-order:fill markers stroke"
         id="use1326"
         inkscape:tile-cx="76.953746"
         inkscape:tile-cy="16.941723"
         inkscape:tile-w="1.8328477"
         inkscape:tile-h="5.5971904"
         inkscape:tile-x0="76.042778"
         inkscape:tile-y0="-8.5257731"
         inkscape:transform-center-x="-0.005455296"
         inkscape:transform-center-y="-22.668901" />
      <use
         x="0"
         y="0"
         inkscape:tiled-clone-of="#use1326"
         xlink:href="#use1326"
         transform="translate(0,-6.9964879)"
         id="use1521"
         inkscape:transform-center-x="-56.598525"
         inkscape:transform-center-y="-15.355009"
         style="fill:#f4f4f4;stroke:#f4f4f4"
         width="100%"
         height="100%" />
      <use
         x="0"
         y="0"
         inkscape:tiled-clone-of="#use1326"
         xlink:href="#use1326"
         transform="translate(0,-13.992976)"
         id="use1523"
         inkscape:transform-center-x="-56.598525"
         inkscape:transform-center-y="-20.500343"
         style="fill:#f4f4f4;stroke:#f4f4f4"
         width="100%"
         height="100%" />
      <use
         x="0"
         y="0"
         inkscape:tiled-clone-of="#use1326"
         xlink:href="#use1326"
         transform="translate(0,-20.989464)"
         id="use1525"
         inkscape:transform-center-x="-56.598525"
         inkscape:transform-center-y="-25.645677"
         style="fill:#f4f4f4;stroke:#f4f4f4"
         width="100%"
         height="100%" />
      <use
         x="0"
         y="0"
         inkscape:tiled-clone-of="#use1326"
         xlink:href="#use1326"
         transform="translate(0,-27.985952)"
         id="use1527"
         inkscape:transform-center-x="-56.598525"
         inkscape:transform-center-y="-30.791011"
         style="fill:#f4f4f4;stroke:#f4f4f4"
         width="100%"
         height="100%" />
    </g>
    <use
       height="100%"
       width="100%"
       style="fill:#f4f4f4;stroke:#f4f4f4"
       inkscape:transform-center-y="-22.954473"
       inkscape:transform-center-x="-66.015615"
       id="use1587"
       transform="rotate(15,76.953746,16.941723)"
       xlink:href="#g1535"
       inkscape:tiled-clone-of="#g1535"
       y="0"
       x="0" />
    <use
       height="100%"
       width="100%"
       style="fill:#f4f4f4;stroke:#f4f4f4"
       inkscape:transform-center-y="-19.296636"
       inkscape:transform-center-x="-74.955259"
       id="use1589"
       transform="rotate(30,76.953746,16.941723)"
       xlink:href="#g1535"
       inkscape:tiled-clone-of="#g1535"
       y="0"
       x="0" />
    <use
       height="100%"
       width="100%"
       style="fill:#f4f4f4;stroke:#f4f4f4"
       inkscape:transform-center-y="-13.478401"
       inkscape:transform-center-x="-82.536142"
       id="use1591"
       transform="rotate(45,76.953746,16.941723)"
       xlink:href="#g1535"
       inkscape:tiled-clone-of="#g1535"
       y="0"
       x="0" />
    <use
       height="100%"
       width="100%"
       style="fill:#f4f4f4;stroke:#f4f4f4"
       inkscape:transform-center-y="-5.8962947"
       inkscape:transform-center-x="-88.352781"
       id="use1593"
       transform="rotate(60,76.953746,16.941723)"
       xlink:href="#g1535"
       inkscape:tiled-clone-of="#g1535"
       y="0"
       x="0" />
    <use
       height="100%"
       width="100%"
       style="fill:#f4f4f4;stroke:#f4f4f4"
       inkscape:transform-center-y="3.0441449"
       inkscape:transform-center-x="-92.008762"
       id="use1595"
       transform="rotate(75,76.953746,16.941723)"
       xlink:href="#g1535"
       inkscape:tiled-clone-of="#g1535"
       y="0"
       x="0" />
    <use
       height="100%"
       width="100%"
       style="fill:#f4f4f4;stroke:#f4f4f4"
       inkscape:transform-center-y="12.464682"
       inkscape:transform-center-x="-93.254946"
       id="use1597"
       transform="rotate(90,76.953746,16.941723)"
       xlink:href="#g1535"
       inkscape:tiled-clone-of="#g1535"
       y="0"
       x="0" />
    <use
       height="100%"
       width="100%"
       style="fill:#f4f4f4;stroke:#f4f4f4"
       inkscape:transform-center-y="21.881771"
       inkscape:transform-center-x="-92.006768"
       id="use1599"
       transform="rotate(105,76.953746,16.941723)"
       xlink:href="#g1535"
       inkscape:tiled-clone-of="#g1535"
       y="0"
       x="0" />
    <use
       height="100%"
       width="100%"
       style="fill:#f4f4f4;stroke:#f4f4f4"
       inkscape:transform-center-y="30.821416"
       inkscape:transform-center-x="-88.348931"
       id="use1601"
       transform="rotate(120,76.953746,16.941723)"
       xlink:href="#g1535"
       inkscape:tiled-clone-of="#g1535"
       y="0"
       x="0" />
    <use
       height="100%"
       width="100%"
       style="fill:#f4f4f4;stroke:#f4f4f4"
       inkscape:transform-center-y="38.402298"
       inkscape:transform-center-x="-82.530696"
       id="use1603"
       transform="rotate(135,76.953746,16.941723)"
       xlink:href="#g1535"
       inkscape:tiled-clone-of="#g1535"
       y="0"
       x="0" />
    <use
       height="100%"
       width="100%"
       style="fill:#f4f4f4;stroke:#f4f4f4"
       inkscape:transform-center-y="44.218938"
       inkscape:transform-center-x="-74.94859"
       id="use1605"
       transform="rotate(150,76.953746,16.941723)"
       xlink:href="#g1535"
       inkscape:tiled-clone-of="#g1535"
       y="0"
       x="0" />
    <use
       height="100%"
       width="100%"
       style="fill:#f4f4f4;stroke:#f4f4f4"
       inkscape:transform-center-y="47.874918"
       inkscape:transform-center-x="-66.00815"
       id="use1607"
       transform="rotate(165,76.953746,16.941723)"
       xlink:href="#g1535"
       inkscape:tiled-clone-of="#g1535"
       y="0"
       x="0" />
    <use
       height="100%"
       width="100%"
       style="fill:#f4f4f4;stroke:#f4f4f4"
       inkscape:transform-center-y="49.121103"
       inkscape:transform-center-x="-56.587613"
       id="use1609"
       transform="rotate(180,76.953746,16.941723)"
       xlink:href="#g1535"
       inkscape:tiled-clone-of="#g1535"
       y="0"
       x="0" />
    <use
       height="100%"
       width="100%"
       style="fill:#f4f4f4;stroke:#f4f4f4"
       inkscape:transform-center-y="47.872925"
       inkscape:transform-center-x="-47.170524"
       id="use1611"
       transform="rotate(-165,76.953746,16.941723)"
       xlink:href="#g1535"
       inkscape:tiled-clone-of="#g1535"
       y="0"
       x="0" />
    <use
       height="100%"
       width="100%"
       style="fill:#f4f4f4;stroke:#f4f4f4"
       inkscape:transform-center-y="44.215088"
       inkscape:transform-center-x="-38.230879"
       id="use1613"
       transform="rotate(-150,76.953746,16.941723)"
       xlink:href="#g1535"
       inkscape:tiled-clone-of="#g1535"
       y="0"
       x="0" />
    <use
       height="100%"
       width="100%"
       style="fill:#f4f4f4;stroke:#f4f4f4"
       inkscape:transform-center-y="38.396853"
       inkscape:transform-center-x="-30.649997"
       id="use1615"
       transform="rotate(-135,76.953746,16.941723)"
       xlink:href="#g1535"
       inkscape:tiled-clone-of="#g1535"
       y="0"
       x="0" />
    <use
       height="100%"
       width="100%"
       style="fill:#f4f4f4;stroke:#f4f4f4"
       inkscape:transform-center-y="30.814746"
       inkscape:transform-center-x="-24.833357"
       id="use1617"
       transform="rotate(-120,76.953746,16.941723)"
       xlink:href="#g1535"
       inkscape:tiled-clone-of="#g1535"
       y="0"
       x="0" />
    <use
       height="100%"
       width="100%"
       style="fill:#f4f4f4;stroke:#f4f4f4"
       inkscape:transform-center-y="21.874307"
       inkscape:transform-center-x="-21.177377"
       id="use1619"
       transform="rotate(-105,76.953746,16.941723)"
       xlink:href="#g1535"
       inkscape:tiled-clone-of="#g1535"
       y="0"
       x="0" />
    <use
       height="100%"
       width="100%"
       style="fill:#f4f4f4;stroke:#f4f4f4"
       inkscape:transform-center-y="12.45377"
       inkscape:transform-center-x="-19.931192"
       id="use1621"
       transform="rotate(-90,76.953746,16.941723)"
       xlink:href="#g1535"
       inkscape:tiled-clone-of="#g1535"
       y="0"
       x="0" />
    <use
       height="100%"
       width="100%"
       style="fill:#f4f4f4;stroke:#f4f4f4"
       inkscape:transform-center-y="3.0366805"
       inkscape:transform-center-x="-21.17937"
       id="use1623"
       transform="rotate(-75,76.953746,16.941723)"
       xlink:href="#g1535"
       inkscape:tiled-clone-of="#g1535"
       y="0"
       x="0" />
    <use
       height="100%"
       width="100%"
       style="fill:#f4f4f4;stroke:#f4f4f4"
       inkscape:transform-center-y="-5.9029638"
       inkscape:transform-center-x="-24.837207"
       id="use1625"
       transform="rotate(-60,76.953746,16.941723)"
       xlink:href="#g1535"
       inkscape:tiled-clone-of="#g1535"
       y="0"
       x="0" />
    <use
       height="100%"
       width="100%"
       style="fill:#f4f4f4;stroke:#f4f4f4"
       inkscape:transform-center-y="-13.483847"
       inkscape:transform-center-x="-30.655442"
       id="use1627"
       transform="rotate(-45,76.953746,16.941723)"
       xlink:href="#g1535"
       inkscape:tiled-clone-of="#g1535"
       y="0"
       x="0" />
    <use
       height="100%"
       width="100%"
       style="fill:#f4f4f4;stroke:#f4f4f4"
       inkscape:transform-center-y="-19.300486"
       inkscape:transform-center-x="-38.237549"
       id="use1629"
       transform="rotate(-30,76.953746,16.941723)"
       xlink:href="#g1535"
       inkscape:tiled-clone-of="#g1535"
       y="0"
       x="0" />
    <use
       height="100%"
       width="100%"
       style="fill:#f4f4f4;stroke:#f4f4f4"
       inkscape:transform-center-y="-22.956466"
       inkscape:transform-center-x="-47.177988"
       id="use1631"
       transform="rotate(-15,76.953746,16.941723)"
       xlink:href="#g1535"
       inkscape:tiled-clone-of="#g1535"
       y="0"
       x="0" />
    <g
       transform="translate(53.696588,-10.152635)"
       id="g6672">
      <path
         style="color:#000000;clip-rule:nonzero;display:inline;overflow:visible;visibility:visible;opacity:1;isolation:auto;mix-blend-mode:normal;color-interpolation:sRGB;color-interpolation-filters:linearRGB;solid-color:#000000;solid-opacity:1;fill:#19a974;fill-opacity:1;fill-rule:evenodd;stroke:none;stroke-width:1.23340714;stroke-linecap:round;stroke-linejoin:miter;stroke-miterlimit:4;stroke-dasharray:none;stroke-dashoffset:0;stroke-opacity:0.39215686;color-rendering:auto;image-rendering:auto;shape-rendering:auto;text-rendering:auto;enable-background:accumulate"
         d="M 39.399014,34.742652 A 17.601741,17.601741 0 0 1 16.238478,43.865825 17.601741,17.601741 0 0 1 7.1153035,20.705295 17.601741,17.601741 0 0 1 30.275834,11.58212 a 17.601741,17.601741 0 0 1 9.12318,23.160532 z"
         id="path28077-8"
         inkscape:connector-curvature="0" />
      <path
         style="color:#000000;clip-rule:nonzero;display:inline;overflow:visible;visibility:visible;opacity:1;isolation:auto;mix-blend-mode:normal;color-interpolation:sRGB;color-interpolation-filters:linearRGB;solid-color:#000000;solid-opacity:1;fill:#ffffff;fill-opacity:1;fill-rule:evenodd;stroke:none;stroke-width:1.23340714;stroke-linecap:round;stroke-linejoin:miter;stroke-miterlimit:4;stroke-dasharray:none;stroke-dashoffset:0;stroke-opacity:0.39215686;color-rendering:auto;image-rendering:auto;shape-rendering:auto;text-rendering:auto;enable-background:accumulate"
         d="m 24.550009,10.152635 -0.231979,0.637077 1.288871,0.469609 0.40967,0.879242 -1.112392,1.052374 -0.06107,2.166981 1.054631,1.113481 0.878096,-0.409638 1.112329,-1.054635 1.288876,0.46848 1.523103,-0.17427 0.468477,-1.288874 0.878153,-0.409632 -1.052428,-1.111216 0.563557,-0.312316 a 17.80348,17.80348 0 0 0 -7.007897,-2.026663 z"
         id="path28073-0"
         inkscape:connector-curvature="0" />
      <path
         inkscape:connector-curvature="0"
         id="path27539-7-1-3-3"
         d="m 23.592884,10.120506 -0.504058,0.234118 -0.615836,-0.223681 a 17.620448,17.620448 0 0 0 -0.158047,0.006 c -0.352506,0.02957 -0.704398,0.06265 -1.055834,0.101408 a 17.620448,17.620448 0 0 0 -0.50994,0.06263 c -0.395416,0.05469 -0.790294,0.121045 -1.181052,0.216222 l 0.510014,0.184911 0.867865,-0.405607 1.910188,0.696392 0.405647,0.86788 -0.867865,0.405607 0.636756,0.231132 0.404114,0.867881 -0.867939,0.405607 -0.869318,0.405606 -0.63675,-0.232629 -0.404119,-0.86788 -0.636756,-0.232622 1.50462,-0.172985 -0.404119,-0.86788 -1.506069,0.172985 -0.231188,0.63674 -1.273506,-0.463763 -2.373939,0.578585 -0.232636,0.636747 0.405567,0.86788 0.636756,0.232622 -0.463745,1.273487 0.636756,0.23114 0.231109,-0.636747 1.737256,-0.809725 -0.404119,-0.867872 0.867864,-0.405607 1.273512,0.463762 -0.231108,0.63674 0.404113,0.86788 0.869318,-0.404118 0.173006,1.504628 1.042323,1.100502 -1.100501,1.042354 0.636756,0.231132 0.173011,1.506117 -1.042403,-1.10051 -0.636756,-0.232629 0.869392,-0.40411 0.231189,-0.636748 -0.867945,0.404118 -1.273432,-0.463762 -0.869392,0.405607 0.636756,0.231133 0.405567,0.869369 -2.142824,-0.05816 -0.636756,-0.232629 -0.231108,0.636747 -1.506149,0.172977 -1.098973,1.042355 -1.737256,0.809717 0.172931,1.506116 -0.869318,0.404118 -0.404114,-0.86788 -0.405648,-0.869369 -1.2735114,-0.462273 -1.1005009,1.040857 -0.4637449,1.273487 0.4056416,0.869369 0.8693179,-0.405606 1.5046207,-0.172978 -0.867865,0.40411 -0.4637447,1.273487 0.6367507,0.232629 -0.2326369,0.63674 0.1730109,1.504628 0.636676,0.232622 0.869392,-0.405607 1.504621,-0.172978 0.405647,0.869369 1.910188,0.694903 0.809761,1.737249 1.273432,0.463762 0.811214,1.735761 1.677631,1.333131 1.042324,1.10051 0.173005,1.504619 -1.506148,0.172986 -0.694854,1.910226 -1.50462,0.172977 -0.636756,-0.231132 -0.463745,1.273487 -1.737257,0.809717 -0.231114,0.636749 -0.869387,0.405607 0.143153,0.305692 a 17.620448,17.620448 0 0 0 1.003538,0.61587 c 0.02169,0.01179 0.04395,0.0226 0.06566,0.03428 a 17.620448,17.620448 0 0 0 1.509044,0.729198 c 0.04194,0.01774 0.08475,0.0333 0.126821,0.0507 a 17.620448,17.620448 0 0 0 1.270456,0.462274 c 0.153081,0.05047 0.305932,0.103068 0.459316,0.149126 a 17.620448,17.620448 0 0 0 3.207596,0.645689 c 0.05167,0.0057 0.103303,0.0099 0.155066,0.01488 a 17.620448,17.620448 0 0 0 1.674576,0.08352 17.620448,17.620448 0 0 0 1.246634,-0.04326 17.620448,17.620448 0 0 0 1.619448,-0.196838 c 0.147204,-0.02512 0.292187,-0.05754 0.438476,-0.08649 a 17.620448,17.620448 0 0 0 0.539793,-0.120784 l 0.202783,-0.556222 1.969894,-1.446465 0.231108,-0.636739 1.100501,-1.042357 0.636756,0.23263 0.694934,-1.910227 -0.40412,-0.869377 1.098979,-1.040857 -0.40412,-0.869369 -1.506068,0.172977 -1.273512,-0.462266 -1.040875,-1.100509 -0.172931,-1.506116 -0.405642,-0.86788 0.231109,-0.63674 0.869392,-0.405607 0.463745,-1.273487 1.33169,-1.679094 0.636756,0.232629 1.1005,-1.042354 0.867865,-0.40411 0.232636,-0.636747 -1.273511,-0.463762 0.46375,-1.273487 0.867939,-0.405607 1.273437,0.463762 0.231183,-0.63674 -0.404119,-0.86788 -0.405642,-0.869369 0.636756,0.23263 -0.404119,-0.869369 0.231108,-0.636748 -0.636756,-0.231133 -0.231108,0.63674 -0.636756,-0.232629 0.462297,-1.27348 0.638204,0.232622 -0.405568,-0.869369 0.636756,0.23263 0.809687,1.73576 -0.463745,1.274976 1.100501,-1.042355 0.636756,0.231141 0.463745,-1.273487 -0.636756,-0.231141 -0.172931,-1.506109 0.867865,-0.404117 -0.173006,-1.506117 0.347464,-0.368325 a 17.620448,17.620448 0 0 0 -0.161023,-0.223681 c -0.08742,-0.116678 -0.174991,-0.232988 -0.265464,-0.347444 a 17.620448,17.620448 0 0 0 -5.419058,-4.475097 l -0.578578,0.319118 1.04087,1.099013 -0.867865,0.405607 -0.463745,1.273487 -1.506148,0.172978 -1.273506,-0.463763 -1.100507,1.042347 -0.867864,0.405607 -1.042323,-1.100502 0.05963,-2.142856 1.100501,-1.040858 -0.405567,-0.869376 -1.273512,-0.463762 0.231108,-0.63674 c -0.105128,-0.01607 -0.211258,-0.0198 -0.317611,-0.02684 a 17.620448,17.620448 0 0 0 -0.682945,-0.0343 z m 9.737539,17.664773 1.273512,0.463763 0.869312,-0.405608 1.273512,0.463763 0.173005,1.50462 0.405573,0.869376 0.63675,0.231133 0.86787,-0.404117 0.405642,0.867879 0.636756,0.231141 -0.173011,-1.504628 -0.63675,-0.231132 -0.174459,-1.506117 -1.100506,1.042355 -0.404114,-0.86937 0.867864,-0.404118 -1.446442,-1.969878 -0.636756,-0.231133 -0.636756,-0.232629 0.405647,0.869369 -0.636756,-0.23263 -0.463825,1.274984 -0.636676,-0.23263 z m -2.891432,-11.869967 0.636756,0.232629 1.274959,0.462274 0.40412,0.869369 -1.50462,0.172977 -0.405648,-0.86788 z m 7.409797,3.417839 0.17293,1.506109 0.636756,0.231141 -0.173011,-1.504628 z m 0.809686,1.73725 -0.462297,1.273486 -0.869318,0.4056 0.636756,0.23114 0.869318,-0.404118 0.231183,-0.636739 z M 6.8258398,21.414867 a 17.620448,17.620448 0 0 0 -0.2640169,0.723228 c -0.075659,0.22633 -0.1501794,0.452646 -0.2162194,0.679992 a 17.620448,17.620448 0 0 0 -0.2430222,0.954369 c -0.047895,0.207976 -0.1016951,0.414975 -0.1417048,0.623325 a 17.620448,17.620448 0 0 0 -0.1804098,1.201901 c -0.01648,0.136597 -0.043431,0.273545 -0.05665,0.410081 a 17.620448,17.620448 0 0 0 -0.0075,0.135704 17.620448,17.620448 0 0 0 -0.068563,1.386813 c -0.00732,0.820635 0.049325,1.634688 0.1550661,2.439611 a 17.620448,17.620448 0 0 0 0.046293,0.380251 c 0.059322,0.386764 0.1345234,0.768992 0.2191949,1.149717 a 17.620448,17.620448 0 0 0 0.065588,0.289296 c 0.099177,0.413425 0.2087404,0.824483 0.3370037,1.228746 a 17.620448,17.620448 0 0 0 0.019398,0.05667 c 0.5663613,1.7642 1.4058264,3.431353 2.4873181,4.934385 a 17.620448,17.620448 0 0 0 0.035821,0.0507 c 0.2702026,0.372754 0.5549111,0.735903 0.8544287,1.087088 0.9158108,1.073779 1.9664598,2.043174 3.1375098,2.87503 L 12.4268,39.647788 12.311973,36.000305 11.271097,34.899803 10.055763,32.293177 9.8828325,30.788557 10.983339,29.746211 11.447084,28.472724 10.577692,28.878331 9.5353685,27.777821 9.3623575,26.273201 8.7256073,26.040572 8.3214878,25.172691 7.6848063,24.94007 6.8735173,23.202821 7.1061537,22.566073 6.8258742,21.414868 Z m 4.7374912,2.773633 0.636756,0.232629 1.042323,1.100502 -0.636682,-0.232622 z m 0.173005,1.506116 0.636756,0.231132 -0.867865,0.405608 z m 2.142824,0.05815 0.636756,0.231133 -0.232637,0.636747 -1.273431,-0.462273 z m 26.342112,0.933495 -0.463745,1.27348 0.636676,0.232629 0.44588,0.16254 c 0.0052,-0.195691 0.02861,-0.440811 0.03731,-0.645688 a 17.620448,17.620448 0 0 0 -0.0029,-0.06263 l -0.249048,-0.09096 -0.404119,-0.869369 z"
         style="color:#000000;clip-rule:nonzero;display:inline;overflow:visible;visibility:visible;opacity:1;isolation:auto;mix-blend-mode:normal;color-interpolation:sRGB;color-interpolation-filters:linearRGB;solid-color:#000000;solid-opacity:1;fill:#357edd;fill-opacity:1;fill-rule:evenodd;stroke:none;stroke-width:1.23340714;stroke-linecap:round;stroke-linejoin:miter;stroke-miterlimit:4;stroke-dasharray:none;stroke-dashoffset:0;stroke-opacity:0.39215686;color-rendering:auto;image-rendering:auto;shape-rendering:auto;text-rendering:auto;enable-background:accumulate" />
      <g
         style="stroke-width:0.32329977"
         id="g1097-3-8"
         transform="matrix(4.6487085,0,0,4.6487085,-289.22067,-1068.9241)">
        <path
           id="path1252-4-9-6-1-6"
           style="opacity:0.8;fill:none;fill-opacity:1;stroke:none;stroke-width:0.13697259;stroke-linecap:round;stroke-linejoin:round;stroke-miterlimit:4;stroke-dasharray:none;stroke-dashoffset:0;stroke-opacity:1;paint-order:markers stroke fill"
           sodipodi:type="arc"
           sodipodi:cx="-67.219299"
           sodipodi:cy="235.90559"
           sodipodi:rx="3.7885458"
           sodipodi:ry="3.7885458"
           sodipodi:start="4.712389"
           sodipodi:end="1.5707963"
           d="m -67.219299,232.11705 a 3.7885458,3.7885458 0 0 1 3.788546,3.78854 3.7885458,3.7885458 0 0 1 -3.788546,3.78855 l 0,-3.78855 z"
           transform="scale(-1,1)" />
      </g>
      <g
         id="g4966"
         transform="rotate(60,76.628192,-27.632766)">
        <g
           style="fill:#000000;stroke:none;stroke-width:1.71637249"
           id="g1348-2-1-2"
           transform="matrix(-0.01719964,0,0,0.01719964,99.024222,16.805203)">
          <circle
             style="color:#000000;clip-rule:nonzero;display:inline;overflow:visible;visibility:visible;opacity:1;isolation:auto;mix-blend-mode:normal;color-interpolation:sRGB;color-interpolation-filters:linearRGB;solid-color:#000000;solid-opacity:1;fill:#000000;fill-opacity:1;fill-rule:evenodd;stroke:none;stroke-width:42.90930557;stroke-linecap:square;stroke-linejoin:round;stroke-miterlimit:4;stroke-dasharray:none;stroke-dashoffset:0;stroke-opacity:1;color-rendering:auto;image-rendering:auto;shape-rendering:auto;text-rendering:auto;enable-background:accumulate"
             id="path1114-1-7-9"
             cx="86.092468"
             cy="52.248337"
             r="10" />
          <path
             sodipodi:nodetypes="csccccccccsccsccccccscccccccccccccssccssscssscsccccc"
             inkscape:connector-curvature="0"
             id="rect1116-7-9-0"
             transform="matrix(-0.26458333,0,0,0.26458333,496.676,-170.90929)"
             d="m 1593.1523,880.55273 c -20.9385,0 -37.7949,16.85635 -37.7949,37.79493 v 34.34179 h 32.8711 v -36.03906 c -0.017,-1.06732 0.8526,-1.93697 1.9199,-1.91992 1.0436,0.0167 1.8761,0.8763 1.8594,1.91992 v 37.92773 c 4e-4,1.04357 -0.8451,1.88994 -1.8887,1.89063 h -34.7617 -14.9629 c -2.3637,0 -4.6088,0.47231 -6.6465,1.32813 -1.0188,0.4279 -1.9864,0.95179 -2.8906,1.56054 -0.4521,0.30438 -0.8873,0.62916 -1.3066,0.97461 -0.4193,0.34545 -0.8213,0.71194 -1.2051,1.0957 -0.3834,0.38346 -0.7506,0.78419 -1.0957,1.20313 -3e-4,3.7e-4 3e-4,0.002 0,0.002 -1.3813,1.677 -2.4453,3.62648 -3.1035,5.76172 -2e-4,5.9e-4 2e-4,10e-4 0,0.002 -0.3289,1.06734 -0.5567,2.18134 -0.6719,3.33008 -0.058,0.5747 -0.088,1.15907 -0.088,1.75 0,0.59094 0.03,1.1733 0.088,1.74805 10e-5,6.4e-4 -10e-5,0.001 0,0.002 0.1153,1.14882 0.3429,2.26252 0.6719,3.33008 2e-4,6e-4 -2e-4,10e-4 0,0.002 0.1645,0.53347 0.3546,1.05542 0.5683,1.56446 3e-4,5.6e-4 -2e-4,10e-4 0,0.002 0.2138,0.50902 0.4527,1.0045 0.7129,1.48633 3e-4,5.1e-4 -2e-4,10e-4 0,0.002 1.0421,1.92877 2.4462,3.62937 4.1231,5.01172 0.8386,0.69135 1.7447,1.30273 2.709,1.82422 1.4464,0.78223 3.0223,1.36143 4.6894,1.69922 1.1114,0.22519 2.2635,0.34375 3.4453,0.34375 0,0 80.1268,0.0293 90.5528,0.0293 v -72.17382 c 0,-20.93858 -16.8564,-37.79493 -37.795,-37.79493 z m -89.6777,113.74995 c -5.0365,0.46052 -9.4801,2.60538 -12.584,6.22072 l -79.1426,79.1426 c -7.4029,7.4029 -7.4029,19.3217 0,26.7246 7.4029,7.4029 19.3237,7.4029 26.7266,0 l 47.8574,-47.8574 v 67.6875 c 0,10.4693 8.4292,18.8984 18.8985,18.8984 10.4693,0 18.8984,-8.4291 18.8984,-18.8984 v -94.4883 h 69.2126 v 0 c 20.7285,-0.1013 37.4017,-16.7241 37.5957,-37.42972 -10.4472,-10e-6 -127.367,-0.009 -127.4629,0 z"
             style="color:#000000;clip-rule:nonzero;display:inline;overflow:visible;visibility:visible;opacity:1;isolation:auto;mix-blend-mode:normal;color-interpolation:sRGB;color-interpolation-filters:linearRGB;solid-color:#000000;solid-opacity:1;fill:#000000;fill-opacity:1;fill-rule:evenodd;stroke:none;stroke-width:162.17694092;stroke-linecap:square;stroke-linejoin:round;stroke-miterlimit:4;stroke-dasharray:none;stroke-dashoffset:0;stroke-opacity:1;color-rendering:auto;image-rendering:auto;shape-rendering:auto;text-rendering:auto;enable-background:accumulate" />
        </g>
        <path
           transform="scale(0.26458331)"
           id="path4142"
           d="m 389.44531,63.693359 c -0.5944,-0.02144 -1.13029,0.511435 -1.19726,0.544922 l -5.05078,4.515625 -8.03711,-0.574218 c -0.42098,-0.03829 -0.65081,0.268792 -0.76563,0.421874 l -3.13867,-0.115234 0.0391,-0.154297 c 0.0765,-0.229644 0.11405,-0.458617 -0.0391,-0.535156 -0.11482,-0.07654 -0.26722,0.03792 -0.34375,0.07617 l -0.80469,0.613281 h -0.41992 v -2.296875 h 0.76562 0.49805 c 0.30618,0 0.45862,-0.03756 0.53516,-0.152344 0.0383,-0.03829 0.0371,-0.07695 0.0371,-0.115234 0,-0.07654 10e-4,-0.15312 -0.0371,-0.191406 -0.15307,-0.229607 -0.61175,-0.306641 -0.72656,-0.306641 L 367.12305,64.8125 c -0.19136,0 -0.34496,-0.03906 -0.49805,-0.03906 -1.3012,0 -1.33868,0.61291 -1.37695,0.689453 0,0.153071 0.0387,0.267214 0.11523,0.34375 0.19136,0.229644 0.57385,0.230468 0.65039,0.230468 v 2.21875 h -2.64062 c -1.41601,0 -3.02344,0.458985 -3.02344,0.458985 l -1.68359,0.498047 c 0,-0.344429 -7.8e-4,-1.22398 -0.0391,-1.759766 -0.0383,-0.459247 -0.11409,-1.263357 -0.15234,-1.53125 -0.0383,-0.153071 -0.11605,-0.152344 -0.1543,-0.152344 -0.11482,0 -0.18984,0.03829 -0.30469,1.416016 -0.0765,0.765411 -0.11523,1.607212 -0.11523,2.257812 l -0.45898,0.152344 c -0.22965,0.07654 -0.34454,0.152756 -0.38282,0.267578 -0.0765,0.03829 -0.0762,0.115235 -0.0762,0.115235 0,0.267893 0.34338,0.382812 0.41992,0.382812 l 0.45899,0.191406 c 0,0.72714 0.0391,1.606845 0.0391,2.333985 0.0765,1.454283 0.11373,1.45392 0.22852,1.492187 0.0383,0 0.11604,-0.03756 0.15429,-0.152344 0.0765,-0.267892 0.19023,-1.07237 0.22852,-1.455078 0.0383,-0.535786 0.0379,-1.492292 0.0762,-1.875 l 0.38281,0.154297 0.0391,0.994141 c 0.0765,0.688868 1.60748,1.147328 4.63085,1.376953 l 1.41602,1.607422 c -0.22964,0.267893 -0.38281,0.612595 -0.38281,0.957031 0,0.803679 0.65139,1.455078 1.45508,1.455078 0.80368,0 1.45312,-0.651399 1.45312,-1.455078 0,-0.306179 -0.11451,-0.612172 -0.26758,-0.841797 l 2.29688,-1.683593 c 0.34443,-0.03829 0.72704,-0.07617 1.0332,-0.07617 h 0.0371 c 0.84195,-0.07654 1.57031,-0.154297 1.57031,-0.154297 l 14.19727,-1.492188 c 0.30614,-0.03829 0.42187,0 0.42187,0 l 1.37696,0.53711 c 0.0382,0.03829 0.0771,0.03711 0.11523,0.03711 l 1.30078,0.498047 h 0.0391 c 0.0382,0 0.0767,-0.03792 0.11524,-0.07617 0.0382,-0.07654 -10e-4,-0.116048 -0.0781,-0.154297 l -0.8789,-0.34375 c 0.0767,-0.07654 0.0762,-0.192182 0.0762,-0.230469 V 71.47071 l 1.875,-0.611328 c 0.95679,-0.267893 0.57344,-1.951596 0.53516,-2.066406 l -0.61133,-3.177735 c -0.15307,-1.071575 -0.53569,-1.721917 -1.03321,-1.875 -0.0861,-0.0287 -0.17289,-0.04381 -0.25781,-0.04687 z m -22.70508,2.38086 2.25782,0.03906 v 2.257813 h -0.0762 l -1.26368,-0.03906 0.0781,-0.267578 c 0.0765,-0.229644 0.11404,-0.458613 -0.0391,-0.535156 -0.11483,-0.07654 -0.26722,0.03792 -0.34375,0.07617 l -0.61329,0.458984 z m -2.75585,7.347656 c 0.72713,0.03829 1.41696,0.07813 2.02929,0.07813 v 1.033203 c -0.30618,0.03829 -0.57427,0.151579 -0.76562,0.304688 z m 5.20507,0.03906 -2.02734,1.492187 c -0.2297,-0.229625 -0.53643,-0.38165 -0.88086,-0.419922 V 73.5 h 1.30078 0.53711 c 0.26789,0 0.64933,-0.03906 1.07031,-0.03906 z"
           style="fill:#f4f4f4;stroke-width:0.38270548"
           inkscape:connector-curvature="0" />
        <path
           id="path4140"
           d="m 102.76458,17.046884 c 0,0 0.0304,-0.03038 0.0911,-0.07088 v 1.255592 c -0.60754,-0.14176 -0.86068,-0.01012 -0.91131,0.02025 l -0.46579,-0.05063 z"
           style="fill:#d3d3d3;fill-opacity:1;stroke-width:0.10125748"
           inkscape:connector-curvature="0" />
        <path
           id="path4138"
           d="m 102.79498,18.383483 c -0.28352,0.03038 -0.53667,0.01013 -0.69868,-0.03038 -0.0506,-0.01012 -0.081,-0.03038 -0.11138,-0.05063 0.081,-0.0405 0.3949,-0.141761 1.0632,0.05063 -0.0405,0 -0.12151,0.02025 -0.25314,0.03038 z"
           style="fill:#d3d3d3;fill-opacity:1;stroke-width:0.10125748"
           inkscape:connector-curvature="0" />
        <path
           id="path4136"
           d="m 98.19789,17.998704 v 0 c 0,0 0.01013,0 0,0 0.01013,0 0,0.02025 -0.01013,0.06076 l -0.02025,0.06076 h -0.131635 z"
           style="fill:#cdecff;stroke-width:0.10125748"
           inkscape:connector-curvature="0" />
        <path
           id="path4134"
           d="m 99.088956,18.211345 h 0.02025 l 0.01013,-0.02025 c 0,0 0.05063,-0.111383 0.14176,-0.09113 l 2.126404,0.151886 0.51641,0.06075 0.0101,0.01013 c 0.0405,0.03038 0.081,0.06076 0.14176,0.08101 v 0.05063 l -4.222434,0.03038 v -0.313898 z"
           style="fill:#357edd;stroke-width:0.10125748"
           inkscape:connector-curvature="0" />
        <path
           id="path4132"
           d="m 98.056129,19.345429 c -0.232892,0.02025 -0.516413,0.05063 -0.678425,0.05063 0,0 -0.151886,0 -0.374653,0 v 0 c 0,0 -0.09113,0 -0.151886,-0.05063 -0.03038,-0.03038 -0.05063,-0.07088 -0.05063,-0.131635 0,-0.0405 0.01013,-0.08101 0.05063,-0.101258 0.07088,-0.06075 0.212641,-0.09113 0.384779,-0.08101 0,0 0.455658,0.05063 0.850563,0.172138 v 0 c 0,0 0.09113,0.02025 0.09113,0.07088 0,0.0405 -0.07088,0.06076 -0.12151,0.07088 z"
           style="fill:#357edd;fill-opacity:1;stroke-width:0.10125748"
           inkscape:connector-curvature="0" />
        <path
           id="path4128"
           d="m 96.841039,19.041656 c -0.01013,0.01013 -0.02025,0.01013 -0.03038,0.02025 -0.0405,0.0405 -0.07088,0.09113 -0.07088,0.151886 0,0.07088 0.02025,0.131635 0.07088,0.172138 0,0 0,0 0,0 -0.172137,0 -0.364526,-0.01013 -0.567041,-0.03038 v -0.830312 h 0.587293 v 0.516413 z"
           style="fill:#d3d3d3;stroke-width:0.10125748"
           inkscape:connector-curvature="0" />
        <path
           id="path4124"
           d="m 97.235944,17.988578 -0.02025,0.08101 -0.14176,-0.01012 0.172137,-0.141761 c 0,0 0,0 0.01013,-0.01013 -0.01013,0.03038 -0.01013,0.05063 -0.02025,0.08101 z"
           style="fill:#cdecff;stroke-width:0.10125748"
           inkscape:connector-curvature="0" />
        <path
           id="path4122"
           d="m 97.043554,18.130339 0.567042,0.02025 h 0.02025 v 0.313898 h -0.587293 z"
           style="fill:#357edd;stroke-width:0.10125748"
           inkscape:connector-curvature="0" />
        <path
           id="path4120"
           d="m 97.043554,18.535369 h 0.587294 v 0.486036 c -0.222767,-0.0405 -0.384779,-0.06076 -0.384779,-0.06076 -0.07088,-0.01013 -0.14176,-0.01013 -0.192389,0 v -0.425281 z"
           style="fill:#d3d3d3;fill-opacity:1;stroke-width:0.10125748"
           inkscape:connector-curvature="0" />
        <path
           id="path4118"
           d="m 97.772608,19.051782 c -0.03038,-0.01013 -0.05063,-0.01013 -0.08101,-0.02025 v -1.539113 h 0.08101 z"
           style="fill:#d3d3d3;fill-opacity:1;stroke-width:0.10125748"
           inkscape:connector-curvature="0" />
        <path
           id="path4116"
           d="m 96.709405,17.381033 c -0.01013,-0.01012 -0.02025,-0.03038 -0.01013,-0.05063 v 0 c 0,0 0.01013,-0.121509 0.293646,-0.121509 0.0405,0 0.08101,0 0.131635,0.01013 l 0.982198,0.151886 c 0.05063,0.01013 0.131635,0.03038 0.14176,0.06075 0,0 0,0.01013 0,0.01013 v 0 c -0.01013,0 -0.03038,0.01013 -0.09113,0.01013 h -0.131635 l -1.194838,-0.02025 c -0.02025,-0.01013 -0.09113,-0.02025 -0.121509,-0.05063 z"
           style="fill:#357edd;fill-opacity:1;stroke-width:0.10125748"
           inkscape:connector-curvature="0" />
        <path
           id="path4114"
           d="m 96.9828,17.482291 v 1.498611 c -0.03038,0.01013 -0.06076,0.02025 -0.08101,0.03038 V 17.49242 Z"
           style="fill:#d3d3d3;fill-opacity:1;stroke-width:0.10125748"
           inkscape:connector-curvature="0" />
        <path
           id="path4112"
           d="m 96.841039,18.464489 h -0.587293 v -0.344276 h 0.587293 z"
           style="fill:#357edd;stroke-width:0.10125748"
           inkscape:connector-curvature="0" />
        <path
           id="path4110"
           d="m 94.785513,17.593674 c 0.01013,0.09113 0.02025,0.202515 0.02025,0.26327 0.01013,0.151886 0.01013,0.40503 0.01013,0.486036 l -0.08101,0.02025 c 0.01013,-0.283521 0.03038,-0.597419 0.05063,-0.769557 z"
           style="fill:#555555;stroke-width:0.10125748"
           inkscape:connector-curvature="0" />
        <path
           id="path4108"
           d="m 94.582998,18.565746 c -0.02025,-0.01013 -0.06076,-0.03038 -0.06076,-0.05063 v -0.01013 c 0,-0.01013 0.02025,-0.02025 0.06076,-0.0405 l 0.172137,-0.05063 v 0 c 0.0405,-0.01013 0.07088,-0.01013 0.09113,0.01013 0.02025,0.02025 0.03038,0.05063 0.03038,0.111383 0,0.0405 -0.02025,0.07088 -0.05063,0.09113 -0.02025,0.02025 -0.05063,0.02025 -0.08101,0.01013 z"
           style="fill:#357edd;stroke-width:0.10125748"
           inkscape:connector-curvature="0" />
        <path
           id="path4106"
           d="m 94.795638,19.244171 c 0,0.06075 -0.02025,0.151886 -0.03038,0.222767 -0.01013,-0.182264 -0.02025,-0.496162 -0.02025,-0.769557 l 0.07088,0.03038 c 0,0.08101 0,0.354401 -0.02025,0.516413 z"
           style="fill:#555555;stroke-width:0.10125748"
           inkscape:connector-curvature="0" />
        <path
           id="path4104"
           d="m 95.048782,19.051782 -0.01013,-0.303773 -0.182263,-0.07088 c 0,0 0,0 0,0 0.0405,-0.03038 0.07088,-0.09113 0.07088,-0.14176 0,-0.07088 -0.02025,-0.121509 -0.05063,-0.151886 l 0.465785,-0.141761 c 0,0 0.415155,-0.121509 0.779682,-0.121509 h 0.05063 v 1.235341 c -0.95182,-0.07088 -1.113832,-0.222766 -1.123958,-0.303772 z"
           style="fill:#d3d3d3;stroke-width:0.10125748"
           inkscape:connector-curvature="0" />
        <path
           inkscape:connector-curvature="0"
           id="path4102"
           d="m 96.871417,20.434906 c -0.172138,0 -0.324024,-0.14176 -0.324024,-0.324024 0,-0.182263 0.14176,-0.324024 0.324024,-0.324024 0.172137,0 0.324024,0.141761 0.324024,0.324024 0,0.182264 -0.151887,0.324024 -0.324024,0.324024 z"
           style="fill:#555555;stroke-width:0.10125748" />
        <path
           id="path4098"
           d="m 98.481391,19.2948 c 0,0 -0.111384,0.01013 -0.253144,0.03038 0.01013,-0.01013 0.02025,-0.03038 0.02025,-0.05063 0.01013,-0.08101 -0.08101,-0.121509 -0.14176,-0.141761 -0.09113,-0.03038 -0.182264,-0.05063 -0.26327,-0.07088 v -0.526538 l 4.222443,-0.03038 v 0.435407 z"
           style="fill:#d3d3d3;fill-opacity:1;stroke-width:0.10125748"
           inkscape:connector-curvature="0" />
        <path
           id="path4096"
           d="m 102.7342,19.072033 c 0,0 0,0 0,0 l -0.3544,-0.14176 c -0.0101,0 -0.0506,-0.02025 -0.14176,-0.01013 l -0.13163,0.01013 V 18.41386 c 0.10126,0.02025 0.24302,0.0405 0.3949,0.0405 0.0911,0 0.19239,0 0.29365,-0.01013 0.0202,0 0.0304,0 0.0506,0 v 0.47591 0.162012 0 c 0,0 0,0.01013 -0.0101,0.02025 -0.0101,0 -0.0304,0.01013 -0.0506,0 z"
           style="fill:#d3d3d3;fill-opacity:1;stroke-width:0.10125748"
           inkscape:connector-curvature="0" />
        <path
           id="path3236"
           d="m 103.38225,18.717632 -0.46578,0.151886 v -0.445532 c 0.0709,-0.01013 0.13163,-0.02025 0.17214,-0.02025 0.0506,-0.01013 0.0911,-0.02025 0.0911,-0.05063 0,-0.02025 -0.0101,-0.03038 -0.0405,-0.0405 -0.081,-0.02025 -0.15188,-0.05063 -0.22276,-0.06075 v -1.306222 c 0.0506,-0.02025 0.11138,-0.0405 0.17214,-0.02025 0.11138,0.0405 0.19239,0.192389 0.23289,0.445533 l 0.16201,0.840437 v 0 c 0,0.01013 0.10126,0.425281 -0.10126,0.506287 z"
           style="fill:#357edd;fill-opacity:1;stroke-width:0.10125748"
           inkscape:connector-curvature="0" />
      </g>
      <path
         style="opacity:1;vector-effect:none;fill:none;fill-opacity:1;stroke:#e7040f;stroke-width:0.35268956;stroke-linecap:round;stroke-linejoin:miter;stroke-miterlimit:4;stroke-dasharray:none;stroke-dashoffset:0;stroke-opacity:1;marker-end:url(#Arrow2Mend)"
         d="m 46.557004,13.683036 -5.610709,3.177549"
         id="path4972"
         inkscape:connector-curvature="0"
         sodipodi:nodetypes="cc" />
      <g
         id="g5827"
         ns1:jacobian_sqrt="0.539544"
         inkscapeversion="0.92.4"
         ns1:alignment="middle center"
         ns1:scale="1.52941708383"
         ns1:preamble="/home/fdf/.config/inkscape/extensions/textext/default_packages.tex"
         ns1:text="$\\vec{F}$"
         ns1:pdfconverter="pdf2svg"
         ns1:texconverter="pdflatex"
         ns1:version="0.9.0"
         transform="matrix(0.45477858,0,0,0.45477858,-24.641497,-41.604218)"
         style="fill:#e7040f">
        <g
           id="surface1"
           style="fill:#e7040f">
          <g
             id="g5820"
             style="fill:#e7040f;fill-opacity:1">
            <path
               id="path5818"
               transform="translate(150.181,132.246)"
               d="m 5.359375,-5.9375 c -0.140625,0.140625 -0.46875,0.421875 -0.46875,0.59375 0,0.09375 0.09375,0.203125 0.1875,0.203125 0.09375,0 0.140625,-0.078125 0.203125,-0.140625 C 5.390625,-5.421875 5.625,-5.703125 6.0625,-5.921875 6.125,-5.96875 6.234375,-6.015625 6.234375,-6.125 6.234375,-6.234375 6.15625,-6.28125 6.09375,-6.328125 5.875,-6.484375 5.765625,-6.65625 5.6875,-6.890625 5.65625,-6.984375 5.625,-7.125 5.484375,-7.125 c -0.140625,0 -0.203125,0.140625 -0.203125,0.21875 0,0.046875 0.078125,0.359375 0.234375,0.578125 H 2.15625 c -0.15625,0 -0.34375,0 -0.34375,0.203125 0,0.1875 0.1875,0.1875 0.34375,0.1875 z m 0,0"
               style="fill:#e7040f;stroke:none;stroke-width:0"
               inkscape:connector-curvature="0" />
          </g>
          <g
             id="g5824"
             style="fill:#e7040f;fill-opacity:1">
            <path
               id="path5822"
               transform="translate(148.712,134.765)"
               d="m 3.015625,-3.234375 h 0.96875 c 0.75,0 0.828125,0.15625 0.828125,0.4375 0,0.078125 0,0.1875 -0.0625,0.5 C 4.71875,-2.25 4.71875,-2.21875 4.71875,-2.1875 c 0,0.078125 0.0625,0.109375 0.109375,0.109375 0.109375,0 0.109375,-0.03125 0.15625,-0.203125 L 5.53125,-4.453125 C 5.5625,-4.5625 5.5625,-4.578125 5.5625,-4.609375 5.5625,-4.625 5.546875,-4.71875 5.4375,-4.71875 5.34375,-4.71875 5.328125,-4.671875 5.296875,-4.5 5.078125,-3.734375 4.859375,-3.546875 4,-3.546875 H 3.09375 l 0.640625,-2.53125 C 3.828125,-6.4375 3.84375,-6.46875 4.28125,-6.46875 h 1.3125 c 1.21875,0 1.453125,0.328125 1.453125,1.09375 0,0.234375 0,0.265625 -0.03125,0.546875 C 7,-4.703125 7,-4.6875 7,-4.65625 c 0,0.046875 0.03125,0.125 0.125,0.125 0.109375,0 0.109375,-0.0625 0.125,-0.25 L 7.453125,-6.515625 C 7.484375,-6.78125 7.4375,-6.78125 7.1875,-6.78125 H 2.296875 c -0.1875,0 -0.296875,0 -0.296875,0.203125 0,0.109375 0.09375,0.109375 0.28125,0.109375 0.375,0 0.65625,0 0.65625,0.171875 0,0.046875 0,0.0625 -0.0625,0.25 L 1.5625,-0.78125 c -0.09375,0.390625 -0.109375,0.46875 -0.90625,0.46875 -0.171875,0 -0.28125,0 -0.28125,0.1875 C 0.375,0 0.5,0 0.53125,0 0.8125,0 1.5625,-0.03125 1.84375,-0.03125 2.171875,-0.03125 3,0 3.328125,0 3.421875,0 3.53125,0 3.53125,-0.1875 3.53125,-0.265625 3.484375,-0.296875 3.484375,-0.296875 3.453125,-0.3125 3.421875,-0.3125 3.203125,-0.3125 c -0.21875,0 -0.265625,0 -0.515625,-0.015625 -0.296875,-0.03125 -0.328125,-0.078125 -0.328125,-0.203125 0,-0.015625 0,-0.078125 0.046875,-0.21875 z m 0,0"
               style="fill:#e7040f;stroke:none;stroke-width:0"
               inkscape:connector-curvature="0" />
          </g>
        </g>
      </g>
    </g>
  </g>
  <path
     style="opacity:1;vector-effect:none;fill:none;fill-opacity:1;stroke:#e7040f;stroke-width:0.35268956;stroke-linecap:round;stroke-linejoin:miter;stroke-miterlimit:4;stroke-dasharray:none;stroke-dashoffset:0;stroke-opacity:1;marker-end:url(#Arrow2Mend-1)"
     d="m 22.662901,41.679536 11.812837,3.270558"
     id="path4972-1"
     inkscape:connector-curvature="0"
     sodipodi:nodetypes="cc" />
  <g
     id="g2320"
     transform="matrix(0.15617618,-0.58285744,0.58285744,0.15617618,-9.0377384,19.930393)"
     style="stroke-width:1.65722489">
    <path
       id="path2157"
       d="m -25.126049,55.394239 h 0.671064 v 0.663868 h -0.671064 z"
       style="fill:#96ccff;stroke-width:0.34071809"
       inkscape:connector-curvature="0" />
    <path
       id="path2155"
       d="m -25.126049,59.014366 h 0.671064 v -0.663868 h -0.671064 z"
       style="fill:#96ccff;stroke-width:0.34071809"
       inkscape:connector-curvature="0" />
    <path
       id="path2153"
       d="m -25.126049,56.797223 h 0.671064 v -0.663868 h -0.671064 z"
       style="fill:#96ccff;stroke-width:0.34071809"
       inkscape:connector-curvature="0" />
    <path
       id="path2151"
       d="m -25.126049,57.536339 h 0.671064 v -0.663868 h -0.671064 z"
       style="fill:#96ccff;stroke-width:0.34071809"
       inkscape:connector-curvature="0" />
    <path
       id="path2149"
       d="m -25.126049,58.275456 h 0.671064 v -0.664074 h -0.671064 z"
       style="fill:#96ccff;stroke-width:0.34071809"
       inkscape:connector-curvature="0" />
    <path
       id="path2147"
       d="m -22.933783,53.871393 h -0.670859 v 0.708482 h 0.670859 z"
       style="fill:#96ccff;stroke-width:0.34071809"
       inkscape:connector-curvature="0" />
    <path
       id="path2145"
       d="m -24.365345,58.275456 h 0.670858 v -0.664074 h -0.670858 z"
       style="fill:#96ccff;stroke-width:0.34071809"
       inkscape:connector-curvature="0" />
    <path
       id="path2143"
       d="m -24.365345,57.536339 h 0.670858 v -0.663868 h -0.670858 z"
       style="fill:#96ccff;stroke-width:0.34071809"
       inkscape:connector-curvature="0" />
    <path
       id="path2141"
       d="m -24.365345,55.318991 h 0.670858 v -0.664074 h -0.670858 z"
       style="fill:#96ccff;stroke-width:0.34071809"
       inkscape:connector-curvature="0" />
    <path
       id="path2139"
       d="m -24.365345,56.797223 h 0.670858 v -0.663868 h -0.670858 z"
       style="fill:#96ccff;stroke-width:0.34071809"
       inkscape:connector-curvature="0" />
    <path
       id="path2137"
       d="m -24.365345,56.058107 h 0.670858 v -0.663868 h -0.670858 z"
       style="fill:#96ccff;stroke-width:0.34071809"
       inkscape:connector-curvature="0" />
    <path
       id="path2135"
       d="m -25.126049,55.318991 h 0.671064 v -0.664074 h -0.671064 z"
       style="fill:#96ccff;stroke-width:0.34071809"
       inkscape:connector-curvature="0" />
    <path
       id="path2133"
       d="m -24.365345,59.014366 h 0.670858 v -0.663868 h -0.670858 z"
       style="fill:#96ccff;stroke-width:0.34071809"
       inkscape:connector-curvature="0" />
    <path
       id="path2131"
       d="m -23.694487,53.871393 h -0.670858 v 0.708482 h 0.670858 z"
       style="fill:#96ccff;stroke-width:0.34071809"
       inkscape:connector-curvature="0" />
    <path
       id="path2129"
       d="m -25.126049,59.81146 h 0.671064 v -0.721846 h -0.671064 z"
       style="fill:#96ccff;stroke-width:0.34071809"
       inkscape:connector-curvature="0" />
    <path
       id="path2127"
       d="m -23.604642,55.318991 h 0.670859 v -0.664074 h -0.670859 z"
       style="fill:#96ccff;stroke-width:0.34071809"
       inkscape:connector-curvature="0" />
    <path
       id="path2125"
       d="m -23.604642,59.81146 h 0.670859 v -0.721846 h -0.670859 z"
       style="fill:#96ccff;stroke-width:0.34071809"
       inkscape:connector-curvature="0" />
    <path
       id="path2123"
       d="m -23.694492,59.089614 h -0.670858 v 0.721846 h 0.670858 z"
       style="fill:#96ccff;stroke-width:0.34071809"
       inkscape:connector-curvature="0" />
    <path
       id="path2121"
       d="m -25.126054,54.580081 h 0.671064 v -0.708483 h -0.671064 z"
       style="fill:#96ccff;stroke-width:0.34071809"
       inkscape:connector-curvature="0" />
    <path
       id="path2119"
       d="m -23.604647,58.275456 h 0.670859 v -0.664074 h -0.670859 z"
       style="fill:#96ccff;stroke-width:0.34071809"
       inkscape:connector-curvature="0" />
    <path
       id="path2117"
       d="m -23.604647,59.014366 h 0.670859 v -0.663868 h -0.670859 z"
       style="fill:#96ccff;stroke-width:0.34071809"
       inkscape:connector-curvature="0" />
    <path
       id="path2115"
       d="m -23.604647,56.797223 h 0.670859 v -0.663868 h -0.670859 z"
       style="fill:#96ccff;stroke-width:0.34071809"
       inkscape:connector-curvature="0" />
    <path
       id="path2113"
       d="m -23.604647,57.536339 h 0.670859 v -0.663868 h -0.670859 z"
       style="fill:#96ccff;stroke-width:0.34071809"
       inkscape:connector-curvature="0" />
    <path
       id="path2111"
       d="m -23.604647,56.058107 h 0.670859 v -0.663868 h -0.670859 z"
       style="fill:#96ccff;stroke-width:0.34071809"
       inkscape:connector-curvature="0" />
    <path
       id="path2109"
       d="m -18.224622,56.058107 h 0.670859 v -0.663868 h -0.670859 z"
       style="fill:#96ccff;stroke-width:0.34071809"
       inkscape:connector-curvature="0" />
    <path
       id="path2107"
       d="m -18.224622,59.014366 h 0.670859 v -0.663868 h -0.670859 z"
       style="fill:#96ccff;stroke-width:0.34071809"
       inkscape:connector-curvature="0" />
    <path
       id="path2105"
       d="m -18.224622,56.797223 h 0.670859 v -0.663868 h -0.670859 z"
       style="fill:#96ccff;stroke-width:0.34071809"
       inkscape:connector-curvature="0" />
    <path
       id="path2103"
       d="m -18.224622,57.536339 h 0.670859 v -0.663868 h -0.670859 z"
       style="fill:#96ccff;stroke-width:0.34071809"
       inkscape:connector-curvature="0" />
    <path
       id="path2101"
       d="m -18.224622,58.275456 h 0.670859 v -0.664074 h -0.670859 z"
       style="fill:#96ccff;stroke-width:0.34071809"
       inkscape:connector-curvature="0" />
    <path
       id="path2099"
       d="m -19.074965,53.871393 h -0.670858 v 0.708482 h 0.670858 z"
       style="fill:#96ccff;stroke-width:0.34071809"
       inkscape:connector-curvature="0" />
    <path
       id="path2097"
       d="m -18.985115,58.275456 h 0.670653 v -0.664074 h -0.670653 z"
       style="fill:#96ccff;stroke-width:0.34071809"
       inkscape:connector-curvature="0" />
    <path
       id="path2095"
       d="m -18.985115,57.536339 h 0.670653 v -0.663868 h -0.670653 z"
       style="fill:#96ccff;stroke-width:0.34071809"
       inkscape:connector-curvature="0" />
    <path
       id="path2093"
       d="m -18.985115,55.318991 h 0.670653 v -0.664074 h -0.670653 z"
       style="fill:#96ccff;stroke-width:0.34071809"
       inkscape:connector-curvature="0" />
    <path
       id="path2091"
       d="m -18.985115,56.797223 h 0.670653 v -0.663868 h -0.670653 z"
       style="fill:#96ccff;stroke-width:0.34071809"
       inkscape:connector-curvature="0" />
    <path
       id="path2089"
       d="m -18.985115,56.058107 h 0.670653 v -0.663868 h -0.670653 z"
       style="fill:#96ccff;stroke-width:0.34071809"
       inkscape:connector-curvature="0" />
    <path
       id="path2087"
       d="m -18.224617,55.318991 h 0.670859 v -0.664074 h -0.670859 z"
       style="fill:#96ccff;stroke-width:0.34071809"
       inkscape:connector-curvature="0" />
    <path
       id="path2085"
       d="m -18.985115,59.014366 h 0.670653 v -0.663868 h -0.670653 z"
       style="fill:#96ccff;stroke-width:0.34071809"
       inkscape:connector-curvature="0" />
    <path
       id="path2083"
       d="m -18.985115,54.580081 h 0.670653 v -0.708483 h -0.670653 z"
       style="fill:#96ccff;stroke-width:0.34071809"
       inkscape:connector-curvature="0" />
    <path
       id="path2081"
       d="m -18.224617,59.81146 h 0.670859 v -0.721846 h -0.670864 z"
       style="fill:#96ccff;stroke-width:0.34071809"
       inkscape:connector-curvature="0" />
    <path
       id="path2079"
       d="m -19.745823,55.318991 h 0.670858 v -0.664074 h -0.670858 z"
       style="fill:#96ccff;stroke-width:0.34071809"
       inkscape:connector-curvature="0" />
    <path
       id="path2077"
       d="m -19.745823,59.81146 h 0.670858 v -0.721846 h -0.670858 z"
       style="fill:#96ccff;stroke-width:0.34071809"
       inkscape:connector-curvature="0" />
    <path
       id="path2075"
       d="m -18.98512,59.81146 h 0.670653 v -0.721846 h -0.670653 z"
       style="fill:#96ccff;stroke-width:0.34071809"
       inkscape:connector-curvature="0" />
    <path
       id="path2073"
       d="m -18.224622,54.580081 h 0.670859 v -0.708483 h -0.670859 z"
       style="fill:#96ccff;stroke-width:0.34071809"
       inkscape:connector-curvature="0" />
    <path
       id="path2071"
       d="m -19.745823,58.275456 h 0.670858 v -0.664074 h -0.670858 z"
       style="fill:#96ccff;stroke-width:0.34071809"
       inkscape:connector-curvature="0" />
    <path
       id="path2069"
       d="m -19.745823,59.014366 h 0.670858 v -0.663868 h -0.670858 z"
       style="fill:#96ccff;stroke-width:0.34071809"
       inkscape:connector-curvature="0" />
    <path
       id="path2067"
       d="m -19.745823,56.797223 h 0.670858 v -0.663868 h -0.670858 z"
       style="fill:#96ccff;stroke-width:0.34071809"
       inkscape:connector-curvature="0" />
    <path
       id="path2065"
       d="m -19.745823,57.536339 h 0.670858 v -0.663868 h -0.670858 z"
       style="fill:#96ccff;stroke-width:0.34071809"
       inkscape:connector-curvature="0" />
    <path
       id="path2063"
       d="m -19.745823,56.058107 h 0.670858 v -0.663868 h -0.670858 z"
       style="fill:#96ccff;stroke-width:0.34071809"
       inkscape:connector-curvature="0" />
    <path
       id="path2061"
       d="m -23.009036,53.554981 h -2.04177 c -0.04153,0 -0.07525,0.03372 -0.07525,0.07525 v 0.05572 c 0,0.04132 0.03372,0.07484 0.07525,0.07484 h 2.04177 c 0.04153,0 0.07525,-0.03351 0.07525,-0.07484 v -0.05572 c 0,-0.04153 -0.03372,-0.07525 -0.07525,-0.07525 z"
       style="fill:#555555;fill-opacity:1;stroke-width:0.34071809"
       inkscape:connector-curvature="0" />
    <path
       id="path2059"
       d="m -17.628806,53.554981 h -2.041975 c -0.04132,0 -0.07504,0.03372 -0.07504,0.07525 v 0.05572 c 0,0.04132 0.03372,0.07484 0.07504,0.07484 h 2.041975 c 0.04153,0 0.07504,-0.03351 0.07504,-0.07484 v -0.05572 c 0,-0.04153 -0.03351,-0.07525 -0.07504,-0.07525 z"
       style="fill:#555555;fill-opacity:1;stroke-width:0.34071809"
       inkscape:connector-curvature="0" />
    <path
       id="path2057"
       transform="scale(0.26458331)"
       d="m -81.46875,208.56445 v 1.0625 c -0.325584,0.13055 -0.59585,0.33339 -0.771484,0.58594 h -0.06445 c -0.214461,0 -0.388671,0.17498 -0.388671,0.38867 v 8.39063 c 0,0.21523 0.174221,0.38867 0.388671,0.38867 h 0.06445 c 0.21369,0.30849 0.566738,0.54479 0.990234,0.66211 v 1.40039 h -0.302734 c -0.23545,0 -0.425782,0.19032 -0.425782,0.42578 v 0.82422 h -2.794922 v 0.42773 h 2.794922 v 3.38282 c 0,0.23543 0.190355,0.42773 0.425782,0.42773 H -81.25 v 4.4375 c -0.237781,0.0956 -0.435458,0.24551 -0.564453,0.42969 h -0.04687 c -0.156964,0 -0.285156,0.12819 -0.285156,0.28515 v 1.17774 h -2.123047 v 1.41992 h 2.123047 v 1.47266 c 0,0.15696 0.128192,0.2832 0.285156,0.2832 h 0.04687 c 0.226121,0.32405 0.66051,0.54492 1.160156,0.54492 0.500425,0 0.934027,-0.2209 1.160156,-0.54492 h 0.04687 c 0.157758,0 0.283204,-0.12624 0.283204,-0.2832 v -1.47266 h 2.125 v -1.41992 h -2.123047 v -1.17774 c 0,-0.15696 -0.125446,-0.2832 -0.283203,-0.2832 h -0.04688 c -0.128987,-0.18495 -0.327842,-0.3341 -0.566406,-0.42969 v -4.43945 h 0.304688 c 0.235453,0 0.425781,-0.19032 0.425781,-0.42578 v -4.63477 c 0,-0.23545 -0.190317,-0.42578 -0.425781,-0.42578 h -0.304688 v -1.40234 c 0.423496,-0.11811 0.777334,-0.35442 0.990235,-0.66211 h 0.06641 c 0.214462,0 0.388672,-0.17343 0.388672,-0.38867 v -8.39063 c 0,-0.2137 -0.174222,-0.38867 -0.388672,-0.38867 h -0.06641 c -0.174838,-0.25253 -0.444719,-0.45539 -0.769532,-0.58594 v -1.0625 c -0.239331,0.14298 -0.518012,0.22852 -0.816406,0.22852 -0.299168,0 -0.575133,-0.0855 -0.814453,-0.22852 z m 0.814453,1.75586 c 0.44603,0 0.863584,0.18359 1.0625,0.46875 v 8.01563 c -0.198924,0.28516 -0.61647,0.4707 -1.0625,0.4707 -0.44603,0 -0.864339,-0.18554 -1.0625,-0.4707 v -8.01563 c 0.198149,-0.28596 0.61647,-0.46875 1.0625,-0.46875 z"
       style="fill:#d3d3d3;stroke-width:1.28775346"
       inkscape:connector-curvature="0" />
    <path
       id="path2053"
       d="m -20.991938,54.819805 c 0,-0.191821 -0.156047,-0.347868 -0.347868,-0.347868 -0.191821,0 -0.347868,0.156253 -0.347868,0.347868 0,0.192026 0.156047,0.347868 0.347868,0.347868 0.191821,0 0.347868,-0.156047 0.347868,-0.347868 z"
       style="fill:#d3d3d3;stroke-width:0.34071809"
       inkscape:connector-curvature="0" />
    <path
       id="path2051"
       d="m -22.962983,51.319129 h 0.0029 c 0.284955,0 0.518101,-0.231706 0.519334,-0.516661 0.0016,-0.286395 -0.230267,-0.520774 -0.516661,-0.522213 -0.287628,0 -0.520774,0.231706 -0.522419,0.516661 -0.0012,0.286395 0.230473,0.520569 0.516867,0.522213 z"
       style="fill:#555555;fill-opacity:1;stroke-width:0.34071809"
       inkscape:connector-curvature="0" />
    <path
       id="path2049"
       d="m -22.51684,51.194127 h 0.547912 c 0.04133,0 0.07525,-0.03372 0.07525,-0.07504 v -0.01254 c 0.04873,-0.03413 0.08841,-0.08615 0.113694,-0.149056 h 0.06435 v 1.075676 h 0.751246 v -1.075676 h 0.06435 c 0.02508,0.06291 0.06476,0.115133 0.113694,0.149057 v 0.01254 c 0,0.04153 0.03372,0.07504 0.07525,0.07504 h 1.07691 c 0.04153,0 0.07525,-0.03372 0.07525,-0.07504 v -0.01254 c 0.08553,-0.05983 0.143506,-0.174757 0.143506,-0.306749 0,-0.132198 -0.05798,-0.247126 -0.143506,-0.306954 V 50.4803 c 0,-0.04153 -0.03372,-0.07525 -0.07525,-0.07525 h -1.076499 c -0.04153,0 -0.07525,0.03372 -0.07525,0.07525 v 0.01254 c -0.04873,0.03413 -0.08861,0.08615 -0.113694,0.149057 h -0.06435 v -0.161599 c 0,-0.04153 -0.03351,-0.07525 -0.07504,-0.07525 h -0.07669 v -0.356913 h 0.15173 v -0.116779 h -0.751246 v 0.116779 h 0.151729 v 0.356913 h -0.07669 c -0.04153,0 -0.07504,0.03372 -0.07504,0.07525 v 0.161599 h -0.06435 c -0.02529,-0.06291 -0.06476,-0.115134 -0.113694,-0.149057 V 50.4803 c 0,-0.04153 -0.03392,-0.07525 -0.07525,-0.07525 h -0.317029 -0.230883 c 0.09457,0.105881 0.15214,0.24507 0.151112,0.397621 -0.001,0.150291 -0.05839,0.287012 -0.151523,0.391454 z"
       style="fill:#555555;fill-opacity:1;stroke-width:0.34071809"
       inkscape:connector-curvature="0" />
    <path
       id="path2047"
       d="m -24.413254,49.630573 h -0.244659 v 0.474309 h 0.244659 z"
       style="fill:#555555;fill-opacity:1;stroke-width:0.34071809"
       inkscape:connector-curvature="0" />
    <path
       id="path2045"
       d="m -23.593339,49.630573 h -0.244659 v 0.474309 h 0.244659 z"
       style="fill:#555555;fill-opacity:1;stroke-width:0.34071809"
       inkscape:connector-curvature="0" />
    <path
       id="path2043"
       d="m -23.899471,49.630573 h -0.244658 v 0.474309 h 0.244658 z"
       style="fill:#555555;fill-opacity:1;stroke-width:0.34071809"
       inkscape:connector-curvature="0" />
    <path
       id="path2041"
       d="m -24.179081,51.295691 v -0.474103 h -0.244453 v 0.474103 z"
       style="fill:#555555;fill-opacity:1;stroke-width:0.34071809"
       inkscape:connector-curvature="0" />
    <path
       id="path2039"
       d="m -24.657913,50.768956 h 0.831017 c 0.08738,0 0.163243,-0.0479 0.20354,-0.11904 h 0.08841 c 0.02426,-0.09211 0.0697,-0.175579 0.131376,-0.244659 h -0.189765 v -0.08882 -0.156047 h -1.607141 v 0.244658 h 0.542773 v 0.363905 z"
       style="fill:#555555;fill-opacity:1;stroke-width:0.34071809"
       inkscape:connector-curvature="0" />
    <path
       id="path2037"
       d="m -21.545813,55.797823 v 2.067881 c 0.04318,0.04585 0.122741,0.07545 0.206007,0.07545 0.08327,0 0.162832,-0.02981 0.205801,-0.07545 v -2.067881 c -0.04297,-0.04585 -0.122535,-0.07566 -0.205801,-0.07566 -0.08327,0 -0.162832,0.03002 -0.206007,0.07566 z"
       style="fill:#555555;fill-opacity:1;stroke-width:0.34071809"
       inkscape:connector-curvature="0" />
    <path
       id="path2035"
       d="m -20.704721,56.180642 v 1.1978 h 0.07566 v -1.1978 z"
       style="fill:#555555;fill-opacity:1;stroke-width:0.34071809"
       inkscape:connector-curvature="0" />
    <path
       id="path2033"
       d="m -20.543945,56.180642 v 1.1978 h 0.07586 v -1.1978 z"
       style="fill:#555555;fill-opacity:1;stroke-width:0.34071809"
       inkscape:connector-curvature="0" />
    <path
       id="path2031"
       d="m -20.383169,56.180642 v 1.1978 h 0.07566 v -1.1978 z"
       style="fill:#555555;fill-opacity:1;stroke-width:0.34071809"
       inkscape:connector-curvature="0" />
    <path
       id="path2216"
       transform="scale(0.26458331)"
       d="m -113.26367,197.71484 1.74609,-0.002"
       style="fill:#000000;stroke-width:1.28775346"
       inkscape:connector-curvature="0" />
    <path
       id="path2212"
       transform="scale(0.26458331)"
       d="m -111.51758,197.42573 h -1.74609"
       style="fill:#000000;stroke-width:1.28775346"
       inkscape:connector-curvature="0" />
    <path
       id="path2013"
       d="m -12.711783,53.866251 v 0"
       style="fill:#000000;stroke-width:0.34071809"
       inkscape:connector-curvature="0" />
    <path
       id="path2009"
       d="m -13.173961,53.866456 v 0"
       style="fill:#000000;stroke-width:0.34071809"
       inkscape:connector-curvature="0" />
    <path
       id="path2005"
       d="m -15.237935,53.866456 v 0"
       style="fill:#000000;stroke-width:0.34071809"
       inkscape:connector-curvature="0" />
    <path
       id="path2001"
       d="m -15.700114,53.866456 v 0"
       style="fill:#000000;stroke-width:0.34071809"
       inkscape:connector-curvature="0" />
    <path
       id="path1997"
       d="m -26.97929,53.866452 v 0"
       style="fill:#000000;stroke-width:0.34071809"
       inkscape:connector-curvature="0" />
    <path
       id="path1993"
       d="m -27.441674,53.866452 v 0"
       style="fill:#000000;stroke-width:0.34071809"
       inkscape:connector-curvature="0" />
    <path
       id="path1989"
       d="m -29.505648,53.866452 v 0"
       style="fill:#000000;stroke-width:0.34071809"
       inkscape:connector-curvature="0" />
    <path
       transform="scale(0.26458331)"
       d="m -111.51758,203.58984 h -1.74609 m 0,0 h -2.35742 v 22.44922 h 1.625 0.73242 0.41601 c 0.0381,0.087 0.14248,0.15039 0.26758,0.15039 h 0.37891 c 0.12431,0 0.22872,-0.0633 0.26758,-0.15039 h 0.41601 0.73242 1.62696 v -22.44922 h -2.35938 m -1.74609,0.28711 h 1.74609 m 0,0 v 21.875 h -0.41601 c -0.0389,-0.0863 -0.14327,-0.14843 -0.26758,-0.14843 h -0.37891 c -0.1251,0 -0.22952,0.0622 -0.26758,0.14843 h -0.41601 v -21.875 m 11.29492,-0.28711 h -1.74805 m 0,0 h -2.35742 v 22.44922 h 1.62695 0.73243 0.41601 c 0.0381,0.087 0.14248,0.15039 0.26758,0.15039 h 0.37695 c 0.12511,0 0.23144,-0.0633 0.26953,-0.15039 h 0.41602 0.73047 1.626952 v -22.44922 h -2.357422 m -1.74805,0.28711 h 1.74805 m 0,0 v 21.875 h -0.41602 c -0.0381,-0.0863 -0.14442,-0.14843 -0.26953,-0.14843 h -0.37695 c -0.1251,0 -0.22948,0.0622 -0.26758,0.14843 h -0.41797 v -21.875 m 46.125003,-0.28711 h -1.748047 m 0,0 h -2.357422 v 22.44922 h 1.626954 0.730468 0.417969 c 0.03806,0.087 0.143269,0.15039 0.267578,0.15039 h 0.376953 c 0.125103,0 0.231472,-0.0633 0.269532,-0.15039 h 0.416015 0.730469 1.626953 v -22.44922 h -2.357422 m -1.748047,0.28711 h 1.748047 m 0,0 v 21.875 h -0.416015 c -0.0381,-0.0863 -0.144429,-0.14843 -0.269532,-0.14843 h -0.376953 c -0.124309,0 -0.229518,0.0622 -0.267578,0.14843 h -0.417969 v -21.875 m 11.294922,-0.28711 h -1.746094 m 0,0 h -2.357422 v 22.44922 h 1.625 0.732422 0.416016 c 0.03806,0.087 0.143269,0.14844 0.267578,0.14844 h 0.376953 c 0.125896,0 0.231434,-0.0614 0.269531,-0.14844 h 0.416016 0.730469 1.626953 v -22.44922 h -2.357422 m -1.746094,0.28711 h 1.746094 m 0,0 v 21.875 h -0.416016 c -0.0381,-0.0863 -0.143635,-0.14843 -0.269531,-0.14843 h -0.376953 c -0.124309,0 -0.229518,0.0622 -0.267578,0.14843 h -0.416016 v -21.875 m 0,-6.16406 h 1.746094 m 0,0 h 0.730469 1.626953 v -22.44922 h -1.625 -1.148438 c -0.0381,-0.087 -0.141682,-0.15039 -0.267578,-0.15039 h -0.378906 c -0.124309,0 -0.228724,0.0633 -0.267578,0.15039 h -1.148438 -1.625 v 22.44922 h 1.625 0.732422 m 1.746094,-0.28711 h -1.746094 m 0,0 V 175.54883 H -49.375 c 0.03806,0.0862 0.143269,0.15039 0.267578,0.15039 h 0.376953 c 0.125896,0 0.231434,-0.0633 0.269531,-0.15039 h 0.416016 v 21.87695 m -11.294922,0.28711 h 1.748047 m 0,0 h 0.730469 1.628906 v -22.44922 h -1.628906 -1.146484 c -0.0381,-0.087 -0.144429,-0.15039 -0.269532,-0.15039 h -0.376953 c -0.125102,0 -0.229518,0.0633 -0.267578,0.15039 h -1.148437 -1.626954 v 22.44922 h 1.626954 0.730468 m 1.748047,-0.28711 h -1.748047 m 0,0 v -21.87695 h 0.417969 c 0.03806,0.0862 0.142476,0.15039 0.267578,0.15039 h 0.376953 c 0.125103,0 0.231472,-0.0633 0.269532,-0.15039 h 0.416015 v 21.87695 m -46.125003,0.28711 h 1.74805 m 0,0 h 0.73242 1.626955 v -22.44922 h -1.626955 -1.14844 c -0.0381,-0.087 -0.14442,-0.15039 -0.26953,-0.15039 h -0.37695 c -0.1251,0 -0.22952,0.0633 -0.26758,0.15039 h -1.14844 -1.62695 v 22.44922 h 1.62695 0.73047 m 1.74805,-0.28711 h -1.74609 m 0,0 v -21.87695 h 0.41601 c 0.0381,0.0862 0.14248,0.15039 0.26758,0.15039 h 0.37695 c 0.12511,0 0.23144,-0.0633 0.26953,-0.15039 h 0.41602 v 21.87695 m -9.54883,0.28711 h 0.73242 1.62696 v -22.44922 h -1.62696 -1.14843 c -0.0389,-0.087 -0.14327,-0.15039 -0.26758,-0.15039 h -0.37891 c -0.12434,0 -0.22952,0.0633 -0.26758,0.15039 h -1.14843 -1.625 v 22.45117 h 1.625 0.73242 m 0,-0.28906 v -21.87695 h 0.41601 c 0.0381,0.0862 0.14248,0.15039 0.26758,0.15039 h 0.37891 c 0.12431,0 0.22952,-0.0633 0.26758,-0.15039 h 0.41601 v 21.87695"
       style="fill:#ffb700;stroke-width:1.28775346"
       id="path1987"
       inkscape:connector-curvature="0" />
    <path
       id="path1985"
       d="m -29.967826,53.866452 v 0"
       style="fill:#000000;stroke-width:0.34071809"
       inkscape:connector-curvature="0" />
    <path
       d="m -13.173958,52.235673 h 0.106087 v -0.05119 c 0,-0.04153 0.03351,-0.07525 0.07484,-0.07525 h 0.09992 c 0.04153,0 0.07525,0.03372 0.07525,0.07525 v 0.05119 h 0.106088 m -1.3e-5,1.706651 h -0.106088 v 0.05119 c 0,0.04153 -0.03372,0.07525 -0.07525,0.07525 h -0.09991 c -0.04133,0 -0.07484,-0.03372 -0.07484,-0.07525 v -0.05119 h -0.106087 m -2.526153,-1.706653 h 0.105882 v -0.05119 c 0,-0.04153 0.03372,-0.07525 0.07525,-0.07525 h 0.09971 c 0.04153,0 0.07545,0.03372 0.07545,0.07525 h 5e-6 v 0.05119 h 0.105882 m 5e-6,1.706652 h -0.105887 v 0.05119 c 0,0.04153 -0.03392,0.07525 -0.07545,0.07525 h -0.09971 c -0.04153,0 -0.07525,-0.03372 -0.07525,-0.07525 v -0.05119 h -0.105882 M -27.44147,52.235671 h 0.105882 v -0.05119 c 0,-0.04153 0.03392,-0.07525 0.07525,-0.07525 h 0.09992 c 0.04153,0 0.07525,0.03372 0.07525,0.07525 h -6e-6 v 0.05119 h 0.105882 m -6e-6,1.706652 h -0.105876 v 0.05119 c 0,0.04153 -0.03372,0.07525 -0.07525,0.07525 h -0.09992 c -0.04133,0 -0.07525,-0.03372 -0.07525,-0.07525 v -0.05119 h -0.105882 m -2.526353,-1.706652 h 0.106087 v -0.05119 c 0,-0.04153 0.03372,-0.07525 0.07504,-0.07525 h 0.09992 c 0.04174,0 0.07525,0.03372 0.07525,0.07525 v 0.05119 h 0.106087 m -4.06e-4,1.706652 h -0.105681 v 0.05119 c 0,0.04153 -0.03351,0.07525 -0.07504,0.07525 h -0.100125 c -0.04132,0 -0.07504,-0.03372 -0.07504,-0.07525 v -0.05119 h -0.106087 m 0.106084,-1.630276 v 0.612883 c 0,0.04153 0.03361,0.07545 0.07493,0.07545 h 0.0708 v 0.177765 h -0.0708 c -0.04132,0 -0.07493,0.03392 -0.07493,0.07545 v 0.612881 h 0.250113 v -0.546219 h 2.275829 v 0.546219 h 0.250632 v -0.546219 h 1.959053 v 0.06925 c 0,0.04153 0.03392,0.07545 0.07545,0.07545 h 2.621545 v 0.280601 c 0,0.04153 0.03381,0.07545 0.07493,0.07545 h 0.63872 v 0.04547 h 0.751376 V 53.821 h 0.638721 c 0.04133,0 0.07545,-0.03392 0.07545,-0.07545 v -0.2806 h 2.621545 c 0.04153,0 0.07493,-0.03392 0.07493,-0.07545 v -0.06925 h 1.959053 v 0.546219 h 0.250631 V 53.32025 h 2.27583 v 0.546219 h 0.250114 v -0.6134 c 0,-0.04153 -0.03392,-0.07493 -0.07545,-0.07493 h -0.07028 V 52.99986 h 0.07028 c 0.04153,0 0.07545,-0.03392 0.07545,-0.07545 v -0.612367 h -0.250114 v 0.545703 h -2.27583 v -0.545703 h -0.250631 v 0.545703 h -1.95957 v -0.06925 c 0,-0.04153 -0.0334,-0.07545 -0.07493,-0.07545 h -3.161564 v -0.40101 h -1.098641 v 0.40101 h -3.161564 c -0.04153,0 -0.07493,0.03392 -0.07493,0.07545 v 0.06925 h -1.95957 v -0.545703 h -0.250632 v 0.545703 h -2.275829 v -0.545703 z"
       style="fill:#d3d3d3;stroke-width:0.34071809"
       id="path1951"
       inkscape:connector-curvature="0" />
    <path
       id="path1949"
       d="m -24.03413,60.594985 h 2.395805 V 60.32072 h -2.395805 z"
       style="fill:#ffb700;fill-opacity:1;stroke-width:0.34071809"
       inkscape:connector-curvature="0" />
    <path
       id="path1947"
       d="m -21.638325,60.670235 h -2.395805 v 0.27447 h 2.395805 z"
       style="fill:#ffb700;fill-opacity:1;stroke-width:0.34071809"
       inkscape:connector-curvature="0" />
    <path
       id="path1945"
       d="m -21.041275,60.944705 h 2.395599 v -0.27447 h -2.395599 z"
       style="fill:#ffb700;fill-opacity:1;stroke-width:0.34071809"
       inkscape:connector-curvature="0" />
    <path
       id="path1892"
       d="m -21.041275,60.594987 h 2.395599 V 60.32072 h -2.395599 z"
       style="fill:#ffb700;fill-opacity:1;stroke-width:0.34071809"
       inkscape:connector-curvature="0" />
  </g>
  <g
     id="g2351"
     transform="translate(6.1388461,-13.410455)">
    <path
       inkscape:connector-curvature="0"
       style="fill:#e7040f;fill-opacity:1;stroke:none;stroke-width:0"
       d="m 23.05668,51.191879 c -0.06395,0.06395 -0.213177,0.191859 -0.213177,0.270025 0,0.04264 0.04264,0.09238 0.08527,0.09238 0.04264,0 0.06395,-0.03553 0.09238,-0.06395 0.04974,-0.06395 0.15633,-0.19186 0.355296,-0.291343 0.02842,-0.02132 0.07817,-0.04263 0.07817,-0.09238 0,-0.04974 -0.03553,-0.07106 -0.06395,-0.09238 -0.09948,-0.07106 -0.149225,-0.149224 -0.184754,-0.255813 -0.01421,-0.04264 -0.02842,-0.106589 -0.09238,-0.106589 -0.06395,0 -0.09238,0.06395 -0.09238,0.09948 0,0.02132 0.03553,0.163436 0.106589,0.262919 h -1.527772 c -0.07106,0 -0.156331,0 -0.156331,0.09238 0,0.08527 0.08527,0.08527 0.156331,0.08527 z m 0,0"
       id="path5818-1" />
    <path
       inkscape:connector-curvature="0"
       style="fill:#e7040f;fill-opacity:1;stroke:none;stroke-width:0"
       d="m 21.322723,53.566789 h 0.440567 c 0.341083,0 0.376613,0.07106 0.376613,0.198966 0,0.03553 0,0.08527 -0.02842,0.22739 -0.01421,0.02132 -0.01421,0.03553 -0.01421,0.04974 0,0.03553 0.02842,0.04974 0.04974,0.04974 0.04974,0 0.04974,-0.01421 0.07106,-0.09238 l 0.248707,-0.987722 c 0.01421,-0.04974 0.01421,-0.05685 0.01421,-0.07106 0,-0.0071 -0.0071,-0.04974 -0.05685,-0.04974 -0.04264,0 -0.04974,0.02132 -0.06395,0.09948 -0.09948,0.348189 -0.198966,0.43346 -0.589792,0.43346 h -0.412143 l 0.291343,-1.151158 c 0.04264,-0.163436 0.04974,-0.177648 0.248707,-0.177648 h 0.596897 c 0.554261,0 0.66085,0.149224 0.66085,0.497414 0,0.106589 0,0.120801 -0.01421,0.248707 -0.0071,0.05685 -0.0071,0.06395 -0.0071,0.07816 0,0.02132 0.01421,0.05685 0.05685,0.05685 0.04974,0 0.04974,-0.02842 0.05685,-0.113694 l 0.09238,-0.788757 c 0.01421,-0.1208 -0.0071,-0.1208 -0.120801,-0.1208 h -2.22415 c -0.08527,0 -0.135012,0 -0.135012,0.09238 0,0.04974 0.04264,0.04974 0.127906,0.04974 0.170542,0 0.298448,0 0.298448,0.07816 0,0.02132 0,0.02842 -0.02842,0.113694 l -0.596897,2.394694 c -0.04264,0.177647 -0.04974,0.213177 -0.412143,0.213177 -0.07816,0 -0.127906,0 -0.127906,0.08527 0,0.05685 0.05685,0.05685 0.07106,0.05685 0.127906,0 0.46899,-0.01421 0.596897,-0.01421 0.149224,0 0.525837,0.01421 0.675062,0.01421 0.04264,0 0.09238,0 0.09238,-0.08527 0,-0.03553 -0.02132,-0.04974 -0.02132,-0.04974 -0.01421,-0.0071 -0.02842,-0.0071 -0.127907,-0.0071 -0.09948,0 -0.1208,0 -0.234495,-0.0071 -0.135012,-0.01421 -0.149224,-0.03553 -0.149224,-0.09238 0,-0.0071 0,-0.03553 0.02132,-0.09948 z m 0,0"
       id="path5822-1" />
  </g>
  <text
     xml:space="preserve"
     style="font-style:normal;font-variant:normal;font-weight:normal;font-stretch:normal;font-size:6.34999943px;line-height:1.29999995;font-family:Quicksand;-inkscape-font-specification:'Quicksand, Normal';font-variant-ligatures:normal;font-variant-position:normal;font-variant-caps:normal;font-variant-numeric:normal;font-variant-alternates:normal;font-feature-settings:normal;text-indent:0;text-align:end;text-decoration:none;text-decoration-line:none;text-decoration-style:solid;text-decoration-color:#000000;letter-spacing:0px;word-spacing:0px;text-transform:none;writing-mode:lr-tb;direction:ltr;text-orientation:mixed;dominant-baseline:auto;baseline-shift:baseline;text-anchor:end;white-space:normal;shape-padding:0;opacity:1;vector-effect:none;fill:#555555;fill-opacity:1;stroke:none;stroke-width:0.71912855px;stroke-linecap:butt;stroke-linejoin:miter;stroke-miterlimit:4;stroke-dasharray:none;stroke-dashoffset:0;stroke-opacity:1"
     x="58.911121"
     y="109.42503"
     id="text2355"><tspan
       sodipodi:role="line"
       id="tspan2353"
       x="58.911121"
       y="109.42503"
       style="fill:#555555;stroke-width:0.71912855px">zwaartekrachtsveld</tspan></text>
  <path
     style="opacity:1;vector-effect:none;fill:none;fill-opacity:1;stroke:#555555;stroke-width:0.35277775;stroke-linecap:round;stroke-linejoin:miter;stroke-miterlimit:4;stroke-dasharray:none;stroke-dashoffset:0;stroke-opacity:1"
     d="m 34.313146,103.5215 c 2.89388,-7.2347 11.212523,-7.623597 14.674117,-5.625046"
     id="path2357"
     inkscape:connector-curvature="0"
     sodipodi:nodetypes="cc" />
</svg>
