<?xml version="1.0" encoding="UTF-8" standalone="no"?>
<svg
   xmlns:ns3="http://www.iki.fi/pav/software/textext/"
   xmlns:dc="http://purl.org/dc/elements/1.1/"
   xmlns:cc="http://creativecommons.org/ns#"
   xmlns:rdf="http://www.w3.org/1999/02/22-rdf-syntax-ns#"
   xmlns:svg="http://www.w3.org/2000/svg"
   xmlns="http://www.w3.org/2000/svg"
   xmlns:sodipodi="http://sodipodi.sourceforge.net/DTD/sodipodi-0.dtd"
   xmlns:inkscape="http://www.inkscape.org/namespaces/inkscape"
   inkscape:export-ydpi="95.850235"
   inkscape:export-xdpi="95.850235"
   inkscape:export-filename="D:\Hoe Zit Het\hoezithet\content\lessen\wiskunde\meetkunde_1\rechten\img\loodrechte_stand.png"
   sodipodi:docname="loodrechte_stand.svg"
   inkscape:version="1.0 (4035a4fb49, 2020-05-01)"
   id="svg4623"
   version="1.1"
   viewBox="0 0 1923 773.64081"
   height="773.64081"
   width="1923">
  <defs
     id="defs4617" />
  <sodipodi:namedview
     id="base"
     pagecolor="#f4f4f4"
     bordercolor="#666666"
     borderopacity="1.0"
     inkscape:pageopacity="1"
     inkscape:pageshadow="2"
     inkscape:zoom="1.28"
     inkscape:cx="878.34124"
     inkscape:cy="297.8929"
     inkscape:document-units="px"
     inkscape:current-layer="g1566"
     showgrid="false"
     units="px"
     inkscape:object-paths="true"
     inkscape:snap-smooth-nodes="true"
     inkscape:window-width="1920"
     inkscape:window-height="1055"
     inkscape:window-x="1600"
     inkscape:window-y="25"
     inkscape:window-maximized="1"
     showguides="true"
     inkscape:guide-bbox="true"
     inkscape:pagecheckerboard="false"
     inkscape:snap-global="true"
     inkscape:showpageshadow="true"
     showborder="true"
     borderlayer="false"
     inkscape:snap-page="true"
     inkscape:document-rotation="0">
    <sodipodi:guide
       position="1821.5,1.5000336"
       orientation="1,0"
       id="guide818"
       inkscape:locked="false"
       inkscape:label=""
       inkscape:color="rgb(0,0,255)" />
    <sodipodi:guide
       position="101.5,1.5000336"
       orientation="1,0"
       id="guide820"
       inkscape:locked="false"
       inkscape:label=""
       inkscape:color="rgb(0,0,255)" />
    <sodipodi:guide
       position="1.5,101.50003"
       orientation="0,1"
       id="guide822"
       inkscape:locked="false"
       inkscape:label=""
       inkscape:color="rgb(0,0,255)" />
    <sodipodi:guide
       position="1.5,981.50003"
       orientation="0,1"
       id="guide922"
       inkscape:locked="false"
       inkscape:label=""
       inkscape:color="rgb(0,0,255)" />
  </sodipodi:namedview>
  <metadata
     id="metadata4620">
    <rdf:RDF>
      <cc:Work
         rdf:about="">
        <dc:format>image/svg+xml</dc:format>
        <dc:type
           rdf:resource="http://purl.org/dc/dcmitype/StillImage" />
        <dc:title />
      </cc:Work>
    </rdf:RDF>
  </metadata>
  <g
     inkscape:label="watermark"
     inkscape:groupmode="layer"
     id="layer1"
     transform="translate(6.6800203,-318.44177)"
     style="display:inline"
     sodipodi:insensitive="true">
    <g
       id="g5353"
       transform="matrix(0.89623584,0,0,0.89623584,-1.2321384,28.09939)"
       style="stroke-width:1.11578">
      <text
         xml:space="preserve"
         style="font-style:normal;font-variant:normal;font-weight:normal;font-stretch:normal;font-size:28.0156px;line-height:1.3;font-family:Quicksand;-inkscape-font-specification:'Quicksand, Normal';font-variant-ligatures:normal;font-variant-position:normal;font-variant-caps:normal;font-variant-numeric:normal;font-variant-alternates:normal;font-feature-settings:normal;text-indent:0;text-align:center;text-decoration:none;text-decoration-line:none;text-decoration-style:solid;text-decoration-color:#000000;letter-spacing:0px;word-spacing:0px;text-transform:none;writing-mode:lr-tb;direction:ltr;text-orientation:mixed;dominant-baseline:auto;baseline-shift:baseline;text-anchor:middle;white-space:normal;shape-padding:0;opacity:1;vector-effect:none;fill:#555555;fill-opacity:1;stroke:none;stroke-width:3.17272px;stroke-linecap:butt;stroke-linejoin:miter;stroke-miterlimit:4;stroke-dasharray:none;stroke-dashoffset:0;stroke-opacity:1"
         x="44.292774"
         y="218.67326"
         id="text2653" />
      <text
         xml:space="preserve"
         style="font-style:normal;font-variant:normal;font-weight:normal;font-stretch:normal;font-size:47.6065px;line-height:1.25;font-family:Quicksand;-inkscape-font-specification:Quicksand;text-align:end;letter-spacing:0px;word-spacing:0px;text-anchor:end;fill:#d3d3d3;fill-opacity:1;stroke:none;stroke-width:0.295216"
         x="2102.0203"
         y="1144.005"
         id="text7806"><tspan
           sodipodi:role="line"
           id="tspan7804"
           x="2102.0203"
           y="1144.005"
           style="font-size:47.6065px;text-align:end;text-anchor:end;fill:#d3d3d3;stroke-width:0.295216">Meer op: https://hoezithet.nu</tspan></text>
    </g>
  </g>
  <g
     inkscape:groupmode="layer"
     id="layer2"
     inkscape:label="Layer 1"
     transform="translate(6.6800203,-318.44177)">
    <g
       id="g1566"
       transform="matrix(1.319917,0,0,1.319917,-304.52574,-396.07357)">
      <path
         d="m 957.35994,798.75057 -3.60496,23.27909 18.4034,2.84993 a 20.483694,21.346166 8.8028229 0 0 0.46672,-2.24324 20.483694,21.346166 8.8028229 0 0 -15.26516,-23.88578 z"
         style="opacity:0.996;fill:none;stroke:#357edd;stroke-width:3.31189;stroke-linecap:square;stroke-miterlimit:4;stroke-dasharray:none"
         id="path1417" />
      <g
         id="g1553">
        <path
           style="font-variation-settings:normal;vector-effect:none;fill:none;fill-opacity:1;stroke:#d3d3d3;stroke-width:6;stroke-linecap:round;stroke-linejoin:miter;stroke-miterlimit:4;stroke-dasharray:none;stroke-dashoffset:0;stroke-opacity:1;stop-color:#000000"
           d="m 982.68292,620.25363 -57.1463,404.78207"
           id="path1409" />
        <path
           style="font-variation-settings:normal;vector-effect:none;fill:none;fill-opacity:1;stroke:#d3d3d3;stroke-width:6;stroke-linecap:round;stroke-linejoin:miter;stroke-miterlimit:4;stroke-dasharray:none;stroke-dashoffset:0;stroke-opacity:1;stop-color:#000000"
           d="M 570.11376,768.43292 1338.1058,876.85644"
           id="path1411" />
      </g>
      <text
         transform="matrix(1.0301164,0,0,1.0301164,-53.087008,17.226085)"
         id="text1525"
         y="769.53107"
         x="1001.5505"
         style="font-style:normal;font-variant:normal;font-weight:normal;font-stretch:normal;font-size:40px;line-height:1.25;font-family:Quicksand;-inkscape-font-specification:Quicksand;font-variant-ligatures:normal;font-variant-position:normal;font-variant-caps:normal;font-variant-numeric:normal;font-variant-alternates:normal;font-variant-east-asian:normal;font-feature-settings:normal;font-variation-settings:normal;text-indent:0;text-align:start;text-decoration:none;text-decoration-line:none;text-decoration-style:solid;text-decoration-color:#000000;letter-spacing:normal;word-spacing:normal;text-transform:none;writing-mode:lr-tb;direction:ltr;text-orientation:mixed;dominant-baseline:auto;baseline-shift:baseline;text-anchor:start;white-space:normal;shape-padding:0;shape-margin:0;inline-size:0;opacity:1;vector-effect:none;fill:#000000;fill-opacity:1;stroke-width:1;stroke-linecap:butt;stroke-linejoin:miter;stroke-miterlimit:4;stroke-dasharray:none;stroke-dashoffset:0;stroke-opacity:1;stop-color:#000000;stop-opacity:1"
         xml:space="preserve"><tspan
           y="769.53107"
           x="1001.5505"
           id="tspan1523"
           sodipodi:role="line">90°</tspan></text>
      <path
         id="path1529"
         d="m 921.58817,828.24127 21.82087,2.76214 -2.62403,19.61116"
         style="font-variation-settings:normal;opacity:1;vector-effect:none;fill:none;fill-opacity:1;stroke:#357edd;stroke-width:3;stroke-linecap:round;stroke-linejoin:miter;stroke-miterlimit:4;stroke-dasharray:none;stroke-dashoffset:0;stroke-opacity:1;stop-color:#000000;stop-opacity:1" />
      <text
         transform="translate(157.31998,7.457547)"
         id="text1533"
         y="634.375"
         x="832.8125"
         style="font-style:normal;font-variant:normal;font-weight:normal;font-stretch:normal;font-size:40px;line-height:1.25;font-family:Quicksand;-inkscape-font-specification:Quicksand;font-variant-ligatures:normal;font-variant-position:normal;font-variant-caps:normal;font-variant-numeric:normal;font-variant-alternates:normal;font-variant-east-asian:normal;font-feature-settings:normal;font-variation-settings:normal;text-indent:0;text-align:start;text-decoration:none;text-decoration-line:none;text-decoration-style:solid;text-decoration-color:#000000;letter-spacing:normal;word-spacing:normal;text-transform:none;writing-mode:lr-tb;direction:ltr;text-orientation:mixed;dominant-baseline:auto;baseline-shift:baseline;text-anchor:start;white-space:normal;shape-padding:0;shape-margin:0;inline-size:0;opacity:1;vector-effect:none;fill:#000000;fill-opacity:1;stroke-width:1;stroke-linecap:butt;stroke-linejoin:miter;stroke-miterlimit:4;stroke-dasharray:none;stroke-dashoffset:0;stroke-opacity:1;stop-color:#000000;stop-opacity:1"
         xml:space="preserve"><tspan
           y="634.375"
           x="832.8125"
           id="tspan1531"
           sodipodi:role="line">a</tspan></text>
      <text
         transform="translate(666.69498,165.27005)"
         id="text1537"
         y="700"
         x="650"
         style="font-style:normal;font-variant:normal;font-weight:normal;font-stretch:normal;font-size:40px;line-height:1.25;font-family:Quicksand;-inkscape-font-specification:Quicksand;font-variant-ligatures:normal;font-variant-position:normal;font-variant-caps:normal;font-variant-numeric:normal;font-variant-alternates:normal;font-variant-east-asian:normal;font-feature-settings:normal;font-variation-settings:normal;text-indent:0;text-align:start;text-decoration:none;text-decoration-line:none;text-decoration-style:solid;text-decoration-color:#000000;letter-spacing:normal;word-spacing:normal;text-transform:none;writing-mode:lr-tb;direction:ltr;text-orientation:mixed;dominant-baseline:auto;baseline-shift:baseline;text-anchor:start;white-space:normal;shape-padding:0;shape-margin:0;inline-size:0;opacity:1;vector-effect:none;fill:#000000;fill-opacity:1;stroke-width:1;stroke-linecap:butt;stroke-linejoin:miter;stroke-miterlimit:4;stroke-dasharray:none;stroke-dashoffset:0;stroke-opacity:1;stop-color:#000000;stop-opacity:1"
         xml:space="preserve"><tspan
           y="700"
           x="650"
           id="tspan1535"
           sodipodi:role="line">b</tspan></text>
    </g>
    <text
       xml:space="preserve"
       style="font-style:normal;font-variant:normal;font-weight:normal;font-stretch:normal;font-size:40px;line-height:1.25;font-family:Quicksand;-inkscape-font-specification:Quicksand;font-variant-ligatures:normal;font-variant-position:normal;font-variant-caps:normal;font-variant-numeric:normal;font-variant-alternates:normal;font-variant-east-asian:normal;font-feature-settings:normal;font-variation-settings:normal;text-indent:0;text-align:end;text-decoration:none;text-decoration-line:none;text-decoration-style:solid;text-decoration-color:#000000;letter-spacing:normal;word-spacing:normal;text-transform:none;writing-mode:lr-tb;direction:ltr;text-orientation:mixed;dominant-baseline:auto;baseline-shift:baseline;text-anchor:end;white-space:normal;shape-padding:0;shape-margin:0;inline-size:0;opacity:1;vector-effect:none;fill:#000000;fill-opacity:1;stroke-width:1;stroke-linecap:butt;stroke-linejoin:miter;stroke-miterlimit:4;stroke-dasharray:none;stroke-dashoffset:0;stroke-opacity:1;stop-color:#000000;stop-opacity:1"
       x="871.24689"
       y="781.25"
       id="text1541"
       transform="translate(-150.49252,38.70755)"><tspan
         sodipodi:role="line"
         x="871.24689"
         y="781.25"
         id="tspan1543">Dit teken gebruiken we in hoeken</tspan><tspan
         sodipodi:role="line"
         x="871.24689"
         y="831.25"
         id="tspan1547">die 90° zijn (rechte hoeken).</tspan></text>
    <path
       style="font-variation-settings:normal;opacity:1;vector-effect:none;fill:none;fill-opacity:1;stroke:#d3d3d3;stroke-width:3;stroke-linecap:round;stroke-linejoin:miter;stroke-miterlimit:4;stroke-dasharray:none;stroke-dashoffset:0;stroke-opacity:1;stop-color:#000000;stop-opacity:1"
       d="m 921.38248,712.14505 c 0,0 -407.8125,4.6875 -489.0625,67.1875"
       id="path1568" />
    <g
       id="g1623"
       ns3:jacobian_sqrt="7.48882"
       ns3:inkscapeversion="1.0"
       ns3:alignment="middle center"
       ns3:scale="5.616632716581792"
       ns3:preamble="C:\\Users\\Maxime\\AppData\\Roaming\\inkscape\\extensions\\textext\\default_packages.tex"
       ns3:text="$a \\perp b$"
       ns3:pdfconverter="inkscape"
       ns3:texconverter="pdflatex"
       ns3:version="1.0.1"
       transform="matrix(7.48882,0,0,7.48882,1441.1192,477.82754)">
      <defs
         id="id-cb03dae8-a104-4ed4-a7b2-47dd6cf86cc7">
        <g
           id="id-60667985-f30d-4538-82e7-61b7bc35dc06">
          <symbol
             overflow="visible"
             id="id-e7489d0e-c537-49fb-9304-aa1df384d3c7">
            <path
               style="stroke:none"
               d=""
               id="id-e2f29195-d539-4f6a-9ed6-6cbe6353d17e" />
          </symbol>
          <symbol
             overflow="visible"
             id="id-fcb19eb4-c2f0-4fdf-9dd8-df42c3e15702">
            <path
               style="stroke:none"
               d="M 3.71875,-3.765625 C 3.53125,-4.140625 3.25,-4.40625 2.796875,-4.40625 c -1.15625,0 -2.390625,1.46875 -2.390625,2.921875 0,0.9375 0.546875,1.59375 1.3125,1.59375 0.203125,0 0.703125,-0.046875 1.296875,-0.75 0.078125,0.421875 0.4375,0.75 0.90625,0.75 0.359375,0 0.578125,-0.234375 0.75,-0.546875 0.15625,-0.359375 0.296875,-0.96875 0.296875,-0.984375 0,-0.109375 -0.09375,-0.109375 -0.125,-0.109375 -0.09375,0 -0.109375,0.046875 -0.140625,0.1875 -0.171875,0.640625 -0.34375,1.234375 -0.75,1.234375 -0.28125,0 -0.296875,-0.265625 -0.296875,-0.453125 0,-0.21875 0.015625,-0.3125 0.125,-0.75 C 3.890625,-1.71875 3.90625,-1.828125 4,-2.203125 L 4.359375,-3.59375 c 0.0625,-0.28125 0.0625,-0.296875 0.0625,-0.34375 0,-0.171875 -0.109375,-0.265625 -0.28125,-0.265625 -0.25,0 -0.390625,0.21875 -0.421875,0.4375 z M 3.078125,-1.1875 C 3.015625,-1 3.015625,-0.984375 2.875,-0.8125 2.4375,-0.265625 2.03125,-0.109375 1.75,-0.109375 c -0.5,0 -0.640625,-0.546875 -0.640625,-0.9375 0,-0.5 0.3125,-1.71875 0.546875,-2.1875 0.3125,-0.578125 0.75,-0.953125 1.15625,-0.953125 0.640625,0 0.78125,0.8125 0.78125,0.875 0,0.0625 -0.015625,0.125 -0.03125,0.171875 z m 0,0"
               id="id-e188d92c-167a-4a3b-b5e6-3a2d0495453b" />
          </symbol>
          <symbol
             overflow="visible"
             id="id-209cb565-6469-430a-86d8-16e961b85686">
            <path
               style="stroke:none"
               d="m 2.375,-6.8125 c 0,0 0,-0.109375 -0.125,-0.109375 -0.21875,0 -0.953125,0.078125 -1.21875,0.109375 -0.078125,0 -0.1875,0.015625 -0.1875,0.1875 0,0.125 0.09375,0.125 0.25,0.125 0.46875,0 0.484375,0.0625 0.484375,0.171875 0,0.0625 -0.078125,0.40625 -0.125,0.609375 l -0.828125,3.25 c -0.109375,0.5 -0.15625,0.671875 -0.15625,1.015625 0,0.9375 0.53125,1.5625 1.265625,1.5625 1.171875,0 2.40625,-1.484375 2.40625,-2.921875 0,-0.90625 -0.53125,-1.59375 -1.328125,-1.59375 -0.453125,0 -0.875,0.296875 -1.171875,0.59375 z M 1.453125,-3.046875 C 1.5,-3.265625 1.5,-3.28125 1.59375,-3.390625 2.078125,-4.03125 2.53125,-4.1875 2.796875,-4.1875 c 0.359375,0 0.625,0.296875 0.625,0.9375 0,0.59375 -0.328125,1.734375 -0.515625,2.109375 -0.328125,0.671875 -0.78125,1.03125 -1.171875,1.03125 -0.34375,0 -0.671875,-0.265625 -0.671875,-1 0,-0.203125 0,-0.390625 0.15625,-1.015625 z m 0,0"
               id="id-7b69102c-f0af-47b6-a8aa-64cd0bbb61e9" />
          </symbol>
          <symbol
             overflow="visible"
             id="id-41bc9654-67da-495d-9f8e-1199a79350d9">
            <path
               style="stroke:none"
               d=""
               id="id-4a486c18-de73-4fbb-b65f-c51daab464cf" />
          </symbol>
          <symbol
             overflow="visible"
             id="id-13370fc4-420b-413d-a0c9-90df60881b63">
            <path
               style="stroke:none"
               d="m 4.078125,-6.296875 c 0,-0.1875 0,-0.359375 -0.203125,-0.359375 -0.203125,0 -0.203125,0.203125 -0.203125,0.359375 V -0.40625 H 0.90625 c -0.15625,0 -0.359375,0 -0.359375,0.203125 C 0.546875,0 0.75,0 0.90625,0 h 5.953125 c 0.171875,0 0.34375,0 0.34375,-0.203125 0,-0.203125 -0.171875,-0.203125 -0.34375,-0.203125 h -2.78125 z m 0,0"
               id="id-f68296cc-6732-4397-8b5d-006e96cd24b0" />
          </symbol>
        </g>
      </defs>
      <g
         id="id-fb77bc7c-17bb-41cd-aac2-94921aef9e87"
         transform="translate(-149.118,-127.843)">
        <g
           style="fill:#000000;fill-opacity:1"
           id="id-d30ea0d8-e441-4cf6-855e-b37af4d0fca4">
          <g
             id="g1611"
             transform="translate(148.712,134.765)">
            <path
               style="stroke:none"
               d="M 3.71875,-3.765625 C 3.53125,-4.140625 3.25,-4.40625 2.796875,-4.40625 c -1.15625,0 -2.390625,1.46875 -2.390625,2.921875 0,0.9375 0.546875,1.59375 1.3125,1.59375 0.203125,0 0.703125,-0.046875 1.296875,-0.75 0.078125,0.421875 0.4375,0.75 0.90625,0.75 0.359375,0 0.578125,-0.234375 0.75,-0.546875 0.15625,-0.359375 0.296875,-0.96875 0.296875,-0.984375 0,-0.109375 -0.09375,-0.109375 -0.125,-0.109375 -0.09375,0 -0.109375,0.046875 -0.140625,0.1875 -0.171875,0.640625 -0.34375,1.234375 -0.75,1.234375 -0.28125,0 -0.296875,-0.265625 -0.296875,-0.453125 0,-0.21875 0.015625,-0.3125 0.125,-0.75 C 3.890625,-1.71875 3.90625,-1.828125 4,-2.203125 L 4.359375,-3.59375 c 0.0625,-0.28125 0.0625,-0.296875 0.0625,-0.34375 0,-0.171875 -0.109375,-0.265625 -0.28125,-0.265625 -0.25,0 -0.390625,0.21875 -0.421875,0.4375 z M 3.078125,-1.1875 C 3.015625,-1 3.015625,-0.984375 2.875,-0.8125 2.4375,-0.265625 2.03125,-0.109375 1.75,-0.109375 c -0.5,0 -0.640625,-0.546875 -0.640625,-0.9375 0,-0.5 0.3125,-1.71875 0.546875,-2.1875 0.3125,-0.578125 0.75,-0.953125 1.15625,-0.953125 0.640625,0 0.78125,0.8125 0.78125,0.875 0,0.0625 -0.015625,0.125 -0.03125,0.171875 z m 0,0"
               id="id-762abddf-8637-48d0-b9f9-4ab04f2144e9" />
          </g>
        </g>
        <g
           style="fill:#000000;fill-opacity:1"
           id="id-0bacfc90-a74b-4197-ae2b-4853b110c666">
          <g
             id="g1615"
             transform="translate(156.746,134.765)">
            <path
               style="stroke:none"
               d="m 4.078125,-6.296875 c 0,-0.1875 0,-0.359375 -0.203125,-0.359375 -0.203125,0 -0.203125,0.203125 -0.203125,0.359375 V -0.40625 H 0.90625 c -0.15625,0 -0.359375,0 -0.359375,0.203125 C 0.546875,0 0.75,0 0.90625,0 h 5.953125 c 0.171875,0 0.34375,0 0.34375,-0.203125 0,-0.203125 -0.171875,-0.203125 -0.34375,-0.203125 h -2.78125 z m 0,0"
               id="id-17ae8fd3-e3f4-4c79-9593-0b2b69063b10" />
          </g>
        </g>
        <g
           style="fill:#000000;fill-opacity:1"
           id="id-6bcf17dd-d814-4f22-8503-be497f6b7def">
          <g
             id="g1619"
             transform="translate(167.262,134.765)">
            <path
               style="stroke:none"
               d="m 2.375,-6.8125 c 0,0 0,-0.109375 -0.125,-0.109375 -0.21875,0 -0.953125,0.078125 -1.21875,0.109375 -0.078125,0 -0.1875,0.015625 -0.1875,0.1875 0,0.125 0.09375,0.125 0.25,0.125 0.46875,0 0.484375,0.0625 0.484375,0.171875 0,0.0625 -0.078125,0.40625 -0.125,0.609375 l -0.828125,3.25 c -0.109375,0.5 -0.15625,0.671875 -0.15625,1.015625 0,0.9375 0.53125,1.5625 1.265625,1.5625 1.171875,0 2.40625,-1.484375 2.40625,-2.921875 0,-0.90625 -0.53125,-1.59375 -1.328125,-1.59375 -0.453125,0 -0.875,0.296875 -1.171875,0.59375 z M 1.453125,-3.046875 C 1.5,-3.265625 1.5,-3.28125 1.59375,-3.390625 2.078125,-4.03125 2.53125,-4.1875 2.796875,-4.1875 c 0.359375,0 0.625,0.296875 0.625,0.9375 0,0.59375 -0.328125,1.734375 -0.515625,2.109375 -0.328125,0.671875 -0.78125,1.03125 -1.171875,1.03125 -0.34375,0 -0.671875,-0.265625 -0.671875,-1 0,-0.203125 0,-0.390625 0.15625,-1.015625 z m 0,0"
               id="id-0e0e5a6f-309a-403a-a030-4ebd3e7c8f04" />
          </g>
        </g>
      </g>
    </g>
  </g>
</svg>
