<?xml version="1.0" encoding="UTF-8" standalone="no"?>
<svg
   xmlns:ns1="http://www.iki.fi/pav/software/textext/"
   xmlns:dc="http://purl.org/dc/elements/1.1/"
   xmlns:cc="http://creativecommons.org/ns#"
   xmlns:rdf="http://www.w3.org/1999/02/22-rdf-syntax-ns#"
   xmlns:svg="http://www.w3.org/2000/svg"
   xmlns="http://www.w3.org/2000/svg"
   xmlns:sodipodi="http://sodipodi.sourceforge.net/DTD/sodipodi-0.dtd"
   xmlns:inkscape="http://www.inkscape.org/namespaces/inkscape"
   id="svg8"
   version="1.1"
   viewBox="0 0 123.38057 36.006131"
   height="36.00613mm"
   width="123.38057mm"
   sodipodi:docname="conveyor_plain.svg"
   inkscape:version="0.92.3 (unknown)">
  <sodipodi:namedview
     pagecolor="#ffffff"
     bordercolor="#666666"
     borderopacity="1"
     objecttolerance="10"
     gridtolerance="10"
     guidetolerance="10"
     inkscape:pageopacity="0"
     inkscape:pageshadow="2"
     inkscape:window-width="1600"
     inkscape:window-height="872"
     id="namedview1186"
     showgrid="false"
     inkscape:zoom="1.9348681"
     inkscape:cx="214.74094"
     inkscape:cy="20.680874"
     inkscape:window-x="0"
     inkscape:window-y="180"
     inkscape:window-maximized="1"
     inkscape:current-layer="svg8" />
  <defs
     id="defs2">
    <marker
       orient="auto"
       refY="0"
       refX="0"
       id="marker1181"
       style="overflow:visible">
      <path
         inkscape:connector-curvature="0"
         id="path1179"
         style="fill:#000000;fill-opacity:1;fill-rule:evenodd;stroke:#000000;stroke-width:0.625;stroke-linejoin:round;stroke-opacity:1"
         d="M 8.7185878,4.0337352 -2.2072895,0.01601326 8.7185884,-4.0017078 c -1.7454984,2.3720609 -1.7354408,5.6174519 -6e-7,8.035443 z"
         transform="scale(-0.6)" />
    </marker>
    <marker
       orient="auto"
       refY="0"
       refX="0"
       id="Arrow2Send"
       style="overflow:visible">
      <path
         inkscape:connector-curvature="0"
         id="path896"
         style="fill:#000000;fill-opacity:1;fill-rule:evenodd;stroke:#000000;stroke-width:0.625;stroke-linejoin:round;stroke-opacity:1"
         d="M 8.7185878,4.0337352 -2.2072895,0.01601326 8.7185884,-4.0017078 c -1.7454984,2.3720609 -1.7354408,5.6174519 -6e-7,8.035443 z"
         transform="matrix(-0.3,0,0,-0.3,0.69,0)" />
    </marker>
    <marker
       orient="auto"
       refY="0"
       refX="0"
       id="Arrow2Mend"
       style="overflow:visible">
      <path
         inkscape:connector-curvature="0"
         id="path890"
         style="fill:#000000;fill-opacity:1;fill-rule:evenodd;stroke:#000000;stroke-width:0.625;stroke-linejoin:round;stroke-opacity:1"
         d="M 8.7185878,4.0337352 -2.2072895,0.01601326 8.7185884,-4.0017078 c -1.7454984,2.3720609 -1.7354408,5.6174519 -6e-7,8.035443 z"
         transform="scale(-0.6)" />
    </marker>
    <marker
       orient="auto"
       refY="0"
       refX="0"
       id="Arrow2Lend"
       style="overflow:visible">
      <path
         inkscape:connector-curvature="0"
         id="path884"
         style="fill:#000000;fill-opacity:1;fill-rule:evenodd;stroke:#000000;stroke-width:0.625;stroke-linejoin:round;stroke-opacity:1"
         d="M 8.7185878,4.0337352 -2.2072895,0.01601326 8.7185884,-4.0017078 c -1.7454984,2.3720609 -1.7354408,5.6174519 -6e-7,8.035443 z"
         transform="matrix(-1.1,0,0,-1.1,-1.1,0)" />
    </marker>
    <marker
       orient="auto"
       refY="0"
       refX="0"
       id="marker1181-0"
       style="overflow:visible">
      <path
         inkscape:connector-curvature="0"
         id="path1179-7"
         style="fill:#000000;fill-opacity:1;fill-rule:evenodd;stroke:#000000;stroke-width:0.625;stroke-linejoin:round;stroke-opacity:1"
         d="M 8.7185878,4.0337352 -2.2072895,0.01601326 8.7185884,-4.0017078 c -1.7454984,2.3720609 -1.7354408,5.6174519 -6e-7,8.035443 z"
         transform="scale(-0.6)" />
    </marker>
  </defs>
  <metadata
     id="metadata5">
    <rdf:RDF>
      <cc:Work
         rdf:about="">
        <dc:format>image/svg+xml</dc:format>
        <dc:type
           rdf:resource="http://purl.org/dc/dcmitype/StillImage" />
        <dc:title />
      </cc:Work>
    </rdf:RDF>
  </metadata>
  <circle
     r="2.80633"
     cy="23.295334"
     cx="5.0781198"
     id="path20300"
     style="fill:#000000;stroke:none;stroke-width:1.05833328;stroke-linecap:round;stroke-miterlimit:4;stroke-dasharray:none" />
  <circle
     r="2.80633"
     cy="23.295334"
     cx="118.4004"
     id="path20300-9"
     style="fill:#000000;stroke:none;stroke-width:1.05833328;stroke-linecap:round;stroke-miterlimit:4;stroke-dasharray:none" />
  <circle
     r="2.80633"
     cy="23.295334"
     cx="13.795219"
     id="path20300-2"
     style="fill:#000000;stroke:none;stroke-width:1.05833328;stroke-linecap:round;stroke-miterlimit:4;stroke-dasharray:none" />
  <circle
     r="2.80633"
     cy="23.295334"
     cx="22.512318"
     id="path20300-2-3"
     style="fill:#000000;stroke:none;stroke-width:1.05833328;stroke-linecap:round;stroke-miterlimit:4;stroke-dasharray:none" />
  <circle
     r="2.80633"
     cy="23.295334"
     cx="31.229416"
     id="path20300-2-3-6"
     style="fill:#000000;stroke:none;stroke-width:1.05833328;stroke-linecap:round;stroke-miterlimit:4;stroke-dasharray:none" />
  <circle
     r="2.80633"
     cy="23.295334"
     cx="39.946514"
     id="path20300-2-3-6-6"
     style="fill:#000000;stroke:none;stroke-width:1.05833328;stroke-linecap:round;stroke-miterlimit:4;stroke-dasharray:none" />
  <circle
     r="2.80633"
     cy="23.295334"
     cx="48.663609"
     id="path20300-2-3-6-6-7"
     style="fill:#000000;stroke:none;stroke-width:1.05833328;stroke-linecap:round;stroke-miterlimit:4;stroke-dasharray:none" />
  <circle
     r="2.80633"
     cy="23.295334"
     cx="57.380711"
     id="path20300-2-3-6-6-7-7"
     style="fill:#000000;stroke:none;stroke-width:1.05833328;stroke-linecap:round;stroke-miterlimit:4;stroke-dasharray:none" />
  <circle
     r="2.80633"
     cy="23.295334"
     cx="66.097801"
     id="path20300-2-3-6-6-7-7-4"
     style="fill:#000000;stroke:none;stroke-width:1.05833328;stroke-linecap:round;stroke-miterlimit:4;stroke-dasharray:none" />
  <circle
     r="2.80633"
     cy="23.295334"
     cx="109.6833"
     id="path20300-2-3-6-6-7-7-4-6"
     style="fill:#000000;stroke:none;stroke-width:1.05833328;stroke-linecap:round;stroke-miterlimit:4;stroke-dasharray:none" />
  <circle
     r="2.80633"
     cy="23.295334"
     cx="100.9662"
     id="path20300-2-3-6-6-7-7-4-6-9"
     style="fill:#000000;stroke:none;stroke-width:1.05833328;stroke-linecap:round;stroke-miterlimit:4;stroke-dasharray:none" />
  <circle
     r="2.80633"
     cy="23.295334"
     cx="92.249107"
     id="path20300-2-3-6-6-7-7-4-6-9-6"
     style="fill:#000000;stroke:none;stroke-width:1.05833328;stroke-linecap:round;stroke-miterlimit:4;stroke-dasharray:none" />
  <circle
     r="2.80633"
     cy="23.295334"
     cx="83.532005"
     id="path20300-2-3-6-6-7-7-4-6-9-6-0"
     style="fill:#000000;stroke:none;stroke-width:1.05833328;stroke-linecap:round;stroke-miterlimit:4;stroke-dasharray:none" />
  <circle
     r="2.80633"
     cy="23.295334"
     cx="74.814911"
     id="path20300-2-3-6-6-7-7-4-6-9-6-0-9"
     style="fill:#000000;stroke:none;stroke-width:1.05833328;stroke-linecap:round;stroke-miterlimit:4;stroke-dasharray:none" />
  <path
     inkscape:connector-curvature="0"
     id="path4893"
     d="m 4.7925092,19.218228 c -5.48404374,-0.04811 -5.48404374,8.20233 0,8.154218 H 118.58807 c 5.48404,0.04811 5.48404,-8.20233 0,-8.154218 z"
     style="color:#000000;font-style:normal;font-variant:normal;font-weight:normal;font-stretch:normal;font-size:medium;line-height:normal;font-family:sans-serif;font-variant-ligatures:normal;font-variant-position:normal;font-variant-caps:normal;font-variant-numeric:normal;font-variant-alternates:normal;font-feature-settings:normal;text-indent:0;text-align:start;text-decoration:none;text-decoration-line:none;text-decoration-style:solid;text-decoration-color:#000000;letter-spacing:normal;word-spacing:normal;text-transform:none;writing-mode:lr-tb;direction:ltr;text-orientation:mixed;dominant-baseline:auto;baseline-shift:baseline;text-anchor:start;white-space:normal;shape-padding:0;clip-rule:nonzero;display:inline;overflow:visible;visibility:visible;opacity:1;isolation:auto;mix-blend-mode:normal;color-interpolation:sRGB;color-interpolation-filters:linearRGB;solid-color:#000000;solid-opacity:1;vector-effect:none;fill:none;fill-opacity:1;fill-rule:nonzero;stroke:#000000;stroke-width:1.35895276;stroke-linecap:round;stroke-linejoin:miter;stroke-miterlimit:4;stroke-dasharray:none;stroke-dashoffset:0;stroke-opacity:1;color-rendering:auto;image-rendering:auto;shape-rendering:auto;text-rendering:auto;enable-background:accumulate" />
  <g
     id="g4789"
     style="fill:#000000"
     transform="matrix(0.58074403,0,0,0.58074403,43.10648,-0.58074403)">
    <rect
       y="2.9999983"
       x="2.9999995"
       height="54"
       width="58"
       id="rect4897"
       style="fill:#ffffff;stroke:none;stroke-width:2.94455934;stroke-linecap:round;stroke-miterlimit:4;stroke-dasharray:none" />
    <path
       inkscape:connector-curvature="0"
       d="M 63,1 H 1 v 58 h 2 v 4 h 8 v -4 h 42 v 4 h 8 v -4 h 2 z M 9,61 H 5 v -2 h 4 z m 50,0 h -4 v -2 h 4 z m 2,-4 H 3 V 3 h 58 z"
       id="path4755" />
    <path
       inkscape:connector-curvature="0"
       d="M 18,31 C 25.168,31 31,25.168 31,18 31,10.832 25.168,5 18,5 10.832,5 5,10.832 5,18 5,25.168 10.832,31 18,31 Z M 18,7 c 6.065,0 11,4.935 11,11 0,6.065 -4.935,11 -11,11 C 11.935,29 7,24.065 7,18 7,11.935 11.935,7 18,7 Z"
       id="path4757" />
    <path
       inkscape:connector-curvature="0"
       d="m 15,18 c 0,1.654 1.346,3 3,3 1.654,0 3,-1.346 3,-3 0,-1.654 -1.346,-3 -3,-3 -0.414,0 -0.808,0.084 -1.168,0.237 l -4.064,-4.877 -1.537,1.28 4.132,4.959 C 15.139,17.019 15,17.491 15,18 Z m 4,0 c 0,0.551 -0.448,1 -1,1 -0.552,0 -1,-0.449 -1,-1 0,-0.551 0.448,-1 1,-1 0.552,0 1,0.449 1,1 z"
       id="path4759" />
    <rect
       x="12"
       y="23"
       width="12"
       height="2"
       id="rect4761" />
    <path
       inkscape:connector-curvature="0"
       d="M 46,31 C 53.168,31 59,25.168 59,18 59,10.832 53.168,5 46,5 38.832,5 33,10.832 33,18 c 0,7.168 5.832,13 13,13 z M 46,7 c 6.065,0 11,4.935 11,11 0,6.065 -4.935,11 -11,11 C 39.935,29 35,24.065 35,18 35,11.935 39.935,7 46,7 Z"
       id="path4763" />
    <path
       inkscape:connector-curvature="0"
       d="m 46,21 c 1.654,0 3,-1.346 3,-3 0,-1.07 -0.567,-2.004 -1.412,-2.535 l 1.389,-6.248 -1.953,-0.434 -1.39,6.254 C 44.154,15.22 43,16.471 43,18 c 0,1.654 1.346,3 3,3 z m 0,-4 c 0.552,0 1,0.449 1,1 0,0.551 -0.448,1 -1,1 -0.552,0 -1,-0.449 -1,-1 0,-0.551 0.448,-1 1,-1 z"
       id="path4765" />
    <rect
       x="50"
       y="23"
       width="2"
       height="2"
       id="rect4767" />
    <rect
       x="40"
       y="23"
       width="8"
       height="2"
       id="rect4769" />
    <path
       inkscape:connector-curvature="0"
       d="M 33,33 H 5 V 55 H 33 Z M 31,53 H 7 V 35 h 24 z"
       id="path4771" />
    <polygon
       points="12.721,40 9,40 9,42 11.279,42 14.279,51 17.721,51 21.721,39 22.341,39 25.341,46 29,46 29,44 26.659,44 23.659,37 20.279,37 16.279,49 15.721,49 "
       id="polygon4773" />
    <path
       inkscape:connector-curvature="0"
       d="m 42,33 h -6 v 6 h 6 z m -2,4 h -2 v -2 h 2 z"
       id="path4775" />
    <path
       inkscape:connector-curvature="0"
       d="m 50,33 h -6 v 6 h 6 z m -2,4 h -2 v -2 h 2 z"
       id="path4777" />
    <path
       inkscape:connector-curvature="0"
       d="m 52,39 h 6 v -6 h -6 z m 2,-4 h 2 v 2 h -2 z"
       id="path4779" />
    <path
       inkscape:connector-curvature="0"
       d="m 36,47 h 6 v -6 h -6 z m 2,-4 h 2 v 2 h -2 z"
       id="path4781" />
    <path
       inkscape:connector-curvature="0"
       d="m 44,47 h 6 v -6 h -6 z m 2,-4 h 2 v 2 h -2 z"
       id="path4783" />
    <path
       inkscape:connector-curvature="0"
       d="m 52,47 h 6 v -6 h -6 z m 2,-4 h 2 v 2 h -2 z"
       id="path4785" />
    <path
       inkscape:connector-curvature="0"
       d="M 36,55 H 58 V 49 H 36 Z m 20,-2 h -4 v -2 h 4 z M 38,51 h 12 v 2 H 38 Z"
       id="path4787" />
  </g>
  <path
     inkscape:connector-curvature="0"
     id="path861"
     d="M 20.198026,9.385156 H 39.975972"
     style="fill:none;stroke:#000000;stroke-width:1.05833328;stroke-linecap:round;stroke-linejoin:miter;stroke-miterlimit:4;stroke-dasharray:none;stroke-opacity:1;marker-end:url(#marker1181)" />
  <path
     inkscape:connector-curvature="0"
     id="path861-9"
     d="M 83.601482,9.374989 H 103.37944"
     style="fill:none;stroke:#000000;stroke-width:1.05833328;stroke-linecap:round;stroke-linejoin:miter;stroke-miterlimit:4;stroke-dasharray:none;stroke-opacity:1;marker-end:url(#marker1181-0)" />
  <g
     id="g934"
     style="fill:#000000;fill-opacity:1;stroke-width:0.20069456"
     transform="matrix(1.7577855,0,0,1.7577855,-271.25484,-223.9098)">
    <path
       id="path932"
       transform="translate(158.537,134.765)"
       d="M 3.328125,-3.015625 C 3.390625,-3.265625 3.625,-4.1875 4.3125,-4.1875 c 0.046875,0 0.296875,0 0.5,0.125 C 4.53125,-4 4.34375,-3.765625 4.34375,-3.515625 c 0,0.15625 0.109375,0.34375 0.375,0.34375 0.21875,0 0.53125,-0.171875 0.53125,-0.578125 0,-0.515625 -0.578125,-0.65625 -0.921875,-0.65625 -0.578125,0 -0.921875,0.53125 -1.046875,0.75 -0.25,-0.65625 -0.78125,-0.75 -1.078125,-0.75 -1.03125,0 -1.609375,1.28125 -1.609375,1.53125 0,0.109375 0.109375,0.109375 0.125,0.109375 0.078125,0 0.109375,-0.03125 0.125,-0.109375 0.34375,-1.0625 1,-1.3125 1.34375,-1.3125 0.1875,0 0.53125,0.09375 0.53125,0.671875 0,0.3125 -0.171875,0.96875 -0.53125,2.375 -0.15625,0.609375 -0.515625,1.03125 -0.953125,1.03125 -0.0625,0 -0.28125,0 -0.5,-0.125 0.25,-0.0625 0.46875,-0.265625 0.46875,-0.546875 0,-0.265625 -0.21875,-0.34375 -0.359375,-0.34375 -0.3125,0 -0.546875,0.25 -0.546875,0.578125 0,0.453125 0.484375,0.65625 0.921875,0.65625 0.671875,0 1.03125,-0.703125 1.046875,-0.75 0.125,0.359375 0.484375,0.75 1.078125,0.75 1.03125,0 1.59375,-1.28125 1.59375,-1.53125 0,-0.109375 -0.078125,-0.109375 -0.109375,-0.109375 -0.09375,0 -0.109375,0.046875 -0.140625,0.109375 -0.328125,1.078125 -1,1.3125 -1.3125,1.3125 -0.390625,0 -0.546875,-0.3125 -0.546875,-0.65625 0,-0.21875 0.046875,-0.4375 0.15625,-0.875 z m 0,0"
       style="fill:#000000;fill-opacity:1;stroke:none;stroke-width:0"
       inkscape:connector-curvature="0" />
  </g>
  <g
     id="g2651"
     ns1:jacobian_sqrt="0.352778"
     inkscapeversion="0.92.3"
     ns1:alignment="middle center"
     ns1:scale="1.0"
     ns1:preamble="/home/fdf/.config/inkscape/extensions/textext/default_packages.tex"
     ns1:text="$y$"
     ns1:pdfconverter="pdf2svg"
     ns1:texconverter="pdflatex"
     ns1:version="0.9.0"
     transform="matrix(1.6765381,0,0,1.6765381,-141.03493,-213.31849)"
     style="stroke-width:0.2104205">
    <g
       id="surface1"
       style="stroke-width:0.2104205">
      <g
         id="g2648"
         style="fill:#000000;fill-opacity:1;stroke-width:0.2104205">
        <path
           id="path2646"
           transform="translate(148.712,134.765)"
           d="m 4.84375,-3.796875 c 0.046875,-0.140625 0.046875,-0.15625 0.046875,-0.234375 0,-0.171875 -0.140625,-0.265625 -0.296875,-0.265625 -0.09375,0 -0.25,0.0625 -0.34375,0.203125 -0.015625,0.0625 -0.109375,0.359375 -0.140625,0.546875 -0.078125,0.25 -0.140625,0.53125 -0.203125,0.796875 l -0.453125,1.796875 c -0.03125,0.140625 -0.46875,0.84375 -1.125,0.84375 -0.5,0 -0.609375,-0.4375 -0.609375,-0.8125 C 1.71875,-1.375 1.890625,-2 2.21875,-2.875 2.375,-3.28125 2.421875,-3.390625 2.421875,-3.59375 c 0,-0.4375 -0.3125,-0.8125 -0.8125,-0.8125 -0.953125,0 -1.3125,1.453125 -1.3125,1.53125 0,0.109375 0.09375,0.109375 0.109375,0.109375 0.109375,0 0.109375,-0.03125 0.15625,-0.1875 0.28125,-0.9375 0.671875,-1.234375 1.015625,-1.234375 0.078125,0 0.25,0 0.25,0.3125 0,0.25 -0.109375,0.515625 -0.171875,0.703125 -0.40625,1.0625 -0.578125,1.625 -0.578125,2.09375 0,0.890625 0.625,1.1875 1.21875,1.1875 0.390625,0 0.71875,-0.171875 1,-0.453125 -0.125,0.515625 -0.25,1.015625 -0.640625,1.546875 -0.265625,0.328125 -0.640625,0.625 -1.09375,0.625 -0.140625,0 -0.59375,-0.03125 -0.765625,-0.421875 0.15625,0 0.296875,0 0.421875,-0.125 C 1.328125,1.203125 1.421875,1.0625 1.421875,0.875 1.421875,0.5625 1.15625,0.53125 1.0625,0.53125 0.828125,0.53125 0.5,0.6875 0.5,1.171875 c 0,0.5 0.4375,0.875 1.0625,0.875 1.015625,0 2.046875,-0.90625 2.328125,-2.03125 z m 0,0"
           style="stroke:none;stroke-width:0"
           inkscape:connector-curvature="0" />
      </g>
    </g>
  </g>
</svg>
