<?xml version="1.0" encoding="UTF-8" standalone="no"?>
<svg
   xmlns:dc="http://purl.org/dc/elements/1.1/"
   xmlns:cc="http://creativecommons.org/ns#"
   xmlns:rdf="http://www.w3.org/1999/02/22-rdf-syntax-ns#"
   xmlns:svg="http://www.w3.org/2000/svg"
   xmlns="http://www.w3.org/2000/svg"
   xmlns:sodipodi="http://sodipodi.sourceforge.net/DTD/sodipodi-0.dtd"
   xmlns:inkscape="http://www.inkscape.org/namespaces/inkscape"
   inkscape:export-ydpi="95.700935"
   inkscape:export-xdpi="95.700935"
   inkscape:export-filename="D:\Hoe Zit Het\hoezithet\content\lessen\wiskunde\meetkunde_1\figuren\img\2d_3d.png"
   sodipodi:docname="2d_3d.svg"
   inkscape:version="1.0 (4035a4fb49, 2020-05-01)"
   id="svg4623"
   version="1.1"
   viewBox="0 0 1926 732.875"
   height="732.875"
   width="1926">
  <defs
     id="defs4617">
    <marker
       inkscape:isstock="true"
       style="overflow:visible"
       id="Arrow2Mend"
       refX="0"
       refY="0"
       orient="auto"
       inkscape:stockid="Arrow2Mend">
      <path
         transform="scale(-0.6)"
         d="M 8.7185878,4.0337352 -2.2072895,0.01601326 8.7185884,-4.0017078 c -1.7454984,2.3720609 -1.7354408,5.6174519 -6e-7,8.035443 z"
         style="fill:#19a974;fill-opacity:1;fill-rule:evenodd;stroke:#19a974;stroke-width:0.625;stroke-linejoin:round;stroke-opacity:1"
         id="path1706" />
    </marker>
    <marker
       inkscape:isstock="true"
       style="overflow:visible"
       id="Arrow2Mstart"
       refX="0"
       refY="0"
       orient="auto"
       inkscape:stockid="Arrow2Mstart">
      <path
         transform="scale(0.6)"
         d="M 8.7185878,4.0337352 -2.2072895,0.01601326 8.7185884,-4.0017078 c -1.7454984,2.3720609 -1.7354408,5.6174519 -6e-7,8.035443 z"
         style="fill:#19a974;fill-opacity:1;fill-rule:evenodd;stroke:#19a974;stroke-width:0.625;stroke-linejoin:round;stroke-opacity:1"
         id="path1703" />
    </marker>
    <marker
       inkscape:isstock="true"
       style="overflow:visible"
       id="marker1957"
       refX="0"
       refY="0"
       orient="auto"
       inkscape:stockid="Arrow2Lstart">
      <path
         transform="matrix(1.1,0,0,1.1,1.1,0)"
         d="M 8.7185878,4.0337352 -2.2072895,0.01601326 8.7185884,-4.0017078 c -1.7454984,2.3720609 -1.7354408,5.6174519 -6e-7,8.035443 z"
         style="fill:#19a974;fill-opacity:1;fill-rule:evenodd;stroke:#19a974;stroke-width:0.625;stroke-linejoin:round;stroke-opacity:1"
         id="path1955" />
    </marker>
    <marker
       inkscape:isstock="true"
       style="overflow:visible"
       id="Arrow2Lstart"
       refX="0"
       refY="0"
       orient="auto"
       inkscape:stockid="Arrow2Lstart">
      <path
         transform="matrix(1.1,0,0,1.1,1.1,0)"
         d="M 8.7185878,4.0337352 -2.2072895,0.01601326 8.7185884,-4.0017078 c -1.7454984,2.3720609 -1.7354408,5.6174519 -6e-7,8.035443 z"
         style="fill:#19a974;fill-opacity:1;fill-rule:evenodd;stroke:#19a974;stroke-width:0.625;stroke-linejoin:round;stroke-opacity:1"
         id="path1697" />
    </marker>
    <marker
       inkscape:stockid="Arrow2Mstart"
       orient="auto"
       refY="0"
       refX="0"
       id="Arrow2Mstart-7"
       style="overflow:visible"
       inkscape:isstock="true">
      <path
         id="path1703-0"
         style="fill:#19a974;fill-opacity:1;fill-rule:evenodd;stroke:#19a974;stroke-width:0.625;stroke-linejoin:round;stroke-opacity:1"
         d="M 8.7185878,4.0337352 -2.2072895,0.01601326 8.7185884,-4.0017078 c -1.7454984,2.3720609 -1.7354408,5.6174519 -6e-7,8.035443 z"
         transform="scale(0.6)" />
    </marker>
    <marker
       inkscape:stockid="Arrow2Mend"
       orient="auto"
       refY="0"
       refX="0"
       id="Arrow2Mend-4"
       style="overflow:visible"
       inkscape:isstock="true">
      <path
         id="path1706-1"
         style="fill:#19a974;fill-opacity:1;fill-rule:evenodd;stroke:#19a974;stroke-width:0.625;stroke-linejoin:round;stroke-opacity:1"
         d="M 8.7185878,4.0337352 -2.2072895,0.01601326 8.7185884,-4.0017078 c -1.7454984,2.3720609 -1.7354408,5.6174519 -6e-7,8.035443 z"
         transform="scale(-0.6)" />
    </marker>
    <marker
       inkscape:stockid="Arrow2Mstart"
       orient="auto"
       refY="0"
       refX="0"
       id="Arrow2Mstart-8"
       style="overflow:visible"
       inkscape:isstock="true">
      <path
         id="path1703-7"
         style="fill:#19a974;fill-opacity:1;fill-rule:evenodd;stroke:#19a974;stroke-width:0.625;stroke-linejoin:round;stroke-opacity:1"
         d="M 8.7185878,4.0337352 -2.2072895,0.01601326 8.7185884,-4.0017078 c -1.7454984,2.3720609 -1.7354408,5.6174519 -6e-7,8.035443 z"
         transform="scale(0.6)" />
    </marker>
    <marker
       inkscape:stockid="Arrow2Mend"
       orient="auto"
       refY="0"
       refX="0"
       id="Arrow2Mend-5"
       style="overflow:visible"
       inkscape:isstock="true">
      <path
         id="path1706-3"
         style="fill:#19a974;fill-opacity:1;fill-rule:evenodd;stroke:#19a974;stroke-width:0.625;stroke-linejoin:round;stroke-opacity:1"
         d="M 8.7185878,4.0337352 -2.2072895,0.01601326 8.7185884,-4.0017078 c -1.7454984,2.3720609 -1.7354408,5.6174519 -6e-7,8.035443 z"
         transform="scale(-0.6)" />
    </marker>
    <marker
       inkscape:isstock="true"
       style="overflow:visible"
       id="Arrow2Mstart-8-7"
       refX="0"
       refY="0"
       orient="auto"
       inkscape:stockid="Arrow2Mstart">
      <path
         transform="scale(0.6)"
         d="M 8.7185878,4.0337352 -2.2072895,0.01601326 8.7185884,-4.0017078 c -1.7454984,2.3720609 -1.7354408,5.6174519 -6e-7,8.035443 z"
         style="fill:#19a974;fill-opacity:1;fill-rule:evenodd;stroke:#19a974;stroke-width:0.625;stroke-linejoin:round;stroke-opacity:1"
         id="path1703-7-2" />
    </marker>
    <marker
       inkscape:isstock="true"
       style="overflow:visible"
       id="Arrow2Mend-5-5"
       refX="0"
       refY="0"
       orient="auto"
       inkscape:stockid="Arrow2Mend">
      <path
         transform="scale(-0.6)"
         d="M 8.7185878,4.0337352 -2.2072895,0.01601326 8.7185884,-4.0017078 c -1.7454984,2.3720609 -1.7354408,5.6174519 -6e-7,8.035443 z"
         style="fill:#19a974;fill-opacity:1;fill-rule:evenodd;stroke:#19a974;stroke-width:0.625;stroke-linejoin:round;stroke-opacity:1"
         id="path1706-3-7" />
    </marker>
    <marker
       inkscape:isstock="true"
       style="overflow:visible"
       id="Arrow2Mstart-8-3"
       refX="0"
       refY="0"
       orient="auto"
       inkscape:stockid="Arrow2Mstart">
      <path
         transform="scale(0.6)"
         d="M 8.7185878,4.0337352 -2.2072895,0.01601326 8.7185884,-4.0017078 c -1.7454984,2.3720609 -1.7354408,5.6174519 -6e-7,8.035443 z"
         style="fill:#19a974;fill-opacity:1;fill-rule:evenodd;stroke:#19a974;stroke-width:0.625;stroke-linejoin:round;stroke-opacity:1"
         id="path1703-7-7" />
    </marker>
    <marker
       inkscape:isstock="true"
       style="overflow:visible"
       id="Arrow2Mend-5-2"
       refX="0"
       refY="0"
       orient="auto"
       inkscape:stockid="Arrow2Mend">
      <path
         transform="scale(-0.6)"
         d="M 8.7185878,4.0337352 -2.2072895,0.01601326 8.7185884,-4.0017078 c -1.7454984,2.3720609 -1.7354408,5.6174519 -6e-7,8.035443 z"
         style="fill:#19a974;fill-opacity:1;fill-rule:evenodd;stroke:#19a974;stroke-width:0.625;stroke-linejoin:round;stroke-opacity:1"
         id="path1706-3-1" />
    </marker>
  </defs>
  <sodipodi:namedview
     inkscape:document-rotation="0"
     inkscape:snap-page="true"
     borderlayer="false"
     showborder="true"
     inkscape:showpageshadow="true"
     inkscape:snap-global="true"
     inkscape:pagecheckerboard="false"
     inkscape:guide-bbox="true"
     showguides="true"
     inkscape:window-maximized="1"
     inkscape:window-y="25"
     inkscape:window-x="1600"
     inkscape:window-height="1055"
     inkscape:window-width="1920"
     inkscape:snap-smooth-nodes="true"
     inkscape:object-paths="true"
     units="px"
     showgrid="false"
     inkscape:current-layer="g42"
     inkscape:document-units="px"
     inkscape:cy="154.58838"
     inkscape:cx="947.53722"
     inkscape:zoom="0.64"
     inkscape:pageshadow="2"
     inkscape:pageopacity="1"
     borderopacity="1.0"
     bordercolor="#666666"
     pagecolor="#f4f4f4"
     id="base">
    <sodipodi:guide
       inkscape:color="rgb(0,0,255)"
       inkscape:label=""
       inkscape:locked="false"
       id="guide818"
       orientation="1,0"
       position="1823,3.0000006" />
    <sodipodi:guide
       inkscape:color="rgb(0,0,255)"
       inkscape:label=""
       inkscape:locked="false"
       id="guide820"
       orientation="1,0"
       position="103.00004,3.0000006" />
    <sodipodi:guide
       inkscape:color="rgb(0,0,255)"
       inkscape:label=""
       inkscape:locked="false"
       id="guide822"
       orientation="0,1"
       position="807.68754,101.75" />
    <sodipodi:guide
       inkscape:color="rgb(0,0,255)"
       inkscape:label=""
       inkscape:locked="false"
       id="guide922"
       orientation="0,1"
       position="3.0000363,983" />
  </sodipodi:namedview>
  <metadata
     id="metadata4620">
    <rdf:RDF>
      <cc:Work
         rdf:about="">
        <dc:format>image/svg+xml</dc:format>
        <dc:type
           rdf:resource="http://purl.org/dc/dcmitype/StillImage" />
        <dc:title></dc:title>
      </cc:Work>
    </rdf:RDF>
  </metadata>
  <g
     sodipodi:insensitive="true"
     style="display:inline"
     transform="translate(8.1800566,-360.70755)"
     id="layer1"
     inkscape:groupmode="layer"
     inkscape:label="watermark">
    <g
       style="stroke-width:1.11578"
       transform="matrix(0.89623584,0,0,0.89623584,-1.2321384,28.09939)"
       id="g5353">
      <text
         id="text2653"
         y="218.67326"
         x="44.292774"
         style="font-style:normal;font-variant:normal;font-weight:normal;font-stretch:normal;font-size:28.0156px;line-height:1.3;font-family:Quicksand;-inkscape-font-specification:'Quicksand, Normal';font-variant-ligatures:normal;font-variant-position:normal;font-variant-caps:normal;font-variant-numeric:normal;font-variant-alternates:normal;font-feature-settings:normal;text-indent:0;text-align:center;text-decoration:none;text-decoration-line:none;text-decoration-style:solid;text-decoration-color:#000000;letter-spacing:0px;word-spacing:0px;text-transform:none;writing-mode:lr-tb;direction:ltr;text-orientation:mixed;dominant-baseline:auto;baseline-shift:baseline;text-anchor:middle;white-space:normal;shape-padding:0;opacity:1;vector-effect:none;fill:#555555;fill-opacity:1;stroke:none;stroke-width:3.17272px;stroke-linecap:butt;stroke-linejoin:miter;stroke-miterlimit:4;stroke-dasharray:none;stroke-dashoffset:0;stroke-opacity:1"
         xml:space="preserve" />
      <text
         id="text7806"
         y="1144.005"
         x="2102.0203"
         style="font-style:normal;font-variant:normal;font-weight:normal;font-stretch:normal;font-size:47.6065px;line-height:1.25;font-family:Quicksand;-inkscape-font-specification:Quicksand;text-align:end;letter-spacing:0px;word-spacing:0px;text-anchor:end;fill:#d3d3d3;fill-opacity:1;stroke:none;stroke-width:0.295216"
         xml:space="preserve"><tspan
           style="font-size:47.6065px;text-align:end;text-anchor:end;fill:#d3d3d3;stroke-width:0.295216"
           y="1144.005"
           x="2102.0203"
           id="tspan7804"
           sodipodi:role="line">Meer op: https://hoezithet.nu</tspan></text>
    </g>
  </g>
  <g
     transform="translate(8.1800566,-360.70755)"
     inkscape:label="Layer 1"
     id="layer2"
     inkscape:groupmode="layer">
    <g
       id="g42"
       transform="translate(1476.703,242.92526)">
      <rect
         y="205.1796"
         x="-42.810223"
         height="87.835922"
         width="162.41359"
         id="rect1620"
         style="display:none;opacity:0.996;fill:#f4f4f4;stroke:none;stroke-width:6;stroke-linecap:square" />
      <path
         id="path3032"
         d="m -230.083,525.31116 -124.2961,124.0199 H -29.552 L 95.5728,525.86359 Z"
         style="font-variation-settings:normal;opacity:1;vector-effect:none;fill:#ffa3d7;fill-opacity:1;stroke:none;stroke-width:3;stroke-linecap:round;stroke-linejoin:miter;stroke-miterlimit:4;stroke-dasharray:none;stroke-dashoffset:0;stroke-opacity:1;stop-color:#000000;stop-opacity:1" />
      <rect
         y="377.03229"
         x="88.429497"
         height="167.96875"
         width="333.59375"
         id="rect1661"
         style="display:none;opacity:0.996;fill:#f4f4f4;stroke:none;stroke-width:6;stroke-linecap:square" />
      <g
         style="fill:#555555;stroke-width:0.20179"
         transform="matrix(4.9556536,0,0,4.9556536,-380.55473,174.07435)"
         id="g1601">
        <path
           style="fill:#555555;stroke-width:0.20179"
           id="path10"
           d="M 96.9,4.6 C 96.8,4.4 96.6,4.2 96.4,4.1 96.3,4 96.1,4 96,4 H 30 C 29.7,4 29.4,4.1 29.2,4.4 L 4.4,29.2 C 4.1,29.4 4,29.7 4,30 v 66 c 0,0.1 0,0.3 0.1,0.4 0.1,0.2 0.3,0.4 0.5,0.5 C 4.7,97 4.9,97 5,97 h 66 c 0.3,0 0.6,-0.1 0.8,-0.4 L 96.7,71.7 c 0.2,-0.2 0.4,-0.4 0.4,-0.8 V 5 C 97,4.9 97,4.7 96.9,4.6 Z M 95,70 h -1 c -0.6,0 -1,0.4 -1,1 0,0.4 0.3,0.8 0.6,0.9 L 72,93.6 V 30.4 L 95,7.4 Z M 30,11 c 0.6,0 1,-0.4 1,-1 V 6 h 62.6 l -23,23 H 30 7.4 L 29,7.4 V 10 c 0,0.6 0.4,1 1,1 z M 7.1,93.9 C 6.8,93.6 6.3,93.5 6,93.7 V 31 h 64 v 39 h -3 c -0.6,0 -1,0.4 -1,1 0,0.6 0.4,1 1,1 h 3 V 95 H 7.3 C 7.5,94.6 7.4,94.2 7.1,93.9 Z" />
        <path
           style="fill:#555555;stroke-width:0.20179"
           id="path12"
           d="m 40,72 h 4 c 0.6,0 1,-0.4 1,-1 0,-0.6 -0.4,-1 -1,-1 h -4 c -0.6,0 -1,0.4 -1,1 0,0.6 0.4,1 1,1 z" />
        <path
           style="fill:#555555;stroke-width:0.20179"
           id="path14"
           d="m 85,72 h 4 c 0.6,0 1,-0.4 1,-1 0,-0.6 -0.4,-1 -1,-1 h -4 c -0.6,0 -1,0.4 -1,1 0,0.6 0.4,1 1,1 z" />
        <path
           style="fill:#555555;stroke-width:0.20179"
           id="path16"
           d="m 76,72 h 4 c 0.6,0 1,-0.4 1,-1 0,-0.6 -0.4,-1 -1,-1 h -4 c -0.6,0 -1,0.4 -1,1 0,0.6 0.4,1 1,1 z" />
        <path
           style="fill:#555555;stroke-width:0.20179"
           id="path18"
           d="m 58,72 h 4 c 0.6,0 1,-0.4 1,-1 0,-0.6 -0.4,-1 -1,-1 h -4 c -0.6,0 -1,0.4 -1,1 0,0.6 0.4,1 1,1 z" />
        <path
           style="fill:#555555;stroke-width:0.20179"
           id="path20"
           d="m 49,72 h 4 c 0.6,0 1,-0.4 1,-1 0,-0.6 -0.4,-1 -1,-1 h -4 c -0.6,0 -1,0.4 -1,1 0,0.6 0.4,1 1,1 z" />
        <path
           style="fill:#555555;stroke-width:0.20179"
           id="path22"
           d="m 30,65 c 0.6,0 1,-0.4 1,-1 v -4 c 0,-0.6 -0.4,-1 -1,-1 -0.6,0 -1,0.4 -1,1 v 4 c 0,0.6 0.4,1 1,1 z" />
        <path
           style="fill:#555555;stroke-width:0.20179"
           id="path24"
           d="m 30,56 c 0.6,0 1,-0.4 1,-1 v -4 c 0,-0.6 -0.4,-1 -1,-1 -0.6,0 -1,0.4 -1,1 v 4 c 0,0.6 0.4,1 1,1 z" />
        <path
           style="fill:#555555;stroke-width:0.20179"
           id="path26"
           d="m 30,47 c 0.6,0 1,-0.4 1,-1 v -4 c 0,-0.6 -0.4,-1 -1,-1 -0.6,0 -1,0.4 -1,1 v 4 c 0,0.6 0.4,1 1,1 z" />
        <path
           style="fill:#555555;stroke-width:0.20179"
           id="path28"
           d="m 29,19 c 0,0.6 0.4,1 1,1 0.6,0 1,-0.4 1,-1 v -4 c 0,-0.6 -0.4,-1 -1,-1 -0.6,0 -1,0.4 -1,1 z" />
        <path
           style="fill:#555555;stroke-width:0.20179"
           id="path30"
           d="m 31,28 v -4 c 0,-0.6 -0.4,-1 -1,-1 -0.6,0 -1,0.4 -1,1 v 4 c 0,0.6 0.4,1 1,1 0.6,0 1,-0.4 1,-1 z" />
        <path
           style="fill:#555555;stroke-width:0.20179"
           id="path32"
           d="m 30,38 c 0.6,0 1,-0.4 1,-1 v -4 c 0,-0.6 -0.4,-1 -1,-1 -0.6,0 -1,0.4 -1,1 v 4 c 0,0.6 0.4,1 1,1 z" />
        <path
           style="fill:#555555;stroke-width:0.20179"
           id="path34"
           d="m 28.6,73.4 c 0.3,0 0.5,-0.1 0.7,-0.3 L 30.4,72 H 32 c 0.6,0 1,-0.4 1,-1 0,-0.6 -0.4,-1 -1,-1 h -1 v -1 c 0,-0.6 -0.4,-1 -1,-1 -0.6,0 -1,0.4 -1,1 v 1.6 l -1.1,1.1 c -0.4,0.4 -0.4,1 0,1.4 0.2,0.2 0.5,0.3 0.7,0.3 z" />
        <path
           style="fill:#555555;stroke-width:0.20179"
           id="path36"
           d="m 9.9,92.1 c 0.3,0 0.5,-0.1 0.7,-0.3 L 13.4,89 c 0.4,-0.4 0.4,-1 0,-1.4 -0.4,-0.4 -1,-0.4 -1.4,0 l -2.8,2.8 c -0.4,0.4 -0.4,1 0,1.4 0.2,0.2 0.4,0.3 0.7,0.3 z" />
        <path
           style="fill:#555555;stroke-width:0.20179"
           id="path38"
           d="m 22.4,79.6 c 0.3,0 0.5,-0.1 0.7,-0.3 l 2.8,-2.8 c 0.4,-0.4 0.4,-1 0,-1.4 -0.4,-0.4 -1,-0.4 -1.4,0 l -2.8,2.8 c -0.4,0.4 -0.4,1 0,1.4 0.2,0.2 0.4,0.3 0.7,0.3 z" />
        <path
           style="fill:#555555;stroke-width:0.20179"
           id="path40"
           d="m 16.1,85.9 c 0.3,0 0.5,-0.1 0.7,-0.3 l 2.8,-2.8 c 0.4,-0.4 0.4,-1 0,-1.4 -0.4,-0.4 -1,-0.4 -1.4,0 l -2.8,2.8 c -0.4,0.4 -0.4,1 0,1.4 0.2,0.2 0.5,0.3 0.7,0.3 z" />
      </g>
      <rect
         y="329.36499"
         x="-1182.5079"
         height="320.40775"
         width="312.19632"
         id="rect1663"
         style="opacity:0.996;fill:#ffa3d7;stroke:#555555;stroke-width:10;stroke-linecap:round;stroke-linejoin:round;stroke-miterlimit:4;stroke-dasharray:none" />
      <text
         transform="translate(-1543.1955,-189.46771)"
         id="text1667"
         y="439.73203"
         x="405.48154"
         style="font-style:normal;font-variant:normal;font-weight:normal;font-stretch:normal;font-size:40px;line-height:1.25;font-family:Quicksand;-inkscape-font-specification:Quicksand;font-variant-ligatures:normal;font-variant-position:normal;font-variant-caps:normal;font-variant-numeric:normal;font-variant-alternates:normal;font-variant-east-asian:normal;font-feature-settings:normal;font-variation-settings:normal;text-indent:0;text-align:start;text-decoration:none;text-decoration-line:none;text-decoration-style:solid;text-decoration-color:#000000;letter-spacing:normal;word-spacing:normal;text-transform:none;writing-mode:lr-tb;direction:ltr;text-orientation:mixed;dominant-baseline:auto;baseline-shift:baseline;text-anchor:start;white-space:normal;shape-padding:0;shape-margin:0;inline-size:0;opacity:1;vector-effect:none;fill:#000000;fill-opacity:1;stroke-width:1;stroke-linecap:butt;stroke-linejoin:miter;stroke-miterlimit:4;stroke-dasharray:none;stroke-dashoffset:0;stroke-opacity:1;stop-color:#000000;stop-opacity:1"
         xml:space="preserve"><tspan
           y="439.73203"
           x="405.48154"
           id="tspan1665"
           sodipodi:role="line">2D-object</tspan></text>
      <text
         transform="translate(-1263.133,-107.09271)"
         id="text1671"
         y="351.5625"
         x="668.75"
         style="font-style:normal;font-variant:normal;font-weight:normal;font-stretch:normal;font-size:40px;line-height:1.25;font-family:Quicksand;-inkscape-font-specification:Quicksand;font-variant-ligatures:normal;font-variant-position:normal;font-variant-caps:normal;font-variant-numeric:normal;font-variant-alternates:normal;font-variant-east-asian:normal;font-feature-settings:normal;font-variation-settings:normal;text-indent:0;text-align:start;text-decoration:none;text-decoration-line:none;text-decoration-style:solid;text-decoration-color:#000000;letter-spacing:normal;word-spacing:normal;text-transform:none;writing-mode:lr-tb;direction:ltr;text-orientation:mixed;dominant-baseline:auto;baseline-shift:baseline;text-anchor:start;white-space:normal;shape-padding:0;shape-margin:0;inline-size:0;opacity:1;vector-effect:none;fill:#000000;fill-opacity:1;stroke-width:1;stroke-linecap:butt;stroke-linejoin:miter;stroke-miterlimit:4;stroke-dasharray:none;stroke-dashoffset:0;stroke-opacity:1;stop-color:#000000;stop-opacity:1"
         xml:space="preserve"><tspan
           y="351.5625"
           x="668.75"
           id="tspan1669"
           sodipodi:role="line">3D-object</tspan></text>
      <path
         id="path1673"
         d="m -512.6955,263.21979 c 0,0 26.5625,54.6875 132.8125,57.8125"
         style="font-variation-settings:normal;opacity:1;vector-effect:none;fill:none;fill-opacity:1;stroke:#d3d3d3;stroke-width:3;stroke-linecap:round;stroke-linejoin:miter;stroke-miterlimit:4;stroke-dasharray:none;stroke-dashoffset:0;stroke-opacity:1;stop-color:#000000;stop-opacity:1" />
      <path
         id="path1675"
         d="m -1081.883,261.40729 c 0,0 -5.0146,21.11213 23.1592,23.32183 28.1738,2.20971 30.3835,32.04078 30.3835,32.04078"
         style="font-variation-settings:normal;opacity:1;vector-effect:none;fill:none;fill-opacity:1;stroke:#d3d3d3;stroke-width:3;stroke-linecap:round;stroke-linejoin:miter;stroke-miterlimit:4;stroke-dasharray:none;stroke-dashoffset:0;stroke-opacity:1;stop-color:#000000;stop-opacity:1" />
      <path
         id="path1677"
         d="m -1178.6692,673.90797 h 302.57136"
         style="font-variation-settings:normal;opacity:1;vector-effect:none;fill:none;fill-opacity:1;stroke:#19a974;stroke-width:6;stroke-linecap:round;stroke-linejoin:miter;stroke-miterlimit:4;stroke-dasharray:none;stroke-dashoffset:0;stroke-opacity:1;marker-start:url(#Arrow2Mstart);marker-end:url(#Arrow2Mend);stop-color:#000000;stop-opacity:1" />
      <path
         style="font-variation-settings:normal;opacity:1;vector-effect:none;fill:none;fill-opacity:1;stroke:#19a974;stroke-width:6;stroke-linecap:round;stroke-linejoin:miter;stroke-miterlimit:4;stroke-dasharray:none;stroke-dashoffset:0;stroke-opacity:1;marker-start:url(#Arrow2Mstart-7);marker-end:url(#Arrow2Mend-4);stop-color:#000000;stop-opacity:1"
         d="M -837.3518,335.68431 V 643.96625"
         id="path1677-4" />
      <text
         transform="translate(-1467.8205,-239.03021)"
         id="text2373"
         y="957.8125"
         x="370.3125"
         style="font-style:normal;font-variant:normal;font-weight:normal;font-stretch:normal;font-size:40px;line-height:1.25;font-family:Quicksand;-inkscape-font-specification:Quicksand;font-variant-ligatures:normal;font-variant-position:normal;font-variant-caps:normal;font-variant-numeric:normal;font-variant-alternates:normal;font-variant-east-asian:normal;font-feature-settings:normal;font-variation-settings:normal;text-indent:0;text-align:start;text-decoration:none;text-decoration-line:none;text-decoration-style:solid;text-decoration-color:#000000;letter-spacing:normal;word-spacing:normal;text-transform:none;writing-mode:lr-tb;direction:ltr;text-orientation:mixed;dominant-baseline:auto;baseline-shift:baseline;text-anchor:start;white-space:normal;shape-padding:0;shape-margin:0;inline-size:0;opacity:1;vector-effect:none;fill:#000000;fill-opacity:1;stroke-width:1;stroke-linecap:butt;stroke-linejoin:miter;stroke-miterlimit:4;stroke-dasharray:none;stroke-dashoffset:0;stroke-opacity:1;stop-color:#000000;stop-opacity:1"
         xml:space="preserve"><tspan
           y="957.8125"
           x="370.3125"
           id="tspan2371"
           sodipodi:role="line">lengte</tspan></text>
      <text
         transform="rotate(-90,-147.53942,1544.5451)"
         id="text2377"
         y="895.3125"
         x="837.5"
         style="font-style:normal;font-variant:normal;font-weight:normal;font-stretch:normal;font-size:40px;line-height:1.25;font-family:Quicksand;-inkscape-font-specification:Quicksand;font-variant-ligatures:normal;font-variant-position:normal;font-variant-caps:normal;font-variant-numeric:normal;font-variant-alternates:normal;font-variant-east-asian:normal;font-feature-settings:normal;font-variation-settings:normal;text-indent:0;text-align:start;text-decoration:none;text-decoration-line:none;text-decoration-style:solid;text-decoration-color:#000000;letter-spacing:normal;word-spacing:normal;text-transform:none;writing-mode:lr-tb;direction:ltr;text-orientation:mixed;dominant-baseline:auto;baseline-shift:baseline;text-anchor:start;white-space:normal;shape-padding:0;shape-margin:0;inline-size:0;opacity:1;vector-effect:none;fill:#000000;fill-opacity:1;stroke-width:1;stroke-linecap:butt;stroke-linejoin:miter;stroke-miterlimit:4;stroke-dasharray:none;stroke-dashoffset:0;stroke-opacity:1;stop-color:#000000;stop-opacity:1"
         xml:space="preserve"><tspan
           y="895.3125"
           x="837.5"
           id="tspan2375"
           sodipodi:role="line">breedte</tspan></text>
      <path
         style="font-variation-settings:normal;opacity:1;vector-effect:none;fill:none;fill-opacity:1;stroke:#19a974;stroke-width:6.00001;stroke-linecap:round;stroke-linejoin:miter;stroke-miterlimit:4;stroke-dasharray:none;stroke-dashoffset:0;stroke-opacity:1;marker-start:url(#Arrow2Mstart-8);marker-end:url(#Arrow2Mend-5);stop-color:#000000;stop-opacity:1"
         d="M -350.70478,676.95242 H -39.654433"
         id="path1677-48" />
      <path
         id="path1677-48-4"
         d="M -1.9949709,661.98978 117.47319,537.85961"
         style="font-variation-settings:normal;opacity:1;vector-effect:none;fill:none;fill-opacity:1;stroke:#19a974;stroke-width:6.00001;stroke-linecap:round;stroke-linejoin:miter;stroke-miterlimit:4;stroke-dasharray:none;stroke-dashoffset:0;stroke-opacity:1;marker-start:url(#Arrow2Mstart-8-7);marker-end:url(#Arrow2Mend-5-5);stop-color:#000000;stop-opacity:1" />
      <path
         id="path1677-48-8"
         d="m -383.44552,334.78834 v 311.0504"
         style="font-variation-settings:normal;opacity:1;vector-effect:none;fill:none;fill-opacity:1;stroke:#19a974;stroke-width:6.00001;stroke-linecap:round;stroke-linejoin:miter;stroke-miterlimit:4;stroke-dasharray:none;stroke-dashoffset:0;stroke-opacity:1;marker-start:url(#Arrow2Mstart-8-3);marker-end:url(#Arrow2Mend-5-2);stop-color:#000000;stop-opacity:1" />
      <text
         xml:space="preserve"
         style="font-style:normal;font-variant:normal;font-weight:normal;font-stretch:normal;font-size:40px;line-height:1.25;font-family:Quicksand;-inkscape-font-specification:Quicksand;font-variant-ligatures:normal;font-variant-position:normal;font-variant-caps:normal;font-variant-numeric:normal;font-variant-alternates:normal;font-variant-east-asian:normal;font-feature-settings:normal;font-variation-settings:normal;text-indent:0;text-align:start;text-decoration:none;text-decoration-line:none;text-decoration-style:solid;text-decoration-color:#000000;letter-spacing:normal;word-spacing:normal;text-transform:none;writing-mode:lr-tb;direction:ltr;text-orientation:mixed;dominant-baseline:auto;baseline-shift:baseline;text-anchor:start;white-space:normal;shape-padding:0;shape-margin:0;inline-size:0;opacity:1;vector-effect:none;fill:#000000;fill-opacity:1;stroke-width:1;stroke-linecap:butt;stroke-linejoin:miter;stroke-miterlimit:4;stroke-dasharray:none;stroke-dashoffset:0;stroke-opacity:1;stop-color:#000000;stop-opacity:1"
         x="837.5"
         y="895.3125"
         id="text2377-8"
         transform="rotate(-48.843201,207.41463,1651.1172)"><tspan
           sodipodi:role="line"
           id="tspan2375-6"
           x="837.5"
           y="895.3125">breedte</tspan></text>
      <text
         xml:space="preserve"
         style="font-style:normal;font-variant:normal;font-weight:normal;font-stretch:normal;font-size:40px;line-height:1.25;font-family:Quicksand;-inkscape-font-specification:Quicksand;font-variant-ligatures:normal;font-variant-position:normal;font-variant-caps:normal;font-variant-numeric:normal;font-variant-alternates:normal;font-variant-east-asian:normal;font-feature-settings:normal;font-variation-settings:normal;text-indent:0;text-align:start;text-decoration:none;text-decoration-line:none;text-decoration-style:solid;text-decoration-color:#000000;letter-spacing:normal;word-spacing:normal;text-transform:none;writing-mode:lr-tb;direction:ltr;text-orientation:mixed;dominant-baseline:auto;baseline-shift:baseline;text-anchor:start;white-space:normal;shape-padding:0;shape-margin:0;inline-size:0;opacity:1;vector-effect:none;fill:#000000;fill-opacity:1;stroke-width:1;stroke-linecap:butt;stroke-linejoin:miter;stroke-miterlimit:4;stroke-dasharray:none;stroke-dashoffset:0;stroke-opacity:1;stop-color:#000000;stop-opacity:1"
         x="370.3125"
         y="957.8125"
         id="text2373-8"
         transform="translate(-625.9124,-241.85521)"><tspan
           sodipodi:role="line"
           id="tspan2371-4"
           x="370.3125"
           y="957.8125">lengte</tspan></text>
      <text
         xml:space="preserve"
         style="font-style:normal;font-variant:normal;font-weight:normal;font-stretch:normal;font-size:40px;line-height:1.25;font-family:Quicksand;-inkscape-font-specification:Quicksand;font-variant-ligatures:normal;font-variant-position:normal;font-variant-caps:normal;font-variant-numeric:normal;font-variant-alternates:normal;font-variant-east-asian:normal;font-feature-settings:normal;font-variation-settings:normal;text-indent:0;text-align:start;text-decoration:none;text-decoration-line:none;text-decoration-style:solid;text-decoration-color:#000000;letter-spacing:normal;word-spacing:normal;text-transform:none;writing-mode:lr-tb;direction:ltr;text-orientation:mixed;dominant-baseline:auto;baseline-shift:baseline;text-anchor:start;white-space:normal;shape-padding:0;shape-margin:0;inline-size:0;opacity:1;vector-effect:none;fill:#000000;fill-opacity:1;stroke-width:1;stroke-linecap:butt;stroke-linejoin:miter;stroke-miterlimit:4;stroke-dasharray:none;stroke-dashoffset:0;stroke-opacity:1;stop-color:#000000;stop-opacity:1"
         x="370.3125"
         y="957.8125"
         id="text2373-9"
         transform="rotate(90,247.46672,292.8162)"><tspan
           sodipodi:role="line"
           id="tspan2371-8"
           x="370.3125"
           y="957.8125">hoogte</tspan></text>
    </g>
  </g>
</svg>
