<?xml version="1.0" encoding="UTF-8" standalone="no"?>
<svg
   xmlns:ns1="http://www.iki.fi/pav/software/textext/"
   xmlns:dc="http://purl.org/dc/elements/1.1/"
   xmlns:cc="http://creativecommons.org/ns#"
   xmlns:rdf="http://www.w3.org/1999/02/22-rdf-syntax-ns#"
   xmlns:svg="http://www.w3.org/2000/svg"
   xmlns="http://www.w3.org/2000/svg"
   xmlns:sodipodi="http://sodipodi.sourceforge.net/DTD/sodipodi-0.dtd"
   xmlns:inkscape="http://www.inkscape.org/namespaces/inkscape"
   inkscape:export-ydpi="96"
   inkscape:export-xdpi="96"
   inkscape:export-filename="D:\Hoe Zit Het\hoezithet\content\lessen\wiskunde\meetkunde_1\figuren\img\opbouw_piramide.png"
   sodipodi:docname="opbouw_piramide.svg"
   inkscape:version="1.0 (4035a4fb49, 2020-05-01)"
   id="svg4623"
   version="1.1"
   viewBox="0 0 1920 1080"
   height="1080"
   width="1920">
  <defs
     id="defs4617">
    <g
       id="g2064">
      <symbol
         overflow="visible"
         id="symbol2058">
        <path
           style="stroke:none"
           d=""
           id="path2056" />
      </symbol>
      <symbol
         overflow="visible"
         id="symbol2062">
        <path
           style="stroke:none"
           d="M 8.3125,-2.296875 C 7.765625,-1.875 7.5,-1.46875 7.421875,-1.328125 c -0.453125,0.6875 -0.53125,1.3125 -0.53125,1.3125 0,0.125 0.125,0.125 0.203125,0.125 C 7.25,0.109375 7.265625,0.09375 7.3125,-0.09375 7.53125,-1.0625 8.125,-1.90625 9.25,-2.359375 9.375,-2.40625 9.40625,-2.421875 9.40625,-2.5 c 0,-0.0625 -0.0625,-0.09375 -0.078125,-0.109375 C 8.875,-2.765625 7.671875,-3.265625 7.296875,-4.9375 7.265625,-5.0625 7.25,-5.09375 7.09375,-5.09375 c -0.078125,0 -0.203125,0 -0.203125,0.125 0,0.015625 0.09375,0.640625 0.5,1.3125 0.203125,0.296875 0.5,0.640625 0.921875,0.96875 H 0.90625 c -0.171875,0 -0.359375,0 -0.359375,0.1875 0,0.203125 0.1875,0.203125 0.359375,0.203125 z m 0,0"
           id="path2060" />
      </symbol>
    </g>
  </defs>
  <sodipodi:namedview
     inkscape:document-rotation="0"
     inkscape:snap-page="true"
     borderlayer="false"
     showborder="true"
     inkscape:showpageshadow="true"
     inkscape:snap-global="false"
     inkscape:pagecheckerboard="false"
     inkscape:guide-bbox="true"
     showguides="true"
     inkscape:window-maximized="1"
     inkscape:window-y="25"
     inkscape:window-x="1600"
     inkscape:window-height="1055"
     inkscape:window-width="1920"
     inkscape:snap-smooth-nodes="true"
     inkscape:object-paths="true"
     units="px"
     showgrid="false"
     inkscape:current-layer="layer2"
     inkscape:document-units="px"
     inkscape:cy="337.30602"
     inkscape:cx="972.62166"
     inkscape:zoom="0.32"
     inkscape:pageshadow="2"
     inkscape:pageopacity="1"
     borderopacity="1.0"
     bordercolor="#666666"
     pagecolor="#f4f4f4"
     id="base">
    <sodipodi:guide
       inkscape:color="rgb(0,0,255)"
       inkscape:label=""
       inkscape:locked="false"
       id="guide818"
       orientation="1,0"
       position="1820,0" />
    <sodipodi:guide
       inkscape:color="rgb(0,0,255)"
       inkscape:label=""
       inkscape:locked="false"
       id="guide820"
       orientation="1,0"
       position="100,0" />
    <sodipodi:guide
       inkscape:color="rgb(0,0,255)"
       inkscape:label=""
       inkscape:locked="false"
       id="guide822"
       orientation="0,1"
       position="0,100" />
    <sodipodi:guide
       inkscape:color="rgb(0,0,255)"
       inkscape:label=""
       inkscape:locked="false"
       id="guide922"
       orientation="0,1"
       position="1453.9883,987.19223" />
  </sodipodi:namedview>
  <metadata
     id="metadata4620">
    <rdf:RDF>
      <cc:Work
         rdf:about="">
        <dc:format>image/svg+xml</dc:format>
        <dc:type
           rdf:resource="http://purl.org/dc/dcmitype/StillImage" />
        <dc:title></dc:title>
      </cc:Work>
    </rdf:RDF>
  </metadata>
  <g
     sodipodi:insensitive="true"
     style="display:inline"
     transform="translate(5.1800203,-10.582547)"
     id="layer1"
     inkscape:groupmode="layer"
     inkscape:label="watermark">
    <g
       style="stroke-width:1.11577785"
       transform="matrix(0.89623584,0,0,0.89623584,-1.2321384,28.09939)"
       id="g5353">
      <text
         id="text2653"
         y="218.67326"
         x="44.292774"
         style="font-style:normal;font-variant:normal;font-weight:normal;font-stretch:normal;font-size:28.0156px;line-height:1.3;font-family:Quicksand;-inkscape-font-specification:'Quicksand, Normal';font-variant-ligatures:normal;font-variant-position:normal;font-variant-caps:normal;font-variant-numeric:normal;font-variant-alternates:normal;font-feature-settings:normal;text-indent:0;text-align:center;text-decoration:none;text-decoration-line:none;text-decoration-style:solid;text-decoration-color:#000000;letter-spacing:0px;word-spacing:0px;text-transform:none;writing-mode:lr-tb;direction:ltr;text-orientation:mixed;dominant-baseline:auto;baseline-shift:baseline;text-anchor:middle;white-space:normal;shape-padding:0;opacity:1;vector-effect:none;fill:#555555;fill-opacity:1;stroke:none;stroke-width:3.17272px;stroke-linecap:butt;stroke-linejoin:miter;stroke-miterlimit:4;stroke-dasharray:none;stroke-dashoffset:0;stroke-opacity:1"
         xml:space="preserve" />
      <text
         id="text7806"
         y="1144.005"
         x="2102.0203"
         style="font-style:normal;font-variant:normal;font-weight:normal;font-stretch:normal;font-size:47.6065px;line-height:1.25;font-family:Quicksand;-inkscape-font-specification:Quicksand;text-align:end;letter-spacing:0px;word-spacing:0px;text-anchor:end;fill:#d3d3d3;fill-opacity:1;stroke:none;stroke-width:0.295216"
         xml:space="preserve"><tspan
           style="font-size:47.6065px;text-align:end;text-anchor:end;fill:#d3d3d3;stroke-width:0.295216"
           y="1144.005"
           x="2102.0203"
           id="tspan7804"
           sodipodi:role="line">Meer op: https://hoezithet.nu</tspan></text>
    </g>
  </g>
  <g
     transform="translate(5.1800203,-10.582547)"
     inkscape:label="Layer 1"
     id="layer2"
     inkscape:groupmode="layer">
    <g
       id="g2230"
       ns1:jacobian_sqrt="7.48882"
       ns1:inkscapeversion="1.0"
       ns1:alignment="middle center"
       ns1:scale="5.616632716581792"
       ns1:preamble="C:\\Users\\Maxime\\AppData\\Roaming\\inkscape\\extensions\\textext\\default_packages.tex"
       ns1:text="$\\rightarrow$"
       ns1:pdfconverter="inkscape"
       ns1:texconverter="pdflatex"
       ns1:version="1.0.1"
       transform="matrix(11.230126,0,0,11.230126,1148.2366,521.36386)"
       style="stroke-width:0.666851">
      <defs
         id="id-9fc336c0-b49e-44ff-80e7-46be56806530">
        <g
           id="g1506">
          <symbol
             overflow="visible"
             id="symbol1500">
            <path
               style="stroke:none"
               d=""
               id="path1498" />
          </symbol>
          <symbol
             overflow="visible"
             id="symbol1504">
            <path
               style="stroke:none"
               d="M 8.3125,-2.296875 C 7.765625,-1.875 7.5,-1.46875 7.421875,-1.328125 c -0.453125,0.6875 -0.53125,1.3125 -0.53125,1.3125 0,0.125 0.125,0.125 0.203125,0.125 C 7.25,0.109375 7.265625,0.09375 7.3125,-0.09375 7.53125,-1.0625 8.125,-1.90625 9.25,-2.359375 9.375,-2.40625 9.40625,-2.421875 9.40625,-2.5 c 0,-0.0625 -0.0625,-0.09375 -0.078125,-0.109375 C 8.875,-2.765625 7.671875,-3.265625 7.296875,-4.9375 7.265625,-5.0625 7.25,-5.09375 7.09375,-5.09375 c -0.078125,0 -0.203125,0 -0.203125,0.125 0,0.015625 0.09375,0.640625 0.5,1.3125 0.203125,0.296875 0.5,0.640625 0.921875,0.96875 H 0.90625 c -0.171875,0 -0.359375,0 -0.359375,0.1875 0,0.203125 0.1875,0.203125 0.359375,0.203125 z m 0,0"
               id="path1502" />
          </symbol>
        </g>
      </defs>
      <g
         id="id-fb283fee-f963-4038-9200-57a46fb4eb6e"
         transform="translate(-149.259,-129.671)"
         style="stroke-width:0.666851">
        <g
           style="fill:#000000;fill-opacity:1;stroke-width:0.666851"
           id="id-e188df20-2dc0-4438-b021-d77043b9223e">
          <g
             id="g2226"
             transform="translate(148.712,134.765)"
             style="stroke-width:0.666851">
            <path
               style="stroke:none;stroke-width:0.666851"
               d="M 8.3125,-2.296875 C 7.765625,-1.875 7.5,-1.46875 7.421875,-1.328125 c -0.453125,0.6875 -0.53125,1.3125 -0.53125,1.3125 0,0.125 0.125,0.125 0.203125,0.125 C 7.25,0.109375 7.265625,0.09375 7.3125,-0.09375 7.53125,-1.0625 8.125,-1.90625 9.25,-2.359375 9.375,-2.40625 9.40625,-2.421875 9.40625,-2.5 c 0,-0.0625 -0.0625,-0.09375 -0.078125,-0.109375 C 8.875,-2.765625 7.671875,-3.265625 7.296875,-4.9375 7.265625,-5.0625 7.25,-5.09375 7.09375,-5.09375 c -0.078125,0 -0.203125,0 -0.203125,0.125 0,0.015625 0.09375,0.640625 0.5,1.3125 0.203125,0.296875 0.5,0.640625 0.921875,0.96875 H 0.90625 c -0.171875,0 -0.359375,0 -0.359375,0.1875 0,0.203125 0.1875,0.203125 0.359375,0.203125 z m 0,0"
               id="id-efdf2269-eab4-4515-b018-8e52fe1036eb" />
          </g>
        </g>
      </g>
    </g>
    <g
       style="stroke-width:1.16171"
       transform="matrix(0.8607983,0,0,0.8607983,205.73278,89.721213)"
       id="g1673">
      <path
         style="font-variation-settings:normal;opacity:1;vector-effect:none;fill:#96ccff;fill-opacity:1;stroke:none;stroke-width:3.48514;stroke-linecap:round;stroke-linejoin:miter;stroke-miterlimit:4;stroke-dasharray:none;stroke-dashoffset:0;stroke-opacity:1;stop-color:#000000;stop-opacity:1"
         d="m 1582.4957,308.89322 175.6718,290.5767 -17.6776,155.78446 z"
         id="path1661" />
      <path
         style="font-variation-settings:normal;opacity:1;vector-effect:none;fill:#9eebcf;fill-opacity:1;stroke:none;stroke-width:3.48514;stroke-linecap:round;stroke-linejoin:miter;stroke-miterlimit:4;stroke-dasharray:none;stroke-dashoffset:0;stroke-opacity:1;stop-color:#000000;stop-opacity:1"
         d="m 1578.0763,308.89322 -219.866,455.19999 378.965,1.10486 z"
         id="path1659" />
      <path
         sodipodi:nodetypes="scccccccccccssccccccscscccccccccscccccssccccccccccccsccccsccccccccccccccsccccccccccccccccc"
         id="path16"
         d="m 1763.6719,602.10267 c 0,-0.1207 -0.1005,-0.21123 -0.1005,-0.33193 -0.01,-0.23135 0,-0.47276 -0.1006,-0.70411 0,-0.22129 -0.1006,-0.43252 -0.1811,-0.64376 -0.1006,-0.21123 -0.171,-0.39229 -0.2615,-0.5834 -0.1006,-0.11065 -0.1006,-0.21123 -0.1107,-0.31182 L 1583.8327,301.02614 c -0.1006,-0.13076 -0.2112,-0.21123 -0.3017,-0.33193 -0.1006,-0.13077 -0.1409,-0.2917 -0.2414,-0.41241 -0.1006,-0.11064 -0.2213,-0.171 -0.332,-0.26152 -0.1207,-0.12071 -0.2213,-0.25147 -0.3621,-0.36212 -0.1609,-0.13076 -0.342,-0.20117 -0.523,-0.30176 -0.1308,-0.0805 -0.2213,-0.20117 -0.3622,-0.26152 v 0 c 0,-0.0201 -0.1005,-0.0101 -0.1408,-0.0302 -0.1006,-0.0402 -0.181,-0.0402 -0.2514,-0.0704 -0.1409,-0.0503 -0.2213,-0.15088 -0.3622,-0.19112 0,-0.0101 -0.1005,0 -0.1207,-0.0101 -0.171,-0.0402 -0.342,-0.0302 -0.513,-0.0604 -0.181,-0.0302 -0.3319,-0.11064 -0.5129,-0.1207 -0.1509,0 -0.2817,0.0503 -0.4326,0.0503 -0.1609,0 -0.3218,-0.0302 -0.4928,-0.0101 -0.1811,0.0201 -0.332,0.11065 -0.503,0.15088 -0.171,0.0402 -0.3319,0.0101 -0.5029,0.0704 -0.1408,0.0503 -0.2314,0.16093 -0.3722,0.21123 -0.1509,0.0704 -0.3118,0.10058 -0.4526,0.19111 0,0.0201 -0.1006,0.0201 -0.1207,0.0402 -0.1409,0.0805 -0.2113,0.21123 -0.332,0.30176 -0.1307,0.10058 -0.2816,0.14082 -0.4124,0.25146 -0.1207,0.10059 -0.181,0.23135 -0.2716,0.35206 -0.1207,0.1207 -0.2313,0.21123 -0.342,0.34199 -0.1307,0.16094 -0.2011,0.342 -0.3017,0.513 -0.1006,0.13076 -0.2112,0.23135 -0.2716,0.37217 v 0 l -223.6045,463.51422 c 0,0.0302 0,0.0704 0,0.11064 -0.1006,0.13076 -0.1006,0.26153 -0.1308,0.39229 -0.1006,0.2917 -0.1408,0.5834 -0.1911,0.88516 0,0.2213 -0.1207,0.44259 -0.1207,0.67394 0,0.0402 0,0.0805 0,0.1207 0,0.0905 0,0.16094 0,0.23135 0.01,0.2917 0.1006,0.56329 0.1509,0.83487 0,0.24141 0.1005,0.49288 0.171,0.71417 0,0.13076 0.1005,0.23135 0.1508,0.35205 0.1107,0.23135 0.2817,0.43252 0.4326,0.64376 0.1408,0.21123 0.2514,0.43252 0.4224,0.63369 0.1006,0.10059 0.2113,0.19112 0.3118,0.28165 0.1006,0.0604 0.1006,0.14082 0.1509,0.19111 0.1911,0.16094 0.4225,0.22129 0.6237,0.35206 0.1408,0.0805 0.2313,0.21123 0.3822,0.28164 0,0.0201 0.1006,0.0101 0.1006,0.0201 0.1006,0.0503 0.181,0.0805 0.2716,0.1207 0.5834,0.22129 1.1969,0.36211 1.8105,0.36211 v 0 0 h 383.9702 v 0 0 c 0,0 0.1006,-0.0201 0.1006,-0.0201 0.5129,-0.0101 1.036,-0.0805 1.5389,-0.25147 0,-0.0101 0,-0.0302 0.1006,-0.0402 0.1006,-0.0201 0.1207,-0.0402 0.1811,-0.0704 0.2012,-0.0805 0.352,-0.22129 0.5532,-0.33193 0.3118,-0.18106 0.6438,-0.32188 0.9153,-0.57335 0,-0.0302 0.1006,-0.0805 0.1006,-0.11064 0.1811,-0.171 0.2917,-0.38223 0.4426,-0.58341 0.2112,-0.25146 0.4325,-0.50293 0.5935,-0.79463 0,-0.0604 0.1006,-0.13077 0.1006,-0.19112 0.1006,-0.21123 0.1307,-0.47276 0.2011,-0.70411 0.1006,-0.26152 0.2113,-0.51299 0.2414,-0.79463 l 18.7092,-165.04289 c 0,-0.10059 0,-0.20117 0,-0.2917 -0.01,-0.0905 0,-0.16094 0,-0.26153 z m -388.4965,136.77799 182.0018,-377.3113 11.9598,-24.77454 9.4451,-19.60437 c 0.1006,-0.0402 0.2112,-0.0503 0.2917,-0.10059 l 96.8852,279.99353 3.4803,10.05868 53.6229,154.98421 h -366.2669 c -3.5517,-0.0503 0,0 8.5801,-23.24562 z m 362.2434,5.65298 -47.5374,-137.40163 -3.4803,-10.05868 -86.2934,-249.40507 149.6531,249.40507 c 3.603,6.4439 3.5758,5.26512 3.2489,10.05868 z"
         style="fill:#555555;stroke-width:1.16171" />
      <path
         style="font-variation-settings:normal;opacity:1;vector-effect:none;fill:none;fill-opacity:1;stroke:#d3d3d3;stroke-width:0;stroke-linecap:round;stroke-linejoin:miter;stroke-miterlimit:4;stroke-dasharray:none;stroke-dashoffset:0;stroke-opacity:1;stop-color:#000000;stop-opacity:1"
         d="M 1579.195,305.89505 1358.8825,764.4888 H 1738.57 Z"
         id="path1665" />
    </g>
    <rect
       y="411.12943"
       x="421.38248"
       height="278.90625"
       width="280.46875"
       id="rect1722"
       style="fill:#fbf1a9;stroke:none;stroke-width:3;stroke-linecap:round;stroke-miterlimit:4;stroke-dasharray:none;stroke-dashoffset:0;stroke-opacity:1" />
    <g
       transform="translate(0,12.584619)"
       id="g1720">
      <rect
         style="fill:none;stroke:#555555;stroke-width:3;stroke-linecap:round;stroke-miterlimit:4;stroke-dasharray:none;stroke-dashoffset:0;stroke-opacity:1"
         id="rect1663"
         width="280.8511"
         height="280.85147"
         x="420.31442"
         y="396.35928" />
      <path
         sodipodi:type="star"
         style="fill:#ffa3d7;stroke:#555555;stroke-width:15.5833;stroke-linecap:round;stroke-miterlimit:4;stroke-dasharray:none;stroke-dashoffset:0;stroke-opacity:1"
         id="path1677"
         sodipodi:sides="3"
         sodipodi:cx="573.76367"
         sodipodi:cy="165.26216"
         sodipodi:r1="473.74939"
         sodipodi:r2="236.87469"
         sodipodi:arg1="0.58282801"
         sodipodi:arg2="1.6300256"
         inkscape:flatsided="true"
         inkscape:rounded="0"
         inkscape:randomized="0"
         d="M 969.30153,426.00779 150.1824,377.43518 601.80708,-307.65649 Z"
         inkscape:transform-center-x="-0.34672807"
         inkscape:transform-center-y="-51.089329"
         transform="matrix(0.34025955,-0.02772264,0.02164323,0.43392488,362.22942,236.68085)" />
      <path
         transform="matrix(0.02786282,0.34025997,-0.43611907,0.02164326,861.85698,337.29276)"
         inkscape:transform-center-y="0.34673041"
         inkscape:transform-center-x="-51.347673"
         d="M 969.30153,426.00779 150.1824,377.43518 601.80708,-307.65649 Z"
         inkscape:randomized="0"
         inkscape:rounded="0"
         inkscape:flatsided="true"
         sodipodi:arg2="1.6300256"
         sodipodi:arg1="0.58282801"
         sodipodi:r2="236.87469"
         sodipodi:r1="473.74939"
         sodipodi:cy="165.26216"
         sodipodi:cx="573.76367"
         sodipodi:sides="3"
         id="path1677-2"
         style="fill:#96ccff;stroke:#555555;stroke-width:15.544;stroke-linecap:round;stroke-miterlimit:4;stroke-dasharray:none;stroke-dashoffset:0;stroke-opacity:1"
         sodipodi:type="star" />
      <path
         sodipodi:type="star"
         style="fill:#9eebcf;stroke:#555555;stroke-width:15.544;stroke-linecap:round;stroke-miterlimit:4;stroke-dasharray:none;stroke-dashoffset:0;stroke-opacity:1"
         id="path1677-2-5"
         sodipodi:sides="3"
         sodipodi:cx="573.76367"
         sodipodi:cy="165.26216"
         sodipodi:r1="473.74939"
         sodipodi:r2="236.87469"
         sodipodi:arg1="0.58282801"
         sodipodi:arg2="1.6300256"
         inkscape:flatsided="true"
         inkscape:rounded="0"
         inkscape:randomized="0"
         d="M 969.30153,426.00779 150.1824,377.43518 601.80708,-307.65649 Z"
         inkscape:transform-center-x="0.34672937"
         inkscape:transform-center-y="51.347723"
         transform="matrix(-0.34025955,0.02786285,-0.02164323,-0.43611948,760.00431,838.53835)" />
      <path
         sodipodi:type="star"
         style="fill:#ffada0;fill-opacity:1;stroke:#555555;stroke-width:15.544;stroke-linecap:round;stroke-miterlimit:4;stroke-dasharray:none;stroke-dashoffset:0;stroke-opacity:1"
         id="path1677-2-6"
         sodipodi:sides="3"
         sodipodi:cx="573.76367"
         sodipodi:cy="165.26216"
         sodipodi:r1="473.74939"
         sodipodi:r2="236.87469"
         sodipodi:arg1="0.58282801"
         sodipodi:arg2="1.6300256"
         inkscape:flatsided="true"
         inkscape:rounded="0"
         inkscape:randomized="0"
         d="M 969.30153,426.00779 150.1824,377.43518 601.80708,-307.65649 Z"
         inkscape:transform-center-x="51.347669"
         inkscape:transform-center-y="0.34672854"
         transform="matrix(-0.02786282,0.34025997,0.43611907,0.02164326,259.6231,338.54807)" />
    </g>
    <text
       transform="translate(-687.98001,-15.933957)"
       id="text2337"
       y="232.01941"
       x="702.68738"
       style="font-style:normal;font-variant:normal;font-weight:normal;font-stretch:normal;font-size:40px;line-height:1.25;font-family:Quicksand;-inkscape-font-specification:Quicksand;font-variant-ligatures:normal;font-variant-position:normal;font-variant-caps:normal;font-variant-numeric:normal;font-variant-alternates:normal;font-variant-east-asian:normal;font-feature-settings:normal;font-variation-settings:normal;text-indent:0;text-align:start;text-decoration:none;text-decoration-line:none;text-decoration-style:solid;text-decoration-color:#000000;letter-spacing:normal;word-spacing:normal;text-transform:none;writing-mode:lr-tb;direction:ltr;text-orientation:mixed;dominant-baseline:auto;baseline-shift:baseline;text-anchor:start;white-space:normal;shape-padding:0;shape-margin:0;inline-size:0;opacity:1;vector-effect:none;fill:#000000;fill-opacity:1;stroke-width:1;stroke-linecap:butt;stroke-linejoin:miter;stroke-miterlimit:4;stroke-dasharray:none;stroke-dashoffset:0;stroke-opacity:1;stop-color:#000000;stop-opacity:1"
       xml:space="preserve"><tspan
         y="232.01941"
         x="702.68738"
         id="tspan2335"
         sodipodi:role="line">Grondvlak (vierkant)</tspan></text>
    <text
       transform="translate(-115.35532,120.53182)"
       id="text2341"
       y="740.25238"
       x="897.14172"
       style="font-style:normal;font-variant:normal;font-weight:normal;font-stretch:normal;font-size:40px;line-height:1.25;font-family:Quicksand;-inkscape-font-specification:Quicksand;font-variant-ligatures:normal;font-variant-position:normal;font-variant-caps:normal;font-variant-numeric:normal;font-variant-alternates:normal;font-variant-east-asian:normal;font-feature-settings:normal;font-variation-settings:normal;text-indent:0;text-align:start;text-decoration:none;text-decoration-line:none;text-decoration-style:solid;text-decoration-color:#000000;letter-spacing:normal;word-spacing:normal;text-transform:none;writing-mode:lr-tb;direction:ltr;text-orientation:mixed;dominant-baseline:auto;baseline-shift:baseline;text-anchor:start;white-space:normal;shape-padding:0;shape-margin:0;inline-size:0;opacity:1;vector-effect:none;fill:#000000;fill-opacity:1;stroke-width:1;stroke-linecap:butt;stroke-linejoin:miter;stroke-miterlimit:4;stroke-dasharray:none;stroke-dashoffset:0;stroke-opacity:1;stop-color:#000000;stop-opacity:1"
       xml:space="preserve"><tspan
         y="740.25238"
         x="897.14172"
         id="tspan2339"
         sodipodi:role="line">Driehoek</tspan></text>
    <text
       transform="translate(-27.277107,23.840799)"
       id="text2345"
       y="267.37476"
       x="1328.0349"
       style="font-style:normal;font-variant:normal;font-weight:normal;font-stretch:normal;font-size:40px;line-height:1.25;font-family:Quicksand;-inkscape-font-specification:Quicksand;font-variant-ligatures:normal;font-variant-position:normal;font-variant-caps:normal;font-variant-numeric:normal;font-variant-alternates:normal;font-variant-east-asian:normal;font-feature-settings:normal;font-variation-settings:normal;text-indent:0;text-align:start;text-decoration:none;text-decoration-line:none;text-decoration-style:solid;text-decoration-color:#000000;letter-spacing:normal;word-spacing:normal;text-transform:none;writing-mode:lr-tb;direction:ltr;text-orientation:mixed;dominant-baseline:auto;baseline-shift:baseline;text-anchor:start;white-space:normal;shape-padding:0;shape-margin:0;inline-size:0;opacity:1;vector-effect:none;fill:#000000;fill-opacity:1;stroke-width:1;stroke-linecap:butt;stroke-linejoin:miter;stroke-miterlimit:4;stroke-dasharray:none;stroke-dashoffset:0;stroke-opacity:1;stop-color:#000000;stop-opacity:1"
       xml:space="preserve"><tspan
         y="267.37476"
         x="1328.0349"
         id="tspan2343"
         sodipodi:role="line">Piramide</tspan></text>
    <path
       id="path2347"
       d="m 849.50748,868.39505 c 0,0 57.8125,113.28125 -271.09375,18.75"
       style="font-variation-settings:normal;opacity:1;vector-effect:none;fill:none;fill-opacity:1;stroke:#d3d3d3;stroke-width:3;stroke-linecap:round;stroke-linejoin:miter;stroke-miterlimit:4;stroke-dasharray:none;stroke-dashoffset:0;stroke-opacity:1;stop-color:#000000;stop-opacity:1" />
    <path
       id="path2353"
       d="m 1369.82,298.8638 c 0,0 4.6875,63.28125 75.7813,69.53125 71.0937,6.25 67.9687,51.5625 67.9687,51.5625"
       style="font-variation-settings:normal;opacity:1;vector-effect:none;fill:none;fill-opacity:1;stroke:#d3d3d3;stroke-width:3;stroke-linecap:round;stroke-linejoin:miter;stroke-miterlimit:4;stroke-dasharray:none;stroke-dashoffset:0;stroke-opacity:1;stop-color:#000000;stop-opacity:1" />
    <path
       id="path2355"
       d="m 259.66373,228.5513 c 0,0 64.84375,160.9375 178.125,203.90625"
       style="font-variation-settings:normal;opacity:1;vector-effect:none;fill:none;fill-opacity:1;stroke:#d3d3d3;stroke-width:3;stroke-linecap:round;stroke-linejoin:miter;stroke-miterlimit:4;stroke-dasharray:none;stroke-dashoffset:0;stroke-opacity:1;stop-color:#000000;stop-opacity:1" />
  </g>
</svg>
