<?xml version="1.0" encoding="UTF-8" standalone="no"?>
<!-- Created with Inkscape (http://www.inkscape.org/) -->

<svg
   xmlns:dc="http://purl.org/dc/elements/1.1/"
   xmlns:cc="http://creativecommons.org/ns#"
   xmlns:rdf="http://www.w3.org/1999/02/22-rdf-syntax-ns#"
   xmlns:svg="http://www.w3.org/2000/svg"
   xmlns="http://www.w3.org/2000/svg"
   xmlns:sodipodi="http://sodipodi.sourceforge.net/DTD/sodipodi-0.dtd"
   xmlns:inkscape="http://www.inkscape.org/namespaces/inkscape"
   width="144.25854mm"
   height="56.365704mm"
   viewBox="0 0 144.25855 56.365706"
   version="1.1"
   id="svg5423"
   sodipodi:docname="cookies.svg"
   inkscape:version="0.92.3 (unknown)"
   inkscape:export-filename="/home/fdf/quickstart/themes/hugo-paper/static/img/logo.png"
   inkscape:export-xdpi="90"
   inkscape:export-ydpi="90">
  <defs
     id="defs5417">
    <style
       id="style961">.cls-1{fill:none;stroke:#000000;stroke-linecap:round;stroke-linejoin:round;stroke-width:4px;}.cls-2{fill:#000000;}</style>
     <style type="text/css">
      @import url('https://fonts.googleapis.com/css?family=Quicksand:300');
     </style>
  </defs>
  <sodipodi:namedview
     id="base"
     pagecolor="#ffffff"
     bordercolor="#666666"
     borderopacity="1.0"
     inkscape:pageopacity="0.0"
     inkscape:pageshadow="2"
     inkscape:zoom="1.4"
     inkscape:cx="299.72807"
     inkscape:cy="172.65349"
     inkscape:document-units="mm"
     inkscape:current-layer="layer1"
     showgrid="false"
     inkscape:window-width="1920"
     inkscape:window-height="1055"
     inkscape:window-x="1600"
     inkscape:window-y="25"
     inkscape:window-maximized="1"
     inkscape:snap-midpoints="true"
     inkscape:snap-global="false" />
  <metadata
     id="metadata5420">
    <rdf:RDF>
      <cc:Work
         rdf:about="">
        <dc:format>image/svg+xml</dc:format>
        <dc:type
           rdf:resource="http://purl.org/dc/dcmitype/StillImage" />
        <dc:title />
      </cc:Work>
    </rdf:RDF>
  </metadata>
  <g
     inkscape:label="Layer 1"
     inkscape:groupmode="layer"
     id="layer1"
     transform="translate(-22.389002,-236.16226)">
    <g
       style="fill:#000000;stroke:none;stroke-width:1.71637249"
       id="g1251-5-1-3"
       transform="matrix(0.44971049,0.37042052,0.37042052,-0.44971049,-35.005151,268.63053)">
      <rect
         ry="0"
         transform="matrix(0.5,-0.8660254,-0.99991011,0.01340771,0,0)"
         y="-168.22519"
         x="-106.98386"
         height="11.294343"
         width="15.668805"
         id="rect1229-6-0-0"
         style="color:#000000;clip-rule:nonzero;display:inline;overflow:visible;visibility:visible;opacity:1;isolation:auto;mix-blend-mode:normal;color-interpolation:sRGB;color-interpolation-filters:linearRGB;solid-color:#000000;solid-opacity:1;fill:#000000;fill-opacity:1;fill-rule:evenodd;stroke:none;stroke-width:1.8516264;stroke-linecap:square;stroke-linejoin:round;stroke-miterlimit:4;stroke-dasharray:none;stroke-dashoffset:0;stroke-opacity:1;paint-order:fill markers stroke;color-rendering:auto;image-rendering:auto;shape-rendering:auto;text-rendering:auto;enable-background:accumulate" />
      <rect
         transform="rotate(30)"
         y="5.2323093"
         x="134.8607"
         height="2.4550581"
         width="9.6449051"
         id="rect1246-5-3-3"
         style="color:#000000;clip-rule:nonzero;display:inline;overflow:visible;visibility:visible;opacity:1;isolation:auto;mix-blend-mode:normal;color-interpolation:sRGB;color-interpolation-filters:linearRGB;solid-color:#000000;solid-opacity:1;fill:#000000;fill-opacity:1;fill-rule:evenodd;stroke:none;stroke-width:1.71637249;stroke-linecap:square;stroke-linejoin:round;stroke-miterlimit:4;stroke-dasharray:none;stroke-dashoffset:0;stroke-opacity:1;paint-order:fill markers stroke;color-rendering:auto;image-rendering:auto;shape-rendering:auto;text-rendering:auto;enable-background:accumulate" />
    </g>
    <text
       xml:space="preserve"
       style="color:#000000;font-style:normal;font-variant:normal;font-weight:normal;font-stretch:normal;font-size:34.21115494px;line-height:129.99999523%;font-family:Quicksand;-inkscape-font-specification:Quicksand;text-indent:0;text-align:start;text-decoration:none;text-decoration-line:none;text-decoration-style:solid;text-decoration-color:#000000;letter-spacing:0px;word-spacing:0px;text-transform:none;writing-mode:lr-tb;direction:ltr;baseline-shift:baseline;text-anchor:start;white-space:normal;clip-rule:nonzero;display:inline;overflow:visible;visibility:visible;opacity:1;isolation:auto;mix-blend-mode:normal;color-interpolation:sRGB;color-interpolation-filters:linearRGB;solid-color:#000000;solid-opacity:1;fill:#000000;fill-opacity:1;fill-rule:nonzero;stroke:none;stroke-width:0.71912861px;stroke-linecap:butt;stroke-linejoin:miter;stroke-miterlimit:4;stroke-dasharray:none;stroke-dashoffset:0;stroke-opacity:1;color-rendering:auto;image-rendering:auto;shape-rendering:auto;text-rendering:auto;enable-background:accumulate"
       x="108.60885"
       y="292.18585"
       id="text1000"><tspan
         sodipodi:role="line"
         id="tspan998"
         x="108.60885"
         y="292.18585"
         style="font-style:normal;font-variant:normal;font-weight:normal;font-stretch:normal;font-family:Quicksand;-inkscape-font-specification:Quicksand;text-align:center;text-anchor:middle;stroke-width:0.71912861px">cookies</tspan></text>
    <path
       style="fill:#000000;stroke-width:0.02763091"
       id="path835"
       d="m 45.005436,250.97084 c -0.774549,-1.17583 -1.680906,-1.92962 -2.51818,-2.34721 -0.836332,-0.422 -1.570799,-0.50541 -1.989084,-0.50432 -0.150205,0 -0.263388,0.0108 -0.33483,0.0212 -9.53e-4,0 -0.0019,4.8e-4 -0.0031,4.8e-4 h -3.609634 c -0.615633,0.69723 -1.513741,1.14003 -2.515351,1.14003 -0.561404,0 -1.090506,-0.14043 -1.556185,-0.38514 -1.277009,0.90019 -2.380483,1.70096 -3.294619,2.39016 l -0.53006,-0.19014 c 0.96719,-0.73536 2.20506,-1.63824 3.755109,-2.72846 0.851417,-0.59935 1.056788,-1.77616 0.456928,-2.62833 -0.599127,-0.85138 -1.775693,-1.05653 -2.627587,-0.4572 -2.667194,1.87688 -4.457038,3.22458 -5.633371,4.21114 -0.04334,0.0378 -0.08348,0.0708 -0.124764,0.10636 -0.526756,0.44799 -0.926161,0.8182 -1.248953,1.17609 -0.175406,0.19622 -0.331524,0.3857 -0.484558,0.63734 -0.140739,0.25624 -0.339757,0.56705 -0.358175,1.21005 -9.53e-4,0.19675 0.03197,0.42308 0.10493,0.64485 0.0201,0.0619 0.04334,0.12237 0.07047,0.18299 0,2.2e-4 4.76e-4,4.7e-4 4.76e-4,9.8e-4 9.52e-4,0.003 0.0014,0.005 0.0023,0.005 0.0042,0.0109 0.01031,0.0159 0.01454,0.027 0.0352,0.0769 0.07496,0.1494 0.11836,0.21842 0.0023,0.003 0.0042,0.005 0.0066,0.0109 0.282719,0.44203 0.713722,0.7161 1.009868,0.81603 0.368037,0.13281 0.624123,0.14148 0.837745,0.14465 0.483148,-0.005 0.804493,-0.0914 1.170201,-0.1859 1.127281,-0.31364 2.532795,-0.91792 3.809339,-1.49419 v 36.20198 c 0,1.61037 1.305535,2.91498 2.915009,2.91498 1.609936,0 2.915479,-1.30461 2.915479,-2.91498 V 267.91104 H 36.4572 v 21.2845 c 0,1.61043 1.305534,2.91504 2.915005,2.91504 1.60994,0 2.915482,-1.30461 2.915482,-2.91504 V 253.8166 c 0.139602,0.28602 0.280117,0.61467 0.41901,0.99758 0.664911,1.8417 1.223489,4.864 1.221364,9.58183 0,1.30011 -0.0417,2.72825 -0.132985,4.29695 -0.06035,1.04005 0.733055,1.93204 1.773807,1.9931 0.03683,0.003 0.07404,0.003 0.111035,0.003 0.991476,0 1.82309,-0.77361 1.881566,-1.77641 0.09523,-1.63566 0.139099,-3.13638 0.139599,-4.5167 -0.0098,-7.11691 -1.146625,-11.05572 -2.695728,-13.42395 z"
       inkscape:connector-curvature="0" />
    <circle
       style="fill:#000000;fill-opacity:1;stroke:none;stroke-width:1;stroke-linecap:round;stroke-linejoin:round;stroke-miterlimit:4;stroke-dasharray:none;stroke-dashoffset:0;stroke-opacity:1;paint-order:markers stroke fill"
       id="path1130"
       cx="35.909576"
       cy="241.50117"
       r="5.3389139" />
    <g
       id="g1128-3-9"
       transform="matrix(0.54403927,0,0,0.54403927,-3.5878572,112.25433)"
       style="fill:#000000;stroke:#ffffff;stroke-width:1.23203933;stroke-miterlimit:4;stroke-dasharray:none;stroke-opacity:1;paint-order:markers stroke fill">
      <path
         inkscape:connector-curvature="0"
         d="m 70.675708,249.76957 c -0.758963,0 -1.376491,-0.61753 -1.376491,-1.37649 0,-0.75896 0.617528,-1.37649 1.376491,-1.37649 0.758963,0 1.376491,0.61753 1.376491,1.37649 0,0.75896 -0.617528,1.37649 -1.376491,1.37649 m -3.61329,-3.95741 c -0.569351,0 -1.032368,-0.46302 -1.032368,-1.03237 0,-0.56935 0.463017,-1.03237 1.032368,-1.03237 0.569351,0 1.032369,0.46302 1.032369,1.03237 0,0.56935 -0.463018,1.03237 -1.032369,1.03237 m 0.172062,3.44123 c -0.474374,0 -0.860307,-0.38594 -0.860307,-0.86031 0,-0.47437 0.385933,-0.86031 0.860307,-0.86031 0.474373,0 0.860307,0.38594 0.860307,0.86031 0,0.47437 -0.385934,0.86031 -0.860307,0.86031 m 7.163089,-3.90545 c -0.01101,-0.0699 -0.06366,-0.12612 -0.132832,-0.14144 -0.06917,-0.015 -0.140574,0.0134 -0.179976,0.0721 -0.22454,0.33414 -0.598429,0.53356 -1.000193,0.53356 -0.431702,0 -0.832949,-0.234 -1.046994,-0.61065 -0.0339,-0.0595 -0.09962,-0.0926 -0.167416,-0.0862 -0.05334,0.006 -0.107366,0.009 -0.162081,0.009 -0.853769,0 -1.684627,-0.88485 -1.5332,-1.54856 0.01835,-0.0804 0.04445,-0.20432 0.04153,-0.27737 -0.0029,-0.073 -0.102316,-0.20741 -0.179092,-0.25593 -0.681243,-0.43049 -0.406597,-1.38953 -0.364494,-1.4854 0.03355,-0.0764 0.121586,-0.19524 0.17665,-0.25977 0.04181,-0.049 0.05265,-0.11751 0.02822,-0.17705 -0.0246,-0.0597 -0.08052,-0.10065 -0.144876,-0.10599 -0.157091,-0.0131 -0.29887,-0.0194 -0.433594,-0.0194 -2.84624,0 -5.161843,2.3156 -5.161843,5.16184 0,2.84624 2.315603,5.16185 5.161843,5.16185 2.84624,0 5.161843,-2.31561 5.161843,-5.16185 0,-0.26859 -0.02134,-0.54061 -0.06349,-0.80834"
         id="path1058-5-1"
         style="fill:#000000;fill-rule:evenodd;stroke:#ffffff;stroke-width:1.23203933;stroke-miterlimit:4;stroke-dasharray:none;stroke-opacity:1;paint-order:markers stroke fill"
         sodipodi:nodetypes="csssccsssccsssccccsccsszsscccssssc" />
    </g>
    <g
       id="g1128"
       transform="matrix(0.54403926,0,0,0.54403926,-3.587856,112.25433)"
       style="stroke-width:1.8381027">
      <path
         inkscape:connector-curvature="0"
         d="m 67.062418,244.09155 c -0.379567,0 -0.688245,0.30867 -0.688245,0.68824 0,0.37957 0.308678,0.68825 0.688245,0.68825 0.379568,0 0.688246,-0.30868 0.688246,-0.68825 0,-0.37957 -0.308678,-0.68824 -0.688246,-0.68824"
         id="path1052"
         style="fill:#000000;fill-rule:evenodd;stroke:none;stroke-width:0.31626654" />
      <path
         inkscape:connector-curvature="0"
         d="m 67.23448,247.8769 c -0.28459,0 -0.516185,0.23159 -0.516185,0.51618 0,0.28459 0.231595,0.51619 0.516185,0.51619 0.284589,0 0.516184,-0.2316 0.516184,-0.51619 0,-0.28459 -0.231595,-0.51618 -0.516184,-0.51618"
         id="path1056"
         style="fill:#000000;fill-rule:evenodd;stroke:none;stroke-width:0.31626654" />
      <path
         inkscape:connector-curvature="0"
         d="m 70.675708,247.36071 c -0.569351,0 -1.032368,0.46302 -1.032368,1.03237 0,0.56935 0.463017,1.03237 1.032368,1.03237 0.569351,0 1.032369,-0.46302 1.032369,-1.03237 0,-0.56935 -0.463018,-1.03237 -1.032369,-1.03237"
         id="path1060"
         style="fill:#000000;fill-rule:evenodd;stroke:none;stroke-width:0.31626654" />
    </g>
  </g>
</svg>
