<?xml version="1.0" encoding="UTF-8" standalone="no"?>
<!-- Created with Inkscape (http://www.inkscape.org/) -->

<svg
   xmlns:osb="http://www.openswatchbook.org/uri/2009/osb"
   xmlns:dc="http://purl.org/dc/elements/1.1/"
   xmlns:cc="http://creativecommons.org/ns#"
   xmlns:rdf="http://www.w3.org/1999/02/22-rdf-syntax-ns#"
   xmlns:svg="http://www.w3.org/2000/svg"
   xmlns="http://www.w3.org/2000/svg"
   xmlns:sodipodi="http://sodipodi.sourceforge.net/DTD/sodipodi-0.dtd"
   xmlns:inkscape="http://www.inkscape.org/namespaces/inkscape"
   width="435.80212pt"
   height="399.57071pt"
   viewBox="0 0 153.7413 140.95965"
   version="1.1"
   id="svg13550"
   inkscape:version="0.92.4 (unknown)"
   sodipodi:docname="op_schaal_enkel_groottes.svg">
  <defs
     id="defs13544">
    <linearGradient
       osb:paint="gradient"
       id="linearGradient18201">
      <stop
         id="stop18203"
         offset="0"
         style="stop-color:#cc0000;stop-opacity:1;" />
      <stop
         id="stop18205"
         offset="1"
         style="stop-color:#cc0000;stop-opacity:0;" />
    </linearGradient>
  </defs>
  <sodipodi:namedview
     id="base"
     pagecolor="#ffffff"
     bordercolor="#666666"
     borderopacity="1.0"
     inkscape:pageopacity="0.0"
     inkscape:pageshadow="2"
     inkscape:zoom="1"
     inkscape:cx="455.44951"
     inkscape:cy="288.41735"
     inkscape:document-units="mm"
     inkscape:current-layer="layer1"
     showgrid="false"
     inkscape:window-width="1920"
     inkscape:window-height="1055"
     inkscape:window-x="1600"
     inkscape:window-y="25"
     inkscape:window-maximized="1"
     units="pt"
     inkscape:snap-page="true"
     inkscape:snap-global="false"
     inkscape:object-paths="true"
     inkscape:snap-bbox="true"
     inkscape:bbox-paths="true"
     showguides="true"
     inkscape:guide-bbox="true"
     inkscape:snap-midpoints="true" />
  <metadata
     id="metadata13547">
    <rdf:RDF>
      <cc:Work
         rdf:about="">
        <dc:format>image/svg+xml</dc:format>
        <dc:type
           rdf:resource="http://purl.org/dc/dcmitype/StillImage" />
        <dc:title></dc:title>
      </cc:Work>
    </rdf:RDF>
  </metadata>
  <g
     inkscape:label="Layer 1"
     inkscape:groupmode="layer"
     id="layer1"
     transform="translate(-8.6213531,-71.043572)">
    <text
       xml:space="preserve"
       style="font-style:normal;font-variant:normal;font-weight:normal;font-stretch:normal;font-size:4.23333311px;line-height:1.25;font-family:Quicksand;-inkscape-font-specification:'Quicksand, Normal';font-variant-ligatures:normal;font-variant-caps:normal;font-variant-numeric:normal;font-feature-settings:normal;text-align:end;letter-spacing:0px;word-spacing:0px;writing-mode:lr-tb;text-anchor:end;fill:#d3d3d3;fill-opacity:1;stroke:none;stroke-width:0.26458332"
       x="162.30548"
       y="211.13452"
       id="text7806"><tspan
         sodipodi:role="line"
         id="tspan7804"
         x="162.30548"
         y="211.13452"
         style="font-style:normal;font-variant:normal;font-weight:normal;font-stretch:normal;font-size:4.23333311px;font-family:Quicksand;-inkscape-font-specification:'Quicksand, Normal';font-variant-ligatures:normal;font-variant-caps:normal;font-variant-numeric:normal;font-feature-settings:normal;text-align:end;writing-mode:lr-tb;text-anchor:end;fill:#d3d3d3;stroke-width:0.26458332">Meer op: https://hoezithet.nu</tspan></text>
    <path
       style="fill:none;stroke:none;stroke-width:0.26458332px;stroke-linecap:butt;stroke-linejoin:miter;stroke-opacity:1"
       d="M 8.6213531,71.043572 H 162.36266"
       id="path26864"
       inkscape:connector-curvature="0" />
    <g
       id="g104290"
       transform="matrix(1.8375375,0,0,1.8375375,-64.928927,-314.05487)"
       style="stroke-width:0.54420662">
      <text
         xml:space="preserve"
         style="font-style:normal;font-variant:normal;font-weight:normal;font-stretch:normal;font-size:3.45571184px;line-height:1;font-family:Quicksand;-inkscape-font-specification:'Quicksand, Normal';font-variant-ligatures:normal;font-variant-position:normal;font-variant-caps:normal;font-variant-numeric:normal;font-variant-alternates:normal;font-feature-settings:normal;text-indent:0;text-align:center;text-decoration:none;text-decoration-line:none;text-decoration-style:solid;text-decoration-color:#000000;letter-spacing:0px;word-spacing:0px;text-transform:none;writing-mode:lr-tb;direction:ltr;text-orientation:mixed;dominant-baseline:auto;baseline-shift:baseline;text-anchor:middle;white-space:normal;shape-padding:0;opacity:1;vector-effect:none;fill:#555555;fill-opacity:1;stroke:none;stroke-width:0.3913545px;stroke-linecap:butt;stroke-linejoin:miter;stroke-miterlimit:4;stroke-dasharray:none;stroke-dashoffset:0;stroke-opacity:1"
         x="81.845322"
         y="213.56232"
         id="text104354"><tspan
           sodipodi:role="line"
           x="81.845322"
           y="213.56232"
           style="font-style:normal;font-variant:normal;font-weight:normal;font-stretch:normal;font-size:3.45571184px;line-height:1;font-family:Quicksand;-inkscape-font-specification:'Quicksand, Normal';font-variant-ligatures:normal;font-variant-caps:normal;font-variant-numeric:normal;font-feature-settings:normal;text-align:center;writing-mode:lr-tb;text-anchor:middle;fill:#555555;stroke-width:0.3913545px"
           id="tspan115641">De zon, aarde en maan op schaal</tspan><tspan
           sodipodi:role="line"
           x="81.845322"
           y="217.01804"
           style="font-style:normal;font-variant:normal;font-weight:normal;font-stretch:normal;font-size:3.45571184px;line-height:1;font-family:Quicksand;-inkscape-font-specification:'Quicksand, Normal';font-variant-ligatures:normal;font-variant-caps:normal;font-variant-numeric:normal;font-feature-settings:normal;text-align:center;writing-mode:lr-tb;text-anchor:middle;fill:#d3d3d3;stroke-width:0.3913545px"
           id="tspan16266">(enkel groottes)</tspan></text>
    </g>
    <circle
       cy="149.00696"
       cx="71.722488"
       id="path10138"
       style="color:#000000;clip-rule:nonzero;display:inline;overflow:visible;visibility:visible;opacity:1;isolation:auto;mix-blend-mode:normal;color-interpolation:sRGB;color-interpolation-filters:linearRGB;solid-color:#000000;solid-opacity:1;fill:#ffb700;fill-opacity:1;fill-rule:nonzero;stroke:none;stroke-width:85.50445557;stroke-linecap:butt;stroke-linejoin:miter;stroke-miterlimit:4;stroke-dasharray:none;stroke-dashoffset:0;stroke-opacity:1;color-rendering:auto;image-rendering:auto;shape-rendering:auto;text-rendering:auto;enable-background:accumulate"
       r="60.189026" />
    <g
       transform="matrix(0.01790436,0,0,0.01790436,137.21192,147.65346)"
       id="g27576-0-31"
       style="stroke-width:3.30289221">
      <path
         inkscape:connector-curvature="0"
         id="path27493-2-2"
         d="m 386.06307,75.581291 a 30.760397,30.760397 0 0 1 -30.7604,30.760399 30.760397,30.760397 0 0 1 -30.7604,-30.760399 30.760397,30.760397 0 0 1 30.7604,-30.760397 30.760397,30.760397 0 0 1 30.7604,30.760397 z"
         style="color:#000000;clip-rule:nonzero;display:inline;overflow:visible;visibility:visible;opacity:1;isolation:auto;mix-blend-mode:normal;color-interpolation:sRGB;color-interpolation-filters:linearRGB;solid-color:#000000;solid-opacity:1;fill:#669900;fill-opacity:1;fill-rule:evenodd;stroke:none;stroke-width:8.54458141;stroke-linecap:round;stroke-linejoin:miter;stroke-miterlimit:4;stroke-dasharray:none;stroke-dashoffset:0;stroke-opacity:0.39215686;color-rendering:auto;image-rendering:auto;shape-rendering:auto;text-rendering:auto;enable-background:accumulate" />
      <path
         inkscape:connector-curvature="0"
         id="path27539-4-4"
         d="m 355.88938,44.817876 -0.88088,0.409139 -1.07622,-0.3909 a 30.793089,30.793089 0 0 0 -0.2762,0.01042 c -0.61603,0.05168 -1.23099,0.10949 -1.84515,0.177217 a 30.793089,30.793089 0 0 0 -0.89116,0.10945 c -0.69102,0.09557 -1.3811,0.211535 -2.06398,0.377864 l 0.89129,0.323146 1.51666,-0.708829 3.3382,1.216998 0.7089,1.516688 -1.51666,0.708829 1.11278,0.403922 0.70622,1.516688 -1.51679,0.708829 -1.5192,0.708829 -1.11277,-0.406538 -0.70623,-1.516687 -1.11278,-0.406525 2.62944,-0.302304 -0.70623,-1.516688 -2.63197,0.302305 -0.40402,1.112752 -2.22555,-0.810461 -4.14864,1.011121 -0.40655,1.112765 0.70876,1.516687 1.11278,0.406525 -0.81043,2.225516 1.11278,0.403936 0.40388,-1.112765 3.03599,-1.415056 -0.70623,-1.516674 1.51666,-0.708829 2.22556,0.81046 -0.40388,1.112751 0.70622,1.516688 1.5192,-0.706227 0.30234,2.629452 1.82154,1.923212 -1.92321,1.821594 1.11278,0.403922 0.30235,2.632055 -1.82168,-1.923226 -1.11278,-0.406537 1.51933,-0.706214 0.40402,-1.112765 -1.5168,0.706227 -2.22542,-0.81046 -1.51933,0.708829 1.11278,0.403923 0.70876,1.519289 -3.74475,-0.101631 -1.11278,-0.406538 -0.40388,1.112765 -2.63211,0.302291 -1.92054,1.821595 -3.03599,1.415043 0.30221,2.632054 -1.5192,0.706227 -0.70622,-1.516687 -0.7089,-1.51929 -2.22556,-0.807858 -1.92321,1.818979 -0.81043,2.225516 0.70889,1.51929 1.5192,-0.708829 2.62944,-0.302292 -1.51666,0.706214 -0.81043,2.225517 1.11277,0.406537 -0.40655,1.112752 0.30235,2.629452 1.11264,0.406525 1.51933,-0.708829 2.62944,-0.302292 0.7089,1.519289 3.3382,1.214397 1.41512,3.035976 2.22542,0.81046 1.41766,3.033375 2.93179,2.32975 1.82154,1.923225 0.30234,2.629439 -2.63211,0.302305 -1.21431,3.338268 -2.62944,0.302291 -1.11278,-0.403922 -0.81043,2.225517 -3.03599,1.415043 -0.40389,1.112767 -1.51932,0.70883 0.25017,0.53422 a 30.793089,30.793089 0 0 0 1.75376,1.07628 c 0.0379,0.0206 0.0768,0.0395 0.11475,0.0599 a 30.793089,30.793089 0 0 0 2.63717,1.27433 c 0.0733,0.031 0.14811,0.0582 0.22163,0.0886 a 30.793089,30.793089 0 0 0 2.22022,0.80786 c 0.26752,0.0882 0.53464,0.18012 0.80269,0.26061 a 30.793089,30.793089 0 0 0 5.60552,1.12839 c 0.0903,0.01 0.18053,0.0173 0.27099,0.026 a 30.793089,30.793089 0 0 0 2.92645,0.14595 30.793089,30.793089 0 0 0 2.17859,-0.0756 30.793089,30.793089 0 0 0 2.83011,-0.34399 c 0.25725,-0.0439 0.51062,-0.10056 0.76627,-0.15114 a 30.793089,30.793089 0 0 0 0.94333,-0.21108 l 0.35438,-0.97204 3.44254,-2.52781 0.40388,-1.11275 1.92321,-1.821599 1.11278,0.406538 1.21445,-3.338268 -0.70623,-1.519303 1.92055,-1.818979 -0.70623,-1.519289 -2.63197,0.302291 -2.22556,-0.807845 -1.81901,-1.923225 -0.30221,-2.632054 -0.70889,-1.516687 0.40388,-1.112752 1.51933,-0.708829 0.81043,-2.225517 2.32723,-2.934345 1.11278,0.406537 1.92321,-1.821594 1.51666,-0.706214 0.40655,-1.112765 -2.22556,-0.81046 0.81044,-2.225516 1.51679,-0.708829 2.22543,0.81046 0.40401,-1.112752 -0.70623,-1.516687 -0.70889,-1.51929 1.11278,0.406538 -0.70623,-1.519289 0.40388,-1.112765 -1.11278,-0.403923 -0.40388,1.112752 -1.11278,-0.406538 0.8079,-2.225503 1.11531,0.406524 -0.70876,-1.519289 1.11278,0.406538 1.41499,3.033375 -0.81043,2.228118 1.92321,-1.821594 1.11278,0.403936 0.81043,-2.225517 -1.11278,-0.403936 -0.30221,-2.632041 1.51666,-0.706227 -0.30234,-2.632054 0.60722,-0.643677 a 30.793089,30.793089 0 0 0 -0.2814,-0.3909 c -0.15277,-0.203903 -0.30581,-0.407165 -0.46392,-0.607185 a 30.793089,30.793089 0 0 0 -9.47022,-7.820576 l -1.01111,0.557683 1.819,1.92061 -1.51666,0.708829 -0.81043,2.225517 -2.63211,0.302291 -2.22555,-0.81046 -1.92322,1.821581 -1.51666,0.708829 -1.82154,-1.923212 0.10421,-3.744806 1.92321,-1.818979 -0.70876,-1.519302 -2.22556,-0.81046 0.40388,-1.112752 c -0.18372,-0.02809 -0.36919,-0.03461 -0.55505,-0.04691 a 30.793089,30.793089 0 0 0 -1.1935,-0.05994 z m 17.0171,30.870551 2.22556,0.810461 1.51919,-0.70883 2.22556,0.810461 0.30234,2.629439 0.70877,1.519302 1.11277,0.403923 1.51667,-0.706227 0.70889,1.516687 1.11278,0.403936 -0.30235,-2.629453 -1.11277,-0.403922 -0.30488,-2.632054 -1.92322,1.821594 -0.70622,-1.51929 1.51666,-0.706227 -2.52777,-3.442514 -1.11278,-0.403923 -1.11278,-0.406537 0.7089,1.519289 -1.11278,-0.406538 -0.81057,2.228132 -1.11264,-0.406538 z m -5.053,-20.743682 1.11278,0.406538 2.22809,0.807859 0.70623,1.519289 -2.62944,0.302291 -0.7089,-1.516687 z m 12.94919,5.972938 0.30221,2.632041 1.11278,0.403936 -0.30235,-2.629453 z m 1.41499,3.035977 -0.8079,2.225516 -1.5192,0.708816 1.11278,0.403936 1.5192,-0.706227 0.40401,-1.112752 z m -55.62998,0.601981 a 30.793089,30.793089 0 0 0 -0.46139,1.263897 c -0.13222,0.39553 -0.26245,0.791033 -0.37786,1.188338 a 30.793089,30.793089 0 0 0 -0.4247,1.667833 c -0.0837,0.363454 -0.17772,0.725201 -0.24764,1.089309 a 30.793089,30.793089 0 0 0 -0.31528,2.100415 c -0.0288,0.238714 -0.0759,0.478041 -0.099,0.716648 a 30.793089,30.793089 0 0 0 -0.0131,0.237153 30.793089,30.793089 0 0 0 -0.11982,2.423562 c -0.0128,1.434123 0.0862,2.856744 0.27099,4.263408 a 30.793089,30.793089 0 0 0 0.0809,0.664518 c 0.10367,0.6759 0.23509,1.343874 0.38306,2.009219 a 30.793089,30.793089 0 0 0 0.11462,0.505567 c 0.17332,0.722492 0.36479,1.440848 0.58894,2.147328 a 30.793089,30.793089 0 0 0 0.0339,0.09903 c 0.98976,3.083076 2.45679,5.996554 4.34678,8.623218 a 30.793089,30.793089 0 0 0 0.0626,0.08861 c 0.4722,0.651416 0.96975,1.286046 1.49318,1.899769 1.60045,1.876512 3.43654,3.570604 5.48304,5.024337 l -1.01111,-4.148725 -0.20067,-6.374258 -1.81901,-1.923212 -2.12389,-4.555279 -0.30221,-2.629439 1.92322,-1.821581 0.81043,-2.225516 -1.51933,0.708829 -1.82154,-1.923225 -0.30235,-2.62944 -1.11277,-0.406537 -0.70623,-1.516688 -1.11265,-0.406524 -1.41779,-3.035977 0.40655,-1.112765 -0.48981,-2.01182 z m 8.27913,4.847137 1.11278,0.406537 1.82154,1.923212 -1.11265,-0.406524 z m 0.30234,2.632054 1.11278,0.403922 -1.51666,0.70883 z m 3.74475,0.101631 1.11278,0.403923 -0.40655,1.112764 -2.22542,-0.807858 z m 46.03487,1.631354 -0.81043,2.225504 1.11264,0.406537 0.77921,0.284052 c 0.009,-0.341986 0.05,-0.770352 0.0652,-1.128389 a 30.793089,30.793089 0 0 0 -0.005,-0.10945 l -0.43523,-0.158964 -0.70623,-1.51929 z"
         style="color:#000000;clip-rule:nonzero;display:inline;overflow:visible;visibility:visible;opacity:1;isolation:auto;mix-blend-mode:normal;color-interpolation:sRGB;color-interpolation-filters:linearRGB;solid-color:#000000;solid-opacity:1;fill:#357edd;fill-opacity:1;fill-rule:evenodd;stroke:none;stroke-width:8.54458141;stroke-linecap:round;stroke-linejoin:miter;stroke-miterlimit:4;stroke-dasharray:none;stroke-dashoffset:0;stroke-opacity:0.39215686;color-rendering:auto;image-rendering:auto;shape-rendering:auto;text-rendering:auto;enable-background:accumulate" />
    </g>
    <g
       transform="matrix(0.03964362,0,0,0.03964362,152.72095,139.6548)"
       id="g1998">
      <circle
         r="3.7885456"
         cy="235.90559"
         cx="67.219299"
         id="path1252-4"
         style="opacity:1;fill:#d3d3d3;fill-opacity:1;stroke:none;stroke-width:0.35299999;stroke-linecap:round;stroke-linejoin:round;stroke-miterlimit:4;stroke-dasharray:none;stroke-dashoffset:0;stroke-opacity:1;paint-order:markers stroke fill" />
      <g
         id="g1985">
        <ellipse
           style="opacity:1;fill:#555555;fill-opacity:1;stroke:none;stroke-width:0.35299999;stroke-linecap:round;stroke-linejoin:round;stroke-miterlimit:4;stroke-dasharray:none;stroke-dashoffset:0;stroke-opacity:1;paint-order:markers stroke fill"
           id="path1958"
           cx="-57.051212"
           cy="237.80627"
           rx="0.8652851"
           ry="1.403165"
           transform="rotate(-30)" />
        <ellipse
           style="opacity:1;fill:#555555;fill-opacity:1;stroke:none;stroke-width:0.35299999;stroke-linecap:round;stroke-linejoin:round;stroke-miterlimit:4;stroke-dasharray:none;stroke-dashoffset:0;stroke-opacity:1;paint-order:markers stroke fill"
           id="path1960"
           cx="6.7554026"
           cy="246.55066"
           rx="0.25724691"
           ry="0.43264255"
           transform="rotate(-15)" />
        <ellipse
           style="opacity:1;fill:#555555;fill-opacity:1;stroke:none;stroke-width:0.35299999;stroke-linecap:round;stroke-linejoin:round;stroke-miterlimit:4;stroke-dasharray:none;stroke-dashoffset:0;stroke-opacity:1;paint-order:markers stroke fill"
           id="path1962"
           cx="69.670723"
           cy="236.71693"
           rx="0.19878171"
           ry="0.23386084" />
        <ellipse
           style="opacity:1;fill:#555555;fill-opacity:1;stroke:none;stroke-width:0.35299999;stroke-linecap:round;stroke-linejoin:round;stroke-miterlimit:4;stroke-dasharray:none;stroke-dashoffset:0;stroke-opacity:1;paint-order:markers stroke fill"
           id="path1964"
           cx="68.76445"
           cy="236.02324"
           rx="0.18190104"
           ry="0.1984375" />
        <ellipse
           style="opacity:1;fill:#555555;fill-opacity:1;stroke:none;stroke-width:0.35299999;stroke-linecap:round;stroke-linejoin:round;stroke-miterlimit:4;stroke-dasharray:none;stroke-dashoffset:0;stroke-opacity:1;paint-order:markers stroke fill"
           id="path1966"
           cx="215.78638"
           cy="120.10563"
           rx="0.31419271"
           ry="0.24804688"
           transform="rotate(45)" />
        <ellipse
           style="opacity:1;fill:#555555;fill-opacity:1;stroke:none;stroke-width:0.35299999;stroke-linecap:round;stroke-linejoin:round;stroke-miterlimit:4;stroke-dasharray:none;stroke-dashoffset:0;stroke-opacity:1;paint-order:markers stroke fill"
           id="path1968"
           cx="-64.503593"
           cy="238.89449"
           rx="0.07441406"
           ry="0.082682289"
           transform="rotate(-30.375467)" />
        <ellipse
           style="opacity:1;fill:#555555;fill-opacity:1;stroke:none;stroke-width:0.35299999;stroke-linecap:round;stroke-linejoin:round;stroke-miterlimit:4;stroke-dasharray:none;stroke-dashoffset:0;stroke-opacity:1;paint-order:markers stroke fill"
           id="path1970"
           cx="222.5988"
           cy="108.77994"
           rx="0.090950519"
           ry="0.082682289"
           transform="rotate(48.654339)" />
        <circle
           style="opacity:1;fill:#555555;fill-opacity:1;stroke:none;stroke-width:0.35299999;stroke-linecap:round;stroke-linejoin:round;stroke-miterlimit:4;stroke-dasharray:none;stroke-dashoffset:0;stroke-opacity:1;paint-order:markers stroke fill"
           id="path1972"
           cx="67.447464"
           cy="237.9731"
           r="0.064311728" />
        <circle
           style="opacity:1;fill:#555555;fill-opacity:1;stroke:none;stroke-width:0.35299999;stroke-linecap:round;stroke-linejoin:round;stroke-miterlimit:4;stroke-dasharray:none;stroke-dashoffset:0;stroke-opacity:1;paint-order:markers stroke fill"
           id="path1974"
           cx="68.929817"
           cy="238.41275"
           r="0.06614583" />
      </g>
      <g
         id="g1097">
        <path
           transform="scale(-1,1)"
           d="m -67.219299,232.11705 a 3.7885458,3.7885458 0 0 1 3.788546,3.78854 3.7885458,3.7885458 0 0 1 -3.788546,3.78855 l 0,-3.78855 z"
           sodipodi:end="1.5707963"
           sodipodi:start="4.712389"
           sodipodi:ry="3.7885458"
           sodipodi:rx="3.7885458"
           sodipodi:cy="235.90559"
           sodipodi:cx="-67.219299"
           sodipodi:type="arc"
           style="opacity:0.8;fill:none;fill-opacity:1;stroke:none;stroke-width:0.35299999;stroke-linecap:round;stroke-linejoin:round;stroke-miterlimit:4;stroke-dasharray:none;stroke-dashoffset:0;stroke-opacity:1;paint-order:markers stroke fill"
           id="path1252-4-9-6" />
      </g>
    </g>
    <path
       style="opacity:1;vector-effect:none;fill:none;fill-opacity:1;stroke:#555555;stroke-width:0.35277778;stroke-linecap:round;stroke-linejoin:miter;stroke-miterlimit:4;stroke-dasharray:none;stroke-dashoffset:0;stroke-opacity:1"
       d="m 143.625,151.01678 c 0,7.01145 -2.61804,12.1385 -3.80197,14.18912"
       id="path16272"
       inkscape:connector-curvature="0" />
    <text
       xml:space="preserve"
       style="font-style:normal;font-variant:normal;font-weight:normal;font-stretch:normal;font-size:6.3499999px;line-height:1.29999995;font-family:Quicksand;-inkscape-font-specification:'Quicksand, Normal';font-variant-ligatures:normal;font-variant-position:normal;font-variant-caps:normal;font-variant-numeric:normal;font-variant-alternates:normal;font-feature-settings:normal;text-indent:0;text-align:center;text-decoration:none;text-decoration-line:none;text-decoration-style:solid;text-decoration-color:#000000;letter-spacing:0px;word-spacing:0px;text-transform:none;writing-mode:lr-tb;direction:ltr;text-orientation:mixed;dominant-baseline:auto;baseline-shift:baseline;text-anchor:middle;white-space:normal;shape-padding:0;opacity:1;vector-effect:none;fill:#555555;fill-opacity:1;stroke:none;stroke-width:0.71912861px;stroke-linecap:butt;stroke-linejoin:miter;stroke-miterlimit:4;stroke-dasharray:none;stroke-dashoffset:0;stroke-opacity:1"
       x="139.12708"
       y="171.38968"
       id="text16276"><tspan
         sodipodi:role="line"
         id="tspan16274"
         x="139.12708"
         y="171.38968"
         style="stroke-width:0.71912861px">Aarde</tspan></text>
    <path
       style="opacity:1;vector-effect:none;fill:none;fill-opacity:1;stroke:#555555;stroke-width:0.35277778;stroke-linecap:round;stroke-linejoin:miter;stroke-miterlimit:4;stroke-dasharray:none;stroke-dashoffset:0;stroke-opacity:1"
       d="m 155.4651,150.48761 c 0,6.15156 -0.79375,9.26042 -0.79375,9.26042"
       id="path16278"
       inkscape:connector-curvature="0" />
    <text
       xml:space="preserve"
       style="font-style:normal;font-variant:normal;font-weight:normal;font-stretch:normal;font-size:4.23333311px;line-height:1.29999995;font-family:Quicksand;-inkscape-font-specification:'Quicksand, Normal';font-variant-ligatures:normal;font-variant-position:normal;font-variant-caps:normal;font-variant-numeric:normal;font-variant-alternates:normal;font-feature-settings:normal;text-indent:0;text-align:center;text-decoration:none;text-decoration-line:none;text-decoration-style:solid;text-decoration-color:#000000;letter-spacing:0px;word-spacing:0px;text-transform:none;writing-mode:lr-tb;direction:ltr;text-orientation:mixed;dominant-baseline:auto;baseline-shift:baseline;text-anchor:middle;white-space:normal;shape-padding:0;opacity:1;vector-effect:none;fill:#555555;fill-opacity:1;stroke:none;stroke-width:0.71912861px;stroke-linecap:butt;stroke-linejoin:miter;stroke-miterlimit:4;stroke-dasharray:none;stroke-dashoffset:0;stroke-opacity:1"
       x="154.40677"
       y="163.91521"
       id="text16282"><tspan
         sodipodi:role="line"
         id="tspan16280"
         x="154.40677"
         y="163.91521"
         style="font-size:4.23333311px;stroke-width:0.71912861px">Maan</tspan></text>
    <text
       xml:space="preserve"
       style="font-style:normal;font-variant:normal;font-weight:normal;font-stretch:normal;font-size:6.3499999px;line-height:1.29999995;font-family:Quicksand;-inkscape-font-specification:'Quicksand, Normal';font-variant-ligatures:normal;font-variant-position:normal;font-variant-caps:normal;font-variant-numeric:normal;font-variant-alternates:normal;font-feature-settings:normal;text-indent:0;text-align:center;text-decoration:none;text-decoration-line:none;text-decoration-style:solid;text-decoration-color:#000000;letter-spacing:0px;word-spacing:0px;text-transform:none;writing-mode:lr-tb;direction:ltr;text-orientation:mixed;dominant-baseline:auto;baseline-shift:baseline;text-anchor:middle;white-space:normal;shape-padding:0;opacity:1;vector-effect:none;fill:#555555;fill-opacity:1;stroke:none;stroke-width:0.71912861px;stroke-linecap:butt;stroke-linejoin:miter;stroke-miterlimit:4;stroke-dasharray:none;stroke-dashoffset:0;stroke-opacity:1"
       x="71.799088"
       y="151.19771"
       id="text16286"><tspan
         sodipodi:role="line"
         id="tspan16284"
         x="71.799088"
         y="151.19771"
         style="stroke-width:0.71912861px">Zon</tspan></text>
  </g>
</svg>
