<svg xmlns:xlink="http://www.w3.org/1999/xlink" width="1150" height="815" xmlns="http://www.w3.org/2000/svg" version="1.1"><defs><clipPath id="wHTenLNuzyib"><path fill="none" stroke="none" d="M 0 0 L 1150 0 L 1150 815 L 0 815 L 0 0 Z" /></clipPath></defs><g clip-path="url(&quot;#wHTenLNuzyib&quot;)" transform="scale(1)"><g><rect fill="rgb(255, 255, 255)" fill-opacity="1" stroke="none" x="0" y="0" width="1150" height="815" /><path fill="none" stroke="rgb(192, 192, 192)" stroke-linecap="round" stroke-linejoin="round" stroke-miterlimit="10" stroke-opacity="1" d="M 54.5 0.5 L 54.5 815.5 M 109.5 0.5 L 109.5 815.5 M 164.5 0.5 L 164.5 815.5 M 218.5 0.5 L 218.5 815.5 M 273.5 0.5 L 273.5 815.5 M 327.5 0.5 L 327.5 815.5 M 382.5 0.5 L 382.5 815.5 M 436.5 0.5 L 436.5 815.5 M 491.5 0.5 L 491.5 815.5 M 545.5 0.5 L 545.5 815.5 M 600.5 0.5 L 600.5 815.5 M 655.5 0.5 L 655.5 815.5 M 709.5 0.5 L 709.5 815.5 M 764.5 0.5 L 764.5 815.5 M 818.5 0.5 L 818.5 815.5 M 873.5 0.5 L 873.5 815.5 M 927.5 0.5 L 927.5 815.5 M 982.5 0.5 L 982.5 815.5 M 1036.5 0.5 L 1036.5 815.5 M 1091.5 0.5 L 1091.5 815.5 M 1146.5 0.5 L 1146.5 815.5" paint-order="fill stroke markers" /><path fill="none" stroke="rgb(192, 192, 192)" stroke-linecap="round" stroke-linejoin="round" stroke-miterlimit="10" stroke-opacity="0.235294" d="M 11.5 0.5 L 11.5 815.5 M 22.5 0.5 L 22.5 815.5 M 33.5 0.5 L 33.5 815.5 M 43.5 0.5 L 43.5 815.5 M 65.5 0.5 L 65.5 815.5 M 76.5 0.5 L 76.5 815.5 M 87.5 0.5 L 87.5 815.5 M 98.5 0.5 L 98.5 815.5 M 120.5 0.5 L 120.5 815.5 M 131.5 0.5 L 131.5 815.5 M 142.5 0.5 L 142.5 815.5 M 153.5 0.5 L 153.5 815.5 M 174.5 0.5 L 174.5 815.5 M 185.5 0.5 L 185.5 815.5 M 196.5 0.5 L 196.5 815.5 M 207.5 0.5 L 207.5 815.5 M 229.5 0.5 L 229.5 815.5 M 240.5 0.5 L 240.5 815.5 M 251.5 0.5 L 251.5 815.5 M 262.5 0.5 L 262.5 815.5 M 284.5 0.5 L 284.5 815.5 M 294.5 0.5 L 294.5 815.5 M 305.5 0.5 L 305.5 815.5 M 316.5 0.5 L 316.5 815.5 M 338.5 0.5 L 338.5 815.5 M 349.5 0.5 L 349.5 815.5 M 360.5 0.5 L 360.5 815.5 M 371.5 0.5 L 371.5 815.5 M 393.5 0.5 L 393.5 815.5 M 404.5 0.5 L 404.5 815.5 M 414.5 0.5 L 414.5 815.5 M 425.5 0.5 L 425.5 815.5 M 447.5 0.5 L 447.5 815.5 M 458.5 0.5 L 458.5 815.5 M 469.5 0.5 L 469.5 815.5 M 480.5 0.5 L 480.5 815.5 M 502.5 0.5 L 502.5 815.5 M 513.5 0.5 L 513.5 815.5 M 524.5 0.5 L 524.5 815.5 M 535.5 0.5 L 535.5 815.5 M 556.5 0.5 L 556.5 815.5 M 567.5 0.5 L 567.5 815.5 M 578.5 0.5 L 578.5 815.5 M 589.5 0.5 L 589.5 815.5 M 611.5 0.5 L 611.5 815.5 M 622.5 0.5 L 622.5 815.5 M 633.5 0.5 L 633.5 815.5 M 644.5 0.5 L 644.5 815.5 M 665.5 0.5 L 665.5 815.5 M 676.5 0.5 L 676.5 815.5 M 687.5 0.5 L 687.5 815.5 M 698.5 0.5 L 698.5 815.5 M 720.5 0.5 L 720.5 815.5 M 731.5 0.5 L 731.5 815.5 M 742.5 0.5 L 742.5 815.5 M 753.5 0.5 L 753.5 815.5 M 775.5 0.5 L 775.5 815.5 M 785.5 0.5 L 785.5 815.5 M 796.5 0.5 L 796.5 815.5 M 807.5 0.5 L 807.5 815.5 M 829.5 0.5 L 829.5 815.5 M 840.5 0.5 L 840.5 815.5 M 851.5 0.5 L 851.5 815.5 M 862.5 0.5 L 862.5 815.5 M 884.5 0.5 L 884.5 815.5 M 895.5 0.5 L 895.5 815.5 M 906.5 0.5 L 906.5 815.5 M 916.5 0.5 L 916.5 815.5 M 938.5 0.5 L 938.5 815.5 M 949.5 0.5 L 949.5 815.5 M 960.5 0.5 L 960.5 815.5 M 971.5 0.5 L 971.5 815.5 M 993.5 0.5 L 993.5 815.5 M 1004.5 0.5 L 1004.5 815.5 M 1015.5 0.5 L 1015.5 815.5 M 1026.5 0.5 L 1026.5 815.5 M 1047.5 0.5 L 1047.5 815.5 M 1058.5 0.5 L 1058.5 815.5 M 1069.5 0.5 L 1069.5 815.5 M 1080.5 0.5 L 1080.5 815.5 M 1102.5 0.5 L 1102.5 815.5 M 1113.5 0.5 L 1113.5 815.5 M 1124.5 0.5 L 1124.5 815.5 M 1135.5 0.5 L 1135.5 815.5" paint-order="fill stroke markers" /><path fill="none" stroke="rgb(192, 192, 192)" stroke-linecap="round" stroke-linejoin="round" stroke-miterlimit="10" stroke-opacity="1" d="M 0.5 23.5 L 1150.5 23.5 M 0.5 23.5 L 1150.5 23.5 M 0.5 117.5 L 1150.5 117.5 M 0.5 212.5 L 1150.5 212.5 M 0.5 306.5 L 1150.5 306.5 M 0.5 400.5 L 1150.5 400.5 M 0.5 495.5 L 1150.5 495.5 M 0.5 684.5 L 1150.5 684.5 M 0.5 778.5 L 1150.5 778.5" paint-order="fill stroke markers" /><path fill="none" stroke="rgb(192, 192, 192)" stroke-linecap="round" stroke-linejoin="round" stroke-miterlimit="10" stroke-opacity="0.235294" d="M 0.5 4.5 L 1150.5 4.5 M 0.5 4.5 L 1150.5 4.5 M 0.5 42.5 L 1150.5 42.5 M 0.5 60.5 L 1150.5 60.5 M 0.5 79.5 L 1150.5 79.5 M 0.5 98.5 L 1150.5 98.5 M 0.5 136.5 L 1150.5 136.5 M 0.5 155.5 L 1150.5 155.5 M 0.5 174.5 L 1150.5 174.5 M 0.5 193.5 L 1150.5 193.5 M 0.5 230.5 L 1150.5 230.5 M 0.5 249.5 L 1150.5 249.5 M 0.5 268.5 L 1150.5 268.5 M 0.5 287.5 L 1150.5 287.5 M 0.5 325.5 L 1150.5 325.5 M 0.5 344.5 L 1150.5 344.5 M 0.5 363.5 L 1150.5 363.5 M 0.5 382.5 L 1150.5 382.5 M 0.5 419.5 L 1150.5 419.5 M 0.5 438.5 L 1150.5 438.5 M 0.5 457.5 L 1150.5 457.5 M 0.5 476.5 L 1150.5 476.5 M 0.5 514.5 L 1150.5 514.5 M 0.5 533.5 L 1150.5 533.5 M 0.5 552.5 L 1150.5 552.5 M 0.5 570.5 L 1150.5 570.5 M 0.5 608.5 L 1150.5 608.5 M 0.5 627.5 L 1150.5 627.5 M 0.5 646.5 L 1150.5 646.5 M 0.5 665.5 L 1150.5 665.5 M 0.5 703.5 L 1150.5 703.5 M 0.5 722.5 L 1150.5 722.5 M 0.5 740.5 L 1150.5 740.5 M 0.5 759.5 L 1150.5 759.5 M 0.5 797.5 L 1150.5 797.5" paint-order="fill stroke markers" /><path fill="none" stroke="rgb(0, 0, 0)" stroke-miterlimit="10" stroke-opacity="1" d="M 0.5 2.5 L 0.5 815.5" paint-order="fill stroke markers" /><path fill="none" stroke="rgb(0, 0, 0)" stroke-miterlimit="10" stroke-opacity="1" d="M 0.5 1.5 L -3.5 5.5" paint-order="fill stroke markers" /><path fill="none" stroke="rgb(0, 0, 0)" stroke-miterlimit="10" stroke-opacity="1" d="M 0.5 1.5 L 4.5 5.5" paint-order="fill stroke markers" /><path fill="none" stroke="rgb(0, 0, 0)" stroke-miterlimit="10" stroke-opacity="1" d="M 0.5 589.5 L 1148.5 589.5" paint-order="fill stroke markers" /><path fill="none" stroke="rgb(0, 0, 0)" stroke-miterlimit="10" stroke-opacity="1" d="M 1149.5 589.5 L 1145.5 585.5" paint-order="fill stroke markers" /><path fill="none" stroke="rgb(0, 0, 0)" stroke-miterlimit="10" stroke-opacity="1" d="M 1149.5 589.5 L 1145.5 593.5" paint-order="fill stroke markers" /><text font-family="geogebra-sans-serif, sans-serif" font-size="12px" font-style="normal" font-weight="normal" text-decoration="normal" dominant-baseline="alphabetic" fill="rgb(0, 0, 0)" fill-opacity="1" stroke="none" text-anchor="start" x="46" y="605">0.2</text><text font-family="geogebra-sans-serif, sans-serif" font-size="12px" font-style="normal" font-weight="normal" text-decoration="normal" dominant-baseline="alphabetic" fill="none" stroke="rgb(255, 255, 255)" stroke-linejoin="bevel" stroke-miterlimit="10" stroke-opacity="1" stroke-width="3" text-anchor="start" x="46" y="605">0.2</text><text font-family="geogebra-sans-serif, sans-serif" font-size="12px" font-style="normal" font-weight="normal" text-decoration="normal" dominant-baseline="alphabetic" fill="rgb(0, 0, 0)" fill-opacity="1" stroke="none" text-anchor="start" x="46" y="605">0.2</text><text font-family="geogebra-sans-serif, sans-serif" font-size="12px" font-style="normal" font-weight="normal" text-decoration="normal" dominant-baseline="alphabetic" fill="rgb(0, 0, 0)" fill-opacity="1" stroke="none" text-anchor="start" x="101" y="605">0.4</text><text font-family="geogebra-sans-serif, sans-serif" font-size="12px" font-style="normal" font-weight="normal" text-decoration="normal" dominant-baseline="alphabetic" fill="none" stroke="rgb(255, 255, 255)" stroke-linejoin="bevel" stroke-miterlimit="10" stroke-opacity="1" stroke-width="3" text-anchor="start" x="101" y="605">0.4</text><text font-family="geogebra-sans-serif, sans-serif" font-size="12px" font-style="normal" font-weight="normal" text-decoration="normal" dominant-baseline="alphabetic" fill="rgb(0, 0, 0)" fill-opacity="1" stroke="none" text-anchor="start" x="101" y="605">0.4</text><text font-family="geogebra-sans-serif, sans-serif" font-size="12px" font-style="normal" font-weight="normal" text-decoration="normal" dominant-baseline="alphabetic" fill="rgb(0, 0, 0)" fill-opacity="1" stroke="none" text-anchor="start" x="156" y="605">0.6</text><text font-family="geogebra-sans-serif, sans-serif" font-size="12px" font-style="normal" font-weight="normal" text-decoration="normal" dominant-baseline="alphabetic" fill="none" stroke="rgb(255, 255, 255)" stroke-linejoin="bevel" stroke-miterlimit="10" stroke-opacity="1" stroke-width="3" text-anchor="start" x="156" y="605">0.6</text><text font-family="geogebra-sans-serif, sans-serif" font-size="12px" font-style="normal" font-weight="normal" text-decoration="normal" dominant-baseline="alphabetic" fill="rgb(0, 0, 0)" fill-opacity="1" stroke="none" text-anchor="start" x="156" y="605">0.6</text><text font-family="geogebra-sans-serif, sans-serif" font-size="12px" font-style="normal" font-weight="normal" text-decoration="normal" dominant-baseline="alphabetic" fill="rgb(0, 0, 0)" fill-opacity="1" stroke="none" text-anchor="start" x="210" y="605">0.8</text><text font-family="geogebra-sans-serif, sans-serif" font-size="12px" font-style="normal" font-weight="normal" text-decoration="normal" dominant-baseline="alphabetic" fill="none" stroke="rgb(255, 255, 255)" stroke-linejoin="bevel" stroke-miterlimit="10" stroke-opacity="1" stroke-width="3" text-anchor="start" x="210" y="605">0.8</text><text font-family="geogebra-sans-serif, sans-serif" font-size="12px" font-style="normal" font-weight="normal" text-decoration="normal" dominant-baseline="alphabetic" fill="rgb(0, 0, 0)" fill-opacity="1" stroke="none" text-anchor="start" x="210" y="605">0.8</text><text font-family="geogebra-sans-serif, sans-serif" font-size="12px" font-style="normal" font-weight="normal" text-decoration="normal" dominant-baseline="alphabetic" fill="rgb(0, 0, 0)" fill-opacity="1" stroke="none" text-anchor="start" x="271" y="605">1</text><text font-family="geogebra-sans-serif, sans-serif" font-size="12px" font-style="normal" font-weight="normal" text-decoration="normal" dominant-baseline="alphabetic" fill="none" stroke="rgb(255, 255, 255)" stroke-linejoin="bevel" stroke-miterlimit="10" stroke-opacity="1" stroke-width="3" text-anchor="start" x="271" y="605">1</text><text font-family="geogebra-sans-serif, sans-serif" font-size="12px" font-style="normal" font-weight="normal" text-decoration="normal" dominant-baseline="alphabetic" fill="rgb(0, 0, 0)" fill-opacity="1" stroke="none" text-anchor="start" x="271" y="605">1</text><text font-family="geogebra-sans-serif, sans-serif" font-size="12px" font-style="normal" font-weight="normal" text-decoration="normal" dominant-baseline="alphabetic" fill="rgb(0, 0, 0)" fill-opacity="1" stroke="none" text-anchor="start" x="319" y="605">1.2</text><text font-family="geogebra-sans-serif, sans-serif" font-size="12px" font-style="normal" font-weight="normal" text-decoration="normal" dominant-baseline="alphabetic" fill="none" stroke="rgb(255, 255, 255)" stroke-linejoin="bevel" stroke-miterlimit="10" stroke-opacity="1" stroke-width="3" text-anchor="start" x="319" y="605">1.2</text><text font-family="geogebra-sans-serif, sans-serif" font-size="12px" font-style="normal" font-weight="normal" text-decoration="normal" dominant-baseline="alphabetic" fill="rgb(0, 0, 0)" fill-opacity="1" stroke="none" text-anchor="start" x="319" y="605">1.2</text><text font-family="geogebra-sans-serif, sans-serif" font-size="12px" font-style="normal" font-weight="normal" text-decoration="normal" dominant-baseline="alphabetic" fill="rgb(0, 0, 0)" fill-opacity="1" stroke="none" text-anchor="start" x="374" y="605">1.4</text><text font-family="geogebra-sans-serif, sans-serif" font-size="12px" font-style="normal" font-weight="normal" text-decoration="normal" dominant-baseline="alphabetic" fill="none" stroke="rgb(255, 255, 255)" stroke-linejoin="bevel" stroke-miterlimit="10" stroke-opacity="1" stroke-width="3" text-anchor="start" x="374" y="605">1.4</text><text font-family="geogebra-sans-serif, sans-serif" font-size="12px" font-style="normal" font-weight="normal" text-decoration="normal" dominant-baseline="alphabetic" fill="rgb(0, 0, 0)" fill-opacity="1" stroke="none" text-anchor="start" x="374" y="605">1.4</text><text font-family="geogebra-sans-serif, sans-serif" font-size="12px" font-style="normal" font-weight="normal" text-decoration="normal" dominant-baseline="alphabetic" fill="rgb(0, 0, 0)" fill-opacity="1" stroke="none" text-anchor="start" x="428" y="605">1.6</text><text font-family="geogebra-sans-serif, sans-serif" font-size="12px" font-style="normal" font-weight="normal" text-decoration="normal" dominant-baseline="alphabetic" fill="none" stroke="rgb(255, 255, 255)" stroke-linejoin="bevel" stroke-miterlimit="10" stroke-opacity="1" stroke-width="3" text-anchor="start" x="428" y="605">1.6</text><text font-family="geogebra-sans-serif, sans-serif" font-size="12px" font-style="normal" font-weight="normal" text-decoration="normal" dominant-baseline="alphabetic" fill="rgb(0, 0, 0)" fill-opacity="1" stroke="none" text-anchor="start" x="428" y="605">1.6</text><text font-family="geogebra-sans-serif, sans-serif" font-size="12px" font-style="normal" font-weight="normal" text-decoration="normal" dominant-baseline="alphabetic" fill="rgb(0, 0, 0)" fill-opacity="1" stroke="none" text-anchor="start" x="483" y="605">1.8</text><text font-family="geogebra-sans-serif, sans-serif" font-size="12px" font-style="normal" font-weight="normal" text-decoration="normal" dominant-baseline="alphabetic" fill="none" stroke="rgb(255, 255, 255)" stroke-linejoin="bevel" stroke-miterlimit="10" stroke-opacity="1" stroke-width="3" text-anchor="start" x="483" y="605">1.8</text><text font-family="geogebra-sans-serif, sans-serif" font-size="12px" font-style="normal" font-weight="normal" text-decoration="normal" dominant-baseline="alphabetic" fill="rgb(0, 0, 0)" fill-opacity="1" stroke="none" text-anchor="start" x="483" y="605">1.8</text><text font-family="geogebra-sans-serif, sans-serif" font-size="12px" font-style="normal" font-weight="normal" text-decoration="normal" dominant-baseline="alphabetic" fill="rgb(0, 0, 0)" fill-opacity="1" stroke="none" text-anchor="start" x="543" y="605">2</text><text font-family="geogebra-sans-serif, sans-serif" font-size="12px" font-style="normal" font-weight="normal" text-decoration="normal" dominant-baseline="alphabetic" fill="none" stroke="rgb(255, 255, 255)" stroke-linejoin="bevel" stroke-miterlimit="10" stroke-opacity="1" stroke-width="3" text-anchor="start" x="543" y="605">2</text><text font-family="geogebra-sans-serif, sans-serif" font-size="12px" font-style="normal" font-weight="normal" text-decoration="normal" dominant-baseline="alphabetic" fill="rgb(0, 0, 0)" fill-opacity="1" stroke="none" text-anchor="start" x="543" y="605">2</text><text font-family="geogebra-sans-serif, sans-serif" font-size="12px" font-style="normal" font-weight="normal" text-decoration="normal" dominant-baseline="alphabetic" fill="rgb(0, 0, 0)" fill-opacity="1" stroke="none" text-anchor="start" x="592" y="605">2.2</text><text font-family="geogebra-sans-serif, sans-serif" font-size="12px" font-style="normal" font-weight="normal" text-decoration="normal" dominant-baseline="alphabetic" fill="none" stroke="rgb(255, 255, 255)" stroke-linejoin="bevel" stroke-miterlimit="10" stroke-opacity="1" stroke-width="3" text-anchor="start" x="592" y="605">2.2</text><text font-family="geogebra-sans-serif, sans-serif" font-size="12px" font-style="normal" font-weight="normal" text-decoration="normal" dominant-baseline="alphabetic" fill="rgb(0, 0, 0)" fill-opacity="1" stroke="none" text-anchor="start" x="592" y="605">2.2</text><text font-family="geogebra-sans-serif, sans-serif" font-size="12px" font-style="normal" font-weight="normal" text-decoration="normal" dominant-baseline="alphabetic" fill="rgb(0, 0, 0)" fill-opacity="1" stroke="none" text-anchor="start" x="647" y="605">2.4</text><text font-family="geogebra-sans-serif, sans-serif" font-size="12px" font-style="normal" font-weight="normal" text-decoration="normal" dominant-baseline="alphabetic" fill="none" stroke="rgb(255, 255, 255)" stroke-linejoin="bevel" stroke-miterlimit="10" stroke-opacity="1" stroke-width="3" text-anchor="start" x="647" y="605">2.4</text><text font-family="geogebra-sans-serif, sans-serif" font-size="12px" font-style="normal" font-weight="normal" text-decoration="normal" dominant-baseline="alphabetic" fill="rgb(0, 0, 0)" fill-opacity="1" stroke="none" text-anchor="start" x="647" y="605">2.4</text><text font-family="geogebra-sans-serif, sans-serif" font-size="12px" font-style="normal" font-weight="normal" text-decoration="normal" dominant-baseline="alphabetic" fill="rgb(0, 0, 0)" fill-opacity="1" stroke="none" text-anchor="start" x="701" y="605">2.6</text><text font-family="geogebra-sans-serif, sans-serif" font-size="12px" font-style="normal" font-weight="normal" text-decoration="normal" dominant-baseline="alphabetic" fill="none" stroke="rgb(255, 255, 255)" stroke-linejoin="bevel" stroke-miterlimit="10" stroke-opacity="1" stroke-width="3" text-anchor="start" x="701" y="605">2.6</text><text font-family="geogebra-sans-serif, sans-serif" font-size="12px" font-style="normal" font-weight="normal" text-decoration="normal" dominant-baseline="alphabetic" fill="rgb(0, 0, 0)" fill-opacity="1" stroke="none" text-anchor="start" x="701" y="605">2.6</text><text font-family="geogebra-sans-serif, sans-serif" font-size="12px" font-style="normal" font-weight="normal" text-decoration="normal" dominant-baseline="alphabetic" fill="rgb(0, 0, 0)" fill-opacity="1" stroke="none" text-anchor="start" x="756" y="605">2.8</text><text font-family="geogebra-sans-serif, sans-serif" font-size="12px" font-style="normal" font-weight="normal" text-decoration="normal" dominant-baseline="alphabetic" fill="none" stroke="rgb(255, 255, 255)" stroke-linejoin="bevel" stroke-miterlimit="10" stroke-opacity="1" stroke-width="3" text-anchor="start" x="756" y="605">2.8</text><text font-family="geogebra-sans-serif, sans-serif" font-size="12px" font-style="normal" font-weight="normal" text-decoration="normal" dominant-baseline="alphabetic" fill="rgb(0, 0, 0)" fill-opacity="1" stroke="none" text-anchor="start" x="756" y="605">2.8</text><text font-family="geogebra-sans-serif, sans-serif" font-size="12px" font-style="normal" font-weight="normal" text-decoration="normal" dominant-baseline="alphabetic" fill="rgb(0, 0, 0)" fill-opacity="1" stroke="none" text-anchor="start" x="816" y="605">3</text><text font-family="geogebra-sans-serif, sans-serif" font-size="12px" font-style="normal" font-weight="normal" text-decoration="normal" dominant-baseline="alphabetic" fill="none" stroke="rgb(255, 255, 255)" stroke-linejoin="bevel" stroke-miterlimit="10" stroke-opacity="1" stroke-width="3" text-anchor="start" x="816" y="605">3</text><text font-family="geogebra-sans-serif, sans-serif" font-size="12px" font-style="normal" font-weight="normal" text-decoration="normal" dominant-baseline="alphabetic" fill="rgb(0, 0, 0)" fill-opacity="1" stroke="none" text-anchor="start" x="816" y="605">3</text><text font-family="geogebra-sans-serif, sans-serif" font-size="12px" font-style="normal" font-weight="normal" text-decoration="normal" dominant-baseline="alphabetic" fill="rgb(0, 0, 0)" fill-opacity="1" stroke="none" text-anchor="start" x="865" y="605">3.2</text><text font-family="geogebra-sans-serif, sans-serif" font-size="12px" font-style="normal" font-weight="normal" text-decoration="normal" dominant-baseline="alphabetic" fill="none" stroke="rgb(255, 255, 255)" stroke-linejoin="bevel" stroke-miterlimit="10" stroke-opacity="1" stroke-width="3" text-anchor="start" x="865" y="605">3.2</text><text font-family="geogebra-sans-serif, sans-serif" font-size="12px" font-style="normal" font-weight="normal" text-decoration="normal" dominant-baseline="alphabetic" fill="rgb(0, 0, 0)" fill-opacity="1" stroke="none" text-anchor="start" x="865" y="605">3.2</text><text font-family="geogebra-sans-serif, sans-serif" font-size="12px" font-style="normal" font-weight="normal" text-decoration="normal" dominant-baseline="alphabetic" fill="rgb(0, 0, 0)" fill-opacity="1" stroke="none" text-anchor="start" x="919" y="605">3.4</text><text font-family="geogebra-sans-serif, sans-serif" font-size="12px" font-style="normal" font-weight="normal" text-decoration="normal" dominant-baseline="alphabetic" fill="none" stroke="rgb(255, 255, 255)" stroke-linejoin="bevel" stroke-miterlimit="10" stroke-opacity="1" stroke-width="3" text-anchor="start" x="919" y="605">3.4</text><text font-family="geogebra-sans-serif, sans-serif" font-size="12px" font-style="normal" font-weight="normal" text-decoration="normal" dominant-baseline="alphabetic" fill="rgb(0, 0, 0)" fill-opacity="1" stroke="none" text-anchor="start" x="919" y="605">3.4</text><text font-family="geogebra-sans-serif, sans-serif" font-size="12px" font-style="normal" font-weight="normal" text-decoration="normal" dominant-baseline="alphabetic" fill="rgb(0, 0, 0)" fill-opacity="1" stroke="none" text-anchor="start" x="974" y="605">3.6</text><text font-family="geogebra-sans-serif, sans-serif" font-size="12px" font-style="normal" font-weight="normal" text-decoration="normal" dominant-baseline="alphabetic" fill="none" stroke="rgb(255, 255, 255)" stroke-linejoin="bevel" stroke-miterlimit="10" stroke-opacity="1" stroke-width="3" text-anchor="start" x="974" y="605">3.6</text><text font-family="geogebra-sans-serif, sans-serif" font-size="12px" font-style="normal" font-weight="normal" text-decoration="normal" dominant-baseline="alphabetic" fill="rgb(0, 0, 0)" fill-opacity="1" stroke="none" text-anchor="start" x="974" y="605">3.6</text><text font-family="geogebra-sans-serif, sans-serif" font-size="12px" font-style="normal" font-weight="normal" text-decoration="normal" dominant-baseline="alphabetic" fill="rgb(0, 0, 0)" fill-opacity="1" stroke="none" text-anchor="start" x="1028" y="605">3.8</text><text font-family="geogebra-sans-serif, sans-serif" font-size="12px" font-style="normal" font-weight="normal" text-decoration="normal" dominant-baseline="alphabetic" fill="none" stroke="rgb(255, 255, 255)" stroke-linejoin="bevel" stroke-miterlimit="10" stroke-opacity="1" stroke-width="3" text-anchor="start" x="1028" y="605">3.8</text><text font-family="geogebra-sans-serif, sans-serif" font-size="12px" font-style="normal" font-weight="normal" text-decoration="normal" dominant-baseline="alphabetic" fill="rgb(0, 0, 0)" fill-opacity="1" stroke="none" text-anchor="start" x="1028" y="605">3.8</text><text font-family="geogebra-sans-serif, sans-serif" font-size="12px" font-style="normal" font-weight="normal" text-decoration="normal" dominant-baseline="alphabetic" fill="rgb(0, 0, 0)" fill-opacity="1" stroke="none" text-anchor="start" x="1089" y="605">4</text><text font-family="geogebra-sans-serif, sans-serif" font-size="12px" font-style="normal" font-weight="normal" text-decoration="normal" dominant-baseline="alphabetic" fill="none" stroke="rgb(255, 255, 255)" stroke-linejoin="bevel" stroke-miterlimit="10" stroke-opacity="1" stroke-width="3" text-anchor="start" x="1089" y="605">4</text><text font-family="geogebra-sans-serif, sans-serif" font-size="12px" font-style="normal" font-weight="normal" text-decoration="normal" dominant-baseline="alphabetic" fill="rgb(0, 0, 0)" fill-opacity="1" stroke="none" text-anchor="start" x="1089" y="605">4</text><text font-family="geogebra-sans-serif, sans-serif" font-size="12px" font-style="normal" font-weight="normal" text-decoration="normal" dominant-baseline="alphabetic" fill="rgb(0, 0, 0)" fill-opacity="1" stroke="none" text-anchor="start" x="3" y="783">–100</text><text font-family="geogebra-sans-serif, sans-serif" font-size="12px" font-style="normal" font-weight="normal" text-decoration="normal" dominant-baseline="alphabetic" fill="none" stroke="rgb(255, 255, 255)" stroke-linejoin="bevel" stroke-miterlimit="10" stroke-opacity="1" stroke-width="3" text-anchor="start" x="3" y="783">–100</text><text font-family="geogebra-sans-serif, sans-serif" font-size="12px" font-style="normal" font-weight="normal" text-decoration="normal" dominant-baseline="alphabetic" fill="rgb(0, 0, 0)" fill-opacity="1" stroke="none" text-anchor="start" x="3" y="783">–100</text><text font-family="geogebra-sans-serif, sans-serif" font-size="12px" font-style="normal" font-weight="normal" text-decoration="normal" dominant-baseline="alphabetic" fill="rgb(0, 0, 0)" fill-opacity="1" stroke="none" text-anchor="start" x="10" y="689">–50</text><text font-family="geogebra-sans-serif, sans-serif" font-size="12px" font-style="normal" font-weight="normal" text-decoration="normal" dominant-baseline="alphabetic" fill="none" stroke="rgb(255, 255, 255)" stroke-linejoin="bevel" stroke-miterlimit="10" stroke-opacity="1" stroke-width="3" text-anchor="start" x="10" y="689">–50</text><text font-family="geogebra-sans-serif, sans-serif" font-size="12px" font-style="normal" font-weight="normal" text-decoration="normal" dominant-baseline="alphabetic" fill="rgb(0, 0, 0)" fill-opacity="1" stroke="none" text-anchor="start" x="10" y="689">–50</text><text font-family="geogebra-sans-serif, sans-serif" font-size="12px" font-style="normal" font-weight="normal" text-decoration="normal" dominant-baseline="alphabetic" fill="rgb(0, 0, 0)" fill-opacity="1" stroke="none" text-anchor="start" x="17" y="500">50</text><text font-family="geogebra-sans-serif, sans-serif" font-size="12px" font-style="normal" font-weight="normal" text-decoration="normal" dominant-baseline="alphabetic" fill="none" stroke="rgb(255, 255, 255)" stroke-linejoin="bevel" stroke-miterlimit="10" stroke-opacity="1" stroke-width="3" text-anchor="start" x="17" y="500">50</text><text font-family="geogebra-sans-serif, sans-serif" font-size="12px" font-style="normal" font-weight="normal" text-decoration="normal" dominant-baseline="alphabetic" fill="rgb(0, 0, 0)" fill-opacity="1" stroke="none" text-anchor="start" x="17" y="500">50</text><text font-family="geogebra-sans-serif, sans-serif" font-size="12px" font-style="normal" font-weight="normal" text-decoration="normal" dominant-baseline="alphabetic" fill="rgb(0, 0, 0)" fill-opacity="1" stroke="none" text-anchor="start" x="10" y="405">100</text><text font-family="geogebra-sans-serif, sans-serif" font-size="12px" font-style="normal" font-weight="normal" text-decoration="normal" dominant-baseline="alphabetic" fill="none" stroke="rgb(255, 255, 255)" stroke-linejoin="bevel" stroke-miterlimit="10" stroke-opacity="1" stroke-width="3" text-anchor="start" x="10" y="405">100</text><text font-family="geogebra-sans-serif, sans-serif" font-size="12px" font-style="normal" font-weight="normal" text-decoration="normal" dominant-baseline="alphabetic" fill="rgb(0, 0, 0)" fill-opacity="1" stroke="none" text-anchor="start" x="10" y="405">100</text><text font-family="geogebra-sans-serif, sans-serif" font-size="12px" font-style="normal" font-weight="normal" text-decoration="normal" dominant-baseline="alphabetic" fill="rgb(0, 0, 0)" fill-opacity="1" stroke="none" text-anchor="start" x="10" y="311">150</text><text font-family="geogebra-sans-serif, sans-serif" font-size="12px" font-style="normal" font-weight="normal" text-decoration="normal" dominant-baseline="alphabetic" fill="none" stroke="rgb(255, 255, 255)" stroke-linejoin="bevel" stroke-miterlimit="10" stroke-opacity="1" stroke-width="3" text-anchor="start" x="10" y="311">150</text><text font-family="geogebra-sans-serif, sans-serif" font-size="12px" font-style="normal" font-weight="normal" text-decoration="normal" dominant-baseline="alphabetic" fill="rgb(0, 0, 0)" fill-opacity="1" stroke="none" text-anchor="start" x="10" y="311">150</text><text font-family="geogebra-sans-serif, sans-serif" font-size="12px" font-style="normal" font-weight="normal" text-decoration="normal" dominant-baseline="alphabetic" fill="rgb(0, 0, 0)" fill-opacity="1" stroke="none" text-anchor="start" x="10" y="217">200</text><text font-family="geogebra-sans-serif, sans-serif" font-size="12px" font-style="normal" font-weight="normal" text-decoration="normal" dominant-baseline="alphabetic" fill="none" stroke="rgb(255, 255, 255)" stroke-linejoin="bevel" stroke-miterlimit="10" stroke-opacity="1" stroke-width="3" text-anchor="start" x="10" y="217">200</text><text font-family="geogebra-sans-serif, sans-serif" font-size="12px" font-style="normal" font-weight="normal" text-decoration="normal" dominant-baseline="alphabetic" fill="rgb(0, 0, 0)" fill-opacity="1" stroke="none" text-anchor="start" x="10" y="217">200</text><text font-family="geogebra-sans-serif, sans-serif" font-size="12px" font-style="normal" font-weight="normal" text-decoration="normal" dominant-baseline="alphabetic" fill="rgb(0, 0, 0)" fill-opacity="1" stroke="none" text-anchor="start" x="10" y="122">250</text><text font-family="geogebra-sans-serif, sans-serif" font-size="12px" font-style="normal" font-weight="normal" text-decoration="normal" dominant-baseline="alphabetic" fill="none" stroke="rgb(255, 255, 255)" stroke-linejoin="bevel" stroke-miterlimit="10" stroke-opacity="1" stroke-width="3" text-anchor="start" x="10" y="122">250</text><text font-family="geogebra-sans-serif, sans-serif" font-size="12px" font-style="normal" font-weight="normal" text-decoration="normal" dominant-baseline="alphabetic" fill="rgb(0, 0, 0)" fill-opacity="1" stroke="none" text-anchor="start" x="10" y="122">250</text><text font-family="geogebra-sans-serif, sans-serif" font-size="12px" font-style="normal" font-weight="normal" text-decoration="normal" dominant-baseline="alphabetic" fill="rgb(0, 0, 0)" fill-opacity="1" stroke="none" text-anchor="start" x="10" y="28">300</text><text font-family="geogebra-sans-serif, sans-serif" font-size="12px" font-style="normal" font-weight="normal" text-decoration="normal" dominant-baseline="alphabetic" fill="none" stroke="rgb(255, 255, 255)" stroke-linejoin="bevel" stroke-miterlimit="10" stroke-opacity="1" stroke-width="3" text-anchor="start" x="10" y="28">300</text><text font-family="geogebra-sans-serif, sans-serif" font-size="12px" font-style="normal" font-weight="normal" text-decoration="normal" dominant-baseline="alphabetic" fill="rgb(0, 0, 0)" fill-opacity="1" stroke="none" text-anchor="start" x="10" y="28">300</text><path fill="none" stroke="rgb(0, 100, 0)" stroke-linecap="round" stroke-linejoin="round" stroke-miterlimit="10" stroke-opacity="0.698039" stroke-width="2.5" d="M 0 589.868 L 4.49219 589.859 L 8.98438 589.83 L 13.4766 589.78 L 17.9688 589.71 L 22.4609 589.62 L 26.9531 589.508 L 31.4453 589.377 L 35.9375 589.225 L 40.4297 589.052 L 44.9219 588.859 L 49.4141 588.645 L 53.9063 588.411 L 58.3984 588.157 L 62.8906 587.882 L 67.3828 587.586 L 71.875 587.27 L 76.3672 586.934 L 80.8594 586.577 L 85.3516 586.199 L 89.8438 585.801 L 94.3359 585.383 L 98.8281 584.944 L 103.32 584.484 L 107.813 584.004 L 112.305 583.504 L 116.797 582.983 L 121.289 582.442 L 125.781 581.88 L 130.273 581.297 L 134.766 580.694 L 139.258 580.071 L 143.75 579.427 L 148.242 578.763 L 152.734 578.078 L 157.227 577.372 L 161.719 576.647 L 166.211 575.9 L 170.703 575.133 L 175.195 574.346 L 179.688 573.538 L 184.18 572.71 L 188.672 571.861 L 193.164 570.992 L 197.656 570.102 L 202.148 569.192 L 206.641 568.261 L 211.133 567.31 L 215.625 566.338 L 220.117 565.346 L 224.609 564.333 L 229.102 563.3 L 233.594 562.246 L 238.086 561.172 L 242.578 560.078 L 247.07 558.962 L 251.563 557.827 L 256.055 556.671 L 260.547 555.494 L 265.039 554.297 L 269.531 553.079 L 274.023 551.841 L 278.516 550.582 L 283.008 549.303 L 287.5 548.004 L 291.992 546.684 L 296.484 545.343 L 300.977 543.982 L 305.469 542.601 L 309.961 541.198 L 314.453 539.776 L 318.945 538.333 L 323.438 536.869 L 327.93 535.385 L 332.422 533.881 L 336.914 532.356 L 341.406 530.81 L 345.898 529.245 L 350.391 527.658 L 354.883 526.051 L 359.375 524.424 L 363.867 522.776 L 368.359 521.107 L 372.852 519.418 L 377.344 517.709 L 381.836 515.979 L 386.328 514.229 L 390.82 512.458 L 395.313 510.666 L 399.805 508.855 L 404.297 507.022 L 408.789 505.169 L 413.281 503.296 L 417.773 501.402 L 422.266 499.488 L 426.758 497.553 L 431.25 495.598 L 435.742 493.622 L 440.234 491.626 L 444.727 489.609 L 449.219 487.572 L 453.711 485.514 L 458.203 483.436 L 462.695 481.337 L 467.188 479.218 L 471.68 477.078 L 476.172 474.918 L 480.664 472.737 L 485.156 470.536 L 489.648 468.314 L 494.141 466.072 L 498.633 463.81 L 503.125 461.526 L 507.617 459.223 L 512.109 456.899 L 516.602 454.554 L 521.094 452.189 L 525.586 449.803 L 530.078 447.397 L 534.57 444.971 L 539.063 442.524 L 543.555 440.056 L 548.047 437.568 L 552.539 435.059 L 557.031 432.53 L 561.523 429.981 L 566.016 427.411 L 570.508 424.82 L 575 422.209 L 579.492 419.578 L 583.984 416.926 L 588.477 414.253 L 592.969 411.56 L 597.461 408.847 L 601.953 406.113 L 606.445 403.359 L 610.938 400.584 L 615.43 397.788 L 619.922 394.972 L 624.414 392.136 L 628.906 389.279 L 633.398 386.402 L 637.891 383.504 L 642.383 380.585 L 646.875 377.647 L 651.367 374.687 L 655.859 371.707 L 660.352 368.707 L 664.844 365.686 L 669.336 362.645 L 673.828 359.583 L 678.32 356.501 L 682.813 353.398 L 687.305 350.275 L 691.797 347.131 L 696.289 343.967 L 700.781 340.782 L 705.273 337.577 L 709.766 334.351 L 714.258 331.105 L 718.75 327.838 L 723.242 324.551 L 727.734 321.243 L 732.227 317.915 L 736.719 314.566 L 741.211 311.197 L 745.703 307.808 L 750.195 304.397 L 754.688 300.967 L 759.18 297.516 L 763.672 294.044 L 768.164 290.552 L 772.656 287.039 L 777.148 283.506 L 781.641 279.953 L 786.133 276.379 L 790.625 272.784 L 795.117 269.169 L 799.609 265.534 L 804.102 261.877 L 808.594 258.201 L 813.086 254.504 L 817.578 250.786 L 822.07 247.048 L 826.563 243.29 L 831.055 239.511 L 835.547 235.711 L 840.039 231.892 L 844.531 228.051 L 849.023 224.19 L 853.516 220.309 L 858.008 216.407 L 862.5 212.484 L 866.992 208.541 L 871.484 204.578 L 875.977 200.594 L 880.469 196.59 L 884.961 192.565 L 889.453 188.52 L 893.945 184.454 L 898.438 180.367 L 902.93 176.261 L 907.422 172.133 L 911.914 167.985 L 916.406 163.817 L 920.898 159.628 L 925.391 155.419 L 929.883 151.189 L 934.375 146.939 L 938.867 142.668 L 943.359 138.377 L 947.852 134.065 L 952.344 129.733 L 956.836 125.38 L 961.328 121.007 L 965.82 116.613 L 970.313 112.199 L 974.805 107.764 L 979.297 103.309 L 983.789 98.8336 L 988.281 94.3375 L 992.773 89.8208 L 997.266 85.2837 L 1001.76 80.7261 L 1006.25 76.1479 L 1010.74 71.5493 L 1015.23 66.9302 L 1019.73 62.2906 L 1024.22 57.6305 L 1028.71 52.95 L 1033.2 48.2489 L 1037.7 43.5273 L 1042.19 38.7853 L 1046.68 34.0228 L 1051.17 29.2397 L 1055.66 24.4362 L 1060.16 19.6122 L 1064.65 14.7677 L 1069.14 9.9027 L 1073.63 5.01722 L 1078.13 0.111242 L 1082.62 -4.81522 L 1087.11 -9.76218" paint-order="fill stroke markers" /><text font-family="geogebra-sans-serif, sans-serif" font-size="16px" font-style="normal" font-weight="normal" text-decoration="normal" dominant-baseline="alphabetic" fill="rgb(0, 100, 0)" fill-opacity="1" stroke="none" text-anchor="start" x="5" y="604">f</text><text font-family="geogebra-sans-serif, sans-serif" font-size="16px" font-style="normal" font-weight="normal" text-decoration="normal" dominant-baseline="alphabetic" fill="none" stroke="rgb(255, 255, 255)" stroke-linejoin="bevel" stroke-miterlimit="10" stroke-opacity="1" stroke-width="3" text-anchor="start" x="5" y="604">f</text><text font-family="geogebra-sans-serif, sans-serif" font-size="16px" font-style="normal" font-weight="normal" text-decoration="normal" dominant-baseline="alphabetic" fill="rgb(0, 100, 0)" fill-opacity="1" stroke="none" text-anchor="start" x="5" y="604">f</text><path fill="rgb(125, 125, 255)" fill-opacity="1" stroke="none" d="M 1061.85 23.1651 C 1061.85 25.9265 1059.61 28.1651 1056.85 28.1651 C 1054.09 28.1651 1051.85 25.9265 1051.85 23.1651 C 1051.85 20.4037 1054.09 18.1651 1056.85 18.1651 C 1059.61 18.1651 1061.85 20.4037 1061.85 23.1651 Z" paint-order="stroke fill markers" /><path fill="none" stroke="rgb(0, 0, 0)" stroke-linecap="round" stroke-linejoin="round" stroke-miterlimit="10" stroke-opacity="1" d="M 1061.85 23.1651 C 1061.85 25.9265 1059.61 28.1651 1056.85 28.1651 C 1054.09 28.1651 1051.85 25.9265 1051.85 23.1651 C 1051.85 20.4037 1054.09 18.1651 1056.85 18.1651 C 1059.61 18.1651 1061.85 20.4037 1061.85 23.1651 Z" paint-order="fill stroke markers" /><text font-family="geogebra-sans-serif, sans-serif" font-size="16px" font-style="normal" font-weight="normal" text-decoration="normal" dominant-baseline="alphabetic" fill="rgb(125, 125, 255)" fill-opacity="1" stroke="none" text-anchor="start" x="1061" y="16">A</text><text font-family="geogebra-sans-serif, sans-serif" font-size="16px" font-style="normal" font-weight="normal" text-decoration="normal" dominant-baseline="alphabetic" fill="none" stroke="rgb(255, 255, 255)" stroke-linejoin="bevel" stroke-miterlimit="10" stroke-opacity="1" stroke-width="3" text-anchor="start" x="1061" y="16">A</text><text font-family="geogebra-sans-serif, sans-serif" font-size="16px" font-style="normal" font-weight="normal" text-decoration="normal" dominant-baseline="alphabetic" fill="rgb(125, 125, 255)" fill-opacity="1" stroke="none" text-anchor="start" x="1061" y="16">A</text></g></g></svg>