<?xml version="1.0" encoding="UTF-8" standalone="no"?>
<!-- Created with Inkscape (http://www.inkscape.org/) -->

<svg
   xmlns:ns1="http://www.iki.fi/pav/software/textext/"
   xmlns:dc="http://purl.org/dc/elements/1.1/"
   xmlns:cc="http://creativecommons.org/ns#"
   xmlns:rdf="http://www.w3.org/1999/02/22-rdf-syntax-ns#"
   xmlns:svg="http://www.w3.org/2000/svg"
   xmlns="http://www.w3.org/2000/svg"
   xmlns:xlink="http://www.w3.org/1999/xlink"
   xmlns:sodipodi="http://sodipodi.sourceforge.net/DTD/sodipodi-0.dtd"
   xmlns:inkscape="http://www.inkscape.org/namespaces/inkscape"
   width="581.73621"
   height="209.62985"
   viewBox="0 0 153.91769 55.46456"
   version="1.1"
   id="svg4623"
   inkscape:version="0.92.4 (unknown)"
   sodipodi:docname="zwaartekracht_bowlingbal_aarde_oefening.svg"
   inkscape:export-filename="/home/fdf/hugo/hoezithet/content/lessen/fysica/krachten_1/zwaartekracht/img/zwaartekracht_bowlingbal_aarde_oefening.png"
   inkscape:export-xdpi="299.95728"
   inkscape:export-ydpi="299.95728">
  <defs
     id="defs4617">
    <clipPath
       clipPathUnits="userSpaceOnUse"
       id="clipPath7284">
      <g
         id="g7290">
        <path
           id="path7286"
           d="m 69.356995,21.511081 h 11.833901 v 2.583821 H 69.356995 Z"
           style="opacity:1;vector-effect:none;fill:#e7040f;fill-opacity:1;stroke:none;stroke-width:2.8053093;stroke-linecap:butt;stroke-linejoin:round;stroke-miterlimit:4;stroke-dasharray:none;stroke-dashoffset:0;stroke-opacity:1;paint-order:markers stroke fill"
           inkscape:connector-curvature="0"
           sodipodi:nodetypes="ccccc" />
        <path
           id="path7288"
           d="m 69.253647,26.344856 h 12.040607 v 2.583822 H 69.253647 Z"
           style="opacity:1;vector-effect:none;fill:#e7040f;fill-opacity:1;stroke:none;stroke-width:2.82970333;stroke-linecap:butt;stroke-linejoin:round;stroke-miterlimit:4;stroke-dasharray:none;stroke-dashoffset:0;stroke-opacity:1;paint-order:markers stroke fill"
           inkscape:connector-curvature="0"
           sodipodi:nodetypes="ccccc" />
      </g>
    </clipPath>
    <clipPath
       clipPathUnits="userSpaceOnUse"
       id="clipPath29345">
      <g
         id="g29343">
        <path
           id="path29339"
           d="m 69.356995,21.511081 h 11.833901 v 2.583821 H 69.356995 Z"
           style="opacity:1;vector-effect:none;fill:#e7040f;fill-opacity:1;stroke:none;stroke-width:2.8053093;stroke-linecap:butt;stroke-linejoin:round;stroke-miterlimit:4;stroke-dasharray:none;stroke-dashoffset:0;stroke-opacity:1;paint-order:markers stroke fill"
           inkscape:connector-curvature="0"
           sodipodi:nodetypes="ccccc" />
        <path
           id="path29341"
           d="m 69.253647,26.344856 h 12.040607 v 2.583822 H 69.253647 Z"
           style="opacity:1;vector-effect:none;fill:#e7040f;fill-opacity:1;stroke:none;stroke-width:2.82970333;stroke-linecap:butt;stroke-linejoin:round;stroke-miterlimit:4;stroke-dasharray:none;stroke-dashoffset:0;stroke-opacity:1;paint-order:markers stroke fill"
           inkscape:connector-curvature="0"
           sodipodi:nodetypes="ccccc" />
      </g>
    </clipPath>
    <clipPath
       clipPathUnits="userSpaceOnUse"
       id="clipPath29353">
      <g
         id="g29351">
        <path
           id="path29347"
           d="m 69.356995,21.511081 h 11.833901 v 2.583821 H 69.356995 Z"
           style="opacity:1;vector-effect:none;fill:#e7040f;fill-opacity:1;stroke:none;stroke-width:2.8053093;stroke-linecap:butt;stroke-linejoin:round;stroke-miterlimit:4;stroke-dasharray:none;stroke-dashoffset:0;stroke-opacity:1;paint-order:markers stroke fill"
           inkscape:connector-curvature="0"
           sodipodi:nodetypes="ccccc" />
        <path
           id="path29349"
           d="m 69.253647,26.344856 h 12.040607 v 2.583822 H 69.253647 Z"
           style="opacity:1;vector-effect:none;fill:#e7040f;fill-opacity:1;stroke:none;stroke-width:2.82970333;stroke-linecap:butt;stroke-linejoin:round;stroke-miterlimit:4;stroke-dasharray:none;stroke-dashoffset:0;stroke-opacity:1;paint-order:markers stroke fill"
           inkscape:connector-curvature="0"
           sodipodi:nodetypes="ccccc" />
      </g>
    </clipPath>
    <clipPath
       clipPathUnits="userSpaceOnUse"
       id="clipPath29361">
      <g
         id="g29359">
        <path
           id="path29355"
           d="m 69.356995,21.511081 h 11.833901 v 2.583821 H 69.356995 Z"
           style="opacity:1;vector-effect:none;fill:#e7040f;fill-opacity:1;stroke:none;stroke-width:2.8053093;stroke-linecap:butt;stroke-linejoin:round;stroke-miterlimit:4;stroke-dasharray:none;stroke-dashoffset:0;stroke-opacity:1;paint-order:markers stroke fill"
           inkscape:connector-curvature="0"
           sodipodi:nodetypes="ccccc" />
        <path
           id="path29357"
           d="m 69.253647,26.344856 h 12.040607 v 2.583822 H 69.253647 Z"
           style="opacity:1;vector-effect:none;fill:#e7040f;fill-opacity:1;stroke:none;stroke-width:2.82970333;stroke-linecap:butt;stroke-linejoin:round;stroke-miterlimit:4;stroke-dasharray:none;stroke-dashoffset:0;stroke-opacity:1;paint-order:markers stroke fill"
           inkscape:connector-curvature="0"
           sodipodi:nodetypes="ccccc" />
      </g>
    </clipPath>
    <pattern
       inkscape:collect="always"
       xlink:href="#pattern13500-6"
       id="pattern13509"
       patternTransform="matrix(-0.08765214,0,0,0.1258265,80.558895,64.94682)" />
    <pattern
       patternUnits="userSpaceOnUse"
       width="50.260043"
       height="37.694409"
       patternTransform="matrix(0.26458331,0,0,0.26458331,39.526125,62.056557)"
       id="pattern13500-6">
      <g
         id="use13498-9"
         transform="matrix(3.7795279,0,0,3.7795279,-77.89009,-234.54449)">
        <rect
           id="rect13530-9"
           y="62.056557"
           x="20.608419"
           height="9.9733095"
           width="13.297967"
           style="fill:none;stroke:none;stroke-width:0.61472619" />
        <path
           inkscape:connector-curvature="0"
           d="m 30.581893,62.056559 3.324491,4.986654 -3.324491,4.986654 -3.32449,-4.986654 z m -6.648981,10e-7 3.32449,4.986654 -3.32449,4.986654 -3.32449,-4.986654 z"
           style="opacity:1;vector-effect:none;fill:#555555;fill-opacity:1;stroke:none;stroke-width:0.88533551;stroke-linecap:butt;stroke-linejoin:bevel;stroke-miterlimit:4;stroke-dasharray:2.65600656, 2.65600656;stroke-dashoffset:0;stroke-opacity:1;paint-order:markers stroke fill"
           id="path13532-2" />
        <path
           inkscape:connector-curvature="0"
           d="m 27.257404,62.05656 3.324489,-10e-7 -3.32449,4.986654 -3.324491,-4.986654 z m -1e-6,4.986654 3.32449,4.986654 -3.324489,-2e-6 -3.324492,2e-6 z"
           style="opacity:1;vector-effect:none;fill:#16502d;fill-opacity:1;stroke:none;stroke-width:0.88533551;stroke-linecap:butt;stroke-linejoin:bevel;stroke-miterlimit:4;stroke-dasharray:2.65600656, 2.65600656;stroke-dashoffset:0;stroke-opacity:1;paint-order:markers stroke fill"
           id="path13534-3" />
        <path
           inkscape:connector-curvature="0"
           d="m 33.906385,67.043213 v 4.986653 0 l -3.324491,10e-7 z m -13.297963,1e-6 3.32449,4.986654 -3.324489,-2e-6 z m 10e-7,-4.986654 3.32449,-2e-6 -3.32449,4.986655 z m 13.297962,0 v 0 l -10e-7,4.986653 -3.32449,-4.986655 z"
           style="opacity:1;vector-effect:none;fill:#19a974;fill-opacity:1;stroke:none;stroke-width:0.88533551;stroke-linecap:butt;stroke-linejoin:bevel;stroke-miterlimit:4;stroke-dasharray:2.65600653, 2.65600653;stroke-dashoffset:0;stroke-opacity:1;paint-order:markers stroke fill"
           id="path13536-5" />
        <path
           id="path13538-4"
           style="opacity:1;vector-effect:none;fill:#137752;fill-opacity:1;stroke:#000000;stroke-width:0.21277149;stroke-linecap:round;stroke-linejoin:miter;stroke-miterlimit:4;stroke-dasharray:0.2127715, 0.42554299;stroke-dashoffset:0;stroke-opacity:1"
           d="m 27.257401,71.922222 -6.541749,-9.758016 m 13.083499,9.758016 -6.541748,-9.758017 m 0,9.758017 6.541748,-9.758017 m -13.083499,9.758017 6.54175,-9.758017"
           inkscape:connector-curvature="0"
           sodipodi:nodetypes="cccccccc" />
      </g>
    </pattern>
    <radialGradient
       inkscape:collect="always"
       xlink:href="#linearGradient5837"
       id="radialGradient5871"
       cx="55.749424"
       cy="10.747927"
       fx="55.749424"
       fy="10.747927"
       r="4.6471806"
       gradientTransform="matrix(1,0,0,0.96059656,0.09506586,0.09259623)"
       gradientUnits="userSpaceOnUse" />
    <linearGradient
       inkscape:collect="always"
       id="linearGradient5837">
      <stop
         style="stop-color:#ff41b4;stop-opacity:1;"
         offset="0"
         id="stop5833" />
      <stop
         style="stop-color:#97005c;stop-opacity:1"
         offset="1"
         id="stop5835" />
    </linearGradient>
    <marker
       inkscape:stockid="Arrow2Mend"
       orient="auto"
       refY="0"
       refX="0"
       id="Arrow2Mend"
       style="overflow:visible"
       inkscape:isstock="true">
      <path
         id="path6062"
         style="fill:#e7040f;fill-opacity:1;fill-rule:evenodd;stroke:#e7040f;stroke-width:0.625;stroke-linejoin:round;stroke-opacity:1"
         d="M 8.7185878,4.0337352 -2.2072895,0.01601326 8.7185884,-4.0017078 c -1.7454984,2.3720609 -1.7354408,5.6174519 -6e-7,8.035443 z"
         transform="scale(-0.6)"
         inkscape:connector-curvature="0" />
    </marker>
  </defs>
  <sodipodi:namedview
     id="base"
     pagecolor="#f4f4f4"
     bordercolor="#666666"
     borderopacity="1.0"
     inkscape:pageopacity="1"
     inkscape:pageshadow="2"
     inkscape:zoom="1.8101934"
     inkscape:cx="291.70996"
     inkscape:cy="111.4383"
     inkscape:document-units="px"
     inkscape:current-layer="svg4623"
     showgrid="false"
     units="px"
     inkscape:object-paths="true"
     inkscape:snap-smooth-nodes="true"
     inkscape:window-width="1920"
     inkscape:window-height="1055"
     inkscape:window-x="1600"
     inkscape:window-y="25"
     inkscape:window-maximized="1"
     showguides="true"
     inkscape:guide-bbox="true"
     inkscape:pagecheckerboard="false"
     inkscape:snap-global="true"
     inkscape:showpageshadow="true"
     showborder="true"
     borderlayer="false"
     inkscape:snap-page="true">
    <sodipodi:guide
       inkscape:color="rgb(0,0,255)"
       inkscape:label=""
       inkscape:locked="false"
       id="guide818"
       orientation="1,0"
       position="146.86199,0" />
    <sodipodi:guide
       inkscape:color="rgb(0,0,255)"
       inkscape:label=""
       inkscape:locked="false"
       id="guide820"
       orientation="1,0"
       position="7.0556431,0" />
    <sodipodi:guide
       inkscape:color="rgb(0,0,255)"
       inkscape:label=""
       inkscape:locked="false"
       id="guide822"
       orientation="0,1"
       position="0,50.172933" />
    <sodipodi:guide
       inkscape:color="rgb(0,0,255)"
       inkscape:label=""
       inkscape:locked="false"
       id="guide922"
       orientation="0,1"
       position="0,7.0556431" />
  </sodipodi:namedview>
  <metadata
     id="metadata4620">
    <rdf:RDF>
      <cc:Work
         rdf:about="">
        <dc:format>image/svg+xml</dc:format>
        <dc:type
           rdf:resource="http://purl.org/dc/dcmitype/StillImage" />
        <dc:title></dc:title>
      </cc:Work>
    </rdf:RDF>
  </metadata>
  <g
     inkscape:label="watermark"
     inkscape:groupmode="layer"
     id="layer1"
     transform="translate(5.1800203,-240.86796)"
     sodipodi:insensitive="true">
    <g
       id="g5353"
       transform="matrix(0.89623584,0,0,0.89623584,-1.2321384,28.09939)"
       style="stroke-width:1.11577785">
      <text
         xml:space="preserve"
         style="font-style:normal;font-variant:normal;font-weight:normal;font-stretch:normal;font-size:28.01556396px;line-height:1.29999995;font-family:Quicksand;-inkscape-font-specification:'Quicksand, Normal';font-variant-ligatures:normal;font-variant-position:normal;font-variant-caps:normal;font-variant-numeric:normal;font-variant-alternates:normal;font-feature-settings:normal;text-indent:0;text-align:center;text-decoration:none;text-decoration-line:none;text-decoration-style:solid;text-decoration-color:#000000;letter-spacing:0px;word-spacing:0px;text-transform:none;writing-mode:lr-tb;direction:ltr;text-orientation:mixed;dominant-baseline:auto;baseline-shift:baseline;text-anchor:middle;white-space:normal;shape-padding:0;opacity:1;vector-effect:none;fill:#555555;fill-opacity:1;stroke:none;stroke-width:3.17272329px;stroke-linecap:butt;stroke-linejoin:miter;stroke-miterlimit:4;stroke-dasharray:none;stroke-dashoffset:0;stroke-opacity:1"
         x="44.292774"
         y="218.67326"
         id="text2653"><tspan
           sodipodi:role="line"
           id="tspan2651"
           x="44.292774"
           y="245.28806"
           style="stroke-width:3.17272329px" /></text>
      <text
         xml:space="preserve"
         style="font-style:normal;font-variant:normal;font-weight:normal;font-stretch:normal;font-size:4.72345829px;line-height:1.25;font-family:Quicksand;-inkscape-font-specification:Quicksand;text-align:end;letter-spacing:0px;word-spacing:0px;text-anchor:end;fill:#d3d3d3;fill-opacity:1;stroke:none;stroke-width:0.29521614"
         x="167.17076"
         y="298.24545"
         id="text7806"><tspan
           sodipodi:role="line"
           id="tspan7804"
           x="167.17076"
           y="298.24545"
           style="font-size:4.72345829px;text-align:end;text-anchor:end;fill:#d3d3d3;stroke-width:0.29521614">Meer op: https://hoezithet.nu</tspan></text>
    </g>
  </g>
  <g
     inkscape:groupmode="layer"
     id="layer2"
     inkscape:label="Layer 1"
     transform="translate(5.1800203,-240.86796)" />
  <g
     id="g30129"
     transform="matrix(1.2598198,0,0,1.2598198,1.4393809,-12.481464)">
    <g
       transform="matrix(0.98991056,0,0,0.98991056,2.7426744,6.7691962)"
       id="g7204">
      <circle
         style="fill:#000000;stroke-width:0.14375333"
         id="circle5724"
         r="3.2344499"
         cy="10.647695"
         cx="29.856325" />
      <path
         style="fill:#000000;stroke-width:0.14375333"
         id="path5726"
         d="m 28.922216,17.446939 c -0.07734,-0.383965 -5.75e-4,-0.775118 0.216061,-1.10115 0.21678,-0.32632 0.547556,-0.548419 0.931522,-0.625902 0.09588,-0.01955 0.19421,-0.02947 0.291819,-0.02947 0.692603,0 1.29608,0.493649 1.434658,1.173602 0.0055,0.02588 0.31022,1.39527 1.266467,3.136411 -0.08568,-0.953516 -0.129234,-1.861175 -0.182423,-2.636149 0.02803,-1.488853 -0.936553,-3.003151 -2.200864,-2.980869 -1.264598,0.02214 -2.810377,1.126451 -2.964624,3.347009 -0.194067,3.054471 0.09143,4.932177 1.277104,7.920521 0.544682,1.116819 1.245048,1.594368 1.971146,1.744303 0.648471,2.148537 1.589049,6.79867 -0.290526,11.873737 -0.34472,0.930803 0.130241,1.964533 1.0609,2.30911 0.205855,0.07619 0.416453,0.112271 0.623889,0.112271 0.730267,0 1.416833,-0.448366 1.685221,-1.173171 2.286253,-6.172911 1.136226,-11.71029 0.321576,-14.308919 -4.374845,-3.712717 -5.394919,-8.528166 -5.441926,-8.761334 z"
         inkscape:connector-curvature="0" />
      <path
         inkscape:connector-curvature="0"
         id="path1528-3-0-7-1-2"
         d="m 35.779247,26.964211 c 0.549639,-0.756107 1.943841,-3.64158 0.482102,-5.930495 -2.029105,-3.177346 -3.219567,-4.703176 -3.493063,-5.45013 -0.460716,-1.258278 -2.656732,-1.865175 -4.056643,-0.672733 -2.456338,2.117035 -1.015539,8.40575 0.438897,12.15736 4.29805,1.392847 5.839537,0.981613 6.628707,-0.104002 z"
         style="opacity:1;fill:url(#pattern13509);fill-opacity:1;stroke-width:0.07783227"
         sodipodi:nodetypes="sssccs" />
      <g
         id="g6021"
         transform="matrix(0.7368421,0,0,0.7368421,3.1216302,5.0350155)">
        <circle
           r="3.9274085"
           cy="17.43071"
           cx="46.508785"
           id="path5763"
           style="opacity:1;vector-effect:none;fill:#ff41b4;fill-opacity:1;stroke:#f4f4f4;stroke-width:0.57091421;stroke-linecap:butt;stroke-linejoin:round;stroke-miterlimit:4;stroke-dasharray:none;stroke-dashoffset:0;stroke-opacity:1;paint-order:markers stroke fill" />
        <g
           style="fill:url(#radialGradient5871);fill-opacity:1"
           transform="matrix(0.19034246,-0.05494713,0.10989427,0.2050655,36.488189,15.883253)"
           id="g5831">
          <circle
             style="opacity:0.5;vector-effect:none;fill:#000000;fill-opacity:1;stroke:none;stroke-width:0.26458332;stroke-linecap:butt;stroke-linejoin:round;stroke-miterlimit:4;stroke-dasharray:none;stroke-dashoffset:0;stroke-opacity:1;paint-order:markers stroke fill"
             id="path5769"
             cx="55.561329"
             cy="8.3484135"
             r="2.0645525" />
          <use
             style="fill:#000000;fill-opacity:1"
             x="0"
             y="0"
             xlink:href="#path5769"
             id="use5792"
             transform="translate(2.7707218,4.7990264)"
             width="100%"
             height="100%" />
          <use
             style="fill:#000000;fill-opacity:1"
             x="0"
             y="0"
             xlink:href="#path5769"
             id="use5811"
             transform="translate(-2.3945344,4.7990264)"
             width="100%"
             height="100%" />
        </g>
      </g>
      <path
         inkscape:connector-curvature="0"
         id="path6717"
         d="m 30.238281,15.607422 a 1.1907439,1.1907439 0 0 0 -0.929687,1.888672 c 1.679367,2.38542 2.93722,3.855555 4.705078,4.46289 1.767858,0.607335 3.597777,0.208179 6.21289,-0.484375 a 1.1907439,1.1907439 0 1 0 -0.611328,-2.300781 c -2.542641,0.673361 -3.886866,0.855895 -4.826172,0.533203 C 33.849757,19.384339 32.86691,18.413381 31.255859,16.125 a 1.1907439,1.1907439 0 0 0 -1.017578,-0.517578 z"
         style="color:#000000;font-style:normal;font-variant:normal;font-weight:normal;font-stretch:normal;font-size:medium;line-height:normal;font-family:sans-serif;font-variant-ligatures:normal;font-variant-position:normal;font-variant-caps:normal;font-variant-numeric:normal;font-variant-alternates:normal;font-feature-settings:normal;text-indent:0;text-align:start;text-decoration:none;text-decoration-line:none;text-decoration-style:solid;text-decoration-color:#000000;letter-spacing:normal;word-spacing:normal;text-transform:none;writing-mode:lr-tb;direction:ltr;text-orientation:mixed;dominant-baseline:auto;baseline-shift:baseline;text-anchor:start;white-space:normal;shape-padding:0;clip-rule:nonzero;display:inline;overflow:visible;visibility:visible;opacity:1;isolation:auto;mix-blend-mode:normal;color-interpolation:sRGB;color-interpolation-filters:linearRGB;solid-color:#000000;solid-opacity:1;vector-effect:none;fill:#000000;fill-opacity:1;fill-rule:nonzero;stroke:#f4f4f4;stroke-width:0.42067364;stroke-linecap:round;stroke-linejoin:miter;stroke-miterlimit:4;stroke-dasharray:none;stroke-dashoffset:0;stroke-opacity:1;paint-order:markers stroke fill;color-rendering:auto;image-rendering:auto;shape-rendering:auto;text-rendering:auto;enable-background:accumulate" />
      <path
         sodipodi:nodetypes="cc"
         style="opacity:1;vector-effect:none;fill:none;fill-opacity:1;stroke:#e7040f;stroke-width:0.56089818;stroke-linecap:round;stroke-linejoin:miter;stroke-miterlimit:4;stroke-dasharray:none;stroke-dashoffset:0;stroke-opacity:1;marker-end:url(#Arrow2Mend)"
         d="M 37.391261,17.878697 V 39.638728"
         id="path6033"
         inkscape:connector-curvature="0" />
      <g
         id="g30205"
         style="fill:#e7040f"
         ns1:jacobian_sqrt="0.539544"
         inkscapeversion="0.92.4"
         ns1:alignment="middle center"
         ns1:scale="1.52941708383"
         ns1:preamble="/home/fdf/.config/inkscape/extensions/textext/default_packages.tex"
         ns1:text="$49{,}1$ N"
         ns1:pdfconverter="pdf2svg"
         ns1:texconverter="pdflatex"
         ns1:version="0.9.0"
         transform="matrix(0.539544,0,0,0.539544,-40.983812,-42.748)">
        <g
           style="fill:#e7040f"
           id="surface1">
          <g
             id="g30190"
             style="fill:#e7040f;fill-opacity:1">
            <path
               id="path30186"
               transform="translate(148.712,134.765)"
               d="m 2.9375,-1.640625 v 0.859375 c 0,0.359375 -0.03125,0.46875 -0.765625,0.46875 H 1.96875 V 0 C 2.375,-0.03125 2.890625,-0.03125 3.3125,-0.03125 c 0.421875,0 0.9375,0 1.359375,0.03125 v -0.3125 h -0.21875 c -0.734375,0 -0.75,-0.109375 -0.75,-0.46875 V -1.640625 H 4.6875 v -0.3125 H 3.703125 v -4.53125 c 0,-0.203125 0,-0.265625 -0.171875,-0.265625 -0.078125,0 -0.109375,0 -0.1875,0.125 l -3.0625,4.671875 v 0.3125 z m 0.046875,-0.3125 H 0.5625 l 2.421875,-3.71875 z m 0,0"
               style="fill:#e7040f;stroke:none;stroke-width:0"
               inkscape:connector-curvature="0" />
            <path
               id="path30188"
               transform="translate(153.6933,134.765)"
               d="m 3.65625,-3.171875 v 0.328125 c 0,2.328125 -1.03125,2.78125 -1.609375,2.78125 -0.171875,0 -0.71875,-0.015625 -0.984375,-0.359375 0.4375,0 0.515625,-0.28125 0.515625,-0.453125 0,-0.3125 -0.234375,-0.453125 -0.453125,-0.453125 -0.15625,0 -0.453125,0.078125 -0.453125,0.46875 0,0.671875 0.53125,1.078125 1.375,1.078125 1.296875,0 2.515625,-1.359375 2.515625,-3.5 0,-2.6875 -1.15625,-3.359375 -2.046875,-3.359375 -0.546875,0 -1.03125,0.1875 -1.453125,0.625 -0.421875,0.453125 -0.640625,0.875 -0.640625,1.625 0,1.234375 0.875,2.21875 1.984375,2.21875 0.609375,0 1.015625,-0.421875 1.25,-1 z M 2.421875,-2.40625 c -0.15625,0 -0.625,0 -0.921875,-0.625 -0.1875,-0.375 -0.1875,-0.859375 -0.1875,-1.359375 0,-0.53125 0,-1 0.21875,-1.375 0.265625,-0.5 0.640625,-0.625 0.984375,-0.625 0.46875,0 0.796875,0.34375 0.96875,0.78125 0.109375,0.328125 0.15625,0.953125 0.15625,1.40625 0,0.828125 -0.34375,1.796875 -1.21875,1.796875 z m 0,0"
               style="fill:#e7040f;stroke:none;stroke-width:0"
               inkscape:connector-curvature="0" />
          </g>
          <g
             id="g30194"
             style="fill:#e7040f;fill-opacity:1">
            <path
               id="path30192"
               transform="translate(158.675,134.765)"
               d="m 2.03125,-0.015625 c 0,-0.65625 -0.25,-1.046875 -0.640625,-1.046875 -0.328125,0 -0.53125,0.25 -0.53125,0.53125 C 0.859375,-0.265625 1.0625,0 1.390625,0 1.5,0 1.640625,-0.046875 1.734375,-0.125 1.765625,-0.15625 1.78125,-0.15625 1.78125,-0.15625 c 0.015625,0 0.015625,0 0.015625,0.140625 0,0.75 -0.34375,1.34375 -0.671875,1.671875 -0.109375,0.109375 -0.109375,0.125 -0.109375,0.15625 0,0.078125 0.046875,0.109375 0.09375,0.109375 0.109375,0 0.921875,-0.765625 0.921875,-1.9375 z m 0,0"
               style="fill:#e7040f;stroke:none;stroke-width:0"
               inkscape:connector-curvature="0" />
          </g>
          <g
             id="g30198"
             style="fill:#e7040f;fill-opacity:1">
            <path
               id="path30196"
               transform="translate(161.442,134.765)"
               d="m 2.9375,-6.375 c 0,-0.25 0,-0.265625 -0.234375,-0.265625 C 2.078125,-6 1.203125,-6 0.890625,-6 v 0.3125 c 0.203125,0 0.78125,0 1.296875,-0.265625 v 5.171875 c 0,0.359375 -0.03125,0.46875 -0.921875,0.46875 h -0.3125 V 0 c 0.34375,-0.03125 1.203125,-0.03125 1.609375,-0.03125 0.390625,0 1.265625,0 1.609375,0.03125 v -0.3125 h -0.3125 c -0.90625,0 -0.921875,-0.109375 -0.921875,-0.46875 z m 0,0"
               style="fill:#e7040f;stroke:none;stroke-width:0"
               inkscape:connector-curvature="0" />
          </g>
          <g
             id="g30202"
             style="fill:#e7040f;fill-opacity:1">
            <path
               id="path30200"
               transform="translate(169.74085,134.765)"
               d="M 2.3125,-6.671875 C 2.21875,-6.796875 2.21875,-6.8125 2.03125,-6.8125 H 0.328125 V -6.5 H 0.625 c 0.140625,0 0.34375,0.015625 0.484375,0.015625 0.234375,0.03125 0.25,0.046875 0.25,0.234375 v 5.203125 c 0,0.265625 0,0.734375 -1.03125,0.734375 V 0 C 0.671875,-0.015625 1.171875,-0.03125 1.5,-0.03125 c 0.328125,0 0.8125,0.015625 1.15625,0.03125 v -0.3125 c -1.015625,0 -1.015625,-0.46875 -1.015625,-0.734375 v -5.1875 c 0.046875,0.046875 0.046875,0.0625 0.09375,0.125 L 5.796875,-0.125 C 5.890625,-0.015625 5.90625,0 5.96875,0 6.109375,0 6.109375,-0.0625 6.109375,-0.265625 v -5.5 c 0,-0.265625 0,-0.734375 1.03125,-0.734375 v -0.3125 c -0.359375,0.015625 -0.84375,0.03125 -1.171875,0.03125 -0.328125,0 -0.8125,-0.015625 -1.15625,-0.03125 V -6.5 c 1.015625,0 1.015625,0.46875 1.015625,0.734375 V -1.5 Z m 0,0"
               style="fill:#e7040f;stroke:none;stroke-width:0"
               inkscape:connector-curvature="0" />
          </g>
        </g>
      </g>
    </g>
    <g
       transform="matrix(0.31065703,0,0,0.31065703,58.1572,34.00179)"
       id="g7294">
      <path
         id="use7237"
         style="opacity:1;vector-effect:none;fill:#d3d3d3;fill-opacity:1;stroke:none;stroke-width:0.35277775;stroke-linecap:round;stroke-linejoin:miter;stroke-miterlimit:4;stroke-dasharray:none;stroke-dashoffset:0;stroke-opacity:1"
         d="m 72.238472,19.140356 c 0,3.507912 2.515734,2.975615 -0.620117,8.407069 -3.135852,5.431456 0.878499,17.539561 0.878499,17.539561 h 5.554192 c 0,0 4.014351,-12.108105 0.878499,-17.539561 -3.135851,-5.431454 -0.620117,-4.899157 -0.620117,-8.407069 0,-3.507913 -2.377744,-3.580994 -3.035478,-3.580994 -0.657734,0 -3.035478,0.07308 -3.035478,3.580994 z"
         inkscape:connector-curvature="0"
         sodipodi:nodetypes="ssccsscs" />
      <path
         id="use7237-5"
         style="opacity:1;vector-effect:none;fill:#e7040f;fill-opacity:1;stroke:none;stroke-width:0.35277775;stroke-linecap:round;stroke-linejoin:miter;stroke-miterlimit:4;stroke-dasharray:none;stroke-dashoffset:0;stroke-opacity:1"
         d="m 72.238471,19.140355 c 0,3.507912 2.515734,2.975615 -0.620117,8.407069 -3.135852,5.431456 0.878499,17.539562 0.878499,17.539562 h 5.554192 c 0,0 4.014352,-12.108106 0.878499,-17.539562 -3.135851,-5.431454 -0.620117,-4.899157 -0.620117,-8.407069 0,-3.507913 -2.377744,-3.580994 -3.035478,-3.580994 -0.657734,0 -3.035478,0.07308 -3.035478,3.580994 z"
         inkscape:connector-curvature="0"
         sodipodi:nodetypes="ssccsscs"
         clip-path="url(#clipPath7284)" />
    </g>
    <use
       height="100%"
       width="100%"
       transform="translate(3.7404994,1.5442066e-6)"
       id="use7308"
       xlink:href="#g7294"
       y="0"
       x="0" />
    <use
       height="100%"
       width="100%"
       transform="translate(7.7441374,1.5442066e-6)"
       id="use7310"
       xlink:href="#g7294"
       y="0"
       x="0" />
  </g>
</svg>
