<?xml version="1.0" encoding="UTF-8" standalone="no"?>
<svg
   xmlns:dc="http://purl.org/dc/elements/1.1/"
   xmlns:cc="http://creativecommons.org/ns#"
   xmlns:rdf="http://www.w3.org/1999/02/22-rdf-syntax-ns#"
   xmlns:svg="http://www.w3.org/2000/svg"
   xmlns="http://www.w3.org/2000/svg"
   xmlns:sodipodi="http://sodipodi.sourceforge.net/DTD/sodipodi-0.dtd"
   xmlns:inkscape="http://www.inkscape.org/namespaces/inkscape"
   inkscape:export-ydpi="325.31882"
   inkscape:export-xdpi="325.31882"
   inkscape:export-filename="\\wsl$\Ubuntu-18.04\home\fdf\clones\hoezithet\static\images\sponsor\VIVES.png"
   inkscape:version="1.0 (4035a4fb49, 2020-05-01)"
   sodipodi:docname="VIVES.svg"
   viewBox="0 0 360.90134 139.54959"
   height="139.54959"
   width="360.90134"
   xml:space="preserve"
   id="svg2"
   version="1.1"><metadata
     id="metadata8"><rdf:RDF><cc:Work
         rdf:about=""><dc:format>image/svg+xml</dc:format><dc:type
           rdf:resource="http://purl.org/dc/dcmitype/StillImage" /><dc:title></dc:title></cc:Work></rdf:RDF></metadata><defs
     id="defs6"><clipPath
       id="clipPath18"
       clipPathUnits="userSpaceOnUse"><path
         id="path16"
         d="M 0,283.46 H 283.46 V 0 H 0 Z" /></clipPath></defs><sodipodi:namedview
     inkscape:current-layer="g10"
     inkscape:window-maximized="1"
     inkscape:window-y="161"
     inkscape:window-x="54"
     inkscape:cy="98.919869"
     inkscape:cx="163.93524"
     inkscape:zoom="1.328351"
     inkscape:pagecheckerboard="false"
     showgrid="false"
     id="namedview4"
     inkscape:window-height="877"
     inkscape:window-width="1538"
     inkscape:pageshadow="2"
     inkscape:pageopacity="0"
     guidetolerance="10"
     gridtolerance="10"
     objecttolerance="10"
     borderopacity="1"
     bordercolor="#666666"
     pagecolor="#ffffff" /><g
     transform="matrix(1.3333333,0,0,-1.3333333,-9.0973331,295.42946)"
     inkscape:label="2 VIVES hogeschool tekst_rechtsgelijnd hs boven_rood"
     inkscape:groupmode="layer"
     id="g10"><g
       id="g12"><g
         clip-path="url(#clipPath18)"
         id="g14"><g
           transform="translate(29.293,118.4239)"
           id="g20"><path
             id="path22"
             style="fill:#ed1c24;fill-opacity:1;fill-rule:nonzero;stroke:none"
             d="m 0,0 c 1.319,-0.309 2.717,-0.504 4.192,-0.582 1.474,-0.076 2.794,-0.117 3.959,-0.117 1.085,0 2.445,0.041 4.074,0.117 1.629,0.078 3.181,0.232 4.657,0.465 l 22.819,60.075 c -1.941,0.388 -3.667,0.621 -5.181,0.698 -1.513,0.077 -2.853,0.116 -4.016,0.116 -1.476,0 -2.951,-0.057 -4.424,-0.174 -1.476,-0.116 -2.873,-0.29 -4.191,-0.524 L 8.965,15.252 -4.19,60.074 c -1.322,0.311 -2.756,0.505 -4.309,0.582 -1.553,0.077 -3.104,0.116 -4.656,0.116 -1.165,0 -2.543,-0.039 -4.134,-0.116 -1.591,-0.077 -3.317,-0.31 -5.181,-0.698 z m 53.558,-0.117 c 2.795,-0.465 5.472,-0.697 8.034,-0.697 2.637,0 5.356,0.232 8.149,0.697 V 60.074 H 45.757 C 45.293,58.056 45.059,56 45.059,53.904 c 0,-1.009 0.059,-2.077 0.175,-3.202 0.116,-1.126 0.291,-2.194 0.523,-3.2 h 7.801 z M 99.074,0 c 1.32,-0.309 2.718,-0.504 4.193,-0.582 1.472,-0.076 2.794,-0.117 3.958,-0.117 1.087,0 2.445,0.041 4.076,0.117 1.629,0.078 3.18,0.232 4.655,0.465 l 22.819,60.075 c -1.94,0.388 -3.668,0.621 -5.179,0.698 -1.515,0.077 -2.852,0.116 -4.017,0.116 -1.476,0 -2.951,-0.057 -4.425,-0.174 -1.475,-0.116 -2.872,-0.29 -4.19,-0.524 L 108.041,15.252 94.884,60.074 c -1.321,0.311 -2.756,0.505 -4.308,0.582 -1.554,0.077 -3.105,0.116 -4.656,0.116 -1.164,0 -2.544,-0.039 -4.134,-0.116 -1.592,-0.077 -3.318,-0.31 -5.181,-0.698 z m 96.046,24.914 c 0.155,0.854 0.293,1.998 0.408,3.435 0.118,1.435 0.176,2.89 0.176,4.366 0,4.035 -0.584,7.818 -1.748,11.351 -1.164,3.532 -2.891,6.579 -5.18,9.139 -2.29,2.562 -5.064,4.579 -8.324,6.055 -3.261,1.473 -6.984,2.212 -11.177,2.212 -4.813,0 -9.022,-0.835 -12.631,-2.503 -3.611,-1.67 -6.636,-3.942 -9.081,-6.811 -2.445,-2.873 -4.29,-6.25 -5.531,-10.129 -1.242,-3.883 -1.862,-8.034 -1.862,-12.459 0,-4.501 0.601,-8.654 1.804,-12.457 1.202,-3.802 3.064,-7.083 5.589,-9.836 2.521,-2.756 5.781,-4.91 9.78,-6.463 3.995,-1.55 8.788,-2.328 14.378,-2.328 7.605,0 14.436,1.164 20.49,3.493 -0.079,2.483 -0.428,4.812 -1.048,6.986 -0.622,2.172 -1.36,4.035 -2.212,5.588 -2.485,-0.932 -5.103,-1.65 -7.859,-2.155 -2.756,-0.505 -5.453,-0.756 -8.091,-0.756 -4.814,0 -8.692,1.047 -11.642,3.143 -2.951,2.097 -4.581,5.472 -4.891,10.129 z M 156.585,36.44 c 0.387,3.958 1.59,7.024 3.609,9.199 2.017,2.172 4.966,3.259 8.849,3.259 3.414,0 6.072,-1.146 7.975,-3.435 1.901,-2.289 2.928,-5.297 3.085,-9.023 z m 69.151,-12.456 c 2.019,-0.623 3.589,-1.339 4.716,-2.154 1.124,-0.816 1.688,-2.155 1.688,-4.018 0,-1.32 -0.369,-2.386 -1.107,-3.201 -0.738,-0.816 -1.649,-1.475 -2.734,-1.98 -1.089,-0.505 -2.271,-0.855 -3.552,-1.047 -1.281,-0.195 -2.465,-0.291 -3.55,-0.291 -2.485,0 -4.874,0.251 -7.162,0.757 -2.29,0.504 -4.714,1.261 -7.275,2.27 -0.931,-2.019 -1.688,-4.094 -2.271,-6.228 -0.581,-2.137 -0.951,-4.25 -1.106,-6.346 1.63,-0.623 3.143,-1.125 4.541,-1.514 1.397,-0.386 2.812,-0.716 4.249,-0.99 1.436,-0.27 2.93,-0.465 4.481,-0.58 1.554,-0.118 3.262,-0.176 5.124,-0.176 4.113,0 7.801,0.524 11.062,1.573 3.26,1.046 6.033,2.482 8.324,4.308 2.286,1.822 4.032,3.975 5.237,6.461 1.203,2.483 1.805,5.16 1.805,8.033 0,2.793 -0.351,5.16 -1.047,7.102 -0.698,1.938 -1.671,3.568 -2.911,4.89 -1.243,1.319 -2.736,2.424 -4.482,3.317 -1.748,0.892 -3.708,1.648 -5.881,2.27 l -6.635,1.98 c -1.94,0.621 -3.435,1.28 -4.482,1.978 -1.047,0.7 -1.571,1.901 -1.571,3.61 0,1.785 0.736,3.085 2.21,3.9 1.473,0.815 3.533,1.223 6.172,1.223 2.483,0 4.851,-0.291 7.102,-0.873 2.25,-0.582 4.307,-1.263 6.17,-2.037 0.854,1.629 1.589,3.53 2.211,5.705 0.622,2.171 1.009,4.266 1.166,6.285 -3.028,1.087 -6.016,1.901 -8.964,2.445 -2.952,0.543 -5.939,0.816 -8.965,0.816 -7.297,0 -13.062,-1.669 -17.29,-5.006 -4.233,-3.339 -6.344,-7.958 -6.344,-13.855 0,-4.89 1.222,-8.556 3.665,-11.002 2.446,-2.445 5.84,-4.291 10.189,-5.531 z" /></g><g
           transform="translate(89.5703,187.9707)"
           id="g24"><path
             id="path26"
             style="fill:#ed1c24;fill-opacity:1;fill-rule:nonzero;stroke:none"
             d="m 0,0 c 5.723,0 10.363,4.641 10.363,10.363 0,5.723 -4.64,10.362 -10.363,10.362 -5.721,0 -10.36,-4.639 -10.36,-10.362 C -10.36,4.641 -5.721,0 0,0" /></g><g
           transform="translate(120.3647,221.3941)"
           id="g28"><path
             id="path30"
             style="fill:#ed1c24;fill-opacity:1;fill-rule:nonzero;stroke:none"
             d="m 0,0 c 0.336,0.058 0.689,0.102 1.044,0.121 0.36,0.02 0.708,0.03 1.046,0.03 0.338,0 0.69,-0.01 1.045,-0.03 C 3.496,0.102 3.854,0.058 4.214,0 v -8.216 c 0.137,0.177 0.323,0.393 0.551,0.644 0.226,0.248 0.509,0.488 0.851,0.718 0.34,0.228 0.747,0.42 1.228,0.582 0.475,0.157 1.023,0.237 1.641,0.237 1.713,0 3.011,-0.476 3.896,-1.435 0.884,-0.956 1.329,-2.458 1.329,-4.511 v -9.885 c -0.358,-0.06 -0.713,-0.098 -1.074,-0.122 -0.36,-0.022 -0.706,-0.029 -1.046,-0.029 -0.338,0 -0.684,0.007 -1.045,0.029 -0.358,0.024 -0.718,0.062 -1.076,0.122 v 8.752 c 0,1.076 -0.171,1.898 -0.508,2.48 -0.337,0.577 -0.915,0.866 -1.73,0.866 -0.344,0 -0.689,-0.049 -1.048,-0.149 -0.356,-0.102 -0.682,-0.297 -0.97,-0.584 C 4.925,-10.789 4.685,-11.19 4.496,-11.707 4.31,-12.23 4.214,-12.904 4.214,-13.745 v -8.121 c -0.36,-0.06 -0.718,-0.098 -1.079,-0.122 -0.355,-0.022 -0.707,-0.029 -1.045,-0.029 -0.338,0 -0.682,0.007 -1.028,0.029 -0.351,0.024 -0.7,0.062 -1.062,0.122 z" /></g><g
           transform="translate(144.6221,202.4234)"
           id="g32"><path
             id="path34"
             style="fill:#ed1c24;fill-opacity:1;fill-rule:nonzero;stroke:none"
             d="M 0,0 C 1.113,0 1.917,0.413 2.404,1.239 2.895,2.066 3.138,3.255 3.138,4.81 3.138,6.362 2.895,7.556 2.404,8.381 1.917,9.206 1.113,9.621 0,9.621 -1.098,9.621 -1.888,9.206 -2.373,8.381 -2.863,7.556 -3.106,6.362 -3.106,4.81 -3.106,3.255 -2.863,2.066 -2.373,1.239 -1.888,0.413 -1.098,0 0,0 m 0,-3.225 c -1.256,0 -2.346,0.207 -3.27,0.615 -0.929,0.404 -1.694,0.972 -2.301,1.702 -0.607,0.723 -1.063,1.578 -1.374,2.552 -0.311,0.974 -0.463,2.03 -0.463,3.166 0,1.136 0.152,2.202 0.463,3.2 0.311,0.993 0.767,1.854 1.374,2.583 0.607,0.728 1.372,1.299 2.301,1.716 0.924,0.419 2.014,0.627 3.27,0.627 1.255,0 2.351,-0.208 3.288,-0.627 C 4.221,11.892 4.997,11.321 5.615,10.593 6.233,9.864 6.693,9.003 6.992,8.01 7.288,7.012 7.437,5.946 7.437,4.81 7.437,3.674 7.288,2.618 6.992,1.644 6.693,0.67 6.233,-0.185 5.615,-0.908 4.997,-1.638 4.221,-2.206 3.288,-2.61 2.351,-3.018 1.255,-3.225 0,-3.225" /></g><g
           transform="translate(161.6201,207.1763)"
           id="g36"><path
             id="path38"
             style="fill:#ed1c24;fill-opacity:1;fill-rule:nonzero;stroke:none"
             d="M 0,0 C 0.837,0 1.439,0.238 1.806,0.716 2.176,1.193 2.36,1.851 2.36,2.688 2.36,3.524 2.176,4.185 1.806,4.675 1.439,5.16 0.837,5.405 0,5.405 -0.859,5.405 -1.474,5.16 -1.853,4.675 -2.229,4.185 -2.42,3.524 -2.42,2.688 -2.42,1.851 -2.229,1.193 -1.853,0.716 -1.474,0.238 -0.859,0 0,0 m -1.226,-8.157 c -0.438,0.019 -0.8,-0.031 -1.089,-0.151 -0.288,-0.122 -0.52,-0.274 -0.687,-0.462 -0.169,-0.186 -0.289,-0.398 -0.359,-0.625 -0.069,-0.23 -0.107,-0.451 -0.107,-0.672 0,-0.756 0.287,-1.273 0.855,-1.541 0.566,-0.27 1.328,-0.404 2.286,-0.404 1.254,0 2.264,0.202 3.031,0.598 0.766,0.4 1.15,0.935 1.15,1.613 0,0.199 -0.027,0.389 -0.077,0.569 -0.048,0.18 -0.142,0.343 -0.281,0.491 -0.141,0.152 -0.336,0.273 -0.584,0.375 -0.248,0.102 -0.581,0.148 -0.998,0.148 z m 3.824,3.107 c 1.813,-0.043 3.146,-0.447 4.005,-1.208 0.854,-0.768 1.283,-1.859 1.283,-3.274 0,-0.834 -0.219,-1.599 -0.657,-2.283 -0.437,-0.689 -1.035,-1.271 -1.794,-1.75 -0.754,-0.476 -1.65,-0.848 -2.686,-1.105 -1.038,-0.26 -2.15,-0.387 -3.348,-0.387 -1.195,0 -2.211,0.095 -3.044,0.281 -0.838,0.193 -1.519,0.454 -2.046,0.793 -0.528,0.338 -0.908,0.755 -1.137,1.254 -0.23,0.499 -0.345,1.045 -0.345,1.642 0,0.896 0.215,1.636 0.641,2.213 0.432,0.577 1.005,1.082 1.721,1.523 -0.459,0.279 -0.822,0.622 -1.089,1.031 -0.272,0.408 -0.405,0.931 -0.405,1.567 0,0.759 0.159,1.375 0.476,1.851 0.317,0.48 0.788,0.937 1.407,1.377 -0.699,0.496 -1.239,1.101 -1.616,1.822 -0.378,0.717 -0.566,1.513 -0.566,2.391 0,0.774 0.15,1.497 0.448,2.164 0.301,0.669 0.732,1.247 1.3,1.734 0.565,0.487 1.256,0.869 2.075,1.148 0.816,0.281 1.731,0.418 2.75,0.418 0.994,0 1.911,-0.154 2.746,-0.464 C 3.558,7.384 4.249,6.99 4.811,6.51 5.187,7.01 5.657,7.384 6.216,7.631 6.771,7.884 7.528,8.006 8.484,8.006 8.524,7.747 8.558,7.493 8.589,7.242 8.619,6.994 8.635,6.729 8.635,6.45 8.635,6.13 8.623,5.814 8.603,5.494 8.582,5.179 8.544,4.849 8.484,4.509 H 6.063 C 6.162,4.312 6.254,4.071 6.331,3.794 6.412,3.513 6.452,3.146 6.452,2.688 6.452,1.91 6.307,1.187 6.018,0.52 5.729,-0.145 5.307,-0.718 4.748,-1.195 4.192,-1.676 3.51,-2.053 2.704,-2.331 1.899,-2.61 0.985,-2.75 -0.029,-2.75 c -0.856,0 -1.622,0.086 -2.302,0.271 -0.337,-0.225 -0.547,-0.458 -0.626,-0.704 -0.078,-0.252 -0.123,-0.482 -0.123,-0.704 0,-0.318 0.106,-0.575 0.316,-0.775 0.212,-0.199 0.634,-0.307 1.269,-0.328 z" /></g><g
           transform="translate(181.7529,208.94)"
           id="g40"><path
             id="path42"
             style="fill:#ed1c24;fill-opacity:1;fill-rule:nonzero;stroke:none"
             d="M 0,0 C -0.038,0.951 -0.302,1.725 -0.789,2.313 -1.275,2.899 -1.96,3.196 -2.837,3.196 -3.833,3.196 -4.588,2.914 -5.107,2.359 -5.623,1.799 -5.935,1.014 -6.032,0 Z m -6.062,-2.959 c 0.076,-1.197 0.496,-2.061 1.253,-2.601 0.755,-0.539 1.753,-0.803 2.989,-0.803 0.676,0 1.372,0.062 2.077,0.194 0.704,0.126 1.379,0.311 2.015,0.548 0.22,-0.397 0.407,-0.876 0.567,-1.433 0.16,-0.556 0.248,-1.154 0.271,-1.793 -1.556,-0.597 -3.307,-0.894 -5.257,-0.894 -1.434,0 -2.666,0.198 -3.692,0.598 -1.025,0.398 -1.861,0.948 -2.512,1.658 -0.644,0.706 -1.119,1.545 -1.432,2.523 -0.308,0.973 -0.463,2.044 -0.463,3.198 0,1.133 0.16,2.198 0.478,3.197 0.318,0.994 0.792,1.861 1.417,2.595 0.63,0.74 1.406,1.321 2.333,1.751 0.927,0.428 2.007,0.64 3.241,0.64 1.076,0 2.031,-0.188 2.869,-0.566 C 0.929,5.47 1.641,4.954 2.228,4.299 2.814,3.642 3.26,2.86 3.557,1.953 3.86,1.048 4.005,0.075 4.005,-0.959 4.005,-1.34 3.991,-1.71 3.958,-2.079 3.929,-2.449 3.896,-2.742 3.86,-2.959 Z" /></g><g
           transform="translate(192.2402,206.2759)"
           id="g44"><path
             id="path46"
             style="fill:#ed1c24;fill-opacity:1;fill-rule:nonzero;stroke:none"
             d="m 0,0 c -1.113,0.32 -1.985,0.795 -2.614,1.42 -0.628,0.63 -0.941,1.57 -0.941,2.824 0,1.514 0.541,2.7 1.628,3.555 1.085,0.855 2.565,1.284 4.438,1.284 0.775,0 1.542,-0.07 2.298,-0.208 C 5.569,8.736 6.333,8.523 7.111,8.248 7.069,7.729 6.971,7.192 6.811,6.632 6.648,6.079 6.464,5.589 6.242,5.168 5.765,5.37 5.239,5.543 4.658,5.691 4.083,5.846 3.476,5.916 2.836,5.916 2.162,5.916 1.632,5.814 1.253,5.605 0.875,5.395 0.687,5.062 0.687,4.603 0.687,4.167 0.819,3.856 1.086,3.678 1.359,3.497 1.741,3.328 2.24,3.168 L 3.944,2.664 C 4.5,2.501 5.003,2.309 5.453,2.077 5.899,1.85 6.283,1.567 6.604,1.228 6.92,0.891 7.169,0.469 7.352,-0.027 7.529,-0.524 7.619,-1.132 7.619,-1.85 7.619,-2.588 7.461,-3.276 7.156,-3.91 6.848,-4.547 6.399,-5.102 5.811,-5.568 5.224,-6.037 4.512,-6.406 3.675,-6.675 2.836,-6.942 1.895,-7.077 0.839,-7.077 c -0.482,0 -0.918,0.015 -1.316,0.043 -0.398,0.031 -0.783,0.083 -1.151,0.149 -0.368,0.073 -0.732,0.155 -1.092,0.257 -0.36,0.099 -0.746,0.228 -1.164,0.388 0.04,0.538 0.133,1.078 0.284,1.629 0.15,0.544 0.344,1.076 0.585,1.596 0.655,-0.261 1.276,-0.453 1.867,-0.584 0.586,-0.129 1.197,-0.193 1.835,-0.193 0.279,0 0.583,0.024 0.912,0.076 0.33,0.046 0.63,0.139 0.912,0.271 0.276,0.127 0.511,0.295 0.7,0.507 0.191,0.208 0.285,0.481 0.285,0.821 0,0.476 -0.147,0.818 -0.434,1.027 -0.29,0.209 -0.692,0.397 -1.21,0.555 z" /></g><g
           transform="translate(213.5098,203.1998)"
           id="g48"><path
             id="path50"
             style="fill:#ed1c24;fill-opacity:1;fill-rule:nonzero;stroke:none"
             d="m 0,0 c 0.237,-0.399 0.439,-0.86 0.6,-1.388 0.158,-0.53 0.237,-1.149 0.237,-1.87 -0.798,-0.316 -1.545,-0.519 -2.241,-0.608 -0.696,-0.092 -1.422,-0.135 -2.181,-0.135 -1.295,0 -2.419,0.207 -3.376,0.614 -0.955,0.405 -1.744,0.969 -2.373,1.687 -0.629,0.714 -1.104,1.566 -1.42,2.554 -0.315,0.984 -0.477,2.054 -0.477,3.209 0,1.135 0.154,2.193 0.46,3.17 0.309,0.97 0.781,1.83 1.404,2.568 0.627,0.734 1.413,1.314 2.349,1.731 0.933,0.419 2.018,0.627 3.255,0.627 0.441,0 0.84,-0.007 1.209,-0.03 0.368,-0.022 0.724,-0.055 1.062,-0.117 0.337,-0.061 0.676,-0.139 1.013,-0.241 0.34,-0.099 0.716,-0.228 1.137,-0.388 C 0.658,10.924 0.6,10.412 0.48,9.843 0.36,9.28 0.167,8.735 -0.089,8.216 -0.686,8.414 -1.206,8.551 -1.657,8.619 -2.104,8.689 -2.62,8.723 -3.196,8.723 -4.43,8.723 -5.36,8.319 -5.988,7.516 -6.616,6.705 -6.93,5.557 -6.93,4.063 c 0,-1.612 0.337,-2.791 1.015,-3.524 0.678,-0.739 1.595,-1.104 2.75,-1.104 0.3,0 0.571,0.004 0.82,0.012 0.249,0.012 0.491,0.034 0.733,0.078 0.239,0.039 0.483,0.098 0.732,0.178 C -0.633,-0.219 -0.336,-0.118 0,0" /></g><g
           transform="translate(217.4248,221.3941)"
           id="g52"><path
             id="path54"
             style="fill:#ed1c24;fill-opacity:1;fill-rule:nonzero;stroke:none"
             d="m 0,0 c 0.337,0.058 0.685,0.102 1.043,0.121 0.358,0.02 0.706,0.03 1.046,0.03 0.34,0 0.687,-0.01 1.046,-0.03 C 3.494,0.102 3.852,0.058 4.212,0 v -8.216 c 0.137,0.177 0.323,0.393 0.55,0.644 0.229,0.248 0.514,0.488 0.849,0.718 0.343,0.228 0.749,0.42 1.229,0.582 0.478,0.157 1.024,0.237 1.641,0.237 1.712,0 3.014,-0.476 3.9,-1.435 0.884,-0.956 1.327,-2.458 1.327,-4.511 v -9.885 c -0.355,-0.06 -0.714,-0.098 -1.073,-0.122 -0.359,-0.022 -0.706,-0.029 -1.044,-0.029 -0.339,0 -0.691,0.007 -1.045,0.029 -0.36,0.024 -0.718,0.062 -1.076,0.122 v 8.752 c 0,1.076 -0.171,1.898 -0.51,2.48 -0.339,0.577 -0.917,0.866 -1.73,0.866 -0.34,0 -0.69,-0.049 -1.046,-0.149 -0.36,-0.102 -0.685,-0.297 -0.972,-0.584 -0.288,-0.288 -0.528,-0.689 -0.718,-1.206 -0.187,-0.523 -0.282,-1.197 -0.282,-2.038 v -8.121 c -0.36,-0.06 -0.718,-0.098 -1.077,-0.122 -0.359,-0.022 -0.706,-0.029 -1.046,-0.029 -0.34,0 -0.683,0.007 -1.031,0.029 -0.344,0.024 -0.7,0.062 -1.058,0.122 z" /></g><g
           transform="translate(241.6797,202.4234)"
           id="g56"><path
             id="path58"
             style="fill:#ed1c24;fill-opacity:1;fill-rule:nonzero;stroke:none"
             d="M 0,0 C 1.114,0 1.918,0.413 2.405,1.239 2.897,2.066 3.139,3.255 3.139,4.81 3.139,6.362 2.897,7.556 2.405,8.381 1.918,9.206 1.114,9.621 0,9.621 c -1.095,0 -1.887,-0.415 -2.374,-1.24 -0.49,-0.825 -0.73,-2.019 -0.73,-3.571 0,-1.555 0.24,-2.744 0.73,-3.571 C -1.887,0.413 -1.095,0 0,0 m 0,-3.225 c -1.255,0 -2.346,0.207 -3.27,0.615 -0.928,0.404 -1.694,0.972 -2.298,1.702 -0.611,0.723 -1.069,1.578 -1.376,2.552 -0.31,0.974 -0.463,2.03 -0.463,3.166 0,1.136 0.153,2.202 0.463,3.2 0.307,0.993 0.765,1.854 1.376,2.583 0.604,0.728 1.37,1.299 2.298,1.716 0.924,0.419 2.015,0.627 3.27,0.627 1.257,0 2.353,-0.208 3.287,-0.627 C 4.223,11.892 5,11.321 5.617,10.593 6.234,9.864 6.694,9.003 6.992,8.01 7.29,7.012 7.442,5.946 7.442,4.81 7.442,3.674 7.29,2.618 6.992,1.644 6.694,0.67 6.234,-0.185 5.617,-0.908 5,-1.638 4.223,-2.206 3.287,-2.61 2.353,-3.018 1.257,-3.225 0,-3.225" /></g><g
           transform="translate(259.1592,202.4234)"
           id="g60"><path
             id="path62"
             style="fill:#ed1c24;fill-opacity:1;fill-rule:nonzero;stroke:none"
             d="M 0,0 C 1.112,0 1.917,0.413 2.4,1.239 2.892,2.066 3.136,3.255 3.136,4.81 3.136,6.362 2.892,7.556 2.4,8.381 1.917,9.206 1.112,9.621 0,9.621 -1.098,9.621 -1.89,9.206 -2.375,8.381 -2.864,7.556 -3.108,6.362 -3.108,4.81 -3.108,3.255 -2.864,2.066 -2.375,1.239 -1.89,0.413 -1.098,0 0,0 m 0,-3.225 c -1.257,0 -2.349,0.207 -3.273,0.615 -0.928,0.404 -1.692,0.972 -2.302,1.702 -0.605,0.723 -1.064,1.578 -1.374,2.552 -0.308,0.974 -0.463,2.03 -0.463,3.166 0,1.136 0.155,2.202 0.463,3.2 0.31,0.993 0.769,1.854 1.374,2.583 0.61,0.728 1.374,1.299 2.302,1.716 0.924,0.419 2.016,0.627 3.273,0.627 1.251,0 2.346,-0.208 3.284,-0.627 0.937,-0.417 1.713,-0.988 2.33,-1.716 C 6.23,9.864 6.688,9.003 6.991,8.01 7.286,7.012 7.435,5.946 7.435,4.81 7.435,3.674 7.286,2.618 6.991,1.644 6.688,0.67 6.23,-0.185 5.614,-0.908 4.997,-1.638 4.221,-2.206 3.284,-2.61 2.346,-3.018 1.251,-3.225 0,-3.225" /></g><g
           transform="translate(269.9707,221.3941)"
           id="g64"><path
             id="path66"
             style="fill:#ed1c24;fill-opacity:1;fill-rule:nonzero;stroke:none"
             d="M 0,0 C 0.716,0.121 1.422,0.178 2.119,0.178 2.798,0.178 3.493,0.121 4.211,0 v -15.684 c 0,-0.619 0.033,-1.116 0.104,-1.49 0.071,-0.382 0.182,-0.675 0.331,-0.883 0.149,-0.212 0.342,-0.356 0.582,-0.434 0.238,-0.08 0.536,-0.117 0.896,-0.117 0.158,0 0.336,0.004 0.523,0.026 0.188,0.022 0.373,0.048 0.551,0.091 0.219,-0.82 0.33,-1.614 0.33,-2.391 v -0.433 c 0,-0.132 -0.018,-0.274 -0.059,-0.431 -0.322,-0.103 -0.703,-0.173 -1.149,-0.211 -0.451,-0.04 -0.864,-0.06 -1.238,-0.06 -1.538,0 -2.769,0.424 -3.693,1.27 C 0.463,-19.901 0,-18.521 0,-16.61 Z" /></g></g></g></g></svg>
