<svg version="1.1" xmlns="http://www.w3.org/2000/svg" xmlns:xlink="http://www.w3.org/1999/xlink" width="1220" height="736"><defs><clipPath id="ZRZAfFlwplDq"><path fill="none" stroke="none" d=" M 0 0 L 1220 0 L 1220 736 L 0 736 L 0 0 Z"/></clipPath></defs><g transform="scale(1,1)" clip-path="url(#ZRZAfFlwplDq)"><g><rect fill="rgb(255,255,255)" stroke="none" x="0" y="0" width="1220" height="736" fill-opacity="1"/><path fill="none" stroke="rgb(192,192,192)" paint-order="fill stroke markers" d=" M 48.5 0.5 L 48.5 736.5 M 97.5 0.5 L 97.5 736.5 M 146.5 0.5 L 146.5 736.5 M 195.5 0.5 L 195.5 736.5 M 244.5 0.5 L 244.5 736.5 M 292.5 0.5 L 292.5 736.5 M 341.5 0.5 L 341.5 736.5 M 390.5 0.5 L 390.5 736.5 M 439.5 0.5 L 439.5 736.5 M 488.5 0.5 L 488.5 736.5 M 536.5 0.5 L 536.5 736.5 M 585.5 0.5 L 585.5 736.5 M 634.5 0.5 L 634.5 736.5 M 683.5 0.5 L 683.5 736.5 M 732.5 0.5 L 732.5 736.5 M 780.5 0.5 L 780.5 736.5 M 829.5 0.5 L 829.5 736.5 M 878.5 0.5 L 878.5 736.5 M 927.5 0.5 L 927.5 736.5 M 976.5 0.5 L 976.5 736.5 M 1024.5 0.5 L 1024.5 736.5 M 1073.5 0.5 L 1073.5 736.5 M 1122.5 0.5 L 1122.5 736.5 M 1171.5 0.5 L 1171.5 736.5 M 1220.5 0.5 L 1220.5 736.5" stroke-opacity="1" stroke-linecap="round" stroke-linejoin="round" stroke-miterlimit="10"/><path fill="none" stroke="rgb(192,192,192)" paint-order="fill stroke markers" d=" M 9.5 0.5 L 9.5 736.5 M 19.5 0.5 L 19.5 736.5 M 29.5 0.5 L 29.5 736.5 M 39.5 0.5 L 39.5 736.5 M 58.5 0.5 L 58.5 736.5 M 68.5 0.5 L 68.5 736.5 M 78.5 0.5 L 78.5 736.5 M 87.5 0.5 L 87.5 736.5 M 107.5 0.5 L 107.5 736.5 M 117.5 0.5 L 117.5 736.5 M 126.5 0.5 L 126.5 736.5 M 136.5 0.5 L 136.5 736.5 M 156.5 0.5 L 156.5 736.5 M 165.5 0.5 L 165.5 736.5 M 175.5 0.5 L 175.5 736.5 M 185.5 0.5 L 185.5 736.5 M 204.5 0.5 L 204.5 736.5 M 214.5 0.5 L 214.5 736.5 M 224.5 0.5 L 224.5 736.5 M 234.5 0.5 L 234.5 736.5 M 253.5 0.5 L 253.5 736.5 M 263.5 0.5 L 263.5 736.5 M 273.5 0.5 L 273.5 736.5 M 283.5 0.5 L 283.5 736.5 M 302.5 0.5 L 302.5 736.5 M 312.5 0.5 L 312.5 736.5 M 322.5 0.5 L 322.5 736.5 M 331.5 0.5 L 331.5 736.5 M 351.5 0.5 L 351.5 736.5 M 361.5 0.5 L 361.5 736.5 M 370.5 0.5 L 370.5 736.5 M 380.5 0.5 L 380.5 736.5 M 400.5 0.5 L 400.5 736.5 M 409.5 0.5 L 409.5 736.5 M 419.5 0.5 L 419.5 736.5 M 429.5 0.5 L 429.5 736.5 M 448.5 0.5 L 448.5 736.5 M 458.5 0.5 L 458.5 736.5 M 468.5 0.5 L 468.5 736.5 M 478.5 0.5 L 478.5 736.5 M 497.5 0.5 L 497.5 736.5 M 507.5 0.5 L 507.5 736.5 M 517.5 0.5 L 517.5 736.5 M 527.5 0.5 L 527.5 736.5 M 546.5 0.5 L 546.5 736.5 M 556.5 0.5 L 556.5 736.5 M 566.5 0.5 L 566.5 736.5 M 575.5 0.5 L 575.5 736.5 M 595.5 0.5 L 595.5 736.5 M 605.5 0.5 L 605.5 736.5 M 614.5 0.5 L 614.5 736.5 M 624.5 0.5 L 624.5 736.5 M 644.5 0.5 L 644.5 736.5 M 653.5 0.5 L 653.5 736.5 M 663.5 0.5 L 663.5 736.5 M 673.5 0.5 L 673.5 736.5 M 692.5 0.5 L 692.5 736.5 M 702.5 0.5 L 702.5 736.5 M 712.5 0.5 L 712.5 736.5 M 722.5 0.5 L 722.5 736.5 M 741.5 0.5 L 741.5 736.5 M 751.5 0.5 L 751.5 736.5 M 761.5 0.5 L 761.5 736.5 M 771.5 0.5 L 771.5 736.5 M 790.5 0.5 L 790.5 736.5 M 800.5 0.5 L 800.5 736.5 M 810.5 0.5 L 810.5 736.5 M 819.5 0.5 L 819.5 736.5 M 839.5 0.5 L 839.5 736.5 M 849.5 0.5 L 849.5 736.5 M 858.5 0.5 L 858.5 736.5 M 868.5 0.5 L 868.5 736.5 M 888.5 0.5 L 888.5 736.5 M 897.5 0.5 L 897.5 736.5 M 907.5 0.5 L 907.5 736.5 M 917.5 0.5 L 917.5 736.5 M 936.5 0.5 L 936.5 736.5 M 946.5 0.5 L 946.5 736.5 M 956.5 0.5 L 956.5 736.5 M 966.5 0.5 L 966.5 736.5 M 985.5 0.5 L 985.5 736.5 M 995.5 0.5 L 995.5 736.5 M 1005.5 0.5 L 1005.5 736.5 M 1015.5 0.5 L 1015.5 736.5 M 1034.5 0.5 L 1034.5 736.5 M 1044.5 0.5 L 1044.5 736.5 M 1054.5 0.5 L 1054.5 736.5 M 1063.5 0.5 L 1063.5 736.5 M 1083.5 0.5 L 1083.5 736.5 M 1093.5 0.5 L 1093.5 736.5 M 1102.5 0.5 L 1102.5 736.5 M 1112.5 0.5 L 1112.5 736.5 M 1132.5 0.5 L 1132.5 736.5 M 1141.5 0.5 L 1141.5 736.5 M 1151.5 0.5 L 1151.5 736.5 M 1161.5 0.5 L 1161.5 736.5 M 1180.5 0.5 L 1180.5 736.5 M 1190.5 0.5 L 1190.5 736.5 M 1200.5 0.5 L 1200.5 736.5 M 1210.5 0.5 L 1210.5 736.5" stroke-opacity="0.23529411764705882" stroke-linecap="round" stroke-linejoin="round" stroke-miterlimit="10"/><path fill="none" stroke="rgb(192,192,192)" paint-order="fill stroke markers" d=" M 0.5 20.5 L 1220.5 20.5 M 0.5 20.5 L 1220.5 20.5 M 0.5 84.5 L 1220.5 84.5 M 0.5 147.5 L 1220.5 147.5 M 0.5 211.5 L 1220.5 211.5 M 0.5 275.5 L 1220.5 275.5 M 0.5 338.5 L 1220.5 338.5 M 0.5 402.5 L 1220.5 402.5 M 0.5 466.5 L 1220.5 466.5 M 0.5 530.5 L 1220.5 530.5 M 0.5 657.5 L 1220.5 657.5 M 0.5 721.5 L 1220.5 721.5" stroke-opacity="1" stroke-linecap="round" stroke-linejoin="round" stroke-miterlimit="10"/><path fill="none" stroke="rgb(192,192,192)" paint-order="fill stroke markers" d=" M 0.5 7.5 L 1220.5 7.5 M 0.5 7.5 L 1220.5 7.5 M 0.5 33.5 L 1220.5 33.5 M 0.5 45.5 L 1220.5 45.5 M 0.5 58.5 L 1220.5 58.5 M 0.5 71.5 L 1220.5 71.5 M 0.5 96.5 L 1220.5 96.5 M 0.5 109.5 L 1220.5 109.5 M 0.5 122.5 L 1220.5 122.5 M 0.5 135.5 L 1220.5 135.5 M 0.5 160.5 L 1220.5 160.5 M 0.5 173.5 L 1220.5 173.5 M 0.5 186.5 L 1220.5 186.5 M 0.5 198.5 L 1220.5 198.5 M 0.5 224.5 L 1220.5 224.5 M 0.5 236.5 L 1220.5 236.5 M 0.5 249.5 L 1220.5 249.5 M 0.5 262.5 L 1220.5 262.5 M 0.5 288.5 L 1220.5 288.5 M 0.5 300.5 L 1220.5 300.5 M 0.5 313.5 L 1220.5 313.5 M 0.5 326.5 L 1220.5 326.5 M 0.5 351.5 L 1220.5 351.5 M 0.5 364.5 L 1220.5 364.5 M 0.5 377.5 L 1220.5 377.5 M 0.5 389.5 L 1220.5 389.5 M 0.5 415.5 L 1220.5 415.5 M 0.5 428.5 L 1220.5 428.5 M 0.5 440.5 L 1220.5 440.5 M 0.5 453.5 L 1220.5 453.5 M 0.5 479.5 L 1220.5 479.5 M 0.5 491.5 L 1220.5 491.5 M 0.5 504.5 L 1220.5 504.5 M 0.5 517.5 L 1220.5 517.5 M 0.5 542.5 L 1220.5 542.5 M 0.5 555.5 L 1220.5 555.5 M 0.5 568.5 L 1220.5 568.5 M 0.5 581.5 L 1220.5 581.5 M 0.5 606.5 L 1220.5 606.5 M 0.5 619.5 L 1220.5 619.5 M 0.5 632.5 L 1220.5 632.5 M 0.5 644.5 L 1220.5 644.5 M 0.5 670.5 L 1220.5 670.5 M 0.5 683.5 L 1220.5 683.5 M 0.5 695.5 L 1220.5 695.5 M 0.5 708.5 L 1220.5 708.5 M 0.5 734.5 L 1220.5 734.5" stroke-opacity="0.23529411764705882" stroke-linecap="round" stroke-linejoin="round" stroke-miterlimit="10"/><path fill="none" stroke="rgb(0,0,0)" paint-order="fill stroke markers" d=" M 0.5 593.5 L 1218.5 593.5" stroke-opacity="1" stroke-miterlimit="10"/><path fill="none" stroke="rgb(0,0,0)" paint-order="fill stroke markers" d=" M 1219.5 593.5 L 1215.5 589.5" stroke-opacity="1" stroke-miterlimit="10"/><path fill="none" stroke="rgb(0,0,0)" paint-order="fill stroke markers" d=" M 1219.5 593.5 L 1215.5 597.5" stroke-opacity="1" stroke-miterlimit="10"/><text fill="rgb(0,0,0)" stroke="none" font-family="geogebra-sans-serif, sans-serif" font-size="12px" font-style="normal" font-weight="normal" text-decoration="normal" x="40" y="609" text-anchor="start" dominant-baseline="alphabetic" fill-opacity="1">0.2</text><text fill="none" stroke="rgb(255,255,255)" font-family="geogebra-sans-serif, sans-serif" font-size="12px" font-style="normal" font-weight="normal" text-decoration="normal" x="40" y="609" text-anchor="start" dominant-baseline="alphabetic" stroke-opacity="1" stroke-linejoin="bevel" stroke-miterlimit="10" stroke-width="3">0.2</text><text fill="rgb(0,0,0)" stroke="none" font-family="geogebra-sans-serif, sans-serif" font-size="12px" font-style="normal" font-weight="normal" text-decoration="normal" x="40" y="609" text-anchor="start" dominant-baseline="alphabetic" fill-opacity="1">0.2</text><text fill="rgb(0,0,0)" stroke="none" font-family="geogebra-sans-serif, sans-serif" font-size="12px" font-style="normal" font-weight="normal" text-decoration="normal" x="89" y="609" text-anchor="start" dominant-baseline="alphabetic" fill-opacity="1">0.4</text><text fill="none" stroke="rgb(255,255,255)" font-family="geogebra-sans-serif, sans-serif" font-size="12px" font-style="normal" font-weight="normal" text-decoration="normal" x="89" y="609" text-anchor="start" dominant-baseline="alphabetic" stroke-opacity="1" stroke-linejoin="bevel" stroke-miterlimit="10" stroke-width="3">0.4</text><text fill="rgb(0,0,0)" stroke="none" font-family="geogebra-sans-serif, sans-serif" font-size="12px" font-style="normal" font-weight="normal" text-decoration="normal" x="89" y="609" text-anchor="start" dominant-baseline="alphabetic" fill-opacity="1">0.4</text><text fill="rgb(0,0,0)" stroke="none" font-family="geogebra-sans-serif, sans-serif" font-size="12px" font-style="normal" font-weight="normal" text-decoration="normal" x="138" y="609" text-anchor="start" dominant-baseline="alphabetic" fill-opacity="1">0.6</text><text fill="none" stroke="rgb(255,255,255)" font-family="geogebra-sans-serif, sans-serif" font-size="12px" font-style="normal" font-weight="normal" text-decoration="normal" x="138" y="609" text-anchor="start" dominant-baseline="alphabetic" stroke-opacity="1" stroke-linejoin="bevel" stroke-miterlimit="10" stroke-width="3">0.6</text><text fill="rgb(0,0,0)" stroke="none" font-family="geogebra-sans-serif, sans-serif" font-size="12px" font-style="normal" font-weight="normal" text-decoration="normal" x="138" y="609" text-anchor="start" dominant-baseline="alphabetic" fill-opacity="1">0.6</text><text fill="rgb(0,0,0)" stroke="none" font-family="geogebra-sans-serif, sans-serif" font-size="12px" font-style="normal" font-weight="normal" text-decoration="normal" x="187" y="609" text-anchor="start" dominant-baseline="alphabetic" fill-opacity="1">0.8</text><text fill="none" stroke="rgb(255,255,255)" font-family="geogebra-sans-serif, sans-serif" font-size="12px" font-style="normal" font-weight="normal" text-decoration="normal" x="187" y="609" text-anchor="start" dominant-baseline="alphabetic" stroke-opacity="1" stroke-linejoin="bevel" stroke-miterlimit="10" stroke-width="3">0.8</text><text fill="rgb(0,0,0)" stroke="none" font-family="geogebra-sans-serif, sans-serif" font-size="12px" font-style="normal" font-weight="normal" text-decoration="normal" x="187" y="609" text-anchor="start" dominant-baseline="alphabetic" fill-opacity="1">0.8</text><text fill="rgb(0,0,0)" stroke="none" font-family="geogebra-sans-serif, sans-serif" font-size="12px" font-style="normal" font-weight="normal" text-decoration="normal" x="242" y="609" text-anchor="start" dominant-baseline="alphabetic" fill-opacity="1">1</text><text fill="none" stroke="rgb(255,255,255)" font-family="geogebra-sans-serif, sans-serif" font-size="12px" font-style="normal" font-weight="normal" text-decoration="normal" x="242" y="609" text-anchor="start" dominant-baseline="alphabetic" stroke-opacity="1" stroke-linejoin="bevel" stroke-miterlimit="10" stroke-width="3">1</text><text fill="rgb(0,0,0)" stroke="none" font-family="geogebra-sans-serif, sans-serif" font-size="12px" font-style="normal" font-weight="normal" text-decoration="normal" x="242" y="609" text-anchor="start" dominant-baseline="alphabetic" fill-opacity="1">1</text><text fill="rgb(0,0,0)" stroke="none" font-family="geogebra-sans-serif, sans-serif" font-size="12px" font-style="normal" font-weight="normal" text-decoration="normal" x="284" y="609" text-anchor="start" dominant-baseline="alphabetic" fill-opacity="1">1.2</text><text fill="none" stroke="rgb(255,255,255)" font-family="geogebra-sans-serif, sans-serif" font-size="12px" font-style="normal" font-weight="normal" text-decoration="normal" x="284" y="609" text-anchor="start" dominant-baseline="alphabetic" stroke-opacity="1" stroke-linejoin="bevel" stroke-miterlimit="10" stroke-width="3">1.2</text><text fill="rgb(0,0,0)" stroke="none" font-family="geogebra-sans-serif, sans-serif" font-size="12px" font-style="normal" font-weight="normal" text-decoration="normal" x="284" y="609" text-anchor="start" dominant-baseline="alphabetic" fill-opacity="1">1.2</text><text fill="rgb(0,0,0)" stroke="none" font-family="geogebra-sans-serif, sans-serif" font-size="12px" font-style="normal" font-weight="normal" text-decoration="normal" x="333" y="609" text-anchor="start" dominant-baseline="alphabetic" fill-opacity="1">1.4</text><text fill="none" stroke="rgb(255,255,255)" font-family="geogebra-sans-serif, sans-serif" font-size="12px" font-style="normal" font-weight="normal" text-decoration="normal" x="333" y="609" text-anchor="start" dominant-baseline="alphabetic" stroke-opacity="1" stroke-linejoin="bevel" stroke-miterlimit="10" stroke-width="3">1.4</text><text fill="rgb(0,0,0)" stroke="none" font-family="geogebra-sans-serif, sans-serif" font-size="12px" font-style="normal" font-weight="normal" text-decoration="normal" x="333" y="609" text-anchor="start" dominant-baseline="alphabetic" fill-opacity="1">1.4</text><text fill="rgb(0,0,0)" stroke="none" font-family="geogebra-sans-serif, sans-serif" font-size="12px" font-style="normal" font-weight="normal" text-decoration="normal" x="382" y="609" text-anchor="start" dominant-baseline="alphabetic" fill-opacity="1">1.6</text><text fill="none" stroke="rgb(255,255,255)" font-family="geogebra-sans-serif, sans-serif" font-size="12px" font-style="normal" font-weight="normal" text-decoration="normal" x="382" y="609" text-anchor="start" dominant-baseline="alphabetic" stroke-opacity="1" stroke-linejoin="bevel" stroke-miterlimit="10" stroke-width="3">1.6</text><text fill="rgb(0,0,0)" stroke="none" font-family="geogebra-sans-serif, sans-serif" font-size="12px" font-style="normal" font-weight="normal" text-decoration="normal" x="382" y="609" text-anchor="start" dominant-baseline="alphabetic" fill-opacity="1">1.6</text><text fill="rgb(0,0,0)" stroke="none" font-family="geogebra-sans-serif, sans-serif" font-size="12px" font-style="normal" font-weight="normal" text-decoration="normal" x="431" y="609" text-anchor="start" dominant-baseline="alphabetic" fill-opacity="1">1.8</text><text fill="none" stroke="rgb(255,255,255)" font-family="geogebra-sans-serif, sans-serif" font-size="12px" font-style="normal" font-weight="normal" text-decoration="normal" x="431" y="609" text-anchor="start" dominant-baseline="alphabetic" stroke-opacity="1" stroke-linejoin="bevel" stroke-miterlimit="10" stroke-width="3">1.8</text><text fill="rgb(0,0,0)" stroke="none" font-family="geogebra-sans-serif, sans-serif" font-size="12px" font-style="normal" font-weight="normal" text-decoration="normal" x="431" y="609" text-anchor="start" dominant-baseline="alphabetic" fill-opacity="1">1.8</text><text fill="rgb(0,0,0)" stroke="none" font-family="geogebra-sans-serif, sans-serif" font-size="12px" font-style="normal" font-weight="normal" text-decoration="normal" x="486" y="609" text-anchor="start" dominant-baseline="alphabetic" fill-opacity="1">2</text><text fill="none" stroke="rgb(255,255,255)" font-family="geogebra-sans-serif, sans-serif" font-size="12px" font-style="normal" font-weight="normal" text-decoration="normal" x="486" y="609" text-anchor="start" dominant-baseline="alphabetic" stroke-opacity="1" stroke-linejoin="bevel" stroke-miterlimit="10" stroke-width="3">2</text><text fill="rgb(0,0,0)" stroke="none" font-family="geogebra-sans-serif, sans-serif" font-size="12px" font-style="normal" font-weight="normal" text-decoration="normal" x="486" y="609" text-anchor="start" dominant-baseline="alphabetic" fill-opacity="1">2</text><text fill="rgb(0,0,0)" stroke="none" font-family="geogebra-sans-serif, sans-serif" font-size="12px" font-style="normal" font-weight="normal" text-decoration="normal" x="528" y="609" text-anchor="start" dominant-baseline="alphabetic" fill-opacity="1">2.2</text><text fill="none" stroke="rgb(255,255,255)" font-family="geogebra-sans-serif, sans-serif" font-size="12px" font-style="normal" font-weight="normal" text-decoration="normal" x="528" y="609" text-anchor="start" dominant-baseline="alphabetic" stroke-opacity="1" stroke-linejoin="bevel" stroke-miterlimit="10" stroke-width="3">2.2</text><text fill="rgb(0,0,0)" stroke="none" font-family="geogebra-sans-serif, sans-serif" font-size="12px" font-style="normal" font-weight="normal" text-decoration="normal" x="528" y="609" text-anchor="start" dominant-baseline="alphabetic" fill-opacity="1">2.2</text><text fill="rgb(0,0,0)" stroke="none" font-family="geogebra-sans-serif, sans-serif" font-size="12px" font-style="normal" font-weight="normal" text-decoration="normal" x="577" y="609" text-anchor="start" dominant-baseline="alphabetic" fill-opacity="1">2.4</text><text fill="none" stroke="rgb(255,255,255)" font-family="geogebra-sans-serif, sans-serif" font-size="12px" font-style="normal" font-weight="normal" text-decoration="normal" x="577" y="609" text-anchor="start" dominant-baseline="alphabetic" stroke-opacity="1" stroke-linejoin="bevel" stroke-miterlimit="10" stroke-width="3">2.4</text><text fill="rgb(0,0,0)" stroke="none" font-family="geogebra-sans-serif, sans-serif" font-size="12px" font-style="normal" font-weight="normal" text-decoration="normal" x="577" y="609" text-anchor="start" dominant-baseline="alphabetic" fill-opacity="1">2.4</text><text fill="rgb(0,0,0)" stroke="none" font-family="geogebra-sans-serif, sans-serif" font-size="12px" font-style="normal" font-weight="normal" text-decoration="normal" x="626" y="609" text-anchor="start" dominant-baseline="alphabetic" fill-opacity="1">2.6</text><text fill="none" stroke="rgb(255,255,255)" font-family="geogebra-sans-serif, sans-serif" font-size="12px" font-style="normal" font-weight="normal" text-decoration="normal" x="626" y="609" text-anchor="start" dominant-baseline="alphabetic" stroke-opacity="1" stroke-linejoin="bevel" stroke-miterlimit="10" stroke-width="3">2.6</text><text fill="rgb(0,0,0)" stroke="none" font-family="geogebra-sans-serif, sans-serif" font-size="12px" font-style="normal" font-weight="normal" text-decoration="normal" x="626" y="609" text-anchor="start" dominant-baseline="alphabetic" fill-opacity="1">2.6</text><text fill="rgb(0,0,0)" stroke="none" font-family="geogebra-sans-serif, sans-serif" font-size="12px" font-style="normal" font-weight="normal" text-decoration="normal" x="675" y="609" text-anchor="start" dominant-baseline="alphabetic" fill-opacity="1">2.8</text><text fill="none" stroke="rgb(255,255,255)" font-family="geogebra-sans-serif, sans-serif" font-size="12px" font-style="normal" font-weight="normal" text-decoration="normal" x="675" y="609" text-anchor="start" dominant-baseline="alphabetic" stroke-opacity="1" stroke-linejoin="bevel" stroke-miterlimit="10" stroke-width="3">2.8</text><text fill="rgb(0,0,0)" stroke="none" font-family="geogebra-sans-serif, sans-serif" font-size="12px" font-style="normal" font-weight="normal" text-decoration="normal" x="675" y="609" text-anchor="start" dominant-baseline="alphabetic" fill-opacity="1">2.8</text><text fill="rgb(0,0,0)" stroke="none" font-family="geogebra-sans-serif, sans-serif" font-size="12px" font-style="normal" font-weight="normal" text-decoration="normal" x="729" y="609" text-anchor="start" dominant-baseline="alphabetic" fill-opacity="1">3</text><text fill="none" stroke="rgb(255,255,255)" font-family="geogebra-sans-serif, sans-serif" font-size="12px" font-style="normal" font-weight="normal" text-decoration="normal" x="729" y="609" text-anchor="start" dominant-baseline="alphabetic" stroke-opacity="1" stroke-linejoin="bevel" stroke-miterlimit="10" stroke-width="3">3</text><text fill="rgb(0,0,0)" stroke="none" font-family="geogebra-sans-serif, sans-serif" font-size="12px" font-style="normal" font-weight="normal" text-decoration="normal" x="729" y="609" text-anchor="start" dominant-baseline="alphabetic" fill-opacity="1">3</text><text fill="rgb(0,0,0)" stroke="none" font-family="geogebra-sans-serif, sans-serif" font-size="12px" font-style="normal" font-weight="normal" text-decoration="normal" x="772" y="609" text-anchor="start" dominant-baseline="alphabetic" fill-opacity="1">3.2</text><text fill="none" stroke="rgb(255,255,255)" font-family="geogebra-sans-serif, sans-serif" font-size="12px" font-style="normal" font-weight="normal" text-decoration="normal" x="772" y="609" text-anchor="start" dominant-baseline="alphabetic" stroke-opacity="1" stroke-linejoin="bevel" stroke-miterlimit="10" stroke-width="3">3.2</text><text fill="rgb(0,0,0)" stroke="none" font-family="geogebra-sans-serif, sans-serif" font-size="12px" font-style="normal" font-weight="normal" text-decoration="normal" x="772" y="609" text-anchor="start" dominant-baseline="alphabetic" fill-opacity="1">3.2</text><text fill="rgb(0,0,0)" stroke="none" font-family="geogebra-sans-serif, sans-serif" font-size="12px" font-style="normal" font-weight="normal" text-decoration="normal" x="821" y="609" text-anchor="start" dominant-baseline="alphabetic" fill-opacity="1">3.4</text><text fill="none" stroke="rgb(255,255,255)" font-family="geogebra-sans-serif, sans-serif" font-size="12px" font-style="normal" font-weight="normal" text-decoration="normal" x="821" y="609" text-anchor="start" dominant-baseline="alphabetic" stroke-opacity="1" stroke-linejoin="bevel" stroke-miterlimit="10" stroke-width="3">3.4</text><text fill="rgb(0,0,0)" stroke="none" font-family="geogebra-sans-serif, sans-serif" font-size="12px" font-style="normal" font-weight="normal" text-decoration="normal" x="821" y="609" text-anchor="start" dominant-baseline="alphabetic" fill-opacity="1">3.4</text><text fill="rgb(0,0,0)" stroke="none" font-family="geogebra-sans-serif, sans-serif" font-size="12px" font-style="normal" font-weight="normal" text-decoration="normal" x="870" y="609" text-anchor="start" dominant-baseline="alphabetic" fill-opacity="1">3.6</text><text fill="none" stroke="rgb(255,255,255)" font-family="geogebra-sans-serif, sans-serif" font-size="12px" font-style="normal" font-weight="normal" text-decoration="normal" x="870" y="609" text-anchor="start" dominant-baseline="alphabetic" stroke-opacity="1" stroke-linejoin="bevel" stroke-miterlimit="10" stroke-width="3">3.6</text><text fill="rgb(0,0,0)" stroke="none" font-family="geogebra-sans-serif, sans-serif" font-size="12px" font-style="normal" font-weight="normal" text-decoration="normal" x="870" y="609" text-anchor="start" dominant-baseline="alphabetic" fill-opacity="1">3.6</text><text fill="rgb(0,0,0)" stroke="none" font-family="geogebra-sans-serif, sans-serif" font-size="12px" font-style="normal" font-weight="normal" text-decoration="normal" x="919" y="609" text-anchor="start" dominant-baseline="alphabetic" fill-opacity="1">3.8</text><text fill="none" stroke="rgb(255,255,255)" font-family="geogebra-sans-serif, sans-serif" font-size="12px" font-style="normal" font-weight="normal" text-decoration="normal" x="919" y="609" text-anchor="start" dominant-baseline="alphabetic" stroke-opacity="1" stroke-linejoin="bevel" stroke-miterlimit="10" stroke-width="3">3.8</text><text fill="rgb(0,0,0)" stroke="none" font-family="geogebra-sans-serif, sans-serif" font-size="12px" font-style="normal" font-weight="normal" text-decoration="normal" x="919" y="609" text-anchor="start" dominant-baseline="alphabetic" fill-opacity="1">3.8</text><text fill="rgb(0,0,0)" stroke="none" font-family="geogebra-sans-serif, sans-serif" font-size="12px" font-style="normal" font-weight="normal" text-decoration="normal" x="973" y="609" text-anchor="start" dominant-baseline="alphabetic" fill-opacity="1">4</text><text fill="none" stroke="rgb(255,255,255)" font-family="geogebra-sans-serif, sans-serif" font-size="12px" font-style="normal" font-weight="normal" text-decoration="normal" x="973" y="609" text-anchor="start" dominant-baseline="alphabetic" stroke-opacity="1" stroke-linejoin="bevel" stroke-miterlimit="10" stroke-width="3">4</text><text fill="rgb(0,0,0)" stroke="none" font-family="geogebra-sans-serif, sans-serif" font-size="12px" font-style="normal" font-weight="normal" text-decoration="normal" x="973" y="609" text-anchor="start" dominant-baseline="alphabetic" fill-opacity="1">4</text><text fill="rgb(0,0,0)" stroke="none" font-family="geogebra-sans-serif, sans-serif" font-size="12px" font-style="normal" font-weight="normal" text-decoration="normal" x="1016" y="609" text-anchor="start" dominant-baseline="alphabetic" fill-opacity="1">4.2</text><text fill="none" stroke="rgb(255,255,255)" font-family="geogebra-sans-serif, sans-serif" font-size="12px" font-style="normal" font-weight="normal" text-decoration="normal" x="1016" y="609" text-anchor="start" dominant-baseline="alphabetic" stroke-opacity="1" stroke-linejoin="bevel" stroke-miterlimit="10" stroke-width="3">4.2</text><text fill="rgb(0,0,0)" stroke="none" font-family="geogebra-sans-serif, sans-serif" font-size="12px" font-style="normal" font-weight="normal" text-decoration="normal" x="1016" y="609" text-anchor="start" dominant-baseline="alphabetic" fill-opacity="1">4.2</text><text fill="rgb(0,0,0)" stroke="none" font-family="geogebra-sans-serif, sans-serif" font-size="12px" font-style="normal" font-weight="normal" text-decoration="normal" x="1065" y="609" text-anchor="start" dominant-baseline="alphabetic" fill-opacity="1">4.4</text><text fill="none" stroke="rgb(255,255,255)" font-family="geogebra-sans-serif, sans-serif" font-size="12px" font-style="normal" font-weight="normal" text-decoration="normal" x="1065" y="609" text-anchor="start" dominant-baseline="alphabetic" stroke-opacity="1" stroke-linejoin="bevel" stroke-miterlimit="10" stroke-width="3">4.4</text><text fill="rgb(0,0,0)" stroke="none" font-family="geogebra-sans-serif, sans-serif" font-size="12px" font-style="normal" font-weight="normal" text-decoration="normal" x="1065" y="609" text-anchor="start" dominant-baseline="alphabetic" fill-opacity="1">4.4</text><text fill="rgb(0,0,0)" stroke="none" font-family="geogebra-sans-serif, sans-serif" font-size="12px" font-style="normal" font-weight="normal" text-decoration="normal" x="1114" y="609" text-anchor="start" dominant-baseline="alphabetic" fill-opacity="1">4.6</text><text fill="none" stroke="rgb(255,255,255)" font-family="geogebra-sans-serif, sans-serif" font-size="12px" font-style="normal" font-weight="normal" text-decoration="normal" x="1114" y="609" text-anchor="start" dominant-baseline="alphabetic" stroke-opacity="1" stroke-linejoin="bevel" stroke-miterlimit="10" stroke-width="3">4.6</text><text fill="rgb(0,0,0)" stroke="none" font-family="geogebra-sans-serif, sans-serif" font-size="12px" font-style="normal" font-weight="normal" text-decoration="normal" x="1114" y="609" text-anchor="start" dominant-baseline="alphabetic" fill-opacity="1">4.6</text><text fill="rgb(0,0,0)" stroke="none" font-family="geogebra-sans-serif, sans-serif" font-size="12px" font-style="normal" font-weight="normal" text-decoration="normal" x="1163" y="609" text-anchor="start" dominant-baseline="alphabetic" fill-opacity="1">4.8</text><text fill="none" stroke="rgb(255,255,255)" font-family="geogebra-sans-serif, sans-serif" font-size="12px" font-style="normal" font-weight="normal" text-decoration="normal" x="1163" y="609" text-anchor="start" dominant-baseline="alphabetic" stroke-opacity="1" stroke-linejoin="bevel" stroke-miterlimit="10" stroke-width="3">4.8</text><text fill="rgb(0,0,0)" stroke="none" font-family="geogebra-sans-serif, sans-serif" font-size="12px" font-style="normal" font-weight="normal" text-decoration="normal" x="1163" y="609" text-anchor="start" dominant-baseline="alphabetic" fill-opacity="1">4.8</text><text fill="rgb(0,0,0)" stroke="none" font-family="geogebra-sans-serif, sans-serif" font-size="12px" font-style="normal" font-weight="normal" text-decoration="normal" x="3" y="726" text-anchor="start" dominant-baseline="alphabetic" fill-opacity="1">–100</text><text fill="none" stroke="rgb(255,255,255)" font-family="geogebra-sans-serif, sans-serif" font-size="12px" font-style="normal" font-weight="normal" text-decoration="normal" x="3" y="726" text-anchor="start" dominant-baseline="alphabetic" stroke-opacity="1" stroke-linejoin="bevel" stroke-miterlimit="10" stroke-width="3">–100</text><text fill="rgb(0,0,0)" stroke="none" font-family="geogebra-sans-serif, sans-serif" font-size="12px" font-style="normal" font-weight="normal" text-decoration="normal" x="3" y="726" text-anchor="start" dominant-baseline="alphabetic" fill-opacity="1">–100</text><text fill="rgb(0,0,0)" stroke="none" font-family="geogebra-sans-serif, sans-serif" font-size="12px" font-style="normal" font-weight="normal" text-decoration="normal" x="11" y="662" text-anchor="start" dominant-baseline="alphabetic" fill-opacity="1">–50</text><text fill="none" stroke="rgb(255,255,255)" font-family="geogebra-sans-serif, sans-serif" font-size="12px" font-style="normal" font-weight="normal" text-decoration="normal" x="11" y="662" text-anchor="start" dominant-baseline="alphabetic" stroke-opacity="1" stroke-linejoin="bevel" stroke-miterlimit="10" stroke-width="3">–50</text><text fill="rgb(0,0,0)" stroke="none" font-family="geogebra-sans-serif, sans-serif" font-size="12px" font-style="normal" font-weight="normal" text-decoration="normal" x="11" y="662" text-anchor="start" dominant-baseline="alphabetic" fill-opacity="1">–50</text><text fill="rgb(0,0,0)" stroke="none" font-family="geogebra-sans-serif, sans-serif" font-size="12px" font-style="normal" font-weight="normal" text-decoration="normal" x="17" y="535" text-anchor="start" dominant-baseline="alphabetic" fill-opacity="1">50</text><text fill="none" stroke="rgb(255,255,255)" font-family="geogebra-sans-serif, sans-serif" font-size="12px" font-style="normal" font-weight="normal" text-decoration="normal" x="17" y="535" text-anchor="start" dominant-baseline="alphabetic" stroke-opacity="1" stroke-linejoin="bevel" stroke-miterlimit="10" stroke-width="3">50</text><text fill="rgb(0,0,0)" stroke="none" font-family="geogebra-sans-serif, sans-serif" font-size="12px" font-style="normal" font-weight="normal" text-decoration="normal" x="17" y="535" text-anchor="start" dominant-baseline="alphabetic" fill-opacity="1">50</text><text fill="rgb(0,0,0)" stroke="none" font-family="geogebra-sans-serif, sans-serif" font-size="12px" font-style="normal" font-weight="normal" text-decoration="normal" x="9" y="471" text-anchor="start" dominant-baseline="alphabetic" fill-opacity="1">100</text><text fill="none" stroke="rgb(255,255,255)" font-family="geogebra-sans-serif, sans-serif" font-size="12px" font-style="normal" font-weight="normal" text-decoration="normal" x="9" y="471" text-anchor="start" dominant-baseline="alphabetic" stroke-opacity="1" stroke-linejoin="bevel" stroke-miterlimit="10" stroke-width="3">100</text><text fill="rgb(0,0,0)" stroke="none" font-family="geogebra-sans-serif, sans-serif" font-size="12px" font-style="normal" font-weight="normal" text-decoration="normal" x="9" y="471" text-anchor="start" dominant-baseline="alphabetic" fill-opacity="1">100</text><text fill="rgb(0,0,0)" stroke="none" font-family="geogebra-sans-serif, sans-serif" font-size="12px" font-style="normal" font-weight="normal" text-decoration="normal" x="9" y="407" text-anchor="start" dominant-baseline="alphabetic" fill-opacity="1">150</text><text fill="none" stroke="rgb(255,255,255)" font-family="geogebra-sans-serif, sans-serif" font-size="12px" font-style="normal" font-weight="normal" text-decoration="normal" x="9" y="407" text-anchor="start" dominant-baseline="alphabetic" stroke-opacity="1" stroke-linejoin="bevel" stroke-miterlimit="10" stroke-width="3">150</text><text fill="rgb(0,0,0)" stroke="none" font-family="geogebra-sans-serif, sans-serif" font-size="12px" font-style="normal" font-weight="normal" text-decoration="normal" x="9" y="407" text-anchor="start" dominant-baseline="alphabetic" fill-opacity="1">150</text><text fill="rgb(0,0,0)" stroke="none" font-family="geogebra-sans-serif, sans-serif" font-size="12px" font-style="normal" font-weight="normal" text-decoration="normal" x="9" y="343" text-anchor="start" dominant-baseline="alphabetic" fill-opacity="1">200</text><text fill="none" stroke="rgb(255,255,255)" font-family="geogebra-sans-serif, sans-serif" font-size="12px" font-style="normal" font-weight="normal" text-decoration="normal" x="9" y="343" text-anchor="start" dominant-baseline="alphabetic" stroke-opacity="1" stroke-linejoin="bevel" stroke-miterlimit="10" stroke-width="3">200</text><text fill="rgb(0,0,0)" stroke="none" font-family="geogebra-sans-serif, sans-serif" font-size="12px" font-style="normal" font-weight="normal" text-decoration="normal" x="9" y="343" text-anchor="start" dominant-baseline="alphabetic" fill-opacity="1">200</text><text fill="rgb(0,0,0)" stroke="none" font-family="geogebra-sans-serif, sans-serif" font-size="12px" font-style="normal" font-weight="normal" text-decoration="normal" x="9" y="280" text-anchor="start" dominant-baseline="alphabetic" fill-opacity="1">250</text><text fill="none" stroke="rgb(255,255,255)" font-family="geogebra-sans-serif, sans-serif" font-size="12px" font-style="normal" font-weight="normal" text-decoration="normal" x="9" y="280" text-anchor="start" dominant-baseline="alphabetic" stroke-opacity="1" stroke-linejoin="bevel" stroke-miterlimit="10" stroke-width="3">250</text><text fill="rgb(0,0,0)" stroke="none" font-family="geogebra-sans-serif, sans-serif" font-size="12px" font-style="normal" font-weight="normal" text-decoration="normal" x="9" y="280" text-anchor="start" dominant-baseline="alphabetic" fill-opacity="1">250</text><text fill="rgb(0,0,0)" stroke="none" font-family="geogebra-sans-serif, sans-serif" font-size="12px" font-style="normal" font-weight="normal" text-decoration="normal" x="9" y="216" text-anchor="start" dominant-baseline="alphabetic" fill-opacity="1">300</text><text fill="none" stroke="rgb(255,255,255)" font-family="geogebra-sans-serif, sans-serif" font-size="12px" font-style="normal" font-weight="normal" text-decoration="normal" x="9" y="216" text-anchor="start" dominant-baseline="alphabetic" stroke-opacity="1" stroke-linejoin="bevel" stroke-miterlimit="10" stroke-width="3">300</text><text fill="rgb(0,0,0)" stroke="none" font-family="geogebra-sans-serif, sans-serif" font-size="12px" font-style="normal" font-weight="normal" text-decoration="normal" x="9" y="216" text-anchor="start" dominant-baseline="alphabetic" fill-opacity="1">300</text><text fill="rgb(0,0,0)" stroke="none" font-family="geogebra-sans-serif, sans-serif" font-size="12px" font-style="normal" font-weight="normal" text-decoration="normal" x="9" y="152" text-anchor="start" dominant-baseline="alphabetic" fill-opacity="1">350</text><text fill="none" stroke="rgb(255,255,255)" font-family="geogebra-sans-serif, sans-serif" font-size="12px" font-style="normal" font-weight="normal" text-decoration="normal" x="9" y="152" text-anchor="start" dominant-baseline="alphabetic" stroke-opacity="1" stroke-linejoin="bevel" stroke-miterlimit="10" stroke-width="3">350</text><text fill="rgb(0,0,0)" stroke="none" font-family="geogebra-sans-serif, sans-serif" font-size="12px" font-style="normal" font-weight="normal" text-decoration="normal" x="9" y="152" text-anchor="start" dominant-baseline="alphabetic" fill-opacity="1">350</text><text fill="rgb(0,0,0)" stroke="none" font-family="geogebra-sans-serif, sans-serif" font-size="12px" font-style="normal" font-weight="normal" text-decoration="normal" x="9" y="88" text-anchor="start" dominant-baseline="alphabetic" fill-opacity="1">400</text><text fill="none" stroke="rgb(255,255,255)" font-family="geogebra-sans-serif, sans-serif" font-size="12px" font-style="normal" font-weight="normal" text-decoration="normal" x="9" y="88" text-anchor="start" dominant-baseline="alphabetic" stroke-opacity="1" stroke-linejoin="bevel" stroke-miterlimit="10" stroke-width="3">400</text><text fill="rgb(0,0,0)" stroke="none" font-family="geogebra-sans-serif, sans-serif" font-size="12px" font-style="normal" font-weight="normal" text-decoration="normal" x="9" y="88" text-anchor="start" dominant-baseline="alphabetic" fill-opacity="1">400</text><text fill="rgb(0,0,0)" stroke="none" font-family="geogebra-sans-serif, sans-serif" font-size="12px" font-style="normal" font-weight="normal" text-decoration="normal" x="9" y="25" text-anchor="start" dominant-baseline="alphabetic" fill-opacity="1">450</text><text fill="none" stroke="rgb(255,255,255)" font-family="geogebra-sans-serif, sans-serif" font-size="12px" font-style="normal" font-weight="normal" text-decoration="normal" x="9" y="25" text-anchor="start" dominant-baseline="alphabetic" stroke-opacity="1" stroke-linejoin="bevel" stroke-miterlimit="10" stroke-width="3">450</text><text fill="rgb(0,0,0)" stroke="none" font-family="geogebra-sans-serif, sans-serif" font-size="12px" font-style="normal" font-weight="normal" text-decoration="normal" x="9" y="25" text-anchor="start" dominant-baseline="alphabetic" fill-opacity="1">450</text><path fill="none" stroke="rgb(46,125,50)" paint-order="fill stroke markers" d=" M 0 593.9999999999998 L 4.765625 593.9927043914793 L 9.53125 593.9708175659177 L 14.296875 593.9343395233152 L 19.0625 593.8832702636716 L 23.828125 593.8176097869871 L 28.59375 593.7373580932615 L 33.359375 593.6425151824949 L 38.125 593.5330810546873 L 42.890625 593.4090557098386 L 47.65625 593.270439147949 L 52.421875 593.1172313690183 L 57.1875 592.9494323730466 L 61.953125 592.767042160034 L 66.71875 592.5700607299802 L 71.484375 592.3584880828855 L 76.25 592.1323242187498 L 81.015625 591.891569137573 L 85.78125 591.6362228393552 L 90.546875 591.3662853240965 L 95.3125 591.0817565917966 L 100.078125 590.7826366424558 L 104.84375 590.468925476074 L 109.609375 590.1406230926511 L 114.375 589.7977294921873 L 119.140625 589.4402446746824 L 123.90625 589.0681686401365 L 128.671875 588.6815013885496 L 133.4375 588.2802429199216 L 138.203125 587.8643932342527 L 142.96875 587.4339523315427 L 147.734375 586.9889202117918 L 152.5 586.5292968749998 L 157.265625 586.0550823211668 L 162.03125 585.5662765502927 L 166.796875 585.0628795623777 L 171.5625 584.5448913574216 L 176.328125 584.0123119354246 L 181.09375 583.4651412963865 L 185.859375 582.9033794403074 L 190.625 582.3270263671873 L 195.390625 581.7360820770261 L 200.15625 581.130546569824 L 204.921875 580.5104198455808 L 209.6875 579.8757019042966 L 214.453125 579.2263927459715 L 219.21875 578.5624923706052 L 223.984375 577.884000778198 L 228.75 577.1909179687498 L 233.515625 576.4832439422605 L 238.28125 575.7609786987302 L 243.046875 575.024122238159 L 247.8125 574.2726745605466 L 252.578125 573.5066356658933 L 257.34375 572.726005554199 L 262.109375 571.9307842254636 L 266.875 571.1209716796873 L 271.640625 570.2965679168699 L 276.40625 569.4575729370115 L 281.171875 568.6039867401121 L 285.9375 567.7358093261716 L 290.703125 566.8530406951902 L 295.46875 565.9556808471677 L 300.234375 565.0437297821043 L 305 564.1171874999998 L 309.765625 563.1760540008543 L 314.53125 562.2203292846677 L 319.296875 561.2500133514402 L 324.0625 560.2651062011716 L 328.828125 559.2656078338621 L 333.59375 558.2515182495115 L 338.359375 557.2228374481199 L 343.125 556.1795654296873 L 347.890625 555.1217021942136 L 352.65625 554.049247741699 L 357.421875 552.9622020721433 L 362.1875 551.8605651855466 L 366.953125 550.744337081909 L 371.71875 549.6135177612302 L 376.484375 548.4681072235105 L 381.25 547.3081054687498 L 386.015625 546.133512496948 L 390.78125 544.9443283081052 L 395.546875 543.7405529022215 L 400.3125 542.5221862792966 L 405.078125 541.2892284393308 L 409.84375 540.041679382324 L 414.609375 538.7795391082761 L 419.375 537.5028076171873 L 424.140625 536.2114849090574 L 428.90625 534.9055709838865 L 433.671875 533.5850658416746 L 438.4375 532.2499694824216 L 443.203125 530.9002819061277 L 447.96875 529.5360031127927 L 452.734375 528.1571331024168 L 457.5 526.7636718749998 L 462.265625 525.3556194305418 L 467.03125 523.9329757690427 L 471.796875 522.4957408905027 L 476.5625 521.0439147949216 L 481.328125 519.5774974822996 L 486.09375 518.0964889526365 L 490.859375 516.6008892059324 L 495.625 515.0906982421873 L 500.390625 513.5659160614011 L 505.15625 512.026542663574 L 509.921875 510.4725780487059 L 514.6875 508.9040222167967 L 519.453125 507.3208751678465 L 524.21875 505.7231369018553 L 528.984375 504.1108074188231 L 533.75 502.48388671874983 L 538.515625 500.8423748016356 L 543.28125 499.1862716674803 L 548.046875 497.515577316284 L 552.8125 495.8302917480467 L 557.578125 494.1304149627684 L 562.34375 492.41594696044905 L 567.109375 490.6868877410887 L 571.875 488.94323730468733 L 576.640625 487.18499565124495 L 581.40625 485.41216278076155 L 586.171875 483.62473869323713 L 590.9375 481.8227233886717 L 595.703125 480.00611686706526 L 600.46875 478.1749191284178 L 605.234375 476.3291301727293 L 610 474.46874999999983 L 614.765625 472.5937786102293 L 619.53125 470.7042160034178 L 624.296875 468.80006217956526 L 629.0625 466.8813171386717 L 633.828125 464.9479808807372 L 638.59375 463.0000534057616 L 643.359375 461.037534713745 L 648.125 459.0604248046874 L 652.890625 457.06872367858875 L 657.65625 455.0624313354491 L 662.421875 453.04154777526844 L 667.1875 451.00607299804676 L 671.953125 448.95600700378407 L 676.71875 446.89134979248036 L 681.484375 444.81210136413563 L 686.25 442.7182617187499 L 691.015625 440.60983085632313 L 695.78125 438.48680877685536 L 700.546875 436.34919548034657 L 705.3125 434.19699096679676 L 710.078125 432.03019523620594 L 714.84375 429.8488082885741 L 719.609375 427.65283012390125 L 724.375 425.4422607421874 L 729.140625 423.2171001434325 L 733.90625 420.9773483276366 L 738.671875 418.7230052947997 L 743.4375 416.45407104492176 L 748.203125 414.1705455780028 L 752.96875 411.87242889404286 L 757.734375 409.5597209930419 L 762.5 407.2324218749999 L 767.265625 404.8905315399169 L 772.03125 402.53404998779286 L 776.796875 400.1629772186278 L 781.5625 397.77731323242176 L 786.328125 395.3770580291747 L 791.09375 392.9622116088866 L 795.859375 390.5327739715575 L 800.625 388.0887451171874 L 805.390625 385.63012504577625 L 810.15625 383.1569137573241 L 814.921875 380.66911125183094 L 819.6875 378.16671752929676 L 824.453125 375.64973258972157 L 829.21875 373.11815643310536 L 833.984375 370.57198905944813 L 838.75 368.0112304687499 L 843.515625 365.43588066101063 L 848.28125 362.84593963623036 L 853.046875 360.24140739440907 L 857.8125 357.62228393554676 L 862.578125 354.98856925964344 L 867.34375 352.3402633666991 L 872.109375 349.67736625671375 L 876.875 346.9998779296874 L 881.640625 344.30779838562 L 886.40625 341.6011276245116 L 891.171875 338.8798656463622 L 895.9375 336.1440124511718 L 900.703125 333.3935680389404 L 905.46875 330.6285324096679 L 910.234375 327.84890556335444 L 915 325.05468749999994 L 919.765625 322.24587821960444 L 924.53125 319.4224777221679 L 929.296875 316.5844860076904 L 934.0625 313.7319030761718 L 938.828125 310.86472892761225 L 943.59375 307.98296356201166 L 948.359375 305.08660697937006 L 953.125 302.17565917968744 L 957.890625 299.2501201629638 L 962.65625 296.30998992919916 L 967.421875 293.3552684783935 L 972.1875 290.3859558105468 L 976.953125 287.4020519256591 L 981.71875 284.4035568237304 L 986.484375 281.3904705047607 L 991.25 278.36279296874994 L 996.015625 275.3205242156982 L 1000.78125 272.2636642456054 L 1005.546875 269.1922130584716 L 1010.3125 266.1061706542968 L 1015.078125 263.005537033081 L 1019.84375 259.89031219482416 L 1024.609375 256.76049613952637 L 1029.375 253.6160888671875 L 1034.140625 250.45709037780762 L 1038.90625 247.28350067138672 L 1043.671875 244.0953197479248 L 1048.4375 240.89254760742188 L 1053.203125 237.67518424987793 L 1057.96875 234.44322967529297 L 1062.734375 231.196683883667 L 1067.5 227.935546875 L 1072.265625 224.659818649292 L 1077.03125 221.36949920654297 L 1081.796875 218.06458854675293 L 1086.5625 214.74508666992188 L 1091.328125 211.4109935760498 L 1096.09375 208.06230926513672 L 1100.859375 204.69903373718262 L 1105.625 201.3211669921875 L 1110.390625 197.92870903015137 L 1115.15625 194.52165985107422 L 1119.921875 191.10001945495605 L 1124.6875 187.66378784179688 L 1129.453125 184.21296501159668 L 1134.21875 180.74755096435547 L 1138.984375 177.26754570007324 L 1143.75 173.77294921875 L 1148.515625 170.26376152038574 L 1153.28125 166.73998260498047 L 1158.046875 163.20161247253418 L 1162.8125 159.64865112304693 L 1167.578125 156.0810985565186 L 1172.34375 152.49895477294928 L 1177.109375 148.90221977233892 L 1181.875 145.29089355468756 L 1186.640625 141.66497611999517 L 1191.40625 138.02446746826178 L 1196.171875 134.36936759948736 L 1200.9375 130.69967651367193 L 1205.703125 127.01539421081549 L 1210.46875 123.31652069091803 L 1215.234375 119.60305595397955 L 1220 115.87500000000006" stroke-opacity="0.8" stroke-linecap="round" stroke-linejoin="round" stroke-miterlimit="10" stroke-width="2.5"/><text fill="rgb(46,125,50)" stroke="none" font-family="geogebra-sans-serif, sans-serif" font-size="16px" font-style="normal" font-weight="normal" text-decoration="normal" x="5" y="608" text-anchor="start" dominant-baseline="alphabetic" fill-opacity="1">f</text><text fill="none" stroke="rgb(255,255,255)" font-family="geogebra-sans-serif, sans-serif" font-size="16px" font-style="normal" font-weight="normal" text-decoration="normal" x="5" y="608" text-anchor="start" dominant-baseline="alphabetic" stroke-opacity="1" stroke-linejoin="bevel" stroke-miterlimit="10" stroke-width="3">f</text><text fill="rgb(46,125,50)" stroke="none" font-family="geogebra-sans-serif, sans-serif" font-size="16px" font-style="normal" font-weight="normal" text-decoration="normal" x="5" y="608" text-anchor="start" dominant-baseline="alphabetic" fill-opacity="1">f</text></g></g></svg>