<?xml version="1.0" encoding="UTF-8" standalone="no"?>
<!-- Created with Inkscape (http://www.inkscape.org/) -->

<svg
   xmlns:ns1="http://www.iki.fi/pav/software/textext/"
   xmlns:dc="http://purl.org/dc/elements/1.1/"
   xmlns:cc="http://creativecommons.org/ns#"
   xmlns:rdf="http://www.w3.org/1999/02/22-rdf-syntax-ns#"
   xmlns:svg="http://www.w3.org/2000/svg"
   xmlns="http://www.w3.org/2000/svg"
   xmlns:xlink="http://www.w3.org/1999/xlink"
   xmlns:sodipodi="http://sodipodi.sourceforge.net/DTD/sodipodi-0.dtd"
   xmlns:inkscape="http://www.inkscape.org/namespaces/inkscape"
   width="581.73621"
   height="223.44054"
   viewBox="0 0 153.91769 59.118637"
   version="1.1"
   id="svg4623"
   inkscape:version="0.92.4 (unknown)"
   sodipodi:docname="gewicht_maria.svg"
   inkscape:export-filename="/home/fdf/hugo/hoezithet/content/lessen/fysica/krachten_1/normaalkracht_en_gewicht/img/gewicht_maria.png"
   inkscape:export-xdpi="299.95728"
   inkscape:export-ydpi="299.95728">
  <defs
     id="defs4617">
    <clipPath
       clipPathUnits="userSpaceOnUse"
       id="clipPath2323">
      <path
         style="opacity:1;vector-effect:none;fill:none;fill-opacity:0.9887955;stroke:#d38d5f;stroke-width:0.79374993;stroke-linecap:butt;stroke-linejoin:round;stroke-miterlimit:4;stroke-dasharray:none;stroke-dashoffset:0;stroke-opacity:1;paint-order:markers stroke fill"
         d="M 12.537288,1.0231576 H 190.49611 V 84.025466 H 12.537288 Z"
         id="path2325"
         inkscape:connector-curvature="0"
         sodipodi:nodetypes="ccccc" />
    </clipPath>
  </defs>
  <sodipodi:namedview
     id="base"
     pagecolor="#f4f4f4"
     bordercolor="#666666"
     borderopacity="1.0"
     inkscape:pageopacity="1"
     inkscape:pageshadow="2"
     inkscape:zoom="2.5600001"
     inkscape:cx="251.14866"
     inkscape:cy="53.34489"
     inkscape:document-units="px"
     inkscape:current-layer="g4224"
     showgrid="false"
     units="px"
     inkscape:object-paths="true"
     inkscape:snap-smooth-nodes="true"
     inkscape:window-width="1920"
     inkscape:window-height="1055"
     inkscape:window-x="1600"
     inkscape:window-y="25"
     inkscape:window-maximized="1"
     showguides="true"
     inkscape:guide-bbox="true"
     inkscape:pagecheckerboard="false"
     inkscape:snap-global="false"
     inkscape:showpageshadow="true"
     showborder="true"
     borderlayer="false"
     inkscape:snap-page="true"
     inkscape:snap-center="true"
     inkscape:snap-bbox="true"
     inkscape:snap-bbox-midpoints="true"
     inkscape:snap-intersection-paths="true">
    <sodipodi:guide
       position="146.86199,2.0119675e-06"
       orientation="1,0"
       id="guide818"
       inkscape:locked="false"
       inkscape:label=""
       inkscape:color="rgb(0,0,255)" />
    <sodipodi:guide
       position="7.0556431,2.0119675e-06"
       orientation="1,0"
       id="guide820"
       inkscape:locked="false"
       inkscape:label=""
       inkscape:color="rgb(0,0,255)" />
    <sodipodi:guide
       position="0,50.172935"
       orientation="0,1"
       id="guide822"
       inkscape:locked="false"
       inkscape:label=""
       inkscape:color="rgb(0,0,255)" />
    <sodipodi:guide
       position="0,7.0556451"
       orientation="0,1"
       id="guide922"
       inkscape:locked="false"
       inkscape:label=""
       inkscape:color="rgb(0,0,255)" />
    <sodipodi:guide
       position="134.67028,58.899392"
       orientation="0,1"
       id="guide14009"
       inkscape:locked="false" />
  </sodipodi:namedview>
  <metadata
     id="metadata4620">
    <rdf:RDF>
      <cc:Work
         rdf:about="">
        <dc:format>image/svg+xml</dc:format>
        <dc:type
           rdf:resource="http://purl.org/dc/dcmitype/StillImage" />
        <dc:title />
      </cc:Work>
    </rdf:RDF>
  </metadata>
  <g
     id="g2315"
     clip-path="url(#clipPath2323)"
     transform="matrix(0.56928746,0,0,0.56928746,23.70263,4.4294555)">
    <g
       clip-path="none"
       transform="matrix(1.8599817,0,0,1.8599817,-52.747008,-14.810727)"
       id="g1986"
       style="opacity:0.5">
      <path
         style="opacity:1;vector-effect:none;fill:none;fill-opacity:1;stroke:#00449e;stroke-width:0.45106182;stroke-linecap:round;stroke-linejoin:miter;stroke-miterlimit:4;stroke-dasharray:none;stroke-dashoffset:0;stroke-opacity:1"
         d="M 109.47657,25.257664 V 45.674752"
         id="path15874"
         inkscape:connector-curvature="0" />
      <g
         id="g15389"
         transform="matrix(0.63930026,0,0,0.63930026,22.900786,18.906354)">
        <path
           inkscape:connector-curvature="0"
           id="path15383"
           d="M 114.74751,9.0257505 V 15.265166"
           style="opacity:1;vector-effect:none;fill:none;fill-opacity:1;stroke:#00449e;stroke-width:0.35277775;stroke-linecap:round;stroke-linejoin:miter;stroke-miterlimit:4;stroke-dasharray:none;stroke-dashoffset:0;stroke-opacity:1"
           sodipodi:nodetypes="cc" />
        <circle
           r="2.3148336"
           cy="17.58"
           cx="114.74751"
           id="path15385"
           style="opacity:1;vector-effect:none;fill:none;fill-opacity:1;stroke:#d38d5f;stroke-width:0.52916664;stroke-linecap:round;stroke-linejoin:round;stroke-miterlimit:4;stroke-dasharray:none;stroke-dashoffset:0;stroke-opacity:1;paint-order:markers stroke fill" />
      </g>
      <use
         x="0"
         y="0"
         xlink:href="#g15389"
         id="use15391"
         transform="translate(4.041371)"
         width="100%"
         height="100%" />
      <use
         x="0"
         y="0"
         xlink:href="#use15391"
         id="use15393"
         transform="translate(4.0413659)"
         width="100%"
         height="100%" />
      <path
         sodipodi:nodetypes="cccccccccccccccccccccccc"
         inkscape:connector-curvature="0"
         id="path15381"
         transform="matrix(0.22719587,0,0,0.22719587,11.295539,7.4067429)"
         d="m 256.52344,43.816406 v 70.603514 82.69336 h 6.92383 v -82.69336 h 45.65039 v 82.69336 h 6.91992 V 114.41992 78.642578 H 463.05273 V 197.11328 h 6.92188 V 78.642578 70.310547 H 316.01758 V 43.816406 Z M 286.27148,54.1875 c 8.84867,-6.09e-4 16.0221,7.17281 16.02149,16.021484 V 98.60156 H 270.25195 V 70.208984 c -6.1e-4,-8.847909 7.17162,-16.02101 16.01953,-16.021484 z"
         style="opacity:1;vector-effect:none;fill:#d38d5f;fill-opacity:1;stroke:#d38d5f;stroke-width:3;stroke-linecap:round;stroke-linejoin:round;stroke-miterlimit:4;stroke-dasharray:none;stroke-dashoffset:0;stroke-opacity:1;paint-order:markers stroke fill" />
      <path
         style="opacity:1;vector-effect:none;fill:none;fill-opacity:1;stroke:#d38d5f;stroke-width:0.67659277;stroke-linecap:round;stroke-linejoin:miter;stroke-miterlimit:4;stroke-dasharray:none;stroke-dashoffset:0;stroke-opacity:1"
         d="m 106.79011,45.932579 h 5.37292"
         id="path15876"
         inkscape:connector-curvature="0" />
      <path
         style="opacity:1;vector-effect:none;fill:#00449e;fill-opacity:1;stroke:#00449e;stroke-width:0.67659277;stroke-linecap:round;stroke-linejoin:round;stroke-miterlimit:4;stroke-dasharray:none;stroke-dashoffset:0;stroke-opacity:1;paint-order:fill markers stroke"
         d="M 76.335333,17.361811 H 68.205874 L 76.335333,9.2323551 84.46479,17.36181 Z"
         id="path16353"
         inkscape:connector-curvature="0" />
      <path
         style="opacity:1;vector-effect:none;fill:none;fill-opacity:1;stroke:#555555;stroke-width:0.67659277;stroke-linecap:butt;stroke-linejoin:miter;stroke-miterlimit:4;stroke-dasharray:none;stroke-dashoffset:0.21165746;stroke-opacity:1"
         d="m 32.549592,52.483204 h 4.064734"
         id="path15878"
         inkscape:connector-curvature="0"
         sodipodi:nodetypes="cc" />
      <use
         x="0"
         y="0"
         xlink:href="#path15878"
         id="use15880"
         transform="translate(4.5050144)"
         width="100%"
         height="100%"
         style="stroke:#555555" />
      <use
         x="0"
         y="0"
         xlink:href="#use15880"
         id="use15882"
         transform="translate(4.5050063)"
         width="100%"
         height="100%"
         style="stroke:#555555" />
      <use
         x="0"
         y="0"
         xlink:href="#use15882"
         id="use15884"
         transform="translate(4.5050144)"
         width="100%"
         height="100%"
         style="stroke:#555555" />
      <use
         x="0"
         y="0"
         xlink:href="#use15884"
         id="use15886"
         transform="translate(4.5050164)"
         width="100%"
         height="100%"
         style="stroke:#555555" />
      <use
         x="0"
         y="0"
         xlink:href="#use15886"
         id="use15888"
         transform="translate(4.5050093)"
         width="100%"
         height="100%"
         style="stroke:#555555" />
      <use
         x="0"
         y="0"
         xlink:href="#use15888"
         id="use15890"
         transform="translate(4.5050134)"
         width="100%"
         height="100%"
         style="stroke:#555555" />
      <use
         x="0"
         y="0"
         xlink:href="#use15884"
         id="use15886-9"
         transform="translate(18.020047)"
         width="100%"
         height="100%"
         style="stroke:#555555" />
      <use
         x="0"
         y="0"
         xlink:href="#use15886-9"
         id="use15888-0"
         transform="translate(4.5050122)"
         width="100%"
         height="100%"
         style="stroke:#555555" />
      <use
         x="0"
         y="0"
         xlink:href="#use15888-0"
         id="use15890-4"
         transform="translate(4.5050155)"
         width="100%"
         height="100%"
         style="stroke:#555555" />
      <use
         x="0"
         y="0"
         xlink:href="#use15888-0"
         id="use15890-4-7"
         transform="translate(9.0100273)"
         width="100%"
         height="100%"
         style="stroke:#555555" />
      <use
         x="0"
         y="0"
         xlink:href="#use15888"
         id="use15890-2"
         transform="translate(27.030073)"
         width="100%"
         height="100%"
         style="stroke:#555555" />
      <use
         x="0"
         y="0"
         xlink:href="#use15884"
         id="use15886-9-6"
         transform="translate(40.545118)"
         width="100%"
         height="100%"
         style="stroke:#555555" />
      <use
         x="0"
         y="0"
         xlink:href="#use15886-9-6"
         id="use15888-0-4"
         transform="translate(4.5049999)"
         width="100%"
         height="100%"
         style="stroke:#555555" />
      <use
         x="0"
         y="0"
         xlink:href="#use15888-0-4"
         id="use15890-4-5"
         transform="translate(4.5050153)"
         width="100%"
         height="100%"
         style="stroke:#555555" />
      <use
         x="0"
         y="0"
         xlink:href="#use15888-0-4"
         id="use15890-4-7-2"
         transform="translate(9.0100271)"
         width="100%"
         height="100%"
         style="stroke:#555555" />
      <use
         x="0"
         y="0"
         xlink:href="#use15888"
         id="use15890-2-7"
         transform="translate(49.555126)"
         width="100%"
         height="100%"
         style="stroke:#555555" />
      <use
         x="0"
         y="0"
         xlink:href="#use15884"
         id="use15886-9-6-8"
         transform="translate(63.070178)"
         width="100%"
         height="100%"
         style="stroke:#555555" />
      <use
         x="0"
         y="0"
         xlink:href="#use15886-9-6-8"
         id="use15888-0-4-5"
         transform="translate(4.5050001)"
         width="100%"
         height="100%"
         style="stroke:#555555" />
      <use
         x="0"
         y="0"
         xlink:href="#use15888-0-4-5"
         id="use15890-4-5-3"
         transform="translate(4.5050075)"
         width="100%"
         height="100%"
         style="stroke:#555555" />
      <g
         id="g16401"
         transform="matrix(0.63930026,0,0,0.63930026,10.131642,18.906354)">
        <path
           sodipodi:nodetypes="cc"
           inkscape:connector-curvature="0"
           id="path15844"
           d="M 98.118384,49.033389 H 108.9946"
           style="opacity:1;vector-effect:none;fill:none;fill-opacity:1;stroke:#555555;stroke-width:0.7055555;stroke-linecap:round;stroke-linejoin:miter;stroke-miterlimit:4;stroke-dasharray:none;stroke-dashoffset:0;stroke-opacity:1" />
        <use
           style="stroke:#d38d5f;stroke-opacity:1"
           height="100%"
           width="100%"
           transform="translate(0,-5.8087989)"
           id="use15846"
           xlink:href="#path15844"
           y="0"
           x="0" />
        <use
           style="stroke:#d38d5f;stroke-opacity:1"
           height="100%"
           width="100%"
           transform="translate(0,-5.8087966)"
           id="use15848"
           xlink:href="#use15846"
           y="0"
           x="0" />
        <use
           style="stroke:#d38d5f;stroke-opacity:1"
           height="100%"
           width="100%"
           transform="translate(0,-5.8087989)"
           id="use15850"
           xlink:href="#use15848"
           y="0"
           x="0" />
        <use
           style="stroke:#d38d5f;stroke-opacity:1"
           height="100%"
           width="100%"
           transform="translate(0,-5.8087984)"
           id="use15852"
           xlink:href="#use15850"
           y="0"
           x="0" />
        <g
           transform="translate(1.189937)"
           id="g15870">
          <g
             id="g15398"
             style="stroke:#ff6300;stroke-width:0.7055555;stroke-miterlimit:4;stroke-dasharray:none">
            <path
               sodipodi:nodetypes="cc"
               inkscape:connector-curvature="0"
               id="path15395"
               d="M 97.929218,17.05342 V 51.225834"
               style="opacity:1;vector-effect:none;fill:none;fill-opacity:1;stroke:#00449e;stroke-width:0.7055555;stroke-linecap:round;stroke-linejoin:miter;stroke-miterlimit:4;stroke-dasharray:none;stroke-dashoffset:0;stroke-opacity:1" />
          </g>
          <use
             style="stroke:#19a974;stroke-opacity:1"
             x="0"
             y="0"
             xlink:href="#g15398"
             id="use15842"
             transform="translate(8.874678)"
             width="100%"
             height="100%" />
        </g>
      </g>
    </g>
    <path
       style="color:#000000;font-style:normal;font-variant:normal;font-weight:normal;font-stretch:normal;font-size:medium;line-height:normal;font-family:sans-serif;font-variant-ligatures:normal;font-variant-position:normal;font-variant-caps:normal;font-variant-numeric:normal;font-variant-alternates:normal;font-feature-settings:normal;text-indent:0;text-align:start;text-decoration:none;text-decoration-line:none;text-decoration-style:solid;text-decoration-color:#000000;letter-spacing:normal;word-spacing:normal;text-transform:none;writing-mode:lr-tb;direction:ltr;text-orientation:mixed;dominant-baseline:auto;baseline-shift:baseline;text-anchor:start;white-space:normal;shape-padding:0;clip-rule:nonzero;display:inline;overflow:visible;visibility:visible;opacity:1;isolation:auto;mix-blend-mode:normal;color-interpolation:sRGB;color-interpolation-filters:linearRGB;solid-color:#000000;solid-opacity:1;vector-effect:none;fill:#00449e;fill-opacity:1;fill-rule:nonzero;stroke:none;stroke-width:8.38966751;stroke-linecap:butt;stroke-linejoin:miter;stroke-miterlimit:4;stroke-dasharray:none;stroke-dashoffset:0;stroke-opacity:1;color-rendering:auto;image-rendering:auto;shape-rendering:auto;text-rendering:auto;enable-background:accumulate"
       d="m 73.517414,38.362227 c -7.09705,0 -12.765221,2.834902 -17.135809,6.64798 -4.370587,3.81308 -7.711186,8.486133 -11.283404,12.86003 -7.144436,8.747793 -14.394727,16.420151 -31.652383,16.420151 v 8.391715 c 19.957583,0 30.62024,-10.291128 38.147788,-19.508013 3.763774,-4.608441 6.951412,-8.919177 10.302556,-11.842851 3.351142,-2.923675 6.596465,-4.577299 11.621252,-4.577299 h 2.510405 v -8.391713 z"
       id="path16454"
       inkscape:connector-curvature="0"
       sodipodi:nodetypes="sssccsssccs" />
    <g
       id="g17229"
       transform="matrix(-0.87755623,0,0,0.88130565,210.11236,7.4502169)"
       style="opacity:0.5;stroke-width:1.08695328">
      <g
         transform="matrix(0.18922837,0,0,0.18922837,145.00092,16.546415)"
         id="g17106"
         style="fill:#000000;stroke-width:0.79559964">
        <g
           style="stroke-width:0.79559964"
           id="g17090">
          <g
             style="stroke-width:0.79559964"
             id="g17088">
            <path
               style="stroke-width:0.79559964"
               inkscape:connector-curvature="0"
               d="m 61.062,66.276 c -0.184,-0.984 -0.285,-1.756 -0.339,-2.24 -0.025,-0.244 -0.041,-0.416 -0.05,-0.509 -0.002,-0.047 -0.004,-0.073 -0.004,-0.077 -0.238,-4.391 -3.976,-7.769 -8.373,-7.56 -4.414,0.213 -7.818,3.964 -7.604,8.376 H 44.69 c 0.07,0.777 0.609,12.384 8.455,25.039 3.925,6.303 9.772,12.819 18.166,17.908 8.385,5.099 19.225,8.707 32.812,9.649 0.19,0.013 0.381,0.02 0.569,0.02 4.163,0 7.675,-3.225 7.97,-7.439 0.308,-4.41 -3.014,-8.234 -7.421,-8.542 C 93.828,100.093 85.668,97.2 79.614,93.535 70.581,88.038 65.934,80.571 63.38,74.229 62.12,71.075 61.426,68.247 61.062,66.276 Z"
               id="path17086" />
          </g>
        </g>
      </g>
      <path
         sodipodi:nodetypes="ccc"
         inkscape:connector-curvature="0"
         id="path17142"
         d="m 153.5015,40.146626 11.15995,0.272352 8.68163,5.855715"
         style="opacity:1;vector-effect:none;fill:none;fill-opacity:1;stroke:#000000;stroke-width:4.98488855;stroke-linecap:round;stroke-linejoin:round;stroke-miterlimit:4;stroke-dasharray:none;stroke-dashoffset:0;stroke-opacity:1" />
      <path
         sodipodi:nodetypes="ccccsssc"
         inkscape:connector-curvature="0"
         id="path17140"
         d="m 156.67073,24.959663 c 3.6509,1.096678 3.30897,6.333454 1.82425,11.874493 -0.0613,0.488611 2.81918,-2.103098 8.57302,2.076471 -1.16543,1.831646 -3.02083,3.749704 -7.00186,4.177414 0,0 -4.10027,0.600174 -6.84669,-0.08863 -2.97949,-0.747257 -3.60054,-3.417732 -3.03259,-9.887722 0.35835,-4.082259 2.73848,-9.277083 6.48387,-8.152023 z"
         style="opacity:1;vector-effect:none;fill:#357edd;fill-opacity:1;stroke:none;stroke-width:0.38345295;stroke-linecap:round;stroke-linejoin:miter;stroke-miterlimit:4;stroke-dasharray:none;stroke-dashoffset:0;stroke-opacity:1" />
      <g
         transform="matrix(-0.15177664,0,0,0.15113092,170.69558,25.044922)"
         id="g3567-4-52-7">
        <path
           inkscape:connector-curvature="0"
           style="fill:#ffb700;stroke-width:0.20050988"
           d="m 85.88079,26.03675 c 1.142906,0 2.085302,0.942396 2.085302,2.085302 0,1.142906 -0.942396,2.085302 -2.085302,2.085302 -1.142906,0 -2.085302,-0.942396 -2.085302,-2.085302 0,-1.162958 0.922344,-2.085302 2.085302,-2.085302 z"
           id="path3558-2-6-1" />
        <path
           inkscape:connector-curvature="0"
           style="fill:#f4f4f4;stroke-width:0.20050988"
           d="m 81.469572,31.410414 2.285812,-1.283264 c 0.40102,0.421072 0.922346,0.721836 1.503826,0.842142 l -0.0401,2.366016 c -0.02004,1.543926 -0.902296,2.927444 -2.62668,2.927444 -1.42362,0 -2.586578,-1.122854 -2.586578,-2.566526 0,-1.22311 0.822092,-1.944946 1.46372,-2.285812 z"
           id="path3556-5-9-6" />
        <path
           inkscape:connector-curvature="0"
           style="fill:#f4f4f4;stroke-width:0.20050988"
           d="m 86.482318,25.25476 0.02006,-2.486322 c 0.02004,-1.563976 0.922346,-2.827188 2.586578,-2.827188 1.44367,0 2.566526,1.183008 2.566526,2.566526 0,1.263212 -0.681734,1.884792 -1.784538,2.546476 l -1.82464,1.082752 c -0.40102,-0.441122 -0.942396,-0.761938 -1.563978,-0.882244 z"
           id="path3554-2-1-5" />
        <path
           inkscape:connector-curvature="0"
           style="fill:#f4f4f4;stroke-width:0.20050988"
           d="m 82.63253,19.981352 c 1.804588,0 2.62668,1.403568 2.62668,3.04775 l -0.02006,2.225658 c -0.62158,0.14036 -1.162956,0.461174 -1.563976,0.922346 l -1.884786,-1.102804 c -1.122854,-0.681734 -1.724384,-1.363466 -1.724384,-2.526424 0,-1.463722 1.122854,-2.566526 2.566526,-2.566526 z"
           id="path3552-4-33-4" />
        <path
           inkscape:connector-curvature="0"
           style="fill:#f4f4f4;stroke-width:0.20050988"
           d="m 88.667876,27.219758 2.325914,-1.243162 c 0.501276,-0.260662 1.00255,-0.40102 1.443672,-0.40102 1.383518,0 2.486322,1.243162 2.486322,2.606628 0,1.303314 -1.102804,2.566528 -2.466272,2.566528 -0.501274,0 -1.102804,-0.1604 -1.704332,-0.521326 l -2.105354,-1.22311 c 0.0802,-0.280714 0.14036,-0.58148 0.14036,-0.902294 0.02004,-0.300766 -0.02004,-0.60153 -0.1203,-0.882244 z"
           id="path3550-4-152-19" />
        <path
           inkscape:connector-curvature="0"
           style="fill:#f4f4f4;stroke-width:0.20050988"
           d="m 79.344168,25.575576 c 0.481224,0 1.0226,0.14036 1.62413,0.501276 l 2.085302,1.24316 c -0.0802,0.260664 -0.1203,0.521326 -0.1203,0.80204 0,0.300764 0.0401,0.60153 0.14036,0.882244 L 80.848,30.32766 c -0.501274,0.280714 -1.00255,0.40102 -1.463722,0.40102 -1.443672,0 -2.566526,-1.162956 -2.566526,-2.566526 0.02004,-1.323366 1.102804,-2.586578 2.526424,-2.586578 z"
           id="path3548-3-69-7" />
        <path
           inkscape:connector-curvature="0"
           style="fill:#f4f4f4;stroke-width:0.20050988"
           d="m 88.006194,30.147202 2.105354,1.203058 c 1.062702,0.621582 1.563976,1.40357 1.563976,2.386068 0,1.483774 -1.162956,2.586578 -2.566526,2.586578 -1.724384,0 -2.586578,-1.323366 -2.586578,-2.947496 l 0.0401,-2.386066 c 0.561428,-0.1604 1.062704,-0.441122 1.443674,-0.842142 z"
           id="path3509-8-44-00" />
      </g>
      <g
         transform="matrix(-0.15177664,0,0,0.15113092,165.29871,26.622585)"
         id="g3567-4-52-1">
        <path
           inkscape:connector-curvature="0"
           style="fill:#ffb700;stroke-width:0.20050988"
           d="m 85.88079,26.03675 c 1.142906,0 2.085302,0.942396 2.085302,2.085302 0,1.142906 -0.942396,2.085302 -2.085302,2.085302 -1.142906,0 -2.085302,-0.942396 -2.085302,-2.085302 0,-1.162958 0.922344,-2.085302 2.085302,-2.085302 z"
           id="path3558-2-6-11" />
        <path
           inkscape:connector-curvature="0"
           style="fill:#f4f4f4;stroke-width:0.20050988"
           d="m 81.469572,31.410414 2.285812,-1.283264 c 0.40102,0.421072 0.922346,0.721836 1.503826,0.842142 l -0.0401,2.366016 c -0.02004,1.543926 -0.902296,2.927444 -2.62668,2.927444 -1.42362,0 -2.586578,-1.122854 -2.586578,-2.566526 0,-1.22311 0.822092,-1.944946 1.46372,-2.285812 z"
           id="path3556-5-9-3" />
        <path
           inkscape:connector-curvature="0"
           style="fill:#f4f4f4;stroke-width:0.20050988"
           d="m 86.482318,25.25476 0.02006,-2.486322 c 0.02004,-1.563976 0.922346,-2.827188 2.586578,-2.827188 1.44367,0 2.566526,1.183008 2.566526,2.566526 0,1.263212 -0.681734,1.884792 -1.784538,2.546476 l -1.82464,1.082752 c -0.40102,-0.441122 -0.942396,-0.761938 -1.563978,-0.882244 z"
           id="path3554-2-1-7" />
        <path
           inkscape:connector-curvature="0"
           style="fill:#f4f4f4;stroke-width:0.20050988"
           d="m 82.63253,19.981352 c 1.804588,0 2.62668,1.403568 2.62668,3.04775 l -0.02006,2.225658 c -0.62158,0.14036 -1.162956,0.461174 -1.563976,0.922346 l -1.884786,-1.102804 c -1.122854,-0.681734 -1.724384,-1.363466 -1.724384,-2.526424 0,-1.463722 1.122854,-2.566526 2.566526,-2.566526 z"
           id="path3552-4-33-6" />
        <path
           inkscape:connector-curvature="0"
           style="fill:#f4f4f4;stroke-width:0.20050988"
           d="m 88.667876,27.219758 2.325914,-1.243162 c 0.501276,-0.260662 1.00255,-0.40102 1.443672,-0.40102 1.383518,0 2.486322,1.243162 2.486322,2.606628 0,1.303314 -1.102804,2.566528 -2.466272,2.566528 -0.501274,0 -1.102804,-0.1604 -1.704332,-0.521326 l -2.105354,-1.22311 c 0.0802,-0.280714 0.14036,-0.58148 0.14036,-0.902294 0.02004,-0.300766 -0.02004,-0.60153 -0.1203,-0.882244 z"
           id="path3550-4-152-18" />
        <path
           inkscape:connector-curvature="0"
           style="fill:#f4f4f4;stroke-width:0.20050988"
           d="m 79.344168,25.575576 c 0.481224,0 1.0226,0.14036 1.62413,0.501276 l 2.085302,1.24316 c -0.0802,0.260664 -0.1203,0.521326 -0.1203,0.80204 0,0.300764 0.0401,0.60153 0.14036,0.882244 L 80.848,30.32766 c -0.501274,0.280714 -1.00255,0.40102 -1.463722,0.40102 -1.443672,0 -2.566526,-1.162956 -2.566526,-2.566526 0.02004,-1.323366 1.102804,-2.586578 2.526424,-2.586578 z"
           id="path3548-3-69-73" />
        <path
           inkscape:connector-curvature="0"
           style="fill:#f4f4f4;stroke-width:0.20050988"
           d="m 88.006194,30.147202 2.105354,1.203058 c 1.062702,0.621582 1.563976,1.40357 1.563976,2.386068 0,1.483774 -1.162956,2.586578 -2.566526,2.586578 -1.724384,0 -2.586578,-1.323366 -2.586578,-2.947496 l 0.0401,-2.386066 c 0.561428,-0.1604 1.062704,-0.441122 1.443674,-0.842142 z"
           id="path3509-8-44-7" />
      </g>
      <g
         transform="matrix(-0.15177664,0,0,0.15113092,168.26947,32.834637)"
         id="g3567-4-52-19">
        <path
           inkscape:connector-curvature="0"
           style="fill:#ffb700;stroke-width:0.20050988"
           d="m 85.88079,26.03675 c 1.142906,0 2.085302,0.942396 2.085302,2.085302 0,1.142906 -0.942396,2.085302 -2.085302,2.085302 -1.142906,0 -2.085302,-0.942396 -2.085302,-2.085302 0,-1.162958 0.922344,-2.085302 2.085302,-2.085302 z"
           id="path3558-2-6-4" />
        <path
           inkscape:connector-curvature="0"
           style="fill:#f4f4f4;stroke-width:0.20050988"
           d="m 81.469572,31.410414 2.285812,-1.283264 c 0.40102,0.421072 0.922346,0.721836 1.503826,0.842142 l -0.0401,2.366016 c -0.02004,1.543926 -0.902296,2.927444 -2.62668,2.927444 -1.42362,0 -2.586578,-1.122854 -2.586578,-2.566526 0,-1.22311 0.822092,-1.944946 1.46372,-2.285812 z"
           id="path3556-5-9-0" />
        <path
           inkscape:connector-curvature="0"
           style="fill:#f4f4f4;stroke-width:0.20050988"
           d="m 86.482318,25.25476 0.02006,-2.486322 c 0.02004,-1.563976 0.922346,-2.827188 2.586578,-2.827188 1.44367,0 2.566526,1.183008 2.566526,2.566526 0,1.263212 -0.681734,1.884792 -1.784538,2.546476 l -1.82464,1.082752 c -0.40102,-0.441122 -0.942396,-0.761938 -1.563978,-0.882244 z"
           id="path3554-2-1-8" />
        <path
           inkscape:connector-curvature="0"
           style="fill:#f4f4f4;stroke-width:0.20050988"
           d="m 82.63253,19.981352 c 1.804588,0 2.62668,1.403568 2.62668,3.04775 l -0.02006,2.225658 c -0.62158,0.14036 -1.162956,0.461174 -1.563976,0.922346 l -1.884786,-1.102804 c -1.122854,-0.681734 -1.724384,-1.363466 -1.724384,-2.526424 0,-1.463722 1.122854,-2.566526 2.566526,-2.566526 z"
           id="path3552-4-33-0" />
        <path
           inkscape:connector-curvature="0"
           style="fill:#f4f4f4;stroke-width:0.20050988"
           d="m 88.667876,27.219758 2.325914,-1.243162 c 0.501276,-0.260662 1.00255,-0.40102 1.443672,-0.40102 1.383518,0 2.486322,1.243162 2.486322,2.606628 0,1.303314 -1.102804,2.566528 -2.466272,2.566528 -0.501274,0 -1.102804,-0.1604 -1.704332,-0.521326 l -2.105354,-1.22311 c 0.0802,-0.280714 0.14036,-0.58148 0.14036,-0.902294 0.02004,-0.300766 -0.02004,-0.60153 -0.1203,-0.882244 z"
           id="path3550-4-152-14" />
        <path
           inkscape:connector-curvature="0"
           style="fill:#f4f4f4;stroke-width:0.20050988"
           d="m 79.344168,25.575576 c 0.481224,0 1.0226,0.14036 1.62413,0.501276 l 2.085302,1.24316 c -0.0802,0.260664 -0.1203,0.521326 -0.1203,0.80204 0,0.300764 0.0401,0.60153 0.14036,0.882244 L 80.848,30.32766 c -0.501274,0.280714 -1.00255,0.40102 -1.463722,0.40102 -1.443672,0 -2.566526,-1.162956 -2.566526,-2.566526 0.02004,-1.323366 1.102804,-2.586578 2.526424,-2.586578 z"
           id="path3548-3-69-77" />
        <path
           inkscape:connector-curvature="0"
           style="fill:#f4f4f4;stroke-width:0.20050988"
           d="m 88.006194,30.147202 2.105354,1.203058 c 1.062702,0.621582 1.563976,1.40357 1.563976,2.386068 0,1.483774 -1.162956,2.586578 -2.566526,2.586578 -1.724384,0 -2.586578,-1.323366 -2.586578,-2.947496 l 0.0401,-2.386066 c 0.561428,-0.1604 1.062704,-0.441122 1.443674,-0.842142 z"
           id="path3509-8-44-3" />
      </g>
      <g
         transform="matrix(-0.15177664,0,0,0.15113092,165.00164,30.71465)"
         id="g3567-4-52-9">
        <path
           inkscape:connector-curvature="0"
           style="fill:#ffb700;stroke-width:0.20050988"
           d="m 85.88079,26.03675 c 1.142906,0 2.085302,0.942396 2.085302,2.085302 0,1.142906 -0.942396,2.085302 -2.085302,2.085302 -1.142906,0 -2.085302,-0.942396 -2.085302,-2.085302 0,-1.162958 0.922344,-2.085302 2.085302,-2.085302 z"
           id="path3558-2-6-5" />
        <path
           inkscape:connector-curvature="0"
           style="fill:#f4f4f4;stroke-width:0.20050988"
           d="m 81.469572,31.410414 2.285812,-1.283264 c 0.40102,0.421072 0.922346,0.721836 1.503826,0.842142 l -0.0401,2.366016 c -0.02004,1.543926 -0.902296,2.927444 -2.62668,2.927444 -1.42362,0 -2.586578,-1.122854 -2.586578,-2.566526 0,-1.22311 0.822092,-1.944946 1.46372,-2.285812 z"
           id="path3556-5-9-8" />
        <path
           inkscape:connector-curvature="0"
           style="fill:#f4f4f4;stroke-width:0.20050988"
           d="m 86.482318,25.25476 0.02006,-2.486322 c 0.02004,-1.563976 0.922346,-2.827188 2.586578,-2.827188 1.44367,0 2.566526,1.183008 2.566526,2.566526 0,1.263212 -0.681734,1.884792 -1.784538,2.546476 l -1.82464,1.082752 c -0.40102,-0.441122 -0.942396,-0.761938 -1.563978,-0.882244 z"
           id="path3554-2-1-58" />
        <path
           inkscape:connector-curvature="0"
           style="fill:#f4f4f4;stroke-width:0.20050988"
           d="m 82.63253,19.981352 c 1.804588,0 2.62668,1.403568 2.62668,3.04775 l -0.02006,2.225658 c -0.62158,0.14036 -1.162956,0.461174 -1.563976,0.922346 l -1.884786,-1.102804 c -1.122854,-0.681734 -1.724384,-1.363466 -1.724384,-2.526424 0,-1.463722 1.122854,-2.566526 2.566526,-2.566526 z"
           id="path3552-4-33-7" />
        <path
           inkscape:connector-curvature="0"
           style="fill:#f4f4f4;stroke-width:0.20050988"
           d="m 88.667876,27.219758 2.325914,-1.243162 c 0.501276,-0.260662 1.00255,-0.40102 1.443672,-0.40102 1.383518,0 2.486322,1.243162 2.486322,2.606628 0,1.303314 -1.102804,2.566528 -2.466272,2.566528 -0.501274,0 -1.102804,-0.1604 -1.704332,-0.521326 l -2.105354,-1.22311 c 0.0802,-0.280714 0.14036,-0.58148 0.14036,-0.902294 0.02004,-0.300766 -0.02004,-0.60153 -0.1203,-0.882244 z"
           id="path3550-4-152-2" />
        <path
           inkscape:connector-curvature="0"
           style="fill:#f4f4f4;stroke-width:0.20050988"
           d="m 79.344168,25.575576 c 0.481224,0 1.0226,0.14036 1.62413,0.501276 l 2.085302,1.24316 c -0.0802,0.260664 -0.1203,0.521326 -0.1203,0.80204 0,0.300764 0.0401,0.60153 0.14036,0.882244 L 80.848,30.32766 c -0.501274,0.280714 -1.00255,0.40102 -1.463722,0.40102 -1.443672,0 -2.566526,-1.162956 -2.566526,-2.566526 0.02004,-1.323366 1.102804,-2.586578 2.526424,-2.586578 z"
           id="path3548-3-69-8" />
        <path
           inkscape:connector-curvature="0"
           style="fill:#f4f4f4;stroke-width:0.20050988"
           d="m 88.006194,30.147202 2.105354,1.203058 c 1.062702,0.621582 1.563976,1.40357 1.563976,2.386068 0,1.483774 -1.162956,2.586578 -2.566526,2.586578 -1.724384,0 -2.586578,-1.323366 -2.586578,-2.947496 l 0.0401,-2.386066 c 0.561428,-0.1604 1.062704,-0.441122 1.443674,-0.842142 z"
           id="path3509-8-44-9" />
      </g>
      <path
         style="fill:#000000;fill-opacity:1;stroke-width:0.19114953"
         id="path4117-5"
         d="m 157.93417,16.203753 c -0.31162,-0.418638 -0.77407,-0.727725 -1.32894,-0.832319 -1.16937,-0.220432 -2.29688,0.544861 -2.51825,1.709262 -0.14117,0.742537 0.12134,1.467011 0.63265,1.952429 0.23949,-0.600336 0.60243,-1.150611 1.07789,-1.617948 0.60306,-0.592957 1.33743,-1.004883 2.13665,-1.211424 z"
         inkscape:connector-curvature="0" />
      <ellipse
         style="opacity:1;vector-effect:none;fill:#000000;fill-opacity:1;stroke:none;stroke-width:0.47785684;stroke-linecap:butt;stroke-linejoin:bevel;stroke-miterlimit:4;stroke-dasharray:none;stroke-dashoffset:0;stroke-opacity:1;paint-order:markers stroke fill"
         id="path6312-1"
         cx="159.1353"
         cy="20.780502"
         rx="4.3098893"
         ry="4.2915535" />
      <g
         style="stroke-width:1.08695328"
         transform="matrix(-0.15177664,0,0,0.15113092,174.70611,36.039266)"
         id="g3567-4-52-19-6">
        <path
           inkscape:connector-curvature="0"
           style="fill:#ffb700;stroke-width:0.20050988"
           d="m 85.88079,26.03675 c 1.142906,0 2.085302,0.942396 2.085302,2.085302 0,1.142906 -0.942396,2.085302 -2.085302,2.085302 -1.142906,0 -2.085302,-0.942396 -2.085302,-2.085302 0,-1.162958 0.922344,-2.085302 2.085302,-2.085302 z"
           id="path3558-2-6-4-0" />
        <path
           inkscape:connector-curvature="0"
           style="fill:#f4f4f4;stroke-width:0.20050988"
           d="m 81.469572,31.410414 2.285812,-1.283264 c 0.40102,0.421072 0.922346,0.721836 1.503826,0.842142 l -0.0401,2.366016 c -0.02004,1.543926 -0.902296,2.927444 -2.62668,2.927444 -1.42362,0 -2.586578,-1.122854 -2.586578,-2.566526 0,-1.22311 0.822092,-1.944946 1.46372,-2.285812 z"
           id="path3556-5-9-0-8" />
        <path
           inkscape:connector-curvature="0"
           style="fill:#f4f4f4;stroke-width:0.20050988"
           d="m 86.482318,25.25476 0.02006,-2.486322 c 0.02004,-1.563976 0.922346,-2.827188 2.586578,-2.827188 1.44367,0 2.566526,1.183008 2.566526,2.566526 0,1.263212 -0.681734,1.884792 -1.784538,2.546476 l -1.82464,1.082752 c -0.40102,-0.441122 -0.942396,-0.761938 -1.563978,-0.882244 z"
           id="path3554-2-1-8-0" />
        <path
           inkscape:connector-curvature="0"
           style="fill:#f4f4f4;stroke-width:0.20050988"
           d="m 82.63253,19.981352 c 1.804588,0 2.62668,1.403568 2.62668,3.04775 l -0.02006,2.225658 c -0.62158,0.14036 -1.162956,0.461174 -1.563976,0.922346 l -1.884786,-1.102804 c -1.122854,-0.681734 -1.724384,-1.363466 -1.724384,-2.526424 0,-1.463722 1.122854,-2.566526 2.566526,-2.566526 z"
           id="path3552-4-33-0-9" />
        <path
           inkscape:connector-curvature="0"
           style="fill:#f4f4f4;stroke-width:0.20050988"
           d="m 88.667876,27.219758 2.325914,-1.243162 c 0.501276,-0.260662 1.00255,-0.40102 1.443672,-0.40102 1.383518,0 2.486322,1.243162 2.486322,2.606628 0,1.303314 -1.102804,2.566528 -2.466272,2.566528 -0.501274,0 -1.102804,-0.1604 -1.704332,-0.521326 l -2.105354,-1.22311 c 0.0802,-0.280714 0.14036,-0.58148 0.14036,-0.902294 0.02004,-0.300766 -0.02004,-0.60153 -0.1203,-0.882244 z"
           id="path3550-4-152-14-9" />
        <path
           inkscape:connector-curvature="0"
           style="fill:#f4f4f4;stroke-width:0.20050988"
           d="m 79.344168,25.575576 c 0.481224,0 1.0226,0.14036 1.62413,0.501276 l 2.085302,1.24316 c -0.0802,0.260664 -0.1203,0.521326 -0.1203,0.80204 0,0.300764 0.0401,0.60153 0.14036,0.882244 L 80.848,30.32766 c -0.501274,0.280714 -1.00255,0.40102 -1.463722,0.40102 -1.443672,0 -2.566526,-1.162956 -2.566526,-2.566526 0.02004,-1.323366 1.102804,-2.586578 2.526424,-2.586578 z"
           id="path3548-3-69-77-4" />
        <path
           inkscape:connector-curvature="0"
           style="fill:#f4f4f4;stroke-width:0.20050988"
           d="m 88.006194,30.147202 2.105354,1.203058 c 1.062702,0.621582 1.563976,1.40357 1.563976,2.386068 0,1.483774 -1.162956,2.586578 -2.566526,2.586578 -1.724384,0 -2.586578,-1.323366 -2.586578,-2.947496 l 0.0401,-2.386066 c 0.561428,-0.1604 1.062704,-0.441122 1.443674,-0.842142 z"
           id="path3509-8-44-3-8" />
      </g>
      <g
         style="stroke-width:1.08695328"
         transform="matrix(-0.15177664,0,0,0.15113092,167.87336,36.778796)"
         id="g3567-4-52-19-7">
        <path
           inkscape:connector-curvature="0"
           style="fill:#ffb700;stroke-width:0.20050988"
           d="m 85.88079,26.03675 c 1.142906,0 2.085302,0.942396 2.085302,2.085302 0,1.142906 -0.942396,2.085302 -2.085302,2.085302 -1.142906,0 -2.085302,-0.942396 -2.085302,-2.085302 0,-1.162958 0.922344,-2.085302 2.085302,-2.085302 z"
           id="path3558-2-6-4-2" />
        <path
           inkscape:connector-curvature="0"
           style="fill:#f4f4f4;stroke-width:0.20050988"
           d="m 81.469572,31.410414 2.285812,-1.283264 c 0.40102,0.421072 0.922346,0.721836 1.503826,0.842142 l -0.0401,2.366016 c -0.02004,1.543926 -0.902296,2.927444 -2.62668,2.927444 -1.42362,0 -2.586578,-1.122854 -2.586578,-2.566526 0,-1.22311 0.822092,-1.944946 1.46372,-2.285812 z"
           id="path3556-5-9-0-4" />
        <path
           inkscape:connector-curvature="0"
           style="fill:#f4f4f4;stroke-width:0.20050988"
           d="m 86.482318,25.25476 0.02006,-2.486322 c 0.02004,-1.563976 0.922346,-2.827188 2.586578,-2.827188 1.44367,0 2.566526,1.183008 2.566526,2.566526 0,1.263212 -0.681734,1.884792 -1.784538,2.546476 l -1.82464,1.082752 c -0.40102,-0.441122 -0.942396,-0.761938 -1.563978,-0.882244 z"
           id="path3554-2-1-8-8" />
        <path
           inkscape:connector-curvature="0"
           style="fill:#f4f4f4;stroke-width:0.20050988"
           d="m 82.63253,19.981352 c 1.804588,0 2.62668,1.403568 2.62668,3.04775 l -0.02006,2.225658 c -0.62158,0.14036 -1.162956,0.461174 -1.563976,0.922346 l -1.884786,-1.102804 c -1.122854,-0.681734 -1.724384,-1.363466 -1.724384,-2.526424 0,-1.463722 1.122854,-2.566526 2.566526,-2.566526 z"
           id="path3552-4-33-0-1" />
        <path
           inkscape:connector-curvature="0"
           style="fill:#f4f4f4;stroke-width:0.20050988"
           d="m 88.667876,27.219758 2.325914,-1.243162 c 0.501276,-0.260662 1.00255,-0.40102 1.443672,-0.40102 1.383518,0 2.486322,1.243162 2.486322,2.606628 0,1.303314 -1.102804,2.566528 -2.466272,2.566528 -0.501274,0 -1.102804,-0.1604 -1.704332,-0.521326 l -2.105354,-1.22311 c 0.0802,-0.280714 0.14036,-0.58148 0.14036,-0.902294 0.02004,-0.300766 -0.02004,-0.60153 -0.1203,-0.882244 z"
           id="path3550-4-152-14-4" />
        <path
           inkscape:connector-curvature="0"
           style="fill:#f4f4f4;stroke-width:0.20050988"
           d="m 79.344168,25.575576 c 0.481224,0 1.0226,0.14036 1.62413,0.501276 l 2.085302,1.24316 c -0.0802,0.260664 -0.1203,0.521326 -0.1203,0.80204 0,0.300764 0.0401,0.60153 0.14036,0.882244 L 80.848,30.32766 c -0.501274,0.280714 -1.00255,0.40102 -1.463722,0.40102 -1.443672,0 -2.566526,-1.162956 -2.566526,-2.566526 0.02004,-1.323366 1.102804,-2.586578 2.526424,-2.586578 z"
           id="path3548-3-69-77-8" />
        <path
           inkscape:connector-curvature="0"
           style="fill:#f4f4f4;stroke-width:0.20050988"
           d="m 88.006194,30.147202 2.105354,1.203058 c 1.062702,0.621582 1.563976,1.40357 1.563976,2.386068 0,1.483774 -1.162956,2.586578 -2.566526,2.586578 -1.724384,0 -2.586578,-1.323366 -2.586578,-2.947496 l 0.0401,-2.386066 c 0.561428,-0.1604 1.062704,-0.441122 1.443674,-0.842142 z"
           id="path3509-8-44-3-0" />
      </g>
    </g>
    <path
       style="color:#000000;font-style:normal;font-variant:normal;font-weight:normal;font-stretch:normal;font-size:medium;line-height:normal;font-family:sans-serif;font-variant-ligatures:normal;font-variant-position:normal;font-variant-caps:normal;font-variant-numeric:normal;font-variant-alternates:normal;font-feature-settings:normal;text-indent:0;text-align:start;text-decoration:none;text-decoration-line:none;text-decoration-style:solid;text-decoration-color:#000000;letter-spacing:normal;word-spacing:normal;text-transform:none;writing-mode:lr-tb;direction:ltr;text-orientation:mixed;dominant-baseline:auto;baseline-shift:baseline;text-anchor:start;white-space:normal;shape-padding:0;clip-rule:nonzero;display:inline;overflow:visible;visibility:visible;opacity:0.5;isolation:auto;mix-blend-mode:normal;color-interpolation:sRGB;color-interpolation-filters:linearRGB;solid-color:#000000;solid-opacity:1;vector-effect:none;fill:#000000;fill-opacity:1;fill-rule:nonzero;stroke:#f4f4f4;stroke-width:0.31461251;stroke-linecap:round;stroke-linejoin:miter;stroke-miterlimit:4;stroke-dasharray:none;stroke-dashoffset:0;stroke-opacity:1;color-rendering:auto;image-rendering:auto;shape-rendering:auto;text-rendering:auto;enable-background:accumulate"
       d="m 74.19479,31.25374 a 1.4134478,1.4194867 0 0 1 1.326617,1.62835 c -0.310266,2.30491 -1.024711,3.941726 -2.781788,5.81283 -1.8415,1.961017 -4.653069,2.645897 -7.106145,2.884899 A 1.4137571,1.4197974 0 1 1 65.36095,38.753446 c 2.069725,-0.201654 4.328545,-0.947494 5.321895,-2.005315 1.533906,-1.633443 1.764871,-2.218013 2.037922,-4.24645 A 1.4134478,1.4194867 0 0 1 74.19479,31.25374 Z"
       id="path17138"
       inkscape:connector-curvature="0" />
    <g
       id="g4224"
       transform="matrix(1.4121677,0,0,1.4121677,-51.788747,-16.101749)">
      <path
         inkscape:connector-curvature="0"
         style="color:#000000;font-style:normal;font-variant:normal;font-weight:normal;font-stretch:normal;font-size:medium;line-height:normal;font-family:sans-serif;font-variant-ligatures:normal;font-variant-position:normal;font-variant-caps:normal;font-variant-numeric:normal;font-variant-alternates:normal;font-feature-settings:normal;text-indent:0;text-align:start;text-decoration:none;text-decoration-line:none;text-decoration-style:solid;text-decoration-color:#000000;letter-spacing:normal;word-spacing:normal;text-transform:none;writing-mode:lr-tb;direction:ltr;text-orientation:mixed;dominant-baseline:auto;baseline-shift:baseline;text-anchor:start;white-space:normal;shape-padding:0;clip-rule:nonzero;display:inline;overflow:visible;visibility:visible;opacity:1;isolation:auto;mix-blend-mode:normal;color-interpolation:sRGB;color-interpolation-filters:linearRGB;solid-color:#000000;solid-opacity:1;vector-effect:none;fill:#e7040f;fill-opacity:1;fill-rule:nonzero;stroke:#f4f4f4;stroke-width:0.32911263;stroke-linecap:round;stroke-linejoin:miter;stroke-miterlimit:4;stroke-dasharray:none;stroke-dashoffset:0;stroke-opacity:1;paint-order:markers stroke fill;color-rendering:auto;image-rendering:auto;shape-rendering:auto;text-rendering:auto;enable-background:accumulate"
         d="m 88.323254,53.419723 c 0.03856,-0.0032 0.07158,-0.02825 0.08501,-0.06453 l 1.279263,-3.479358 c 0.03363,-0.09166 -0.07108,-0.171903 -0.150838,-0.11559 -0.292001,0.209575 -0.623313,0.334951 -0.961778,0.378647 v -7.074824 a 0.2655205,0.2655205 0 0 0 -0.531041,0 v 7.075342 c -0.336588,-0.0432 -0.663737,-0.168166 -0.949081,-0.378129 -0.07959,-0.05949 -0.187736,0.02149 -0.152911,0.114553 l 1.279523,3.479357 c 0.01554,0.04202 0.05722,0.06837 0.101854,0.06453 z"
         id="path2327" />
      <g
         id="g12598"
         style="fill:#e7040f;fill-opacity:1;stroke:#f4f4f4;stroke-width:0.4849205;stroke-linecap:round;stroke-linejoin:round;stroke-miterlimit:4;stroke-dasharray:none;stroke-dashoffset:0;paint-order:markers stroke fill"
         ns1:jacobian_sqrt="0.678694"
         inkscapeversion="0.92.4"
         ns1:alignment="middle center"
         ns1:scale="1.92385834868"
         ns1:preamble="/home/fdf/.config/inkscape/extensions/textext/default_packages.tex"
         ns1:text="$638$ N"
         ns1:pdfconverter="pdf2svg"
         ns1:texconverter="pdflatex"
         ns1:version="0.9.0"
         transform="matrix(0.678694,0,0,0.678694,-22.252676,-32.487832)">
        <g
           style="fill:#e7040f;fill-opacity:1;stroke:#f4f4f4;stroke-width:0.4849205;stroke-linecap:round;stroke-linejoin:round;stroke-miterlimit:4;stroke-dasharray:none;stroke-dashoffset:0;paint-order:markers stroke fill"
           id="surface1">
          <g
             id="g12591"
             style="fill:#e7040f;fill-opacity:1;stroke:#f4f4f4;stroke-width:0.4849205;stroke-linecap:round;stroke-linejoin:round;stroke-miterlimit:4;stroke-dasharray:none;stroke-dashoffset:0;paint-order:markers stroke fill">
            <path
               id="path12585"
               transform="translate(148.712,134.765)"
               d="m 1.3125,-3.265625 v -0.25 c 0,-2.515625 1.234375,-2.875 1.75,-2.875 0.234375,0 0.65625,0.0625 0.875,0.40625 -0.15625,0 -0.546875,0 -0.546875,0.4375 0,0.3125 0.234375,0.46875 0.453125,0.46875 0.15625,0 0.46875,-0.09375 0.46875,-0.484375 0,-0.59375 -0.4375,-1.078125 -1.265625,-1.078125 -1.28125,0 -2.625,1.28125 -2.625,3.484375 0,2.671875 1.15625,3.375 2.078125,3.375 1.109375,0 2.0625,-0.9375 2.0625,-2.25 0,-1.265625 -0.890625,-2.21875 -2,-2.21875 -0.671875,0 -1.046875,0.5 -1.25,0.984375 z M 2.5,-0.0625 c -0.625,0 -0.921875,-0.59375 -0.984375,-0.75 -0.1875,-0.46875 -0.1875,-1.265625 -0.1875,-1.4375 0,-0.78125 0.328125,-1.78125 1.21875,-1.78125 0.171875,0 0.625,0 0.9375,0.625 0.171875,0.359375 0.171875,0.875 0.171875,1.359375 0,0.484375 0,0.984375 -0.171875,1.34375 C 3.1875,-0.109375 2.734375,-0.0625 2.5,-0.0625 Z m 0,0"
               style="fill:#e7040f;fill-opacity:1;stroke:#f4f4f4;stroke-width:0.4849205;stroke-linecap:round;stroke-linejoin:round;stroke-miterlimit:4;stroke-dasharray:none;stroke-dashoffset:0;paint-order:markers stroke fill"
               inkscape:connector-curvature="0" />
            <path
               id="path12587"
               transform="translate(153.6933,134.765)"
               d="m 2.890625,-3.515625 c 0.8125,-0.265625 1.390625,-0.953125 1.390625,-1.75 0,-0.8125 -0.875,-1.375 -1.828125,-1.375 -1,0 -1.765625,0.59375 -1.765625,1.359375 0,0.328125 0.21875,0.515625 0.515625,0.515625 0.296875,0 0.5,-0.21875 0.5,-0.515625 0,-0.484375 -0.46875,-0.484375 -0.609375,-0.484375 0.296875,-0.5 0.953125,-0.625 1.3125,-0.625 0.421875,0 0.96875,0.21875 0.96875,1.109375 0,0.125 -0.03125,0.703125 -0.28125,1.140625 C 2.796875,-3.65625 2.453125,-3.625 2.203125,-3.625 2.125,-3.609375 1.890625,-3.59375 1.8125,-3.59375 c -0.078125,0.015625 -0.140625,0.03125 -0.140625,0.125 0,0.109375 0.0625,0.109375 0.234375,0.109375 h 0.4375 c 0.8125,0 1.1875,0.671875 1.1875,1.65625 0,1.359375 -0.6875,1.640625 -1.125,1.640625 -0.4375,0 -1.1875,-0.171875 -1.53125,-0.75 0.34375,0.046875 0.65625,-0.171875 0.65625,-0.546875 0,-0.359375 -0.265625,-0.5625 -0.546875,-0.5625 -0.25,0 -0.5625,0.140625 -0.5625,0.578125 0,0.90625 0.921875,1.5625 2.015625,1.5625 1.21875,0 2.125,-0.90625 2.125,-1.921875 0,-0.8125 -0.640625,-1.59375 -1.671875,-1.8125 z m 0,0"
               style="fill:#e7040f;fill-opacity:1;stroke:#f4f4f4;stroke-width:0.4849205;stroke-linecap:round;stroke-linejoin:round;stroke-miterlimit:4;stroke-dasharray:none;stroke-dashoffset:0;paint-order:markers stroke fill"
               inkscape:connector-curvature="0" />
            <path
               id="path12589"
               transform="translate(158.6746,134.765)"
               d="m 1.625,-4.5625 c -0.453125,-0.296875 -0.5,-0.625 -0.5,-0.796875 0,-0.609375 0.65625,-1.03125 1.359375,-1.03125 0.71875,0 1.359375,0.515625 1.359375,1.234375 0,0.578125 -0.390625,1.046875 -0.984375,1.390625 z m 1.453125,0.953125 C 3.796875,-3.984375 4.28125,-4.5 4.28125,-5.15625 c 0,-0.921875 -0.875,-1.484375 -1.78125,-1.484375 -1,0 -1.8125,0.734375 -1.8125,1.671875 0,0.171875 0.015625,0.625 0.4375,1.09375 0.109375,0.109375 0.484375,0.359375 0.734375,0.53125 C 1.28125,-3.046875 0.421875,-2.5 0.421875,-1.5 c 0,1.046875 1.015625,1.71875 2.0625,1.71875 1.125,0 2.078125,-0.828125 2.078125,-1.890625 0,-0.359375 -0.109375,-0.8125 -0.5,-1.234375 C 3.875,-3.109375 3.71875,-3.203125 3.078125,-3.609375 Z m -1,0.421875 1.234375,0.78125 c 0.28125,0.1875 0.75,0.484375 0.75,1.09375 0,0.734375 -0.75,1.25 -1.5625,1.25 -0.859375,0 -1.578125,-0.609375 -1.578125,-1.4375 0,-0.578125 0.3125,-1.21875 1.15625,-1.6875 z m 0,0"
               style="fill:#e7040f;fill-opacity:1;stroke:#f4f4f4;stroke-width:0.4849205;stroke-linecap:round;stroke-linejoin:round;stroke-miterlimit:4;stroke-dasharray:none;stroke-dashoffset:0;paint-order:markers stroke fill"
               inkscape:connector-curvature="0" />
          </g>
          <g
             id="g12595"
             style="fill:#e7040f;fill-opacity:1;stroke:#f4f4f4;stroke-width:0.4849205;stroke-linecap:round;stroke-linejoin:round;stroke-miterlimit:4;stroke-dasharray:none;stroke-dashoffset:0;paint-order:markers stroke fill">
            <path
               id="path12593"
               transform="translate(166.97345,134.765)"
               d="M 2.3125,-6.671875 C 2.21875,-6.796875 2.21875,-6.8125 2.03125,-6.8125 H 0.328125 V -6.5 H 0.625 c 0.140625,0 0.34375,0.015625 0.484375,0.015625 0.234375,0.03125 0.25,0.046875 0.25,0.234375 v 5.203125 c 0,0.265625 0,0.734375 -1.03125,0.734375 V 0 C 0.671875,-0.015625 1.171875,-0.03125 1.5,-0.03125 c 0.328125,0 0.8125,0.015625 1.15625,0.03125 v -0.3125 c -1.015625,0 -1.015625,-0.46875 -1.015625,-0.734375 v -5.1875 c 0.046875,0.046875 0.046875,0.0625 0.09375,0.125 L 5.796875,-0.125 C 5.890625,-0.015625 5.90625,0 5.96875,0 6.109375,0 6.109375,-0.0625 6.109375,-0.265625 v -5.5 c 0,-0.265625 0,-0.734375 1.03125,-0.734375 v -0.3125 c -0.359375,0.015625 -0.84375,0.03125 -1.171875,0.03125 -0.328125,0 -0.8125,-0.015625 -1.15625,-0.03125 V -6.5 c 1.015625,0 1.015625,0.46875 1.015625,0.734375 V -1.5 Z m 0,0"
               style="fill:#e7040f;fill-opacity:1;stroke:#f4f4f4;stroke-width:0.4849205;stroke-linecap:round;stroke-linejoin:round;stroke-miterlimit:4;stroke-dasharray:none;stroke-dashoffset:0;paint-order:markers stroke fill"
               inkscape:connector-curvature="0" />
          </g>
        </g>
      </g>
    </g>
  </g>
  <g
     inkscape:label="watermark"
     inkscape:groupmode="layer"
     id="layer1"
     transform="translate(5.1800203,-237.21388)"
     sodipodi:insensitive="true">
    <g
       id="g5353"
       transform="matrix(0.89623584,0,0,0.89623584,-1.2321384,28.09939)"
       style="stroke-width:1.11577785">
      <text
         xml:space="preserve"
         style="font-style:normal;font-variant:normal;font-weight:normal;font-stretch:normal;font-size:28.01556396px;line-height:1.29999995;font-family:Quicksand;-inkscape-font-specification:'Quicksand, Normal';font-variant-ligatures:normal;font-variant-position:normal;font-variant-caps:normal;font-variant-numeric:normal;font-variant-alternates:normal;font-feature-settings:normal;text-indent:0;text-align:center;text-decoration:none;text-decoration-line:none;text-decoration-style:solid;text-decoration-color:#000000;letter-spacing:0px;word-spacing:0px;text-transform:none;writing-mode:lr-tb;direction:ltr;text-orientation:mixed;dominant-baseline:auto;baseline-shift:baseline;text-anchor:middle;white-space:normal;shape-padding:0;opacity:1;vector-effect:none;fill:#555555;fill-opacity:1;stroke:none;stroke-width:3.17272329px;stroke-linecap:butt;stroke-linejoin:miter;stroke-miterlimit:4;stroke-dasharray:none;stroke-dashoffset:0;stroke-opacity:1"
         x="44.292774"
         y="218.67326"
         id="text2653"><tspan
           sodipodi:role="line"
           id="tspan2651"
           x="44.292774"
           y="245.28806"
           style="stroke-width:3.17272329px" /></text>
      <text
         xml:space="preserve"
         style="font-style:normal;font-variant:normal;font-weight:normal;font-stretch:normal;font-size:4.72345829px;line-height:1.25;font-family:Quicksand;-inkscape-font-specification:Quicksand;text-align:end;letter-spacing:0px;word-spacing:0px;text-anchor:end;fill:#d3d3d3;fill-opacity:1;stroke:none;stroke-width:0.29521614"
         x="167.17076"
         y="298.24545"
         id="text7806"><tspan
           sodipodi:role="line"
           id="tspan7804"
           x="167.17076"
           y="298.24545"
           style="font-size:4.72345829px;text-align:end;text-anchor:end;fill:#d3d3d3;stroke-width:0.29521614">Meer op: https://hoezithet.nu</tspan></text>
    </g>
  </g>
  <g
     inkscape:groupmode="layer"
     id="layer2"
     inkscape:label="Layer 1"
     transform="translate(5.1800203,-237.21388)" />
</svg>
