<?xml version="1.0" encoding="UTF-8" standalone="no"?>
<!-- Created with Inkscape (http://www.inkscape.org/) -->

<svg
   xmlns:i="http://ns.adobe.com/AdobeIllustrator/10.0/"
   xmlns:ns1="http://www.iki.fi/pav/software/textext/"
   xmlns:dc="http://purl.org/dc/elements/1.1/"
   xmlns:cc="http://creativecommons.org/ns#"
   xmlns:rdf="http://www.w3.org/1999/02/22-rdf-syntax-ns#"
   xmlns:svg="http://www.w3.org/2000/svg"
   xmlns="http://www.w3.org/2000/svg"
   xmlns:xlink="http://www.w3.org/1999/xlink"
   xmlns:sodipodi="http://sodipodi.sourceforge.net/DTD/sodipodi-0.dtd"
   xmlns:inkscape="http://www.inkscape.org/namespaces/inkscape"
   width="581.73621"
   height="209.62985"
   viewBox="0 0 153.91769 55.46456"
   version="1.1"
   id="svg4623"
   inkscape:version="0.92.4 (unknown)"
   sodipodi:docname="zwaartekracht_voetbal_aarde_oefening.svg"
   inkscape:export-filename="/home/fdf/hugo/hoezithet/content/lessen/fysica/krachten_1/zwaartekracht/img/zwaartekracht_voetbal_aarde_oefening.png"
   inkscape:export-xdpi="299.95728"
   inkscape:export-ydpi="299.95728">
  <defs
     id="defs4617">
    <clipPath
       clipPathUnits="userSpaceOnUse"
       id="clipPath21806">
      <path
         id="path21808"
         style="opacity:1;vector-effect:none;fill:#f4f4f4;fill-opacity:1;stroke:#555555;stroke-width:0.35277775;stroke-linecap:round;stroke-linejoin:round;stroke-miterlimit:4;stroke-dasharray:none;stroke-dashoffset:0;stroke-opacity:1"
         d="m 12.815754,18.425872 h 4.495849 c 3.503284,0 6.211886,0.05168 8.991699,0 2.779812,-0.05168 4.780069,0 4.780069,0 0,0 -0.529166,3.143767 -0.529166,5.639902 0,2.496136 0.529166,5.93129 0.529166,5.93129 0,0 -2.000257,1.006652 -4.78007,1.058333 -2.779812,0.05168 -5.488414,-1.058333 -8.991698,-1.058333 -3.503283,0 -4.495849,0.529166 -4.495849,0.529166 z"
         inkscape:connector-curvature="0"
         sodipodi:nodetypes="cscczccscc" />
    </clipPath>
    <pattern
       patternUnits="userSpaceOnUse"
       width="50.260043"
       height="37.694409"
       patternTransform="matrix(0.26458331,0,0,0.26458331,39.526125,62.056557)"
       id="pattern13500-6-7-0-7">
      <g
         id="use13498-9-3-7-5"
         transform="matrix(3.7795279,0,0,3.7795279,-77.89009,-234.54449)">
        <rect
           id="rect13530-9-3-7-4"
           y="62.056557"
           x="20.608419"
           height="9.9733095"
           width="13.297967"
           style="fill:none;stroke:none;stroke-width:0.61472619" />
        <path
           inkscape:connector-curvature="0"
           d="m 30.581893,62.056559 3.324491,4.986654 -3.324491,4.986654 -3.32449,-4.986654 z m -6.648981,10e-7 3.32449,4.986654 -3.32449,4.986654 -3.32449,-4.986654 z"
           style="opacity:1;vector-effect:none;fill:#555555;fill-opacity:1;stroke:none;stroke-width:0.88533551;stroke-linecap:butt;stroke-linejoin:bevel;stroke-miterlimit:4;stroke-dasharray:2.65600656, 2.65600656;stroke-dashoffset:0;stroke-opacity:1;paint-order:markers stroke fill"
           id="path13532-2-5-2-4" />
        <path
           inkscape:connector-curvature="0"
           d="m 27.257404,62.05656 3.324489,-10e-7 -3.32449,4.986654 -3.324491,-4.986654 z m -1e-6,4.986654 3.32449,4.986654 -3.324489,-2e-6 -3.324492,2e-6 z"
           style="opacity:1;vector-effect:none;fill:#16502d;fill-opacity:1;stroke:none;stroke-width:0.88533551;stroke-linecap:butt;stroke-linejoin:bevel;stroke-miterlimit:4;stroke-dasharray:2.65600656, 2.65600656;stroke-dashoffset:0;stroke-opacity:1;paint-order:markers stroke fill"
           id="path13534-3-0-1-6" />
        <path
           inkscape:connector-curvature="0"
           d="m 33.906385,67.043213 v 4.986653 0 l -3.324491,10e-7 z m -13.297963,1e-6 3.32449,4.986654 -3.324489,-2e-6 z m 10e-7,-4.986654 3.32449,-2e-6 -3.32449,4.986655 z m 13.297962,0 v 0 l -10e-7,4.986653 -3.32449,-4.986655 z"
           style="opacity:1;vector-effect:none;fill:#19a974;fill-opacity:1;stroke:none;stroke-width:0.88533551;stroke-linecap:butt;stroke-linejoin:bevel;stroke-miterlimit:4;stroke-dasharray:2.65600653, 2.65600653;stroke-dashoffset:0;stroke-opacity:1;paint-order:markers stroke fill"
           id="path13536-5-1-4-5" />
        <path
           id="path13538-4-4-1-6"
           style="opacity:1;vector-effect:none;fill:#137752;fill-opacity:1;stroke:#000000;stroke-width:0.21277149;stroke-linecap:round;stroke-linejoin:miter;stroke-miterlimit:4;stroke-dasharray:0.2127715, 0.42554299;stroke-dashoffset:0;stroke-opacity:1"
           d="m 27.257401,71.922222 -6.541749,-9.758016 m 13.083499,9.758016 -6.541748,-9.758017 m 0,9.758017 6.541748,-9.758017 m -13.083499,9.758017 6.54175,-9.758017"
           inkscape:connector-curvature="0"
           sodipodi:nodetypes="cccccccc" />
      </g>
    </pattern>
    <marker
       inkscape:stockid="Arrow2Mend"
       orient="auto"
       refY="0"
       refX="0"
       id="Arrow2Mend-5"
       style="overflow:visible"
       inkscape:isstock="true">
      <path
         id="path6062-1"
         style="fill:#e7040f;fill-opacity:1;fill-rule:evenodd;stroke:#e7040f;stroke-width:0.625;stroke-linejoin:round;stroke-opacity:1"
         d="M 8.7185878,4.0337352 -2.2072895,0.01601326 8.7185884,-4.0017078 c -1.7454984,2.3720609 -1.7354408,5.6174519 -6e-7,8.035443 z"
         transform="scale(-0.6)"
         inkscape:connector-curvature="0" />
    </marker>
    <clipPath
       clipPathUnits="userSpaceOnUse"
       id="clipPath1337">
      <rect
         style="opacity:1;vector-effect:none;fill:#555555;fill-opacity:1;stroke:none;stroke-width:0.48600426;stroke-linecap:butt;stroke-linejoin:round;stroke-miterlimit:4;stroke-dasharray:none;stroke-dashoffset:0;stroke-opacity:1;paint-order:fill markers stroke"
         id="rect1339"
         width="143.45605"
         height="52.020489"
         x="-34.598827"
         y="4.336009" />
    </clipPath>
    <clipPath
       clipPathUnits="userSpaceOnUse"
       id="clipPath12691">
      <path
         style="opacity:1;vector-effect:none;fill:#f4f4f4;fill-opacity:1;stroke:#d3d3d3;stroke-width:1.32291651;stroke-linecap:round;stroke-linejoin:miter;stroke-miterlimit:4;stroke-dasharray:none;stroke-dashoffset:0;stroke-opacity:1"
         d="M 114.30584,20.308651 124.95118,9.6633063 146.86199,31.574113 136.21664,42.219458"
         id="path12693"
         inkscape:connector-curvature="0"
         sodipodi:nodetypes="cccc" />
    </clipPath>
    <pattern
       inkscape:collect="always"
       xlink:href="#pattern13509-8"
       id="pattern11803"
       patternTransform="matrix(-0.11025789,0,0,0.15827753,146.4944,76.963999)" />
    <pattern
       inkscape:collect="always"
       xlink:href="#pattern13500-6-7"
       id="pattern13509-8"
       patternTransform="matrix(-0.08765214,0,0,0.1258265,79.205005,64.390907)" />
    <pattern
       patternUnits="userSpaceOnUse"
       width="50.260043"
       height="37.694409"
       patternTransform="matrix(0.26458331,0,0,0.26458331,39.526125,62.056557)"
       id="pattern13500-6-7">
      <g
         id="use13498-9-3"
         transform="matrix(3.7795279,0,0,3.7795279,-77.89009,-234.54449)">
        <rect
           id="rect13530-9-3"
           y="62.056557"
           x="20.608419"
           height="9.9733095"
           width="13.297967"
           style="fill:none;stroke:none;stroke-width:0.61472619" />
        <path
           inkscape:connector-curvature="0"
           d="m 30.581893,62.056559 3.324491,4.986654 -3.324491,4.986654 -3.32449,-4.986654 z m -6.648981,10e-7 3.32449,4.986654 -3.32449,4.986654 -3.32449,-4.986654 z"
           style="opacity:1;vector-effect:none;fill:#555555;fill-opacity:1;stroke:none;stroke-width:0.88533551;stroke-linecap:butt;stroke-linejoin:bevel;stroke-miterlimit:4;stroke-dasharray:2.65600656, 2.65600656;stroke-dashoffset:0;stroke-opacity:1;paint-order:markers stroke fill"
           id="path13532-2-5" />
        <path
           inkscape:connector-curvature="0"
           d="m 27.257404,62.05656 3.324489,-10e-7 -3.32449,4.986654 -3.324491,-4.986654 z m -1e-6,4.986654 3.32449,4.986654 -3.324489,-2e-6 -3.324492,2e-6 z"
           style="opacity:1;vector-effect:none;fill:#16502d;fill-opacity:1;stroke:none;stroke-width:0.88533551;stroke-linecap:butt;stroke-linejoin:bevel;stroke-miterlimit:4;stroke-dasharray:2.65600656, 2.65600656;stroke-dashoffset:0;stroke-opacity:1;paint-order:markers stroke fill"
           id="path13534-3-0" />
        <path
           inkscape:connector-curvature="0"
           d="m 33.906385,67.043213 v 4.986653 0 l -3.324491,10e-7 z m -13.297963,1e-6 3.32449,4.986654 -3.324489,-2e-6 z m 10e-7,-4.986654 3.32449,-2e-6 -3.32449,4.986655 z m 13.297962,0 v 0 l -10e-7,4.986653 -3.32449,-4.986655 z"
           style="opacity:1;vector-effect:none;fill:#19a974;fill-opacity:1;stroke:none;stroke-width:0.88533551;stroke-linecap:butt;stroke-linejoin:bevel;stroke-miterlimit:4;stroke-dasharray:2.65600653, 2.65600653;stroke-dashoffset:0;stroke-opacity:1;paint-order:markers stroke fill"
           id="path13536-5-1" />
        <path
           id="path13538-4-4"
           style="opacity:1;vector-effect:none;fill:#137752;fill-opacity:1;stroke:#000000;stroke-width:0.21277149;stroke-linecap:round;stroke-linejoin:miter;stroke-miterlimit:4;stroke-dasharray:0.2127715, 0.42554299;stroke-dashoffset:0;stroke-opacity:1"
           d="m 27.257401,71.922222 -6.541749,-9.758016 m 13.083499,9.758016 -6.541748,-9.758017 m 0,9.758017 6.541748,-9.758017 m -13.083499,9.758017 6.54175,-9.758017"
           inkscape:connector-curvature="0"
           sodipodi:nodetypes="cccccccc" />
      </g>
    </pattern>
    <marker
       inkscape:stockid="Arrow2Mend"
       orient="auto"
       refY="0"
       refX="0"
       id="Arrow2Mend-7"
       style="overflow:visible"
       inkscape:isstock="true">
      <path
         inkscape:connector-curvature="0"
         id="path6062-8"
         style="fill:#e7040f;fill-opacity:1;fill-rule:evenodd;stroke:#e7040f;stroke-width:0.625;stroke-linejoin:round;stroke-opacity:1"
         d="M 8.7185878,4.0337352 -2.2072895,0.01601326 8.7185884,-4.0017078 c -1.7454984,2.3720609 -1.7354408,5.6174519 -6e-7,8.035443 z"
         transform="scale(-0.6)" />
    </marker>
  </defs>
  <sodipodi:namedview
     id="base"
     pagecolor="#f4f4f4"
     bordercolor="#666666"
     borderopacity="1.0"
     inkscape:pageopacity="1"
     inkscape:pageshadow="2"
     inkscape:zoom="1.8101934"
     inkscape:cx="304.10605"
     inkscape:cy="57.674608"
     inkscape:document-units="px"
     inkscape:current-layer="g14707"
     showgrid="false"
     units="px"
     inkscape:object-paths="true"
     inkscape:snap-smooth-nodes="true"
     inkscape:window-width="1920"
     inkscape:window-height="1055"
     inkscape:window-x="1600"
     inkscape:window-y="25"
     inkscape:window-maximized="1"
     showguides="true"
     inkscape:guide-bbox="true"
     inkscape:pagecheckerboard="false"
     inkscape:snap-global="false"
     inkscape:showpageshadow="true"
     showborder="true"
     borderlayer="false"
     inkscape:snap-page="true">
    <sodipodi:guide
       inkscape:color="rgb(0,0,255)"
       inkscape:label=""
       inkscape:locked="false"
       id="guide818"
       orientation="1,0"
       position="146.86199,0" />
    <sodipodi:guide
       inkscape:color="rgb(0,0,255)"
       inkscape:label=""
       inkscape:locked="false"
       id="guide820"
       orientation="1,0"
       position="7.0556431,0" />
    <sodipodi:guide
       inkscape:color="rgb(0,0,255)"
       inkscape:label=""
       inkscape:locked="false"
       id="guide822"
       orientation="0,1"
       position="0,50.172933" />
    <sodipodi:guide
       inkscape:color="rgb(0,0,255)"
       inkscape:label=""
       inkscape:locked="false"
       id="guide922"
       orientation="0,1"
       position="0,7.0556431" />
  </sodipodi:namedview>
  <metadata
     id="metadata4620">
    <rdf:RDF>
      <cc:Work
         rdf:about="">
        <dc:format>image/svg+xml</dc:format>
        <dc:type
           rdf:resource="http://purl.org/dc/dcmitype/StillImage" />
        <dc:title />
      </cc:Work>
    </rdf:RDF>
  </metadata>
  <g
     inkscape:label="watermark"
     inkscape:groupmode="layer"
     id="layer1"
     transform="translate(5.1800203,-240.86796)"
     sodipodi:insensitive="true">
    <g
       id="g5353"
       transform="matrix(0.89623584,0,0,0.89623584,-1.2321384,28.09939)"
       style="stroke-width:1.11577785">
      <text
         xml:space="preserve"
         style="font-style:normal;font-variant:normal;font-weight:normal;font-stretch:normal;font-size:28.01556396px;line-height:1.29999995;font-family:Quicksand;-inkscape-font-specification:'Quicksand, Normal';font-variant-ligatures:normal;font-variant-position:normal;font-variant-caps:normal;font-variant-numeric:normal;font-variant-alternates:normal;font-feature-settings:normal;text-indent:0;text-align:center;text-decoration:none;text-decoration-line:none;text-decoration-style:solid;text-decoration-color:#000000;letter-spacing:0px;word-spacing:0px;text-transform:none;writing-mode:lr-tb;direction:ltr;text-orientation:mixed;dominant-baseline:auto;baseline-shift:baseline;text-anchor:middle;white-space:normal;shape-padding:0;opacity:1;vector-effect:none;fill:#555555;fill-opacity:1;stroke:none;stroke-width:3.17272329px;stroke-linecap:butt;stroke-linejoin:miter;stroke-miterlimit:4;stroke-dasharray:none;stroke-dashoffset:0;stroke-opacity:1"
         x="44.292774"
         y="218.67326"
         id="text2653"><tspan
           sodipodi:role="line"
           id="tspan2651"
           x="44.292774"
           y="245.28806"
           style="stroke-width:3.17272329px" /></text>
      <text
         xml:space="preserve"
         style="font-style:normal;font-variant:normal;font-weight:normal;font-stretch:normal;font-size:4.72345829px;line-height:1.25;font-family:Quicksand;-inkscape-font-specification:Quicksand;text-align:end;letter-spacing:0px;word-spacing:0px;text-anchor:end;fill:#d3d3d3;fill-opacity:1;stroke:none;stroke-width:0.29521614"
         x="167.17076"
         y="298.24545"
         id="text7806"><tspan
           sodipodi:role="line"
           id="tspan7804"
           x="167.17076"
           y="298.24545"
           style="font-size:4.72345829px;text-align:end;text-anchor:end;fill:#d3d3d3;stroke-width:0.29521614">Meer op: https://hoezithet.nu</tspan></text>
    </g>
  </g>
  <g
     inkscape:groupmode="layer"
     id="layer2"
     inkscape:label="Layer 1"
     transform="translate(5.1800203,-240.86796)" />
  <g
     id="g14707"
     transform="matrix(0.99842344,0,0,0.99842344,-63.287754,0.22724236)">
    <circle
       cx="86.90332"
       cy="9.1410055"
       r="4.068624"
       id="circle5724-9"
       style="fill:#000000;stroke-width:0.18082775" />
    <path
       style="opacity:1;vector-effect:none;fill:#000000;fill-opacity:1;stroke:none;stroke-width:0.35277775;stroke-linecap:round;stroke-linejoin:miter;stroke-miterlimit:4;stroke-dasharray:none;stroke-dashoffset:0;stroke-opacity:1"
       d="m 85.421135,14.22677 c 2.583821,0.05167 3.092782,3.168691 3.092782,7.656326 0,2.781459 0.989656,8.518396 -2.265959,8.518396 -3.255615,0 -4.650879,-4.030761 -4.650879,-7.906494 0,-3.875731 0.104092,-8.342626 3.824056,-8.268228 z"
       id="path11702"
       inkscape:connector-curvature="0"
       sodipodi:nodetypes="sssss" />
    <path
       style="opacity:1;vector-effect:none;fill:#000000;fill-opacity:1;stroke:#000000;stroke-width:4.26861048;stroke-linecap:round;stroke-linejoin:miter;stroke-miterlimit:4;stroke-dasharray:none;stroke-dashoffset:0;stroke-opacity:1"
       d="m 85.576161,28.179404 c 1.368896,4.962125 2.160474,7.344663 0.723472,18.24178"
       id="path11704"
       inkscape:connector-curvature="0"
       sodipodi:nodetypes="cc" />
    <path
       sodipodi:nodetypes="sssccs"
       style="opacity:1;fill:url(#pattern11803);fill-opacity:1;stroke-width:0.09790544"
       d="m 90.165945,29.185562 c 0.691392,-0.95111 2.445163,-4.580755 0.606437,-7.459988 -2.552417,-3.996793 -2.44211,-5.112242 -2.786142,-6.051838 -0.579536,-1.582792 -3.561154,-2.492372 -5.322107,-0.992396 -3.089835,2.663025 -1.862101,10.062048 -0.03257,14.781209 5.40653,1.752067 6.541675,1.088611 7.534374,-0.276987 z"
       id="path1528-3-0-7-1-2-9"
       inkscape:connector-curvature="0" />
    <g
       transform="matrix(0.90176266,0,0,0.90176266,-8.8551875,9.5018937)"
       id="g11979">
      <g
         style="fill:#000000"
         id="g11799"
         transform="matrix(0.09103112,0,0,0.09103112,108.43454,6.7337381)">
        <g
           id="g11773">
          <g
             id="g11771"
             i:extraneous="self">
            <g
               id="g11769">
              <path
                 id="path11743"
                 d="m 49.035,1.99 c 1.01,0 2.02,0 3.031,0 0.156,0.022 0.312,0.051 0.469,0.064 1.31,0.109 2.625,0.176 3.93,0.328 4.688,0.547 9.185,1.805 13.498,3.715 16.059,7.112 27.236,22.632 28.46,40.517 0.358,5.228 -0.083,10.381 -1.409,15.446 -5.143,19.643 -21.842,33.822 -42.05,35.727 -5.556,0.524 -11.04,0.08 -16.441,-1.312 C 18.599,91.341 4.162,73.988 2.683,53.415 2.638,52.782 2.587,52.149 2.539,51.516 c 0,-1.01 0,-2.02 0,-3.031 C 2.56,48.343 2.594,48.201 2.6,48.059 2.679,45.826 2.923,43.611 3.328,41.414 5.03,32.176 9.05,24.08 15.491,17.253 24.085,8.144 34.673,3.108 47.174,2.132 47.794,2.083 48.415,2.037 49.035,1.99 Z M 52.5,61.211 c 1.818,-0.093 3.634,-0.207 5.453,-0.267 0.66,-0.022 1.148,-0.273 1.532,-0.777 0.796,-1.045 1.595,-2.087 2.379,-3.14 1.641,-2.203 2.866,-4.655 4.128,-7.077 0.74,-1.419 1.341,-2.912 1.963,-4.389 0.362,-0.859 0.276,-1.689 -0.15,-2.561 -1.551,-3.176 -3.12,-6.341 -4.938,-9.374 -0.709,-1.183 -1.447,-2.35 -2.189,-3.513 -0.084,-0.132 -0.273,-0.265 -0.422,-0.277 -1.589,-0.13 -3.18,-0.219 -4.769,-0.351 -4.853,-0.402 -9.689,-0.22 -14.513,0.403 -0.277,0.036 -0.416,0.153 -0.541,0.379 -0.713,1.3 -1.402,2.614 -2.164,3.885 -1.423,2.374 -2.586,4.875 -3.668,7.415 -0.379,0.889 -0.676,1.813 -1.002,2.724 -0.138,0.384 -0.074,0.716 0.168,1.077 3.335,4.975 6.655,9.959 9.965,14.95 0.191,0.289 0.408,0.405 0.731,0.444 2.67,0.322 5.347,0.467 8.037,0.449 z m -0.801,2.567 c -3.138,-0.155 -5.327,-0.257 -7.516,-0.379 -0.316,-0.018 -0.507,0.081 -0.691,0.33 -0.694,0.94 -1.393,1.877 -2.118,2.793 -2.209,2.791 -4.434,5.571 -6.646,8.359 -0.33,0.416 -0.626,0.857 -0.945,1.282 -0.143,0.191 -0.145,0.362 -0.042,0.584 1.636,3.518 3.5,6.912 5.536,10.214 0.371,0.602 0.845,0.995 1.53,1.077 1.5,0.18 3.002,0.41 4.509,0.466 3.842,0.142 7.68,-0.02 11.489,-0.561 1.36,-0.193 2.705,-0.528 4.035,-0.882 0.415,-0.111 0.842,-0.427 1.117,-0.768 0.716,-0.886 1.409,-1.802 2.006,-2.771 1.35,-2.191 2.626,-4.427 3.953,-6.632 0.496,-0.823 0.467,-1.57 -0.067,-2.372 -2.428,-3.65 -4.942,-7.238 -7.634,-10.7 -0.204,-0.263 -0.418,-0.33 -0.741,-0.317 -2.906,0.115 -5.813,0.209 -7.775,0.277 z m -21.15,-45.82 c -3.193,-0.013 -6.314,0.522 -9.391,1.335 -0.203,0.054 -0.431,0.172 -0.558,0.332 -1.389,1.746 -2.805,3.474 -4.127,5.27 -2.301,3.124 -4.166,6.498 -5.585,10.115 -0.445,1.134 -0.476,2.259 0.034,3.366 1.21,2.626 2.449,5.238 3.658,7.865 0.167,0.364 0.373,0.382 0.712,0.302 1.769,-0.414 3.545,-0.801 5.315,-1.21 3.226,-0.746 6.488,-1.261 9.787,-1.521 0.475,-0.037 0.665,-0.2 0.818,-0.638 0.813,-2.331 1.694,-4.635 2.912,-6.795 1.121,-1.988 2.191,-4.007 3.355,-5.969 0.683,-1.151 0.684,-2.236 0.178,-3.439 C 36.363,23.897 34.681,21.045 32.806,18.3 32.687,18.126 32.401,17.993 32.182,17.975 31.64,17.927 31.093,17.958 30.549,17.958 Z m 37.444,-0.073 c -1.919,2.93 -3.53,6.017 -4.821,9.274 -0.347,0.874 -0.331,1.654 0.179,2.488 1.44,2.355 2.827,4.743 4.223,7.125 1.262,2.154 2.45,4.348 3.345,6.685 0.109,0.285 0.254,0.432 0.545,0.481 1.857,0.316 3.708,0.666 5.57,0.951 2.047,0.314 4.103,0.563 6.153,0.858 0.43,0.062 0.719,-0.116 0.963,-0.417 0.317,-0.392 0.613,-0.801 0.928,-1.196 1.241,-1.558 2.521,-3.086 3.712,-4.682 0.492,-0.66 0.829,-1.446 1.169,-2.205 0.131,-0.293 0.183,-0.709 0.081,-1.003 C 89.469,34.59 88.956,32.9 88.2,31.331 87.286,29.435 86.19,27.621 85.095,25.819 83.769,23.638 82.278,21.575 80.53,19.697 79.044,18.1 77.161,17.559 75.092,17.452 74.124,17.403 68.213,17.549 67.993,17.885 Z M 85.822,68.26 c -0.188,0.175 -0.345,0.318 -0.498,0.465 -2.356,2.262 -5.063,3.988 -8.074,5.236 -1.702,0.706 -3.401,1.449 -5.237,1.737 -0.646,0.101 -0.958,0.438 -1.201,0.99 -1.739,3.954 -3.886,7.665 -6.617,11.026 -0.167,0.205 -0.292,0.443 -0.446,0.659 -0.159,0.224 -0.118,0.391 0.077,0.585 0.915,0.907 1.839,1.808 2.714,2.753 0.41,0.443 0.811,0.525 1.331,0.275 1.923,-0.926 3.918,-1.724 5.76,-2.79 6.892,-3.99 12.145,-9.653 16.341,-16.352 0.35,-0.558 0.605,-1.178 0.877,-1.781 0.04,-0.088 -0.042,-0.318 -0.129,-0.362 -1.621,-0.822 -3.25,-1.624 -4.898,-2.441 z M 37.541,89.136 C 37.499,89.047 37.48,88.997 37.453,88.951 35.172,85.195 32.954,81.404 31.12,77.404 c -0.23,-0.502 -0.578,-0.686 -1.081,-0.771 -3.356,-0.569 -6.503,-1.724 -9.47,-3.387 -1.704,-0.955 -3.214,-2.164 -4.62,-3.508 -0.271,-0.259 -0.512,-0.296 -0.839,-0.12 -1.169,0.628 -2.353,1.226 -3.519,1.86 -0.902,0.49 -0.915,0.52 -0.371,1.423 1.919,3.186 4.118,6.161 6.747,8.802 2.014,2.023 4.331,3.676 6.633,5.346 2.356,1.709 4.77,3.328 7.439,4.522 0.556,0.248 1.135,0.445 1.702,0.667 0.231,0.091 0.369,0.008 0.542,-0.171 0.562,-0.58 1.145,-1.141 1.744,-1.682 0.479,-0.433 0.996,-0.826 1.514,-1.249 z M 96.348,49.514 c 0.037,-0.003 -0.143,-4.064 -0.366,-6.08 -0.131,-1.181 -0.438,-2.345 -0.701,-3.509 -0.141,-0.62 -2.329,-1.113 -2.882,-1.184 -0.245,-0.031 -0.389,0.032 -0.511,0.252 -0.476,0.859 -0.985,1.7 -1.454,2.563 -0.679,1.252 -3.508,4.715 -4.068,5.319 -0.103,0.111 -0.184,0.337 -0.145,0.473 0.865,3.039 1.341,6.135 1.559,9.289 0.145,2.094 -0.02,4.167 -0.128,6.245 -0.05,0.952 -0.234,1.897 -0.338,2.847 -0.012,0.112 0.06,0.302 0.148,0.346 1.423,0.714 2.841,1.439 4.289,2.101 0.862,0.394 0.744,0.42 1.131,-0.418 1.241,-2.684 2.203,-5.46 2.601,-8.408 0.44,-3.265 0.821,-6.535 0.865,-9.836 z M 8.463,39.213 C 7.762,39.404 7.131,39.56 6.513,39.756 6.389,39.795 6.259,39.969 6.224,40.105 6.125,40.489 6.082,40.888 6.003,41.278 5.331,44.581 5,47.916 5.063,51.29 c 0.05,2.68 0.447,5.316 0.995,7.931 0.631,3.017 1.421,5.989 2.706,8.806 0.229,0.502 0.521,0.976 0.793,1.481 0.183,-0.087 0.302,-0.139 0.418,-0.199 1.216,-0.623 2.428,-1.256 3.651,-1.865 0.273,-0.136 0.369,-0.293 0.3,-0.586 -0.175,-0.749 -0.315,-1.507 -0.509,-2.25 -0.689,-2.64 -1.205,-5.303 -1.242,-8.046 -0.033,-2.412 0.187,-4.802 0.539,-7.183 0.079,-0.536 0.037,-1.021 -0.232,-1.495 C 12.058,47.136 11.613,46.395 11.249,45.618 10.653,44.346 10.111,43.047 9.552,41.758 9.188,40.92 8.833,40.079 8.463,39.213 Z M 49.308,4.517 c -0.165,0 -0.296,-0.004 -0.425,10e-4 -0.875,0.035 -1.75,0.062 -2.624,0.11 -2.319,0.125 -4.582,0.575 -6.792,1.265 -2.815,0.88 -5.525,2.037 -8.19,3.292 -3.171,1.494 -6.332,3.013 -9.084,5.233 -0.555,0.448 -1.08,0.941 -1.575,1.455 -0.202,0.21 -0.289,0.531 -0.428,0.801 0.034,0.043 0.068,0.087 0.101,0.13 0.892,-0.112 1.788,-0.199 2.675,-0.34 3.013,-0.48 6.002,-1.15 9.079,-1.102 0.632,0.01 1.178,-0.202 1.669,-0.63 C 36.136,12.624 38.81,10.909 41.8,9.724 44.216,8.767 46.655,7.869 49.081,6.938 49.199,6.893 49.382,6.78 49.381,6.7 49.377,5.986 49.338,5.272 49.308,4.517 Z m 28.919,10.737 c 0.075,-0.413 0.169,-0.775 0.196,-1.142 0.012,-0.164 -0.061,-0.405 -0.182,-0.498 C 77.126,12.757 76.036,11.857 74.856,11.096 70.443,8.25 65.597,6.456 60.486,5.345 57.779,4.757 55.044,4.403 52.266,4.474 52.048,4.48 51.831,4.507 51.57,4.529 c 0,0.796 0,1.538 0,2.317 0.134,0.048 0.307,0.106 0.478,0.173 2.657,1.032 5.335,2.016 7.965,3.113 2.113,0.881 4.163,1.947 5.786,3.593 0.81,0.822 1.644,1.073 2.702,0.91 0.052,-0.008 0.106,-0.009 0.159,-0.012 2.38,-0.124 4.754,-0.092 7.116,0.273 0.797,0.121 1.598,0.233 2.451,0.358 z"
                 inkscape:connector-curvature="0" />
              <path
                 id="path11745"
                 d="m -11,47.528 c 0.048,0.633 0.098,1.266 0.144,1.899 C -9.378,70 5.059,87.354 24.983,92.488 30.384,93.88 35.868,94.324 41.424,93.8 61.631,91.895 78.33,77.716 83.474,58.073 84.8,53.008 85.241,47.855 84.883,42.627 83.659,24.741 72.482,9.221 56.423,2.109 52.11,0.199 47.613,-1.059 42.925,-1.606 c -1.305,-0.152 -2.62,-0.219 -3.93,-0.328 -0.157,-0.013 -0.313,-0.042 -0.469,-0.064 15.523,0 31.046,0 46.572,0 0,32.027 0,64.054 0,96.091 -32.03,0 -64.064,0 -96.097,0 C -11,78.574 -11,63.051 -11,47.528 Z"
                 display="none"
                 inkscape:connector-curvature="0"
                 style="display:none;fill:#000000" />
              <path
                 id="path11747"
                 d="m 35.495,-1.997 c -0.62,0.047 -1.241,0.093 -1.861,0.141 C 21.133,-0.88 10.545,4.156 1.951,13.266 -4.49,20.092 -8.51,28.189 -10.212,37.426 c -0.405,2.197 -0.649,4.412 -0.728,6.645 -0.005,0.143 -0.04,0.284 -0.061,0.426 0,-15.498 0,-30.997 0,-46.495 15.499,10e-4 30.998,10e-4 46.496,10e-4 z"
                 display="none"
                 inkscape:connector-curvature="0"
                 style="display:none;fill:#000000" />
              <path
                 id="path11749"
                 d="m 38.96,57.224 c -2.69,0.018 -5.367,-0.127 -8.035,-0.45 -0.323,-0.039 -0.54,-0.155 -0.731,-0.444 -3.31,-4.991 -6.63,-9.975 -9.965,-14.95 -0.242,-0.361 -0.306,-0.693 -0.168,-1.077 0.326,-0.911 0.623,-1.835 1.002,-2.724 1.082,-2.54 2.245,-5.04 3.668,-7.415 0.762,-1.271 1.451,-2.585 2.164,-3.885 0.124,-0.227 0.264,-0.344 0.541,-0.379 4.825,-0.623 9.66,-0.805 14.513,-0.403 1.588,0.131 3.18,0.221 4.769,0.351 0.15,0.012 0.338,0.145 0.422,0.277 0.742,1.163 1.479,2.33 2.189,3.513 1.818,3.034 3.386,6.199 4.938,9.374 0.426,0.872 0.511,1.702 0.15,2.561 -0.622,1.477 -1.224,2.97 -1.963,4.389 -1.263,2.422 -2.487,4.874 -4.128,7.077 -0.785,1.053 -1.584,2.096 -2.379,3.14 -0.384,0.504 -0.872,0.755 -1.532,0.777 -1.821,0.061 -3.637,0.175 -5.455,0.268 z"
                 display="none"
                 inkscape:connector-curvature="0"
                 style="display:none;fill:#000000" />
              <path
                 id="path11751"
                 d="m 38.159,59.791 c 1.962,-0.068 4.869,-0.162 7.775,-0.276 0.323,-0.013 0.537,0.054 0.741,0.317 2.691,3.462 5.206,7.049 7.634,10.7 0.534,0.802 0.562,1.549 0.067,2.372 -1.327,2.205 -2.603,4.441 -3.953,6.632 -0.597,0.969 -1.29,1.885 -2.006,2.771 -0.275,0.341 -0.702,0.657 -1.117,0.768 -1.33,0.354 -2.674,0.689 -4.035,0.882 -3.809,0.541 -7.646,0.704 -11.489,0.561 -1.507,-0.056 -3.008,-0.285 -4.509,-0.466 -0.684,-0.082 -1.158,-0.476 -1.53,-1.077 -2.037,-3.302 -3.9,-6.696 -5.536,-10.214 -0.103,-0.222 -0.101,-0.393 0.042,-0.584 0.318,-0.425 0.615,-0.867 0.945,-1.282 2.213,-2.788 4.437,-5.568 6.646,-8.359 0.725,-0.916 1.424,-1.853 2.118,-2.793 0.184,-0.249 0.375,-0.348 0.691,-0.33 2.189,0.12 4.379,0.222 7.516,0.378 z"
                 display="none"
                 inkscape:connector-curvature="0"
                 style="display:none;fill:#000000" />
              <path
                 id="path11753"
                 d="m 17.009,13.97 c 0.544,0 1.092,-0.031 1.632,0.015 0.22,0.019 0.505,0.151 0.624,0.325 1.875,2.744 3.557,5.597 4.851,8.671 0.506,1.203 0.505,2.288 -0.178,3.439 -1.164,1.963 -2.234,3.981 -3.355,5.969 -1.218,2.16 -2.099,4.464 -2.912,6.795 -0.153,0.438 -0.344,0.601 -0.818,0.638 -3.299,0.26 -6.562,0.775 -9.787,1.521 -1.77,0.41 -3.546,0.796 -5.315,1.21 -0.338,0.079 -0.544,0.061 -0.712,-0.302 -1.209,-2.626 -2.448,-5.239 -3.658,-7.865 -0.51,-1.106 -0.479,-2.232 -0.034,-3.366 1.42,-3.617 3.284,-6.991 5.585,-10.115 1.323,-1.796 2.738,-3.524 4.127,-5.27 0.127,-0.16 0.355,-0.278 0.558,-0.332 3.078,-0.811 6.198,-1.345 9.392,-1.333 z"
                 display="none"
                 inkscape:connector-curvature="0"
                 style="display:none;fill:#000000" />
              <path
                 id="path11755"
                 d="m 58.642,13.456 c 0.97,0 1.942,-0.041 2.909,0.009 2.069,0.107 3.952,0.648 5.438,2.245 1.748,1.878 3.239,3.941 4.565,6.122 1.095,1.802 2.191,3.616 3.105,5.512 0.757,1.57 1.269,3.26 1.84,4.913 0.102,0.294 0.05,0.71 -0.081,1.003 -0.339,0.759 -0.676,1.545 -1.169,2.205 -1.191,1.595 -2.471,3.124 -3.712,4.682 -0.314,0.395 -0.61,0.804 -0.928,1.196 -0.244,0.301 -0.533,0.479 -0.963,0.417 -2.05,-0.295 -4.106,-0.544 -6.153,-0.858 -1.862,-0.285 -3.713,-0.636 -5.57,-0.951 -0.291,-0.049 -0.436,-0.196 -0.545,-0.481 -0.895,-2.337 -2.083,-4.531 -3.345,-6.685 -1.396,-2.382 -2.783,-4.77 -4.223,-7.125 -0.51,-0.834 -0.526,-1.614 -0.179,-2.488 1.291,-3.257 2.902,-6.344 4.821,-9.274 0.22,-0.335 0.481,-0.486 0.881,-0.481 1.103,0.015 2.205,0.005 3.308,0.005 0.001,0.011 0.001,0.023 0.001,0.034 z"
                 display="none"
                 inkscape:connector-curvature="0"
                 style="display:none;fill:#000000" />
              <path
                 id="path11757"
                 d="m 72.282,64.273 c 1.647,0.816 3.277,1.619 4.897,2.44 0.087,0.044 0.169,0.274 0.129,0.362 -0.271,0.604 -0.527,1.223 -0.877,1.781 -4.196,6.699 -9.449,12.362 -16.341,16.352 -1.841,1.066 -3.837,1.865 -5.76,2.79 -0.52,0.25 -0.921,0.168 -1.331,-0.275 -0.876,-0.945 -1.799,-1.846 -2.714,-2.753 -0.195,-0.193 -0.236,-0.361 -0.077,-0.585 0.154,-0.216 0.279,-0.454 0.446,-0.659 2.731,-3.36 4.878,-7.072 6.617,-11.026 0.243,-0.552 0.555,-0.889 1.201,-0.99 1.836,-0.288 3.534,-1.031 5.237,-1.737 3.011,-1.248 5.717,-2.975 8.074,-5.236 0.155,-0.146 0.312,-0.289 0.499,-0.464 z"
                 display="none"
                 inkscape:connector-curvature="0"
                 style="display:none;fill:#000000" />
              <path
                 id="path11759"
                 d="m 24.001,85.148 c -0.517,0.424 -1.035,0.816 -1.515,1.249 -0.6,0.541 -1.183,1.102 -1.744,1.682 C 20.569,88.257 20.431,88.34 20.2,88.25 19.633,88.027 19.054,87.831 18.498,87.583 15.829,86.389 13.415,84.77 11.059,83.061 8.758,81.392 6.44,79.739 4.426,77.715 1.798,75.074 -0.402,72.099 -2.321,68.913 -2.865,68.01 -2.851,67.981 -1.95,67.49 c 1.165,-0.634 2.35,-1.232 3.519,-1.86 0.327,-0.176 0.568,-0.139 0.839,0.12 1.406,1.344 2.916,2.553 4.62,3.508 2.967,1.663 6.115,2.818 9.47,3.387 0.503,0.085 0.851,0.269 1.081,0.771 1.834,4 4.052,7.791 6.333,11.547 0.028,0.045 0.047,0.096 0.089,0.185 z"
                 display="none"
                 inkscape:connector-curvature="0"
                 style="display:none;fill:#000000" />
              <path
                 id="path11761"
                 d="m 82.808,45.527 c -0.043,3.3 -0.424,6.571 -0.866,9.837 -0.399,2.949 -1.36,5.724 -2.601,8.408 -0.387,0.837 -0.269,0.812 -1.131,0.418 -1.447,-0.662 -2.866,-1.387 -4.289,-2.101 -0.088,-0.044 -0.161,-0.234 -0.148,-0.346 0.105,-0.95 0.288,-1.895 0.338,-2.847 0.108,-2.079 0.273,-4.152 0.128,-6.245 -0.218,-3.154 -0.694,-6.25 -1.559,-9.289 -0.039,-0.136 0.042,-0.362 0.145,-0.473 0.56,-0.603 1.165,-1.165 1.716,-1.776 0.959,-1.062 1.672,-2.291 2.352,-3.543 0.468,-0.863 0.977,-1.704 1.454,-2.563 0.122,-0.221 0.267,-0.284 0.511,-0.252 0.553,0.07 1.109,0.121 1.665,0.164 0.655,0.05 1.076,0.4 1.217,1.02 0.264,1.164 0.57,2.328 0.701,3.509 0.224,2.017 0.325,4.047 0.478,6.071 -0.037,0.002 -0.074,0.005 -0.111,0.008 z"
                 display="none"
                 inkscape:connector-curvature="0"
                 style="display:none;fill:#000000" />
              <path
                 id="path11763"
                 d="m -5.077,35.225 c 0.37,0.866 0.725,1.708 1.089,2.545 0.56,1.289 1.101,2.588 1.697,3.86 0.364,0.777 0.809,1.518 1.233,2.266 0.269,0.474 0.312,0.959 0.232,1.495 -0.352,2.38 -0.572,4.771 -0.539,7.183 0.037,2.743 0.554,5.406 1.242,8.046 0.194,0.744 0.334,1.501 0.509,2.25 0.068,0.293 -0.027,0.45 -0.3,0.586 -1.223,0.609 -2.435,1.241 -3.651,1.865 -0.116,0.059 -0.235,0.112 -0.418,0.199 -0.273,-0.505 -0.564,-0.979 -0.793,-1.481 -1.285,-2.816 -2.075,-5.789 -2.706,-8.806 -0.547,-2.615 -0.945,-5.25 -0.995,-7.931 -0.063,-3.374 0.268,-6.709 0.939,-10.013 0.079,-0.39 0.122,-0.788 0.221,-1.173 0.035,-0.136 0.165,-0.31 0.289,-0.349 0.619,-0.195 1.25,-0.351 1.951,-0.542 z"
                 display="none"
                 inkscape:connector-curvature="0"
                 style="display:none;fill:#000000" />
              <path
                 id="path11765"
                 d="m 35.768,0.53 c 0.03,0.755 0.069,1.469 0.073,2.183 0,0.08 -0.182,0.193 -0.3,0.238 -2.426,0.931 -4.865,1.829 -7.281,2.786 -2.991,1.184 -5.664,2.9 -8.086,5.008 -0.492,0.428 -1.037,0.64 -1.669,0.63 -3.078,-0.048 -6.066,0.622 -9.079,1.102 -0.887,0.141 -1.783,0.228 -2.675,0.34 -0.034,-0.043 -0.068,-0.087 -0.101,-0.13 0.139,-0.27 0.226,-0.591 0.428,-0.801 0.495,-0.514 1.02,-1.007 1.575,-1.455 2.752,-2.22 5.913,-3.739 9.084,-5.233 2.665,-1.256 5.375,-2.413 8.19,-3.292 2.21,-0.69 4.473,-1.14 6.792,-1.265 0.874,-0.047 1.749,-0.075 2.624,-0.11 0.129,-0.006 0.259,-0.001 0.425,-0.001 z"
                 display="none"
                 inkscape:connector-curvature="0"
                 style="display:none;fill:#000000" />
              <path
                 id="path11767"
                 d="m 64.688,11.266 c -0.854,-0.125 -1.654,-0.237 -2.452,-0.36 -2.362,-0.365 -4.735,-0.397 -7.116,-0.273 -0.053,0.003 -0.107,0.004 -0.159,0.012 -1.058,0.164 -1.892,-0.087 -2.702,-0.91 C 50.637,8.089 48.586,7.024 46.473,6.142 43.843,5.045 41.166,4.061 38.508,3.029 38.337,2.963 38.164,2.904 38.03,2.856 c 0,-0.78 0,-1.521 0,-2.317 0.261,-0.021 0.478,-0.049 0.696,-0.055 2.778,-0.071 5.513,0.283 8.22,0.871 5.111,1.111 9.957,2.905 14.37,5.751 1.179,0.761 2.27,1.661 3.385,2.518 0.121,0.093 0.193,0.334 0.182,0.498 -0.026,0.369 -0.12,0.731 -0.195,1.144 z"
                 display="none"
                 inkscape:connector-curvature="0"
                 style="display:none;fill:#000000" />
            </g>
          </g>
        </g>
      </g>
      <path
         style="opacity:1;vector-effect:none;fill:#f4f4f4;fill-opacity:1;stroke:none;stroke-width:0.75045455;stroke-linecap:butt;stroke-linejoin:round;stroke-miterlimit:4;stroke-dasharray:none;stroke-dashoffset:0;stroke-opacity:1;paint-order:markers stroke fill"
         d="m 113.19273,7.1406557 c -0.0198,5.463e-4 -0.0398,0.00316 -0.0636,0.00517 v 0.2108398 c 0.0122,0.00437 0.0279,0.00992 0.0434,0.01602 0.24188,0.093944 0.48561,0.1833258 0.72503,0.283187 0.19235,0.080198 0.37934,0.1772745 0.52709,0.3271117 0.0737,0.074828 0.14967,0.09752 0.24598,0.082682 0.005,-7.281e-4 0.01,-7.628e-4 0.0145,-0.00103 0.21665,-0.011288 0.4325,-0.00842 0.64751,0.024805 0.0726,0.011015 0.14559,0.021177 0.22324,0.032556 0.007,-0.037596 0.0157,-0.070461 0.0181,-0.1038695 10e-4,-0.014929 -0.006,-0.03701 -0.0165,-0.045475 -0.1015,-0.078014 -0.2011,-0.1596517 -0.30851,-0.2289265 -0.40172,-0.2590747 -0.84267,-0.4223466 -1.30793,-0.5234823 -0.24642,-0.053526 -0.49538,-0.086045 -0.74827,-0.079582 z m -0.30799,0.00413 c -0.0796,0.00319 -0.15919,0.00545 -0.23875,0.00982 -0.2111,0.011379 -0.4174,0.052427 -0.61856,0.1152385 -0.25627,0.080107 -0.50258,0.1854792 -0.74518,0.2997234 -0.28866,0.1360006 -0.5763,0.2743676 -0.82682,0.4764566 -0.0505,0.040782 -0.0986,0.085501 -0.14366,0.1322917 -0.0184,0.019117 -0.0261,0.048286 -0.0388,0.072864 0.003,0.00391 0.006,0.00797 0.009,0.011886 0.0812,-0.010195 0.16266,-0.018171 0.2434,-0.031006 0.27428,-0.043695 0.54672,-0.1046218 0.82682,-0.1002522 0.0575,9.102e-4 0.10724,-0.018399 0.15193,-0.057361 0.22048,-0.1918936 0.4637,-0.3479141 0.73587,-0.4557861 0.21993,-0.087117 0.44217,-0.1689814 0.66301,-0.2537314 0.0107,-0.0041 0.027,-0.014422 0.0269,-0.021704 -3.7e-4,-0.064996 -0.004,-0.1297091 -0.007,-0.1984375 -0.0147,-9.3e-6 -0.0266,-4.49e-4 -0.0382,0 z m 2.38538,1.1771891 c -0.0881,-0.0045 -0.62593,0.00917 -0.64595,0.039791 -0.1747,0.2667222 -0.32122,0.5473882 -0.43874,0.8438763 -0.0316,0.07956 -0.0299,0.1509395 0.0165,0.2268595 0.13109,0.2143789 0.25739,0.431703 0.38447,0.6485404 0.11488,0.196081 0.2229,0.395492 0.30437,0.608232 0.01,0.02594 0.0231,0.03946 0.0496,0.04392 0.16904,0.02877 0.33745,0.06088 0.50695,0.08682 0.18634,0.02858 0.37355,0.05118 0.56017,0.07803 0.0391,0.0056 0.0656,-0.01084 0.0879,-0.03824 0.0289,-0.03568 0.0555,-0.07257 0.0842,-0.108521 0.11297,-0.141826 0.22955,-0.281044 0.33796,-0.42633 0.0448,-0.06008 0.0755,-0.131929 0.10645,-0.201021 0.0119,-0.02667 0.0169,-0.06419 0.007,-0.09095 -0.052,-0.1505671 -0.0991,-0.3046916 -0.16795,-0.4475197 -0.0832,-0.1725949 -0.18247,-0.3377401 -0.28216,-0.501778 -0.12069,-0.1985391 -0.25687,-0.386116 -0.41599,-0.557072 -0.13528,-0.1453769 -0.30672,-0.1948987 -0.49506,-0.2046385 z m -4.05453,0.046509 c -0.29048,-0.00114 -0.5748,0.047477 -0.85473,0.1214398 -0.0185,0.0049 -0.039,0.015412 -0.0506,0.029972 -0.12644,0.15894 -0.25535,0.3165819 -0.37569,0.480074 -0.20947,0.284381 -0.37933,0.5910969 -0.5085,0.9203575 -0.0405,0.1032309 -0.0432,0.2056709 0.003,0.3064429 0.11015,0.239048 0.22275,0.477096 0.3328,0.716235 0.0152,0.03313 0.0343,0.03467 0.0651,0.02739 0.16103,-0.03769 0.32256,-0.07284 0.48369,-0.110071 0.29366,-0.06791 0.59059,-0.114825 0.8909,-0.138493 0.0432,-0.0034 0.0604,-0.01801 0.0744,-0.05788 0.074,-0.212193 0.15422,-0.42194 0.2651,-0.618567 0.10204,-0.1809714 0.19945,-0.3650344 0.30541,-0.5436374 0.0622,-0.1047768 0.0621,-0.2036482 0.016,-0.3131592 -0.1178,-0.2798289 -0.27064,-0.5392189 -0.44132,-0.7890988 -0.0108,-0.01584 -0.0369,-0.027826 -0.0568,-0.029456 -0.0491,-0.00438 -0.0989,-0.00157 -0.14832,-0.00155 z m 1.93941,1.0314616 c -0.33077,-0.00812 -0.66077,0.01172 -0.99012,0.05426 -0.0252,0.0033 -0.0377,0.014053 -0.0491,0.034623 -0.0649,0.1183399 -0.12803,0.2377667 -0.1974,0.3534669 -0.12954,0.2161097 -0.23534,0.4436767 -0.33383,0.6748957 -0.0345,0.08093 -0.0613,0.165118 -0.091,0.248047 -0.0126,0.03496 -0.007,0.06532 0.015,0.09819 0.30359,0.452879 0.60613,0.906821 0.90744,1.361158 0.0174,0.02631 0.0373,0.03676 0.0667,0.04031 0.24305,0.02931 0.48636,0.04246 0.73123,0.04082 0.16549,-0.0085 0.33102,-0.01882 0.4966,-0.02429 0.0601,-0.002 0.10457,-0.02492 0.13953,-0.0708 0.0725,-0.09513 0.14516,-0.189915 0.21653,-0.285771 0.14938,-0.200541 0.26079,-0.423927 0.37568,-0.644405 0.0674,-0.129173 0.12218,-0.265006 0.1788,-0.399459 0.0329,-0.0782 0.0248,-0.153681 -0.0139,-0.23306 -0.14119,-0.289116 -0.28357,-0.57708 -0.44907,-0.8531802 -0.0645,-0.1076899 -0.13193,-0.2140079 -0.19947,-0.319877 -0.008,-0.01202 -0.0247,-0.024221 -0.0382,-0.025321 -0.14465,-0.01183 -0.28943,-0.020029 -0.43408,-0.032039 -0.11044,-0.00915 -0.22099,-0.014863 -0.33125,-0.01757 z m 3.69125,0.8604136 c -0.0223,-0.0028 -0.0354,0.0027 -0.0465,0.02274 -0.0433,0.0782 -0.0896,0.154502 -0.13229,0.233062 -0.0618,0.113971 -0.31954,0.429226 -0.37052,0.484208 -0.009,0.0101 -0.0164,0.03103 -0.0129,0.04341 0.0787,0.276644 0.12176,0.558314 0.14159,0.845427 0.0132,0.190619 -0.002,0.379277 -0.0114,0.56844 -0.005,0.08666 -0.0215,0.172937 -0.031,0.259416 -10e-4,0.0102 0.005,0.02751 0.0134,0.03152 0.12954,0.065 0.25885,0.13094 0.39067,0.191202 0.0785,0.03587 0.0676,0.03804 0.10284,-0.03824 0.11297,-0.244327 0.20044,-0.496969 0.23667,-0.765328 0.0401,-0.297217 0.0746,-0.59506 0.0786,-0.895553 0.003,-2.74e-4 -0.0128,-0.369935 -0.0331,-0.553454 -0.0119,-0.107507 -0.0397,-0.2134 -0.0636,-0.319361 -0.0128,-0.05644 -0.21218,-0.101023 -0.26252,-0.107487 z m -7.64088,0.04289 c -0.0638,0.01739 -0.12151,0.03125 -0.17776,0.04909 -0.0113,0.0035 -0.0226,0.01966 -0.0258,0.03204 -0.009,0.03496 -0.013,0.07095 -0.0202,0.106453 -0.0612,0.300676 -0.0915,0.604434 -0.0858,0.911573 0.005,0.243963 0.0405,0.483872 0.0904,0.721919 0.0574,0.274641 0.12951,0.545067 0.24649,0.801501 0.0208,0.0457 0.0476,0.08891 0.0724,0.134876 0.0167,-0.0079 0.0271,-0.01263 0.0377,-0.01809 0.11069,-0.05671 0.22147,-0.11406 0.3328,-0.169498 0.0249,-0.01238 0.0332,-0.02655 0.0269,-0.05323 -0.0159,-0.06818 -0.0284,-0.13752 -0.046,-0.205156 -0.0627,-0.240321 -0.1098,-0.482556 -0.11317,-0.732255 -0.003,-0.219566 0.017,-0.437478 0.0491,-0.654223 0.007,-0.04879 0.003,-0.09276 -0.0212,-0.135909 -0.0386,-0.06809 -0.079,-0.135457 -0.11214,-0.206189 -0.0543,-0.115791 -0.10362,-0.234061 -0.15451,-0.3514 -0.0331,-0.07628 -0.0655,-0.152677 -0.0992,-0.23151 z m 3.25148,2.201417 c -0.0288,-0.0016 -0.0457,0.0073 -0.0625,0.02997 -0.0632,0.08557 -0.12727,0.170863 -0.19327,0.254248 -0.20109,0.254068 -0.40326,0.507399 -0.60462,0.761194 -0.03,0.03787 -0.0573,0.0781 -0.0863,0.116789 -0.013,0.01739 -0.0128,0.03302 -0.004,0.05323 0.14893,0.320248 0.3185,0.629074 0.50384,0.929659 0.0338,0.0548 0.0766,0.09072 0.13901,0.09818 0.13654,0.01639 0.27364,0.03728 0.41083,0.04237 0.34974,0.01293 0.69868,-0.0019 1.04541,-0.05116 0.12381,-0.01757 0.24635,-0.04838 0.36742,-0.08061 0.0378,-0.0101 0.0768,-0.03872 0.10181,-0.06976 0.0652,-0.08065 0.12807,-0.163972 0.18241,-0.252181 0.1229,-0.199449 0.23939,-0.402858 0.36019,-0.603581 0.0452,-0.07492 0.0423,-0.143 -0.006,-0.216007 -0.22102,-0.332264 -0.45,-0.658952 -0.69505,-0.974101 -0.0186,-0.02394 -0.0377,-0.03012 -0.0672,-0.02894 -0.26453,0.01047 -0.52937,0.01913 -0.70797,0.02532 -0.28566,-0.01411 -0.48492,-0.02351 -0.6842,-0.03462 z m 3.79047,0.44235 c -0.0171,0.01593 -0.0311,0.029 -0.045,0.04237 -0.21447,0.205913 -0.46125,0.363367 -0.73535,0.476973 -0.15493,0.06427 -0.30932,0.131913 -0.47646,0.15813 -0.0588,0.0092 -0.0874,0.03967 -0.10955,0.08992 -0.15831,0.359937 -0.35342,0.697601 -0.60203,1.003556 -0.0152,0.01866 -0.0268,0.0408 -0.0408,0.06046 -0.0145,0.02039 -0.011,0.03557 0.007,0.05323 0.0833,0.08256 0.16788,0.164606 0.24753,0.250631 0.0373,0.04033 0.0736,0.04756 0.12092,0.0248 0.17506,-0.0843 0.35684,-0.157208 0.52452,-0.254248 0.62739,-0.363214 1.10529,-0.878465 1.48725,-1.488281 0.0319,-0.0508 0.0554,-0.107373 0.0801,-0.162265 0.004,-0.008 -0.004,-0.02907 -0.0119,-0.03307 -0.14756,-0.07483 -0.29595,-0.147836 -0.44597,-0.222208 z m -6.39702,0.114722 c -0.0123,-0.0018 -0.0249,0.0013 -0.0398,0.0093 -0.10642,0.05717 -0.21426,0.111268 -0.3204,0.168982 -0.0821,0.0446 -0.0831,0.04751 -0.0336,0.129708 0.17469,0.290026 0.3746,0.561088 0.61392,0.801502 0.18333,0.184155 0.39454,0.334253 0.60409,0.486275 0.21447,0.155572 0.434,0.30317 0.67697,0.411861 0.0506,0.02258 0.10341,0.04025 0.15503,0.06046 0.021,0.0083 0.0334,7.95e-4 0.0491,-0.0155 0.0512,-0.0528 0.10411,-0.103714 0.15864,-0.152962 0.0436,-0.03942 0.0909,-0.07518 0.13798,-0.113688 -0.004,-0.0081 -0.006,-0.01286 -0.008,-0.01705 -0.20764,-0.341913 -0.40976,-0.686975 -0.57671,-1.051099 -0.0209,-0.0457 -0.0524,-0.06254 -0.0982,-0.07028 -0.3055,-0.0518 -0.59188,-0.156606 -0.86197,-0.307991 -0.15512,-0.08694 -0.29265,-0.197015 -0.42064,-0.319361 -0.0124,-0.01179 -0.0244,-0.01837 -0.0367,-0.02015 z"
         id="path11899"
         inkscape:connector-curvature="0" />
    </g>
    <path
       inkscape:connector-curvature="0"
       id="path6717-6"
       d="m 84.910156,15.595703 a 1.4978403,1.4978403 0 0 0 -1.330078,2.113281 c 1.322011,3.047293 1.929272,5.110801 3.570313,6.56836 0.82052,0.728779 1.894724,1.163531 3.08789,1.308594 1.193166,0.145062 2.538093,0.06107 4.251953,-0.15625 a 1.4978403,1.4978403 0 1 0 -0.376953,-2.970704 c -1.603198,0.203287 -2.750652,0.247064 -3.513672,0.154297 -0.763019,-0.09277 -1.108624,-0.261297 -1.460937,-0.574219 -0.704627,-0.625843 -1.455162,-2.399214 -2.810547,-5.523437 a 1.4978403,1.4978403 0 0 0 -1.417969,-0.919922 z"
       style="color:#000000;font-style:normal;font-variant:normal;font-weight:normal;font-stretch:normal;font-size:medium;line-height:normal;font-family:sans-serif;font-variant-ligatures:normal;font-variant-position:normal;font-variant-caps:normal;font-variant-numeric:normal;font-variant-alternates:normal;font-feature-settings:normal;text-indent:0;text-align:start;text-decoration:none;text-decoration-line:none;text-decoration-style:solid;text-decoration-color:#000000;letter-spacing:normal;word-spacing:normal;text-transform:none;writing-mode:lr-tb;direction:ltr;text-orientation:mixed;dominant-baseline:auto;baseline-shift:baseline;text-anchor:start;white-space:normal;shape-padding:0;clip-rule:nonzero;display:inline;overflow:visible;visibility:visible;opacity:1;isolation:auto;mix-blend-mode:normal;color-interpolation:sRGB;color-interpolation-filters:linearRGB;solid-color:#000000;solid-opacity:1;vector-effect:none;fill:#000000;fill-opacity:1;fill-rule:nonzero;stroke:#f4f4f4;stroke-width:0.52916664;stroke-linecap:round;stroke-linejoin:miter;stroke-miterlimit:4;stroke-dasharray:none;stroke-dashoffset:0;stroke-opacity:1;paint-order:markers stroke fill;color-rendering:auto;image-rendering:auto;shape-rendering:auto;text-rendering:auto;enable-background:accumulate" />
    <path
       inkscape:connector-curvature="0"
       id="path6033-0"
       d="m 93.17821,19.968827 0,6.73915"
       style="opacity:1;vector-effect:none;fill:none;fill-opacity:1;stroke:#e7040f;stroke-width:0.7055555;stroke-linecap:round;stroke-linejoin:miter;stroke-miterlimit:4;stroke-dasharray:none;stroke-dashoffset:0;stroke-opacity:1;marker-end:url(#Arrow2Mend-7)"
       sodipodi:nodetypes="cc" />
    <g
       id="g2660"
       style="fill:#e7040f"
       ns1:jacobian_sqrt="0.678694"
       inkscapeversion="0.92.4"
       ns1:alignment="middle center"
       ns1:scale="1.92385834868"
       ns1:preamble="/home/fdf/.config/inkscape/extensions/textext/default_packages.tex"
       ns1:text="$4{,}02$ N"
       ns1:pdfconverter="pdf2svg"
       ns1:texconverter="pdflatex"
       ns1:version="0.9.0"
       transform="matrix(0.678694,0,0,0.678694,-4.1146603,-65.592175)">
      <g
         style="fill:#e7040f"
         id="surface1">
        <g
           id="g2643"
           style="fill:#e7040f;fill-opacity:1">
          <path
             id="path2641"
             transform="translate(148.712,134.765)"
             d="m 2.9375,-1.640625 v 0.859375 c 0,0.359375 -0.03125,0.46875 -0.765625,0.46875 H 1.96875 V 0 C 2.375,-0.03125 2.890625,-0.03125 3.3125,-0.03125 c 0.421875,0 0.9375,0 1.359375,0.03125 v -0.3125 h -0.21875 c -0.734375,0 -0.75,-0.109375 -0.75,-0.46875 V -1.640625 H 4.6875 v -0.3125 H 3.703125 v -4.53125 c 0,-0.203125 0,-0.265625 -0.171875,-0.265625 -0.078125,0 -0.109375,0 -0.1875,0.125 l -3.0625,4.671875 v 0.3125 z m 0.046875,-0.3125 H 0.5625 l 2.421875,-3.71875 z m 0,0"
             style="fill:#e7040f;stroke:none;stroke-width:0"
             inkscape:connector-curvature="0" />
        </g>
        <g
           id="g2647"
           style="fill:#e7040f;fill-opacity:1">
          <path
             id="path2645"
             transform="translate(153.694,134.765)"
             d="m 2.03125,-0.015625 c 0,-0.65625 -0.25,-1.046875 -0.640625,-1.046875 -0.328125,0 -0.53125,0.25 -0.53125,0.53125 C 0.859375,-0.265625 1.0625,0 1.390625,0 1.5,0 1.640625,-0.046875 1.734375,-0.125 1.765625,-0.15625 1.78125,-0.15625 1.78125,-0.15625 c 0.015625,0 0.015625,0 0.015625,0.140625 0,0.75 -0.34375,1.34375 -0.671875,1.671875 -0.109375,0.109375 -0.109375,0.125 -0.109375,0.15625 0,0.078125 0.046875,0.109375 0.09375,0.109375 0.109375,0 0.921875,-0.765625 0.921875,-1.9375 z m 0,0"
             style="fill:#e7040f;stroke:none;stroke-width:0"
             inkscape:connector-curvature="0" />
        </g>
        <g
           id="g2653"
           style="fill:#e7040f;fill-opacity:1">
          <path
             id="path2649"
             transform="translate(156.461,134.765)"
             d="m 4.578125,-3.1875 c 0,-0.796875 -0.046875,-1.59375 -0.390625,-2.328125 -0.453125,-0.96875 -1.28125,-1.125 -1.6875,-1.125 -0.609375,0 -1.328125,0.265625 -1.75,1.1875 -0.3125,0.6875 -0.359375,1.46875 -0.359375,2.265625 0,0.75 0.03125,1.640625 0.453125,2.40625 0.421875,0.796875 1.15625,1 1.640625,1 0.53125,0 1.296875,-0.203125 1.734375,-1.15625 0.3125,-0.6875 0.359375,-1.46875 0.359375,-2.25 z M 2.484375,0 C 2.09375,0 1.5,-0.25 1.328125,-1.203125 1.21875,-1.796875 1.21875,-2.71875 1.21875,-3.3125 c 0,-0.640625 0,-1.296875 0.078125,-1.828125 0.1875,-1.1875 0.9375,-1.28125 1.1875,-1.28125 0.328125,0 0.984375,0.1875 1.171875,1.171875 0.109375,0.5625 0.109375,1.3125 0.109375,1.9375 0,0.75 0,1.421875 -0.109375,2.0625 C 3.5,-0.296875 2.9375,0 2.484375,0 Z m 0,0"
             style="fill:#e7040f;stroke:none;stroke-width:0"
             inkscape:connector-curvature="0" />
          <path
             id="path2651"
             transform="translate(161.4423,134.765)"
             d="m 1.265625,-0.765625 1.0625,-1.03125 c 1.546875,-1.375 2.140625,-1.90625 2.140625,-2.90625 0,-1.140625 -0.890625,-1.9375 -2.109375,-1.9375 -1.125,0 -1.859375,0.921875 -1.859375,1.8125 0,0.546875 0.5,0.546875 0.53125,0.546875 0.171875,0 0.515625,-0.109375 0.515625,-0.53125 0,-0.25 -0.1875,-0.515625 -0.53125,-0.515625 -0.078125,0 -0.09375,0 -0.125,0.015625 0.21875,-0.65625 0.765625,-1.015625 1.34375,-1.015625 0.90625,0 1.328125,0.8125 1.328125,1.625 C 3.5625,-3.90625 3.078125,-3.125 2.515625,-2.5 l -1.90625,2.125 C 0.5,-0.265625 0.5,-0.234375 0.5,0 H 4.203125 L 4.46875,-1.734375 H 4.234375 C 4.171875,-1.4375 4.109375,-1 4,-0.84375 3.9375,-0.765625 3.28125,-0.765625 3.0625,-0.765625 Z m 0,0"
             style="fill:#e7040f;stroke:none;stroke-width:0"
             inkscape:connector-curvature="0" />
        </g>
        <g
           id="g2657"
           style="fill:#e7040f;fill-opacity:1">
          <path
             id="path2655"
             transform="translate(169.74115,134.765)"
             d="M 2.3125,-6.671875 C 2.21875,-6.796875 2.21875,-6.8125 2.03125,-6.8125 H 0.328125 V -6.5 H 0.625 c 0.140625,0 0.34375,0.015625 0.484375,0.015625 0.234375,0.03125 0.25,0.046875 0.25,0.234375 v 5.203125 c 0,0.265625 0,0.734375 -1.03125,0.734375 V 0 C 0.671875,-0.015625 1.171875,-0.03125 1.5,-0.03125 c 0.328125,0 0.8125,0.015625 1.15625,0.03125 v -0.3125 c -1.015625,0 -1.015625,-0.46875 -1.015625,-0.734375 v -5.1875 c 0.046875,0.046875 0.046875,0.0625 0.09375,0.125 L 5.796875,-0.125 C 5.890625,-0.015625 5.90625,0 5.96875,0 6.109375,0 6.109375,-0.0625 6.109375,-0.265625 v -5.5 c 0,-0.265625 0,-0.734375 1.03125,-0.734375 v -0.3125 c -0.359375,0.015625 -0.84375,0.03125 -1.171875,0.03125 -0.328125,0 -0.8125,-0.015625 -1.15625,-0.03125 V -6.5 c 1.015625,0 1.015625,0.46875 1.015625,0.734375 V -1.5 Z m 0,0"
             style="fill:#e7040f;stroke:none;stroke-width:0"
             inkscape:connector-curvature="0" />
        </g>
      </g>
    </g>
  </g>
  <g
     id="g14600"
     transform="matrix(1.2624246,0,0,1.2624246,-41.531755,-16.325801)">
    <g
       transform="rotate(-45,129.2138,28.958028)"
       id="g12697">
      <path
         inkscape:connector-curvature="0"
         d="M 113.6377,8.7278619 V 42.887596 M 116.28353,8.7278619 V 42.887596 M 118.92937,8.7278619 V 42.887596 M 121.5752,8.7278619 V 42.887596 M 124.22103,8.7278619 V 42.887596 M 126.86687,8.7278619 V 42.887596 M 129.5127,8.7278619 V 42.887596 M 132.15853,8.7278619 V 42.887596 M 134.80437,8.7278619 V 42.887596 M 137.4502,8.7278619 V 42.887596 M 140.09603,8.7278619 V 42.887596 M 142.74186,8.7278619 V 42.887596 M 145.3877,8.7278619 V 42.887596 m -31.75,-34.1597341 h 34.15973 M 113.6377,11.373695 h 34.15973 m -34.15973,2.645833 h 34.15973 m -34.15973,2.645833 h 34.15973 m -34.15973,2.645833 h 34.15973 m -34.15973,2.645833 h 34.15973 M 113.6377,24.60286 h 34.15973 m -34.15973,2.645833 h 34.15973 m -34.15973,2.645834 h 34.15973 M 113.6377,32.54036 h 34.15973 m -34.15973,2.645833 h 34.15973 m -34.15973,2.645833 h 34.15973 m -34.15973,2.645833 h 34.15973"
         style="fill:none;stroke:#d3d3d3;stroke-width:0.26458299px"
         id="path12674"
         clip-path="url(#clipPath12691)" />
      <path
         style="opacity:1;vector-effect:none;fill:none;fill-opacity:1;stroke:#d3d3d3;stroke-width:1.32291651;stroke-linecap:butt;stroke-linejoin:miter;stroke-miterlimit:4;stroke-dasharray:none;stroke-dashoffset:0;stroke-opacity:1"
         d="M 114.30584,20.30865 124.95118,9.6633052 146.86199,31.574112 136.21664,42.219457"
         id="path12662"
         inkscape:connector-curvature="0"
         sodipodi:nodetypes="cccc" />
    </g>
    <g
       transform="matrix(0.49514548,0,0,0.49514548,61.167966,2.3315228)"
       id="g14452">
      <path
         style="fill:#000000;stroke-width:0.12165253"
         id="path12701"
         d="m 141.70205,65.619488 c 0.83709,-0.06642 1.46214,-0.798649 1.39572,-1.635861 l -0.42445,-5.352955 c -0.0245,-0.309849 -0.14075,-0.600112 -0.33734,-0.841105 l -2.98864,-3.663445 0.13552,-6.901956 c 1.58915,0.801933 4.48278,2.07746 7.59234,2.516626 0.0453,0.0063 0.0904,0.0094 0.13479,0.0094 0.47822,1.22e-4 0.89536,-0.352427 0.963,-0.839402 0.074,-0.532474 -0.29768,-1.023828 -0.83003,-1.097914 -2.05472,-0.283816 -4.10906,-1.02103 -5.63312,-1.690849 -0.76204,-0.334544 -1.3928,-0.651084 -1.82954,-0.882346 -0.21836,-0.11557 -0.50446,-0.06762 -0.61833,-0.131973 -0.0568,-0.03212 -0.0996,-0.05681 -0.12749,-0.07299 -0.0277,-0.01642 -0.0376,-0.02214 -0.0376,-0.02214 -0.0921,-0.05511 -0.18978,-0.09246 -0.28905,-0.114475 0.10688,1.488408 -4.74385,2.761841 -5.18388,-0.2241 -0.0203,-0.138049 -0.27202,0.02956 -0.39221,0.08199 -0.0994,0.02202 -0.1972,0.05937 -0.28941,0.114475 h -2.5e-4 c 0,0 -0.01,0.0058 -0.0376,0.02202 -0.41009,0.246346 -4.23156,2.393513 -8.09208,2.920269 -0.53211,0.07384 -0.90376,0.565319 -0.82991,1.097671 0.0676,0.487096 0.48454,0.839524 0.96276,0.839524 0.0446,0 0.0898,-0.003 0.13527,-0.0094 3.10944,-0.439166 6.00331,-1.714815 7.59246,-2.516505 l 0.13552,6.901835 -2.98888,3.663566 c -0.19683,0.241115 -0.31289,0.531013 -0.33747,0.841227 l -0.42432,5.35259 c -0.0663,0.837334 0.55851,1.569804 1.39584,1.636105 0.0409,0.0032 0.0815,0.0047 0.12178,0.0047 0.78526,1.22e-4 1.45119,-0.604126 1.51433,-1.400464 l 0.38661,-4.879361 3.30274,-4.048596 h 0.59732 l 3.30262,4.048596 0.38673,4.879483 c 0.0633,0.796216 0.72919,1.400342 1.5147,1.400464 0.0403,1.21e-4 0.0806,-0.0016 0.12153,-0.0047 z"
         inkscape:connector-curvature="0"
         sodipodi:nodetypes="ccccccccccccccccsccccccsccccccccccccccccc" />
      <path
         sodipodi:nodetypes="cccsccsccccc"
         inkscape:connector-curvature="0"
         id="path13962"
         d="m 138.10006,44.493096 c 0.56064,0.146568 1.43595,0.609411 1.7105,0.687854 0,0 -0.5036,1.097084 0.0774,2.790529 -0.39572,2.100986 -0.50093,4.301791 0.49836,6.430609 0.62082,1.322541 2.02896,2.454509 2.31924,4.289665 -2.30214,1.391321 -11.36024,0.512023 -13.35826,0.828427 0.0993,-2.486561 1.77031,-3.947548 2.20585,-5.258752 0.56285,-1.694475 0.53069,-2.720741 0.73453,-6.345882 0.13068,-0.743416 0.8166,-0.641286 -0.20906,-2.620688 0.56828,-0.310988 0.82359,-0.761064 1.95425,-0.822094 2.10123,1.629105 3.36649,0.43677 4.06714,0.02033 z"
         style="opacity:1;vector-effect:none;fill:#357edd;fill-opacity:1;stroke:none;stroke-width:0.35277775;stroke-linecap:round;stroke-linejoin:round;stroke-miterlimit:4;stroke-dasharray:none;stroke-dashoffset:0;stroke-opacity:1" />
      <g
         transform="matrix(0.08301479,0,0,0.08301479,126.85967,44.30459)"
         id="g3567-0-9">
        <path
           inkscape:connector-curvature="0"
           style="fill:#ffb700;stroke-width:0.20050988"
           d="m 85.88079,26.03675 c 1.142906,0 2.085302,0.942396 2.085302,2.085302 0,1.142906 -0.942396,2.085302 -2.085302,2.085302 -1.142906,0 -2.085302,-0.942396 -2.085302,-2.085302 0,-1.162958 0.922344,-2.085302 2.085302,-2.085302 z"
           id="path3558-89-8" />
        <path
           inkscape:connector-curvature="0"
           style="fill:#f4f4f4;stroke-width:0.20050988"
           d="m 81.469572,31.410414 2.285812,-1.283264 c 0.40102,0.421072 0.922346,0.721836 1.503826,0.842142 l -0.0401,2.366016 c -0.02004,1.543926 -0.902296,2.927444 -2.62668,2.927444 -1.42362,0 -2.586578,-1.122854 -2.586578,-2.566526 0,-1.22311 0.822092,-1.944946 1.46372,-2.285812 z"
           id="path3556-3-0" />
        <path
           inkscape:connector-curvature="0"
           style="fill:#f4f4f4;stroke-width:0.20050988"
           d="m 86.482318,25.25476 0.02006,-2.486322 c 0.02004,-1.563976 0.922346,-2.827188 2.586578,-2.827188 1.44367,0 2.566526,1.183008 2.566526,2.566526 0,1.263212 -0.681734,1.884792 -1.784538,2.546476 l -1.82464,1.082752 c -0.40102,-0.441122 -0.942396,-0.761938 -1.563978,-0.882244 z"
           id="path3554-1-9" />
        <path
           inkscape:connector-curvature="0"
           style="fill:#f4f4f4;stroke-width:0.20050988"
           d="m 82.63253,19.981352 c 1.804588,0 2.62668,1.403568 2.62668,3.04775 l -0.02006,2.225658 c -0.62158,0.14036 -1.162956,0.461174 -1.563976,0.922346 l -1.884786,-1.102804 c -1.122854,-0.681734 -1.724384,-1.363466 -1.724384,-2.526424 0,-1.463722 1.122854,-2.566526 2.566526,-2.566526 z"
           id="path3552-489-6" />
        <path
           inkscape:connector-curvature="0"
           style="fill:#f4f4f4;stroke-width:0.20050988"
           d="m 88.667876,27.219758 2.325914,-1.243162 c 0.501276,-0.260662 1.00255,-0.40102 1.443672,-0.40102 1.383518,0 2.486322,1.243162 2.486322,2.606628 0,1.303314 -1.102804,2.566528 -2.466272,2.566528 -0.501274,0 -1.102804,-0.1604 -1.704332,-0.521326 l -2.105354,-1.22311 c 0.0802,-0.280714 0.14036,-0.58148 0.14036,-0.902294 0.02004,-0.300766 -0.02004,-0.60153 -0.1203,-0.882244 z"
           id="path3550-67-7" />
        <path
           inkscape:connector-curvature="0"
           style="fill:#f4f4f4;stroke-width:0.20050988"
           d="m 79.344168,25.575576 c 0.481224,0 1.0226,0.14036 1.62413,0.501276 l 2.085302,1.24316 c -0.0802,0.260664 -0.1203,0.521326 -0.1203,0.80204 0,0.300764 0.0401,0.60153 0.14036,0.882244 L 80.848,30.32766 c -0.501274,0.280714 -1.00255,0.40102 -1.463722,0.40102 -1.443672,0 -2.566526,-1.162956 -2.566526,-2.566526 0.02004,-1.323366 1.102804,-2.586578 2.526424,-2.586578 z"
           id="path3548-73-2" />
        <path
           inkscape:connector-curvature="0"
           style="fill:#f4f4f4;stroke-width:0.20050988"
           d="m 88.006194,30.147202 2.105354,1.203058 c 1.062702,0.621582 1.563976,1.40357 1.563976,2.386068 0,1.483774 -1.162956,2.586578 -2.566526,2.586578 -1.724384,0 -2.586578,-1.323366 -2.586578,-2.947496 l 0.0401,-2.386066 c 0.561428,-0.1604 1.062704,-0.441122 1.443674,-0.842142 z"
           id="path3509-7-1" />
      </g>
      <g
         transform="matrix(0.08301479,0,0,0.08301479,126.2932,50.239238)"
         id="g3567-0-9-4">
        <path
           inkscape:connector-curvature="0"
           style="fill:#ffb700;stroke-width:0.20050988"
           d="m 85.88079,26.03675 c 1.142906,0 2.085302,0.942396 2.085302,2.085302 0,1.142906 -0.942396,2.085302 -2.085302,2.085302 -1.142906,0 -2.085302,-0.942396 -2.085302,-2.085302 0,-1.162958 0.922344,-2.085302 2.085302,-2.085302 z"
           id="path3558-89-8-4" />
        <path
           inkscape:connector-curvature="0"
           style="fill:#f4f4f4;stroke-width:0.20050988"
           d="m 81.469572,31.410414 2.285812,-1.283264 c 0.40102,0.421072 0.922346,0.721836 1.503826,0.842142 l -0.0401,2.366016 c -0.02004,1.543926 -0.902296,2.927444 -2.62668,2.927444 -1.42362,0 -2.586578,-1.122854 -2.586578,-2.566526 0,-1.22311 0.822092,-1.944946 1.46372,-2.285812 z"
           id="path3556-3-0-8" />
        <path
           inkscape:connector-curvature="0"
           style="fill:#f4f4f4;stroke-width:0.20050988"
           d="m 86.482318,25.25476 0.02006,-2.486322 c 0.02004,-1.563976 0.922346,-2.827188 2.586578,-2.827188 1.44367,0 2.566526,1.183008 2.566526,2.566526 0,1.263212 -0.681734,1.884792 -1.784538,2.546476 l -1.82464,1.082752 c -0.40102,-0.441122 -0.942396,-0.761938 -1.563978,-0.882244 z"
           id="path3554-1-9-4" />
        <path
           inkscape:connector-curvature="0"
           style="fill:#f4f4f4;stroke-width:0.20050988"
           d="m 82.63253,19.981352 c 1.804588,0 2.62668,1.403568 2.62668,3.04775 l -0.02006,2.225658 c -0.62158,0.14036 -1.162956,0.461174 -1.563976,0.922346 l -1.884786,-1.102804 c -1.122854,-0.681734 -1.724384,-1.363466 -1.724384,-2.526424 0,-1.463722 1.122854,-2.566526 2.566526,-2.566526 z"
           id="path3552-489-6-9" />
        <path
           inkscape:connector-curvature="0"
           style="fill:#f4f4f4;stroke-width:0.20050988"
           d="m 88.667876,27.219758 2.325914,-1.243162 c 0.501276,-0.260662 1.00255,-0.40102 1.443672,-0.40102 1.383518,0 2.486322,1.243162 2.486322,2.606628 0,1.303314 -1.102804,2.566528 -2.466272,2.566528 -0.501274,0 -1.102804,-0.1604 -1.704332,-0.521326 l -2.105354,-1.22311 c 0.0802,-0.280714 0.14036,-0.58148 0.14036,-0.902294 0.02004,-0.300766 -0.02004,-0.60153 -0.1203,-0.882244 z"
           id="path3550-67-7-8" />
        <path
           inkscape:connector-curvature="0"
           style="fill:#f4f4f4;stroke-width:0.20050988"
           d="m 79.344168,25.575576 c 0.481224,0 1.0226,0.14036 1.62413,0.501276 l 2.085302,1.24316 c -0.0802,0.260664 -0.1203,0.521326 -0.1203,0.80204 0,0.300764 0.0401,0.60153 0.14036,0.882244 L 80.848,30.32766 c -0.501274,0.280714 -1.00255,0.40102 -1.463722,0.40102 -1.443672,0 -2.566526,-1.162956 -2.566526,-2.566526 0.02004,-1.323366 1.102804,-2.586578 2.526424,-2.586578 z"
           id="path3548-73-2-4" />
        <path
           inkscape:connector-curvature="0"
           style="fill:#f4f4f4;stroke-width:0.20050988"
           d="m 88.006194,30.147202 2.105354,1.203058 c 1.062702,0.621582 1.563976,1.40357 1.563976,2.386068 0,1.483774 -1.162956,2.586578 -2.566526,2.586578 -1.724384,0 -2.586578,-1.323366 -2.586578,-2.947496 l 0.0401,-2.386066 c 0.561428,-0.1604 1.062704,-0.441122 1.443674,-0.842142 z"
           id="path3509-7-1-4" />
      </g>
      <g
         transform="matrix(0.08301479,0,0,0.08301479,131.54361,48.744291)"
         id="g3567-0-9-1">
        <path
           inkscape:connector-curvature="0"
           style="fill:#ffb700;stroke-width:0.20050988"
           d="m 85.88079,26.03675 c 1.142906,0 2.085302,0.942396 2.085302,2.085302 0,1.142906 -0.942396,2.085302 -2.085302,2.085302 -1.142906,0 -2.085302,-0.942396 -2.085302,-2.085302 0,-1.162958 0.922344,-2.085302 2.085302,-2.085302 z"
           id="path3558-89-8-9" />
        <path
           inkscape:connector-curvature="0"
           style="fill:#f4f4f4;stroke-width:0.20050988"
           d="m 81.469572,31.410414 2.285812,-1.283264 c 0.40102,0.421072 0.922346,0.721836 1.503826,0.842142 l -0.0401,2.366016 c -0.02004,1.543926 -0.902296,2.927444 -2.62668,2.927444 -1.42362,0 -2.586578,-1.122854 -2.586578,-2.566526 0,-1.22311 0.822092,-1.944946 1.46372,-2.285812 z"
           id="path3556-3-0-6" />
        <path
           inkscape:connector-curvature="0"
           style="fill:#f4f4f4;stroke-width:0.20050988"
           d="m 86.482318,25.25476 0.02006,-2.486322 c 0.02004,-1.563976 0.922346,-2.827188 2.586578,-2.827188 1.44367,0 2.566526,1.183008 2.566526,2.566526 0,1.263212 -0.681734,1.884792 -1.784538,2.546476 l -1.82464,1.082752 c -0.40102,-0.441122 -0.942396,-0.761938 -1.563978,-0.882244 z"
           id="path3554-1-9-8" />
        <path
           inkscape:connector-curvature="0"
           style="fill:#f4f4f4;stroke-width:0.20050988"
           d="m 82.63253,19.981352 c 1.804588,0 2.62668,1.403568 2.62668,3.04775 l -0.02006,2.225658 c -0.62158,0.14036 -1.162956,0.461174 -1.563976,0.922346 l -1.884786,-1.102804 c -1.122854,-0.681734 -1.724384,-1.363466 -1.724384,-2.526424 0,-1.463722 1.122854,-2.566526 2.566526,-2.566526 z"
           id="path3552-489-6-0" />
        <path
           inkscape:connector-curvature="0"
           style="fill:#f4f4f4;stroke-width:0.20050988"
           d="m 88.667876,27.219758 2.325914,-1.243162 c 0.501276,-0.260662 1.00255,-0.40102 1.443672,-0.40102 1.383518,0 2.486322,1.243162 2.486322,2.606628 0,1.303314 -1.102804,2.566528 -2.466272,2.566528 -0.501274,0 -1.102804,-0.1604 -1.704332,-0.521326 l -2.105354,-1.22311 c 0.0802,-0.280714 0.14036,-0.58148 0.14036,-0.902294 0.02004,-0.300766 -0.02004,-0.60153 -0.1203,-0.882244 z"
           id="path3550-67-7-9" />
        <path
           inkscape:connector-curvature="0"
           style="fill:#f4f4f4;stroke-width:0.20050988"
           d="m 79.344168,25.575576 c 0.481224,0 1.0226,0.14036 1.62413,0.501276 l 2.085302,1.24316 c -0.0802,0.260664 -0.1203,0.521326 -0.1203,0.80204 0,0.300764 0.0401,0.60153 0.14036,0.882244 L 80.848,30.32766 c -0.501274,0.280714 -1.00255,0.40102 -1.463722,0.40102 -1.443672,0 -2.566526,-1.162956 -2.566526,-2.566526 0.02004,-1.323366 1.102804,-2.586578 2.526424,-2.586578 z"
           id="path3548-73-2-3" />
        <path
           inkscape:connector-curvature="0"
           style="fill:#f4f4f4;stroke-width:0.20050988"
           d="m 88.006194,30.147202 2.105354,1.203058 c 1.062702,0.621582 1.563976,1.40357 1.563976,2.386068 0,1.483774 -1.162956,2.586578 -2.566526,2.586578 -1.724384,0 -2.586578,-1.323366 -2.586578,-2.947496 l 0.0401,-2.386066 c 0.561428,-0.1604 1.062704,-0.441122 1.443674,-0.842142 z"
           id="path3509-7-1-6" />
      </g>
      <g
         transform="matrix(0.08301479,0,0,0.08301479,131.06859,45.199838)"
         id="g3567-0-9-3">
        <path
           inkscape:connector-curvature="0"
           style="fill:#ffb700;stroke-width:0.20050988"
           d="m 85.88079,26.03675 c 1.142906,0 2.085302,0.942396 2.085302,2.085302 0,1.142906 -0.942396,2.085302 -2.085302,2.085302 -1.142906,0 -2.085302,-0.942396 -2.085302,-2.085302 0,-1.162958 0.922344,-2.085302 2.085302,-2.085302 z"
           id="path3558-89-8-8" />
        <path
           inkscape:connector-curvature="0"
           style="fill:#f4f4f4;stroke-width:0.20050988"
           d="m 81.469572,31.410414 2.285812,-1.283264 c 0.40102,0.421072 0.922346,0.721836 1.503826,0.842142 l -0.0401,2.366016 c -0.02004,1.543926 -0.902296,2.927444 -2.62668,2.927444 -1.42362,0 -2.586578,-1.122854 -2.586578,-2.566526 0,-1.22311 0.822092,-1.944946 1.46372,-2.285812 z"
           id="path3556-3-0-9" />
        <path
           inkscape:connector-curvature="0"
           style="fill:#f4f4f4;stroke-width:0.20050988"
           d="m 86.482318,25.25476 0.02006,-2.486322 c 0.02004,-1.563976 0.922346,-2.827188 2.586578,-2.827188 1.44367,0 2.566526,1.183008 2.566526,2.566526 0,1.263212 -0.681734,1.884792 -1.784538,2.546476 l -1.82464,1.082752 c -0.40102,-0.441122 -0.942396,-0.761938 -1.563978,-0.882244 z"
           id="path3554-1-9-5" />
        <path
           inkscape:connector-curvature="0"
           style="fill:#f4f4f4;stroke-width:0.20050988"
           d="m 82.63253,19.981352 c 1.804588,0 2.62668,1.403568 2.62668,3.04775 l -0.02006,2.225658 c -0.62158,0.14036 -1.162956,0.461174 -1.563976,0.922346 l -1.884786,-1.102804 c -1.122854,-0.681734 -1.724384,-1.363466 -1.724384,-2.526424 0,-1.463722 1.122854,-2.566526 2.566526,-2.566526 z"
           id="path3552-489-6-01" />
        <path
           inkscape:connector-curvature="0"
           style="fill:#f4f4f4;stroke-width:0.20050988"
           d="m 88.667876,27.219758 2.325914,-1.243162 c 0.501276,-0.260662 1.00255,-0.40102 1.443672,-0.40102 1.383518,0 2.486322,1.243162 2.486322,2.606628 0,1.303314 -1.102804,2.566528 -2.466272,2.566528 -0.501274,0 -1.102804,-0.1604 -1.704332,-0.521326 l -2.105354,-1.22311 c 0.0802,-0.280714 0.14036,-0.58148 0.14036,-0.902294 0.02004,-0.300766 -0.02004,-0.60153 -0.1203,-0.882244 z"
           id="path3550-67-7-7" />
        <path
           inkscape:connector-curvature="0"
           style="fill:#f4f4f4;stroke-width:0.20050988"
           d="m 79.344168,25.575576 c 0.481224,0 1.0226,0.14036 1.62413,0.501276 l 2.085302,1.24316 c -0.0802,0.260664 -0.1203,0.521326 -0.1203,0.80204 0,0.300764 0.0401,0.60153 0.14036,0.882244 L 80.848,30.32766 c -0.501274,0.280714 -1.00255,0.40102 -1.463722,0.40102 -1.443672,0 -2.566526,-1.162956 -2.566526,-2.566526 0.02004,-1.323366 1.102804,-2.586578 2.526424,-2.586578 z"
           id="path3548-73-2-1" />
        <path
           inkscape:connector-curvature="0"
           style="fill:#f4f4f4;stroke-width:0.20050988"
           d="m 88.006194,30.147202 2.105354,1.203058 c 1.062702,0.621582 1.563976,1.40357 1.563976,2.386068 0,1.483774 -1.162956,2.586578 -2.566526,2.586578 -1.724384,0 -2.586578,-1.323366 -2.586578,-2.947496 l 0.0401,-2.386066 c 0.561428,-0.1604 1.062704,-0.441122 1.443674,-0.842142 z"
           id="path3509-7-1-9" />
      </g>
      <g
         transform="matrix(0.08301479,0,0,0.08301479,128.32838,47.786708)"
         id="g3567-0-9-8">
        <path
           inkscape:connector-curvature="0"
           style="fill:#ffb700;stroke-width:0.20050988"
           d="m 85.88079,26.03675 c 1.142906,0 2.085302,0.942396 2.085302,2.085302 0,1.142906 -0.942396,2.085302 -2.085302,2.085302 -1.142906,0 -2.085302,-0.942396 -2.085302,-2.085302 0,-1.162958 0.922344,-2.085302 2.085302,-2.085302 z"
           id="path3558-89-8-2" />
        <path
           inkscape:connector-curvature="0"
           style="fill:#f4f4f4;stroke-width:0.20050988"
           d="m 81.469572,31.410414 2.285812,-1.283264 c 0.40102,0.421072 0.922346,0.721836 1.503826,0.842142 l -0.0401,2.366016 c -0.02004,1.543926 -0.902296,2.927444 -2.62668,2.927444 -1.42362,0 -2.586578,-1.122854 -2.586578,-2.566526 0,-1.22311 0.822092,-1.944946 1.46372,-2.285812 z"
           id="path3556-3-0-67" />
        <path
           inkscape:connector-curvature="0"
           style="fill:#f4f4f4;stroke-width:0.20050988"
           d="m 86.482318,25.25476 0.02006,-2.486322 c 0.02004,-1.563976 0.922346,-2.827188 2.586578,-2.827188 1.44367,0 2.566526,1.183008 2.566526,2.566526 0,1.263212 -0.681734,1.884792 -1.784538,2.546476 l -1.82464,1.082752 c -0.40102,-0.441122 -0.942396,-0.761938 -1.563978,-0.882244 z"
           id="path3554-1-9-59" />
        <path
           inkscape:connector-curvature="0"
           style="fill:#f4f4f4;stroke-width:0.20050988"
           d="m 82.63253,19.981352 c 1.804588,0 2.62668,1.403568 2.62668,3.04775 l -0.02006,2.225658 c -0.62158,0.14036 -1.162956,0.461174 -1.563976,0.922346 l -1.884786,-1.102804 c -1.122854,-0.681734 -1.724384,-1.363466 -1.724384,-2.526424 0,-1.463722 1.122854,-2.566526 2.566526,-2.566526 z"
           id="path3552-489-6-3" />
        <path
           inkscape:connector-curvature="0"
           style="fill:#f4f4f4;stroke-width:0.20050988"
           d="m 88.667876,27.219758 2.325914,-1.243162 c 0.501276,-0.260662 1.00255,-0.40102 1.443672,-0.40102 1.383518,0 2.486322,1.243162 2.486322,2.606628 0,1.303314 -1.102804,2.566528 -2.466272,2.566528 -0.501274,0 -1.102804,-0.1604 -1.704332,-0.521326 l -2.105354,-1.22311 c 0.0802,-0.280714 0.14036,-0.58148 0.14036,-0.902294 0.02004,-0.300766 -0.02004,-0.60153 -0.1203,-0.882244 z"
           id="path3550-67-7-99" />
        <path
           inkscape:connector-curvature="0"
           style="fill:#f4f4f4;stroke-width:0.20050988"
           d="m 79.344168,25.575576 c 0.481224,0 1.0226,0.14036 1.62413,0.501276 l 2.085302,1.24316 c -0.0802,0.260664 -0.1203,0.521326 -0.1203,0.80204 0,0.300764 0.0401,0.60153 0.14036,0.882244 L 80.848,30.32766 c -0.501274,0.280714 -1.00255,0.40102 -1.463722,0.40102 -1.443672,0 -2.566526,-1.162956 -2.566526,-2.566526 0.02004,-1.323366 1.102804,-2.586578 2.526424,-2.586578 z"
           id="path3548-73-2-7" />
        <path
           inkscape:connector-curvature="0"
           style="fill:#f4f4f4;stroke-width:0.20050988"
           d="m 88.006194,30.147202 2.105354,1.203058 c 1.062702,0.621582 1.563976,1.40357 1.563976,2.386068 0,1.483774 -1.162956,2.586578 -2.566526,2.586578 -1.724384,0 -2.586578,-1.323366 -2.586578,-2.947496 l 0.0401,-2.386066 c 0.561428,-0.1604 1.062704,-0.441122 1.443674,-0.842142 z"
           id="path3509-7-1-97" />
      </g>
      <g
         transform="matrix(0.08301479,0,0,0.08301479,123.68735,55.212004)"
         id="g3567-0-9-35">
        <path
           inkscape:connector-curvature="0"
           style="fill:#ffb700;stroke-width:0.20050988"
           d="m 85.88079,26.03675 c 1.142906,0 2.085302,0.942396 2.085302,2.085302 0,1.142906 -0.942396,2.085302 -2.085302,2.085302 -1.142906,0 -2.085302,-0.942396 -2.085302,-2.085302 0,-1.162958 0.922344,-2.085302 2.085302,-2.085302 z"
           id="path3558-89-8-0" />
        <path
           inkscape:connector-curvature="0"
           style="fill:#f4f4f4;stroke-width:0.20050988"
           d="m 81.469572,31.410414 2.285812,-1.283264 c 0.40102,0.421072 0.922346,0.721836 1.503826,0.842142 l -0.0401,2.366016 c -0.02004,1.543926 -0.902296,2.927444 -2.62668,2.927444 -1.42362,0 -2.586578,-1.122854 -2.586578,-2.566526 0,-1.22311 0.822092,-1.944946 1.46372,-2.285812 z"
           id="path3556-3-0-4" />
        <path
           inkscape:connector-curvature="0"
           style="fill:#f4f4f4;stroke-width:0.20050988"
           d="m 86.482318,25.25476 0.02006,-2.486322 c 0.02004,-1.563976 0.922346,-2.827188 2.586578,-2.827188 1.44367,0 2.566526,1.183008 2.566526,2.566526 0,1.263212 -0.681734,1.884792 -1.784538,2.546476 l -1.82464,1.082752 c -0.40102,-0.441122 -0.942396,-0.761938 -1.563978,-0.882244 z"
           id="path3554-1-9-1" />
        <path
           inkscape:connector-curvature="0"
           style="fill:#f4f4f4;stroke-width:0.20050988"
           d="m 82.63253,19.981352 c 1.804588,0 2.62668,1.403568 2.62668,3.04775 l -0.02006,2.225658 c -0.62158,0.14036 -1.162956,0.461174 -1.563976,0.922346 l -1.884786,-1.102804 c -1.122854,-0.681734 -1.724384,-1.363466 -1.724384,-2.526424 0,-1.463722 1.122854,-2.566526 2.566526,-2.566526 z"
           id="path3552-489-6-94" />
        <path
           inkscape:connector-curvature="0"
           style="fill:#f4f4f4;stroke-width:0.20050988"
           d="m 88.667876,27.219758 2.325914,-1.243162 c 0.501276,-0.260662 1.00255,-0.40102 1.443672,-0.40102 1.383518,0 2.486322,1.243162 2.486322,2.606628 0,1.303314 -1.102804,2.566528 -2.466272,2.566528 -0.501274,0 -1.102804,-0.1604 -1.704332,-0.521326 l -2.105354,-1.22311 c 0.0802,-0.280714 0.14036,-0.58148 0.14036,-0.902294 0.02004,-0.300766 -0.02004,-0.60153 -0.1203,-0.882244 z"
           id="path3550-67-7-1" />
        <path
           inkscape:connector-curvature="0"
           style="fill:#f4f4f4;stroke-width:0.20050988"
           d="m 79.344168,25.575576 c 0.481224,0 1.0226,0.14036 1.62413,0.501276 l 2.085302,1.24316 c -0.0802,0.260664 -0.1203,0.521326 -0.1203,0.80204 0,0.300764 0.0401,0.60153 0.14036,0.882244 L 80.848,30.32766 c -0.501274,0.280714 -1.00255,0.40102 -1.463722,0.40102 -1.443672,0 -2.566526,-1.162956 -2.566526,-2.566526 0.02004,-1.323366 1.102804,-2.586578 2.526424,-2.586578 z"
           id="path3548-73-2-43" />
        <path
           inkscape:connector-curvature="0"
           style="fill:#f4f4f4;stroke-width:0.20050988"
           d="m 88.006194,30.147202 2.105354,1.203058 c 1.062702,0.621582 1.563976,1.40357 1.563976,2.386068 0,1.483774 -1.162956,2.586578 -2.566526,2.586578 -1.724384,0 -2.586578,-1.323366 -2.586578,-2.947496 l 0.0401,-2.386066 c 0.561428,-0.1604 1.062704,-0.441122 1.443674,-0.842142 z"
           id="path3509-7-1-64" />
      </g>
      <g
         transform="matrix(0.08301479,0,0,0.08301479,129.90787,55.208062)"
         id="g3567-0-9-2">
        <path
           inkscape:connector-curvature="0"
           style="fill:#ffb700;stroke-width:0.20050988"
           d="m 85.88079,26.03675 c 1.142906,0 2.085302,0.942396 2.085302,2.085302 0,1.142906 -0.942396,2.085302 -2.085302,2.085302 -1.142906,0 -2.085302,-0.942396 -2.085302,-2.085302 0,-1.162958 0.922344,-2.085302 2.085302,-2.085302 z"
           id="path3558-89-8-27" />
        <path
           inkscape:connector-curvature="0"
           style="fill:#f4f4f4;stroke-width:0.20050988"
           d="m 81.469572,31.410414 2.285812,-1.283264 c 0.40102,0.421072 0.922346,0.721836 1.503826,0.842142 l -0.0401,2.366016 c -0.02004,1.543926 -0.902296,2.927444 -2.62668,2.927444 -1.42362,0 -2.586578,-1.122854 -2.586578,-2.566526 0,-1.22311 0.822092,-1.944946 1.46372,-2.285812 z"
           id="path3556-3-0-61" />
        <path
           inkscape:connector-curvature="0"
           style="fill:#f4f4f4;stroke-width:0.20050988"
           d="m 86.482318,25.25476 0.02006,-2.486322 c 0.02004,-1.563976 0.922346,-2.827188 2.586578,-2.827188 1.44367,0 2.566526,1.183008 2.566526,2.566526 0,1.263212 -0.681734,1.884792 -1.784538,2.546476 l -1.82464,1.082752 c -0.40102,-0.441122 -0.942396,-0.761938 -1.563978,-0.882244 z"
           id="path3554-1-9-85" />
        <path
           inkscape:connector-curvature="0"
           style="fill:#f4f4f4;stroke-width:0.20050988"
           d="m 82.63253,19.981352 c 1.804588,0 2.62668,1.403568 2.62668,3.04775 l -0.02006,2.225658 c -0.62158,0.14036 -1.162956,0.461174 -1.563976,0.922346 l -1.884786,-1.102804 c -1.122854,-0.681734 -1.724384,-1.363466 -1.724384,-2.526424 0,-1.463722 1.122854,-2.566526 2.566526,-2.566526 z"
           id="path3552-489-6-1" />
        <path
           inkscape:connector-curvature="0"
           style="fill:#f4f4f4;stroke-width:0.20050988"
           d="m 88.667876,27.219758 2.325914,-1.243162 c 0.501276,-0.260662 1.00255,-0.40102 1.443672,-0.40102 1.383518,0 2.486322,1.243162 2.486322,2.606628 0,1.303314 -1.102804,2.566528 -2.466272,2.566528 -0.501274,0 -1.102804,-0.1604 -1.704332,-0.521326 l -2.105354,-1.22311 c 0.0802,-0.280714 0.14036,-0.58148 0.14036,-0.902294 0.02004,-0.300766 -0.02004,-0.60153 -0.1203,-0.882244 z"
           id="path3550-67-7-13" />
        <path
           inkscape:connector-curvature="0"
           style="fill:#f4f4f4;stroke-width:0.20050988"
           d="m 79.344168,25.575576 c 0.481224,0 1.0226,0.14036 1.62413,0.501276 l 2.085302,1.24316 c -0.0802,0.260664 -0.1203,0.521326 -0.1203,0.80204 0,0.300764 0.0401,0.60153 0.14036,0.882244 L 80.848,30.32766 c -0.501274,0.280714 -1.00255,0.40102 -1.463722,0.40102 -1.443672,0 -2.566526,-1.162956 -2.566526,-2.566526 0.02004,-1.323366 1.102804,-2.586578 2.526424,-2.586578 z"
           id="path3548-73-2-0" />
        <path
           inkscape:connector-curvature="0"
           style="fill:#f4f4f4;stroke-width:0.20050988"
           d="m 88.006194,30.147202 2.105354,1.203058 c 1.062702,0.621582 1.563976,1.40357 1.563976,2.386068 0,1.483774 -1.162956,2.586578 -2.566526,2.586578 -1.724384,0 -2.586578,-1.323366 -2.586578,-2.947496 l 0.0401,-2.386066 c 0.561428,-0.1604 1.062704,-0.441122 1.443674,-0.842142 z"
           id="path3509-7-1-644" />
      </g>
      <g
         transform="matrix(0.08301479,0,0,0.08301479,133.95054,55.784563)"
         id="g3567-0-9-7">
        <path
           inkscape:connector-curvature="0"
           style="fill:#ffb700;stroke-width:0.20050988"
           d="m 85.88079,26.03675 c 1.142906,0 2.085302,0.942396 2.085302,2.085302 0,1.142906 -0.942396,2.085302 -2.085302,2.085302 -1.142906,0 -2.085302,-0.942396 -2.085302,-2.085302 0,-1.162958 0.922344,-2.085302 2.085302,-2.085302 z"
           id="path3558-89-8-5" />
        <path
           inkscape:connector-curvature="0"
           style="fill:#f4f4f4;stroke-width:0.20050988"
           d="m 81.469572,31.410414 2.285812,-1.283264 c 0.40102,0.421072 0.922346,0.721836 1.503826,0.842142 l -0.0401,2.366016 c -0.02004,1.543926 -0.902296,2.927444 -2.62668,2.927444 -1.42362,0 -2.586578,-1.122854 -2.586578,-2.566526 0,-1.22311 0.822092,-1.944946 1.46372,-2.285812 z"
           id="path3556-3-0-3" />
        <path
           inkscape:connector-curvature="0"
           style="fill:#f4f4f4;stroke-width:0.20050988"
           d="m 86.482318,25.25476 0.02006,-2.486322 c 0.02004,-1.563976 0.922346,-2.827188 2.586578,-2.827188 1.44367,0 2.566526,1.183008 2.566526,2.566526 0,1.263212 -0.681734,1.884792 -1.784538,2.546476 l -1.82464,1.082752 c -0.40102,-0.441122 -0.942396,-0.761938 -1.563978,-0.882244 z"
           id="path3554-1-9-82" />
        <path
           inkscape:connector-curvature="0"
           style="fill:#f4f4f4;stroke-width:0.20050988"
           d="m 82.63253,19.981352 c 1.804588,0 2.62668,1.403568 2.62668,3.04775 l -0.02006,2.225658 c -0.62158,0.14036 -1.162956,0.461174 -1.563976,0.922346 l -1.884786,-1.102804 c -1.122854,-0.681734 -1.724384,-1.363466 -1.724384,-2.526424 0,-1.463722 1.122854,-2.566526 2.566526,-2.566526 z"
           id="path3552-489-6-7" />
        <path
           inkscape:connector-curvature="0"
           style="fill:#f4f4f4;stroke-width:0.20050988"
           d="m 88.667876,27.219758 2.325914,-1.243162 c 0.501276,-0.260662 1.00255,-0.40102 1.443672,-0.40102 1.383518,0 2.486322,1.243162 2.486322,2.606628 0,1.303314 -1.102804,2.566528 -2.466272,2.566528 -0.501274,0 -1.102804,-0.1604 -1.704332,-0.521326 l -2.105354,-1.22311 c 0.0802,-0.280714 0.14036,-0.58148 0.14036,-0.902294 0.02004,-0.300766 -0.02004,-0.60153 -0.1203,-0.882244 z"
           id="path3550-67-7-3" />
        <path
           inkscape:connector-curvature="0"
           style="fill:#f4f4f4;stroke-width:0.20050988"
           d="m 79.344168,25.575576 c 0.481224,0 1.0226,0.14036 1.62413,0.501276 l 2.085302,1.24316 c -0.0802,0.260664 -0.1203,0.521326 -0.1203,0.80204 0,0.300764 0.0401,0.60153 0.14036,0.882244 L 80.848,30.32766 c -0.501274,0.280714 -1.00255,0.40102 -1.463722,0.40102 -1.443672,0 -2.566526,-1.162956 -2.566526,-2.566526 0.02004,-1.323366 1.102804,-2.586578 2.526424,-2.586578 z"
           id="path3548-73-2-5" />
        <path
           inkscape:connector-curvature="0"
           style="fill:#f4f4f4;stroke-width:0.20050988"
           d="m 88.006194,30.147202 2.105354,1.203058 c 1.062702,0.621582 1.563976,1.40357 1.563976,2.386068 0,1.483774 -1.162956,2.586578 -2.566526,2.586578 -1.724384,0 -2.586578,-1.323366 -2.586578,-2.947496 l 0.0401,-2.386066 c 0.561428,-0.1604 1.062704,-0.441122 1.443674,-0.842142 z"
           id="path3509-7-1-3" />
      </g>
      <g
         id="g14195"
         transform="matrix(0.76255736,-0.19097709,0.19097709,0.76255736,19.074836,38.206739)"
         style="fill:#000000"
         inkscape:transform-center-y="-0.11596206"
         inkscape:transform-center-x="0.49684081">
        <path
           inkscape:connector-curvature="0"
           d="m 142.14978,37.083863 c -0.26374,-0.355819 -0.65513,-0.618525 -1.12472,-0.707424 -0.98968,-0.187356 -1.94392,0.4631 -2.13127,1.452775 -0.11948,0.631115 0.10269,1.246877 0.53543,1.659455 0.20269,-0.510252 0.50986,-0.977955 0.91225,-1.375165 0.51038,-0.50398 1.1319,-0.854093 1.80831,-1.029642 z"
           id="path4117-5-4"
           style="fill:#000000;fill-opacity:1;stroke-width:0.16212033" />
        <g
           style="fill:#000000;fill-opacity:1"
           id="g4218-4-8"
           transform="matrix(1.0670396,0,0,1.0670396,29.494803,23.70959)">
          <circle
             r="3.4184093"
             cy="16.179581"
             cx="106.52979"
             id="path6312-1-0"
             style="opacity:1;vector-effect:none;fill:#000000;fill-opacity:1;stroke:none;stroke-width:0.37982327;stroke-linecap:butt;stroke-linejoin:bevel;stroke-miterlimit:4;stroke-dasharray:none;stroke-dashoffset:0;stroke-opacity:1;paint-order:markers stroke fill" />
        </g>
      </g>
      <g
         transform="matrix(0.08301479,0,0,0.08301479,131.87254,53.018752)"
         id="g3567-0-9-7-0">
        <path
           inkscape:connector-curvature="0"
           style="fill:#ffb700;stroke-width:0.20050988"
           d="m 85.88079,26.03675 c 1.142906,0 2.085302,0.942396 2.085302,2.085302 0,1.142906 -0.942396,2.085302 -2.085302,2.085302 -1.142906,0 -2.085302,-0.942396 -2.085302,-2.085302 0,-1.162958 0.922344,-2.085302 2.085302,-2.085302 z"
           id="path3558-89-8-5-1" />
        <path
           inkscape:connector-curvature="0"
           style="fill:#f4f4f4;stroke-width:0.20050988"
           d="m 81.469572,31.410414 2.285812,-1.283264 c 0.40102,0.421072 0.922346,0.721836 1.503826,0.842142 l -0.0401,2.366016 c -0.02004,1.543926 -0.902296,2.927444 -2.62668,2.927444 -1.42362,0 -2.586578,-1.122854 -2.586578,-2.566526 0,-1.22311 0.822092,-1.944946 1.46372,-2.285812 z"
           id="path3556-3-0-3-6" />
        <path
           inkscape:connector-curvature="0"
           style="fill:#f4f4f4;stroke-width:0.20050988"
           d="m 86.482318,25.25476 0.02006,-2.486322 c 0.02004,-1.563976 0.922346,-2.827188 2.586578,-2.827188 1.44367,0 2.566526,1.183008 2.566526,2.566526 0,1.263212 -0.681734,1.884792 -1.784538,2.546476 l -1.82464,1.082752 c -0.40102,-0.441122 -0.942396,-0.761938 -1.563978,-0.882244 z"
           id="path3554-1-9-82-4" />
        <path
           inkscape:connector-curvature="0"
           style="fill:#f4f4f4;stroke-width:0.20050988"
           d="m 82.63253,19.981352 c 1.804588,0 2.62668,1.403568 2.62668,3.04775 l -0.02006,2.225658 c -0.62158,0.14036 -1.162956,0.461174 -1.563976,0.922346 l -1.884786,-1.102804 c -1.122854,-0.681734 -1.724384,-1.363466 -1.724384,-2.526424 0,-1.463722 1.122854,-2.566526 2.566526,-2.566526 z"
           id="path3552-489-6-7-5" />
        <path
           inkscape:connector-curvature="0"
           style="fill:#f4f4f4;stroke-width:0.20050988"
           d="m 88.667876,27.219758 2.325914,-1.243162 c 0.501276,-0.260662 1.00255,-0.40102 1.443672,-0.40102 1.383518,0 2.486322,1.243162 2.486322,2.606628 0,1.303314 -1.102804,2.566528 -2.466272,2.566528 -0.501274,0 -1.102804,-0.1604 -1.704332,-0.521326 l -2.105354,-1.22311 c 0.0802,-0.280714 0.14036,-0.58148 0.14036,-0.902294 0.02004,-0.300766 -0.02004,-0.60153 -0.1203,-0.882244 z"
           id="path3550-67-7-3-8" />
        <path
           inkscape:connector-curvature="0"
           style="fill:#f4f4f4;stroke-width:0.20050988"
           d="m 79.344168,25.575576 c 0.481224,0 1.0226,0.14036 1.62413,0.501276 l 2.085302,1.24316 c -0.0802,0.260664 -0.1203,0.521326 -0.1203,0.80204 0,0.300764 0.0401,0.60153 0.14036,0.882244 L 80.848,30.32766 c -0.501274,0.280714 -1.00255,0.40102 -1.463722,0.40102 -1.443672,0 -2.566526,-1.162956 -2.566526,-2.566526 0.02004,-1.323366 1.102804,-2.586578 2.526424,-2.586578 z"
           id="path3548-73-2-5-3" />
        <path
           inkscape:connector-curvature="0"
           style="fill:#f4f4f4;stroke-width:0.20050988"
           d="m 88.006194,30.147202 2.105354,1.203058 c 1.062702,0.621582 1.563976,1.40357 1.563976,2.386068 0,1.483774 -1.162956,2.586578 -2.566526,2.586578 -1.724384,0 -2.586578,-1.323366 -2.586578,-2.947496 l 0.0401,-2.386066 c 0.561428,-0.1604 1.062704,-0.441122 1.443674,-0.842142 z"
           id="path3509-7-1-3-1" />
      </g>
      <g
         transform="matrix(0.08301479,0,0,0.08301479,126.66978,52.981853)"
         id="g3567-0-9-7-2">
        <path
           inkscape:connector-curvature="0"
           style="fill:#ffb700;stroke-width:0.20050988"
           d="m 85.88079,26.03675 c 1.142906,0 2.085302,0.942396 2.085302,2.085302 0,1.142906 -0.942396,2.085302 -2.085302,2.085302 -1.142906,0 -2.085302,-0.942396 -2.085302,-2.085302 0,-1.162958 0.922344,-2.085302 2.085302,-2.085302 z"
           id="path3558-89-8-5-2" />
        <path
           inkscape:connector-curvature="0"
           style="fill:#f4f4f4;stroke-width:0.20050988"
           d="m 81.469572,31.410414 2.285812,-1.283264 c 0.40102,0.421072 0.922346,0.721836 1.503826,0.842142 l -0.0401,2.366016 c -0.02004,1.543926 -0.902296,2.927444 -2.62668,2.927444 -1.42362,0 -2.586578,-1.122854 -2.586578,-2.566526 0,-1.22311 0.822092,-1.944946 1.46372,-2.285812 z"
           id="path3556-3-0-3-9" />
        <path
           inkscape:connector-curvature="0"
           style="fill:#f4f4f4;stroke-width:0.20050988"
           d="m 86.482318,25.25476 0.02006,-2.486322 c 0.02004,-1.563976 0.922346,-2.827188 2.586578,-2.827188 1.44367,0 2.566526,1.183008 2.566526,2.566526 0,1.263212 -0.681734,1.884792 -1.784538,2.546476 l -1.82464,1.082752 c -0.40102,-0.441122 -0.942396,-0.761938 -1.563978,-0.882244 z"
           id="path3554-1-9-82-5" />
        <path
           inkscape:connector-curvature="0"
           style="fill:#f4f4f4;stroke-width:0.20050988"
           d="m 82.63253,19.981352 c 1.804588,0 2.62668,1.403568 2.62668,3.04775 l -0.02006,2.225658 c -0.62158,0.14036 -1.162956,0.461174 -1.563976,0.922346 l -1.884786,-1.102804 c -1.122854,-0.681734 -1.724384,-1.363466 -1.724384,-2.526424 0,-1.463722 1.122854,-2.566526 2.566526,-2.566526 z"
           id="path3552-489-6-7-54" />
        <path
           inkscape:connector-curvature="0"
           style="fill:#f4f4f4;stroke-width:0.20050988"
           d="m 88.667876,27.219758 2.325914,-1.243162 c 0.501276,-0.260662 1.00255,-0.40102 1.443672,-0.40102 1.383518,0 2.486322,1.243162 2.486322,2.606628 0,1.303314 -1.102804,2.566528 -2.466272,2.566528 -0.501274,0 -1.102804,-0.1604 -1.704332,-0.521326 l -2.105354,-1.22311 c 0.0802,-0.280714 0.14036,-0.58148 0.14036,-0.902294 0.02004,-0.300766 -0.02004,-0.60153 -0.1203,-0.882244 z"
           id="path3550-67-7-3-6" />
        <path
           inkscape:connector-curvature="0"
           style="fill:#f4f4f4;stroke-width:0.20050988"
           d="m 79.344168,25.575576 c 0.481224,0 1.0226,0.14036 1.62413,0.501276 l 2.085302,1.24316 c -0.0802,0.260664 -0.1203,0.521326 -0.1203,0.80204 0,0.300764 0.0401,0.60153 0.14036,0.882244 L 80.848,30.32766 c -0.501274,0.280714 -1.00255,0.40102 -1.463722,0.40102 -1.443672,0 -2.566526,-1.162956 -2.566526,-2.566526 0.02004,-1.323366 1.102804,-2.586578 2.526424,-2.586578 z"
           id="path3548-73-2-5-31" />
        <path
           inkscape:connector-curvature="0"
           style="fill:#f4f4f4;stroke-width:0.20050988"
           d="m 88.006194,30.147202 2.105354,1.203058 c 1.062702,0.621582 1.563976,1.40357 1.563976,2.386068 0,1.483774 -1.162956,2.586578 -2.566526,2.586578 -1.724384,0 -2.586578,-1.323366 -2.586578,-2.947496 l 0.0401,-2.386066 c 0.561428,-0.1604 1.062704,-0.441122 1.443674,-0.842142 z"
           id="path3509-7-1-3-2" />
      </g>
    </g>
  </g>
</svg>
